<svg xmlns="http://www.w3.org/2000/svg" viewBox="0 0 4389.02 1189.33"><g id="Layer_2" data-name="Layer 2"><g id="_ÎÓÈ_1" data-name="—ÎÓÈ_1"><rect x="2042.3" y="1033.63" width="16.64" height="95.54" transform="translate(-245.82 763.85) rotate(-19.93)" style="fill:#8e8e8e"/><rect x="1859.49" y="1033.63" width="16.64" height="95.54" transform="translate(-256.77 701.53) rotate(-19.93)" style="fill:#8e8e8e"/><rect x="1891.09" y="1021.08" width="15.99" height="111.11" transform="translate(440.85 -547.93) rotate(18.54)" style="fill:#ccc"/><polygon points="1921.93 1033.66 1905.06 1033.66 1900.22 1048.1 1916.7 1049.25 1921.93 1033.66" style="fill:#b7b7b7"/><rect x="1901.15" y="1022.72" width="5.66" height="111.11" transform="translate(441.63 -549.41) rotate(18.54)" style="fill:#b7b7b7"/><rect x="1888.3" y="1071.74" width="21.57" height="9.78" transform="translate(440.84 -547.93) rotate(18.54)" style="fill:#e2e2e2"/><rect x="1888.3" y="1075.92" width="21.57" height="1.43" transform="translate(440.84 -547.92) rotate(18.54)" style="fill:#9b9b9b"/><rect x="1838.66" y="1122.47" width="89.75" height="12.89" style="fill:#afafaf"/><rect x="1838.66" y="1131.15" width="89.75" height="4.21" style="fill:#8e8e8e"/><circle cx="1837" cy="1150.33" r="39" style="fill:#3f3f3f"/><path d="M1826,1112.93a39,39,0,0,0-28,37.4c0,.7.07,1.38.11,2.07l38.89-2.07Z" style="fill:#fff"/><circle cx="1837" cy="1150.33" r="36.5" style="fill:#232323"/><circle cx="1837" cy="1150.33" r="21.27" style="fill:#4e89ad"/><circle cx="1837" cy="1150.33" r="16.3" style="fill:#36708e"/><circle cx="1837" cy="1150.33" r="5.54" style="fill:#cecece"/><circle cx="1928.41" cy="1150.33" r="39" style="fill:#3f3f3f"/><path d="M1917.44,1112.93a39,39,0,0,0-28,37.4c0,.7.07,1.38.1,2.07l38.89-2.07Z" style="fill:#fff"/><circle cx="1928.41" cy="1150.33" r="36.5" style="fill:#232323"/><circle cx="1928.41" cy="1150.33" r="21.27" style="fill:#4e89ad"/><circle cx="1928.41" cy="1150.33" r="16.3" style="fill:#36708e"/><circle cx="1928.41" cy="1150.33" r="5.54" style="fill:#cecece"/><rect x="2072.91" y="1021.08" width="15.99" height="111.11" transform="translate(450.28 -605.74) rotate(18.54)" style="fill:#ccc"/><polygon points="2103.75 1033.66 2086.88 1033.66 2082.04 1048.1 2098.52 1049.25 2103.75 1033.66" style="fill:#b7b7b7"/><rect x="2082.97" y="1022.72" width="5.66" height="111.11" transform="translate(451.06 -607.22) rotate(18.54)" style="fill:#b7b7b7"/><rect x="2070.12" y="1071.74" width="21.57" height="9.78" transform="translate(450.28 -605.73) rotate(18.54)" style="fill:#e2e2e2"/><rect x="2070.12" y="1075.92" width="21.57" height="1.43" transform="translate(450.28 -605.73) rotate(18.54)" style="fill:#9b9b9b"/><rect x="2020.48" y="1122.47" width="89.75" height="12.89" style="fill:#afafaf"/><rect x="2020.48" y="1131.15" width="89.75" height="4.21" style="fill:#8e8e8e"/><circle cx="2018.82" cy="1150.33" r="39" style="fill:#3f3f3f"/><path d="M2007.84,1112.93a39,39,0,0,0-28,37.4c0,.7.07,1.38.11,2.07l38.89-2.07Z" style="fill:#fff"/><circle cx="2018.82" cy="1150.33" r="36.5" style="fill:#232323"/><circle cx="2018.82" cy="1150.33" r="21.27" style="fill:#4e89ad"/><circle cx="2018.82" cy="1150.33" r="16.3" style="fill:#36708e"/><circle cx="2018.82" cy="1150.33" r="5.54" style="fill:#cecece"/><circle cx="2110.23" cy="1150.33" r="39" style="fill:#3f3f3f"/><path d="M2099.26,1112.93a39,39,0,0,0-28,37.4c0,.7.07,1.38.1,2.07l38.89-2.07Z" style="fill:#fff"/><circle cx="2110.23" cy="1150.33" r="36.5" style="fill:#232323"/><circle cx="2110.23" cy="1150.33" r="21.27" style="fill:#4e89ad"/><circle cx="2110.23" cy="1150.33" r="16.3" style="fill:#36708e"/><circle cx="2110.23" cy="1150.33" r="5.54" style="fill:#cecece"/><rect x="437.12" y="1051.13" width="18.61" height="81.11" style="fill:#bcbcbc"/><rect x="450.09" y="1051.13" width="5.64" height="81.11" style="fill:#a8a8a8"/><rect x="392.92" y="1002.67" width="71.54" height="56.57" style="fill:#cecece"/><rect x="444.27" y="1002.67" width="20.2" height="56.57" style="fill:#b2b2b2"/><rect x="392.92" y="1056.95" width="71.54" height="2.29" style="fill:#999"/><path d="M46.84,771.56l186.61-83.35a232.08,232.08,0,0,0,82.63-62.13h0a157.91,157.91,0,0,1,120.62-56H691A3677,3677,0,0,1,1346.54,629l19.29,3.49,1961.63-29.94L3989.34,5.68A22.14,22.14,0,0,1,4004.13,0h223.09a7.54,7.54,0,0,1,7,10.36L3998.8,595h40.47a77.66,77.66,0,0,1,77.66,77.66h0a77.67,77.67,0,0,1-60.58,75.76l-941.3,212.22a3414.06,3414.06,0,0,1-750.82,83.59H678.93a1528.17,1528.17,0,0,1-482-78L54.14,918.81C-14.34,896.05-19,801,46.84,771.56Z" style="fill:#c7d9e6"/><path d="M43.94,914.61a83.77,83.77,0,0,0,10.2,4.2l142.77,47.45a1528.17,1528.17,0,0,0,482,78h1685.3a3414.06,3414.06,0,0,0,750.82-83.59l204.32-46.07Z" style="fill:#b6cdde"/><path d="M324.87,1002.67a1528.26,1528.26,0,0,0,354.06,41.6h1685.3a3413.46,3413.46,0,0,0,531.16-41.6Z" style="fill:#a5c1d6"/><path d="M2432.81,1043.57,2060.26,936.33l-592.52-11.6-212.67,41.79,486,77.75h623.13Q2398.54,1044.27,2432.81,1043.57Z" style="fill:#1f4959;opacity:0.43"/><path d="M2956,992.52q-93.55,16.47-187.87,27.76L3229.74,604l97.72-1.49L3989.34,5.68A22.09,22.09,0,0,1,4004.13,0h52.54ZM4142.38,0,3065,971.53q25.08-5.25,50.08-10.85l941.3-212.22a77.67,77.67,0,0,0,60.58-75.76h0A77.66,77.66,0,0,0,4039.27,595H3998.8L4234.22,10.36a7.54,7.54,0,0,0-7-10.36Z" style="fill:#4e89ad"/><path d="M4014.38,689.88l-402.29,63,234.45,42.93,209.81-47.3a77.59,77.59,0,0,0,46-30.42Z" style="fill:#1f4959;opacity:0.43"/><path d="M691.06,570.08H436.7c-46.89,0-90.92,21.21-121.37,56.88a231.94,231.94,0,0,1-81.88,61.25h0c-34.06,15.21-23.2,66.14,14.1,66.14H1244a121.92,121.92,0,0,0,120-100.18A21.64,21.64,0,0,0,1346.54,629h0A3676.57,3676.57,0,0,0,691.06,570.08Z" style="fill:#d8e4ed"/><path d="M1198.62,640.13h0a39.79,39.79,0,0,0-34.68-39.46A3676.81,3676.81,0,0,0,691,570.08H436.7a157.07,157.07,0,0,0-120.3,55.63,232.66,232.66,0,0,1-23.1,23.77c-11.94,10.65-4.38,30.41,11.62,30.41h853.94A39.76,39.76,0,0,0,1198.62,640.13Z" style="fill:#e9f0f5"/><circle cx="446.43" cy="1150.33" r="39" style="fill:#3f3f3f"/><path d="M435.45,1112.93a39,39,0,0,0-28,37.4c0,.7.07,1.38.1,2.07l38.9-2.07Z" style="fill:#fff"/><circle cx="446.43" cy="1150.33" r="36.5" style="fill:#232323"/><circle cx="446.43" cy="1150.33" r="21.27" style="fill:#4e89ad"/><circle cx="446.43" cy="1150.33" r="16.3" style="fill:#36708e"/><circle cx="446.43" cy="1150.33" r="5.54" style="fill:#cecece"/><rect x="433.4" y="1080.66" width="26.05" height="3.77" style="fill:#cecece"/><rect x="433.4" y="1084.43" width="26.05" height="3.77" style="fill:#cecece"/><path d="M3609.36,707.72l654-155.11H4389L4097.65,686.82A628.35,628.35,0,0,1,3933,736.74l-88.42,14a778.71,778.71,0,0,1-208.79,4.74l-23.69-2.66C3586.53,750,3584.33,713.65,3609.36,707.72Z" style="fill:#e9f0f5"/><path d="M4313.12,552.61,3611.21,740.67c-6.5,1.74-6,11.33.67,12.13l.21,0,23.69,2.66a778.7,778.7,0,0,0,208.79-4.74l88.42-14a628.35,628.35,0,0,0,164.66-49.92L4389,552.61Z" style="fill:#93b3c6"/><path d="M544.12,887.87H488.8a10.62,10.62,0,0,1-10.61-10.61V762.46a10.62,10.62,0,0,1,10.61-10.61h55.32a10.62,10.62,0,0,1,10.61,10.61v114.8A10.62,10.62,0,0,1,544.12,887.87Zm-55.32-131a5.62,5.62,0,0,0-5.61,5.62v114.8a5.62,5.62,0,0,0,5.61,5.62h55.32a5.62,5.62,0,0,0,5.62-5.62V762.46a5.62,5.62,0,0,0-5.62-5.62Z" style="fill:#93b3c6"/><rect x="80.96" y="809.25" width="17.89" height="27.04" rx="4.29" style="fill:#303030"/><rect x="109.87" y="809.25" width="17.89" height="27.04" rx="4.29" style="fill:#303030"/><rect x="138.78" y="809.25" width="17.89" height="27.04" rx="4.29" style="fill:#303030"/><rect x="167.69" y="809.25" width="17.89" height="27.04" rx="4.29" style="fill:#303030"/><rect x="196.6" y="809.25" width="17.89" height="27.04" rx="4.29" style="fill:#303030"/><rect x="225.5" y="809.25" width="17.89" height="27.04" rx="4.29" style="fill:#303030"/><rect x="254.41" y="809.25" width="17.89" height="27.04" rx="4.29" style="fill:#303030"/><rect x="283.32" y="809.25" width="17.89" height="27.04" rx="4.29" style="fill:#303030"/><rect x="312.23" y="809.25" width="17.89" height="27.04" rx="4.29" style="fill:#303030"/><rect x="341.14" y="809.25" width="17.89" height="27.04" rx="4.29" style="fill:#303030"/><rect x="370.05" y="809.25" width="17.89" height="27.04" rx="4.29" style="fill:#303030"/><rect x="398.96" y="809.25" width="17.89" height="27.04" rx="4.29" style="fill:#303030"/><rect x="427.86" y="809.25" width="17.89" height="27.04" rx="4.29" style="fill:#303030"/><rect x="1140.8" y="809.25" width="17.89" height="27.04" rx="4.29" style="fill:#303030"/><rect x="1169.71" y="809.25" width="17.89" height="27.04" rx="4.29" style="fill:#303030"/><rect x="1198.62" y="809.25" width="17.89" height="27.04" rx="4.29" style="fill:#303030"/><rect x="1227.53" y="809.25" width="17.89" height="27.04" rx="4.29" style="fill:#303030"/><rect x="1256.44" y="809.25" width="17.89" height="27.04" rx="4.29" style="fill:#303030"/><rect x="1285.35" y="809.25" width="17.89" height="27.04" rx="4.29" style="fill:#303030"/><rect x="1314.26" y="809.25" width="17.89" height="27.04" rx="4.29" style="fill:#303030"/><rect x="1343.16" y="809.25" width="17.89" height="27.04" rx="4.29" style="fill:#303030"/><rect x="1372.07" y="809.25" width="17.89" height="27.04" rx="4.29" style="fill:#303030"/><rect x="1400.98" y="809.25" width="17.89" height="27.04" rx="4.29" style="fill:#303030"/><rect x="1429.89" y="809.25" width="17.89" height="27.04" rx="4.29" style="fill:#303030"/><rect x="1458.8" y="809.25" width="17.89" height="27.04" rx="4.29" style="fill:#303030"/><rect x="1487.71" y="809.25" width="17.89" height="27.04" rx="4.29" style="fill:#303030"/><rect x="1915.72" y="809.25" width="17.89" height="27.04" rx="4.29" style="fill:#303030"/><rect x="1944.63" y="809.25" width="17.89" height="27.04" rx="4.29" style="fill:#303030"/><rect x="1973.54" y="809.25" width="17.89" height="27.04" rx="4.29" style="fill:#303030"/><rect x="2002.45" y="809.25" width="17.89" height="27.04" rx="4.29" style="fill:#303030"/><rect x="2031.35" y="809.25" width="17.89" height="27.04" rx="4.29" style="fill:#303030"/><rect x="2060.26" y="809.25" width="17.89" height="27.04" rx="4.29" style="fill:#303030"/><rect x="2089.17" y="809.25" width="17.89" height="27.04" rx="4.29" style="fill:#303030"/><rect x="2118.08" y="809.25" width="17.89" height="27.04" rx="4.29" style="fill:#303030"/><rect x="2146.99" y="809.25" width="17.89" height="27.04" rx="4.29" style="fill:#303030"/><rect x="2175.9" y="809.25" width="17.89" height="27.04" rx="4.29" style="fill:#303030"/><rect x="2204.81" y="809.25" width="17.89" height="27.04" rx="4.29" style="fill:#303030"/><rect x="2233.71" y="809.25" width="17.89" height="27.04" rx="4.29" style="fill:#303030"/><rect x="2262.62" y="809.25" width="17.89" height="27.04" rx="4.29" style="fill:#303030"/><rect x="2620.96" y="809.25" width="17.89" height="27.04" rx="4.29" style="fill:#303030"/><rect x="2649.87" y="809.25" width="17.89" height="27.04" rx="4.29" style="fill:#303030"/><rect x="2678.78" y="809.25" width="17.89" height="27.04" rx="4.29" style="fill:#303030"/><rect x="2707.69" y="809.25" width="17.89" height="27.04" rx="4.29" style="fill:#303030"/><rect x="2736.6" y="809.25" width="17.89" height="27.04" rx="4.29" style="fill:#303030"/><rect x="2765.51" y="809.25" width="17.89" height="27.04" rx="4.29" style="fill:#303030"/><rect x="2794.42" y="809.25" width="17.89" height="27.04" rx="4.29" style="fill:#303030"/><rect x="2823.32" y="809.25" width="17.89" height="27.04" rx="4.29" style="fill:#303030"/><rect x="2852.23" y="809.25" width="17.89" height="27.04" rx="4.29" style="fill:#303030"/><rect x="2881.14" y="809.25" width="17.89" height="27.04" rx="4.29" style="fill:#303030"/><rect x="2910.05" y="809.25" width="17.89" height="27.04" rx="4.29" style="fill:#303030"/><rect x="2938.96" y="809.25" width="17.89" height="27.04" rx="4.29" style="fill:#303030"/><rect x="2967.87" y="809.25" width="17.89" height="27.04" rx="4.29" style="fill:#303030"/><rect x="2996.78" y="809.25" width="17.89" height="27.04" rx="4.29" style="fill:#303030"/><rect x="3025.68" y="809.25" width="17.89" height="27.04" rx="4.29" style="fill:#303030"/><rect x="3054.59" y="809.25" width="17.89" height="27.04" rx="4.29" style="fill:#303030"/><rect x="3083.5" y="809.25" width="17.89" height="27.04" rx="4.29" style="fill:#303030"/><rect x="3112.41" y="809.25" width="17.89" height="27.04" rx="4.29" style="fill:#303030"/><rect x="3141.32" y="809.25" width="17.89" height="27.04" rx="4.29" style="fill:#303030"/><rect x="3170.23" y="809.25" width="17.89" height="27.04" rx="4.29" style="fill:#303030"/><rect x="3199.14" y="809.25" width="17.89" height="27.04" rx="4.29" style="fill:#303030"/><rect x="3228.05" y="809.25" width="17.89" height="27.04" rx="4.29" style="fill:#303030"/><rect x="3256.95" y="809.25" width="17.89" height="27.04" rx="4.29" style="fill:#303030"/><rect x="2967.87" y="809.25" width="17.89" height="27.04" rx="4.29" style="fill:#303030"/><rect x="1548.85" y="809.25" width="17.89" height="27.04" rx="4.29" style="fill:#303030"/><rect x="1614.57" y="809.25" width="17.89" height="27.04" rx="4.29" style="fill:#303030"/><rect x="1680.29" y="809.25" width="17.89" height="27.04" rx="4.29" style="fill:#303030"/><rect x="1708.89" y="809.25" width="17.89" height="27.04" rx="4.29" style="fill:#303030"/><rect x="696.57" y="809.25" width="17.89" height="27.04" rx="4.29" style="fill:#303030"/><rect x="725.48" y="809.25" width="17.89" height="27.04" rx="4.29" style="fill:#303030"/><rect x="754.39" y="809.25" width="17.89" height="27.04" rx="4.29" style="fill:#303030"/><rect x="783.29" y="809.25" width="17.89" height="27.04" rx="4.29" style="fill:#303030"/><rect x="812.2" y="809.25" width="17.89" height="27.04" rx="4.29" style="fill:#303030"/><rect x="841.11" y="809.25" width="17.89" height="27.04" rx="4.29" style="fill:#303030"/><rect x="870.02" y="809.25" width="17.89" height="27.04" rx="4.29" style="fill:#303030"/><rect x="898.93" y="809.25" width="17.89" height="27.04" rx="4.29" style="fill:#303030"/><rect x="927.84" y="809.25" width="17.89" height="27.04" rx="4.29" style="fill:#303030"/><rect x="956.75" y="809.25" width="17.89" height="27.04" rx="4.29" style="fill:#303030"/><rect x="653.21" y="637.88" width="17.89" height="27.04" rx="4.29" style="fill:#303030"/><rect x="682.11" y="637.88" width="17.89" height="27.04" rx="4.29" style="fill:#303030"/><rect x="711.02" y="637.88" width="17.89" height="27.04" rx="4.29" style="fill:#303030"/><rect x="739.93" y="637.88" width="17.89" height="27.04" rx="4.29" style="fill:#303030"/><rect x="768.84" y="637.88" width="17.89" height="27.04" rx="4.29" style="fill:#303030"/><rect x="797.75" y="637.88" width="17.89" height="27.04" rx="4.29" style="fill:#303030"/><rect x="826.66" y="637.88" width="17.89" height="27.04" rx="4.29" style="fill:#303030"/><rect x="855.57" y="637.88" width="17.89" height="27.04" rx="4.29" style="fill:#303030"/><rect x="884.47" y="637.88" width="17.89" height="27.04" rx="4.29" style="fill:#303030"/><rect x="913.38" y="637.88" width="17.89" height="27.04" rx="4.29" style="fill:#303030"/><rect x="985.65" y="809.25" width="17.89" height="27.04" rx="4.29" style="fill:#303030"/><path d="M671.09,646.47v-4.3a4.29,4.29,0,0,0-4.29-4.29h-9.31a4.29,4.29,0,0,0-4.28,4.29v16.44Z" style="fill:#fff;opacity:0.30000000000000004"/><path d="M700,646.47v-4.3a4.29,4.29,0,0,0-4.29-4.29H686.4a4.29,4.29,0,0,0-4.29,4.29v16.44Z" style="fill:#fff;opacity:0.30000000000000004"/><path d="M728.91,646.47v-4.3a4.29,4.29,0,0,0-4.29-4.29h-9.31a4.29,4.29,0,0,0-4.29,4.29v16.44Z" style="fill:#fff;opacity:0.30000000000000004"/><path d="M757.82,646.47v-4.3a4.29,4.29,0,0,0-4.29-4.29h-9.31a4.29,4.29,0,0,0-4.29,4.29v16.44Z" style="fill:#fff;opacity:0.30000000000000004"/><path d="M786.73,646.47v-4.3a4.3,4.3,0,0,0-4.29-4.29h-9.31a4.29,4.29,0,0,0-4.29,4.29v16.44Z" style="fill:#fff;opacity:0.30000000000000004"/><path d="M815.63,646.47v-4.3a4.29,4.29,0,0,0-4.29-4.29H802a4.29,4.29,0,0,0-4.29,4.29v16.44Z" style="fill:#fff;opacity:0.30000000000000004"/><path d="M844.54,646.47v-4.3a4.29,4.29,0,0,0-4.29-4.29h-9.31a4.29,4.29,0,0,0-4.28,4.29v16.44Z" style="fill:#fff;opacity:0.30000000000000004"/><path d="M873.45,646.47v-4.3a4.29,4.29,0,0,0-4.29-4.29h-9.31a4.29,4.29,0,0,0-4.29,4.29v16.44Z" style="fill:#fff;opacity:0.30000000000000004"/><path d="M902.36,646.47v-4.3a4.29,4.29,0,0,0-4.29-4.29h-9.31a4.29,4.29,0,0,0-4.29,4.29v16.44Z" style="fill:#fff;opacity:0.30000000000000004"/><path d="M931.27,646.47v-4.3a4.29,4.29,0,0,0-4.29-4.29h-9.31a4.29,4.29,0,0,0-4.29,4.29v16.44Z" style="fill:#fff;opacity:0.30000000000000004"/><path d="M98.85,817.84v-4.3a4.29,4.29,0,0,0-4.29-4.29H85.25A4.29,4.29,0,0,0,81,813.54V830Z" style="fill:#fff;opacity:0.30000000000000004"/><path d="M127.76,817.84v-4.3a4.29,4.29,0,0,0-4.29-4.29h-9.31a4.29,4.29,0,0,0-4.29,4.29V830Z" style="fill:#fff;opacity:0.30000000000000004"/><path d="M156.66,817.84v-4.3a4.29,4.29,0,0,0-4.28-4.29h-9.31a4.29,4.29,0,0,0-4.29,4.29V830Z" style="fill:#fff;opacity:0.30000000000000004"/><path d="M185.57,817.84v-4.3a4.29,4.29,0,0,0-4.29-4.29H172a4.29,4.29,0,0,0-4.29,4.29V830Z" style="fill:#fff;opacity:0.30000000000000004"/><path d="M214.48,817.84v-4.3a4.29,4.29,0,0,0-4.29-4.29h-9.31a4.29,4.29,0,0,0-4.28,4.29V830Z" style="fill:#fff;opacity:0.30000000000000004"/><path d="M243.39,817.84v-4.3a4.29,4.29,0,0,0-4.29-4.29h-9.31a4.29,4.29,0,0,0-4.29,4.29V830Z" style="fill:#fff;opacity:0.30000000000000004"/><path d="M272.3,817.84v-4.3a4.29,4.29,0,0,0-4.29-4.29H258.7a4.29,4.29,0,0,0-4.29,4.29V830Z" style="fill:#fff;opacity:0.30000000000000004"/><path d="M301.21,817.84v-4.3a4.29,4.29,0,0,0-4.29-4.29h-9.31a4.29,4.29,0,0,0-4.29,4.29V830Z" style="fill:#fff;opacity:0.30000000000000004"/><path d="M330.12,817.84v-4.3a4.29,4.29,0,0,0-4.29-4.29h-9.31a4.29,4.29,0,0,0-4.29,4.29V830Z" style="fill:#fff;opacity:0.30000000000000004"/><path d="M359,817.84v-4.3a4.29,4.29,0,0,0-4.28-4.29h-9.31a4.29,4.29,0,0,0-4.29,4.29V830Z" style="fill:#fff;opacity:0.30000000000000004"/><path d="M387.93,817.84v-4.3a4.29,4.29,0,0,0-4.29-4.29h-9.3a4.29,4.29,0,0,0-4.29,4.29V830Z" style="fill:#fff;opacity:0.30000000000000004"/><path d="M416.84,817.84v-4.3a4.29,4.29,0,0,0-4.29-4.29h-9.31a4.29,4.29,0,0,0-4.28,4.29V830Z" style="fill:#fff;opacity:0.30000000000000004"/><path d="M445.75,817.84v-4.3a4.29,4.29,0,0,0-4.29-4.29h-9.31a4.29,4.29,0,0,0-4.29,4.29V830Z" style="fill:#fff;opacity:0.30000000000000004"/><path d="M714.45,817.84v-4.3a4.29,4.29,0,0,0-4.28-4.29h-9.31a4.29,4.29,0,0,0-4.29,4.29V830Z" style="fill:#fff;opacity:0.30000000000000004"/><path d="M743.36,817.84v-4.3a4.29,4.29,0,0,0-4.29-4.29h-9.3a4.29,4.29,0,0,0-4.29,4.29V830Z" style="fill:#fff;opacity:0.30000000000000004"/><path d="M772.27,817.84v-4.3a4.29,4.29,0,0,0-4.29-4.29h-9.31a4.29,4.29,0,0,0-4.28,4.29V830Z" style="fill:#fff;opacity:0.30000000000000004"/><path d="M801.18,817.84v-4.3a4.29,4.29,0,0,0-4.29-4.29h-9.31a4.29,4.29,0,0,0-4.29,4.29V830Z" style="fill:#fff;opacity:0.30000000000000004"/><path d="M830.09,817.84v-4.3a4.29,4.29,0,0,0-4.29-4.29h-9.31a4.29,4.29,0,0,0-4.29,4.29V830Z" style="fill:#fff;opacity:0.30000000000000004"/><path d="M859,817.84v-4.3a4.29,4.29,0,0,0-4.29-4.29H845.4a4.29,4.29,0,0,0-4.29,4.29V830Z" style="fill:#fff;opacity:0.30000000000000004"/><path d="M887.91,817.84v-4.3a4.29,4.29,0,0,0-4.29-4.29h-9.31a4.29,4.29,0,0,0-4.29,4.29V830Z" style="fill:#fff;opacity:0.30000000000000004"/><path d="M916.81,817.84v-4.3a4.29,4.29,0,0,0-4.28-4.29h-9.31a4.29,4.29,0,0,0-4.29,4.29V830Z" style="fill:#fff;opacity:0.30000000000000004"/><path d="M945.72,817.84v-4.3a4.29,4.29,0,0,0-4.29-4.29h-9.3a4.29,4.29,0,0,0-4.29,4.29V830Z" style="fill:#fff;opacity:0.30000000000000004"/><path d="M974.63,817.84v-4.3a4.29,4.29,0,0,0-4.29-4.29H961a4.29,4.29,0,0,0-4.28,4.29V830Z" style="fill:#fff;opacity:0.30000000000000004"/><path d="M1003.54,817.84v-4.3a4.29,4.29,0,0,0-4.29-4.29h-9.31a4.29,4.29,0,0,0-4.29,4.29V830Z" style="fill:#fff;opacity:0.30000000000000004"/><path d="M1158.69,817.84v-4.3a4.29,4.29,0,0,0-4.29-4.29h-9.31a4.29,4.29,0,0,0-4.29,4.29V830Z" style="fill:#fff;opacity:0.30000000000000004"/><path d="M1187.6,817.84v-4.3a4.29,4.29,0,0,0-4.29-4.29H1174a4.29,4.29,0,0,0-4.29,4.29V830Z" style="fill:#fff;opacity:0.30000000000000004"/><path d="M1216.51,817.84v-4.3a4.29,4.29,0,0,0-4.29-4.29h-9.31a4.29,4.29,0,0,0-4.29,4.29V830Z" style="fill:#fff;opacity:0.30000000000000004"/><path d="M1245.42,817.84v-4.3a4.29,4.29,0,0,0-4.29-4.29h-9.31a4.29,4.29,0,0,0-4.29,4.29V830Z" style="fill:#fff;opacity:0.30000000000000004"/><path d="M1274.32,817.84v-4.3a4.29,4.29,0,0,0-4.29-4.29h-9.3a4.29,4.29,0,0,0-4.29,4.29V830Z" style="fill:#fff;opacity:0.30000000000000004"/><path d="M1303.23,817.84v-4.3a4.29,4.29,0,0,0-4.29-4.29h-9.3a4.29,4.29,0,0,0-4.29,4.29V830Z" style="fill:#fff;opacity:0.30000000000000004"/><path d="M1332.14,817.84v-4.3a4.29,4.29,0,0,0-4.29-4.29h-9.31a4.3,4.3,0,0,0-4.29,4.29V830Z" style="fill:#fff;opacity:0.30000000000000004"/><path d="M1361.05,817.84v-4.3a4.29,4.29,0,0,0-4.29-4.29h-9.31a4.29,4.29,0,0,0-4.29,4.29V830Z" style="fill:#fff;opacity:0.30000000000000004"/><path d="M1390,817.84v-4.3a4.29,4.29,0,0,0-4.29-4.29h-9.31a4.29,4.29,0,0,0-4.29,4.29V830Z" style="fill:#fff;opacity:0.30000000000000004"/><path d="M1418.87,817.84v-4.3a4.29,4.29,0,0,0-4.29-4.29h-9.31a4.29,4.29,0,0,0-4.29,4.29V830Z" style="fill:#fff;opacity:0.30000000000000004"/><path d="M1447.78,817.84v-4.3a4.29,4.29,0,0,0-4.29-4.29h-9.31a4.29,4.29,0,0,0-4.29,4.29V830Z" style="fill:#fff;opacity:0.30000000000000004"/><path d="M1476.68,817.84v-4.3a4.29,4.29,0,0,0-4.29-4.29h-9.3a4.29,4.29,0,0,0-4.29,4.29V830Z" style="fill:#fff;opacity:0.30000000000000004"/><path d="M1505.59,817.84v-4.3a4.29,4.29,0,0,0-4.29-4.29H1492a4.29,4.29,0,0,0-4.29,4.29V830Z" style="fill:#fff;opacity:0.30000000000000004"/><path d="M1566.74,817.84v-4.3a4.29,4.29,0,0,0-4.29-4.29h-9.31a4.29,4.29,0,0,0-4.29,4.29V830Z" style="fill:#fff;opacity:0.30000000000000004"/><path d="M1632.46,817.84v-4.3a4.29,4.29,0,0,0-4.29-4.29h-9.31a4.29,4.29,0,0,0-4.29,4.29V830Z" style="fill:#fff;opacity:0.30000000000000004"/><path d="M1698.18,817.84v-4.3a4.29,4.29,0,0,0-4.29-4.29h-9.31a4.29,4.29,0,0,0-4.29,4.29V830Z" style="fill:#fff;opacity:0.30000000000000004"/><path d="M1726.77,817.84v-4.3a4.29,4.29,0,0,0-4.28-4.29h-9.31a4.29,4.29,0,0,0-4.29,4.29V830Z" style="fill:#fff;opacity:0.30000000000000004"/><path d="M1933.61,817.84v-4.3a4.29,4.29,0,0,0-4.29-4.29H1920a4.29,4.29,0,0,0-4.29,4.29V830Z" style="fill:#fff;opacity:0.30000000000000004"/><path d="M1962.52,817.84v-4.3a4.3,4.3,0,0,0-4.29-4.29h-9.31a4.29,4.29,0,0,0-4.29,4.29V830Z" style="fill:#fff;opacity:0.30000000000000004"/><path d="M1991.42,817.84v-4.3a4.29,4.29,0,0,0-4.29-4.29h-9.3a4.29,4.29,0,0,0-4.29,4.29V830Z" style="fill:#fff;opacity:0.30000000000000004"/><path d="M2020.33,817.84v-4.3a4.29,4.29,0,0,0-4.29-4.29h-9.3a4.29,4.29,0,0,0-4.29,4.29V830Z" style="fill:#fff;opacity:0.30000000000000004"/><path d="M2049.24,817.84v-4.3a4.29,4.29,0,0,0-4.29-4.29h-9.3a4.29,4.29,0,0,0-4.29,4.29V830Z" style="fill:#fff;opacity:0.30000000000000004"/><path d="M2078.15,817.84v-4.3a4.29,4.29,0,0,0-4.29-4.29h-9.31a4.3,4.3,0,0,0-4.29,4.29V830Z" style="fill:#fff;opacity:0.30000000000000004"/><path d="M2107.06,817.84v-4.3a4.29,4.29,0,0,0-4.29-4.29h-9.31a4.29,4.29,0,0,0-4.29,4.29V830Z" style="fill:#fff;opacity:0.30000000000000004"/><path d="M2136,817.84v-4.3a4.29,4.29,0,0,0-4.29-4.29h-9.31a4.29,4.29,0,0,0-4.29,4.29V830Z" style="fill:#fff;opacity:0.30000000000000004"/><path d="M2164.88,817.84v-4.3a4.29,4.29,0,0,0-4.29-4.29h-9.31a4.29,4.29,0,0,0-4.29,4.29V830Z" style="fill:#fff;opacity:0.30000000000000004"/><path d="M2193.79,817.84v-4.3a4.29,4.29,0,0,0-4.29-4.29h-9.31a4.29,4.29,0,0,0-4.29,4.29V830Z" style="fill:#fff;opacity:0.30000000000000004"/><path d="M2222.7,817.84v-4.3a4.29,4.29,0,0,0-4.29-4.29h-9.31a4.29,4.29,0,0,0-4.29,4.29V830Z" style="fill:#fff;opacity:0.30000000000000004"/><path d="M2251.61,817.84v-4.3a4.3,4.3,0,0,0-4.29-4.29H2238a4.29,4.29,0,0,0-4.29,4.29V830Z" style="fill:#fff;opacity:0.30000000000000004"/><path d="M2280.51,817.84v-4.3a4.29,4.29,0,0,0-4.29-4.29h-9.3a4.29,4.29,0,0,0-4.29,4.29V830Z" style="fill:#fff;opacity:0.30000000000000004"/><path d="M2638.85,817.84v-4.3a4.29,4.29,0,0,0-4.29-4.29h-9.31a4.29,4.29,0,0,0-4.29,4.29V830Z" style="fill:#fff;opacity:0.30000000000000004"/><path d="M2667.76,817.84v-4.3a4.29,4.29,0,0,0-4.29-4.29h-9.31a4.29,4.29,0,0,0-4.29,4.29V830Z" style="fill:#fff;opacity:0.30000000000000004"/><path d="M2696.67,817.84v-4.3a4.29,4.29,0,0,0-4.29-4.29h-9.31a4.29,4.29,0,0,0-4.29,4.29V830Z" style="fill:#fff;opacity:0.30000000000000004"/><path d="M2725.58,817.84v-4.3a4.29,4.29,0,0,0-4.29-4.29H2712a4.29,4.29,0,0,0-4.29,4.29V830Z" style="fill:#fff;opacity:0.30000000000000004"/><path d="M2754.49,817.84v-4.3a4.3,4.3,0,0,0-4.29-4.29h-9.31a4.29,4.29,0,0,0-4.29,4.29V830Z" style="fill:#fff;opacity:0.30000000000000004"/><path d="M2783.39,817.84v-4.3a4.29,4.29,0,0,0-4.29-4.29h-9.3a4.29,4.29,0,0,0-4.29,4.29V830Z" style="fill:#fff;opacity:0.30000000000000004"/><path d="M2812.3,817.84v-4.3a4.29,4.29,0,0,0-4.29-4.29h-9.3a4.29,4.29,0,0,0-4.29,4.29V830Z" style="fill:#fff;opacity:0.30000000000000004"/><path d="M2841.21,817.84v-4.3a4.29,4.29,0,0,0-4.29-4.29h-9.31a4.29,4.29,0,0,0-4.29,4.29V830Z" style="fill:#fff;opacity:0.30000000000000004"/><path d="M2870.12,817.84v-4.3a4.29,4.29,0,0,0-4.29-4.29h-9.31a4.29,4.29,0,0,0-4.29,4.29V830Z" style="fill:#fff;opacity:0.30000000000000004"/><path d="M2899,817.84v-4.3a4.29,4.29,0,0,0-4.29-4.29h-9.31a4.29,4.29,0,0,0-4.29,4.29V830Z" style="fill:#fff;opacity:0.30000000000000004"/><path d="M2927.94,817.84v-4.3a4.29,4.29,0,0,0-4.29-4.29h-9.31a4.29,4.29,0,0,0-4.29,4.29V830Z" style="fill:#fff;opacity:0.30000000000000004"/><path d="M2956.85,817.84v-4.3a4.3,4.3,0,0,0-4.29-4.29h-9.31a4.29,4.29,0,0,0-4.29,4.29V830Z" style="fill:#fff;opacity:0.30000000000000004"/><path d="M2985.75,817.84v-4.3a4.29,4.29,0,0,0-4.29-4.29h-9.3a4.29,4.29,0,0,0-4.29,4.29V830Z" style="fill:#fff;opacity:0.30000000000000004"/><path d="M3014.66,817.84v-4.3a4.29,4.29,0,0,0-4.29-4.29h-9.3a4.29,4.29,0,0,0-4.29,4.29V830Z" style="fill:#fff;opacity:0.30000000000000004"/><path d="M3043.57,817.84v-4.3a4.29,4.29,0,0,0-4.29-4.29H3030a4.3,4.3,0,0,0-4.29,4.29V830Z" style="fill:#fff;opacity:0.30000000000000004"/><path d="M3072.48,817.84v-4.3a4.29,4.29,0,0,0-4.29-4.29h-9.31a4.29,4.29,0,0,0-4.29,4.29V830Z" style="fill:#fff;opacity:0.30000000000000004"/><path d="M3101.39,817.84v-4.3a4.29,4.29,0,0,0-4.29-4.29h-9.31a4.29,4.29,0,0,0-4.29,4.29V830Z" style="fill:#fff;opacity:0.30000000000000004"/><path d="M3130.3,817.84v-4.3a4.29,4.29,0,0,0-4.29-4.29h-9.31a4.29,4.29,0,0,0-4.29,4.29V830Z" style="fill:#fff;opacity:0.30000000000000004"/><path d="M3159.21,817.84v-4.3a4.29,4.29,0,0,0-4.29-4.29h-9.31a4.29,4.29,0,0,0-4.29,4.29V830Z" style="fill:#fff;opacity:0.30000000000000004"/><path d="M3188.11,817.84v-4.3a4.29,4.29,0,0,0-4.29-4.29h-9.3a4.29,4.29,0,0,0-4.29,4.29V830Z" style="fill:#fff;opacity:0.30000000000000004"/><path d="M3217,817.84v-4.3a4.29,4.29,0,0,0-4.29-4.29h-9.3a4.29,4.29,0,0,0-4.29,4.29V830Z" style="fill:#fff;opacity:0.30000000000000004"/><path d="M3245.93,817.84v-4.3a4.29,4.29,0,0,0-4.29-4.29h-9.31a4.3,4.3,0,0,0-4.29,4.29V830Z" style="fill:#fff;opacity:0.30000000000000004"/><path d="M3274.84,817.84v-4.3a4.29,4.29,0,0,0-4.29-4.29h-9.31a4.29,4.29,0,0,0-4.29,4.29V830Z" style="fill:#fff;opacity:0.30000000000000004"/><path d="M1109.19,887.87h-55.32a10.62,10.62,0,0,1-10.61-10.61V762.46a10.62,10.62,0,0,1,10.61-10.61h55.32a10.62,10.62,0,0,1,10.61,10.61v114.8A10.62,10.62,0,0,1,1109.19,887.87Zm-55.32-131a5.62,5.62,0,0,0-5.62,5.62v114.8a5.62,5.62,0,0,0,5.62,5.62h55.32a5.62,5.62,0,0,0,5.62-5.62V762.46a5.62,5.62,0,0,0-5.62-5.62Z" style="fill:#93b3c6"/><path d="M1847.24,887.87h-55.32a10.61,10.61,0,0,1-10.6-10.61V762.46a10.61,10.61,0,0,1,10.6-10.61h55.32a10.62,10.62,0,0,1,10.61,10.61v114.8A10.62,10.62,0,0,1,1847.24,887.87Zm-55.32-131a5.62,5.62,0,0,0-5.61,5.62v114.8a5.62,5.62,0,0,0,5.61,5.62h55.32a5.62,5.62,0,0,0,5.62-5.62V762.46a5.62,5.62,0,0,0-5.62-5.62Z" style="fill:#93b3c6"/><path d="M3369.26,887.87h-55.32a10.62,10.62,0,0,1-10.61-10.61V762.46a10.62,10.62,0,0,1,10.61-10.61h55.32a10.62,10.62,0,0,1,10.61,10.61v114.8A10.62,10.62,0,0,1,3369.26,887.87Zm-55.32-131a5.62,5.62,0,0,0-5.62,5.62v114.8a5.62,5.62,0,0,0,5.62,5.62h55.32a5.62,5.62,0,0,0,5.62-5.62V762.46a5.62,5.62,0,0,0-5.62-5.62Z" style="fill:#376f8c"/><path d="M373.18,661.21l5.91-30.1a3,3,0,0,0-3-3.63H314.86a231.79,231.79,0,0,1-39.15,36.19H370.2A3,3,0,0,0,373.18,661.21Z" style="fill:#b7e2ed"/><path d="M1240.27,881.89l1655.43-202h319.45L2060.69,955.67l-143.28,20.47a2130.72,2130.72,0,0,1-633.27-4.62l-22.22-3.5a58.45,58.45,0,0,1-49.2-53.41C1211.48,898.2,1223.93,883.89,1240.27,881.89Z" style="fill:#e9f0f5"/><path d="M1917.41,976.14l143.28-20.47L3215.15,679.89H3019.34L1257.08,936.55c-16.37,2.38-17.94,25.5-2,30a58.38,58.38,0,0,0,6.86,1.5l22.21,3.5A2130.72,2130.72,0,0,0,1917.41,976.14Z" style="fill:#93b3c6"/><path d="M2919,711.51a4.85,4.85,0,0,0-1,.1L1821.66,936a12.43,12.43,0,0,0,2.5,24.6h202.3l34.23-4.89,21.32-5.1H1824.16a2.44,2.44,0,0,1-.49-4.83L2919.5,721.49H3041l41.79-10Z" style="fill:#688b99"/><ellipse cx="1885.34" cy="989.63" rx="36.71" ry="21.88" style="fill:#5b666d"/><path d="M1863,1006.94a54,54,0,0,0,22.39,4.57c20.28,0,36.72-9.8,36.72-21.88,0,0-15,5-54.35,5C1863.72,998.62,1862.46,1002.81,1863,1006.94Z" style="fill:#40484c"/><path d="M1490.79,897,1755,864s85.51,6,186.75,58.11c-39,12-96.47,28.59-96.47,28.59l-74.12,38.89-280.33-70.55Z" style="fill:#7e9faf"/><path d="M1678.19,966.24l92.93,23.39,74.12-38.89s57.46-16.58,96.47-28.59a582.05,582.05,0,0,0-71-30.73C1796.6,910,1696.89,957.23,1678.19,966.24Z" style="fill:#6f8e9b"/><path d="M1881,1025.42l-85.39,7.42V946.42l85.39,7.42a4.77,4.77,0,0,1,4.35,4.75v62.08A4.76,4.76,0,0,1,1881,1025.42Z" style="fill:#a5c1d6"/><path d="M1881,1025.42l-85.39,7.42v-23.55l89.74-10.76v22.14A4.76,4.76,0,0,1,1881,1025.42Z" style="fill:#8baabc"/><path d="M1799.8,1039.23l-115.45,15.3V924.73L1799.8,940a8.84,8.84,0,0,1,7.67,8.75v81.7A8.83,8.83,0,0,1,1799.8,1039.23Z" style="fill:#b6cdde"/><path d="M1800.34,1039.15l-116,15.38v-44l123.12-9.53v30A8.2,8.2,0,0,1,1800.34,1039.15Z" style="fill:#a1bac9"/><path d="M1666.72,1074.86l-202.4,8.54a56,56,0,0,1-58.38-56V951.82a56,56,0,0,1,58.38-56l202.4,8.55a30.39,30.39,0,0,1,29.12,30.38v109.68A30.41,30.41,0,0,1,1666.72,1074.86Z" style="fill:#c7d9e6"/><path d="M1405.94,1027.44h0a56,56,0,0,0,58.37,56l202.41-8.54a30.41,30.41,0,0,0,29.12-30.39v-17a21.68,21.68,0,0,0-21.68-21.68H1427.62A21.68,21.68,0,0,0,1405.94,1027.44Z" style="fill:#aec2ce"/><path d="M1431.54,1057.68a7.53,7.53,0,0,0-4.66,13.42,55.72,55.72,0,0,0,37.43,12.3l202.41-8.54a30.29,30.29,0,0,0,15.6-5.11c5.37-3.6,2.57-12.07-3.9-12.07Z" style="fill:#92abb7"/><polygon points="1629.29 1076.44 1633.72 1076.25 1633.72 903.01 1629.29 902.83 1629.29 1076.44" style="fill:#40484c;opacity:0.5"/><polygon points="1706.61 1051.58 1711.04 1050.99 1711.04 928.27 1706.61 927.68 1706.61 1051.58" style="fill:#40484c;opacity:0.5"/><ellipse cx="2440.65" cy="926.34" rx="41.18" ry="24.54" style="fill:#5b666d"/><path d="M2415.54,945.76a60.67,60.67,0,0,0,25.11,5.13c22.74,0,41.18-11,41.18-24.55,0,0-16.87,5.62-61,5.62C2416.4,936.43,2415,941.12,2415.54,945.76Z" style="fill:#40484c"/><path d="M1998.1,822.42l296.31-36.95s95.91,6.73,209.46,65.19c-43.75,13.46-108.2,32.06-108.2,32.06l-83.13,43.62L1998.1,847.21Z" style="fill:#7e9faf"/><path d="M2208.3,900.11l104.24,26.23,83.13-43.62s64.45-18.6,108.2-32.06a651.22,651.22,0,0,0-79.59-34.47C2341.11,837,2229.27,890,2208.3,900.11Z" style="fill:#6f8e9b"/><path d="M2435.77,966.49,2340,974.81V877.88l95.78,8.32a5.34,5.34,0,0,1,4.88,5.33v69.63A5.34,5.34,0,0,1,2435.77,966.49Z" style="fill:#a5c1d6"/><path d="M2435.77,966.49,2340,974.81V948.39l100.66-12.06v24.83A5.34,5.34,0,0,1,2435.77,966.49Z" style="fill:#8baabc"/><path d="M2344.7,982l-129.5,17.17V853.55l129.5,17.16a9.91,9.91,0,0,1,8.6,9.82v91.63A9.9,9.9,0,0,1,2344.7,982Z" style="fill:#b6cdde"/><path d="M2345.31,981.89,2215.2,999.14V949.78l138.1-10.69v33.69A9.19,9.19,0,0,1,2345.31,981.89Z" style="fill:#a1bac9"/><path d="M2195.43,1021.94l-227,9.58a62.82,62.82,0,0,1-65.47-62.77V883.93a62.81,62.81,0,0,1,65.47-62.76l227,9.58a34.11,34.11,0,0,1,32.67,34.08v123A34.11,34.11,0,0,1,2195.43,1021.94Z" style="fill:#c7d9e6"/><path d="M2055.66,842.75h-.27l-11.26-.47a6.24,6.24,0,0,1,.52-12.47l11.27.47a6.24,6.24,0,0,1-.26,12.48Z" style="fill:#fff"/><path d="M1917.49,916.64a6.24,6.24,0,0,1-6.23-6.24V889.28a62.42,62.42,0,0,1,65-62.37l44.28,1.87a6.24,6.24,0,1,1-.52,12.47l-44.29-1.87a49.95,49.95,0,0,0-52,49.9V910.4A6.24,6.24,0,0,1,1917.49,916.64Z" style="fill:#fff"/><path d="M1902.93,968.75h0a62.82,62.82,0,0,0,65.48,62.77l227-9.58a34.11,34.11,0,0,0,32.67-34.08V968.75a24.31,24.31,0,0,0-24.32-24.31H1927.25A24.31,24.31,0,0,0,1902.93,968.75Z" style="fill:#aec2ce"/><path d="M1931.65,1002.67a8.44,8.44,0,0,0-5.23,15.05,62.5,62.5,0,0,0,42,13.8l227-9.58a33.9,33.9,0,0,0,17.5-5.73c6-4,2.88-13.54-4.37-13.54Z" style="fill:#92abb7"/><polygon points="2153.45 1023.71 2158.42 1023.5 2158.42 829.19 2153.45 828.98 2153.45 1023.71" style="fill:#40484c;opacity:0.5"/><polygon points="2240.17 995.83 2245.14 995.17 2245.14 857.52 2240.17 856.86 2240.17 995.83" style="fill:#40484c;opacity:0.5"/><rect x="433.4" y="1083.5" width="26.05" height="1.87" style="fill:#848484"/><path d="M4110.8,68.71,3851.72,527.17a6.14,6.14,0,0,0,2.59,8.51l69.75,35.08a52.08,52.08,0,0,0,23.42,5.56h58.86l5-12.48h-73.29l-72.22-36.32,45.81-81.07h147l5-12.47H3918.71l201.63-356.8h87l5-12.48h-94.68A7.88,7.88,0,0,0,4110.8,68.71Z" style="fill:#1f4959"/><path d="M1979.67,668.45h-30.91a6.24,6.24,0,1,1,0-12.47h30.91a6.24,6.24,0,1,1,0,12.47Z" style="fill:#fff"/><path d="M1902.94,668.45H1677.36a6.24,6.24,0,1,1,0-12.47h225.58a6.24,6.24,0,0,1,0,12.47Z" style="fill:#fff"/><path d="M746.27,711.71h-20a6.24,6.24,0,1,1,0-12.47h20a6.24,6.24,0,1,1,0,12.47Z" style="fill:#fff"/><path d="M696.13,711.71H528.32a6.24,6.24,0,1,1,0-12.47H696.13a6.24,6.24,0,1,1,0,12.47Z" style="fill:#fff"/><rect x="492.1" y="814.45" width="14.35" height="19.76" rx="5.51" style="fill:#93b3c6"/><rect x="1057.17" y="814.45" width="14.35" height="19.76" rx="5.51" style="fill:#93b3c6"/><rect x="3317.24" y="814.45" width="14.35" height="19.76" rx="5.51" style="fill:#376f8c"/><path d="M362.58,627.48H314.86a231.79,231.79,0,0,1-39.15,36.19h34.65Z" style="fill:#fff;opacity:0.5"/><path d="M370.2,664.92H275.71a1.25,1.25,0,0,1,0-2.5H370.2A1.81,1.81,0,0,0,372,661l5.9-30.11a1.75,1.75,0,0,0-.37-1.48,1.78,1.78,0,0,0-1.39-.66H314.86a1.25,1.25,0,0,1,0-2.49H376.1a4.27,4.27,0,0,1,4.21,5.11l-5.9,30.1A4.29,4.29,0,0,1,370.2,664.92Z" style="fill:#303030"/><path d="M3658.75,397.2a6.24,6.24,0,0,1-4.17-10.88l212.94-191.1a6.24,6.24,0,0,1,8.33,9.29L3662.92,395.6A6.25,6.25,0,0,1,3658.75,397.2Z" style="fill:#fff"/><path d="M3902.41,177.48a6.24,6.24,0,0,1-4.18-10.87l20.07-18.1a6.24,6.24,0,0,1,8.36,9.27l-20.07,18.09A6.2,6.2,0,0,1,3902.41,177.48Z" style="fill:#fff"/><path d="M3215.15,686.13H2895.7a6.24,6.24,0,1,1,0-12.48h319.45a6.24,6.24,0,0,1,0,12.48Z" style="fill:#fff"/><rect x="437.12" y="1088.2" width="18.61" height="2.09" style="fill:#a8a8a8"/><path d="M1626,851.13a6.24,6.24,0,0,1-.75-12.44l23.16-2.82a6.24,6.24,0,1,1,1.51,12.38l-23.15,2.83A6.78,6.78,0,0,1,1626,851.13Z" style="fill:#fff"/><path d="M1433.44,874.63a6.24,6.24,0,0,1-.75-12.44l161.37-19.69a6.24,6.24,0,1,1,1.51,12.39L1434.2,874.58A6.47,6.47,0,0,1,1433.44,874.63Z" style="fill:#fff"/></g></g></svg>