<svg xmlns="http://www.w3.org/2000/svg" viewBox="0 0 2394.99 920.57"><g id="Layer_2" data-name="Layer 2"><g id="_ÎÓÈ_1" data-name="—ÎÓÈ_1"><circle cx="1187.67" cy="869.65" r="50.92" transform="translate(-267.07 1094.52) rotate(-45)" style="fill:#3a3a3a"/><circle cx="1187.67" cy="869.65" r="40.15" transform="translate(-267.07 1094.52) rotate(-45)" style="fill:#161616"/><circle cx="1187.67" cy="869.65" r="22.92" transform="translate(-267.07 1094.52) rotate(-45)" style="fill:#c1c1c1"/><rect x="322.59" y="753.92" width="5.08" height="42.04" transform="translate(353.79 -64.95) rotate(24.71)" style="fill:#7c7c7c"/><rect x="326.77" y="783.82" width="5.08" height="34.28" transform="translate(-529.95 693.05) rotate(-60.49)" style="fill:#7c7c7c"/><circle cx="316.84" cy="792.95" r="8.65" style="fill:#969696"/><circle cx="316.84" cy="792.95" r="5.26" style="fill:#aaa"/><rect x="339.66" y="730.25" width="8.32" height="112.66" style="fill:#969696"/><rect x="344.49" y="730.25" width="3.49" height="112.66" style="fill:#828282"/><rect x="332.69" y="730.25" width="4.16" height="112.66" style="fill:#969696"/><rect x="335.37" y="730.25" width="1.48" height="112.66" style="fill:#828282"/><circle cx="337.17" cy="853.72" r="24.02" transform="translate(-133.36 65.61) rotate(-9.29)" style="fill:#3a3a3a"/><path d="M324.41,833.39a24,24,0,0,0-6.7,34.37l19.46-14Z" style="fill:#e5e5e5"/><circle cx="337.17" cy="853.72" r="18.94" transform="translate(-580.66 842.87) rotate(-67.77)" style="fill:#161616"/><circle cx="337.17" cy="853.72" r="10.81" transform="translate(-580.63 841.01) rotate(-67.66)" style="fill:#fff"/><circle cx="337.17" cy="853.72" r="5.12" style="fill:#969696"/><rect x="324.05" y="726.65" width="27.62" height="30.99" style="fill:#aaa"/><rect x="343.82" y="726.65" width="7.85" height="30.99" style="fill:#8e8e8e"/><rect x="322.97" y="755.71" width="29.79" height="3.84" style="fill:#bcbcbc"/><polygon points="351.67 738.66 351.67 726.65 324.05 726.65 324.05 737.93 351.67 738.66" style="fill:#8e8e8e"/><path d="M1170.49,885.43h33.69a17.29,17.29,0,0,0,17.29-17.29V782.38a10.74,10.74,0,0,0-10.74-10.74h-36a10.74,10.74,0,0,0-10.34,7.81l-9.53,33.63a115.81,115.81,0,0,0-4.38,31.52V855A36.21,36.21,0,0,0,1163.65,883h0A10.68,10.68,0,0,0,1170.49,885.43Z" style="fill:#fff"/><path d="M2201.23,0H2034.56c-10,0-18.88,7.32-20.07,17.3A19.74,19.74,0,0,0,2034,39.4H2056L1794.14,328.23l-91.91-22.66a901.91,901.91,0,0,0-215.79-26.2H1408a25.33,25.33,0,0,0-25.34,25.34V419.77A25.34,25.34,0,0,0,1408,445.12h9.69v10.81l461.69,38.68H2105L2241.42,26.93A21,21,0,0,0,2221.21,0Z" style="fill:#ddd"/><polygon points="2154 326.67 1884.97 350.63 2120.85 440.31 2154 326.67" style="fill:#141414;opacity:0.2"/><polygon points="2231.11 55.97 2171.29 65.34 2224.61 84.56 2232.26 58.34 2231.11 55.97" style="fill:#141414;opacity:0.2"/><path d="M1486.44,279.37H1408a25.33,25.33,0,0,0-25.34,25.34V419.77A25.34,25.34,0,0,0,1408,445.12h288A203.86,203.86,0,0,0,1780,427a24.13,24.13,0,0,0,14.12-22V347.19a24.2,24.2,0,0,0-18.41-23.5l-73.5-18.12A901.91,901.91,0,0,0,1486.44,279.37Z" style="fill:#fff"/><path d="M1708.38,422.9H1394.8a27.42,27.42,0,0,1-12.17-2.86A25.34,25.34,0,0,0,1408,445.12h288A203.86,203.86,0,0,0,1780,427a24.13,24.13,0,0,0,14.1-21.3A221.84,221.84,0,0,1,1708.38,422.9Z" style="fill:#efefef"/><path d="M2249.27,578.87V540.63a24.76,24.76,0,0,0-20.49-24.39l-149-26a2295.33,2295.33,0,0,0-395.21-34.27H425A329.36,329.36,0,0,0,198.69,546l-11.41,10.8L25.13,618.43C-11.39,632.31-7,685.31,31.26,693l153.39,31a421.87,421.87,0,0,0,72.26,8.19L666.29,743a366.17,366.17,0,0,1,119.9,23.58h0a366.18,366.18,0,0,0,129.6,23.7h429.72a567.83,567.83,0,0,0,126.35-14.23L2230,603A24.76,24.76,0,0,0,2249.27,578.87Z" style="fill:#ddd"/><path d="M2228.78,516.24l-149-26a2295.3,2295.3,0,0,0-395.2-34.27H425A329.38,329.38,0,0,0,198.69,546l-11.41,10.8-7,2.65,96.57-18.31a1168.48,1168.48,0,0,1,196.39-20.25l935.56-3.61,840.47,23.33A24.76,24.76,0,0,0,2228.78,516.24Z" style="fill:#f2f2f2"/><path d="M308.78,490.57a3.6,3.6,0,0,1-1.33-6.95A331.4,331.4,0,0,1,430.59,460h82a3.61,3.61,0,0,1,0,7.21h-82a324.52,324.52,0,0,0-120.48,23.09A3.46,3.46,0,0,1,308.78,490.57Z" style="fill:#fff"/><path d="M2249.27,578.87V571.3l-622.5,99.77a339.11,339.11,0,0,1-173.25-17.52h0a339,339,0,0,0-119.59-21.79H883.44A415.43,415.43,0,0,0,768.38,648h0a415.77,415.77,0,0,1-115,16.24H237L2.51,640.75c-7.71,20.62,2.6,47,28.75,52.29l153.39,31a421.87,421.87,0,0,0,72.26,8.19L666.29,743a366.17,366.17,0,0,1,119.9,23.58h0a366.18,366.18,0,0,0,129.6,23.7h429.72a567.83,567.83,0,0,0,126.35-14.23L2230,603A24.76,24.76,0,0,0,2249.27,578.87Z" style="fill:#c1c1c1"/><path d="M2230,596.8,1471.86,769.86a567.25,567.25,0,0,1-126.35,14.24H915.79a366.18,366.18,0,0,1-129.6-23.7h0a366.17,366.17,0,0,0-119.9-23.58L256.91,726a421.86,421.86,0,0,1-72.26-8.18L31.26,686.84C12,683,1.36,667.64.14,651.6c-1.38,18.11,9.4,37.06,31.12,41.44l153.39,31a421.87,421.87,0,0,0,72.26,8.19L666.29,743a366.17,366.17,0,0,1,119.9,23.58h0a366.18,366.18,0,0,0,129.6,23.7h429.72a567.83,567.83,0,0,0,126.35-14.23L2230,603a24.76,24.76,0,0,0,19.25-24.14v-6.2A24.75,24.75,0,0,1,2230,596.8Z" style="fill:#a5a5a5"/><path d="M1474,775.57l-212.92-70.24-382.25,52,70.86,32.92h395.79a567.83,567.83,0,0,0,126.35-14.23Z" style="fill:#141414;opacity:0.2"/><path d="M198.69,546a329.37,329.37,0,0,1,54.69-41.81h45.4a7.4,7.4,0,0,1,7.4,7.4v28.56a16.65,16.65,0,0,1-16.65,16.65H187.28Z" style="fill:#b7e2ed"/><path d="M286.76,504.21H253.38A329.37,329.37,0,0,0,198.69,546l-11.41,10.8H225.1Z" style="fill:#fff;opacity:0.5"/><path d="M289.89,559H187.28a2.17,2.17,0,0,1,0-4.33H289.89A14.14,14.14,0,0,0,304,540.53V512a5.6,5.6,0,0,0-5.6-5.6h-45a2.16,2.16,0,1,1,0-4.32h45a9.93,9.93,0,0,1,9.92,9.92v28.56A18.47,18.47,0,0,1,289.89,559Z" style="fill:#2d2d2d"/><rect x="546.16" y="543.12" width="36.03" height="43.96" rx="18.02" transform="translate(1128.34 1130.21) rotate(180)" style="fill:#2d2d2d"/><rect x="606.8" y="543.12" width="36.03" height="43.96" rx="18.02" transform="translate(1249.63 1130.21) rotate(-180)" style="fill:#2d2d2d"/><rect x="667.44" y="543.12" width="36.03" height="43.96" rx="18.02" transform="translate(1370.92 1130.21) rotate(180)" style="fill:#2d2d2d"/><path d="M746.1,587.08h0a18.07,18.07,0,0,0,18-18v-7.93a18.07,18.07,0,0,0-18-18h0a18.07,18.07,0,0,0-18,18v7.93A18.06,18.06,0,0,0,746.1,587.08Z" style="fill:#2d2d2d"/><path d="M806.75,587.08h0a18.06,18.06,0,0,0,18-18v-7.93a18.07,18.07,0,0,0-18-18h0a18.07,18.07,0,0,0-18,18v7.93A18.07,18.07,0,0,0,806.75,587.08Z" style="fill:#2d2d2d"/><path d="M867.39,587.08h0a18.07,18.07,0,0,0,18-18v-7.93a18.07,18.07,0,0,0-18-18h0a18.07,18.07,0,0,0-18,18v7.93A18.06,18.06,0,0,0,867.39,587.08Z" style="fill:#2d2d2d"/><path d="M928,587.08h0a18.06,18.06,0,0,0,18-18v-7.93a18.07,18.07,0,0,0-18-18h0a18.07,18.07,0,0,0-18,18v7.93A18.07,18.07,0,0,0,928,587.08Z" style="fill:#2d2d2d"/><path d="M988.68,587.08h0a18.07,18.07,0,0,0,18-18v-7.93a18.07,18.07,0,0,0-18-18h0a18.07,18.07,0,0,0-18,18v7.93A18.07,18.07,0,0,0,988.68,587.08Z" style="fill:#2d2d2d"/><path d="M1049.32,587.08h0a18.07,18.07,0,0,0,18-18v-7.93a18.07,18.07,0,0,0-18-18h0a18.07,18.07,0,0,0-18,18v7.93A18.06,18.06,0,0,0,1049.32,587.08Z" style="fill:#2d2d2d"/><rect x="1091.95" y="543.12" width="36.03" height="43.96" rx="18.02" transform="translate(2219.94 1130.21) rotate(180)" style="fill:#2d2d2d"/><rect x="1152.6" y="543.12" width="36.03" height="43.96" rx="18.02" transform="translate(2341.22 1130.21) rotate(180)" style="fill:#2d2d2d"/><rect x="1213.24" y="543.12" width="36.03" height="43.96" rx="18.02" transform="translate(2462.51 1130.21) rotate(180)" style="fill:#2d2d2d"/><rect x="390.98" y="522.71" width="100.89" height="199.86" rx="16.5" transform="translate(882.84 1245.27) rotate(180)" style="fill:#ddd"/><path d="M475.37,724.72H407.48a18.68,18.68,0,0,1-18.66-18.66V539.21a18.68,18.68,0,0,1,18.66-18.67h67.89A18.68,18.68,0,0,1,494,539.21V706.06A18.68,18.68,0,0,1,475.37,724.72ZM407.48,524.87a14.35,14.35,0,0,0-14.34,14.34V706.06a14.35,14.35,0,0,0,14.34,14.34h67.89a14.36,14.36,0,0,0,14.34-14.34V539.21a14.36,14.36,0,0,0-14.34-14.34Z" style="fill:#b7b7b7"/><path d="M814,739.14h-57a10.85,10.85,0,0,1-10.81-10.81h0a10.84,10.84,0,0,1,10.81-10.81h57a10.84,10.84,0,0,1,10.81,10.81h0A10.84,10.84,0,0,1,814,739.14Z" style="fill:#eaeaea"/><path d="M1762.94,794,1311.81,688.43c-47.78-7-431.11,0-431.11,0a34.53,34.53,0,0,0-37.16,34.43h0a34.53,34.53,0,0,0,35.32,34.52h0a1752,1752,0,0,1,233.55,10.32l452.4,50.4,197-4.73C1773.72,813.09,1774.78,795.68,1762.94,794Z" style="fill:#ddd"/><path d="M1784.68,514.64l96.89,23.88a4.47,4.47,0,0,1,3.4,4.34v56.89a4.47,4.47,0,0,1-3.4,4.34L1784.68,628a901.27,901.27,0,0,1-215.78,26.21h-78.48a25.35,25.35,0,0,1-25.35-25.34V513.77a25.35,25.35,0,0,1,25.35-25.34h78.48A901.33,901.33,0,0,1,1784.68,514.64Z" style="fill:#141414;opacity:0.25"/><path d="M1754.08,492.22,1851,516.1a4.47,4.47,0,0,1,3.4,4.34v56.89a4.48,4.48,0,0,1-3.4,4.35l-96.88,23.88a901.91,901.91,0,0,1-215.79,26.2h-78.48a25.33,25.33,0,0,1-25.34-25.34V491.36A25.34,25.34,0,0,1,1459.81,466h78.48A901.41,901.41,0,0,1,1754.08,492.22Z" style="fill:#fff"/><path d="M1771.9,581.31a1016.22,1016.22,0,0,1-243.29,29.55h-88.49a29.16,29.16,0,0,1-5.32-.51,25.33,25.33,0,0,0,25,21.41h78.48a901.91,901.91,0,0,0,215.79-26.2L1851,581.68a4.48,4.48,0,0,0,3.4-4.35V561Z" style="fill:#eaeaea"/><path d="M1459.81,466h.84V631.76h-.84a25.33,25.33,0,0,1-25.34-25.34V491.36A25.34,25.34,0,0,1,1459.81,466Z" style="fill:#d3d3d3"/><path d="M1408,279.37h.84V445.12H1408a25.34,25.34,0,0,1-25.34-25.35V304.71A25.33,25.33,0,0,1,1408,279.37Z" style="fill:#d3d3d3"/><path d="M1885,350.63l4.75.5A945.75,945.75,0,0,0,2099.44,350L2392,315.72c4.26-.5,3.9-6.81-.4-6.81H2068.44q-44.94,0-89.73,4.27l-93.59,8.91a14.34,14.34,0,0,0-13,14.28h0A14.34,14.34,0,0,0,1885,350.63Z" style="fill:#fff"/><path d="M2171.29,65.34h76.78a9.4,9.4,0,0,0,9.37-9.37h0a9.4,9.4,0,0,0-9.37-9.37h-76.78a9.4,9.4,0,0,0-9.37,9.37h0A9.4,9.4,0,0,0,2171.29,65.34Z" style="fill:#d6d6d6"/><path d="M405.73,611.94h13.66a2.86,2.86,0,0,1,2.86,2.86v16.62a2.86,2.86,0,0,1-2.86,2.86H405.73a2.86,2.86,0,0,1-2.86-2.86V614.81A2.87,2.87,0,0,1,405.73,611.94Z" style="fill:#adadad"/><rect x="403.56" y="613.35" width="6.7" height="19.53" rx="2.35" style="fill:#2d2d2d"/><rect x="414.86" y="613.35" width="6.7" height="19.53" rx="2.35" style="fill:#2d2d2d"/><path d="M1762.94,794l-15.59-3.65h-185L926.78,714.94a77.9,77.9,0,0,0-32.84,3.15h0c-.51.16-1,.34-1.52.53-20.53,7.9-14.52,38.69,7.48,39.08,45.23.79,152.43,3.31,212.51,10l452.4,50.4,197-4.73C1773.72,813.09,1774.78,795.68,1762.94,794Z" style="fill:#fff"/><path d="M642.83,561.14a18.07,18.07,0,0,0-18-18h0a18.07,18.07,0,0,0-18,18v7.93a17.8,17.8,0,0,0,2.18,8.55l33.85-15.86Z" style="fill:#fff;opacity:0.5"/><path d="M703.48,561.14a18.07,18.07,0,0,0-18-18h0a18.07,18.07,0,0,0-18,18v7.93a17.8,17.8,0,0,0,2.18,8.55l33.86-15.86Z" style="fill:#fff;opacity:0.5"/><path d="M764.12,561.14a18.07,18.07,0,0,0-18-18h0a18.07,18.07,0,0,0-18,18v7.93a17.91,17.91,0,0,0,2.17,8.55l33.86-15.86Z" style="fill:#fff;opacity:0.5"/><path d="M824.76,561.14a18.07,18.07,0,0,0-18-18h0a18.07,18.07,0,0,0-18,18v7.93a17.8,17.8,0,0,0,2.18,8.55l33.85-15.86Z" style="fill:#fff;opacity:0.5"/><path d="M885.41,561.14a18.07,18.07,0,0,0-18-18h0a18.07,18.07,0,0,0-18,18v7.93a17.91,17.91,0,0,0,2.17,8.55l33.86-15.86Z" style="fill:#fff;opacity:0.5"/><path d="M946.05,561.14a18.07,18.07,0,0,0-18-18h0a18.07,18.07,0,0,0-18,18v7.93a17.8,17.8,0,0,0,2.18,8.55l33.85-15.86Z" style="fill:#fff;opacity:0.5"/><path d="M1006.7,561.14a18.07,18.07,0,0,0-18-18h0a18.07,18.07,0,0,0-18,18v7.93a17.8,17.8,0,0,0,2.18,8.55l33.86-15.86Z" style="fill:#fff;opacity:0.5"/><path d="M1067.34,561.14a18.07,18.07,0,0,0-18-18h0a18.07,18.07,0,0,0-18,18v7.93a17.91,17.91,0,0,0,2.17,8.55l33.86-15.86Z" style="fill:#fff;opacity:0.5"/><path d="M1128,561.14a18.07,18.07,0,0,0-18-18h0a18.07,18.07,0,0,0-18,18v7.93a17.8,17.8,0,0,0,2.18,8.55L1128,561.76Z" style="fill:#fff;opacity:0.5"/><path d="M1188.63,561.14a18.07,18.07,0,0,0-18-18h0a18.07,18.07,0,0,0-18,18v7.93a17.91,17.91,0,0,0,2.17,8.55l33.86-15.86Z" style="fill:#fff;opacity:0.5"/><path d="M1249.27,561.14a18.07,18.07,0,0,0-18-18h0a18.07,18.07,0,0,0-18,18v7.93a17.8,17.8,0,0,0,2.18,8.55l33.85-15.86Z" style="fill:#fff;opacity:0.5"/><path d="M582.19,561.14a18.07,18.07,0,0,0-18-18h0a18.07,18.07,0,0,0-18,18v7.93a17.91,17.91,0,0,0,2.17,8.55l33.86-15.86Z" style="fill:#fff;opacity:0.5"/><path d="M2391.57,308.91H2068.44q-44.94,0-89.73,4.27l-77.6,7.39-.2.16a7,7,0,0,0,4.29,12.4l106.47,2.81Z" style="fill:#ddd"/><path d="M151.44,581.44a3.6,3.6,0,0,1-1.29-7l17.19-6.53a3.6,3.6,0,1,1,2.56,6.73l-17.19,6.53A3.57,3.57,0,0,1,151.44,581.44Z" style="fill:#fff"/><path d="M74.43,610.7a3.6,3.6,0,0,1-1.29-7L128,582.9a3.6,3.6,0,1,1,2.56,6.73L75.7,610.47A3.56,3.56,0,0,1,74.43,610.7Z" style="fill:#fff"/><path d="M918.1,523.89H903a3.6,3.6,0,1,1,0-7.2H918.1a3.6,3.6,0,1,1,0,7.2Z" style="fill:#fff"/><path d="M859,523.89H766.76a3.6,3.6,0,0,1,0-7.2H859a3.6,3.6,0,1,1,0,7.2Z" style="fill:#fff"/><path d="M1905.28,238.5a3.6,3.6,0,0,1-2.67-6L2021,101.94a3.6,3.6,0,0,1,5.34,4.84L1908,237.32A3.61,3.61,0,0,1,1905.28,238.5Z" style="fill:#fff"/><polygon points="1690.87 777.09 1551.92 777.09 1185 697.82 1351.97 697.82 1333.48 693.5 1144.51 693.5 1551.23 781.37 1551.46 781.41 1709.35 781.41 1690.87 777.09" style="fill:#b7b7b7"/><path d="M1441.28,590a3.6,3.6,0,0,1-3.6-3.6V494.61a3.61,3.61,0,0,1,7.21,0v91.75A3.61,3.61,0,0,1,1441.28,590Z" style="fill:#fff"/><path d="M1389.4,403a3.61,3.61,0,0,1-3.61-3.6V307.64a3.61,3.61,0,1,1,7.21,0v91.75A3.6,3.6,0,0,1,1389.4,403Z" style="fill:#fff"/><polygon points="2221.39 95.61 2222.65 91.28 2132.21 91.28 2036.68 288.02 2165.27 288.02 2166.53 283.69 2043.59 283.69 2134.91 95.61 2221.39 95.61" style="fill:#b7b7b7"/></g></g></svg>