<svg xmlns="http://www.w3.org/2000/svg" viewBox="0 0 3217.71 590.73"><g id="Layer_2" data-name="Layer 2"><g id="_ÎÓÈ_1" data-name="—ÎÓÈ_1"><rect x="1724.38" y="481.15" width="18.69" height="51.46" transform="translate(116.76 -298.21) rotate(10.17)" style="fill:#bababa"/><rect x="1736.42" y="482.23" width="6.56" height="51.46" transform="translate(117.05 -299.25) rotate(10.17)" style="fill:#9b9b9b"/><rect x="191.48" y="477.32" width="13.91" height="38.31" style="fill:#bababa"/><rect x="200.51" y="477.32" width="4.88" height="38.31" style="fill:#9b9b9b"/><rect x="157.67" y="444.5" width="54.92" height="31.85" style="fill:#d6d6d6"/><path d="M157.67,467.42q27.38,3.36,54.92,5.08V448H157.67Z" style="fill:#b2b2b2"/><rect x="156.7" y="476.35" width="56.87" height="1.95" style="fill:#f4f4f4"/><circle cx="189.08" cy="529.49" r="25.75" transform="translate(-369.69 591.86) rotate(-76.72)" style="fill:#3f3f3f"/><path d="M181.83,504.79a25.76,25.76,0,0,0-18.5,24.7c0,.46,0,.91.07,1.36l25.68-1.36Z" style="fill:#fff"/><circle cx="189.08" cy="529.49" r="24.1" transform="translate(-369.69 591.86) rotate(-76.72)" style="fill:#232323"/><circle cx="189.08" cy="529.49" r="14.04" transform="translate(-369.69 591.86) rotate(-76.72)" style="fill:#4e89ad"/><circle cx="189.08" cy="529.49" r="10.76" style="fill:#36708e"/><path d="M192.74,529.49a3.66,3.66,0,1,1-3.66-3.66A3.66,3.66,0,0,1,192.74,529.49Z" style="fill:#cecece"/><path d="M2588.66,255.83V241.17a21.57,21.57,0,0,1,21.57-21.57h83.07a38.15,38.15,0,0,0,27.34-11.55L2841.93,83.3l37.94-64.22A38.85,38.85,0,0,1,2913.31,0H3008a224.74,224.74,0,0,1,81.5,15.29L3129.1,30.7A18.71,18.71,0,0,1,3141,48.14V69.62a18.72,18.72,0,0,1-18.72,18.72H3048.9L2924,304.89,2713.2,295Z" style="fill:#d3d3d3"/><polygon points="3040.51 102.9 2971.39 102.8 2965.3 106.31 2916.16 176.61 2835.49 293.8 2845.7 301.22 2923.96 304.89 3040.51 102.9" style="fill:#ff7748"/><path d="M2890.3,303.31l33.66,1.58,56.19-97.39h-25.9a7,7,0,0,0-5.89,3.26Z" style="fill:#ed603a"/><path d="M2759.68,190a4,4,0,0,1-2.89-6.84l84.29-86.7a4,4,0,0,1,5.78,5.62l-84.29,86.7A4,4,0,0,1,2759.68,190Z" style="fill:#fff"/><path d="M2972.62,101.6a12.46,12.46,0,0,0-10.23,5.36L2828.3,300.41l3.45.16L2964.8,108.63a9.51,9.51,0,0,1,7.82-4.1h66.94l1.69-2.93Z" style="fill:#2d2d2d"/><path d="M3002.31,196.67h-26.82a5.36,5.36,0,0,1-5.36-5.36h0a5.36,5.36,0,0,1,5.36-5.37h26.82a5.36,5.36,0,0,1,5.37,5.37h0A5.36,5.36,0,0,1,3002.31,196.67Z" style="fill:#d3d3d3"/><path d="M11.56,394.76,150,321.83h0a230.16,230.16,0,0,1,176.51-82.46H2455.74l518.57,64.22a5.19,5.19,0,0,1,4.55,5.15v42.59a5.17,5.17,0,0,1-3.8,5L2715,428.55a1157.29,1157.29,0,0,1-309.65,42.2H269.87A912.67,912.67,0,0,1,27.72,438l-11.81-3.25C-3,429.57-5.8,403.91,11.56,394.76Z" style="fill:#fff"/><path d="M11.11,395c-16.84,9.36-13.95,34.6,4.8,39.76L27.72,438a912.67,912.67,0,0,0,242.15,32.72H2405.31A1157.29,1157.29,0,0,0,2715,428.55L2835.7,395Z" style="fill:#e5e5e5"/><path d="M52.6,444.5a912.81,912.81,0,0,0,217.27,26.25H2405.31a1157.51,1157.51,0,0,0,245.07-26.25Z" style="fill:#d3d3d3"/><path d="M1254.3,438.26h0a434.74,434.74,0,0,1,189-43.24h421a1024.7,1024.7,0,0,1,247.8,30.42l89.63,22.35a11.31,11.31,0,0,1,8.57,11h0a11.32,11.32,0,0,1-9.32,11.13L2047.78,497.2a788.59,788.59,0,0,1-138.45,12.25h-404.2a738.46,738.46,0,0,1-249.36-43.37h0A15.1,15.1,0,0,1,1254.3,438.26Z" style="fill:#fff"/><path d="M2053.07,439.16A31.61,31.61,0,0,0,2026.46,408,1024.74,1024.74,0,0,0,1864.27,395h-421a434.65,434.65,0,0,0-46.52,2.51A31.62,31.62,0,0,0,1368.52,429v10.21a31.59,31.59,0,0,0,31.59,31.59h621.37a31.6,31.6,0,0,0,31.59-31.59Z" style="fill:#eaeaea"/><rect x="364.6" y="324.09" width="17.8" height="20.51" rx="2.63" style="fill:#adadad"/><rect x="365.24" y="325.39" width="6.15" height="17.92" rx="2.15" style="fill:#2d2d2d"/><rect x="375.61" y="325.39" width="6.15" height="17.92" rx="2.15" style="fill:#2d2d2d"/><path d="M299.94,286.49h-113a229.53,229.53,0,0,0-37,35.34h150a4,4,0,0,0,4-4V290.47A4,4,0,0,0,299.94,286.49Z" style="fill:#b7e2ed"/><path d="M262.44,286.49h-75.5a229.9,229.9,0,0,0-37,35.33h86.46Z" style="fill:#fff;opacity:0.5"/><path d="M299.94,323.34H150a1.52,1.52,0,0,1,0-3h150a2.46,2.46,0,0,0,2.47-2.47V290.47a2.47,2.47,0,0,0-2.47-2.47h-113a1.51,1.51,0,0,1,0-3h113a5.5,5.5,0,0,1,5.5,5.49v27.37A5.51,5.51,0,0,1,299.94,323.34Z" style="fill:#3f3f3f"/><rect x="497.02" y="295.01" width="32.18" height="46.38" rx="14.67" style="fill:#2d2d2d"/><rect x="559.26" y="295.01" width="32.18" height="46.38" rx="14.67" style="fill:#2d2d2d"/><rect x="621.5" y="295.01" width="32.18" height="46.38" rx="14.67" style="fill:#2d2d2d"/><rect x="683.75" y="295.01" width="32.18" height="46.38" rx="14.67" style="fill:#2d2d2d"/><rect x="745.99" y="295.01" width="32.18" height="46.38" rx="14.67" style="fill:#2d2d2d"/><rect x="808.23" y="295.01" width="32.18" height="46.38" rx="14.67" style="fill:#2d2d2d"/><rect x="870.47" y="295.01" width="32.18" height="46.38" rx="14.67" style="fill:#2d2d2d"/><rect x="932.71" y="295.01" width="32.18" height="46.38" rx="14.67" style="fill:#2d2d2d"/><rect x="994.96" y="295.01" width="32.18" height="46.38" rx="14.67" style="fill:#2d2d2d"/><rect x="1057.2" y="295.01" width="32.18" height="46.38" rx="14.67" style="fill:#2d2d2d"/><rect x="1119.44" y="295.01" width="32.18" height="46.38" rx="14.67" style="fill:#2d2d2d"/><rect x="1181.68" y="295.01" width="32.18" height="46.38" rx="14.67" style="fill:#2d2d2d"/><rect x="1243.92" y="295.01" width="32.18" height="46.38" rx="14.67" style="fill:#2d2d2d"/><rect x="1306.17" y="295.01" width="32.18" height="46.38" rx="14.67" style="fill:#2d2d2d"/><rect x="1368.41" y="295.01" width="32.18" height="46.38" rx="14.67" style="fill:#2d2d2d"/><rect x="1430.65" y="295.01" width="32.18" height="46.38" rx="14.67" style="fill:#2d2d2d"/><rect x="1492.89" y="295.01" width="32.18" height="46.38" rx="14.67" style="fill:#2d2d2d"/><rect x="1617.38" y="295.01" width="32.18" height="46.38" rx="14.67" style="fill:#2d2d2d"/><rect x="1679.62" y="295.01" width="32.18" height="46.38" rx="14.67" style="fill:#2d2d2d"/><rect x="1741.86" y="295.01" width="32.18" height="46.38" rx="14.67" style="fill:#2d2d2d"/><rect x="1804.1" y="295.01" width="32.18" height="46.38" rx="14.67" style="fill:#2d2d2d"/><rect x="1866.34" y="295.01" width="32.18" height="46.38" rx="14.67" style="fill:#2d2d2d"/><rect x="1928.59" y="295.01" width="32.18" height="46.38" rx="14.67" style="fill:#2d2d2d"/><rect x="1990.83" y="295.01" width="32.18" height="46.38" rx="14.67" style="fill:#2d2d2d"/><rect x="2053.07" y="295.01" width="32.18" height="46.38" rx="14.67" style="fill:#2d2d2d"/><rect x="2115.31" y="295.01" width="32.18" height="46.38" rx="14.67" style="fill:#2d2d2d"/><rect x="2177.55" y="295.01" width="32.18" height="46.38" rx="14.67" style="fill:#2d2d2d"/><rect x="2239.8" y="295.01" width="32.18" height="46.38" rx="14.67" style="fill:#2d2d2d"/><path d="M1533.17,390.18H1484.8a6.32,6.32,0,0,1-6.31-6.31V292.59a6.31,6.31,0,0,1,6.31-6.3h48.37a6.3,6.3,0,0,1,6.3,6.3v91.28A6.31,6.31,0,0,1,1533.17,390.18Zm-48.37-101a3.39,3.39,0,0,0-3.38,3.38v91.28a3.39,3.39,0,0,0,3.38,3.38h48.37a3.39,3.39,0,0,0,3.38-3.38V292.59a3.39,3.39,0,0,0-3.38-3.38Z" style="fill:#2d2d2d"/><path d="M1657.65,390.18h-48.37a6.32,6.32,0,0,1-6.31-6.31V292.59a6.31,6.31,0,0,1,6.31-6.3h48.37a6.31,6.31,0,0,1,6.31,6.3v91.28A6.32,6.32,0,0,1,1657.65,390.18Zm-48.37-101a3.39,3.39,0,0,0-3.38,3.38v91.28a3.39,3.39,0,0,0,3.38,3.38h48.37a3.39,3.39,0,0,0,3.38-3.38V292.59a3.39,3.39,0,0,0-3.38-3.38Z" style="fill:#2d2d2d"/><path d="M2668,334.56a.46.46,0,0,0,.07-.07,6,6,0,0,0,.56-.86s0-.07,0-.1a6.45,6.45,0,0,0,.35-.86.56.56,0,0,1,0-.12,5.68,5.68,0,0,0-2.9-6.77l-21-10.52-20.64-10.36.94-10.29a6.7,6.7,0,0,0-5.24-7.16l-76.64-16.7.25-2.71a7.86,7.86,0,0,0-6.55-8.48A1207,1207,0,0,0,2370,244.23a7.86,7.86,0,0,0-8,7.15l-7.88,85.95h0l-1.28,14-.27,3a7.87,7.87,0,0,0,5.31,8.17,7.78,7.78,0,0,0,1.08.28l.16,0q21.38,3.48,42.88,6.17a1208.8,1208.8,0,0,0,124.4,9.16,7.8,7.8,0,0,0,4.84-1.55c.19-.14.38-.29.56-.45a9.84,9.84,0,0,0,1-1.06,9.14,9.14,0,0,0,.78-1.23,7.82,7.82,0,0,0,.82-2.86l.25-2.71,37.57-1.2,40.83-1.3a6.71,6.71,0,0,0,6.46-6.09l.94-10.29,7.85-2.28,14.32-4.16,22.52-6.53h0a6.2,6.2,0,0,0,1-.41l.28-.16a4.66,4.66,0,0,0,.63-.43,1.55,1.55,0,0,0,.24-.19A5.43,5.43,0,0,0,2668,334.56Z" style="fill:#4c4c4c;opacity:0.30000000000000004"/><circle cx="1723.11" cy="552.29" r="38.44" transform="translate(114.16 1380.18) rotate(-45)" style="fill:#3f3f3f"/><path d="M1712.29,515.41a38.45,38.45,0,0,0-27.63,36.88c0,.68.07,1.35.11,2l38.34-2Z" style="fill:#fff"/><circle cx="1723.11" cy="552.29" r="35.98" transform="translate(114.16 1380.18) rotate(-45)" style="fill:#232323"/><circle cx="1723.11" cy="552.29" r="20.97" transform="translate(391.24 1777.13) rotate(-60.37)" style="fill:#4e89ad"/><circle cx="1723.11" cy="552.29" r="16.07" style="fill:#36708e"/><path d="M1728.57,552.29a5.46,5.46,0,1,1-5.46-5.47A5.46,5.46,0,0,1,1728.57,552.29Z" style="fill:#cecece"/><polygon points="354.97 392.51 354.97 405.1 358.37 412.66 367.43 418.32 421.2 418.32 432.84 413.86 436.37 403.78 436.37 392.51 354.97 392.51" style="fill:#fff"/><path d="M420,420.05h-48.8a17.47,17.47,0,0,1-17.45-17.45V262.09a17.47,17.47,0,0,1,17.45-17.45H420a17.47,17.47,0,0,1,17.46,17.45V402.6A17.47,17.47,0,0,1,420,420.05Zm-48.8-172.48a14.54,14.54,0,0,0-14.52,14.52V402.6a14.54,14.54,0,0,0,14.52,14.52H420a14.55,14.55,0,0,0,14.53-14.52V262.09A14.54,14.54,0,0,0,420,247.57Z" style="fill:#2d2d2d"/><path d="M514.53,295h-2.84A14.67,14.67,0,0,0,497,309.68v17c0,.2,0,.4,0,.61l32.14-18A14.66,14.66,0,0,0,514.53,295Z" style="fill:#fff;opacity:0.5"/><path d="M576.78,295h-2.84a14.67,14.67,0,0,0-14.67,14.67v17c0,.2,0,.4,0,.61l32.14-18A14.66,14.66,0,0,0,576.78,295Z" style="fill:#fff;opacity:0.5"/><path d="M639,295h-2.84a14.67,14.67,0,0,0-14.67,14.67v17c0,.2,0,.4,0,.61l32.14-18A14.66,14.66,0,0,0,639,295Z" style="fill:#fff;opacity:0.5"/><path d="M701.28,295h-2.84a14.67,14.67,0,0,0-14.67,14.67v17c0,.2,0,.4,0,.61l32.14-18A14.66,14.66,0,0,0,701.28,295Z" style="fill:#fff;opacity:0.5"/><path d="M763.53,295h-2.84A14.67,14.67,0,0,0,746,309.68v17c0,.2,0,.4,0,.61l32.14-18A14.66,14.66,0,0,0,763.53,295Z" style="fill:#fff;opacity:0.5"/><path d="M825.78,295h-2.84a14.67,14.67,0,0,0-14.67,14.67v17c0,.2,0,.4,0,.61l32.14-18A14.66,14.66,0,0,0,825.78,295Z" style="fill:#fff;opacity:0.5"/><path d="M888,295h-2.84a14.67,14.67,0,0,0-14.67,14.67v17c0,.2,0,.4,0,.61l32.14-18A14.66,14.66,0,0,0,888,295Z" style="fill:#fff;opacity:0.5"/><path d="M950.28,295h-2.84a14.67,14.67,0,0,0-14.67,14.67v17c0,.2,0,.4,0,.61l32.14-18A14.66,14.66,0,0,0,950.28,295Z" style="fill:#fff;opacity:0.5"/><path d="M1012.53,295h-2.84A14.67,14.67,0,0,0,995,309.68v17c0,.2,0,.4,0,.61l32.14-18A14.66,14.66,0,0,0,1012.53,295Z" style="fill:#fff;opacity:0.5"/><path d="M1074.78,295h-2.84a14.67,14.67,0,0,0-14.67,14.67v17c0,.2,0,.4,0,.61l32.14-18A14.66,14.66,0,0,0,1074.78,295Z" style="fill:#fff;opacity:0.5"/><path d="M1137,295h-2.84a14.67,14.67,0,0,0-14.67,14.67v17c0,.2,0,.4,0,.61l32.14-18A14.66,14.66,0,0,0,1137,295Z" style="fill:#fff;opacity:0.5"/><path d="M1199.28,295h-2.84a14.67,14.67,0,0,0-14.67,14.67v17c0,.2,0,.4,0,.61l32.14-18A14.66,14.66,0,0,0,1199.28,295Z" style="fill:#fff;opacity:0.5"/><path d="M1261.53,295h-2.84A14.67,14.67,0,0,0,1244,309.68v17c0,.2,0,.4,0,.61l32.14-18A14.66,14.66,0,0,0,1261.53,295Z" style="fill:#fff;opacity:0.5"/><path d="M1323.78,295h-2.84a14.67,14.67,0,0,0-14.67,14.67v17c0,.2,0,.4,0,.61l32.14-18A14.66,14.66,0,0,0,1323.78,295Z" style="fill:#fff;opacity:0.5"/><path d="M1386,295h-2.84a14.67,14.67,0,0,0-14.67,14.67v17c0,.2,0,.4,0,.61l32.13-18A14.65,14.65,0,0,0,1386,295Z" style="fill:#fff;opacity:0.5"/><path d="M1448.28,295h-2.84a14.67,14.67,0,0,0-14.67,14.67v17c0,.2,0,.4,0,.61l32.13-18A14.65,14.65,0,0,0,1448.28,295Z" style="fill:#fff;opacity:0.5"/><path d="M1510.53,295h-2.84A14.67,14.67,0,0,0,1493,309.68v17c0,.2,0,.4,0,.61l32.13-18A14.65,14.65,0,0,0,1510.53,295Z" style="fill:#fff;opacity:0.5"/><path d="M1635,295h-2.84a14.67,14.67,0,0,0-14.67,14.67v17c0,.2,0,.4,0,.61l32.13-18A14.65,14.65,0,0,0,1635,295Z" style="fill:#fff;opacity:0.5"/><path d="M1697.14,295h-2.84a14.66,14.66,0,0,0-14.67,14.67v17c0,.2,0,.4,0,.61l32.13-18A14.66,14.66,0,0,0,1697.14,295Z" style="fill:#fff;opacity:0.5"/><path d="M1759.38,295h-2.84a14.67,14.67,0,0,0-14.67,14.67v17c0,.2,0,.4,0,.61l32.13-18A14.66,14.66,0,0,0,1759.38,295Z" style="fill:#fff;opacity:0.5"/><path d="M1821.62,295h-2.84a14.67,14.67,0,0,0-14.67,14.67v17c0,.2,0,.4,0,.61l32.14-18A14.66,14.66,0,0,0,1821.62,295Z" style="fill:#fff;opacity:0.5"/><path d="M1883.86,295H1881a14.67,14.67,0,0,0-14.67,14.67v17c0,.2,0,.4,0,.61l32.14-18A14.66,14.66,0,0,0,1883.86,295Z" style="fill:#fff;opacity:0.5"/><path d="M1946.1,295h-2.84a14.67,14.67,0,0,0-14.67,14.67v17c0,.2,0,.4,0,.61l32.14-18A14.66,14.66,0,0,0,1946.1,295Z" style="fill:#fff;opacity:0.5"/><path d="M2008.35,295h-2.84a14.66,14.66,0,0,0-14.67,14.67v17c0,.2,0,.4,0,.61l32.13-18A14.66,14.66,0,0,0,2008.35,295Z" style="fill:#fff;opacity:0.5"/><path d="M2070.59,295h-2.84a14.67,14.67,0,0,0-14.67,14.67v17c0,.2,0,.4,0,.61l32.13-18A14.66,14.66,0,0,0,2070.59,295Z" style="fill:#fff;opacity:0.5"/><path d="M2132.83,295H2130a14.67,14.67,0,0,0-14.67,14.67v17c0,.2,0,.4,0,.61l32.14-18A14.66,14.66,0,0,0,2132.83,295Z" style="fill:#fff;opacity:0.5"/><path d="M2195.07,295h-2.84a14.67,14.67,0,0,0-14.67,14.67v17c0,.2,0,.4,0,.61l32.14-18A14.66,14.66,0,0,0,2195.07,295Z" style="fill:#fff;opacity:0.5"/><path d="M2257.31,295h-2.84a14.67,14.67,0,0,0-14.67,14.67v17c0,.2,0,.4,0,.61l32.14-18A14.66,14.66,0,0,0,2257.31,295Z" style="fill:#fff;opacity:0.5"/><path d="M3141,69.62V59.79L2911.79,47l-12.1,15.16,140,42.06,9.16-15.88h73.41A18.72,18.72,0,0,0,3141,69.62Z" style="fill:#4c4c4c;opacity:0.30000000000000004"/><path d="M3207.77,77.58a1315.74,1315.74,0,0,0-308.08-15.42A13.74,13.74,0,0,1,2885,49.55l0-.28a13.75,13.75,0,0,1,12.92-14.77c104.64-6.27,209.35,8.26,312.79,26.19a8.45,8.45,0,0,1,6.54,11.08l0,.12A8.46,8.46,0,0,1,3207.77,77.58Z" style="fill:#fff"/><path d="M2648.67,311.75a5.72,5.72,0,0,1-1,10.61l-22.52,6.53-36.52,10.6,2.53-27.66,2.54-27.66,34,17.06Z" style="fill:#7f7f7f"/><path d="M2647.7,322.36a5.7,5.7,0,0,0,3.93-6.95L2590.27,322l-1.61,17.53,36.52-10.6Z" style="fill:#565656"/><polygon points="2601.53 351.52 2510.93 354.41 2520 255.38 2608.56 274.68 2601.53 351.52" style="fill:#bababa"/><polygon points="2603.14 333.9 2512.81 333.9 2510.93 354.41 2601.53 351.52 2603.14 333.9" style="fill:#9e9e9e"/><polygon points="2532.57 258.12 2520 255.38 2510.93 354.41 2523.79 354 2532.57 258.12" style="fill:#9e9e9e"/><path d="M2519.84,245.53a1207,1207,0,0,0-167.28-15.33,7.86,7.86,0,0,0-8,7.15l-9.43,102.91a7.86,7.86,0,0,0,6.55,8.48A1206.84,1206.84,0,0,0,2509,364.07a7.86,7.86,0,0,0,8-7.15L2526.39,254A7.85,7.85,0,0,0,2519.84,245.53Z" style="fill:#d3d3d3"/><path d="M2350,297.54h-.37a4,4,0,0,1-3.65-4.38l4.43-48.41a12,12,0,0,1,12.09-10.81c17.75.39,35.74,1.18,53.46,2.35a4,4,0,0,1-.53,8c-17.6-1.16-35.47-1.95-53.11-2.33a3.82,3.82,0,0,0-3.88,3.49l-4.44,48.4A4,4,0,0,1,2350,297.54Z" style="fill:#fff"/><path d="M2438.25,246h-.35q-3.72-.33-7.45-.61a4,4,0,1,1,.64-8c2.5.2,5,.4,7.5.62a4,4,0,0,1-.34,8Z" style="fill:#fff"/><path d="M2336.7,323.29l-1.55,17a7.86,7.86,0,0,0,6.55,8.48A1206.84,1206.84,0,0,0,2509,364.07a7.86,7.86,0,0,0,8-7.15l1.56-17Q2427.26,336.14,2336.7,323.29Z" style="fill:#b7b7b7"/><path d="M1417.85,461.25l144.44,48.2h347q27.74,0,55.39-2L1804.1,473.71,1493,437.84Z" style="fill:#4c4c4c;opacity:0.25"/><path d="M1401.41,434.88h0a29.36,29.36,0,0,1,28-29.33l485.71-22.24a433.55,433.55,0,0,1,57.1,1.14l66.51,5.73-23.81,31.16-202.82,60.38L1712,483.13A1729.6,1729.6,0,0,1,1465.42,469L1427,464A29.36,29.36,0,0,1,1401.41,434.88Z" style="fill:#d3d3d3"/><path d="M1942.41,405.15,1465.49,459.6c-5.54.64-5.6,8.66-.07,9.37h0A1729.6,1729.6,0,0,0,1712,483.13l100.13-1.41,202.82-60.38,12.36-16.19Z" style="fill:#afafaf"/><path d="M1942.41,405.15l119-86.82a21,21,0,0,1,12.41-4.05h13.93a5.79,5.79,0,0,1,4.53,9.4l-65,81.47Z" style="fill:#ff7748"/><path d="M1654.41,405.69a4,4,0,0,1-.22-8.05l13.81-.77a4,4,0,0,1,.45,8.05l-13.82.76Z" style="fill:#fff"/><path d="M1437.41,417.7a4,4,0,0,1-.22-8.06l180-10a4,4,0,0,1,.45,8.05l-180,10Z" style="fill:#fff"/><path d="M2020.2,362.23a4,4,0,0,1-2.4-7.26l32.87-24.44a4,4,0,1,1,4.81,6.47l-32.88,24.44A4,4,0,0,1,2020.2,362.23Z" style="fill:#fff"/><path d="M3002.31,185.94h-.93v10.73h.93a5.36,5.36,0,0,0,5.37-5.36h0A5.36,5.36,0,0,0,3002.31,185.94Z" style="fill:#ffb533"/><path d="M3000.72,197.26h0a.66.66,0,0,0,.66-.66V186a.67.67,0,0,0-.66-.66h0a.66.66,0,0,0-.66.66V196.6A.65.65,0,0,0,3000.72,197.26Z" style="fill:#383838"/><path d="M3011.63,181.81h-26.82a5.36,5.36,0,0,1-5.36-5.36h0a5.36,5.36,0,0,1,5.36-5.36h26.82a5.36,5.36,0,0,1,5.36,5.36h0A5.36,5.36,0,0,1,3011.63,181.81Z" style="fill:#d3d3d3"/><path d="M3011.63,171.09h-.93v10.72h.93a5.36,5.36,0,0,0,5.36-5.36h0A5.36,5.36,0,0,0,3011.63,171.09Z" style="fill:#ffb533"/><path d="M3010,182.41h0a.67.67,0,0,0,.67-.67V171.15a.67.67,0,0,0-.67-.66h0a.67.67,0,0,0-.66.66v10.59A.67.67,0,0,0,3010,182.41Z" style="fill:#383838"/><path d="M3021,167h-26.82a5.37,5.37,0,0,1-5.36-5.37h0a5.36,5.36,0,0,1,5.36-5.36H3021a5.36,5.36,0,0,1,5.36,5.36h0A5.37,5.37,0,0,1,3021,167Z" style="fill:#d3d3d3"/><path d="M3021,156.23H3020V167h.94a5.37,5.37,0,0,0,5.36-5.37h0A5.36,5.36,0,0,0,3021,156.23Z" style="fill:#ffb533"/><path d="M3019.35,167.55h0a.66.66,0,0,0,.66-.66V156.3a.65.65,0,0,0-.66-.66h0a.66.66,0,0,0-.66.66v10.59A.67.67,0,0,0,3019.35,167.55Z" style="fill:#383838"/><path d="M287.73,409.45H266.24a4,4,0,0,1,0-8.06h21.49a4,4,0,0,1,0,8.06Z" style="fill:#fff"/><path d="M236,409.45H97.68a4,4,0,0,1,0-8.06H236a4,4,0,0,1,0,8.06Z" style="fill:#fff"/></g></g></svg>