<svg width="808" height="335" xmlns="http://www.w3.org/2000/svg"><g fill="none" fill-rule="evenodd"><path fill="#DC3F39" d="M806.764 233.688v-1H2.127v-7.125h803.636l.001 8.125h1v-1 1h1l-.001-10.125H.127v11.125h807.637v-1h-1"/><path fill="#DC3F39" d="M245.085 233.688h2v-9.125h-2zM262.151 233.688h2v-9.125h-2zM253.619 233.688h2v-9.125h-2z"/><path fill="#DC3F39" d="M255.987 233.688h-2.368l.038-.436 8.126-8.689h2.368v.395l-8.164 8.73"/><path fill="#DC3F39" d="M253.317 233.688h2.369l-.039-.436-8.126-8.689h-2.368v.395l8.164 8.73M228.02 233.688h2v-9.125h-2z"/><path fill="#DC3F39" d="M245.085 233.688h2v-9.125h-2zM236.553 233.688h2v-9.125h-2z"/><path fill="#DC3F39" d="M238.921 233.688h-2.368l.038-.436 8.126-8.689h2.368v.395l-8.164 8.73"/><path fill="#DC3F39" d="M236.251 233.688h2.369l-.038-.436-8.126-8.689h-2.369v.395l8.164 8.73M262.151 233.688h2v-9.125h-2zM279.217 233.688h2v-9.125h-2zM270.685 233.688h2v-9.125h-2z"/><path fill="#DC3F39" d="M273.053 233.688h-2.368l.038-.436 8.126-8.689h2.368v.395l-8.164 8.73"/><path fill="#DC3F39" d="M270.383 233.688h2.369l-.039-.436-8.126-8.689h-2.368v.395l8.164 8.73M279.217 233.688h2v-9.125h-2zM296.283 233.688h2v-9.125h-2zM287.75 233.688h2v-9.125h-2z"/><path fill="#DC3F39" d="M290.119 233.688h-2.369l.039-.436 8.126-8.689h2.368v.395l-8.164 8.73"/><path fill="#DC3F39" d="M287.449 233.688h2.369l-.039-.436-8.126-8.689h-2.368v.395l8.164 8.73M296.283 233.688h2v-9.125h-2zM313.349 233.688h2v-9.125h-2zM304.816 233.688h2v-9.125h-2z"/><path fill="#DC3F39" d="M307.185 233.688h-2.369l.038-.436 8.126-8.689h2.369v.395l-8.164 8.73"/><path fill="#DC3F39" d="M304.515 233.688h2.369l-.039-.436-8.126-8.689h-2.368v.395l8.164 8.73M313.349 233.688h2v-9.125h-2zM330.415 233.688h2v-9.125h-2zM321.882 233.688h2v-9.125h-2z"/><path fill="#DC3F39" d="M324.251 233.688h-2.369l.038-.436 8.126-8.689h2.369v.395l-8.164 8.73"/><path fill="#DC3F39" d="M321.581 233.688h2.369l-.039-.436-8.126-8.689h-2.368v.395l8.164 8.73M330.415 233.688h2v-9.125h-2zM347.481 233.688h2v-9.125h-2zM338.948 233.688h2v-9.125h-2z"/><path fill="#DC3F39" d="M341.317 233.688h-2.369l.038-.436 8.126-8.689h2.369v.395l-8.164 8.73"/><path fill="#DC3F39" d="M338.646 233.688h2.37l-.039-.436-8.126-8.689h-2.368v.395l8.163 8.73M347.481 233.688h2v-9.125h-2zM364.547 233.688h2v-9.125h-2zM356.014 233.688h2v-9.125h-2z"/><path fill="#DC3F39" d="M358.383 233.688h-2.369l.038-.436 8.126-8.689h2.369v.395l-8.164 8.73"/><path fill="#DC3F39" d="M355.712 233.688h2.37l-.039-.436-8.126-8.689h-2.368v.395l8.163 8.73M364.547 233.688h2v-9.125h-2zM381.613 233.688h2v-9.125h-2zM373.08 233.688h2v-9.125h-2z"/><path fill="#DC3F39" d="M375.449 233.688h-2.369l.038-.436 8.126-8.689h2.369v.395l-8.164 8.73"/><path fill="#DC3F39" d="M372.778 233.688h2.369l-.038-.436-8.126-8.689h-2.368v.395l8.163 8.73M381.613 233.688h2v-9.125h-2zM398.679 233.688h2v-9.125h-2zM390.146 233.688h2v-9.125h-2z"/><path fill="#DC3F39" d="M392.515 233.688h-2.369l.038-.436 8.126-8.689h2.369v.395l-8.164 8.73"/><path fill="#DC3F39" d="M389.844 233.688h2.369l-.038-.436-8.126-8.689h-2.368v.395l8.163 8.73M398.679 233.688h2v-9.125h-2zM415.744 233.688h2v-9.125h-2zM407.212 233.688h2v-9.125h-2z"/><path fill="#DC3F39" d="M409.581 233.688h-2.369l.038-.436 8.126-8.689h2.368v.395l-8.163 8.73"/><path fill="#DC3F39" d="M406.91 233.688h2.369l-.038-.436-8.126-8.689h-2.368v.395l8.163 8.73M415.744 233.688h2v-9.125h-2zM432.811 233.688h2v-9.125h-2zM424.277 233.688h2v-9.125h-2z"/><path fill="#DC3F39" d="M426.646 233.688h-2.369l.038-.436 8.127-8.689h2.369v.395l-8.165 8.73"/><path fill="#DC3F39" d="M423.977 233.688h2.368l-.038-.436-8.126-8.689h-2.368v.395l8.164 8.73M432.811 233.688h2v-9.125h-2zM449.876 233.688h2v-9.125h-2zM441.344 233.688h2v-9.125h-2z"/><path fill="#DC3F39" d="M443.712 233.688h-2.368l.038-.436 8.126-8.689h2.368v.395l-8.164 8.73"/><path fill="#DC3F39" d="M441.042 233.688h2.369l-.038-.436-8.126-8.689h-2.369v.395l8.164 8.73M449.876 233.688h2v-9.125h-2zM466.942 233.688h2v-9.125h-2zM458.409 233.688h2v-9.125h-2z"/><path fill="#DC3F39" d="M460.778 233.688h-2.369l.038-.436 8.127-8.689h2.368v.395l-8.164 8.73"/><path fill="#DC3F39" d="M458.108 233.688h2.369l-.039-.436-8.125-8.689h-2.369v.395l8.164 8.73M466.942 233.688h2v-9.125h-2zM484.008 233.688h2v-9.125h-2zM475.476 233.688h2v-9.125h-2z"/><path fill="#DC3F39" d="M477.844 233.688h-2.368l.038-.436 8.126-8.689h2.368v.395l-8.164 8.73"/><path fill="#DC3F39" d="M475.174 233.688h2.369l-.038-.436-8.127-8.689h-2.368v.395l8.164 8.73M484.008 233.688h2v-9.125h-2zM501.074 233.688h2v-9.125h-2zM492.541 233.688h2v-9.125h-2z"/><path fill="#DC3F39" d="M494.91 233.688h-2.369l.039-.436 8.126-8.689h2.368v.395l-8.164 8.73"/><path fill="#DC3F39" d="M492.24 233.688h2.368l-.038-.436-8.126-8.689h-2.368v.395l8.164 8.73M501.074 233.688h2v-9.125h-2zM518.14 233.688h2v-9.125h-2zM509.607 233.688h2v-9.125h-2z"/><path fill="#DC3F39" d="M511.977 233.688h-2.37l.039-.436 8.125-8.689h2.369v.395l-8.163 8.73"/><path fill="#DC3F39" d="M509.306 233.688h2.369l-.038-.436-8.127-8.689h-2.368v.395l8.164 8.73M518.14 233.688h2v-9.125h-2zM535.206 233.688h2v-9.125h-2zM526.673 233.688h2v-9.125h-2z"/><path fill="#DC3F39" d="M529.042 233.688h-2.369l.038-.436 8.127-8.689h2.368v.395l-8.164 8.73"/><path fill="#DC3F39" d="M526.372 233.688h2.368l-.038-.436-8.126-8.689h-2.368v.395l8.164 8.73M535.206 233.688h2v-9.125h-2zM552.271 233.688h2v-9.125h-2zM543.739 233.688h2v-9.125h-2z"/><path fill="#DC3F39" d="M546.107 233.688h-2.368l.038-.436 8.126-8.689h2.368v.395l-8.164 8.73"/><path fill="#DC3F39" d="M543.438 233.688h2.369l-.038-.436-8.126-8.689h-2.37v.395l8.165 8.73M552.271 233.688h2v-9.125h-2zM569.338 233.688h2v-9.125h-2zM560.805 233.688h2v-9.125h-2z"/><path fill="#DC3F39" d="M563.174 233.688h-2.369l.038-.436 8.127-8.689h2.368v.395l-8.164 8.73"/><path fill="#DC3F39" d="M560.504 233.688h2.368l-.038-.436-8.126-8.689h-2.368v.395l8.164 8.73M569.338 233.688h2v-9.125h-2zM586.403 233.688h2v-9.125h-2zM577.871 233.688h2v-9.125h-2z"/><path fill="#DC3F39" d="M580.239 233.688h-2.368l.038-.436 8.126-8.689h2.368v.395l-8.164 8.73"/><path fill="#DC3F39" d="M577.569 233.688h2.369l-.038-.436-8.127-8.689h-2.368v.395l8.164 8.73M586.403 233.688h2v-9.125h-2zM603.47 233.688h2v-9.125h-2zM594.937 233.688h2v-9.125h-2z"/><path fill="#DC3F39" d="M597.306 233.688h-2.369l.038-.436 8.127-8.689h2.368v.395l-8.164 8.73"/><path fill="#DC3F39" d="M594.636 233.688h2.368l-.038-.436-8.126-8.689h-2.368v.395l8.164 8.73M603.47 233.688h2v-9.125h-2zM620.535 233.688h2v-9.125h-2zM612.003 233.688h2v-9.125h-2z"/><path fill="#DC3F39" d="M614.372 233.688h-2.369l.038-.436 8.126-8.689h2.368v.395l-8.163 8.73"/><path fill="#DC3F39" d="M611.701 233.688h2.369l-.038-.436-8.126-8.689h-2.369v.395l8.164 8.73M347.981 224.563h1v-26.152h-1zM365.047 224.563h1v-19.925h-1zM382.113 224.563h1v-15.398h-1zM399.179 224.563h1v-12.451h-1zM416.244 224.563h1v-11.071h-1zM433.31 224.563h1v-11.071h-1zM450.376 224.563h1v-12.451h-1zM467.441 224.563h1v-15.398h-1zM484.508 224.563h1v-19.924h-1zM501.573 224.563h1V198.41h-1z"/><path d="M425.276 214.49c-110.364 0-200.152-89.788-200.152-200.153h1.5c0 109.537 89.115 198.653 198.652 198.653 109.538 0 198.654-89.116 198.654-198.653h1.5c0 110.365-89.788 200.153-200.154 200.153" fill="#DC3F39"/><path fill="#DC3F39" d="M245.585 224.563h1V101.912h-1zM262.651 224.563h1V130.45h-1zM279.717 224.563h1v-73.407h-1zM296.783 224.563h1v-57.321h-1zM313.849 224.563h1v-44.502h-1zM330.915 224.563h1v-34.254h-1zM518.64 224.563h1v-34.254h-1zM535.705 224.563h1v-44.502h-1zM552.771 224.563h1v-57.318h-1zM569.837 224.563h1v-73.407h-1zM586.902 224.563h1V130.45h-1zM603.969 224.563h1V101.912h-1zM25.726 233.688h2v-9.125h-2zM42.792 233.688h2v-9.125h-2zM34.259 233.688h2v-9.125h-2z"/><path fill="#DC3F39" d="M36.628 233.688h-2.369l.038-.436 8.126-8.689h2.369v.395l-8.164 8.73"/><path fill="#DC3F39" d="M33.957 233.688h2.369l-.038-.436-8.126-8.689h-2.369v.395l8.164 8.73M8.66 233.688h2v-9.125h-2z"/><path fill="#DC3F39" d="M25.726 233.688h2v-9.125h-2zM17.193 233.688h2v-9.125h-2z"/><path fill="#DC3F39" d="M19.561 233.688h-2.368l.038-.436 8.126-8.689h2.369v.395l-8.165 8.73"/><path fill="#DC3F39" d="M16.891 233.688h2.369l-.038-.436-8.126-8.689H8.728v.395l8.163 8.73"/><path fill="#DC3F39" d="M8.659 233.688h2v-9.125h-2zM.126 233.688h2v-9.125h-2z"/><path fill="#DC3F39" d="M2.496 233.688H.126l.039-.436 8.126-8.689h2.368v.395l-8.163 8.73M42.792 233.688h2v-9.125h-2zM59.857 233.688h2v-9.125h-2zM51.325 233.688h2v-9.125h-2z"/><path fill="#DC3F39" d="M53.694 233.688h-2.369l.038-.436 8.126-8.689h2.368v.395l-8.163 8.73"/><path fill="#DC3F39" d="M51.023 233.688h2.369l-.038-.436-8.126-8.689h-2.369v.395l8.164 8.73M59.857 233.688h2v-9.125h-2zM76.923 233.688h2v-9.125h-2zM68.391 233.688h2v-9.125h-2z"/><path fill="#DC3F39" d="M70.76 233.688h-2.369l.038-.436 8.126-8.689h2.368v.395l-8.163 8.73"/><path fill="#DC3F39" d="M68.089 233.688h2.369l-.038-.436-8.126-8.689h-2.369v.395l8.164 8.73M76.923 233.688h2v-9.125h-2zM93.989 233.688h2v-9.125h-2zM85.457 233.688h2v-9.125h-2z"/><path fill="#DC3F39" d="M87.826 233.688h-2.369l.038-.436 8.126-8.689h2.368v.395l-8.163 8.73"/><path fill="#DC3F39" d="M85.155 233.688h2.369l-.038-.436-8.126-8.689h-2.369v.395l8.164 8.73M93.989 233.688h2v-9.125h-2zM111.055 233.688h2v-9.125h-2zM102.522 233.688h2v-9.125h-2z"/><path fill="#DC3F39" d="M104.892 233.688h-2.37l.039-.436 8.126-8.689h2.368v.395l-8.163 8.73"/><path fill="#DC3F39" d="M102.221 233.688h2.369l-.038-.436-8.126-8.689h-2.369v.395l8.164 8.73M111.055 233.688h2v-9.125h-2zM128.121 233.688h2v-9.125h-2zM119.588 233.688h2v-9.125h-2z"/><path fill="#DC3F39" d="M121.958 233.688h-2.37l.038-.436 8.127-8.689h2.368v.395l-8.163 8.73"/><path fill="#DC3F39" d="M119.287 233.688h2.369l-.038-.436-8.126-8.689h-2.369v.395l8.164 8.73M128.121 233.688h2v-9.125h-2zM145.187 233.688h2v-9.125h-2zM136.654 233.688h2v-9.125h-2z"/><path fill="#DC3F39" d="M139.023 233.688h-2.369l.038-.436 8.127-8.689h2.368v.395l-8.164 8.73"/><path fill="#DC3F39" d="M136.353 233.688h2.369l-.038-.436-8.126-8.689h-2.369v.395l8.164 8.73M145.187 233.688h2v-9.125h-2zM162.253 233.688h2v-9.125h-2zM153.72 233.688h2v-9.125h-2z"/><path fill="#DC3F39" d="M156.089 233.688h-2.369l.039-.436 8.126-8.689h2.368v.395l-8.164 8.73"/><path fill="#DC3F39" d="M153.419 233.688h2.369l-.038-.436-8.126-8.689h-2.369v.395l8.164 8.73M162.253 233.688h2v-9.125h-2zM179.319 233.688h2v-9.125h-2zM170.786 233.688h2v-9.125h-2z"/><path fill="#DC3F39" d="M173.155 233.688h-2.369l.039-.436 8.126-8.689h2.368v.395l-8.164 8.73"/><path fill="#DC3F39" d="M170.485 233.688h2.369l-.039-.436-8.126-8.689h-2.368v.395l8.164 8.73M179.319 233.688h2v-9.125h-2zM196.385 233.688h2v-9.125h-2zM187.852 233.688h2v-9.125h-2z"/><path fill="#DC3F39" d="M190.221 233.688h-2.369l.039-.436 8.126-8.689h2.368v.395l-8.164 8.73"/><path fill="#DC3F39" d="M187.551 233.688h2.368l-.038-.436-8.126-8.689h-2.368v.395l8.164 8.73M196.385 233.688h2v-9.125h-2zM213.451 233.688h2v-9.125h-2zM204.918 233.688h2v-9.125h-2z"/><path fill="#DC3F39" d="M207.287 233.688h-2.369l.039-.436 8.126-8.689h2.368v.395l-8.164 8.73"/><path fill="#DC3F39" d="M204.617 233.688h2.368l-.038-.436-8.126-8.689h-2.368v.395l8.164 8.73M9.16 224.563h1v-11.071h-1zM26.226 224.563h1v-11.071h-1zM43.292 224.563h1v-12.451h-1zM60.357 224.563h1v-15.398h-1zM77.423 224.563h1v-19.924h-1zM94.489 224.563h1V198.41h-1zM111.555 224.563h1v-34.254h-1zM128.621 224.563h1v-44.502h-1zM145.687 224.563h1v-57.318h-1zM162.752 224.563h1v-73.407h-1zM179.818 224.563h1V130.45h-1zM196.884 224.563h1V101.912h-1z"/><path d="M216.846 14.337c0 109.537-89.116 198.653-198.653 198.653-5.921 0-11.776-.276-17.566-.786v1.506c5.79.506 11.646.78 17.566.78 110.365 0 200.153-89.788 200.153-200.153h-1.5M652.17 233.688h2v-9.125h-2zM669.236 233.688h2v-9.125h-2zM660.703 233.688h2v-9.125h-2z" fill="#DC3F39"/><path fill="#DC3F39" d="M663.072 233.688h-2.369l.038-.436 8.126-8.689h2.369v.395l-8.164 8.73"/><path fill="#DC3F39" d="M660.401 233.688h2.37l-.039-.436-8.126-8.689h-2.368v.395l8.163 8.73M635.104 233.688h2v-9.125h-2z"/><path fill="#DC3F39" d="M652.17 233.688h2v-9.125h-2zM643.637 233.688h2v-9.125h-2z"/><path fill="#DC3F39" d="M646.006 233.688h-2.369l.039-.436 8.126-8.689h2.368v.395l-8.164 8.73"/><path fill="#DC3F39" d="M643.336 233.688h2.369l-.039-.436-8.126-8.689h-2.368v.395l8.164 8.73M669.236 233.688h2v-9.125h-2zM686.302 233.688h2v-9.125h-2zM677.77 233.688h2v-9.125h-2z"/><path fill="#DC3F39" d="M680.138 233.688h-2.368l.038-.436 8.126-8.689h2.368v.395l-8.164 8.73"/><path fill="#DC3F39" d="M677.468 233.688h2.369l-.039-.436-8.126-8.689h-2.368v.395l8.164 8.73M686.302 233.688h2v-9.125h-2zM703.368 233.688h2v-9.125h-2zM694.835 233.688h2v-9.125h-2z"/><path fill="#DC3F39" d="M697.204 233.688h-2.369l.038-.436 8.126-8.689h2.369v.395l-8.164 8.73"/><path fill="#DC3F39" d="M694.533 233.688h2.369l-.038-.436-8.126-8.689h-2.368v.395l8.163 8.73M703.368 233.688h2v-9.125h-2zM720.434 233.688h2v-9.125h-2zM711.901 233.688h2v-9.125h-2z"/><path fill="#DC3F39" d="M714.27 233.688h-2.369l.038-.436 8.126-8.689h2.369v.395l-8.164 8.73"/><path fill="#DC3F39" d="M711.6 233.688h2.369l-.039-.436-8.126-8.689h-2.368v.395l8.164 8.73M720.434 233.688h2v-9.125h-2zM737.499 233.688h2v-9.125h-2zM728.967 233.688h2v-9.125h-2z"/><path fill="#DC3F39" d="M731.336 233.688h-2.369l.038-.436 8.126-8.689h2.368v.395l-8.163 8.73"/><path fill="#DC3F39" d="M728.665 233.688h2.369l-.038-.436-8.126-8.689h-2.368v.395l8.163 8.73M737.499 233.688h2v-9.125h-2zM754.565 233.688h2v-9.125h-2zM746.032 233.688h2v-9.125h-2z"/><path fill="#DC3F39" d="M748.401 233.688h-2.369l.039-.436 8.126-8.689h2.368v.395l-8.164 8.73"/><path fill="#DC3F39" d="M745.731 233.688h2.369l-.038-.436-8.126-8.689h-2.369v.395l8.164 8.73M754.565 233.688h2v-9.125h-2zM771.632 233.688h2v-9.125h-2zM763.099 233.688h2v-9.125h-2z"/><path fill="#DC3F39" d="M765.468 233.688h-2.369l.038-.436 8.126-8.689h2.369v.395l-8.164 8.73"/><path fill="#DC3F39" d="M762.797 233.688h2.369l-.038-.436-8.126-8.689h-2.369v.395l8.164 8.73M771.632 233.688h2v-9.125h-2zM788.697 233.688h2v-9.125h-2zM780.165 233.688h2v-9.125h-2z"/><path fill="#DC3F39" d="M782.533 233.688h-2.368l.038-.436 8.126-8.689h2.368v.395l-8.164 8.73"/><path fill="#DC3F39" d="M779.863 233.688h2.369l-.039-.436-8.126-8.689h-2.368v.395l8.164 8.73M788.697 233.688h2v-9.125h-2zM805.764 233.688h2v-9.125h-2zM797.23 233.688h2v-9.125h-2z"/><path fill="#DC3F39" d="M799.6 233.688h-2.37l.039-.436 8.126-8.689h2.369v.395l-8.164 8.73"/><path fill="#DC3F39" d="M796.929 233.688h2.369l-.038-.436-8.126-8.689h-2.368v.395l8.163 8.73M755.065 224.563h1v-26.152h-1zM772.131 224.563h1v-19.925h-1zM789.197 224.563h1v-15.398h-1zM806.263 224.563h1v-12.451h-1zM652.67 224.563h1V101.912h-1zM669.735 224.563h1V130.45h-1zM686.802 224.563h1v-73.407h-1zM703.867 224.563h1v-57.321h-1zM720.934 224.563h1v-44.502h-1zM737.999 224.563h1v-34.254h-1z"/><path d="M807.263 211.411c-97.733-12.376-173.555-96.037-173.555-197.074h-1.5c0 101.866 76.493 186.198 175.055 198.583v-1.509M612.484 237.721h32.671v-11.295h-32.671z" fill="#DC3F39"/><path fill="#B99368" d="M612.484 327.717h32.671v-20.209h-32.671z"/><path fill="#DC3F39" d="M615.795 243.369h26.049v-5.648h-26.049zM615.795 307.508h26.049v-13.881h-26.049z"/><path fill="#AB2531" d="M610.276 226.426h37.086v-3.725h-37.086z"/><path fill="#DC3F39" d="M618.886 293.627h19.867v-50.259h-19.867zM618.886 222.701h19.867V157.43h-19.867zM621.535 157.43h14.569V99.56h-14.569zM623.301 99.56h11.037V52.1h-11.037z"/><path fill="#AB2531" d="M623.301 14.337h11.037v-2.195h-11.037z"/><path fill="#DC3F39" d="M624.681 52.1h8.278V14.337h-8.278zM624.681 12.142h8.278v-3.98h-8.278z"/><path fill="#DC3F39" d="M630.475 8.162h-3.311L628.268.66h1.103l1.104 7.502"/><path fill="#B99368" d="M601.695 334.108h54.248v-6.391h-54.248z"/><path fill="#B53935" d="M618.886 245.688h19.867v-2.32h-19.867z"/><path fill="#DC3F39" d="M205.399 237.721h32.671v-11.295h-32.671z"/><path fill="#B99368" d="M205.399 327.717h32.671v-20.209h-32.671z"/><path fill="#DC3F39" d="M208.71 243.369h26.049v-5.648H208.71zM208.71 307.508h26.049v-13.881H208.71z"/><path fill="#AB2531" d="M203.192 226.426h37.086v-3.725h-37.086z"/><path fill="#DC3F39" d="M211.801 293.627h19.867v-50.259h-19.867zM211.801 222.701h19.867V157.43h-19.867zM214.45 157.43h14.57V99.56h-14.57zM216.216 99.56h11.037V52.1h-11.037z"/><path fill="#AB2531" d="M216.216 14.337h11.037v-2.195h-11.037z"/><path fill="#DC3F39" d="M217.596 52.1h8.278V14.337h-8.278zM217.596 12.142h8.278v-3.98h-8.278z"/><path fill="#DC3F39" d="M223.391 8.162h-3.312L221.183.66h1.104l1.104 7.502"/><path fill="#B99368" d="M194.61 334.108h54.249v-6.391H194.61z"/><path fill="#B53935" d="M211.801 245.688h19.867v-2.32h-19.867z"/></g></svg>