<svg width="808" height="337" xmlns="http://www.w3.org/2000/svg"><g fill="none" fill-rule="evenodd"><g fill="#E5E6E3"><path d="M552.143 141.233h-2.698a21.052 21.052 0 0 0 2.037-9.019c0-11.648-9.393-21.091-20.979-21.091-7.549 0-14.148 4.022-17.843 10.037a13.564 13.564 0 0 0-6.924-1.902c-7.565 0-13.698 6.165-13.698 13.771 0 2.024.444 3.94 1.225 5.671h-6.095c-6.332 0-11.514 5.209-11.514 11.575s5.182 11.575 11.514 11.575h64.975c5.639 0 10.253-4.639 10.253-10.309 0-5.669-4.614-10.308-10.253-10.308M699.938 15.352h-1.309c.627-1.329.988-2.81.988-4.379 0-5.656-4.56-10.241-10.186-10.241-3.666 0-6.869 1.952-8.664 4.873a6.59 6.59 0 0 0-3.362-.923c-3.674 0-6.652 2.993-6.652 6.687 0 .982.216 1.913.595 2.753h-2.959c-3.076 0-5.591 2.529-5.591 5.621 0 3.091 2.515 5.62 5.591 5.62h31.549c2.739 0 4.979-2.252 4.979-5.005s-2.24-5.006-4.979-5.006M438.697 87.049h1.886a14.736 14.736 0 0 1-1.424-6.306c0-8.144 6.568-14.746 14.668-14.746 5.277 0 9.891 2.812 12.475 7.018a9.479 9.479 0 0 1 4.84-1.331c5.29 0 9.578 4.311 9.578 9.629a9.624 9.624 0 0 1-.857 3.964h4.261c4.428 0 8.05 3.642 8.05 8.093 0 4.451-3.622 8.093-8.05 8.093h-45.427c-3.942 0-7.169-3.243-7.169-7.207 0-3.965 3.227-7.207 7.169-7.207M104.461 105.636h-2.371a18.52 18.52 0 0 0 1.79-7.93c0-10.24-8.257-18.543-18.444-18.543-6.637 0-12.438 3.537-15.687 8.825a11.928 11.928 0 0 0-6.087-1.673c-6.652 0-12.044 5.421-12.044 12.108a12.1 12.1 0 0 0 1.077 4.986h-5.359c-5.567 0-10.122 4.579-10.122 10.176s4.555 10.177 10.122 10.177h57.125c4.958 0 9.015-4.079 9.015-9.063 0-4.985-4.057-9.063-9.015-9.063M324.722 151.085h-1.777a13.876 13.876 0 0 0 1.342-5.941c0-7.673-6.188-13.893-13.82-13.893-4.973 0-9.32 2.649-11.754 6.611a8.937 8.937 0 0 0-4.561-1.253c-4.983 0-9.024 4.061-9.024 9.072 0 1.333.294 2.595.808 3.735h-4.015c-4.171 0-7.585 3.432-7.585 7.625 0 4.194 3.414 7.625 7.585 7.625h42.801c3.715 0 6.754-3.056 6.754-6.791 0-3.734-3.039-6.79-6.754-6.79M287.169 36.704h-2.119a16.537 16.537 0 0 0 1.6-7.085c0-9.152-7.379-16.571-16.483-16.571-5.931 0-11.115 3.159-14.018 7.885a10.657 10.657 0 0 0-5.44-1.495c-5.944 0-10.763 4.845-10.763 10.82 0 1.591.35 3.096.963 4.456h-4.789c-4.975 0-9.046 4.092-9.046 9.094s4.071 9.094 9.046 9.094h51.049c4.431 0 8.057-3.644 8.057-8.099 0-4.454-3.626-8.099-8.057-8.099M756.855 94.056h-1.831a14.31 14.31 0 0 0 1.383-6.124c0-7.91-6.378-14.322-14.246-14.322-5.126 0-9.606 2.731-12.115 6.815a9.208 9.208 0 0 0-4.702-1.292c-5.137 0-9.302 4.187-9.302 9.352 0 1.374.303 2.675.832 3.85h-4.139c-4.299 0-7.818 3.537-7.818 7.86s3.519 7.86 7.818 7.86h44.12c3.831 0 6.963-3.15 6.963-6.999 0-3.851-3.132-7-6.963-7"/></g><path fill="#DC3F39" d="M305.316 226.563h1v-26.152h-1zM322.382 226.563h1v-19.925h-1zM339.448 226.563h1v-15.398h-1zM356.514 226.563h1v-12.451h-1zM373.58 226.563h1v-11.071h-1zM390.646 226.563h1v-11.071h-1zM407.711 226.563h1v-12.451h-1zM424.777 226.563h1v-15.398h-1zM441.843 226.563h1v-19.924h-1zM458.909 226.563h1V200.41h-1z"/><path d="M382.613 216.49c-110.365 0-200.154-89.788-200.154-200.153h1.5c0 109.537 89.116 198.653 198.654 198.653 109.537 0 198.653-89.116 198.653-198.653h1.5c0 110.365-89.788 200.153-200.153 200.153" fill="#DC3F39"/><path fill="#DC3F39" d="M202.921 226.563h1V103.912h-1zM219.987 226.563h1V132.45h-1zM237.053 226.563h1v-73.407h-1zM254.119 226.563h1v-57.321h-1zM271.185 226.563h1v-44.502h-1zM288.25 226.563h1v-34.254h-1zM475.975 226.563h1v-34.254h-1zM493.04 226.563h1v-44.502h-1zM510.106 226.563h1v-57.318h-1zM527.172 226.563h1v-73.407h-1zM544.238 226.563h1V132.45h-1zM561.304 226.563h1V103.912h-1zM.627 226.563h1v-12.451h-1zM17.693 226.563h1v-15.398h-1zM34.759 226.563h1v-19.924h-1zM51.825 226.563h1V200.41h-1zM68.891 226.563h1v-34.254h-1zM85.957 226.563h1v-44.502h-1zM103.022 226.563h1v-57.318h-1zM120.088 226.563h1v-73.407h-1zM137.154 226.563h1V132.45h-1zM154.22 226.563h1V103.912h-1z"/><path d="M174.181 16.337c0 101.037-75.822 184.698-173.554 197.074v1.509c98.561-12.385 175.054-96.717 175.054-198.583h-1.5M712.4 226.563h1v-26.152h-1zM729.467 226.563h1v-19.925h-1zM746.532 226.563h1v-15.398h-1zM763.599 226.563h1v-12.451h-1zM780.664 226.563h1v-11.071h-1zM797.729 226.563h1v-11.071h-1zM610.005 226.563h1V103.912h-1zM627.071 226.563h1V132.45h-1zM644.137 226.563h1v-73.407h-1zM661.203 226.563h1v-57.321h-1zM678.269 226.563h1v-44.502h-1zM695.335 226.563h1v-34.254h-1z" fill="#DC3F39"/><path d="M807.263 214.204c-5.789.51-11.646.786-17.566.786-109.538 0-198.653-89.116-198.653-198.653h-1.5c0 110.365 89.788 200.153 200.153 200.153 5.92 0 11.776-.274 17.566-.78v-1.506" fill="#DC3F39"/><path fill="#BA2B2B" d="M569.819 239.721h32.671v-11.295h-32.671z"/><path fill="#9A7957" d="M569.819 329.717h32.671v-20.209h-32.671z"/><path fill="#BA2B2B" d="M573.131 245.369h26.048v-5.648h-26.048zM573.131 309.508h26.048v-13.881h-26.048z"/><path fill="#AB2531" d="M567.612 228.426h37.086v-3.725h-37.086z"/><path fill="#BA2B2B" d="M576.222 295.627h19.867v-50.259h-19.867zM576.222 224.701h19.867V159.43h-19.867zM578.87 159.43h14.569v-57.87H578.87zM580.636 101.56h11.038V54.1h-11.038z"/><path fill="#AB2531" d="M580.636 16.337h11.038v-2.195h-11.038z"/><path fill="#BA2B2B" d="M582.016 54.1h8.278V16.337h-8.278z"/><path fill="#DC3F39" d="M582.016 14.142h8.278v-3.98h-8.278z"/><path fill="#DC3F39" d="M587.811 10.162h-3.312l1.105-7.502h1.103l1.104 7.502"/><path fill="#D3A778" d="M559.03 336.108h54.249v-6.391H559.03z"/><path fill="#982929" d="M576.222 247.688h19.867v-2.32h-19.867z"/><path fill="#BA2B2B" d="M162.735 239.721h32.671v-11.295h-32.671z"/><path fill="#9A7957" d="M162.735 329.717h32.671v-20.209h-32.671z"/><path fill="#BA2B2B" d="M166.046 245.369h26.049v-5.648h-26.049zM166.046 309.508h26.049v-13.881h-26.049z"/><path fill="#AB2531" d="M160.527 228.426h37.086v-3.725h-37.086z"/><path fill="#BA2B2B" d="M169.137 295.627h19.867v-50.259h-19.867zM169.137 224.701h19.867V159.43h-19.867zM171.786 159.43h14.569v-57.87h-14.569zM173.551 101.56h11.038V54.1h-11.038z"/><path fill="#AB2531" d="M173.551 16.337h11.038v-2.195h-11.038z"/><path fill="#BA2B2B" d="M174.931 54.1h8.278V16.337h-8.278z"/><path fill="#DC3F39" d="M174.931 14.142h8.278v-3.98h-8.278z"/><path fill="#DC3F39" d="M180.726 10.162h-3.311l1.104-7.502h1.103l1.104 7.502"/><path fill="#D3A778" d="M151.946 336.108h54.249v-6.391h-54.249z"/><path fill="#982929" d="M169.137 247.688h19.867v-2.32h-19.867z"/><path fill="#AA283E" d="M586.155 28.855h38.526V17.938h-38.526zM586.155 67.105h38.526V56.188h-38.526zM586.543 114.842h38.525v-10.917h-38.525zM586.155 173.23h38.526v-10.917h-38.526zM179.07 28.855h38.526V17.938H179.07zM179.07 67.105h38.526V56.188H179.07zM179.458 114.842h38.526v-10.917h-38.526zM179.07 173.23h38.526v-10.917H179.07z"/><path fill="#9D252F" d="M806.764 235.688H1.127v-9.125h805.636l.001 9.125"/><g><path fill="#DC3F39" d="M806.764 235.688v-1H2.127v-7.125h803.636l.001 8.125h1v-1 1h1l-.001-10.125H.127v11.125h807.637v-1h-1"/><path fill="#DC3F39" d="M245.085 235.688h2v-9.125h-2zM262.151 235.688h2v-9.125h-2zM253.619 235.688h2v-9.125h-2z"/><path fill="#DC3F39" d="M255.987 235.688h-2.368l.038-.436 8.126-8.689h2.368v.395l-8.164 8.73"/><path fill="#DC3F39" d="M253.317 235.688h2.369l-.039-.436-8.126-8.689h-2.368v.395l8.164 8.73M228.02 235.688h2v-9.125h-2z"/><path fill="#DC3F39" d="M245.085 235.688h2v-9.125h-2zM236.553 235.688h2v-9.125h-2z"/><path fill="#DC3F39" d="M238.921 235.688h-2.368l.038-.436 8.126-8.689h2.368v.395l-8.164 8.73"/><path fill="#DC3F39" d="M236.251 235.688h2.369l-.038-.436-8.126-8.689h-2.369v.395l8.164 8.73M262.151 235.688h2v-9.125h-2zM279.217 235.688h2v-9.125h-2zM270.685 235.688h2v-9.125h-2z"/><path fill="#DC3F39" d="M273.053 235.688h-2.368l.038-.436 8.126-8.689h2.368v.395l-8.164 8.73"/><path fill="#DC3F39" d="M270.383 235.688h2.369l-.039-.436-8.126-8.689h-2.368v.395l8.164 8.73M279.217 235.688h2v-9.125h-2zM296.283 235.688h2v-9.125h-2zM287.75 235.688h2v-9.125h-2z"/><path fill="#DC3F39" d="M290.119 235.688h-2.369l.039-.436 8.126-8.689h2.368v.395l-8.164 8.73"/><path fill="#DC3F39" d="M287.449 235.688h2.369l-.039-.436-8.126-8.689h-2.368v.395l8.164 8.73M296.283 235.688h2v-9.125h-2zM313.349 235.688h2v-9.125h-2zM304.816 235.688h2v-9.125h-2z"/><path fill="#DC3F39" d="M307.185 235.688h-2.369l.038-.436 8.126-8.689h2.369v.395l-8.164 8.73"/><path fill="#DC3F39" d="M304.515 235.688h2.369l-.039-.436-8.126-8.689h-2.368v.395l8.164 8.73M313.349 235.688h2v-9.125h-2zM330.415 235.688h2v-9.125h-2zM321.882 235.688h2v-9.125h-2z"/><path fill="#DC3F39" d="M324.251 235.688h-2.369l.038-.436 8.126-8.689h2.369v.395l-8.164 8.73"/><path fill="#DC3F39" d="M321.581 235.688h2.369l-.039-.436-8.126-8.689h-2.368v.395l8.164 8.73M330.415 235.688h2v-9.125h-2zM347.481 235.688h2v-9.125h-2zM338.948 235.688h2v-9.125h-2z"/><path fill="#DC3F39" d="M341.317 235.688h-2.369l.038-.436 8.126-8.689h2.369v.395l-8.164 8.73"/><path fill="#DC3F39" d="M338.646 235.688h2.37l-.039-.436-8.126-8.689h-2.368v.395l8.163 8.73M347.481 235.688h2v-9.125h-2zM364.547 235.688h2v-9.125h-2zM356.014 235.688h2v-9.125h-2z"/><path fill="#DC3F39" d="M358.383 235.688h-2.369l.038-.436 8.126-8.689h2.369v.395l-8.164 8.73"/><path fill="#DC3F39" d="M355.712 235.688h2.37l-.039-.436-8.126-8.689h-2.368v.395l8.163 8.73M364.547 235.688h2v-9.125h-2zM381.613 235.688h2v-9.125h-2zM373.08 235.688h2v-9.125h-2z"/><path fill="#DC3F39" d="M375.449 235.688h-2.369l.038-.436 8.126-8.689h2.369v.395l-8.164 8.73"/><path fill="#DC3F39" d="M372.778 235.688h2.369l-.038-.436-8.126-8.689h-2.368v.395l8.163 8.73M381.613 235.688h2v-9.125h-2zM398.679 235.688h2v-9.125h-2zM390.146 235.688h2v-9.125h-2z"/><path fill="#DC3F39" d="M392.515 235.688h-2.369l.038-.436 8.126-8.689h2.369v.395l-8.164 8.73"/><path fill="#DC3F39" d="M389.844 235.688h2.369l-.038-.436-8.126-8.689h-2.368v.395l8.163 8.73M398.679 235.688h2v-9.125h-2zM415.744 235.688h2v-9.125h-2zM407.212 235.688h2v-9.125h-2z"/><path fill="#DC3F39" d="M409.581 235.688h-2.369l.038-.436 8.126-8.689h2.368v.395l-8.163 8.73"/><path fill="#DC3F39" d="M406.91 235.688h2.369l-.038-.436-8.126-8.689h-2.368v.395l8.163 8.73M415.744 235.688h2v-9.125h-2zM432.811 235.688h2v-9.125h-2zM424.277 235.688h2v-9.125h-2z"/><path fill="#DC3F39" d="M426.646 235.688h-2.369l.038-.436 8.127-8.689h2.369v.395l-8.165 8.73"/><path fill="#DC3F39" d="M423.977 235.688h2.368l-.038-.436-8.126-8.689h-2.368v.395l8.164 8.73M432.811 235.688h2v-9.125h-2zM449.876 235.688h2v-9.125h-2zM441.344 235.688h2v-9.125h-2z"/><path fill="#DC3F39" d="M443.712 235.688h-2.368l.038-.436 8.126-8.689h2.368v.395l-8.164 8.73"/><path fill="#DC3F39" d="M441.042 235.688h2.369l-.038-.436-8.126-8.689h-2.369v.395l8.164 8.73M449.876 235.688h2v-9.125h-2zM466.942 235.688h2v-9.125h-2zM458.409 235.688h2v-9.125h-2z"/><path fill="#DC3F39" d="M460.778 235.688h-2.369l.038-.436 8.127-8.689h2.368v.395l-8.164 8.73"/><path fill="#DC3F39" d="M458.108 235.688h2.369l-.039-.436-8.125-8.689h-2.369v.395l8.164 8.73M466.942 235.688h2v-9.125h-2zM484.008 235.688h2v-9.125h-2zM475.476 235.688h2v-9.125h-2z"/><path fill="#DC3F39" d="M477.844 235.688h-2.368l.038-.436 8.126-8.689h2.368v.395l-8.164 8.73"/><path fill="#DC3F39" d="M475.174 235.688h2.369l-.038-.436-8.127-8.689h-2.368v.395l8.164 8.73M484.008 235.688h2v-9.125h-2zM501.074 235.688h2v-9.125h-2zM492.541 235.688h2v-9.125h-2z"/><path fill="#DC3F39" d="M494.91 235.688h-2.369l.039-.436 8.126-8.689h2.368v.395l-8.164 8.73"/><path fill="#DC3F39" d="M492.24 235.688h2.368l-.038-.436-8.126-8.689h-2.368v.395l8.164 8.73M501.074 235.688h2v-9.125h-2zM518.14 235.688h2v-9.125h-2zM509.607 235.688h2v-9.125h-2z"/><path fill="#DC3F39" d="M511.977 235.688h-2.37l.039-.436 8.125-8.689h2.369v.395l-8.163 8.73"/><path fill="#DC3F39" d="M509.306 235.688h2.369l-.038-.436-8.127-8.689h-2.368v.395l8.164 8.73M518.14 235.688h2v-9.125h-2zM535.206 235.688h2v-9.125h-2zM526.673 235.688h2v-9.125h-2z"/><path fill="#DC3F39" d="M529.042 235.688h-2.369l.038-.436 8.127-8.689h2.368v.395l-8.164 8.73"/><path fill="#DC3F39" d="M526.372 235.688h2.368l-.038-.436-8.126-8.689h-2.368v.395l8.164 8.73M535.206 235.688h2v-9.125h-2zM552.271 235.688h2v-9.125h-2zM543.739 235.688h2v-9.125h-2z"/><path fill="#DC3F39" d="M546.107 235.688h-2.368l.038-.436 8.126-8.689h2.368v.395l-8.164 8.73"/><path fill="#DC3F39" d="M543.438 235.688h2.369l-.038-.436-8.126-8.689h-2.37v.395l8.165 8.73M552.271 235.688h2v-9.125h-2zM569.338 235.688h2v-9.125h-2zM560.805 235.688h2v-9.125h-2z"/><path fill="#DC3F39" d="M563.174 235.688h-2.369l.038-.436 8.127-8.689h2.368v.395l-8.164 8.73"/><path fill="#DC3F39" d="M560.504 235.688h2.368l-.038-.436-8.126-8.689h-2.368v.395l8.164 8.73M569.338 235.688h2v-9.125h-2zM586.403 235.688h2v-9.125h-2zM577.871 235.688h2v-9.125h-2z"/><path fill="#DC3F39" d="M580.239 235.688h-2.368l.038-.436 8.126-8.689h2.368v.395l-8.164 8.73"/><path fill="#DC3F39" d="M577.569 235.688h2.369l-.038-.436-8.127-8.689h-2.368v.395l8.164 8.73M586.403 235.688h2v-9.125h-2zM603.47 235.688h2v-9.125h-2zM594.937 235.688h2v-9.125h-2z"/><path fill="#DC3F39" d="M597.306 235.688h-2.369l.038-.436 8.127-8.689h2.368v.395l-8.164 8.73"/><path fill="#DC3F39" d="M594.636 235.688h2.368l-.038-.436-8.126-8.689h-2.368v.395l8.164 8.73M603.47 235.688h2v-9.125h-2zM620.535 235.688h2v-9.125h-2zM612.003 235.688h2v-9.125h-2z"/><path fill="#DC3F39" d="M614.372 235.688h-2.369l.038-.436 8.126-8.689h2.368v.395l-8.163 8.73"/><path fill="#DC3F39" d="M611.701 235.688h2.369l-.038-.436-8.126-8.689h-2.369v.395l8.164 8.73M347.981 226.563h1v-26.152h-1zM365.047 226.563h1v-19.925h-1zM382.113 226.563h1v-15.398h-1zM399.179 226.563h1v-12.451h-1zM416.244 226.563h1v-11.071h-1zM433.31 226.563h1v-11.071h-1zM450.376 226.563h1v-12.451h-1zM467.441 226.563h1v-15.398h-1zM484.508 226.563h1v-19.924h-1zM501.573 226.563h1V200.41h-1z"/><path d="M425.276 216.49c-110.364 0-200.152-89.788-200.152-200.153h1.5c0 109.537 89.115 198.653 198.652 198.653 109.538 0 198.654-89.116 198.654-198.653h1.5c0 110.365-89.788 200.153-200.154 200.153" fill="#DC3F39"/><path fill="#DC3F39" d="M245.585 226.563h1V103.912h-1zM262.651 226.563h1V132.45h-1zM279.717 226.563h1v-73.407h-1zM296.783 226.563h1v-57.321h-1zM313.849 226.563h1v-44.502h-1zM330.915 226.563h1v-34.254h-1zM518.64 226.563h1v-34.254h-1zM535.705 226.563h1v-44.502h-1zM552.771 226.563h1v-57.318h-1zM569.837 226.563h1v-73.407h-1zM586.902 226.563h1V132.45h-1zM603.969 226.563h1V103.912h-1zM25.726 235.688h2v-9.125h-2zM42.792 235.688h2v-9.125h-2zM34.259 235.688h2v-9.125h-2z"/><path fill="#DC3F39" d="M36.628 235.688h-2.369l.038-.436 8.126-8.689h2.369v.395l-8.164 8.73"/><path fill="#DC3F39" d="M33.957 235.688h2.369l-.038-.436-8.126-8.689h-2.369v.395l8.164 8.73M8.66 235.688h2v-9.125h-2z"/><path fill="#DC3F39" d="M25.726 235.688h2v-9.125h-2zM17.193 235.688h2v-9.125h-2z"/><path fill="#DC3F39" d="M19.561 235.688h-2.368l.038-.436 8.126-8.689h2.369v.395l-8.165 8.73"/><path fill="#DC3F39" d="M16.891 235.688h2.369l-.038-.436-8.126-8.689H8.728v.395l8.163 8.73"/><path fill="#DC3F39" d="M8.659 235.688h2v-9.125h-2zM.126 235.688h2v-9.125h-2z"/><path fill="#DC3F39" d="M2.496 235.688H.126l.039-.436 8.126-8.689h2.368v.395l-8.163 8.73M42.792 235.688h2v-9.125h-2zM59.857 235.688h2v-9.125h-2zM51.325 235.688h2v-9.125h-2z"/><path fill="#DC3F39" d="M53.694 235.688h-2.369l.038-.436 8.126-8.689h2.368v.395l-8.163 8.73"/><path fill="#DC3F39" d="M51.023 235.688h2.369l-.038-.436-8.126-8.689h-2.369v.395l8.164 8.73M59.857 235.688h2v-9.125h-2zM76.923 235.688h2v-9.125h-2zM68.391 235.688h2v-9.125h-2z"/><path fill="#DC3F39" d="M70.76 235.688h-2.369l.038-.436 8.126-8.689h2.368v.395l-8.163 8.73"/><path fill="#DC3F39" d="M68.089 235.688h2.369l-.038-.436-8.126-8.689h-2.369v.395l8.164 8.73M76.923 235.688h2v-9.125h-2zM93.989 235.688h2v-9.125h-2zM85.457 235.688h2v-9.125h-2z"/><path fill="#DC3F39" d="M87.826 235.688h-2.369l.038-.436 8.126-8.689h2.368v.395l-8.163 8.73"/><path fill="#DC3F39" d="M85.155 235.688h2.369l-.038-.436-8.126-8.689h-2.369v.395l8.164 8.73M93.989 235.688h2v-9.125h-2zM111.055 235.688h2v-9.125h-2zM102.522 235.688h2v-9.125h-2z"/><path fill="#DC3F39" d="M104.892 235.688h-2.37l.039-.436 8.126-8.689h2.368v.395l-8.163 8.73"/><path fill="#DC3F39" d="M102.221 235.688h2.369l-.038-.436-8.126-8.689h-2.369v.395l8.164 8.73M111.055 235.688h2v-9.125h-2zM128.121 235.688h2v-9.125h-2zM119.588 235.688h2v-9.125h-2z"/><path fill="#DC3F39" d="M121.958 235.688h-2.37l.038-.436 8.127-8.689h2.368v.395l-8.163 8.73"/><path fill="#DC3F39" d="M119.287 235.688h2.369l-.038-.436-8.126-8.689h-2.369v.395l8.164 8.73M128.121 235.688h2v-9.125h-2zM145.187 235.688h2v-9.125h-2zM136.654 235.688h2v-9.125h-2z"/><path fill="#DC3F39" d="M139.023 235.688h-2.369l.038-.436 8.127-8.689h2.368v.395l-8.164 8.73"/><path fill="#DC3F39" d="M136.353 235.688h2.369l-.038-.436-8.126-8.689h-2.369v.395l8.164 8.73M145.187 235.688h2v-9.125h-2zM162.253 235.688h2v-9.125h-2zM153.72 235.688h2v-9.125h-2z"/><path fill="#DC3F39" d="M156.089 235.688h-2.369l.039-.436 8.126-8.689h2.368v.395l-8.164 8.73"/><path fill="#DC3F39" d="M153.419 235.688h2.369l-.038-.436-8.126-8.689h-2.369v.395l8.164 8.73M162.253 235.688h2v-9.125h-2zM179.319 235.688h2v-9.125h-2zM170.786 235.688h2v-9.125h-2z"/><path fill="#DC3F39" d="M173.155 235.688h-2.369l.039-.436 8.126-8.689h2.368v.395l-8.164 8.73"/><path fill="#DC3F39" d="M170.485 235.688h2.369l-.039-.436-8.126-8.689h-2.368v.395l8.164 8.73M179.319 235.688h2v-9.125h-2zM196.385 235.688h2v-9.125h-2zM187.852 235.688h2v-9.125h-2z"/><path fill="#DC3F39" d="M190.221 235.688h-2.369l.039-.436 8.126-8.689h2.368v.395l-8.164 8.73"/><path fill="#DC3F39" d="M187.551 235.688h2.368l-.038-.436-8.126-8.689h-2.368v.395l8.164 8.73M196.385 235.688h2v-9.125h-2zM213.451 235.688h2v-9.125h-2zM204.918 235.688h2v-9.125h-2z"/><path fill="#DC3F39" d="M207.287 235.688h-2.369l.039-.436 8.126-8.689h2.368v.395l-8.164 8.73"/><path fill="#DC3F39" d="M204.617 235.688h2.368l-.038-.436-8.126-8.689h-2.368v.395l8.164 8.73M9.16 226.563h1v-11.071h-1zM26.226 226.563h1v-11.071h-1zM43.292 226.563h1v-12.451h-1zM60.357 226.563h1v-15.398h-1zM77.423 226.563h1v-19.924h-1zM94.489 226.563h1V200.41h-1zM111.555 226.563h1v-34.254h-1zM128.621 226.563h1v-44.502h-1zM145.687 226.563h1v-57.318h-1zM162.752 226.563h1v-73.407h-1zM179.818 226.563h1V132.45h-1zM196.884 226.563h1V103.912h-1z"/><path d="M216.846 16.337c0 109.537-89.116 198.653-198.653 198.653-5.921 0-11.776-.276-17.566-.786v1.506c5.79.506 11.646.78 17.566.78 110.365 0 200.153-89.788 200.153-200.153h-1.5M652.17 235.688h2v-9.125h-2zM669.236 235.688h2v-9.125h-2zM660.703 235.688h2v-9.125h-2z" fill="#DC3F39"/><path fill="#DC3F39" d="M663.072 235.688h-2.369l.038-.436 8.126-8.689h2.369v.395l-8.164 8.73"/><path fill="#DC3F39" d="M660.401 235.688h2.37l-.039-.436-8.126-8.689h-2.368v.395l8.163 8.73M635.104 235.688h2v-9.125h-2z"/><path fill="#DC3F39" d="M652.17 235.688h2v-9.125h-2zM643.637 235.688h2v-9.125h-2z"/><path fill="#DC3F39" d="M646.006 235.688h-2.369l.039-.436 8.126-8.689h2.368v.395l-8.164 8.73"/><path fill="#DC3F39" d="M643.336 235.688h2.369l-.039-.436-8.126-8.689h-2.368v.395l8.164 8.73M669.236 235.688h2v-9.125h-2zM686.302 235.688h2v-9.125h-2zM677.77 235.688h2v-9.125h-2z"/><path fill="#DC3F39" d="M680.138 235.688h-2.368l.038-.436 8.126-8.689h2.368v.395l-8.164 8.73"/><path fill="#DC3F39" d="M677.468 235.688h2.369l-.039-.436-8.126-8.689h-2.368v.395l8.164 8.73M686.302 235.688h2v-9.125h-2zM703.368 235.688h2v-9.125h-2zM694.835 235.688h2v-9.125h-2z"/><path fill="#DC3F39" d="M697.204 235.688h-2.369l.038-.436 8.126-8.689h2.369v.395l-8.164 8.73"/><path fill="#DC3F39" d="M694.533 235.688h2.369l-.038-.436-8.126-8.689h-2.368v.395l8.163 8.73M703.368 235.688h2v-9.125h-2zM720.434 235.688h2v-9.125h-2zM711.901 235.688h2v-9.125h-2z"/><path fill="#DC3F39" d="M714.27 235.688h-2.369l.038-.436 8.126-8.689h2.369v.395l-8.164 8.73"/><path fill="#DC3F39" d="M711.6 235.688h2.369l-.039-.436-8.126-8.689h-2.368v.395l8.164 8.73M720.434 235.688h2v-9.125h-2zM737.499 235.688h2v-9.125h-2zM728.967 235.688h2v-9.125h-2z"/><path fill="#DC3F39" d="M731.336 235.688h-2.369l.038-.436 8.126-8.689h2.368v.395l-8.163 8.73"/><path fill="#DC3F39" d="M728.665 235.688h2.369l-.038-.436-8.126-8.689h-2.368v.395l8.163 8.73M737.499 235.688h2v-9.125h-2zM754.565 235.688h2v-9.125h-2zM746.032 235.688h2v-9.125h-2z"/><path fill="#DC3F39" d="M748.401 235.688h-2.369l.039-.436 8.126-8.689h2.368v.395l-8.164 8.73"/><path fill="#DC3F39" d="M745.731 235.688h2.369l-.038-.436-8.126-8.689h-2.369v.395l8.164 8.73M754.565 235.688h2v-9.125h-2zM771.632 235.688h2v-9.125h-2zM763.099 235.688h2v-9.125h-2z"/><path fill="#DC3F39" d="M765.468 235.688h-2.369l.038-.436 8.126-8.689h2.369v.395l-8.164 8.73"/><path fill="#DC3F39" d="M762.797 235.688h2.369l-.038-.436-8.126-8.689h-2.369v.395l8.164 8.73M771.632 235.688h2v-9.125h-2zM788.697 235.688h2v-9.125h-2zM780.165 235.688h2v-9.125h-2z"/><path fill="#DC3F39" d="M782.533 235.688h-2.368l.038-.436 8.126-8.689h2.368v.395l-8.164 8.73"/><path fill="#DC3F39" d="M779.863 235.688h2.369l-.039-.436-8.126-8.689h-2.368v.395l8.164 8.73M788.697 235.688h2v-9.125h-2zM805.764 235.688h2v-9.125h-2zM797.23 235.688h2v-9.125h-2z"/><path fill="#DC3F39" d="M799.6 235.688h-2.37l.039-.436 8.126-8.689h2.369v.395l-8.164 8.73"/><path fill="#DC3F39" d="M796.929 235.688h2.369l-.038-.436-8.126-8.689h-2.368v.395l8.163 8.73M755.065 226.563h1v-26.152h-1zM772.131 226.563h1v-19.925h-1zM789.197 226.563h1v-15.398h-1zM806.263 226.563h1v-12.451h-1zM652.67 226.563h1V103.912h-1zM669.735 226.563h1V132.45h-1zM686.802 226.563h1v-73.407h-1zM703.867 226.563h1v-57.321h-1zM720.934 226.563h1v-44.502h-1zM737.999 226.563h1v-34.254h-1z"/><path d="M807.263 213.411c-97.733-12.376-173.555-96.037-173.555-197.074h-1.5c0 101.866 76.493 186.198 175.055 198.583v-1.509M612.484 239.721h32.671v-11.295h-32.671z" fill="#DC3F39"/><path fill="#B99368" d="M612.484 329.717h32.671v-20.209h-32.671z"/><path fill="#DC3F39" d="M615.795 245.369h26.049v-5.648h-26.049zM615.795 309.508h26.049v-13.881h-26.049z"/><path fill="#AB2531" d="M610.276 228.426h37.086v-3.725h-37.086z"/><path fill="#DC3F39" d="M618.886 295.627h19.867v-50.259h-19.867zM618.886 224.701h19.867V159.43h-19.867zM621.535 159.43h14.569v-57.87h-14.569zM623.301 101.56h11.037V54.1h-11.037z"/><path fill="#AB2531" d="M623.301 16.337h11.037v-2.195h-11.037z"/><path fill="#DC3F39" d="M624.681 54.1h8.278V16.337h-8.278zM624.681 14.142h8.278v-3.98h-8.278z"/><path fill="#DC3F39" d="M630.475 10.162h-3.311l1.104-7.502h1.103l1.104 7.502"/><path fill="#B99368" d="M601.695 336.108h54.248v-6.391h-54.248z"/><path fill="#B53935" d="M618.886 247.688h19.867v-2.32h-19.867z"/><path fill="#DC3F39" d="M205.399 239.721h32.671v-11.295h-32.671z"/><path fill="#B99368" d="M205.399 329.717h32.671v-20.209h-32.671z"/><path fill="#DC3F39" d="M208.71 245.369h26.049v-5.648H208.71zM208.71 309.508h26.049v-13.881H208.71z"/><path fill="#AB2531" d="M203.192 228.426h37.086v-3.725h-37.086z"/><path fill="#DC3F39" d="M211.801 295.627h19.867v-50.259h-19.867zM211.801 224.701h19.867V159.43h-19.867zM214.45 159.43h14.57v-57.87h-14.57zM216.216 101.56h11.037V54.1h-11.037z"/><path fill="#AB2531" d="M216.216 16.337h11.037v-2.195h-11.037z"/><path fill="#DC3F39" d="M217.596 54.1h8.278V16.337h-8.278zM217.596 14.142h8.278v-3.98h-8.278z"/><path fill="#DC3F39" d="M223.391 10.162h-3.312l1.104-7.502h1.104l1.104 7.502"/><path fill="#B99368" d="M194.61 336.108h54.249v-6.391H194.61z"/><path fill="#B53935" d="M211.801 247.688h19.867v-2.32h-19.867z"/></g></g></svg>