<svg xmlns="http://www.w3.org/2000/svg" width="599.973" height="188.62" viewBox="0 0 598 188">
  <defs>
  </defs>
  <path fill="current" fill-rule="evenodd" d="M98.122,126h17.26v16.258H98.122V126Zm0,24.387h17.26s0.056,57.712,0,77.21-14.214,18.29-14.214,18.29H90V231.662s8.122,1.3,8.122-4.065v-77.21Zm34.52-.016h18.275v44.71c0,7.021,4.141,11.177,10.153,11.177,6.921,0,14.214-5.222,14.214-13.209V150.371h18.275v68.081H202.7l11.168,47.758L223,218.452s-16.96-1.719-17.26-22.355c-0.3-.3,18.275,0,18.275,0s-1.342,10.285,14.214,10.161c10.73-.051,11.168-6.1,11.168-6.1s2.884-6.123-16.244-8.129c-29.328-4.9-25.383-20.322-25.383-20.322s-1.625-18.6,23.352-21.371h10.153s23.351-2.492,23.351,21.371h-17.26s0.918-9.145-8.122-9.145h-6.091s-6.809,1.257-7.107,6.1c0,7.747,13.572,7.754,20.305,9.146,5.377,0.878,21.321,6.355,21.321,17.274v4.064s-2.177,21.339-25.382,21.339c-1.087,0-19.29,67.049-19.29,67.049H203.711l-10.152-49.775-10.153,49.775H164.115L145.84,219.468s-13.2-1.309-13.2-23.371V150.371ZM176.3,218.452h8.122l-10.153,46.742s-7.91-43.015-9.137-46.742c4.573-.014,11.168-8.129,11.168-8.129v8.129Zm124.879-92.387h-17.26v24.306H273.766v12.194h10.152v44.709A11.881,11.881,0,0,0,296.1,219.468h16.244V205.242h-8.122a2.883,2.883,0,0,1-3.046-3.048V162.565h11.168V150.371H301.178V126.065Zm39.6-.065H322.5v16.242h18.275V126Zm0,24.371H322.5V287.533h18.275V150.371Zm17.26,0v68.081h12.183s-13.589,5.915-15.229,18.29v6.1c0,1.51,1.387,10.6,14.214,14.226,4,0.93,27.413,2.843,27.413,9.145v3.048c0,2.772-2.5,5.081-7.107,5.081h-8.123c-8.626,0-10.152-6.742-10.152-10.161H352.958c0,12.045,8.214,23.387,25.382,23.387h10.152c14.755,0,25.382-9.018,25.382-18.307v-7.112s1.543-8.357-15.229-15.242c-7.653-3.39-25.382-2.262-25.382-9.146V234.71c0-2.787,5.415-4.065,6.092-4.065h7.107c2.529,0,8.122,3.532,8.122,9.146h18.275c0-20.175-21.541-23.371-24.367-23.371h-9.137c-1.782,0-2.16-.832-3.046,0,0-1.949.007-38.216,0-38.613,0-5.909,4.721-15.242,11.168-15.242h6.092s7.107,1.042,7.107,12.193v43.694h18.275V167.645c0-3.773-7.869-17.306-25.306-17.306h-2.107c-6.234,0-16.244,7.084-16.244,8.161,0.149,0,0-8.129,0-8.129h-17.26m30.458,66.049h0Zm38.581-21.339h18.275v29.468s6.478-8.129,15.229-8.129H468.7c9.355,0,23.819,9.54,24.366,32.484v6.161c0,14.276-9.727,32.5-27.366,32.5h-5.123c-6.493,0-15.229-6.843-15.229-7.129v6.1H427.073V195.081Zm73.1,58.048v-3.258c0-15.489,7.266-33.451,30.428-33.451h4.107c18.187,0,29.428,16.047,29.428,34.467v6.178h-46.7s0.814,17.274,15.229,17.274c10.5,0,11.2-8.129,11.2-8.129h19.26c0,3.91-1.216,21.355-30.382,21.355C507.558,287.565,500.173,273.414,500.173,253.129ZM282.9,216.42c1.994,0,27.413,4.331,27.413,29.467v11.178h-46.7c0,3.5,1.266,17.274,15.229,17.274,10.822,0,12.183-8.129,12.183-8.129H309.3c0,7.792-13.535,21.355-27.382,21.355h-5.137c-17.176,0-30.333-17.145-30.428-31.452v-7.242c0-9.667,6.832-32.451,28.428-32.451H282.9Zm9.138,28.451H264.628s-0.426-14.226,13.2-14.226C292.381,230.645,292.041,244.871,292.041,244.871Zm301.538-26.419h-17.26v69.081h18.275v-32.5c0-10.052-2.2-20.323,20.306-20.323V216.42s-13.679-2.8-21.321,12.193V218.452ZM654.5,216.42h-8.122c-15.014-.193-24.367,18.4-24.367,31.5,0,32.894,17.321,39.613,26.367,39.613h2.091c4.96,0,19.26-5.284,19.26-10.146v10.162s-0.039,12.193-15.229,12.193c-9.946,0-11.168-5.262-11.168-7.113H624.037s-1.243,21.339,25.382,21.339h9.138c2.878,0,29.443,1.831,29.443-30.484V218.452H669.725v7.113S663.789,216.42,654.5,216.42Zm0,55.887s-14.214-.645-14.214-20.323,11.776-21.339,14.214-21.339,15.229,1.246,15.229,20.323S658.94,272.307,654.5,272.307ZM459.562,230.645c-0.515,0-15.229-.75-15.229,21.339s12.62,22.355,15.229,22.355,15.229,0.375,15.229-22.355S460.077,230.645,459.562,230.645Zm86.3,14.226H518.448s1.143-14.226,13.2-14.226C544.576,230.645,545.861,244.871,545.861,244.871Z" transform="translate(-90 -126)"/>
</svg>
