<svg width="82" height="460" xmlns="http://www.w3.org/2000/svg" xmlns:xlink="http://www.w3.org/1999/xlink"><defs><path d="M16.32 69.953A39.245 39.245 0 0 1 .18 53.61a39.455 39.455 0 0 0 16.14 16.343m53.06-52.86a37.185 37.185 0 0 0-1.75-2.949l-.06-.105c.65.987 1.25 2.007 1.81 3.054m-5.29-7.585c-.13-.144-.27-.291-.41-.439A39.166 39.166 0 0 0 60.8 6.23c-.1-.086-.19-.172-.29-.259 1.27 1.1 2.465 2.28 3.58 3.537M9.4 5.811l.02-.028A39.07 39.07 0 0 1 16.76.817 39.303 39.303 0 0 0 9.4 5.811m50.5-.353A39.15 39.15 0 0 0 53.11.894a39.062 39.062 0 0 1 6.8 4.564h-.01" id="a"/><path d="M1.64 1.834c-.44 0-.85-.135-1.19-.367C1.51 1.205 2.56.896 3.6.54a2.125 2.125 0 0 1-1.96 1.294" id="c"/></defs><g fill="none" fill-rule="evenodd"><path d="M42.86 450.806c16.69 0 30.31-13.613 30.31-30.305s-13.62-30.306-30.31-30.306c-16.69 0-30.31 13.614-30.31 30.306s13.62 30.305 30.31 30.305" fill="#D7D9D9"/><path d="M42.86 459.64c21.56 0 39.14-17.582 39.14-39.139 0-21.558-17.58-39.139-39.14-39.139-21.56 0-39.14 17.581-39.14 39.139 0 21.557 17.58 39.139 39.14 39.139" fill="#F1EFE2"/><path d="M67.95 390.458c7.46 6.686 8.47 9.966 10.39 14.305.66 1.774.4 1.593.6 2.869.28 1.712.8 2.584.52 3.655-.57 2.136-1.95.65-1.57 2.022.39 1.403-.66 3.55-.54 4.589.33 2.74-.47 3.177-2.31 5.546-1.16 1.476-.54 3.465-.77 4.115-.35.986-1.45 1.862-2.85 2.188-.21.048-.42-.067-.64-.181-.24-.124-.48-.248-.73-.164-.98.331-.93-.232-.72-.794.2-.539.56-1.079.3-.83-.66.636-.82.611-1.17.586-.21-.015-.49-.03-.98.098-.67.178-.91-.12-1.06-.419-.23-.464-.25-.928-1.4.402l-.77-.548c-.91.617-1.44 2.568-.85.105-.54-.481-.66-.259-.89-.038-.16.158-.37.316-.81.218-.79-.672.22-.793-.44-1.156-.51.863-.49.364-.84 1.727l-.65.133.19.676-1.08.432-.34.48c-1.19-.48-.15-1.629-.1-1.807-.27-.214-.34-.092-.56.032-.14.079-.35.158-.71.148-.5 1.589 1.03 1.346-.04 2.208l-.72-.32c-.35-1.281-1.42-.693-1.34.313.02.159.33 1.016.43 1.105.17.145.33.062.48-.021.14-.07.27-.14.41-.072.32.162.25.602.2.881-.15.891.12.754.17 1.392.03.543-.1.411.38.609.2.084.68.504.82.455 1.32-.432.7 1.413.12 1.926-.78.674-.39.048-.78.984-.13.304-.62.92-.3 1.112.49.298.97-.044 1.43.538.44.573.12.781.91 1.022.77.237-.12 1.855-.96 2.126-.79.251-.78-.022-1.53.524-.58.427-.81.141-.43-.316.29-.347.73-.381.74-.908 0-.438.08-.561-.3-.524-1.61.16.13 1.3-1.73 1.213-.7-.033-.47-.359-.61-.683-.15-.326-.73-.779-.12-1.096.22-.116 1.94.119 2.51-.553.58-.683-.84-.74-.91-.895-.19-.38.2-.473-.55-.087-.52.273-.91.493-1.03-.224-.2-1.339-1.53.685-1.76 1.098l-.44.284c-.48.006-1.29.074-1.68-.176-.3-.19-.67-.087-1.05.017-.39.11-.8.219-1.12-.02-.85-.637-.18-1.2-1.28-1.17-1.13.03-1.89-.142-2.54-1.151-1.46-2.275 1.15-1.221.83-3.404-.22-1.49.19-1.272-.91-2.554-.55-.642-1.3-1.955-.36-2.59.85-.57.91-.011.78-1.15-.06-.536.24-2.068.48-2.536.42-.853 2.92-3.034.22-3.414-3.84-.543.19-1.396-1.12-1.889-.49-.187-.8.102-1.17.391-.62.49-1.4.981-3.46-.862-.17-.15-.6-.061-1.05.027-.64.125-1.32.25-1.35-.302-.01-.22.13-2.253.2-2.378.48-.88.7.087.87.454.39.856.9.401 1.45.241.74-.215 1.36-.016 1.85-.935.25-.463.18-1.742-.21-2.12-.54-.524-1.36.571-1.63.816-.49.454-.47-.295-.57-1.045-.09-.648-.26-1.296-.93-1.166-.31.059-.51.966-1.11 1.485-.19.167-2.11 1.653-2.21 1.679-.77.191-1.35-.573-2.1-.932-.9-.432-1.15-.74-1.25-1.739-.12-1.219-2.17-3.378-2.15-4.823.56-.389 1.77-1.304 2.31-1.384 1.5-1.722-.4-1.341 1.57-.942.92-.371.43-.274.44-.177 0 .056.17.114.92.075.09-.098.58.195 1.05.488.48.291.93.582.96.491.13-.423-.31-.27.43-.805l.19.264c-.41.004-.18.227-.18.317.83.378 1.05-.361 1.65-.403-.26 1.166 1.43 1.116 2.35 1.066.45-.025.72-.049.49.07 2.31 1.013 2.82.122 2.98-.769.13-.654.07-1.308.43-1.207 1.27-.845.45-.955.72-2.451.1-.591-.28-1.073.12-1.679 1.23-2.715 3.35-1.002 2.39.019-1.15 1.215-.79 3.25.37 2.424.22-4.614 1.35-4.196 2.18-3.778.5.251.89.502.91-.338.96-2.597 2.07 1.237 3.3 1.263.89.02.21 2.371.14 3.03-.14 1.251 1.31.614 1.59-.082.14-.359.77-1.892.58-2.109-.53-.598-.32-.323.17-.563.43-.206.94-2.634 1.07-3.187 1.08-.183 4.6-2.59 3.77-4.508-1.92-4.445-1-2.77-3.34-4.006-.52-.276-1.06-.872-1.53-1.26-1.39-1.144-2.45-.749-3.9-1.09-.84-.196-2.09-.464-2.66.266-.33.413-1.99-.384-2.4-.419-.15-.013-.06.127-.05.268.01.174-.1.348-.94.23-1.77-.248-3.2-.907-5.15-.752-1.64.131-4.16 1.475-5.43 2.481-1.34 1.072-1.87 4.36-5.09 2.164-.86-.587.46-1.132.9-1.896.34-.581-1.72-.903-2.16-.864-1.13.097-2.59.875-3.52.668-2.06-.464-.62-1.859.6-2.341 1.01-.401 3.47-.474 3.9-.811 1.06-.817-.71-1.551-.87-2.21-.13-.577 1.72-.299 3.26-.022 1.02.182 1.9.364 1.99.304.63-.385.77-.738 1.55-.493.26.081 1.25-.171 2.64-.422 2.45-.442 6.15-.884 9.32.473 1.41.604 2.97.575 4.52.545 1.65-.03 3.28-.062 4.7.681.72.284 3.08 2.892 3.51 1.93.4-.877.63-.621 2.47.676 1.82 1.287.81 1.545 3.08 1.541" fill="#EDE6CA"/><path d="m44.34 409.306.07.311c-.57.445-1.74-.263-2.58-.865-.62-.111-.11 1.98-2.01.586-.99-.721-1.98-.496-.83-1.722-.6.043-.82.78-1.65.403 0-.09-.23-.313.18-.317l-.19-.263c-.37-.315-1.14 1.424-1.94.787l.27-.674-1.16.13c.16-.579.56-.36 1-.541.03-.075-.78-.774-.79-1.454 0-.644-.12-1.272-.15-1.337-1.32-2.865 2.77-1.829 2.8-3.132 2.34-7.052-2.8-1.793-.1-5.753-.14-.623-.29-1.157.39-1.629.49.154.09.51.92.712 3.47-1.215-1.14-2.18 3.32-3.296.69-.171.71-.044 1.48-.357 1.1-.442 3.52-1.597 2.91 1.028.69.596 9.17 14.651 1.24 6.467-.56.157-.48-.514-.74-.481-.31.039-.38.797-.93.512-.2-.104-.62-.898-1.2-1.235-2.51-.762-2.66 2.869-3.26 2.621-.92.965 1.59-.021 1.6 1.435 0 .286-.58 1.011-.56 1.009 1.68-.292 3.71.044 2.45 1.862-.86 1.249-1.49 1.255-2.87 1.593-.83.202-.58.214-.62.625-.11.975-.68.394 1.36 2.103.41.348 1.01.41 1.59.872" fill="#F2EFDB"/><path d="M37.33 407.439c-.91.66.21 1.914-1.75 1.2-1.23.92-.27-.882-2.05-.167-3.13 2.458-.17-.995-3.88 1.22-.49.355-.43.083-.99.2-3.01.631-1.28-.055-.64-.444.36-.213.32.213.81-.384-.05-.809-.08-2.325-.24-3.081-.19-.883-1.19-1.967-.39-2.808l.82.443-.26.445.62.088c.18-.558.36-.46.04-.941.4-.319.47-.311.55-.851l-1.41-.291c-.1.543.13.434-.23.891-.6-.146-1.19-1.319-1.29-1.929-.14-.909-.78-1.049-.41-2.151l.51-.036c1.9.284.83-.761 2.8-1.355 1.21-.374 1.9-.367 2.48.493.35.516 1.18-.07 1.45.342 3.78 5.792-.14 4.318 1.43 5.899 2.95 2.155-2.53-.727 2.03 3.217" fill="#EBE2C2"/><path d="M27.04 401.03c.65 2.26 2.08-.816 3.43.824.21.875-.82 1.577-.63 2.559.13.661-1.33.123-.34 1.788.37.628.27 1.906-.67 2.863-4.03 4.932 3.05 4.526-2.31 9.91-.41.412-2.56 3.118-3.06 3.287-.59.193-.74 1.169-.51 1.655.08.172.24.078.37.088.38.032 1.66 2.011 1.86 2.318 1.16 1.791-1.06 2.106-3.81 4.422-3.05-.383 3.46 1.937-1.04 4.415-.35-.038-.99.03-1.07.467-.11.642.62.679 1.04.896 1.51.789.83.744 1.21 1.906.22.658 1.61 1.309 2.18 1.764.36.29 1.55 4.549-.61 4.247-1.54-.214-1.8-1.357-2.21-2.597-.24-.721-2.35-1.843-3.32-.992-1.1.954-2.32-2.396-2.77-3.357-.56-1.179-1.04-4.487-.65-5.937.86-3.163 1.8 5.255 2.17-.362.11-1.604.18-2.256 1.89-2.74 1.88-.53 2.07-.941 1.85-2.761-.94-7.531-3.13-4.318-4.7-4.386-1.76-.077-.84-3.878-.43-2.851.29.75-.78 1.418-.91 1.776-.64 1.793-.8 5.221-1.56 4.93-1.07-.408-1.67.149-1.47 1.28.25 1.377 1.55 1.358 2 2.363.18.417.2 2.244-.42 2.234-.77-.012-2.4-2.405-2.76-3.06-.99-1.845-.76-2.68-.52-4.541.06-.473-2.4-5.348.84-5.157 3.9.229 4.85-5.332 5.16-7.102.26-1.063-.06-1.357.03-1.982.12-.779 1.14-.665 1.34-1.394.17-.678-.12-1.029.65-1.484 1.82-1.083 1 1.436 1.12 1.842 1.1 3.795 2.42.65 2.44.387.09-1.614.21-3.289.63-4.885.46-1.766 2.17-2.487 2.32-3.363.08-.447.82-2.737 1.6-3.847 1.12-2.089 4.95-1.597 1.65 1.233-.67.577-.18 2.253-.01 3.344" fill="#F2EFDB"/><path d="M52.05 445.537c.46.201-.06.426.91.636 1.07.233 1.33 1.793-.03 1.827-.2.006-.46.04-.77.195-3.97 1.993-3.4 3.139-3.24 3.311.28.297 1.16 1.483 1 1.851-.34.782-.81.296-1.24-.191-.33-.378-.64-.756-.86-.539 0 .009.34 3.325 1.54 3.197.82-.088.56-.489 1.45-.643.91-.159.74.143 1.43.648.46.331.09-.45.76-.744.78-.336 1.78-.232 2.41-.834.58-.56 1.6-1.091 3.52-.603.66.168 1.19.033 1.62-.101.36-.108.65-.216.9-.167.66 1.057 1.28.179 2.75-.067-12.18 8.082-27.54 7.919-38.73 2.26.87.014 1.04.368 1.64.433.32.034.54 0 .76-.035.32-.052.62-.103 1.19.08 2.74.884 3.85.607 5.27.324 4.96-.987.74-.668 6.7-1.457.18-.024.38.015.6.055.6.107 1.28.215 1.73-.95.19-.513 1.13-.693 1.54-.135 1.44 1.921 2.57.927 2.49-.068-.06-.913-1.15-1.827-3.95-.481-.7.335-.9-.107-1.35-.595-.64-.699-.15-.509.13-1.02.17-.302-.72-.829-1.21-.216-.23.284-.64 1.488-1.51.496-1.25-1.408.79-.496-1.22-1.21-1.53-.545.24-2.077-1.81-2.759-.32-.577-.49-1.16.32-1.23.88-.077.71.316 1.28.551.36.15 2.04-.164.11-1.06-.7-.323-.61-.806.02-1.028.34-.123 2.12-.181 2.33-.466.46-.65.41-2.007.21-2.466-.22-.518.29-1.157-.7-1.499-.35-.121-2.02-.581-1.35.332.43.585 1.43 1.217.11 1.211-1.81-.008-1.28-.503-1.23-.664.24-.838-.52-.752-1.06-1.279-.45-.441 2.65-.743 1.91-2.484-1.08-2.549 1.8.106 2.17.355 2.27 1.321.65 2.177 1.95 2.508.71.181 2.48.063 4.47.803.96.354.86 1.033.95 2.336.07 1.111.57.052 4.09 1.582" fill="#FFF"/><path d="M62.18 416.857c-.08-.058-.57-.414-.65-.311-.17.239.16.494.13.878-.02.228-.22.13-.46.433-.19.859 1.26 2.083-1.35 2.115-1.44 1.789-.06 3.969.8 5.286.52.79-.11 1.936-1.07 1.877-1.06-.066-2.12-1.948-1.89-2.529 0-.001 1.18-1.533.19-2.362-.04-.028-.57-1.738-3-.544-.76.378-.3 2.357-.39 3.115.02 1.977-5.25 7.334-5.42 4.089-.06-1.142 1.06-6.729 1.49-7.934.69-1.928 4.7-3.088 2.58-4.352-1.16-.693-1.14-.123-1.88.048-1.68.386-.24-3.359-2.58.08-.85 1.242-3.56.121-2.42-2.659.13-.326-.02-.76-.06-1.111-.18-1.483.4-1.865 1.64-2.315.87-.316 1.33-2.281 1.81-2.645 2.32-1.789 3.24-.457 4.35 1.019 3.14 1.817 1.6-1.324 3.92-1.844 8.13-1.388 4.04 3.831 3.93 4.092-.23.545-1.76.419-1.89.593-.24.347-.85.305-.84 1.137.01.722.63.405.22.906-.39.471.2.702.17 1.005-.03.22-.7-.163-1-.156-1.88.044-1.65 1.51-.35 1.029.33-.123 2.16.711 3.25-.155.1-.442-.32-.624-.33-.654-.03-.14.62.053.7.052.1-.003.17-.039.23-.095.14-.149.17-.438.31-.631.29-.404.61-.255.85-.469.25-.227.25-1.185 1.32-1.672.97-.438.2.878 1.18 1.534.38.262.87-.239.79.332-.09.545.31.683.4 1.114.99 4.619-2.78 3.212-4.68 1.704" fill="#EBE2C2"/><path d="M57.97 403.95c.18 2.476-2.89 3.678-2.6 1.316.07-.659.75-3.01-.14-3.03-.06-.001-5.06-1.505-3.96.622.98 1.694-.79 2.204-.9.882-.23-2.79-1.1-2.205-.8 1.021.06.585-.28.684-.73 1.001-2.37 1.686-.3-6.889-2.76-3.116-.4.606-.02 1.088-.12 1.679-.27 1.496.55 1.606-.72 2.45-.96.64.67 2.934-.9 2.531-.58-.462-1.18-.524-1.59-.872-.67-.561-2.68-2.256-.74-2.728 1.38-.338 2.01-.344 2.87-1.593 1.26-1.818-.77-2.154-2.45-1.862-.02.002.56-.723.56-1.009-.01-1.456-2.52-.47-1.6-1.435.29-.302.96-3.952 3.26-2.621 1.94.534 2.91-2.018 1.33-3.358-.54-.466.48-1.133.3-1.905.18-.795-1.58-.567.51-1.949.46-.656 1.65.231 2.94.551 1.4.345 1.18 1.008 2.43 1.587 1.37-1.176 1.32-1.052 3.22-.583 1.12.279.93 1.261 1.85 2.09.93.829 2.2 1.311 2.4 1.549 3.74 4.347-2.04 3.355-1.66 8.782" fill="#EBE2C2"/><path d="M63.48 418.973c1.28-.122.32-.662.71-1.594.26-.615 2.27-1.284 2.07-2.226-.13-.602-.07-1.09-.59-1.446-4.91-3.304.15 3.234-4.26 1.935-1.09.866-2.92.032-3.25.155-1.3.481-1.53-.985.35-1.029 2.44-.058-3.07-5.926 2.36-3.485.49.223.27-.184.11-.625-.26-.699-.8-.181-1.2-.519-1.59-1.343 2.19-2.978 2.16-3.349-.35-2.751 2.49.57.81-2.16-.17-.279-.1-.861-.38-1.277-1.06 1.351-2.29.554-2.82-.975-.19-.522.18-.886-.91-.975l-.27-.363c.44-.02 1.23-.305 1.64-.026.34.232.81.936 1.49.983.14.011 1.58-.066 2.24-.035 1.17.055-1.27-1.201-1.83-1.255-.5-.051-1.35-.171-.9-.921.54-.897 2.22.155 3.39-.356.4-.175.93-1.341 1.54-.988.55.315.36.698 1.37.771 1.64.12 2.62.994 3.04 2.709.56 2.29-1.19 1.717-.56 2.612 1.04-.041.41.575.64.82.4.436.87.762 1.6.871.74.11.17 1.292.04 1.649-1.25 1.479-.94-.661-1.7.454-.53.781-1.05 3.035-1.32 3.512-.76.834-1.03.231-1.72.809-.6.508.17.969-.08 1.488-.21.427-.76.505.3.608 1.38.134 3.68 2.685 2.03 2.663-.81-.012-1.67-.621-2.45-.08-.61.424-.56 1.294-1.09 1.67-1.97 1.409-3.93 1.03-2.56-.025" fill="#F2EFDB"/><path d="M78.44 436.835c-3.3 7.193-8.07 12.202-13.61 16.059 0 .002-1.81.256-.94-1.39.65-1.245-.74-.779-1.52-.631-1.18.224-1.36-.305-1.4-1.253-.12-3.647 4.44-2.8 3.93-3.934-.61-1.338-3.96-.026-1.98-2.608.94-1.217 1.64-.771 2.36.264.7 1.021 1.13.923 1.84.825.25-.035.55-.07.91-.053.7.034 1.71.542 2.05-.42.41-1.163.2-3.375.07-3.704-.37-.893.09-.687.51-1.41.56-.987-.33-.915.48-2.027.45-.623 1.03.423 1.26.832 1.49 2.642 2.91.693 4.01-1.256 1.29-2.309 2.12-4.618 2.03.706m-13.42-8.39c.05.737-.26.802-.71 1.179-.66.56-.17.751-.08 1.273.1.533-.41 1.084-.32 1.662.26 1.611 2.17-.792 3.03 1.368.41 1.014 1.46 1.092.44 2.234-.38.427-.73.471-.52.838.54.974-.56 1.77-1.12 2.024-1.46.664-1.54-1.051-3.28-1.313-1.21-.71-2.83 1.158-4.05 1.295-2.4.272 1.98-2.621 2.18-2.883 3.51-4.629-3.19-1.849-2.71-4.652.32-1.847-.22.604-1.47-.735l.72.32c1.19-.963-2.61-1.53.88-2.638.4-.128.92-.187 1.27-.187.6.002 1.14.267 1.2-.147.13-.91.52-1.18 1.03-1.272 2.62-.477 3.03 1.162 3.51 1.634m-59.2-14.929c-.77-3.304.57-3.704 1.02-6.365.68-3.99 3.7-1.672 3.66 1.208-.01.5 0 .331-.27.672-.98 1.268.63 2.558-1.78 4.146-.05.034-1.95 3.266-2.63.339" fill="#EBE2C2" fill-rule="nonzero"/><g transform="translate(8 385)"><mask id="b" fill="#fff"><use xlink:href="#a"/></mask><path d="M16.32 69.953A39.245 39.245 0 0 1 .18 53.61a39.455 39.455 0 0 0 16.14 16.343m53.06-52.86a37.185 37.185 0 0 0-1.75-2.949l-.06-.105c.65.987 1.25 2.007 1.81 3.054m-5.29-7.585c-.13-.144-.27-.291-.41-.439A39.166 39.166 0 0 0 60.8 6.23c-.1-.086-.19-.172-.29-.259 1.27 1.1 2.465 2.28 3.58 3.537M9.4 5.811l.02-.028A39.07 39.07 0 0 1 16.76.817 39.303 39.303 0 0 0 9.4 5.811m50.5-.353A39.15 39.15 0 0 0 53.11.894a39.062 39.062 0 0 1 6.8 4.564h-.01" mask="url(#b)"/></g><g transform="translate(52 457)"><mask id="d" fill="#fff"><use xlink:href="#c"/></mask><path d="M1.64 1.834c-.44 0-.85-.135-1.19-.367C1.51 1.205 2.56.896 3.6.54a2.125 2.125 0 0 1-1.96 1.294" mask="url(#d)"/></g><path d="M62.19 453.889c-.27 0-.5-.13-.74-.509a.636.636 0 0 0-.13-.012c-.22 0-.47.088-.76.177l1.35-2.621c.13-.001.29-.018.46-.051.37-.069.87-.209 1.23-.209.41 0 .63.179.29.84-.67 1.255.23 1.406.69 1.406.08 0 .15-.005.2-.009-.22.144-.43.284-.64.424-.91.165-1.49.564-1.95.564m2.08-7.549.46-.896c.07.07.13.15.17.242.15.336-.14.498-.63.654m4.97-2.062c-.4 0-.85-.146-1.21-.164a5.181 5.181 0 0 0-.91.053c-.21.029-.4.058-.57.058-.32 0-.61-.097-.95-.467l7.67-14.885c.48-.378.83-.833 1-1.314.06-.165.06-.417.06-.725l6.99-13.582c.45 2.35.68 4.774.68 7.249 0 5.806-1.28 11.324-3.56 16.288.04-2.361-.11-3.2-.4-3.2-.35 0-.92 1.27-1.63 2.54-.72 1.27-1.57 2.54-2.49 2.54-.49 0-1-.364-1.52-1.284-.18-.319-.57-1.025-.95-1.025-.11 0-.21.056-.31.193-.81 1.112.08 1.04-.48 2.027-.42.723-.88.517-.51 1.41.13.329.34 2.541-.07 3.704-.16.461-.48.584-.84.584" fill="#F2F0E4" fill-rule="nonzero"/><path d="m73.27 428.873 1.06-2.039c0 .308 0 .56-.06.725-.17.481-.52.936-1 1.314" fill="#EEE7CD"/><path d="m59.25 456.077 1.31-2.532c.29-.089.54-.177.76-.177.04 0 .09.003.13.012.24.379.47.509.74.509.46 0 1.04-.399 1.95-.564l.01-.002.05-.01a36.701 36.701 0 0 1-4.95 2.764" fill="#FFF"/><path d="M64.58 452.91c-.46 0-1.36-.151-.69-1.406.34-.661.12-.84-.29-.84-.36 0-.86.14-1.23.209-.17.033-.33.05-.46.051l2.36-4.584c.49-.156.78-.318.63-.654a.79.79 0 0 0-.17-.242l.87-1.686c.34.37.63.467.95.467.17 0 .36-.029.57-.058.301-.044.606-.062.91-.053.36.018.81.164 1.21.164.36 0 .68-.123.84-.584.41-1.163.2-3.375.07-3.704-.37-.893.09-.687.51-1.41.56-.987-.33-.915.48-2.027.1-.137.2-.193.31-.193.38 0 .77.706.95 1.025.52.92 1.03 1.284 1.52 1.284.92 0 1.77-1.27 2.49-2.54.71-1.27 1.28-2.54 1.63-2.54.29 0 .44.839.4 3.2v.046c-3.3 7.193-8.07 12.202-13.61 16.059 0 .001-.01.003-.05.006v.001a2.47 2.47 0 0 1-.2.009" fill="#ECE4C6"/><path d="M6.29 406.576a37.772 37.772 0 0 1 1.79-3.994c2.33-4.5 5.51-8.495 9.32-11.771L6.29 406.576" fill="#F2F0E4"/><g><path d="M40.821 80.614c22.133 0 40.184-18.052 40.184-40.184C81.005 18.297 62.954.245 40.821.245 18.689.245.636 18.297.636 40.43c0 22.132 18.053 40.184 40.185 40.184" fill="#FFFFBE"/><path d="M40.821 80.614c-4.74 0-9.292-.828-13.52-2.346l36.48-70.787C74.18 14.756 81.005 26.822 81.005 40.43c0 22.132-18.051 40.184-40.184 40.184" fill="#FFC"/></g></g></svg>