<svg xmlns="http://www.w3.org/2000/svg" width="599.973" height="188.62" viewBox="0 0 598 188"><path d="M98.122 126h17.26v16.258h-17.26V126Zm0 24.387h17.26s.056 57.712 0 77.21-14.214 18.29-14.214 18.29H90v-14.225s8.122 1.3 8.122-4.065v-77.21Zm34.52-.016h18.275v44.71c0 7.021 4.141 11.177 10.153 11.177 6.921 0 14.214-5.222 14.214-13.209v-42.678h18.275v68.081h9.141l11.168 47.758L223 218.452s-16.96-1.719-17.26-22.355c-.3-.3 18.275 0 18.275 0s-1.342 10.285 14.214 10.161c10.73-.051 11.168-6.1 11.168-6.1s2.884-6.123-16.245-8.129c-29.327-4.9-25.382-20.322-25.382-20.322s-1.625-18.6 23.352-21.371h10.153s23.351-2.492 23.351 21.371h-17.26s.918-9.145-8.122-9.145h-6.092s-6.808 1.257-7.106 6.1c0 7.747 13.572 7.754 20.305 9.146 5.377.878 21.321 6.355 21.321 17.274v4.064s-2.177 21.339-25.382 21.339c-1.087 0-19.29 67.049-19.29 67.049h-19.289l-10.152-49.775-10.153 49.775h-19.291l-18.275-68.066s-13.2-1.309-13.2-23.371v-45.726Zm43.658 68.081h8.122l-10.153 46.742s-7.91-43.015-9.137-46.742c4.573-.014 11.168-8.129 11.168-8.129v8.129Zm124.879-92.387h-17.26v24.306h-10.153v12.194h10.153v44.709a11.881 11.881 0 0 0 12.181 12.194h16.244v-14.226h-8.122a2.883 2.883 0 0 1-3.046-3.048v-39.629h11.168v-12.194h-11.166v-24.306Zm39.6-.065H322.5v16.242h18.275V126Zm0 24.371H322.5v137.162h18.275V150.371Zm17.26 0v68.081h12.183s-13.589 5.915-15.229 18.29v6.1c0 1.51 1.387 10.6 14.214 14.226 4 .93 27.413 2.843 27.413 9.145v3.048c0 2.772-2.5 5.081-7.107 5.081h-8.123c-8.626 0-10.152-6.742-10.152-10.161h-18.28c0 12.045 8.214 23.387 25.382 23.387h10.152c14.755 0 25.382-9.018 25.382-18.307v-7.112s1.543-8.357-15.229-15.242c-7.653-3.39-25.382-2.262-25.382-9.146v-3.051c0-2.787 5.415-4.065 6.092-4.065h7.107c2.529 0 8.122 3.532 8.122 9.146h18.275c0-20.175-21.541-23.371-24.367-23.371h-9.137c-1.782 0-2.16-.832-3.046 0 0-1.949.007-38.216 0-38.613 0-5.909 4.721-15.242 11.168-15.242h6.092s7.107 1.042 7.107 12.193v43.694h18.275v-50.807c0-3.773-7.869-17.306-25.306-17.306h-2.107c-6.234 0-16.244 7.084-16.244 8.161.149 0 0-8.129 0-8.129h-17.26m30.458 66.049Zm38.581-21.339h18.275v29.468s6.478-8.129 15.229-8.129h8.123c9.356 0 23.895 10.7 24.367 30.484v10.161c0 5.044-9.727 30.5-27.367 30.5h-5.122c-6.493 0-15.229-6.843-15.229-7.129v6.1h-18.276v-91.455ZM528.6 287.565s-28.428-2.66-28.428-26.436v-16.258c0-9.205 10.63-28.451 28.428-28.451h7.107c15.907 0 28.428 14.945 28.428 29.467v11.178h-46.7s.814 17.274 15.229 17.274c10.5 0 13.2-8.129 13.2-8.129h17.26c0 3.91-7.942 21.355-25.382 21.355H528.6ZM282.9 216.42c1.994 0 27.413 4.331 27.413 29.467v11.178h-46.7c0 3.5 1.266 17.274 15.229 17.274 10.822 0 12.183-8.129 12.183-8.129H309.3c0 7.792-13.536 21.355-27.382 21.355h-5.138c-17.176 0-30.333-17.145-30.428-31.452v-7.242c0-9.667 9.829-32.451 28.428-32.451h8.12Zm9.138 28.451h-27.41s-.426-14.226 13.2-14.226c14.553 0 14.213 14.226 14.213 14.226Zm301.538-26.419h-17.26v69.081h18.275v-32.5c0-10.052-2.2-20.323 20.306-20.323v-18.29s-13.679-2.8-21.321 12.193v-10.161Zm60.924-2.032h-8.122c-15.014-.193-24.367 18.4-24.367 31.5 0 32.894 17.321 39.613 26.367 39.613h2.091c4.96 0 19.26-5.284 19.26-10.145v10.161s-.039 12.193-15.229 12.193c-9.946 0-11.168-5.262-11.168-7.113h-19.295s-1.243 21.339 25.382 21.339h9.138c2.878 0 29.443 1.831 29.443-30.484v-65.032h-18.275v7.113s-5.936-9.145-15.225-9.145Zm0 55.887s-14.214-.645-14.214-20.323 11.776-21.339 14.214-21.339 15.229 1.246 15.229 20.323-10.789 21.339-15.229 21.339Zm-194.938-41.662c-.515 0-15.229-.75-15.229 21.339s12.62 22.355 15.229 22.355 15.229.375 15.229-22.355-14.714-21.339-15.229-21.339Zm86.3 14.226h-27.414s1.143-14.226 13.2-14.226c12.928 0 14.213 14.226 14.213 14.226Z" transform="translate(-90 -126)" style="fill-rule:evenodd"/></svg>