<svg data-name="—ÎÓÈ_1" xmlns="http://www.w3.org/2000/svg" xmlns:xlink="http://www.w3.org/1999/xlink" viewBox="0 0 4808.65 1452.23"><defs><linearGradient id="d" x1="2910.55" y1="1799.47" x2="2910.55" y2="654.37" gradientUnits="userSpaceOnUse"><stop offset="0" stop-color="gray"/><stop offset=".29" stop-color="#a9a9a9"/><stop offset=".77" stop-color="#e7e7e7"/><stop offset="1" stop-color="#fff"/></linearGradient><linearGradient id="n" x1="2942.76" y1="1957.17" x2="2942.76" y2="654.37" gradientUnits="userSpaceOnUse"><stop offset="0" stop-color="#131313"/><stop offset=".24" stop-color="#171717"/><stop offset=".45" stop-color="#212121"/><stop offset=".66" stop-color="#343433"/><stop offset=".86" stop-color="#4d4d4d"/><stop offset="1" stop-color="#656564"/></linearGradient><linearGradient id="o" x1="3003.86" y1="1957.17" x2="3003.86" y2="1280.93" gradientUnits="userSpaceOnUse"><stop offset="0" stop-color="#1d1e1b"/><stop offset="1" stop-color="#e3e2e1"/></linearGradient><linearGradient id="q" x1="2910.55" y1="1799.47" x2="2910.55" y2="654.37" gradientUnits="userSpaceOnUse"><stop offset="0" stop-color="#fff"/><stop offset="1" stop-color="#fff"/></linearGradient><linearGradient id="r" x1="2571.05" y1="1065.11" x2="2571.05" y2="728.33" gradientUnits="userSpaceOnUse"><stop offset="0" stop-color="#656565"/><stop offset="1" stop-color="#8a8989"/></linearGradient><linearGradient id="s" x1="1830.45" y1="923.02" x2="3699.64" y2="923.02" gradientUnits="userSpaceOnUse"><stop offset="0" stop-color="#010101"/><stop offset="1" stop-color="#282929"/></linearGradient><linearGradient id="g" x1="2691.32" y1="995.01" x2="2691.32" y2="751.47" gradientUnits="userSpaceOnUse"><stop offset="0" stop-color="#fff"/><stop offset="1" stop-color="#282929"/></linearGradient><linearGradient id="e" x1="2261.69" y1="934.38" x2="3479.4" y2="934.38" gradientUnits="userSpaceOnUse"><stop offset="0" stop-color="#141414"/><stop offset=".24" stop-color="#181818"/><stop offset=".46" stop-color="#222"/><stop offset=".66" stop-color="#353535"/><stop offset=".86" stop-color="#4e4e4e"/><stop offset="1" stop-color="#656565"/></linearGradient><linearGradient id="t" x1="3403.71" y1="1055.33" x2="3403.71" y2="964.22" xlink:href="#e"/><linearGradient id="u" x1="5017.5" y1="1380.77" x2="5174.04" y2="1380.77" xlink:href="#e"/><linearGradient id="v" x1="5116.21" y1="1388.5" x2="5246.89" y2="1388.5" xlink:href="#e"/><linearGradient id="f" x1="5079.94" y1="1455.46" x2="5079.94" y2="1302.81" gradientUnits="userSpaceOnUse"><stop offset="0" stop-color="#797879"/><stop offset="1" stop-color="#474647"/></linearGradient><linearGradient id="w" x1="5165.65" y1="1452.5" x2="5165.65" y2="1307.14" xlink:href="#f"/><linearGradient id="x" x1="5266.93" y1="1793.71" x2="5266.93" y2="1672.34" xlink:href="#f"/><linearGradient id="y" x1="5076.52" y1="1423.85" x2="5076.52" y2="1307.31" xlink:href="#g"/><linearGradient id="z" x1="5266.55" y1="1789.22" x2="5266.55" y2="1705.49" xlink:href="#g"/><linearGradient id="A" x1="5156.43" y1="1402.45" x2="5156.43" y2="1316.45" xlink:href="#g"/><linearGradient id="h" x1="2495.89" y1="1860.13" x2="2495.89" y2="1799.28" gradientUnits="userSpaceOnUse"><stop offset="0" stop-color="#333233"/><stop offset="1" stop-color="#e3e3e2"/></linearGradient><linearGradient id="B" x1="2791.16" y1="1122.59" x2="2791.16" y2="728.58" xlink:href="#h"/><linearGradient id="C" x1="3007.24" y1="1766.46" x2="3007.83" y2="1732.6" xlink:href="#h"/><linearGradient id="D" x1="731.36" y1="1367.14" x2="731.36" y2="1136.22" gradientUnits="userSpaceOnUse"><stop offset="0" stop-color="#660224"/><stop offset=".99" stop-color="#360600"/></linearGradient><linearGradient id="E" x1="733.02" y1="1299.1" x2="733.02" y2="1137.82" gradientUnits="userSpaceOnUse"><stop offset="0" stop-color="#5b83c2"/><stop offset=".43" stop-color="#a8bedf"/><stop offset=".82" stop-color="#e7edf6"/><stop offset="1" stop-color="#fff"/></linearGradient><linearGradient id="j" x1="4477.45" y1="2012.59" x2="4477.45" y2="1448.95" gradientUnits="userSpaceOnUse"><stop offset="0" stop-color="#aaaaa9"/><stop offset="1" stop-color="#dedede"/></linearGradient><linearGradient id="i" x1="4474.26" y1="1467.06" x2="4474.26" y2="1994.48" gradientUnits="userSpaceOnUse"><stop offset="0" stop-color="#3d3d3d"/><stop offset=".18" stop-color="#414141"/><stop offset=".33" stop-color="#4b4b4b"/><stop offset=".49" stop-color="#5e5e5e"/><stop offset=".63" stop-color="#787878"/><stop offset=".78" stop-color="#999"/><stop offset=".92" stop-color="#c1c1c1"/><stop offset="1" stop-color="#dcdcdc"/></linearGradient><linearGradient id="F" x1="4470.73" y1="1488.39" x2="4470.73" y2="1973.15" xlink:href="#i"/><linearGradient id="k" x1="4470.73" y1="1969.48" x2="4470.73" y2="1492.06" gradientUnits="userSpaceOnUse"><stop offset="0" stop-color="#3d3d3d"/><stop offset="1" stop-color="#dedede"/></linearGradient><linearGradient id="l" x1="4475.27" y1="1550.46" x2="4475.27" y2="1835.1" gradientTransform="rotate(9.56 4243.56 1684.344)" gradientUnits="userSpaceOnUse"><stop offset="0" stop-color="#1e1e1c"/><stop offset=".2" stop-color="#212120"/><stop offset=".38" stop-color="#2c2c2a"/><stop offset=".55" stop-color="#3e3e3d"/><stop offset=".71" stop-color="#585857"/><stop offset=".87" stop-color="#787877"/><stop offset="1" stop-color="#979797"/></linearGradient><linearGradient id="G" x1="4480.19" y1="1722.01" x2="4470.35" y2="1663.56" gradientTransform="rotate(9.56 4243.56 1684.344)" xlink:href="#i"/><linearGradient id="H" x1="4449.83" y1="1721.1" x2="4449.83" y2="1736.91" gradientTransform="rotate(9.56 4243.56 1684.344)" xlink:href="#e"/><linearGradient id="I" x1="4450.04" y1="1721.76" x2="4450.04" y2="1730.28" gradientTransform="rotate(9.56 4243.56 1684.344)" xlink:href="#j"/><linearGradient id="J" x1="4502.52" y1="1720.94" x2="4502.52" y2="1736.75" gradientTransform="rotate(90.44 4476.073 1744.305)" xlink:href="#e"/><linearGradient id="K" x1="4502.74" y1="1721.6" x2="4502.74" y2="1730.12" gradientTransform="rotate(9.56 4243.56 1684.344)" xlink:href="#j"/><linearGradient id="L" x1="4518.72" y1="1670.02" x2="4518.72" y2="1685.82" gradientTransform="rotate(9.56 4243.56 1684.344)" xlink:href="#e"/><linearGradient id="M" x1="4518.94" y1="1670.68" x2="4518.94" y2="1679.2" gradientTransform="rotate(9.56 4243.56 1684.344)" xlink:href="#j"/><linearGradient id="N" x1="4432.69" y1="1671.5" x2="4432.69" y2="1687.31" gradientTransform="rotate(9.56 4243.56 1684.344)" xlink:href="#e"/><linearGradient id="O" x1="4432.91" y1="1672.16" x2="4432.91" y2="1680.68" gradientTransform="rotate(9.56 4243.56 1684.344)" xlink:href="#j"/><linearGradient id="P" x1="4475.27" y1="1639.65" x2="4475.27" y2="1655.46" gradientTransform="rotate(9.56 4243.56 1684.344)" xlink:href="#e"/><linearGradient id="Q" x1="4475.49" y1="1640.31" x2="4475.49" y2="1648.83" gradientTransform="rotate(9.56 4243.56 1684.344)" xlink:href="#j"/><linearGradient id="m" x1="4472.32" y1="2089.28" x2="4472.32" y2="1405.47" gradientUnits="userSpaceOnUse"><stop offset="0" stop-color="#141414"/><stop offset=".6" stop-color="#181818"/><stop offset="1" stop-color="#1f1f1f"/></linearGradient><linearGradient id="R" x1="1556.43" y1="2012.59" x2="1556.43" y2="1448.95" xlink:href="#j"/><linearGradient id="S" x1="1563.27" y1="1467.06" x2="1563.27" y2="1994.48" xlink:href="#i"/><linearGradient id="T" x1="1570.51" y1="1482.92" x2="1570.51" y2="1978.62" xlink:href="#i"/><linearGradient id="U" x1="1570.51" y1="1972.57" x2="1570.51" y2="1488.97" xlink:href="#k"/><linearGradient id="V" x1="1616.14" y1="1922.54" x2="1581.96" y2="2207.1" gradientTransform="rotate(-6.85 -1206.3 2137.237)" xlink:href="#l"/><linearGradient id="W" x1="1595.52" y1="2094.24" x2="1602.58" y2="2035.4" gradientTransform="rotate(45.85 1979.796 1863.867)" xlink:href="#i"/><linearGradient id="X" x1="1573.61" y1="2093.13" x2="1573.61" y2="2108.94" gradientTransform="rotate(-6.85 -1206.3 2137.237)" xlink:href="#e"/><linearGradient id="Y" x1="1573.82" y1="2093.79" x2="1573.82" y2="2102.31" gradientTransform="rotate(-6.85 -1206.3 2137.237)" xlink:href="#j"/><linearGradient id="Z" x1="1626.3" y1="2092.98" x2="1626.3" y2="2108.78" gradientTransform="rotate(-6.85 -1206.3 2137.237)" xlink:href="#e"/><linearGradient id="aa" x1="1626.52" y1="2093.64" x2="1626.52" y2="2102.15" gradientTransform="rotate(-6.85 -1206.3 2137.237)" xlink:href="#j"/><linearGradient id="ab" x1="1642.5" y1="2042.06" x2="1642.5" y2="2057.86" gradientTransform="rotate(22.9 2464.387 1804.259)" xlink:href="#e"/><linearGradient id="ac" x1="1642.72" y1="2042.72" x2="1642.72" y2="2051.23" gradientTransform="rotate(-6.85 -1206.3 2137.237)" xlink:href="#j"/><linearGradient id="ad" x1="1556.47" y1="2043.54" x2="1556.47" y2="2059.34" gradientTransform="rotate(-6.85 -1206.3 2137.237)" xlink:href="#e"/><linearGradient id="ae" x1="1556.69" y1="2044.2" x2="1556.69" y2="2052.71" gradientTransform="rotate(-6.85 -1206.3 2137.237)" xlink:href="#j"/><linearGradient id="af" x1="1599.05" y1="2011.69" x2="1599.05" y2="2027.49" gradientTransform="rotate(-6.85 -1206.3 2137.237)" xlink:href="#e"/><linearGradient id="ag" x1="1599.27" y1="2012.35" x2="1599.27" y2="2020.87" gradientTransform="rotate(-6.85 -1206.3 2137.237)" xlink:href="#j"/><linearGradient id="ah" x1="1203.02" y1="1747.71" x2="1920.04" y2="1747.71" xlink:href="#m"/><filter id="a" x="538.43" y="-9542" width="4744.23" height="32766" filterUnits="userSpaceOnUse" color-interpolation-filters="sRGB"><feFlood flood-color="#fff" result="bg"/><feBlend in="SourceGraphic" in2="bg"/></filter><filter id="b" x="538.43" y="654.37" width="4744.23" height="1145.1" filterUnits="userSpaceOnUse" color-interpolation-filters="sRGB"><feFlood flood-color="#fff" result="bg"/><feBlend in="SourceGraphic" in2="bg"/></filter><mask id="c" x="538.43" y="-9542" width="4744.23" height="32766" maskUnits="userSpaceOnUse"/><mask id="p" x="0" y="0" width="4744.23" height="1145.1" maskUnits="userSpaceOnUse"><g style="filter:url(#b)"><g style="mask:url(#c)" transform="translate(-538.43 -654.37)"><path d="M1095.28 1610.22c-13.41-2.82-350.06-51.22-382.59-56.47-34.22-5.53-30.79-8.2 0-4.23 156.36 20.11 301.42 29.4 360.74 38.47 27.03 4.13 35.26 25.06 21.85 22.23Zm-376.72-493.94-.13.22c18.5-27.7 60.41-48 108-54.13 6.58-.85 11.27-1.53 9.32-2.62-.51-.28-1-.56-1.49-.85-.47.31-1.69.53-5 .15-17.88-2.12-78.12 17.92-102.82 3.41-13.12-7.7-28.24-24.12-18.35-31.89-3.06 12.61 17.64 21 44.47 21.18 22.15.2 52-5.55 61.71-7.55-8.76-10.15.6-15.22 22-13.23-5.77-1.59-18.18-2-53.72-1.34-35.8.7-51.89-16-80.12-10.58-3.86.73-6.49 2.25-8.19 4.31-5.6 17 16.49 38.29 28.19 50.19 17.91 18.2.38 35.97-3.87 42.73Zm-7.63-45s-11.29 30.35-9.18 43.06a44.39 44.39 0 0 1 7.15 10.21c7.26-12.71 11.25-21.1 11.21-29.09-.06-10.46 2.29-12-9.18-24.18Zm523.9 341.93c85.88-85 201.52-131.8 325.63-131.8 89.72 0 172.13 24 241.92 66.85 0 0-88.75-82.86-235.92-82.86-231.03 0-331.63 147.81-331.63 147.81Zm834.57-252.46c-11.65-42.53-89.68-82.31-3.18-62.16 111 25.84 142 31 291.36 39.54 2.66-22 10-43.58 30.48-67.46a1.68 1.68 0 0 0-1.17-2.76c-170.19-10.89-296.6-21.58-409.52-32.77-117.11-11.6-137.4-44-174-91-26.51-34-25.68-71.41 51.34-95.7 200.41-63.2 520-124 843.66-124 101.11 0 202.6 5.93 301 19.57 207.89 28.82 408.88 122.21 560 211.08q3.08 1.68 5.94 3.5c23.93 14.17 46.54 28.19 67.7 41.79 95.13 56.88 200.32 112 259.83 124.72 53.3 2.52 108.64 5.06 108.26 4.7-16.24-15.21-33-28.91-50.45-40.29-18.55-3-37.6-6.47-58.31-10.48-112.94-21.89-368.47-188.58-582.71-269.65s-448-135.53-939.43-89.3C1830.45 788.22 1306.78 967.44 1122.81 1018S739.16 1120 928 1080.1s512.12-55.41 690.35-36 311.9 63.61 30 58.88c-261.18-4.39-523.76 17-720.35 57.77-62.14 12.88-122.94 29.82-31.18 13.82s520.35-88.92 933.64-34.11c96.45 12.79 211.77 60.47 251.66 134.47-15-35.88-44.47-48.45-53-75.58s51.93 3.93 40.28-38.6Zm-41.29-437.47c398.11-75.18 822.92-82.94 1198.24 13.6a41 41 0 0 1 14.11-5.31c6.16-1.19 11.31-2.51 15.33-3.68q-12.69-4-24.86-7.43c-262.59-74.83-741.18-96-1194.35-11.3-78.4 14.66-156.52 31-233.69 48.51-1.06 3.85-.61 8.37-.11 12.8a5817.275 5817.275 0 0 1 225.33-47.19Zm1978.55 401.24a12.24 12.24 0 0 0 8 3.13c296.81 5 568.82 32.28 767.94 65.59h.05s-307.2-59.85-510.49-73.62c-155-10.49-228.72-15.86-305-27.51a473 473 0 0 1 39.5 32.41Zm7.45-61.53c-12.91.93-32.65 1.46-51.52 1.75 0 0 70.52 17 209.63 27.38 150.36 11.28 541.06 50.57 882.24 123.87a367 367 0 0 1 43 11.67c-9.39-23.92-40.53-41.54-61-50.9-262.16-69.34-693.93-108.42-1021.26-136.54-13.67-1.17-31.8 3-44.4 6.54a4.37 4.37 0 0 0 3.28.46c10.2-2.59 23.49-5.22 35.48-5.23 40.08-.05 36.19 18.7 4.55 21.01ZM827.35 1050.8l309.73-93.13a20.23 20.23 0 0 1-3.49-19.41c-108.79 33.08-208.89 64.85-297 92.79-21.66-.05-18.31 10.57-9.24 19.75Zm2669.93 121.42c-27 1.37-49.2 10.21-63.36 11.58-11.41 1.1-23.63 2-36 2.72 165 7.4 320.85 14.57 446.55 21-6.34-21.18-15.62-43.69-29-60.37-89.5-2.73-185.48-5.44-285-8a18.57 18.57 0 0 1 .16 4.47c-.73 10.01-9.37 27.38-33.35 28.6ZM1138.11 957.36l27.41-8.24c5.91-1.78 12-3.61 18.13-5.49a20.76 20.76 0 0 1-6.8-18.46q-21.24 6.39-42 12.72a19.13 19.13 0 0 0 3.26 19.47Zm-451.89 418.69c9.18-3.93 14.36-8.91.89-4.42s-45 7.25-50.3-7.18c-18.35-50.11-5.35-86.11 28.24-158 18.36-39.31 33.14-63.28 42.74-80-1.55-3.91-3.52-8.93-6.49-11.26-66 131.44-89.14 207.43-67.31 249.21a606.14 606.14 0 0 0-58.59 23.07s-26.82 70.23-17.65 138.35c-24.7 11.65-23.64 16.59-8.47 93.88-2.82-14.12 4-17.41 14.83-4.94s80 117.88 80 117.88-105.32-174.15-91.06-172.23c12.23 1.64 8.23-19.77 23.29-12.71s18.35 6.35 8.71-8-9.65-71.06 10-132.21c2.06-6.43-2.91-9-10-13.91 16.7 2.88 66.11-2.53 101.17-17.53Zm3165.2-141.21c-299.43 4.41-605.86 8.76-1018.61 11.73-191.64 1.39-295.37 3.47-130.23 6.12l1154.63 18.55c-.06-.53-.11-1.07-.16-1.61a344.56 344.56 0 0 0-5.63-34.79Zm837.39 78.33c-53.25-32-91.57-40.06-68-45 45.41-9.41 292.28 17.59 271.06 5.83-140.47-77.83-336-87.71-542.82-104.65-81.44-6.67-277-14.43-523.05-22 11.69 17.31 20.07 39.63 25.93 60.43 242.06 12.33 368.67 21.61 226.06 23.67-73.77 1.06-146.46 2.14-219.52 3.21 4.12 19.86 5.64 34.2 5.64 34.2.06.81.13 1.62.19 2.43l595.62 9.57c62.21 0 121.57 11.09 176.44 33a433.21 433.21 0 0 1 137.27 87.36c.09.07 8.88 0 23.93-.18-33.4-35.67-74.23-67.14-108.75-87.87Zm254.24 272.7c26.82.7-34.94-23.53-107.65-136.94a331.33 331.33 0 0 0-34.53-44.28l-23.37.29 2.44 2.37c41.32 40.5 74.36 88.89 98.22 143.81a495 495 0 0 1 18.66 50.27c5.83-15.85 19.4-16.23 46.23-15.52Zm257.29-286.12c-3.53-21.06-34.58-82.67-93.18-102.12-19.66-6.52-40.8-12.81-63.22-18.86 20.77 9.6 48.55 26.2 57.05 49 .16.43.3.85.45 1.27 55.62 20.32 70.26 49 103 93.73 40.43 55.29 78.25 161.14 78.25 161.14-15.78-47.59-46.54-125.8-82.35-184.16Zm-285.88 309.88c13.88 1.18 205 6.83 205 6.83s-154.38-12.24-200-13.41c-7.35-.19-18.88 5.41-5 6.58Zm-2276.82-406.7c8 .38 10.65-8.52-3.53-10.24-29.58-3.58-102.55-12.56-171.63-9.38.18 4.62-.22 12.26-.3 19.52 41.75-1.76 108.5-3.12 175.46.1Zm-212.11-16.59c-15.89 2-21.52 20.59-3.31 18.82 5.51-.53 18.33-1.38 36.27-2.17.47-6.83 1.38-13.84.69-19.31v-.21c-11.45.59-22.72 1.53-33.65 2.87Zm905.1-42.84a209 209 0 0 1 24-8.89c-270.56-6.58-553.26-12.29-792.86-16 292.24-1.19 710.72 8.34 628.71-1.41s-195.29-17.72-267.34-21.14c-213.29-9.43-381.66-18.35-521-27.14a14.66 14.66 0 0 0-12.2 5.21c-18.92 22.61-27 43.18-30.46 64.14 12.5.72 25.82 1.45 40.09 2.23 207.57 11.26 559.26 26.5 892.23 41.32-17.21-7.82 9.79-25.17 38.83-38.32Zm-843.23 640c-74.84.47-211.53 8.11-341.76-8.12-43.74-5.45-78-11.44-31.42-1.77 55.78 11.58 144.84 27.8 205.18 25.65 41.86-1.49 94.59-8.23 172.71-9.65s70.13-6.56-4.71-6.09Zm-91.53-98.12c-85.42.07-63.91 17-141.88 14.93l324.64 8.81c-3.69-4.77-8.51-10.84-14.08-17.45-62.33-3.84-116.27-6.31-168.68-6.27Zm188.91 23.9 671.51 18.22c-338.94-9.19-536.91-26.14-686.31-35.5 5.61 6.54 10.78 12.59 14.8 17.3Z" style="mix-blend-mode:multiply;fill:url(#d)"/></g></g></mask></defs><circle cx="3717.19" cy="1048.23" r="358.36"/><circle cx="1272.78" cy="1048.23" r="358.36"/><path d="m4788.03 1046.56 10-2.6a4.57 4.57 0 0 0 3.43-4.65c-1-20.42-6.05-119.32-14-154.28a10.49 10.49 0 0 0-7.9-7.93c-7-1.61-15.6-3.48-15.6-3.48a62.23 62.23 0 0 1-13.65-24.47c-12.59-42.77-47.18-136.47-88.47-203.77-3.53-21.06-34.58-82.67-93.18-102.12-248.82-82.58-733.17-126.58-1092-157.41-23.21-2-59.29 11.3-59.29 11.3l1.24.7c19.68 7.47-2.28 10.8-39.54 12.54l-16.32.35s-49.14-9.59-160.32-64.42c-70.12-34.58-252.59-151.76-498.71-237.88-28.72-10-21.35-25.41 2.47-31.06 5.41-1.28 9.46-2.43 12.49-3.42q-13.42-4.22-26.25-7.87c-262.59-74.83-741.18-96-1194.35-11.3-78.77 14.73-157.26 31.16-234.78 48.76-1 4.12-.44 8.91 0 13.21.77 6.77 1.44 12.61-3.64 14-37.27 9.89-74.85 19.74-111.19 29.27-163.27 42.81-317.49 83.25-465.89 131.5-23 7.49-33.92.4-38.36-4.5a19.66 19.66 0 0 1-4.86-16.51c-126 37.89-241.36 74.5-341.33 106.2-5.65-1.65-17.89-2.12-54-1.42-35.8.7-51.89-16-80.12-10.58s8.47 52.23 8.47 52.23-11.29 30.35-9.18 43.06c-66.35 132-89.64 208.23-67.76 250.11a606.14 606.14 0 0 0-58.59 23.07S10.03 803.42 19.2 871.54c-24.7 11.65-23.64 16.59-8.47 93.88-2.59 14-1.23 36.62 14 64.24h-9.77c-22.59 0 1.78 98.81 18.36 99.72l107.88 5.89q5.38 3.14 11 6.27c103.43 59 358.6 93.79 426.66 101.55a9.61 9.61 0 0 0 10.71-9.5s69.1-48.64 205.34-48.64 523.76 32.82 569.64 32.82 53.42 29.53 76 43.18a37.08 37.08 0 0 0 13.86 4.56 11.19 11.19 0 0 0 11.51 10.94c73.26-2 428.87-11.44 654.63-7 252.71 4.94 597.18 12.63 800.48 16.94 183.27 3.88 497 26.77 557 31.24a9.54 9.54 0 0 0 10.25-9.36c0-1.62 0-3.42.09-5.37 22.91-15.81 98.38-59.69 230.33-59.69h279.18c202 0 205.29 50 272.59 50 21.17 0 20.7 9.65 33.88 9.65 8.67 0 21.91-.82 30-1.38a8.31 8.31 0 0 0 5.8 2.27c60.23-.5 353.47-5.72 458.91-39.87a13.66 13.66 0 0 0 9.47-13.21c-1.28-87.69-20.5-204.11-20.5-204.11Zm-3217-691.29c-40.87-4.33-69.11-12.21-88.85-24.82-17.77-11.34-28.5-26.14-42.09-44.87l-3.8-5.24c-8.56-11.71-11.72-21.71-9.42-29.71 3.39-11.88 19.49-23.22 45.34-31.92 75.18-25.31 166.06-48.47 260.09-66.42l97.27 226.15c-101.09-7.6-183.38-15.22-258.57-23.17Zm295.93 25.91-106-234.19q10-1.79 20.11-3.5 9.08-1.53 18.16-3l94.79 242.6c-9.23-.63-18.22-1.27-27.09-1.91Zm247.75 15.63c-6.05-47.37-19.7-133.24-40.89-153.07-13.19-12.34-34.49-20.82-55.38-22.09-33.27-12.44-77-8.29-88.26 29.38-7.25 24.15-14.15 63.12-19.32 96.67l-86.9-211.07c48.26-7.31 96.72-13.19 144.57-17.54 67.28-6.11 133.75-9.21 197.55-9.21 87.11 0 170.26 5.77 247.14 17.15 72.3 10.7 149.14 32.58 228.39 65q44 18 89 40.33l35.14 80.79c-22.15 0-45.87 2.51-59.62 8.17-25.09 10.34-35.75 62.62-34.19 79.16 1.27 13.32 36.13 18.79 81.45 20.41a77.36 77.36 0 0 0 17.85 5.91c-275.27-10.71-486.98-20.52-656.56-29.99Zm687.34-83.61-26.7-57.69q24.6 13.25 49.28 27.64l12.82 26.79a243.44 243.44 0 0 0-35.43 3.26Zm175.34 120.9c-2.95-11.21-6.84-21.85-9.91-25.56 13.41-4.18 19.52-10.29 20.75-17q3.48 2.6 6.93 5.2c19.53 14.75 36.48 28.24 50.3 39.69Z"/><path d="M710.93 1071.28s-36.71-46.82-8.47-52.23 44.32 11.28 80.12 10.58c35.54-.69 47.95-.25 53.72 1.34-30.52-2.83-36.54 8.67-.55 28.78 2 1.09-2.74 1.77-9.32 2.62-52.16 6.76-97.5 30.44-112.68 62.29-1.41 3-2.26 5.7-2.94 3.91-1-2.64-5-10.31-9.06-14.23-2.11-12.71 9.18-43.06 9.18-43.06ZM1326.49 1405c-112.59 72.92-187.76 199.73-196 355.13-1.57 29.53-3.8 71.88-4.4 119.66a8.83 8.83 0 0 1-9.76 8.69c-66.3-7-320.53-37.2-424.44-96.49-3-1.69-6-3.37-9-5-21.72-27.81-67.26-87.79-109.4-154-16.44-25.83-20.24-17.41-17.88-7.53-7.35 7-5.57 27.8 2.63 46.44-10.34-22-11.24-40-9-52.09-15.17-77.29-16.23-82.23 8.47-93.88-9.17-68.12 17.65-138.35 17.65-138.35a606.14 606.14 0 0 1 58.64-23.13c-21.83-41.78 1.31-117.77 67.31-249.21 4.6 3.6 6.81 13.68 8.75 16 .91 1.1 2.42.34 3.78-.78-1.73 2.35-3.46 4.78-5.2 7.32-29.22 42.86-73.67 130-77.61 175.31-3.87 44.52 13.31 53.64 14 54 0 0 9.66 2.89 16.57 2.89s14.32-1.11 19.5-3.33c14.72-6.29 27.73-14.08 39.76-27.74a18.84 18.84 0 0 1 13-6.33c9.77-.6 24.75-1.16 36.7-.06 19.45 1.8 295 27.18 376 35.18s121 16.47 121 16.47 30.6 9.34 58.06 16.06a2.6 2.6 0 0 1 .87 4.77Zm-253.68 175.69c23.06 2.83 38.12 25.88 38.12 25.88s-8.87-28.07-35.29-30.58-396.71-37.18-431.53-50.83c32.94 18.84 405.64 52.71 428.7 55.53Zm-88.24 185.1c2.82-43.25 15.41-126.74 18.35-137.43s-2.94-9.54-4.58-2.44-13.12 83.71-17.3 98.71S951 1747 950 1756.37s19.39 9.42 34.57 9.42Zm-29.94-143.24c2.94-10.7-2.94-9.54-4.59-2.44s-13.11 83.71-17.29 98.71-115.39 16.34-103.75 24.46c7.77 5.42 92.09 16.7 107.26 16.7 2.84-43.25 15.43-126.74 18.37-137.43Zm78.24 149.92c2.82-43.75 15.41-128.2 18.35-139s-2.94-9.64-4.59-2.47-13.11 84.69-17.29 99.86-30 22.58-31.06 32.11 19.41 9.5 34.59 9.5Zm48.29 7.52c2.83-43.77 15.42-128.24 18.36-139.06s-2.94-9.65-4.59-2.47-13.11 84.7-17.29 99.88-30 22.59-31.06 32.12 19.42 9.54 34.58 9.54Zm34 69.88c0-13.18-10-8.87-28-3.53-33.41 9.88-147.52 14.82-356-49.65-30.28-9.36-15.76-2.8 5.18 6.59 97.95 43.94 303.53 72.47 371.77 75.29 7.05.3 7.05-15.52 7.05-28.7Zm3997.28-557.06c3.15 5.32 4.6 5.7 5.91 5.13a6.56 6.56 0 0 1 .94-.51l.16-.1c6.51-2.71 18.28 2.48 32.91 14.69 24.13 20.14 48.37 51.63 66.86 81.81a2.3 2.3 0 0 0 1.89 1 10.32 10.32 0 0 1 5 2.11c-27.83-42.43-66.73-93-104-109.88-12.07-5.48-22.3-9.77-30.57-13 11.59 6.8 17.71 13.37 20.9 18.75ZM839.16 1060c1.45.85 1.21 1.72.4 2.47 72.72-19.24 145.4-37.52 211.46-57.31 89-26.66 94.4-37.91 94.57-39.9.07-.7-.33-1.26-1.21-1.71-10.79-5.49-13.86-16.92-10.79-25.28-108.79 33.08-208.89 64.85-297 92.79-29.93-.13-12.1 20.28 2.57 28.94Zm3084.28 7.51c28.64 11.25 56.1 32.66 83.22 57a12.24 12.24 0 0 0 8 3.13c511.43 8.68 949.34 83.36 1067.34 141.3 3.64 1.35 7.68 2.87 12 4.54a5.35 5.35 0 0 0 4.84-2.67c2.38-4.24 6.7-18.58-.47-40.71-8.15-25.16-40.72-43.67-61.92-53.34-262.16-69.34-693.93-108.42-1021.26-136.54-13.67-1.17-31.8 3-44.4 6.54a4.37 4.37 0 0 0 3.28.46c10.2-2.59 23.49-5.22 35.48-5.23 40.12 0 36.23 18.7 4.59 21-21.9 1.58-63.5 2-87.06 2.09-3.99.01-5.82 1.56-3.64 2.42Zm-1604.11 759.43a59.21 59.21 0 0 0-37.43-17.28c-42.2-2.88-115.52-5.9-167.21-14.85-108.7-18.82-122.35 26.82-123.29 7.29s-3.94-64.74-3.94-64.74l-1.49-16.93a9 9 0 0 1 2.17-6.74 8 8 0 0 1 6.18-2.78l592.83 12.6c1.17 0 .6-2.57-.82-4.13-.15-.19-10.83-15.07-25.66-32.24q-1.14-1.32-2.4-2.91a10.13 10.13 0 0 0-7.43-3.81c-41.25-2.11-75.59-3.59-100.62-4.2-175.06-4.23-196.23 24.11-263.32 22.29l-94.08-2.56a90 90 0 0 1-84.54-66.28q-5.17-19.17-11.7-37.57c-22.31-63-56.06-118.89-98.82-165.29A578.33 578.33 0 0 1 2036.52 1611c15.45 32.36 31.82 72.32 94.64 68.09s91.77-26.83 364.73-19.77c12.5.32 26.53.73 41.91 1.22a2.29 2.29 0 0 0 2-3.49c-24.92-40.26-61.85-110.18-96.59-188.31-32.55-73.3-87.21-208.74-87.13-292.74v-.14c0-36.29.06-67.94 32-105.16a1.69 1.69 0 0 0-1.19-2.78c-170.16-10.89-296.56-21.58-409.48-32.77-117.11-11.6-137.4-44-174-91-26.51-34-25.68-71.41 51.34-95.7 200.41-63.2 520-124 843.66-124 101.11 0 202.6 5.93 301 19.57 358.41 49.69 696.36 291.31 793.59 370.77a28.2 28.2 0 0 0 16.47 6.32c45.83 2.22 192.31 9.28 191.69 8.7-27.87-26.09-57.14-47.83-89.26-60.79l-11.73-1.72s-46.59-8.5-160.47-65.21c-66.7-33.2-281.42-163.05-498.83-237.7-34.43-11.82-22.23-28.59-.35-32.83 6.16-1.19 11.31-2.51 15.33-3.68q-12.69-4-24.86-7.43c-262.59-74.83-741.18-96-1194.35-11.3-78.4 14.66-156.52 31-233.69 48.51-1.11 4-.57 8.74-.05 13.35.8 6.93 1.54 13.47-4.37 15-37.27 9.88-74.85 19.74-111.2 29.27-163.25 42.8-317.46 83.24-465.83 131.48a60.27 60.27 0 0 1-18.55 3.31c-11.35 0-17.69-4.59-20.86-8.09a20.71 20.71 0 0 1-5.18-16.86q-21.24 6.39-42 12.72c-3.37 8-.56 19.37 10 24.76a2.68 2.68 0 0 1 1.76 2.69c-.71 7.87-36.33 23.11-95.28 40.77-67.39 20.22-221.39 59.73-224.23 60.41-57.8 13.75-86.93 26.79-117.7 71.92-29.16 42.77-73.52 129.61-77.46 174.82-2.85 32.77 6 46.13 10.71 50.82-5.75-7.74-12.09-27.57-7.64-49.32 5.31-26 53.2-117.34 101.63-158.75 18.63-15.93 43.14-24 65.55-21.57 10.68 1.15 19.17 4.62 22.7 9.29 8.4 11.09 12.78 20.84-7.42 45.45-19 23.15-54.12 76.17-77.71 121.44a163.28 163.28 0 0 1-10.39 17.43 1.57 1.57 0 0 0 1.44 2.46 237.48 237.48 0 0 1 40.77-.46c23.76 2 288.42 26.51 375 34.46s124.59 16.45 124.59 16.45 28 7.63 60.41 13.91a23.57 23.57 0 0 0 16.07-2.64c62.32-35.24 134.73-54.77 212.79-54.77 233.71 0 412.25 174.64 426 417.17 2.74 48.4 5.41 100.33 6.59 152.48a9.39 9.39 0 0 0 9.65 9.19c23-.65 78.28-2.14 150.21-3.69 155.24-11.55 453.32-13.74 461.78-21 7.56-6.56-246.73-16.74-295.4-64.62Zm2898.18-322.19c1.8-.68 3.95-2 3.95-4.76 0-7.73-.94-25.71-9.6-25.71h-16.93c-3.69 0-6 1.07-7 3.17-2.43 5.33 3.62 16 8.71 21.88 4.93 5.67 15.09 7.57 20.87 5.42Zm-39.62 341.07c-5.24 19.58-10.27 38.47-14 52.54l91.05.2a5.85 5.85 0 0 0 5.83-5.16c1.34-11.27 4.09-38.36 1.8-55.23a5 5 0 0 0-5.14-4.32c-11.48.45-39.1 1-65.53 1.16a14.57 14.57 0 0 0-14.01 10.81Zm169.19 59.18a13.63 13.63 0 0 1-9.49 13.2c-104.84 33.77-394.26 35.7-456.27 35.71a9.24 9.24 0 0 1-9.18-10.4c8.62-67.9 11.68-136.47 8.2-198.09-7.53-133.62-63.83-244-151.73-316.17a4.08 4.08 0 0 1 1.2-7l47.69-17.29s149.33-1.85 275.08-3.32a11 11 0 0 1 8.81 4.22 242.88 242.88 0 0 0 23.22 25.73c28.29 26.88 53.28 41.71 69.89 41.71a23.81 23.81 0 0 0 5.39-.59c6.49-1.53 11.13-5.89 13.78-13 5.29-14.1-1.49-36-12.59-58.15a.81.81 0 0 1 .71-1.17 5.13 5.13 0 0 1 4.4 2.36c16.35 25.64 32.74 48.11 45.34 60.31 12 11.6 21 17.33 27.27 17.33a8.19 8.19 0 0 0 4.76-1.41c9-6.16 3.42-30.48-.43-39.58a338.89 338.89 0 0 0-19.93-38.93c-.26-.42-.14-.57.35-.56h.07a9.33 9.33 0 0 1 7.19 4.28c5.28 8.24 10.11 16.07 14.35 23.15 12.31 20.5 20.24 34.65 20.24 34.65s-13.78-26.75-34.85-59.74a1.06 1.06 0 0 1 .16.24 16.25 16.25 0 0 0-1.68-2.62c-28-43.56-67.49-99.76-105.51-117.12-6.41-2.93-12.78-5.63-19.1-8.2a2.76 2.76 0 0 1-1.49-3.68s7.25-18.36-1.94-43.06c-8.5-22.84-36.28-39.44-57.05-49 22.42 6 43.56 12.34 63.22 18.86 58.6 19.45 89.65 81.06 93.18 102.12 41.29 67.3 75.88 161 88.47 203.77a62.23 62.23 0 0 0 13.65 24.47s8.6 1.87 15.6 3.48a10.46 10.46 0 0 1 7.89 7.87c7.92 34.92 13 133.94 14 154.35a4.56 4.56 0 0 1-3.42 4.64l-10.05 2.6s19.2 116.38 20.6 204.03Zm-152.3-403.12c4.23 4.81 11.73 7.24 18.11 7.24a19 19 0 0 0 6.41-1c3.59-1.32 5.57-3.77 5.57-6.92 0-10.79-3.7-28.9-14.41-28.9h-15.88c-4.81 0-8 1.52-9.36 4.53-3.15 6.74 4.19 18.93 9.56 25.03Zm-289.85 100.48s8.14-8.15 34.22-6.41 291.9 19.47 323.74 21.47 24 .08-4.75-1.88-285.48-20-319.35-21.81-33.86 8.61-33.86 8.61Zm14.65 33.82c19.74 0 78.06.5 107.11 6.65 19.73 4.18 27.06 13.18 27.06 13.18s-8.22-11.78-26.35-15.42c-37.36-7.49-93.54-9.49-114.35-10a6.25 6.25 0 0 0-6.24 7.67 561 561 0 0 1 13.47 95.59c2 36.39 4.05 75.69 4.8 116.14a3.13 3.13 0 0 0 3.22 3.07l93.1-2.84c43.41-1.32 36.12-2.7-2.71-2.47-33.21.2-76.25 1.26-88 1.57a3.13 3.13 0 0 1-3.2-3c-1.55-38.23-2.31-132.78-14.17-203.46a6.26 6.26 0 0 1 6.26-6.7Zm132.7 202.77c18.53-7.41 26.22-.86 26.22-.86 5 3.47 12 3.78 13.14-.84 4-16.36-11.53-106.31-42.36-167.29-6.69-13.25-12.58-19.06-25.85-22.18a1.71 1.71 0 0 0-1.67 2.8 37 37 0 0 1 5.5 9.47 5.73 5.73 0 0 0 .25.62q.27.66.51 1.32c1.39 4.69-4.11 4.9-2 11.43 12.17 38.29 27.62 112.59 27 155.47-.11 7.32-11.36 7.76-11.36 4.2a2.44 2.44 0 0 0-.05-.51c.94-24.76-11.44-107.74-34.43-165.31-5.28-13.24-9.94-19.16-20.22-22.37a1.71 1.71 0 0 0-1.93 2.58c5.38 8 7.24 21.21 7.24 21.21l12.07 64.78c8.86 51.65 16.21 97 5.57 101.12-10.89 4.22-15.13 2.6-14.75-2.17a7.84 7.84 0 0 0 0-.94c.46-26-9.83-107.47-28.71-164.21-4.3-12.94-8.11-18.89-16.28-22.15a1.72 1.72 0 0 0-2.15 2.41c4.46 8 6 21.16 6 21.16l20.5 132c5.54 35.71-12 39.74-34.64 42.48-8.75 1.06-12.75 4.22-5.06 2.71 19.18-3.77 48.38-7 56.43-3.57h.06c4.23 2 9.62 1.34 13 .14 11.83-4.24 21.24-7.59 26.52-4.26a10.85 10.85 0 0 0 4.16 2.22H5035.31c7.54 2.09 12.16.44 16.97-1.48ZM5316.63 1736c8.3 9.88 14.77 27.76 22.18 82.35-2.47-22.59-8.35-79.77-16.35-116.71-7.43-34.28-12.38-60.81-26.72-106.9a1.44 1.44 0 0 0-2.82.49 370.47 370.47 0 0 1-1.77 59.18 8.54 8.54 0 0 1-8.06 7.49c-14.74.73-40.57 2.61-51.22 7.16-19.29 8.23-26.82 28.59-32.71 54.23-17.26 75.19-39.23 147.54-48.91 178.34a16.62 16.62 0 0 1-15.66 11.62c-85.78.91-138.88 10.2-245.31 13.33-11.56.34-7.64 5.18 3.3 5.18 129.88 0 197.17 2.82 275.76 0s59.41-17.29 98.82-24 68.71-20.7 71.53-27.29-46.47-24.59-55.53-40.47 23.71-22 29.65-24.94 4.71-7.3 4.71-7.3-2.94 4.53-10.94 7c-26.06 8-71.53 13.32-124.78 16.44v-.06a10.12 10.12 0 0 1 8.61-7.43c21.64-2.47 69.55-8.07 84.5-10.77 19.53-3.53 30.23-6.36 36.47-13.41 1.73-2 5.76-.24 9.65 4-3.3-11.89-29.65-10.36-28-17.18s5.8-11.87 1.41-22.35c-10.33-24.72 13.9-37.9 22.19-28Zm-543-334.73c.33.32 152.54-2 279.1-3.92a1.15 1.15 0 0 0 .91-1.82c-25-34.85-41.7-74.26-36.8-92.82 1.44-5.48 4.81-9 9.74-10.15 18.29-4.3 37.87 3.34 51.07 10.5 15.71 8.53 31.27 21.3 41.61 34.17a401.83 401.83 0 0 1 37.84 56.72 3.34 3.34 0 0 0 3 1.75.92.92 0 0 0 .79-1.39c-15.95-25.68-31.48-53.67-43-77.31-2.92-6-3.8-11.22-2.65-14.9-1.4-6.3-7.37-19.45-32.53-29.63-180-72.83-573.07-132.53-1077-140.44l1.19.07-198.42-4.26 1.78 1.57c42.94 36.12 53.89 139.53 53.89 139.53.25 3 .48 5.9.72 8.85l476.34 9.16c5.85.11 6.93 8.42 1.28 10-77.89 21.71-149.38 65-208 127.12 37.42-47 80.89-92.3 132-116.76a4.62 4.62 0 0 0-1.85-8.78l-399.26-14.72c12 152.06 10.66 296.65-10.25 430.36a3.89 3.89 0 0 0 3.76 4.49c93.4 2.24 99.29-16 114.69-49.48 35.65-77.51 71.37-131.85 102.24-169.57a538.74 538.74 0 0 0-62.8 139.9q-3.47 12-6.41 24.25a105.83 105.83 0 0 1-105.72 81.24s-44.88-1.31-47.48-1.29-1.95 6.66-.15 6.7l168.18 3.58a8.06 8.06 0 0 1 5.88 2.8 9.08 9.08 0 0 1 2.15 6.45l-.85 14.74c-.49 8.3-6.93 14.69-14.73 14.69h-.29l-159.67-3.26c-2.28 0-10.18 13.69-12.91 21.82a3.4 3.4 0 0 0 3.2 4.48c81.06.55 143.49.85 175.16 1a10.79 10.79 0 0 0 10.82-10.44c.35-10.48.71-19.53 1.06-26.25 13.09-247.67 196.24-443.11 428.66-443.11 93.79 0 178.11 27 246.25 75.2a26.38 26.38 0 0 0 23.69 3.45c19.77-6.69 43.44-14.62 43.78-14.3Zm476.47 275.08c-8.48 8.12-11.42 10.47-18.29 15.18-13.81 9.45-24.42 22.82-22.3 46.58 1.07 12 12.39 2.05 29.36 6.94a4 4 0 0 0 5-3.75c.05-4.56.27-9.34.69-14.29 1.8-21.25 6.53-39.65 12.2-50 5.24-7.73-2.9-4.27-6.65-.67Zm-2609.6-484.81c-23.57-7.5-82.7-12.56-137.45-12.56-13.5 0-26.73.31-39.1 1a1.66 1.66 0 0 0-1.57 1.82c.56 6.48-.83 22.76.12 32.42a3.57 3.57 0 0 0 3.85 3.19c4.36-.34 7.13-.65 7.24-.66.35-.08 45.14-9.14 161.09-5 6.63.26 12.36-2.31 13.38-8.14s-1.82-10.26-7.55-12.08Zm1217.33 86.11-332.74-6.4 333.32 12.29c14.35 149.62 12.53 293.57-10.13 430.24a5.2 5.2 0 0 1-5.35 4.34c-73-3.16-960-46.23-1291.68-57.17a8.19 8.19 0 0 1-6.67-3.83C2486.31 1564.34 2357 1305 2357.08 1176v-.14c0-35.24 2.9-65.94 32.87-101.76a14.66 14.66 0 0 1 12.2-5.21c230.78 14.55 541.25 29.49 1003.55 46.46-1.2 4.76-2 7.75-2 7.75s-42.84 6.73-73.08 20.41-58.26 31.88-36.48 39.2c22.12 7.43 89.09 6 139.77 1.1 14.16-1.37 36.36-10.21 63.36-11.58 24-1.21 32.62-18.59 33.41-28.7 1.11-14.19-12.41-17.07-11.15-24.06q126.78 4.47 268.11 9.19a25.67 25.67 0 0 1 15.22 5.63c44.82 36 54.18 135.35 54.18 135.35.28 2.67.54 5.36.8 8Zm-1216.73-88a128.37 128.37 0 0 0-14-3.43 36.25 36.25 0 0 1-12.9-5.28c-34.62-22.65-119.17-31.47-150.43-5.38a12.49 12.49 0 0 1-7.16 2.85 315.79 315.79 0 0 0-38.33 4.51c-11.7 2.28-14.59 10.28-15.28 14.85-1.21 8.14 2.66 17.9 8.29 20.89 7.75 4.12 21.5 5.25 34.2 5.25 2.92 0 5.79-.06 8.51-.16a13.53 13.53 0 0 1 9.69 3.64c7.6 7.07 18.37 12 30.83 15.06a51.69 51.69 0 0 1-17.93-11.4c9.7 3 27.67 6.61 57.41 6.61 41.65 0 54.59-7.27 64-13.75 9.1-6.27 21.67-7 19.84-3.86-.1.16-.22.31-.33.46a3.2 3.2 0 0 0-.48.66 37.78 37.78 0 0 1-5 5.31 53.07 53.07 0 0 0 8.9-7 8.08 8.08 0 0 1 6-2.34l8.21.28c7.83.27 13.72-6.58 14.91-13.39.95-5.34-.96-11.87-8.94-14.41Zm-181.93-5.94a3.69 3.69 0 0 0-3.91-3.22 308.84 308.84 0 0 0-36.62 4.39c-10 1.94-12.94 8.25-13.68 13.19-1.18 7.94 2.35 12.9 6.75 15.24 9.72 5.17 30 5.37 44.75 4.7a2.28 2.28 0 0 0 2.17-2.61c-1.48-9.64 1.67-22.75.55-31.72Zm1564.06 646.15c-126.91-.54-886.68-4.3-1182.64-18.84-56.86-2.34-123.42-6.8-177.93 1.27-26.84 4-52.7 33.55-16.22 37 143.74 13.5 559.19 10 1001.89 27.45 89.11 3.52 77 7 115.77 10.36 84.11 7.29 83.94 8.52 32 5.17s-71.09-4-126.59-6.59-460.46-15.68-532.7-15.68 341.18 16.58 255.06 15.64-662.1-13.15-787.45-15.64-247.34-16.12-276.31-54.44c-5.34-7-.22-11.38 6.35-11.92 161.29-13.12 317.49-8.83 383.39-6-26.22-6-49.48-14.8-71.38-27.9-6.58-3.93-22.83-5.48-25.38-5.51l-572.35-11.7a3.13 3.13 0 0 0-1.6 5.85c57.72 32.8 265.21 48 268.49 48.2 5.18.36 5.14 3.75 6 6.12 8.05 22.16 88.11 60.83 284.58 60.83 100.5 0 1232.47 26.47 1273.42 27.88s-18.72 4.65-96 8.47-174.36 7.76-228.71 11.29 59.55 10.53 113.68 13.58c149.46 8.1 300.82 19.1 345.15 22.39a12.25 12.25 0 0 0 13.17-12c.41-22.22 1.31-69.05 2.39-109a6.1 6.1 0 0 0-6.07-6.31ZM3832.85 1789l-1175.56-24a2 2 0 0 0-.92 3.72c43.29 21.59 91.9 24.06 162.32 28 207.76 11.65 707.7 16.79 1000.24 18.86a13.19 13.19 0 0 0 12.69-9.11c1.87-5.85 2.64-17.44 1.39-17.44Zm8-45.6-322.85-8.77c-220.49-6-703.1-40.34-954.34-53.54a1.35 1.35 0 0 0-1.11 2.2c.71.89 1.39 1.72 2 2.46 14.86 17.21 28.36 33.15 28.47 33.3 2.61 2.85 10.57 4.79 12.71 4.86l1233.07 26.21c3.48 0 4.2-6.67 2.07-6.73Z" transform="translate(-538.43 -654.37)" style="fill:url(#n)"/><path d="m3564.82 1735.9 276 7.49c2.16.06 1.41 6.73-2 6.73l-1233.07-26.21c-2.14-.07-10.1-2-12.71-4.86-.06-.08-3.28-3.88-8.27-9.75l933.16 25.32 7.91.22h.13l2.62.07h.19l10.2.28h.13l8.84.24 5.66.15 3.06.09 3.82.1ZM1326.49 1405a2.6 2.6 0 0 0-.8-4.72c-27.46-6.72-58.06-16.06-58.06-16.06l-.44-.09q-16.79 13.69-32.36 29.08c-42.48 42-76.48 92-101.07 148.35-25.2 57.84-39.75 120.88-43.23 187.37-1.3 24.72-3.07 58.67-4 97.59l.63-.18c18-5.34 28-9.65 28 3.53s0 29-7.05 28.7c-6.27-.25-13.7-.73-22.1-1.42q0 3.93-.06 7.92c12.32 1.46 22.62 2.59 30.36 3.41a8.83 8.83 0 0 0 9.76-8.69c.6-47.78 2.83-90.13 4.4-119.66 8.26-155.4 83.43-282.21 196.02-355.13Zm3593.79 328.85c-3.63-65.27-17.8-126.75-42.12-182.73-23.86-54.92-56.9-103.31-98.22-143.81l-2.45-2.37-47.68 17.29a4.08 4.08 0 0 0-1.2 7c87.9 72.18 144.2 182.55 151.73 316.17 3.48 61.62.42 130.19-8.2 198.09a9.24 9.24 0 0 0 9.18 10.4c7 0 16.88 0 29.06-.12 10.12-75.4 13.7-151.48 9.9-219.92Zm-2305.59 157.67c7.6-6.55-246.72-16.7-295.36-64.58a59.21 59.21 0 0 0-37.43-17.28c-42.2-2.88-115.52-5.9-167.21-14.85-108.7-18.82-122.35 26.82-123.29 7.29s-3.94-64.74-3.94-64.74l-1.49-16.93a9 9 0 0 1 2.17-6.74 8 8 0 0 1 6.18-2.78l592.83 12.6c1.17 0 .6-2.57-.82-4.13-.08-.1-2.94-4.08-7.7-10.24l-391.72-10.63-94.09-2.56a90.34 90.34 0 0 1-63.7-28.75 91.3 91.3 0 0 1-6.79-8.23 88.4 88.4 0 0 1-5.79-9 89.29 89.29 0 0 1-8.26-20.26q-1.29-4.8-2.67-9.54-4.14-14.24-9-28-1.38-3.88-2.82-7.73c-.25-.66-.49-1.33-.74-2-.9-2.37-1.8-4.73-2.73-7.07-.08-.21-.16-.42-.25-.64-1-2.48-2-5-3-7.42l-.88-2.11c-.89-2.1-1.78-4.19-2.69-6.27-.18-.43-.36-.86-.55-1.28-1-2.35-2.09-4.7-3.16-7l-1.09-2.35q-1.26-2.71-2.55-5.4c-.31-.65-.62-1.31-.94-2-1.06-2.2-2.15-4.39-3.24-6.56-.45-.9-.91-1.79-1.37-2.68-.77-1.52-1.56-3-2.35-4.54-.45-.86-.9-1.73-1.36-2.59q-1.62-3-3.28-6c-.56-1-1.14-2.06-1.72-3.08-.68-1.23-1.38-2.45-2.07-3.67-.61-1.06-1.21-2.12-1.82-3.17q-1.62-2.77-3.27-5.52c-.71-1.19-1.43-2.36-2.15-3.54q-.86-1.41-1.74-2.82-4-6.41-8.15-12.67l-1.36-2q-4.45-6.6-9.1-13l-1-1.32q-4.92-6.73-10-13.25l-.57-.73q-5.36-6.78-10.93-13.34c-.08-.08-.15-.17-.22-.25q-5.73-6.74-11.71-13.21c-83.81-90.94-202.27-145.4-337.3-145.4-107.35 0-208.36 35-289.26 99.49.08 0 28.08 7.64 60.4 13.91a23.57 23.57 0 0 0 16.07-2.64c62.32-35.24 134.73-54.77 212.79-54.77 233.71 0 412.25 174.64 426 417.17 2.74 48.4 5.41 100.33 6.59 152.48a9.39 9.39 0 0 0 9.65 9.19c23-.65 78.28-2.14 150.21-3.69 155.2-11.7 453.28-13.89 461.74-21.18ZM3832.85 1789l-1175.56-24a2 2 0 0 0-.92 3.72c43.29 21.59 91.9 24.06 162.32 28 207.76 11.65 707.7 16.79 1000.24 18.86a13.19 13.19 0 0 0 12.69-9.11c1.87-5.85 2.64-17.44 1.39-17.44Zm627.07-452.07c93.79 0 178.11 27 246.25 75.2a26.38 26.38 0 0 0 23.69 3.45c19.72-6.68 43.32-14.59 43.77-14.31a433.21 433.21 0 0 0-137.27-87.36c-54.87-21.88-114.23-33-176.44-33-122.76 0-238.34 50.83-325.46 143.12a503.79 503.79 0 0 0-58.7 75.54q-2.55 4-5 8.06-7.45 12.21-14.24 24.81v.06q-2.14 4-4.23 8l-.39.76q-2 3.93-4 7.9c-.07.13-.13.27-.2.4q-4.17 8.46-8 17.1c-.09.19-.17.39-.26.58q-1.7 3.79-3.34 7.61l-.75 1.78c-.95 2.22-1.88 4.46-2.8 6.69l-.78 1.93c-1 2.45-2 4.91-2.93 7.37-.13.36-.28.71-.41 1.07q-1.67 4.3-3.26 8.65l-.39 1.08q-1.32 3.64-2.6 7.3l-.9 2.63c-.67 2-1.34 3.94-2 5.92l-1 2.92q-1 3-1.9 6c-.28.88-.56 1.76-.83 2.64-.87 2.85-1.73 5.72-2.56 8.59q-2.1 7.29-4 14.66-1.24 4.78-2.41 9.59a105.29 105.29 0 0 1-5.35 16.29 106.524 106.524 0 0 1-4.46 9.4 105.85 105.85 0 0 1-12.62 18.44q-2.84 3.33-5.93 6.41l-.11.11a105.84 105.84 0 0 1-13.55 11.37 91.788 91.788 0 0 1-5.11 3.36 105.11 105.11 0 0 1-58.53 15.9l-47.48-1.29c-2.6 0-1.95 6.66-.15 6.7l168.18 3.58a8.06 8.06 0 0 1 5.88 2.8 9.08 9.08 0 0 1 2.15 6.45l-.85 14.74c-.49 8.3-6.93 14.69-14.73 14.69h-.29l-159.67-3.26c-2.28 0-10.18 13.69-12.91 21.82a3.4 3.4 0 0 0 3.2 4.48c81.06.55 143.49.85 175.16 1a10.79 10.79 0 0 0 10.82-10.44c.35-10.48.71-19.53 1.06-26.25 13.06-247.61 196.21-443.05 428.63-443.05Zm-433 608.22c.41-22.22 1.31-69.05 2.39-109a6.1 6.1 0 0 0-6.08-6.27c-126.91-.54-886.68-4.3-1182.64-18.84-56.86-2.34-123.42-6.8-177.93 1.27-26.84 4-52.7 33.55-16.22 37 143.74 13.5 559.19 10 1001.89 27.45 89.11 3.52 77 7 115.77 10.36 84.11 7.29 83.94 8.52 32 5.17s-71.09-4-126.59-6.59-460.46-15.7-532.7-15.7 341.18 16.58 255.06 15.64-662.1-13.15-787.45-15.64-247.34-16.12-276.31-54.44c-5.34-7-.22-11.38 6.35-11.92 161.29-13.12 317.49-8.83 383.39-6-26.22-6-49.48-14.8-71.38-27.9-6.58-3.93-22.83-5.48-25.38-5.51l-572.35-11.7a3.13 3.13 0 0 0-1.6 5.85c57.72 32.8 265.21 48 268.49 48.2 5.18.36 5.14 3.75 6 6.12 8.05 22.16 88.11 60.83 284.58 60.83 100.5 0 1232.47 26.47 1273.42 27.88s-18.72 4.65-96 8.47-174.36 7.76-228.71 11.29 59.55 10.53 113.68 13.58c149.46 8.1 300.82 19.1 345.15 22.39a12.25 12.25 0 0 0 13.18-12Z" transform="translate(-538.43 -654.37)" style="fill:url(#o)"/><g style="mask:url(#p)"><path d="M1095.28 1610.22c-13.41-2.82-350.06-51.22-382.59-56.47-34.22-5.53-30.79-8.2 0-4.23 156.36 20.11 301.42 29.4 360.74 38.47 27.03 4.13 35.26 25.06 21.85 22.23Zm-376.72-493.94-.13.22c18.5-27.7 60.41-48 108-54.13 6.58-.85 11.27-1.53 9.32-2.62-.51-.28-1-.56-1.49-.85-.47.31-1.69.53-5 .15-17.88-2.12-78.12 17.92-102.82 3.41-13.12-7.7-28.24-24.12-18.35-31.89-3.06 12.61 17.64 21 44.47 21.18 22.15.2 52-5.55 61.71-7.55-8.76-10.15.6-15.22 22-13.23-5.77-1.59-18.18-2-53.72-1.34-35.8.7-51.89-16-80.12-10.58-3.86.73-6.49 2.25-8.19 4.31-5.6 17 16.49 38.29 28.19 50.19 17.91 18.2.38 35.97-3.87 42.73Zm-7.63-45s-11.29 30.35-9.18 43.06a44.39 44.39 0 0 1 7.15 10.21c7.26-12.71 11.25-21.1 11.21-29.09-.06-10.46 2.29-12-9.18-24.18Zm523.9 341.93c85.88-85 201.52-131.8 325.63-131.8 89.72 0 172.13 24 241.92 66.85 0 0-88.75-82.86-235.92-82.86-231.03 0-331.63 147.81-331.63 147.81Zm834.57-252.46c-11.65-42.53-89.68-82.31-3.18-62.16 111 25.84 142 31 291.36 39.54 2.66-22 10-43.58 30.48-67.46a1.68 1.68 0 0 0-1.17-2.76c-170.19-10.89-296.6-21.58-409.52-32.77-117.11-11.6-137.4-44-174-91-26.51-34-25.68-71.41 51.34-95.7 200.41-63.2 520-124 843.66-124 101.11 0 202.6 5.93 301 19.57 207.89 28.82 408.88 122.21 560 211.08q3.08 1.68 5.94 3.5c23.93 14.17 46.54 28.19 67.7 41.79 95.13 56.88 200.32 112 259.83 124.72 53.3 2.52 108.64 5.06 108.26 4.7-16.24-15.21-33-28.91-50.45-40.29-18.55-3-37.6-6.47-58.31-10.48-112.94-21.89-368.47-188.58-582.71-269.65s-448-135.53-939.43-89.3C1830.45 788.22 1306.78 967.44 1122.81 1018S739.16 1120 928 1080.1s512.12-55.41 690.35-36 311.9 63.61 30 58.88c-261.18-4.39-523.76 17-720.35 57.77-62.14 12.88-122.94 29.82-31.18 13.82s520.35-88.92 933.64-34.11c96.45 12.79 211.77 60.47 251.66 134.47-15-35.88-44.47-48.45-53-75.58s51.93 3.93 40.28-38.6Zm-41.29-437.47c398.11-75.18 822.92-82.94 1198.24 13.6a41 41 0 0 1 14.11-5.31c6.16-1.19 11.31-2.51 15.33-3.68q-12.69-4-24.86-7.43c-262.59-74.83-741.18-96-1194.35-11.3-78.4 14.66-156.52 31-233.69 48.51-1.06 3.85-.61 8.37-.11 12.8a5817.275 5817.275 0 0 1 225.33-47.19Zm1978.55 401.24a12.24 12.24 0 0 0 8 3.13c296.81 5 568.82 32.28 767.94 65.59h.05s-307.2-59.85-510.49-73.62c-155-10.49-228.72-15.86-305-27.51a473 473 0 0 1 39.5 32.41Zm7.45-61.53c-12.91.93-32.65 1.46-51.52 1.75 0 0 70.52 17 209.63 27.38 150.36 11.28 541.06 50.57 882.24 123.87a367 367 0 0 1 43 11.67c-9.39-23.92-40.53-41.54-61-50.9-262.16-69.34-693.93-108.42-1021.26-136.54-13.67-1.17-31.8 3-44.4 6.54a4.37 4.37 0 0 0 3.28.46c10.2-2.59 23.49-5.22 35.48-5.23 40.08-.05 36.19 18.7 4.55 21.01ZM827.35 1050.8l309.73-93.13a20.23 20.23 0 0 1-3.49-19.41c-108.79 33.08-208.89 64.85-297 92.79-21.66-.05-18.31 10.57-9.24 19.75Zm2669.93 121.42c-27 1.37-49.2 10.21-63.36 11.58-11.41 1.1-23.63 2-36 2.72 165 7.4 320.85 14.57 446.55 21-6.34-21.18-15.62-43.69-29-60.37-89.5-2.73-185.48-5.44-285-8a18.57 18.57 0 0 1 .16 4.47c-.73 10.01-9.37 27.38-33.35 28.6ZM1138.11 957.36l27.41-8.24c5.91-1.78 12-3.61 18.13-5.49a20.76 20.76 0 0 1-6.8-18.46q-21.24 6.39-42 12.72a19.13 19.13 0 0 0 3.26 19.47Zm-451.89 418.69c9.18-3.93 14.36-8.91.89-4.42s-45 7.25-50.3-7.18c-18.35-50.11-5.35-86.11 28.24-158 18.36-39.31 33.14-63.28 42.74-80-1.55-3.91-3.52-8.93-6.49-11.26-66 131.44-89.14 207.43-67.31 249.21a606.14 606.14 0 0 0-58.59 23.07s-26.82 70.23-17.65 138.35c-24.7 11.65-23.64 16.59-8.47 93.88-2.82-14.12 4-17.41 14.83-4.94s80 117.88 80 117.88-105.32-174.15-91.06-172.23c12.23 1.64 8.23-19.77 23.29-12.71s18.35 6.35 8.71-8-9.65-71.06 10-132.21c2.06-6.43-2.91-9-10-13.91 16.7 2.88 66.11-2.53 101.17-17.53Zm3165.2-141.21c-299.43 4.41-605.86 8.76-1018.61 11.73-191.64 1.39-295.37 3.47-130.23 6.12l1154.63 18.55c-.06-.53-.11-1.07-.16-1.61a344.56 344.56 0 0 0-5.63-34.79Zm837.39 78.33c-53.25-32-91.57-40.06-68-45 45.41-9.41 292.28 17.59 271.06 5.83-140.47-77.83-336-87.71-542.82-104.65-81.44-6.67-277-14.43-523.05-22 11.69 17.31 20.07 39.63 25.93 60.43 242.06 12.33 368.67 21.61 226.06 23.67-73.77 1.06-146.46 2.14-219.52 3.21 4.12 19.86 5.64 34.2 5.64 34.2.06.81.13 1.62.19 2.43l595.62 9.57c62.21 0 121.57 11.09 176.44 33a433.21 433.21 0 0 1 137.27 87.36c.09.07 8.88 0 23.93-.18-33.4-35.67-74.23-67.14-108.75-87.87Zm254.24 272.7c26.82.7-34.94-23.53-107.65-136.94a331.33 331.33 0 0 0-34.53-44.28l-23.37.29 2.44 2.37c41.32 40.5 74.36 88.89 98.22 143.81a495 495 0 0 1 18.66 50.27c5.83-15.85 19.4-16.23 46.23-15.52Zm257.29-286.12c-3.53-21.06-34.58-82.67-93.18-102.12-19.66-6.52-40.8-12.81-63.22-18.86 20.77 9.6 48.55 26.2 57.05 49 .16.43.3.85.45 1.27 55.62 20.32 70.26 49 103 93.73 40.43 55.29 78.25 161.14 78.25 161.14-15.78-47.59-46.54-125.8-82.35-184.16Zm-285.88 309.88c13.88 1.18 205 6.83 205 6.83s-154.38-12.24-200-13.41c-7.35-.19-18.88 5.41-5 6.58Zm-2276.82-406.7c8 .38 10.65-8.52-3.53-10.24-29.58-3.58-102.55-12.56-171.63-9.38.18 4.62-.22 12.26-.3 19.52 41.75-1.76 108.5-3.12 175.46.1Zm-212.11-16.59c-15.89 2-21.52 20.59-3.31 18.82 5.51-.53 18.33-1.38 36.27-2.17.47-6.83 1.38-13.84.69-19.31v-.21c-11.45.59-22.72 1.53-33.65 2.87Zm905.1-42.84a209 209 0 0 1 24-8.89c-270.56-6.58-553.26-12.29-792.86-16 292.24-1.19 710.72 8.34 628.71-1.41s-195.29-17.72-267.34-21.14c-213.29-9.43-381.66-18.35-521-27.14a14.66 14.66 0 0 0-12.2 5.21c-18.92 22.61-27 43.18-30.46 64.14 12.5.72 25.82 1.45 40.09 2.23 207.57 11.26 559.26 26.5 892.23 41.32-17.21-7.82 9.79-25.17 38.83-38.32Zm-843.23 640c-74.84.47-211.53 8.11-341.76-8.12-43.74-5.45-78-11.44-31.42-1.77 55.78 11.58 144.84 27.8 205.18 25.65 41.86-1.49 94.59-8.23 172.71-9.65s70.13-6.56-4.71-6.09Zm-91.53-98.12c-85.42.07-63.91 17-141.88 14.93l324.64 8.81c-3.69-4.77-8.51-10.84-14.08-17.45-62.33-3.84-116.27-6.31-168.68-6.27Zm188.91 23.9 671.51 18.22c-338.94-9.19-536.91-26.14-686.31-35.5 5.61 6.54 10.78 12.59 14.8 17.3Z" transform="translate(-538.43 -654.37)" style="opacity:.32;fill:url(#q)"/></g><path d="m3917.57 1064.76-16.32.35s-49.14-9.59-160.32-64.42c-70.12-34.58-252.59-151.76-498.71-237.88-28.72-10-21.35-25.41 2.47-31.06 5.41-1.28 9.46-2.43 12.49-3.42 265.94 83.36 698.69 323.19 698.69 323.19l1.24.7c19.68 7.47-2.28 10.78-39.54 12.54ZM1801.8 757.92c-221.24 50.23-434.57 110-623.89 166.93a19.66 19.66 0 0 0 4.86 16.51c4.44 4.9 15.33 12 38.36 4.5 148.4-48.25 302.62-88.69 465.89-131.5 36.34-9.53 73.92-19.38 111.19-29.27 5.08-1.35 4.41-7.19 3.64-14-.49-4.26-1.03-9.09-.05-13.17Z" transform="translate(-538.43 -654.37)" style="fill:url(#r)"/><path d="M2289.44 779.53c55.68-7.67 111.59-13.84 166.8-18.4 77.63-6.41 154.32-9.65 227.93-9.66 100.51 0 196.45 6.06 285.15 18 83.42 11.22 172.08 34.17 263.52 68.19q50.76 18.9 102.63 42.3l98.45 205.7c-476-16.56-792.37-31.05-1026.4-45.32Zm1190.87 307.73q104.57 3.59 219.33 7.31c-16.1-12.15-36-26.54-58.93-42.28-55.13-37.83-115.91-75.1-175.76-107.78q-39-21.28-77.84-40.28ZM2260.83 783.6q-10.48 1.54-21 3.15c-128.1 19.75-254.62 47.75-356.28 78.86-29.82 9.13-48.4 21-52.3 33.48-2.65 8.43 1 18.92 10.82 31.17l4.39 5.49c15.68 19.65 28.07 35.17 48.56 47.06 22.78 13.22 55.36 21.49 102.52 26 104.5 10 220.83 19.59 372.62 29.19Z" transform="translate(-538.43 -654.37)" style="opacity:.7000000000000001;fill:url(#s)"/><path d="M3552.2 995c-40.16-4.8-82.47-9.65-126.2-14.4l-38.89-76.38q38.83 19 77.84 40.28c29.12 15.91 58.45 32.9 87.25 50.5Zm-216.73-115q-51.76-23.36-102.63-42.3c-91.44-34-180.1-57-263.52-68.19-88.7-11.93-184.64-18-285.14-18-73.62 0-150.31 3.25-227.94 9.66-55.21 4.56-111.12 10.73-166.8 18.4l70.9 156.6c175.73-1.49 354-1.4 496.71 2.13 164.8 4.07 353.22 19.68 524.32 37.58Zm-1074.64-96.4q-10.48 1.54-21 3.15c-128.1 19.75-254.62 47.75-356.28 78.86-29.82 9.13-48.4 21-52.3 33.48-2.65 8.43 1 18.92 10.82 31.17l4.39 5.49c2.27 2.84 4.47 5.59 6.63 8.26 127-2.74 297.69-5.89 473.4-7.58Z" transform="translate(-538.43 -654.37)" style="opacity:.7000000000000001;fill:url(#g)"/><path d="m2261.69 780.22 18.15-2.85 119.74 264.44-26.12-1.59Zm1080.42 96.59 102.35 213.88 34.94.71-100.47-197.3Z" transform="translate(-538.43 -654.37)" style="fill:url(#e)"/><path d="M2967.45 408.54c29.47-9.18 23.78-27.68 8.15-41.86-21.21-19.26-50.28-41-82.38-51.54-23-7.52-85.81-7.77-112.84 4.06s-38.52 71.62-36.83 90.54 59.13 24 124.67 24a35.17 35.17 0 0 0 4.33 4.79c-3.45 15.84-7.27 30.2-7.27 30.2s-42.84 6.73-73.08 20.41-58.26 31.88-36.48 39.2c22.12 7.43 89.09 6 139.77 1.1 14.16-1.37 36.36-10.21 63.36-11.58 24-1.21 32.62-18.59 33.41-28.7 1.11-14.12-12.28-17-11.16-24 3.27-8.87-7.06-48.68-13.65-56.62Z"/><path d="M3509 1016.57c-20.67-18.06-47.72-37.36-77.35-47.06-23-7.52-85.81-7.77-112.84 4.06-22.25 9.73-34 52-36.47 77.16a4.19 4.19 0 0 0 4.18 4.6h9.16c1.25-17 6.15-52 25.16-74-7 9.72-11.05 24-13.45 38a30.87 30.87 0 0 0 30.49 36h149.18c53.71 0 40.16-22.85 21.94-38.76Z" transform="translate(-538.43 -654.37)" style="fill:url(#t)"/><path d="M5026.93 1294c-27.37 6.33 8.71 87.4 58.71 134.11 40.49 37.84 76.94 53.65 86.63 28.24 10.8-28.29-30.52-90-54.16-118.94-19.24-23.55-60.11-50.6-91.18-43.41Z" transform="translate(-538.43 -654.37)" style="fill:url(#u)"/><path d="M5119.22 1316.34c24.71 50.72 67.24 120.35 93.36 145.65 44 42.64 35.43-7.17 29.17-22-16.94-40.12-54.18-96.62-90.35-126.82-29.88-24.95-41.18-15.3-32.18 3.17Z" transform="translate(-538.43 -654.37)" style="fill:url(#v)"/><path d="M5023.24 1304.68c-11.37 11.89 15.39 73.86 53.16 110.19 30.58 29.43 62.58 53.72 62.88 32.65.36-24.53-20.41-67.62-45.88-97.06-21.53-24.89-60.77-55.6-70.16-45.78Z" transform="translate(-538.43 -654.37)" style="opacity:.47000000000000003;fill:url(#f)"/><path d="M5123.09 1319.73c22.61 47.15 55.18 96.1 75.1 120.85 26.11 32.47 9.92-8.24-7.91-40.71-14.51-26.44-31.12-53.53-46.88-71.88-23.4-27.19-28.53-25.42-20.31-8.26Z" transform="translate(-538.43 -654.37)" style="opacity:.47000000000000003;fill:url(#w)"/><path d="M5281.28 1733.87c1.88 43.35-4 62.59-15.47 59.53-7.25-1.94-13.59-27.1-13.59-60.53s6.09-60.53 13.59-60.53 14.02 28.13 15.47 61.53Z" transform="translate(-538.43 -654.37)" style="opacity:.47000000000000003;fill:url(#x)"/><path d="M5028.55 1307.31h-.18a2.89 2.89 0 0 0-1.88.48c-2.6 2.73-2.47 16.25 9 40.93 10.79 23.24 27.26 46.76 44.05 62.91 35.51 34.16-4.43-12.47-2-28.35s22.58 9.41 18.25-10.35 20.44 15.57 32.17 43.82a224.26 224.26 0 0 0-37.96-63.35c-20.26-23.4-50.12-45.81-61.45-46.09Z" transform="translate(-538.43 -654.37)" style="opacity:.7000000000000001;fill:url(#y)"/><path d="M5270.75 1766.22c-1.5-34.52-4.88 9.18-9.23-5.76-3.24-11.1-4.67-35.9-3.29-55a233.56 233.56 0 0 0-1.51 27.38c0 36.57 7.29 54.77 10.32 56.21a2.85 2.85 0 0 0 2.84-.55c1.75-1.4 4.9-5.94 6.41-20.55.82-7.95-4.88 13.3-5.54-1.73Z" transform="translate(-538.43 -654.37)" style="opacity:.7000000000000001;fill:url(#z)"/><path d="M5140 1330.92a193.45 193.45 0 0 0-13.47-14.47l.63 1.34c14.2 29.62 32.36 60 48.91 84.66-7.12-10.82-16.19-30.4-7.84-17.93s-7.53-19.94-2.57-14.89 12 16.89 20.69 32.4c-17.35-31.53-32.92-55.46-46.35-71.11Z" transform="translate(-538.43 -654.37)" style="opacity:.7000000000000001;fill:url(#A)"/><path d="M2633.1 1799.39c-41-.42-209.14-.77-275.62 20.85a3.32 3.32 0 0 0-.62 6c56.92 32 212.3 33.82 245.78 33.84a6 6 0 0 0 5.91-6.1c-.24-13.62 5.74-28.66 26.92-48.48a3.56 3.56 0 0 0-2.37-6.11Z" transform="translate(-538.43 -654.37)" style="fill:url(#h)"/><path d="m2394.78 1050-1.92 7.56a7.22 7.22 0 0 1-7.44 5.43c-168.44-10.6-293.55-21-405.31-31.91-115.92-11.29-136-42.82-172.24-88.58-26.23-33.13-25.41-69.53 50.82-93.18 198.36-61.53 514.7-120.7 835-120.7 100.07 0 200.52 5.77 297.9 19 335.06 45.69 652 258.07 767.3 346.68a2.39 2.39 0 0 1-1.62 4.27l-22.7-1.45a37.65 37.65 0 0 1-20.12-7.42c-12-9-25.31-18.65-39.87-28.91a2112.3 2112.3 0 0 0-179.91-113.3c-79.94-44.83-159.88-82.63-237.6-112.33-93.59-35.77-184.35-59.89-269.73-71.68-90.8-12.55-189-18.91-291.87-18.91-75.36 0-153.85 3.42-233.32 10.15-73.31 6.22-147.82 15.28-221.48 26.94-131.12 20.75-260.63 50.19-364.68 82.89-30.53 9.6-49.54 22.09-53.55 35.19-2.7 8.87 1 19.9 11.09 32.77l4.49 5.77c16 20.66 28.73 37 49.71 49.48 23.31 13.89 56.66 22.58 104.94 27.35 111.16 11 235.41 21.38 399.89 31.87a2.4 2.4 0 0 1 2.22 3.02Zm1394.39 68.53q-4-3.37-9-7.45a18.18 18.18 0 0 0-10.47-4l-34.75-1.77q-113.46-3.78-216.94-7.42a96.37 96.37 0 0 1 2.14 15.76q126.45 4.41 267.46 9a2.32 2.32 0 0 0 1.56-4.16ZM3410.75 1094c-463.11-16.81-774-31.62-1005.62-46.22a3.42 3.42 0 0 0-3.51 2.51l-2 7.09a5.34 5.34 0 0 0 4.81 6.75c230.23 14.24 540.36 28.85 1002.65 45.47 1.16-4.6 2.43-9.98 3.67-15.6Z" transform="translate(-538.43 -654.37)" style="fill:url(#B)"/><path d="m2633.84 1753.19-29-23.84a1.24 1.24 0 0 1 .81-2.19l1233.07 24.72a1.83 1.83 0 0 1 1.77 2.09l-3.22 22.84a4.35 4.35 0 0 1-4.38 3.73l-1187-22.88a19.63 19.63 0 0 1-12.05-4.47Zm1387.52 2.36-168.15-3.38a1.83 1.83 0 0 0-1.86 1.7l-1.58 22.44a4.32 4.32 0 0 0 4.23 4.63l159.68 3.08a10.75 10.75 0 0 0 10.94-10.09l.86-13.91a4.21 4.21 0 0 0-4.12-4.47Zm-1425.57-25.36a13.55 13.55 0 0 0-8.72-3.4l-592.83-11.89a4.21 4.21 0 0 0-4.28 4.61l1.49 16a10.75 10.75 0 0 0 10.5 9.76l619.22 11.94a2 2 0 0 0 1.33-3.41Z" transform="translate(-538.43 -654.37)" style="fill:url(#C)"/><path d="M821.31 1145.42c-3.27-4.33-11.58-7.69-21.68-8.79a73.41 73.41 0 0 0-7.73-.41c-19.59 0-40.06 7.74-56.08 21.47-47.55 40.73-94.57 130.56-99.78 156.08-5 24.71 4.44 46.43 9.59 50.26s23.85 4.46 34.41-.06c22.22-9.53 40.48-22.52 57.34-54.94 23.26-44.72 57.89-97.11 76.64-120 19.49-23.77 15.54-32.7 7.29-43.61Zm-6.38 10.33c-11.77-6.35-21.06-6.43-32.94 4.71-17.84 16.71-24.65 30.64-29.35 41.37-5 12.14 3.47 26.51 15.64 21.92s31.88-21.65 24.06-11.53-21.94 32-28.47 44 4.24-12-2.82-20.7c-5.85-7.21-32.34 3.48-35.4-.24-17 19-39.2 51.38-37.78 65.41 1.88 18.59 29.36 2.83 43.49-7.06 8.75-6.11 12.77-10.21 7.8 1.42-9.64 22.58-15.92 33.41-31.37 47.52s-39.92 24.57-59.45 20.71c-10.93-2.16-15.06-39.29-7.06-53.65s35.54-5.89 38.59-13.17c13.41-32 40.71-67.53 55.29-78.36s15.53-37.88 40.48-60.7c15.09-13.82 14.58-15.77 24.94-15.77 20.47 0 26.11 20.47 14.35 14.12Z" transform="translate(-538.43 -654.37)" style="fill:url(#D)"/><path d="M818 1146c-2.83-3.74-10.66-6.8-19.95-7.81a70.69 70.69 0 0 0-7.46-.39c-19.13 0-39 7.6-54.46 20.86-40.49 34.69-80.57 105.16-94.38 140.42 17.42-31.94 37.39-37.47 77.28-37.23s59.28-29.85 59.28-29.85c12.39-18.84 24-35.11 32.48-45.41 18.37-22.46 14.99-30.31 7.21-40.59Z" transform="translate(-538.43 -654.37)" style="opacity:.32;fill:url(#E)"/><circle cx="4463.62" cy="1730.77" r="375.83" transform="rotate(-45 3404.517 2053.523)" style="fill:#010101"/><path d="M4477.45 1449c-155.65 0-281.83 126.17-281.83 281.82s126.18 281.82 281.83 281.82 281.82-126.17 281.82-281.82S4633.09 1449 4477.45 1449Zm0 555.08c-150.92 0-273.27-122.34-273.27-273.26s122.35-273.26 273.27-273.26 273.26 122.34 273.26 273.26S4628.37 2004 4477.45 2004Z" transform="translate(-538.43 -654.37)" style="fill:url(#j)"/><path d="M4487.39 1467.26c-3.3-.12-6.61-.2-9.94-.2-145.41 0-263.72 118.3-263.72 263.71s118.31 263.71 263.72 263.71c3.33 0 6.64-.08 9.94-.2 138.07-8.6 247.39-123.28 247.39-263.51s-109.32-254.91-247.39-263.51Zm222.23 270.19-20.36.7a222.06 222.06 0 0 1-10.27 60c3.81 1.3 6.84 2.31 8.85 3a13.79 13.79 0 0 1 9 8.4c6.06 15.33-9.13 46.58-18.72 63.84a11.44 11.44 0 0 1-16.92 3.57l-17.13-11.56a223.45 223.45 0 0 1-43.12 43c2.21 3.14 4 5.63 5.19 7.29a13.79 13.79 0 0 1 2.34 12.08c-4.11 16-34.76 32.31-52.67 40.64a11.46 11.46 0 0 1-15.79-7.05l-6.59-18.15a222.18 222.18 0 0 1-60.66 10c0 3-.06 5.36-.05 7.06a13.79 13.79 0 0 1-5.21 11.15c-5.75 4.75-15.95 6.37-27.18 6.37-13.59 0-28.71-2.37-39.32-4.45a11.45 11.45 0 0 1-8.63-15l4.67-16.25a221.59 221.59 0 0 1-55.9-27.7c-1 1.4-1.93 2.61-2.61 3.55a13.83 13.83 0 0 1-10.76 6h-1c-16.45 0-40.73-23.41-53.9-37.57a11.44 11.44 0 0 1 1.82-17.19l11.27-8.8a222.15 222.15 0 0 1-29.21-56.14l-1.87.61a13.81 13.81 0 0 1-12.21-1.51c-13.91-8.85-20-43.05-22.38-62.65a11.44 11.44 0 0 1 2.9-9.1 11.28 11.28 0 0 1 8.69-3.74l12.46-.43a222.39 222.39 0 0 1 10-63l-.7-.23a13.79 13.79 0 0 1-9-8.4c-6.06-15.33 9.13-46.58 18.72-63.84a11.44 11.44 0 0 1 16.92-3.57l10.06 6.79a223.79 223.79 0 0 1 45.72-44.51l-.72-1a13.75 13.75 0 0 1-2.34-12.08c4.11-16 34.76-32.31 52.66-40.64a11.46 11.46 0 0 1 15.8 7l4.58 12.61a222.89 222.89 0 0 1 60.79-8.4h1.92v-3.19a13.79 13.79 0 0 1 5.21-11.15c12.72-10.49 47.12-5.71 66.5-1.92a11.45 11.45 0 0 1 8.63 15l-4.39 15.27a221.77 221.77 0 0 1 54.77 29.82c1.43-1.92 2.6-3.51 3.46-4.7a13.79 13.79 0 0 1 10.76-5.95c16.46-1 41.48 23.07 54.93 37.53a11.43 11.43 0 0 1-1.82 17.19l-14.63 11.42a221.36 221.36 0 0 1 26.66 55.37c3.32-1 6-1.86 7.78-2.46a13.81 13.81 0 0 1 12.21 1.51c13.91 8.85 20 43 22.38 62.65a11.45 11.45 0 0 1-11.59 12.84Z" transform="translate(-538.43 -654.37)" style="fill:url(#i)"/><path d="M4718.43 1723c-2.59-21.23-10.67-68.47-30.94-61.83-13.91 4.55-75.05 22.78-129 38.76-10.75 3.19-24.05 5.43-34.13 1.88L4665.15 1592a8.65 8.65 0 0 0 1.43-13c-14.57-15.66-48.88-49.13-61.37-31.84-8.58 11.86-47.33 62.54-81.56 107.17-6.83 8.89-16.27 18.53-26.51 21.58l49.29-171.64a8.66 8.66 0 0 0-6.5-11.39c-21-4.1-68.42-11-68.37 10.31 0 14.64-1.53 78.43-3 134.65-.29 11.21-2.27 24.55-8.77 33l-61-167.83a8.65 8.65 0 0 0-11.95-5.4c-19.4 9-61.83 31.31-49.25 48.54 8.63 11.82 44.85 64.34 76.72 110.68 6.35 9.25 12.59 21.2 12.33 31.88l-148-99.91a8.65 8.65 0 0 0-12.84 2.66c-10.39 18.7-31.61 61.67-11.31 68.21 13.93 4.49 74.11 25.69 127.13 44.45 10.57 3.74 22.64 9.75 28.71 18.54l-178.47 6.16a8.65 8.65 0 0 0-8.82 9.7c2.58 21.24 10.67 68.48 30.94 61.84 13.91-4.56 75.05-22.78 129-38.76 10.75-3.19 24.05-5.43 34.12-1.88l-140.76 109.89a8.65 8.65 0 0 0-1.43 13c14.57 15.66 48.88 49.13 61.37 31.84 8.58-11.86 47.33-62.54 81.56-107.17 6.83-8.9 16.27-18.53 26.51-21.58L4395 1957.34a8.65 8.65 0 0 0 6.5 11.39c21 4.1 68.42 11 68.37-10.32 0-14.63 1.53-78.42 3-134.64.29-11.21 2.27-24.55 8.76-33l61 167.83a8.64 8.64 0 0 0 11.95 5.39c19.4-9 61.83-31.3 49.25-48.53-8.63-11.82-44.86-64.34-76.72-110.69-6.35-9.24-12.59-21.19-12.33-31.87l148 99.91a8.66 8.66 0 0 0 12.85-2.66c10.39-18.7 31.61-61.67 11.31-68.21-13.93-4.49-74.11-25.69-127.13-44.45-10.57-3.74-22.65-9.75-28.71-18.55l178.47-6.16a8.64 8.64 0 0 0 8.86-9.78Z" transform="translate(-538.43 -654.37)" style="fill:url(#F)"/><path d="M4526.61 1656.53c32.41-42.25 72.87-95.15 81.62-107.26a7.35 7.35 0 0 1 5.88-3.26c7.71-.48 20.58 7.15 36.08 21.75 4.48 4.22 2.3 7.2-2.2 11.5-10.78 10.29-33.54 29.81-59 48.58-54.72 40.25-72.21 41.5-62.38 28.69Zm-174.09 177.17c-25.5 18.77-48.26 38.28-59 48.58-4.51 4.3-6.68 7.28-2.2 11.5 15.5 14.6 28.37 22.23 36.08 21.75a7.35 7.35 0 0 0 5.88-3.26c8.74-12.11 49.21-65 81.62-107.26 9.79-12.82-7.7-11.57-62.38 28.69Zm274.36-116.7c31.65-.2 61.54-2.6 76.31-4.59 6.17-.84 9.68-2 8.54-8-4-20.92-9.88-34.65-16.4-38.8a7.36 7.36 0 0 0-6.68-.81c-14.19 4.64-78 23.66-129.08 38.79-15.48 4.55-.57 13.82 67.31 13.41Zm-312.29 27.58c-31.65.2-61.54 2.6-76.31 4.59-6.18.84-9.69 2-8.54 8 4 20.92 9.88 34.65 16.4 38.8a7.34 7.34 0 0 0 6.67.81c14.2-4.64 78-23.66 129.09-38.79 15.48-4.59.59-13.86-67.31-13.43Zm290.57 66.83c25.73 18.45 51.32 34.07 64.44 41.14 5.49 3 9 4.11 11.62-1.46 9.09-19.26 12.37-33.85 9.54-41a7.39 7.39 0 0 0-4.92-4.58c-14.22-4.58-77-26.72-127.23-44.48-15.23-5.45-8.61 10.8 46.55 50.36Zm-268.85-161.24c-25.73-18.45-51.32-34.07-64.44-41.14-5.49-3-9-4.11-11.62 1.46-9.1 19.26-12.37 33.85-9.54 41a7.37 7.37 0 0 0 4.92 4.58c14.21 4.58 77 26.72 127.23 44.48 15.23 5.45 8.63-10.84-46.55-50.4ZM4532.1 1875c10 30 21.49 57.73 27.95 71.16 2.7 5.61 4.86 8.6 10.26 5.64 18.68-10.23 29.91-20.11 31.84-27.59a7.35 7.35 0 0 0-1.29-6.6c-8.81-12.06-46.62-66.89-76.78-110.77-9.15-13.3-13.37 3.72 8.02 68.16Zm-122.73-288.48c-10-30-21.5-57.73-27.95-71.16-2.7-5.61-4.86-8.6-10.26-5.64-18.68 10.23-29.91 20.11-31.84 27.59a7.33 7.33 0 0 0 1.29 6.59c8.81 12.06 46.62 66.9 76.78 110.78 9.15 13.32 13.37-3.68-8.02-68.15Zm26.23 297c-9.6 30.17-16.54 59.34-19.21 74-1.12 6.13-1.13 9.82 5 10.6 21.12 2.7 36 1.31 42-3.61a7.38 7.38 0 0 0 2.84-6.1c0-14.93 1.61-81.52 3-134.75.36-16.13-13.06-4.84-33.63 59.87Zm70.27-305.52c9.59-30.17 16.54-59.34 19.21-74 1.12-6.13 1.13-9.82-5-10.6-21.12-2.7-36-1.31-42 3.61a7.38 7.38 0 0 0-2.84 6.1c0 14.93-1.61 81.52-3 134.75-.36 16.14 13.06 4.86 33.63-59.86Z" transform="translate(-538.43 -654.37)" style="fill:url(#k)"/><path d="M4506.13 1767c21.39 12.43 83 44.57 83 44.57s-53.62-33.62-70.78-71a6.7 6.7 0 0 1 2.34-1.32c24.61-2.52 93.32-12.72 93.32-12.72s-63.14 4.32-99-15.8a6.88 6.88 0 0 1 1.11-2.45c18.43-16.5 68-65.14 68-65.14s-48.55 40.61-89.37 45.39a7 7 0 0 1-.54-2.63c5.22-24.19 16.75-92.69 16.75-92.69s-15.4 61.39-45.62 89.25a6.78 6.78 0 0 1-2-1.82c-10-22.63-40.93-84.83-40.93-84.83s23.62 58.73 15.55 99a6.85 6.85 0 0 1-2.67-.3c-21.39-12.43-83-44.57-83-44.57s53.63 33.62 70.79 71a6.7 6.7 0 0 1-2.34 1.32c-24.61 2.52-93.32 12.72-93.32 12.72s63.14-4.32 99 15.8a6.88 6.88 0 0 1-1.11 2.45c-18.43 16.5-68 65.14-68 65.14s48.55-40.61 89.37-45.39a7 7 0 0 1 .54 2.63c-5.22 24.19-16.75 92.69-16.75 92.69s15.4-61.39 45.62-89.25a7.08 7.08 0 0 1 2 1.81c10 22.63 40.93 84.83 40.93 84.83s-23.62-58.72-15.55-99a6.85 6.85 0 0 1 2.66.31Z" transform="translate(-538.43 -654.37)" style="fill:url(#l)"/><circle cx="4470.73" cy="1730.77" r="31.61" transform="rotate(-45 3411.617 2053.522)" style="fill:#010101"/><path d="M4500 1735.69a29.63 29.63 0 1 1-24.3-34.14 29.62 29.62 0 0 1 24.3 34.14Z" transform="translate(-538.43 -654.37)" style="fill:url(#G)"/><path d="M4470.26 1718c9.89.19 18.52 4.34 23.51 10.48a15.35 15.35 0 0 0 .45-3.33c.21-10.5-10.41-19.22-23.72-19.48-9.52-.18-17.72 4.06-21.87 10.25-3 4.43.66 8.35 7.18 4.88 4.04-2.13 9.19-2.88 14.45-2.8Z" transform="translate(-538.43 -654.37)" style="fill:#eeeded"/><path d="M4439 1752.48a10.5 10.5 0 0 0-6.82 3c-2.18 2.14-7.25 7.62-12.66 14 6.7-3.19 10.58-1.08 12.52.89a10.54 10.54 0 0 0 14.9.14 10.42 10.42 0 0 0 3-5.68c1.87 5.26.69 11.43.69 11.43s4.43-14.76-2.44-21.76-20.64-5.59-20.64-5.59 5.22-.42 11.45 3.57ZM4510.28 1732.44a10.47 10.47 0 0 0 7.27 1.59c3-.45 10.34-1.91 18.48-3.89-7.31-1.36-9.2-5.34-9.61-8.08a10.53 10.53 0 0 0-17.73-6c1.58-5.35 6.17-9.65 6.17-9.65s-12.26 9.34-10.82 19 13.41 16.65 13.41 16.65-4.52-2.75-7.17-9.62ZM4440.79 1706.73a10.5 10.5 0 0 0-4.95-5.56c-2.71-1.41-9.49-4.54-17.24-7.71 5.11 5.39 4.31 9.72 3 12.18a10.53 10.53 0 0 0 10.8 15.3c-4.43 3.4-10.67 4.18-10.67 4.18s15.41-.35 19.95-9-1.07-21.36-1.07-21.36 2.07 4.86.18 11.97ZM4481.89 1768.37a10.48 10.48 0 0 0 .74 7.41c1.36 2.73 5 9.25 9.41 16.37-1-7.36 2.24-10.4 4.71-11.63a10.52 10.52 0 0 0 4.74-14.12 10.39 10.39 0 0 0-4.48-4.6c5.58-.15 11.09 2.88 11.09 2.88s-12.68-8.77-21.46-4.41-11.69 17.91-11.69 17.91 1.23-5.18 6.94-9.81ZM4484.87 1694.34a10.44 10.44 0 0 0 3.76-6.42c.51-3 1.38-10.43 2-18.78-3.54 6.53-7.92 7.1-10.65 6.64a10.52 10.52 0 0 0-11.21 15c-4.6-3.16-7.28-8.85-7.28-8.85s5.1 14.55 14.77 16.18 20-7.62 20-7.62-4.04 3.45-11.39 3.85Z" transform="translate(-538.43 -654.37)" style="fill:#010101"/><path d="M4447.42 1763.57a7.9 7.9 0 1 1-6.48-9.1 7.89 7.89 0 0 1 6.48 9.1Z" transform="translate(-538.43 -654.37)" style="fill:url(#H)"/><path d="M4440.05 1759.75a8.59 8.59 0 0 1 6.4 5 7.41 7.41 0 0 0 .32-1.23 7.24 7.24 0 0 0-13-5.42c-1.14 1.54-.29 3.17 1.85 2.14a7.47 7.47 0 0 1 4.43-.49Z" transform="translate(-538.43 -654.37)" style="fill:url(#I)"/><circle cx="4491.62" cy="1770.85" r="7.9" transform="rotate(-80.88 3838.584 1759.52)" style="fill:url(#J)"/><path d="M4492 1768.35a8.55 8.55 0 0 1 6.4 4.94 6.93 6.93 0 0 0 .32-1.23 7.24 7.24 0 0 0-13-5.42c-1.14 1.54-.29 3.18 1.85 2.15a7.39 7.39 0 0 1 4.43-.44Z" transform="translate(-538.43 -654.37)" style="fill:url(#K)"/><path d="M4523.84 1724.64a7.9 7.9 0 1 1-6.48-9.1 7.9 7.9 0 0 1 6.48 9.1Z" transform="translate(-538.43 -654.37)" style="fill:url(#L)"/><path d="M4516.47 1720.82a8.53 8.53 0 0 1 6.39 5 7.25 7.25 0 0 0-12.71-6.66c-1.13 1.55-.28 3.18 1.86 2.15a7.45 7.45 0 0 1 4.46-.49Z" transform="translate(-538.43 -654.37)" style="fill:url(#M)"/><path d="M4438.76 1711.82a7.9 7.9 0 1 1-6.48-9.1 7.89 7.89 0 0 1 6.48 9.1Z" transform="translate(-538.43 -654.37)" style="fill:url(#N)"/><path d="M4431.39 1708a8.53 8.53 0 0 1 6.39 5 7.24 7.24 0 0 0-12.71-6.65c-1.13 1.54-.28 3.17 1.86 2.14a7.45 7.45 0 0 1 4.46-.49Z" transform="translate(-538.43 -654.37)" style="fill:url(#O)"/><path d="M4486 1687.48a7.9 7.9 0 1 1-6.48-9.1 7.9 7.9 0 0 1 6.48 9.1Z" transform="translate(-538.43 -654.37)" style="fill:url(#P)"/><path d="M4478.66 1683.66a8.53 8.53 0 0 1 6.4 4.95 7.24 7.24 0 0 0-12.71-6.65c-1.14 1.54-.29 3.17 1.85 2.14a7.47 7.47 0 0 1 4.46-.44Z" transform="translate(-538.43 -654.37)" style="fill:url(#Q)"/><path d="M4785.3 1555.83c-76.3-91.83-191.3-150.36-320.09-150.36a414.27 414.27 0 0 0-274.71 103.68 357 357 0 0 0-76.69 221.62c0 198 160.51 358.51 358.51 358.51s358.52-160.51 358.52-358.51a356.84 356.84 0 0 0-45.54-174.94Zm-313 467.39c-161.52 0-292.45-130.93-292.45-292.45s130.93-292.46 292.45-292.46 292.46 130.94 292.46 292.46-130.92 292.45-292.44 292.45Z" transform="translate(-538.43 -654.37)" style="fill:url(#m)"/><circle cx="1574.04" cy="1730.77" r="375.83" transform="rotate(-45 514.926 2053.52)" style="fill:#010101"/><path d="M1556.43 1449c-155.65 0-281.82 126.17-281.82 281.82s126.17 281.82 281.82 281.82 281.82-126.17 281.82-281.82S1712.08 1449 1556.43 1449Zm0 554.42c-150.56 0-272.61-122-272.61-272.6s122-272.6 272.61-272.6 272.6 122 272.6 272.6-122.03 272.55-272.6 272.55Z" transform="translate(-538.43 -654.37)" style="fill:url(#R)"/><path d="M1803.39 1816.69a11.43 11.43 0 0 1-9.43.6l-19.25-6.11a223.55 223.55 0 0 1-29.37 53.53c2.87 2.27 5.17 4.08 6.74 5.28a13.78 13.78 0 0 1 5.65 10.92c.56 16.48-24.22 40.82-39 53.87a11.45 11.45 0 0 1-17.14-2.31l-11.32-15.35a222.42 222.42 0 0 1-55.46 26.66c.79 2.81 1.44 5.1 1.92 6.71a13.78 13.78 0 0 1-1.85 12.16c-9.23 13.66-43.59 18.79-63.24 20.63h-1.08a11.47 11.47 0 0 1-11.44-12l-.11-17a222 222 0 0 1-61.36-10.93c-.64 1.74-1.18 3.23-1.59 4.37a13.82 13.82 0 0 1-8.64 8.76c-15.5 5.62-46.31-10.43-63.29-20.49a11.45 11.45 0 0 1-3.11-17l8.56-11.94a221.88 221.88 0 0 1-43.71-45.55c-.75.51-1.45 1-2 1.38a13.82 13.82 0 0 1-12.14 2c-15.85-4.56-31.34-35.65-39.16-53.78a11.45 11.45 0 0 1 7.49-15.59l12.35-4.1a222.44 222.44 0 0 1-8.18-63.11h-1.27a13.81 13.81 0 0 1-11-5.51c-10.14-13-4.4-47.27-.07-66.53a11.45 11.45 0 0 1 15.22-8.21l12 3.82a224 224 0 0 1 31.14-55.53l-1.28-1a13.79 13.79 0 0 1-5.66-10.93c-.56-16.47 24.23-40.81 39-53.86a11.45 11.45 0 0 1 17.14 2.31l8.09 11a222.69 222.69 0 0 1 56.35-25.49l1.33-.37c-.35-1.22-.66-2.27-.91-3.14a13.78 13.78 0 0 1 1.84-12.16c9.24-13.66 43.59-18.79 63.25-20.63a11.45 11.45 0 0 1 12.51 11.94l.11 15.77a222.27 222.27 0 0 1 61 13c.79-2.14 1.43-3.91 1.9-5.24a13.77 13.77 0 0 1 8.65-8.75c15.49-5.63 46.3 10.42 63.29 20.48a11.46 11.46 0 0 1 3.1 17l-10.57 14.75a221.47 221.47 0 0 1 41.39 45.65c2.7-1.8 4.86-3.25 6.36-4.29a13.82 13.82 0 0 1 12.14-2c15.84 4.56 31.33 35.65 39.16 53.78a11.45 11.45 0 0 1-7.49 15.59l-18.82 6.26a222.23 222.23 0 0 1 7.12 60.67c3.88.16 6.83.27 8.79.32a13.79 13.79 0 0 1 11 5.52c8.39 10.76 5.9 36.08 2.34 55.41a263.17 263.17 0 0 0 8.69-67.2c0-145.41-118.3-263.71-263.71-263.71h-.07a264.57 264.57 0 0 0-60.42 10.41c-139.89 41.19-219.91 188-178.73 327.87 32.45 110.22 130.47 183.26 239 189.14h.21c116.31 0 215.27-75.7 250.22-180.41a11.41 11.41 0 0 1-3.18 2.66Z" transform="translate(-538.43 -654.37)" style="fill:url(#S)"/><path d="M1798 1737.93c-14.63-.37-78.35-3.71-134.51-6.74-11.2-.6-24.48-3-32.78-9.68l169.46-56.31a8.64 8.64 0 0 0 5.73-11.79c-8.48-19.65-29.58-62.68-47.14-50.59-12.06 8.3-65.57 43-112.78 73.61-9.42 6.1-21.54 12-32.21 11.44l104-145.16a8.64 8.64 0 0 0-2.3-12.91c-18.4-10.91-60.76-33.32-67.87-13.21-4.87 13.8-27.74 73.36-48 125.84-4 10.46-10.38 22.37-19.34 28.19l-1.19-178.57a8.64 8.64 0 0 0-9.45-9.09c-21.3 2-68.74 8.75-62.67 29.2 4.17 14 20.68 75.66 35.15 130 2.89 10.83 4.76 24.19.93 34.17l-105.92-143.77a8.65 8.65 0 0 0-13-1.8c-16.06 14.13-50.47 47.49-33.54 60.46 11.62 8.91 61.2 49.06 104.86 84.52 8.7 7.07 18.07 16.78 20.83 27.1l-170.2-54a8.64 8.64 0 0 0-11.56 6.18c-4.69 20.87-12.91 68.08 8.4 68.63 14.64.37 78.35 3.71 134.51 6.74 11.2.6 24.48 3 32.79 9.68l-169.47 56.31a8.64 8.64 0 0 0-5.72 11.79c8.48 19.65 29.57 62.68 47.14 50.59 12.06-8.3 65.57-43 112.78-73.61 9.42-6.1 21.54-12 32.21-11.44l-104 145.16a8.66 8.66 0 0 0 2.3 12.91c18.41 10.91 60.77 33.32 67.87 13.21 4.88-13.8 27.75-73.36 48-125.84 4-10.46 10.37-22.37 19.33-28.19l1.19 178.57a8.64 8.64 0 0 0 9.45 9.09c21.3-2 68.75-8.76 62.68-29.2-4.17-14-20.68-75.66-35.16-130-2.88-10.83-4.75-24.19-.92-34.17L1703.85 1929a8.65 8.65 0 0 0 13 1.8c16.06-14.13 50.46-47.49 33.54-60.46-11.62-8.91-61.21-49.06-104.86-84.52-8.71-7.07-18.07-16.78-20.83-27.1l170.19 54a8.65 8.65 0 0 0 11.57-6.18c4.68-20.85 12.9-68.06-8.46-68.61Z" transform="translate(-538.43 -654.37)" style="fill:url(#T)"/><path d="M1603.14 1643.77c19.16-49.68 43-111.86 48-125.94a7.35 7.35 0 0 1 4.72-4.79c7.26-2.64 21.75 1 40.75 10.67 5.49 2.79 4.25 6.26 1.14 11.66-7.43 12.92-23.76 38.07-42.92 63.27-41.07 54.06-57.5 60.2-51.69 45.13Zm-117 219.13c-19.15 25.2-35.48 50.35-42.91 63.27-3.11 5.4-4.36 8.87 1.14 11.65 19 9.63 33.48 13.32 40.75 10.68a7.34 7.34 0 0 0 4.71-4.79c5-14.08 28.86-76.26 48-125.94 5.86-15.07-10.57-8.93-51.66 45.13Zm230.23-189.45c30.31-9.14 58.3-19.88 71.91-26 5.69-2.54 8.73-4.61 5.93-10.1-9.71-19-19.27-30.45-26.7-32.59a7.38 7.38 0 0 0-6.63 1.11c-12.3 8.47-68.17 44.73-112.87 73.67-13.53 8.8 3.37 13.46 68.39-6.09Zm-291.78 114.64c-30.32 9.14-58.31 19.88-71.91 26-5.69 2.54-8.74 4.61-5.93 10.09 9.71 19 19.27 30.46 26.69 32.59a7.33 7.33 0 0 0 6.63-1.1c12.3-8.47 68.17-44.73 112.87-73.67 13.59-8.8-3.31-13.49-68.32 6.09Zm297.61-17.94c29.89 10.43 58.85 18.18 73.44 21.26 6.09 1.29 9.78 1.4 10.73-4.69 3.29-21 2.31-36-2.44-42a7.36 7.36 0 0 0-6-3c-14.93-.38-81.45-3.87-134.62-6.74-16.11-.93-5.19 12.8 58.92 35.17Zm-303.44-78.76c-29.9-10.43-58.86-18.18-73.44-21.26-6.1-1.29-9.78-1.4-10.73 4.69-3.29 21-2.31 36 2.44 42a7.34 7.34 0 0 0 6 3c14.93.38 81.44 3.87 134.62 6.74 16.16.93 5.25-12.8-58.86-35.17Zm251.32 160.42c18.05 26 36.92 49.3 46.91 60.36 4.18 4.63 7.09 6.88 11.44 2.52 15-15.09 23-27.73 22.74-35.46a7.35 7.35 0 0 0-3.09-6c-11.86-9.08-63.61-51-104.95-84.58-12.5-10.15-11.74 7.35 26.98 63.16Zm-199.2-242.08c-18.06-26-36.93-49.3-46.92-60.36-4.17-4.63-7.09-6.89-11.43-2.52-15 15.09-23 27.73-22.75 35.46a7.36 7.36 0 0 0 3.1 6c11.85 9.08 63.61 51 104.94 84.58 12.57 10.11 11.81-7.38-26.91-63.16Zm109 277.5c-.68 31.66.89 61.6 2.47 76.42.66 6.19 1.7 9.73 7.78 8.76 21-3.38 34.91-8.92 39.24-15.32a7.35 7.35 0 0 0 1-6.65c-4.25-14.31-21.48-78.65-35.19-130.11-4.09-15.61-13.78-.98-15.24 66.9Zm-18.87-312.92c.68-31.66-.89-61.6-2.47-76.42-.66-6.19-1.69-9.73-7.77-8.76-21 3.38-34.92 8.92-39.24 15.32a7.35 7.35 0 0 0-1 6.65c4.25 14.31 21.48 78.65 35.18 130.11 4.22 15.6 13.9.98 15.36-66.9Z" transform="translate(-538.43 -654.37)" style="fill:url(#U)"/><path d="M1614.69 1755.52c24 5.88 92.19 19.32 92.19 19.32s-60.94-17.11-88-48.09a6.76 6.76 0 0 1 1.87-1.93c22.9-9.36 85.93-38.55 85.93-38.55s-59.35 22-99.41 12.79a6.91 6.91 0 0 1 .38-2.66c13-21 46.86-81.71 46.86-81.71s-35.1 52.67-72.91 68.78a7 7 0 0 1-1.26-2.37c-1.83-24.67-10.11-93.64-10.11-93.64s2.56 63.24-18.56 98.5a7 7 0 0 1-2.41-1.18c-16-18.89-63.22-69.82-63.22-69.82s39.24 49.66 42.88 90.6a6.91 6.91 0 0 1-2.64.46c-24-5.88-92.19-19.32-92.19-19.32s60.94 17.11 87.94 48.09a6.91 6.91 0 0 1-1.86 1.93c-22.9 9.36-85.94 38.55-85.94 38.55s59.36-22 99.41-12.79a6.77 6.77 0 0 1-.37 2.66c-13 21-46.86 81.71-46.86 81.71s35.1-52.67 72.9-68.79a6.65 6.65 0 0 1 1.26 2.38c1.83 24.67 10.12 93.64 10.12 93.64s-2.56-63.24 18.55-98.5a7 7 0 0 1 2.42 1.18c16 18.89 63.22 69.82 63.22 69.82s-39.25-49.66-42.88-90.6a6.68 6.68 0 0 1 2.69-.46Z" transform="translate(-538.43 -654.37)" style="fill:url(#V)"/><circle cx="1570.51" cy="1730.77" r="31.61" transform="rotate(-47.07 550.166 2021.747)" style="fill:#010101"/><circle cx="1570.51" cy="1730.77" r="29.63" transform="rotate(-52.7 640.682 1947.087)" style="fill:url(#W)"/><path d="M1568.34 1718.2c9.83-1.18 19 1.73 24.73 7.12a15.19 15.19 0 0 0 0-3.37c-1.26-10.42-13-17.58-26.2-16-9.45 1.14-17 6.47-20.23 13.18-2.33 4.79 1.8 8.18 7.78 3.84 3.7-2.69 8.71-4.15 13.92-4.77Z" transform="translate(-538.43 -654.37)" style="fill:#eeeded"/><path d="M1546.15 1760.58a10.46 10.46 0 0 0-5.7 4.79c-1.48 2.66-4.8 9.36-8.19 17 5.53-5 9.85-4 12.26-2.68a10.54 10.54 0 0 0 15.6-10.37c3.27 4.52 3.88 10.78 3.88 10.78s.08-15.42-8.48-20.19-21.38.47-21.38.47 4.95-1.89 12.01.2ZM1608.91 1721.21a10.55 10.55 0 0 0 7.43-.53c2.77-1.29 9.38-4.75 16.62-9-7.38.76-10.33-2.53-11.49-5a10.53 10.53 0 0 0-18.71-.78c0-5.58 3.19-11 3.19-11s-9.12 12.42-5 21.32 17.57 12.18 17.57 12.18-5.13-1.4-9.61-7.19ZM1535 1716.17a10.46 10.46 0 0 0-6.31-3.94c-3-.59-10.39-1.67-18.72-2.53 6.43 3.72 6.88 8.12 6.34 10.83a10.52 10.52 0 0 0 14.68 11.62c-3.28 4.52-9 7-9 7s14.68-4.69 16.57-14.31-7-20.18-7-20.18 3.24 4.15 3.44 11.51ZM1591.83 1763.69a10.46 10.46 0 0 0 2.8 6.9c2.08 2.24 7.42 7.46 13.65 13.05-3-6.79-.79-10.61 1.24-12.49a10.53 10.53 0 0 0-5-18c5.31-1.72 11.45-.36 11.45-.36s-14.64-4.84-21.83 1.83-6.15 20.47-6.15 20.47-.32-5.33 3.84-11.4ZM1573.78 1691.83a10.44 10.44 0 0 0 1.79-7.22c-.36-3-1.61-10.39-3.37-18.58-1.56 7.26-5.6 9-8.34 9.37a10.52 10.52 0 0 0-6.52 17.56c-5.31-1.73-9.48-6.43-9.48-6.43s9 12.51 18.73 11.34 17-12.94 17-12.94-2.87 4.45-9.81 6.9Z" transform="translate(-538.43 -654.37)" style="fill:#010101"/><path d="M1557.41 1768.82a7.9 7.9 0 1 1-8.79-6.9 7.9 7.9 0 0 1 8.79 6.9Z" transform="translate(-538.43 -654.37)" style="fill:url(#X)"/><path d="M1549.26 1767.24a8.54 8.54 0 0 1 7.53 2.94 7.85 7.85 0 0 0 0-1.28 7.25 7.25 0 0 0-14-1.51c-.65 1.8.63 3.12 2.38 1.53a7.48 7.48 0 0 1 4.09-1.68Z" transform="translate(-538.43 -654.37)" style="fill:url(#Y)"/><path d="M1609.71 1762.38a7.9 7.9 0 1 1-8.79-6.9 7.91 7.91 0 0 1 8.79 6.9Z" transform="translate(-538.43 -654.37)" style="fill:url(#Z)"/><path d="M1601.56 1760.8a8.54 8.54 0 0 1 7.53 2.94 7.85 7.85 0 0 0 0-1.28 7.25 7.25 0 0 0-14-1.51c-.65 1.79.63 3.12 2.39 1.53a7.42 7.42 0 0 1 4.08-1.68Z" transform="translate(-538.43 -654.37)" style="fill:url(#aa)"/><circle cx="1611.88" cy="1710.83" r="7.9" transform="rotate(-29.75 110.654 2397.108)" style="fill:url(#ab)"/><path d="M1611.57 1708.31a8.54 8.54 0 0 1 7.53 2.94 7.85 7.85 0 0 0 0-1.28 7.25 7.25 0 0 0-14-1.51c-.65 1.79.63 3.12 2.39 1.53a7.42 7.42 0 0 1 4.08-1.68Z" transform="translate(-538.43 -654.37)" style="fill:url(#ac)"/><path d="M1534.48 1721.62a7.9 7.9 0 1 1-8.78-6.9 7.9 7.9 0 0 1 8.78 6.9Z" transform="translate(-538.43 -654.37)" style="fill:url(#ad)"/><path d="M1526.33 1720a8.55 8.55 0 0 1 7.53 2.94 6.87 6.87 0 0 0 0-1.28 7.25 7.25 0 0 0-8.06-6.33 7.34 7.34 0 0 0-6 4.82c-.65 1.8.63 3.12 2.39 1.53a7.45 7.45 0 0 1 4.14-1.68Z" transform="translate(-538.43 -654.37)" style="fill:url(#ae)"/><path d="M1573 1684.92a7.9 7.9 0 1 1-8.79-6.9 7.9 7.9 0 0 1 8.79 6.9Z" transform="translate(-538.43 -654.37)" style="fill:url(#af)"/><path d="M1564.81 1683.34a8.54 8.54 0 0 1 7.53 2.94 7.85 7.85 0 0 0 0-1.28 7.25 7.25 0 0 0-14-1.51c-.65 1.8.62 3.12 2.38 1.53a7.48 7.48 0 0 1 4.09-1.68Z" transform="translate(-538.43 -654.37)" style="fill:url(#ag)"/><path d="M1917.54 1688.43c-51.81-163.66-204.89-282.28-385.69-282.28a402.62 402.62 0 0 0-212.45 60.24 357.56 357.56 0 0 0-116.4 264.38c0 198 160.51 358.51 358.51 358.51S1920 1928.77 1920 1730.77a360.86 360.86 0 0 0-2.46-42.34Zm-356 334.79c-161.52 0-292.45-130.93-292.45-292.45s130.93-292.46 292.45-292.46S1854 1569.25 1854 1730.77s-130.95 292.45-292.47 292.45Z" transform="translate(-538.43 -654.37)" style="fill:url(#ah)"/></svg>