<svg id="Layer_1" data-name="Layer 1" xmlns="http://www.w3.org/2000/svg" xmlns:xlink="http://www.w3.org/1999/xlink" viewBox="0 0 3284.4 1083.45"><defs><linearGradient id="linear-gradient" x1="3996.25" y1="-258.09" x2="3880.85" y2="-261.45" gradientTransform="translate(4022.17 403.02) rotate(180)" gradientUnits="userSpaceOnUse"><stop offset="0.05" stop-color="#c8d6d4"/><stop offset="0.8" stop-color="#6b7482"/></linearGradient><linearGradient id="linear-gradient-2" x1="3673.12" y1="-278.34" x2="3921.94" y2="-243.32" gradientTransform="translate(4022.17 403.02) rotate(180)" gradientUnits="userSpaceOnUse"><stop offset="0.32" stop-color="#000007"/><stop offset="0.44" stop-color="#04040a"/><stop offset="0.57" stop-color="#100f15"/><stop offset="0.69" stop-color="#242126"/><stop offset="0.8" stop-color="#3b3639"/></linearGradient><linearGradient id="linear-gradient-3" x1="3253.27" y1="-757.61" x2="3425.14" y2="-77.87" gradientTransform="translate(4022.17 403.02) rotate(180)" gradientUnits="userSpaceOnUse"><stop offset="0.05" stop-color="#141414"/><stop offset="0.71"/></linearGradient><linearGradient id="linear-gradient-4" x1="790.15" y1="184.59" x2="4011.83" y2="184.59" gradientTransform="translate(4022.17 403.02) rotate(180)" gradientUnits="userSpaceOnUse"><stop offset="0.05" stop-color="#c8d6d4"/><stop offset="0.8" stop-color="#b6bdc2"/></linearGradient><linearGradient id="linear-gradient-5" x1="2789.38" y1="-541.94" x2="2788.62" y2="1.88" xlink:href="#linear-gradient"/><linearGradient id="linear-gradient-6" x1="1113.93" y1="-488.67" x2="1185.42" y2="67.3" xlink:href="#linear-gradient"/><linearGradient id="linear-gradient-7" x1="821.59" y1="-338.43" x2="814.2" y2="-183.91" gradientTransform="translate(4022.17 403.02) rotate(180)" gradientUnits="userSpaceOnUse"><stop offset="0.23" stop-color="#0e0d17"/><stop offset="0.48" stop-color="#12111a"/><stop offset="0.73" stop-color="#1e1c22"/><stop offset="0.95" stop-color="#2f2b2e"/></linearGradient><linearGradient id="linear-gradient-8" x1="1141.78" y1="-121.76" x2="1216.52" y2="-619.49" xlink:href="#linear-gradient-3"/><linearGradient id="linear-gradient-9" x1="1186.94" y1="-167.04" x2="1186.94" y2="-677.44" gradientTransform="translate(4022.17 403.02) rotate(180)" gradientUnits="userSpaceOnUse"><stop offset="0.05" stop-color="#1c1c1c"/><stop offset="0.65"/></linearGradient><linearGradient id="linear-gradient-10" x1="1102.95" y1="-220.49" x2="1194.58" y2="105.57" gradientTransform="matrix(-0.98, -0.2, 0.2, -0.98, 3966.79, 998.1)" gradientUnits="userSpaceOnUse"><stop offset="0.05" stop-color="#1c1c1c"/><stop offset="0.34" stop-color="#0c0c0c"/><stop offset="0.65"/></linearGradient><linearGradient id="linear-gradient-11" x1="1102.95" y1="-220.49" x2="1194.58" y2="105.57" gradientTransform="matrix(-0.98, -0.2, 0.2, -0.98, 3966.79, 998.1)" gradientUnits="userSpaceOnUse"><stop offset="0.05" stop-color="#171717"/><stop offset="0.21" stop-color="#111"/><stop offset="0.65" stop-color="#050505"/></linearGradient><linearGradient id="linear-gradient-12" x1="3340.71" y1="-103.12" x2="3415.46" y2="-600.92" xlink:href="#linear-gradient-3"/><linearGradient id="linear-gradient-13" x1="3385.86" y1="-148.46" x2="3385.86" y2="-658.8" xlink:href="#linear-gradient-9"/><linearGradient id="linear-gradient-14" x1="3260.48" y1="-645.53" x2="3352.11" y2="-319.46" xlink:href="#linear-gradient-10"/><linearGradient id="linear-gradient-15" x1="3260.48" y1="-645.53" x2="3352.11" y2="-319.46" xlink:href="#linear-gradient-11"/><linearGradient id="linear-gradient-16" x1="1207.07" y1="216.41" x2="2840.84" y2="216.41" gradientTransform="translate(4022.17 403.02) rotate(180)" gradientUnits="userSpaceOnUse"><stop offset="0.23" stop-color="#0e0d17"/><stop offset="0.42" stop-color="#12121c"/><stop offset="0.67" stop-color="#1f2129"/><stop offset="0.93" stop-color="#343a3f"/><stop offset="0.95" stop-color="#353c41"/></linearGradient><linearGradient id="linear-gradient-17" x1="991.43" y1="-60.03" x2="1383.57" y2="-60.03" gradientTransform="translate(4022.17 403.02) rotate(180)" gradientUnits="userSpaceOnUse"><stop offset="0.2" stop-color="#959ba0"/><stop offset="0.95" stop-color="#bbc8c6"/></linearGradient><linearGradient id="linear-gradient-18" x1="3632.12" y1="-352.46" x2="3982.98" y2="-352.46" xlink:href="#linear-gradient-7"/><linearGradient id="linear-gradient-19" x1="1538.3" y1="268.64" x2="1535.81" y2="410.21" gradientTransform="translate(3284.4 1084) rotate(180)" gradientUnits="userSpaceOnUse"><stop offset="0.2" stop-color="#383c45"/><stop offset="0.95" stop-color="#7f818c"/></linearGradient><linearGradient id="linear-gradient-20" x1="56.17" y1="394.64" x2="69.79" y2="626.69" gradientTransform="translate(3284.4 1084) rotate(180)" gradientUnits="userSpaceOnUse"><stop offset="0.41" stop-color="#5d6572"/><stop offset="0.5" stop-color="#676f7a"/><stop offset="0.65" stop-color="#808a91"/><stop offset="0.84" stop-color="#aab5b6"/><stop offset="0.88" stop-color="#b3bfbe"/></linearGradient></defs><path d="M123.33,648.1c1.22,7.92,2.84,20.92,2,31.75-4.86.15-80.19-9.88-86.11-14.29,8.2-4.86,77.14-16.24,84.14-17.46Z" transform="translate(0 -0.02)" style="fill:url(#linear-gradient)"/><path d="M2494.23,876.39c-1-28.85-3.28-50-4.88-67.22-30.11,2.36-1484.31-12-1527-12C922.71,813,941,844.48,940.48,876.39c59-4.54,1529.2.9,1553.75,0Z" transform="translate(0 -0.02)"/><path d="M2495.17,708c-26.7.92-1429.84-6.91-1473.6-5.27.91,11.7,4.56,70.77,8.66,95.88,20.06,1,1438.06,19.08,1460.45,18.63-.28-9.11-1.32-71.24,4.49-109.24Z" transform="translate(0 -0.02)"/><path d="M329.9,712.6c-9.11-.84-194.11-27.41-212.8-29.23,1.37-8.21,2.72-46.51,3.8-56.35,9.72,1.21,182.88,10.32,205.35,17C342.17,658.88,334,687.44,329.9,712.6Z" transform="translate(0 -0.02)" style="fill:url(#linear-gradient-2)"/><path d="M820.36,445c13.81,7.3,165.71,206.94,172.09,220.59s19.13,65.64,24.6,84.12c.91,13.93-58.32,94.62-58.32,126.83-65.61,98.71-139.58,89.56-164.05,92-16.2-5.41-315.89-66.75-425-124.64-18.52-46.75-38.09-28.25-41-32,.91-18.08-10.63-140.89-7.89-162.76,20-18.22,116.64-162.21,147.28-200.9C500.53,443.29,780.09,447.76,820.36,445Z" transform="translate(0 -0.02)" style="fill:url(#linear-gradient-3)"/><path d="M3016.17,474.19C2964.81,466,2681.1,458.7,2659.6,456c-11.42,8.2-147.13,208.69-169,244.41-3.65,31.17,1.7,165.8,1.82,172.86,7,.1,20.73.2,27.34-.18,27.34,45.72,79.28,78.67,100.7,87.11,13.26-10.25,379-142.75,427-143.94S3121,804.09,3129.18,799c7.29-6.58,44.05-27.75,80.5-33.93-5.51-6.17-167.68-264.48-193.51-290.91Z" transform="translate(0 -0.02)"/><path d="M3232,436.84C3144.54,429.08,178,269.75,10.34,260,212.05,213.87,1684.74,0,1913.17,0,2209.64,65.62,3232,436.84,3232,436.84Z" transform="translate(0 -0.02)" style="fill:url(#linear-gradient-4)"/><path d="M0,260c62,3.65,2406.48,129,2467.3,132.32.13,49.68-9.8,368.31-15.87,404.76-30.37,1.2-1388.85-15.8-1407.08-15.8-5.46-22.78-8.5-69.26-10.93-91.13C1014,665.87,890,471.45,853.58,432.11c-48.6-.47-330.5-4.4-403.41,0C416.17,477.82,338.4,593,306.81,646.43,292.23,651.28,56.5,631.85,56.5,631.85,47.39,553.47,7.29,309.24,0,260Z" transform="translate(0 -0.02)" style="fill:url(#linear-gradient-5)"/><path d="M3243.69,438.7c-36.46-3.68-731.08-43.89-776.37-46.36.38,33-6.9,271.59-9.38,327.11,15.2-27.4,167.12-253.24,182.61-275.11,25.52,0,369.64,6.09,389.08,9.09,18.81,29,125.53,202.59,136.47,216.59,13.37-.61,71.52-5.37,98.25-7.8,6.05-17,20.05-174.83,20.05-174.83l-40.71-48.69Z" transform="translate(0 -0.02)" style="fill:url(#linear-gradient-6)"/><path d="M3268,660.1c-19.13,2.28-113.46,10.92-134,12.71-.48,4.56-5,98-10.48,131.24,20-11.85,115.28-27.34,123.48-29.62.46-5.43,1.83-10.9,0-15,6.38-7.29,21.19-35.54,26.09-43.29.8-5.46,4.9-41.69,5.13-50.8-2.26-2.74-6.61-4.33-10.26-5.24Z" transform="translate(0 -0.02)" style="fill:url(#linear-gradient-7)"/><path d="M2592.25,813.23c-.24,5.34-.31,10.64-.24,15.92l-9,.65a6.36,6.36,0,0,0-5.9,6.78l1,13.76a6.4,6.4,0,0,0,6.8,5.91l9-.64c.65,5.29,1.45,10.54,2.45,15.74l-8.72,2.18a6.38,6.38,0,0,0-4.61,7.71l3.33,13.38a6.36,6.36,0,0,0,7.7,4.64l8.7-2.17q2.41,7.59,5.28,15l-8.25,3.69a6.38,6.38,0,0,0-3.22,8.39l5.6,12.6a6.37,6.37,0,0,0,8.4,3.23l8.27-3.69q3.63,7.17,7.7,14l-7.46,5a6.36,6.36,0,0,0-1.7,8.82l7.7,11.44a6.4,6.4,0,0,0,8.83,1.73l7.53-5.1q4.79,6.38,10,12.37l-6.52,6.32h0a6.36,6.36,0,0,0-.14,9l9.58,9.93a6.37,6.37,0,0,0,9,.16l6.48-6.28c3.84,3.61,7.89,7.06,12,10.42l-5.29,7.33a6.37,6.37,0,0,0,1.41,8.89l11.15,8.1A6.37,6.37,0,0,0,2698,1037l5.31-7.32c4.46,2.87,9,5.66,13.64,8.26L2713,1046a6.36,6.36,0,0,0,2.94,8.5l12.4,6,0,0a6.34,6.34,0,0,0,8.46-3l3.93-8.08c4.89,2,9.89,3.91,14.89,5.65l-2.47,8.7a6.39,6.39,0,0,0,4.37,7.88l13.25,3.78a6.36,6.36,0,0,0,7.87-4.34l2.49-8.74c5.14,1.16,10.35,2.23,15.63,3.06l-.94,9a6.4,6.4,0,0,0,5.67,7l13.71,1.42h0a6.35,6.35,0,0,0,7-5.64l.94-9q8,.35,15.92.23l.65,9.06a6.36,6.36,0,0,0,6.8,5.88l13.75-1h0a6.35,6.35,0,0,0,5.89-6.78l-.64-9q8-1,15.75-2.45l2.18,8.73a6.38,6.38,0,0,0,7.71,4.62l13.39-3.34h0a6.35,6.35,0,0,0,4.62-7.7l-2.2-8.72c5.06-1.59,10.12-3.37,15.06-5.26l3.68,8.27a6.38,6.38,0,0,0,8.41,3.2l12.65-5.67a6.39,6.39,0,0,0,3.21-8.41l-3.68-8.28c4.72-2.44,9.38-5,13.94-7.71l5,7.49a6.37,6.37,0,0,0,8.84,1.7l11.43-7.7a6.37,6.37,0,0,0,1.73-8.83l-5.11-7.55q6.38-4.8,12.37-10l6.32,6.55a6.37,6.37,0,0,0,9,.14l9.92-9.58,0,0a6.35,6.35,0,0,0,.14-9l-6.3-6.51c3.62-3.89,7.07-7.92,10.43-12l7.35,5.33a6.38,6.38,0,0,0,8.88-1.42l8.1-11.15,0,0a6.34,6.34,0,0,0-1.44-8.86l-7.32-5.32c2.88-4.46,5.65-9,8.26-13.63l8.07,3.94a6.36,6.36,0,0,0,8.5-2.94l6.06-12.39h0a6.38,6.38,0,0,0-3-8.51l-8.09-4c2.05-4.89,3.9-9.89,5.65-14.89l8.72,2.49a6.37,6.37,0,0,0,7.86-4.37l3.8-13.25a6.37,6.37,0,0,0-4.37-7.86l-8.73-2.5c1.17-5.17,2.22-10.36,3.06-15.64l9,.94a6.37,6.37,0,0,0,7-5.67l1.45-13.71h0a6.37,6.37,0,0,0-5.68-7l-9-.94c.23-5.35.3-10.65.23-15.93l9.06-.63a6.37,6.37,0,0,0,5.89-6.79l-1-13.76a6.4,6.4,0,0,0-6.81-5.91l-9,.64q-1-7.94-2.44-15.74l8.72-2.18a6.37,6.37,0,0,0,4.63-7.72l-3.33-13.37v-.05a6.35,6.35,0,0,0-7.71-4.58l-8.73,2.17c-1.56-5-3.36-10-5.24-15l8.26-3.69a6.36,6.36,0,0,0,3.21-8.4l-5.58-12.59a6.39,6.39,0,0,0-8.44-3.22l-8.27,3.68c-2.43-4.73-5-9.4-7.7-13.94l7.49-5a6.38,6.38,0,0,0,1.71-8.83l-7.78-11.47h0a6.36,6.36,0,0,0-8.83-1.7l-7.52,5.08q-4.82-6.37-10-12.37l6.52-6.31,0,0a6.35,6.35,0,0,0,.12-9l-9.58-9.93a6.37,6.37,0,0,0-9-.14l-6.46,6.26c-3.85-3.61-7.88-7.06-12-10.42l5.3-7.32a6.36,6.36,0,0,0-1.4-8.88l-11.17-8.11h0a6.35,6.35,0,0,0-8.87,1.42l-5.32,7.32c-4.45-2.89-9-5.67-13.64-8.26l3.94-8a6.38,6.38,0,0,0-2.94-8.52l-12.39-6a6.38,6.38,0,0,0-8.49,2.91l-3.93,8.08c-4.9-2-9.9-3.92-14.9-5.66l2.49-8.68a6.37,6.37,0,0,0-4.37-7.87L2899.72,575h0a6.37,6.37,0,0,0-7.88,4.37l-2.49,8.7c-5.14-1.17-10.35-2.22-15.63-3.06l.94-9a6.37,6.37,0,0,0-5.67-7l-13.7-1.43a6.37,6.37,0,0,0-7,5.66l-.92,9c-5.34-.23-10.65-.32-15.94-.23l-.62-9a6.42,6.42,0,0,0-6.81-5.91l-13.74,1h0a6.35,6.35,0,0,0-5.89,6.78l.64,9c-5.28.66-10.55,1.45-15.76,2.45l-2.17-8.7a6.39,6.39,0,0,0-7.71-4.64L2766,576.34h0a6.34,6.34,0,0,0-4.59,7.7l2.17,8.7c-5,1.58-10,3.36-15,5.26l-3.67-8.23a6.39,6.39,0,0,0-8.4-3.23l-12.61,5.61a6.38,6.38,0,0,0-3.21,8.4l3.68,8.26c-4.77,2.43-9.44,5-14,7.7l-5-7.45a6.38,6.38,0,0,0-8.83-1.72L2685,615.07a6.36,6.36,0,0,0-1.73,8.82l5.09,7.52q-6.37,4.79-12.38,10l-6.29-6.51a6.38,6.38,0,0,0-9-.16l-9.92,9.59,0,0a6.32,6.32,0,0,0-.12,9l6.28,6.48c-3.62,3.84-7.08,7.88-10.44,12l-7.3-5.3a6.41,6.41,0,0,0-8.89,1.41l-8.1,11.16h0a6.36,6.36,0,0,0,1.42,8.88l7.3,5.3c-2.87,4.45-5.65,9-8.26,13.64l-8.06-3.92a6.35,6.35,0,0,0-8.48,2.92l-6,12.4,0,.05a6.33,6.33,0,0,0,2.95,8.45l8.06,3.94c-2.05,4.89-3.9,9.89-5.66,14.89l-8.67-2.47a6.39,6.39,0,0,0-7.86,4.36l-3.8,13.26h0a6.36,6.36,0,0,0,4.36,7.87l8.72,2.49c-1.17,5.15-2.23,10.34-3.07,15.62l-9-.92a6.38,6.38,0,0,0-7,5.65l-1.45,13.73v0a6.36,6.36,0,0,0,5.67,7Z" transform="translate(0 -0.02)" style="fill:#231f20"/><path d="M2598.56,838.17c.28,5.19.78,10.34,1.39,15.45l-8.68,1.53a6.21,6.21,0,0,0-5,7.17l2.32,13.23a6.2,6.2,0,0,0,7.18,5l8.66-1.54c1.21,5.06,2.51,10.06,4,15l-8.21,3a6.2,6.2,0,0,0-3.69,7.93l4.57,12.63,0,0a6.21,6.21,0,0,0,8,3.66l8.21-3c2,4.73,4.27,9.4,6.61,14l-7.61,4.4a6.21,6.21,0,0,0-2.26,8.46l6.69,11.63a6.22,6.22,0,0,0,8.47,2.28l7.64-4.41c2.87,4.33,5.76,8.6,8.87,12.72L2639,973a6.19,6.19,0,0,0-.76,8.71l8.62,10.3a6.2,6.2,0,0,0,8.73.79l6.77-5.7q5.35,5.7,11,11l-5.67,6.78a6.19,6.19,0,0,0,.76,8.71l10.28,8.65a6.19,6.19,0,0,0,8.72-.75l5.66-6.74c4.13,3.1,8.39,6,12.71,8.87l-4.38,7.63a6.2,6.2,0,0,0,2.26,8.46l11.62,6.72a6.21,6.21,0,0,0,8.47-2.26l4.4-7.63c4.56,2.33,9.23,4.6,14,6.6l-3,8.22a6.2,6.2,0,0,0,3.7,7.93l12.61,4.6.07,0a6.2,6.2,0,0,0,7.93-3.72l3-8.24c4.92,1.52,9.93,2.83,15,4l-1.53,8.67a6.2,6.2,0,0,0,5,7.18l13.21,2.33h0a6.17,6.17,0,0,0,7.15-5l1.54-8.71c5.1.61,10.23,1.11,15.45,1.38v8.8a6.21,6.21,0,0,0,6.19,6.19H2842a6.2,6.2,0,0,0,6.21-6.18v-8.81c5.2-.29,10.34-.78,15.46-1.38l1.53,8.7a6.2,6.2,0,0,0,7.18,5l13.23-2.32a6.2,6.2,0,0,0,5-7.18l-1.53-8.69c5.07-1.19,10.06-2.5,15-4l3,8.25a6.22,6.22,0,0,0,7.95,3.68l12.63-4.58a6.19,6.19,0,0,0,3.7-7.93l-3-8.23c4.73-2.05,9.4-4.27,14-6.62l4.4,7.63a6.22,6.22,0,0,0,8.47,2.27l11.63-6.71a6.21,6.21,0,0,0,2.27-8.46l-4.42-7.65c4.33-2.87,8.6-5.77,12.73-8.87l5.64,6.74a6.2,6.2,0,0,0,8.73.75l10.29-8.63,0,0a6.16,6.16,0,0,0,.74-8.68l-5.69-6.79c3.81-3.58,7.47-7.22,11-11l6.78,5.7a6.2,6.2,0,0,0,8.73-.79l8.64-10.27h0a6.2,6.2,0,0,0-.78-8.72l-6.73-5.67q4.63-6.21,8.85-12.73l7.65,4.43a6.23,6.23,0,0,0,8.46-2.28l6.73-11.61h0a6.2,6.2,0,0,0-2.27-8.47l-7.63-4.41c2.33-4.57,4.6-9.23,6.6-14l8.23,3a6.21,6.21,0,0,0,7.94-3.7l4.61-12.62a6.21,6.21,0,0,0-3.72-7.94l-8.25-3c1.52-4.93,2.83-9.94,4-15l8.69,1.53a6.19,6.19,0,0,0,7.16-5l2.35-13.22a6.2,6.2,0,0,0-5-7.17l-8.71-1.54c.61-5.11,1.11-10.25,1.38-15.45h8.81a6.19,6.19,0,0,0,6.18-6.2V818.5a6.19,6.19,0,0,0-6.2-6.18h-8.81c-.27-5.21-.77-10.35-1.38-15.45l8.7-1.54a6.2,6.2,0,0,0,5-7.17l-2.27-13.26a6.21,6.21,0,0,0-7.19-5l-8.67,1.54c-1.2-5.06-2.5-10.07-4-15l8.24-3a6.2,6.2,0,0,0,3.7-7.94l-4.58-12.63,0-.09a6.18,6.18,0,0,0-8-3.6l-8.22,3c-2-4.73-4.28-9.4-6.62-14l7.63-4.4a6.21,6.21,0,0,0,2.27-8.47l-6.71-11.63v0a6.19,6.19,0,0,0-8.46-2.25l-7.64,4.41c-2.87-4.33-5.76-8.6-8.87-12.73l6.72-5.64a6.21,6.21,0,0,0,.78-8.73l-8.63-10.29v0a6.21,6.21,0,0,0-8.74-.74l-6.76,5.68q-5.33-5.72-11-11l5.69-6.78a6.19,6.19,0,0,0-.77-8.72l-10.28-8.64h0a6.21,6.21,0,0,0-8.75.77l-5.63,6.73c-4.13-3.11-8.39-6-12.72-8.87l4.4-7.64a6.22,6.22,0,0,0-2.27-8.47L2955.17,604h0a6.2,6.2,0,0,0-8.45,2.34l-4.39,7.62c-4.56-2.34-9.22-4.61-14-6.61l3-8.21,0,0a6.22,6.22,0,0,0-3.72-8L2915,586.56l0,0a6.22,6.22,0,0,0-8,3.72l-3,8.24c-4.93-1.52-9.94-2.83-15-4l1.52-8.65a6.22,6.22,0,0,0-5-7.2l-13.23-2.33a6.22,6.22,0,0,0-7.18,5l-1.53,8.68c-5.1-.61-10.26-1.1-15.46-1.39v-8.78a6.2,6.2,0,0,0-6.19-6.2h-13.43a6.2,6.2,0,0,0-6.19,6.2v8.78c-5.2.29-10.34.78-15.45,1.39l-1.52-8.68a6.25,6.25,0,0,0-7.18-5l-13.23,2.33a6.21,6.21,0,0,0-5,7.17l1.54,8.67c-5,1.2-10.06,2.5-15,4l-3-8.21a6.22,6.22,0,0,0-7.93-3.7l-12.62,4.58h0a6.2,6.2,0,0,0-3.71,7.93l3,8.22c-4.73,2-9.41,4.27-14,6.61l-4.41-7.61a6.22,6.22,0,0,0-8.45-2.26l-11.64,6.7a6.21,6.21,0,0,0-2.27,8.46l4.41,7.63c-4.33,2.88-8.6,5.77-12.73,8.88l-5.64-6.71a6.2,6.2,0,0,0-8.71-.77l-10.3,8.63h0a6.2,6.2,0,0,0-.78,8.72l5.69,6.78q-5.67,5.32-11,11l-6.74-5.67a6.22,6.22,0,0,0-8.73.76l-8.65,10.29a6.2,6.2,0,0,0,.76,8.72l6.73,5.63c-3.1,4.14-6.05,8.4-8.88,12.74l-7.62-4.39a6.21,6.21,0,0,0-8.44,2.26l-6.74,11.64a6.2,6.2,0,0,0,2.27,8.46l7.61,4.38c-2.33,4.61-4.6,9.27-6.6,14l-8.2-3a6.21,6.21,0,0,0-7.94,3.68l-4.61,12.63h0a6.19,6.19,0,0,0,3.7,7.93l8.22,3c-1.53,4.93-2.82,9.94-4,15l-8.65-1.52a6.22,6.22,0,0,0-7.18,5l-2.33,13.22v0a6.17,6.17,0,0,0,5,7.15l8.69,1.53c-.6,5.11-1.1,10.25-1.38,15.45h-8.78a6.22,6.22,0,0,0-6.19,6.18V832a6.2,6.2,0,0,0,6.19,6.2Z" transform="translate(0 -0.02)" style="fill:url(#linear-gradient-8)"/><path d="M2828.55,1080.46h-.14a9.88,9.88,0,0,1-9.78-10v-5.37c-2.81-.2-5.7-.47-8.81-.8l-.94,5.31,0,.15a9.77,9.77,0,0,1-11.37,7.85l-13.21-2.33a9.87,9.87,0,0,1-8-11.4l.93-5.29c-3-.72-5.8-1.47-8.57-2.26l-1.81,5a10,10,0,0,1-12.63,5.88l-12.6-4.59a9.87,9.87,0,0,1-5.89-12.6l1.82-5c-2.55-1.15-5.21-2.39-8-3.77l-2.68,4.63a10.09,10.09,0,0,1-13.46,3.62l-11.61-6.72h0a9.84,9.84,0,0,1-3.6-13.43l2.68-4.67c-2.58-1.73-5-3.41-7.26-5.06l-3.44,4.1a10.1,10.1,0,0,1-13.88,1.22l-10.27-8.64a9.85,9.85,0,0,1-1.22-13.85l3.48-4.15q-3.18-3.07-6.26-6.25l-4.13,3.47a10.12,10.12,0,0,1-13.89-1.22l-8.6-10.29a9.85,9.85,0,0,1,1.19-13.86l4.1-3.43c-1.58-2.27-3.25-4.66-5-7.27l-4.65,2.69a10.14,10.14,0,0,1-13.47-3.61l-6.68-11.62a9.84,9.84,0,0,1,3.59-13.44l4.63-2.68c-1.38-2.79-2.63-5.45-3.78-8l-5,1.81a10,10,0,0,1-12.64-5.88l-4.56-12.62A9.85,9.85,0,0,1,2599,893.5l5-1.82c-.77-2.7-1.51-5.56-2.26-8.56l-5.26.93-.1,0a9.81,9.81,0,0,1-11.32-8l-2.31-13.21v0a9.83,9.83,0,0,1,8-11.37l5.31-.94c-.33-3.11-.6-6-.8-8.82h-5.42a9.87,9.87,0,0,1-9.79-9.85V818.41a9.86,9.86,0,0,1,9.83-9.82h5.36c.21-3,.48-5.89.79-8.82l-5.29-.92h0a9.84,9.84,0,0,1-8-11.41l2.33-13.22s0-.08,0-.11a9.79,9.79,0,0,1,11.38-7.89l5.27.93c.74-3,1.49-5.86,2.26-8.56l-5-1.82a9.63,9.63,0,0,1-5.55-5,9.76,9.76,0,0,1-.36-7.59l4.62-12.61a10,10,0,0,1,12.6-5.87l5,1.8c1.14-2.51,2.38-5.14,3.79-8l-4.63-2.66h0a9.83,9.83,0,0,1-3.6-13.44l6.72-11.62a10.11,10.11,0,0,1,13.43-3.61l4.65,2.68c1.72-2.56,3.39-5,5.06-7.27l-4.09-3.42a9.65,9.65,0,0,1-3.47-6.63,9.84,9.84,0,0,1,2.25-7.25L2644,656a10.13,10.13,0,0,1,13.87-1.21l4.13,3.46q3.09-3.19,6.26-6.25l-3.48-4.13h0A9.83,9.83,0,0,1,2666,634l10.29-8.63a10.12,10.12,0,0,1,13.85,1.22l3.44,4.08c2.27-1.57,4.65-3.25,7.27-5l-2.69-4.64a9.84,9.84,0,0,1,3.69-13.38l11.62-6.71a10.14,10.14,0,0,1,13.44,3.6l2.68,4.63c2.79-1.38,5.44-2.63,8-3.78l-1.81-5a9.69,9.69,0,0,1,.29-7.49,9.86,9.86,0,0,1,5.6-5.14l12.61-4.58a10,10,0,0,1,12.6,5.87l1.83,5c2.74-.78,5.57-1.53,8.57-2.26l-.93-5.26a9.67,9.67,0,0,1,1.59-7.31,9.82,9.82,0,0,1,6.39-4.11l13.23-2.33a9.84,9.84,0,0,1,11.4,8l.93,5.3c3.11-.33,6-.6,8.8-.8v-5.36a9.87,9.87,0,0,1,9.84-9.85H2842a9.87,9.87,0,0,1,9.84,9.85v5.36c2.82.2,5.71.47,8.82.8l.94-5.31v-.06a9.81,9.81,0,0,1,11.38-7.94l13.24,2.33a9.89,9.89,0,0,1,8,11.42l-.92,5.27c2.94.73,5.8,1.48,8.55,2.26l1.82-5a10.06,10.06,0,0,1,12.62-5.88l12.61,4.58h0a9.84,9.84,0,0,1,5.86,12.62l-1.82,5c2.51,1.13,5.14,2.37,8,3.78l2.67-4.64a10.14,10.14,0,0,1,13.45-3.61l11.65,6.72a9.88,9.88,0,0,1,3.59,13.45l-2.69,4.66c2.58,1.68,5,3.35,7.25,5l3.44-4.1a10.14,10.14,0,0,1,13.88-1.22l10.28,8.63a9.87,9.87,0,0,1,1.22,13.87l-3.48,4.15c2.13,2.06,4.25,4.14,6.25,6.24l4.13-3.47a10.14,10.14,0,0,1,13.89,1.21l8.63,10.29a9.89,9.89,0,0,1-1.22,13.87l-4.1,3.43c1.6,2.27,3.27,4.68,5,7.27l4.65-2.69a10.1,10.1,0,0,1,13.47,3.6l6.7,11.62a9.87,9.87,0,0,1-3.6,13.46l-4.65,2.68c1.37,2.77,2.63,5.43,3.78,8l5-1.82a10,10,0,0,1,12.64,5.87l4.58,12.62a9.86,9.86,0,0,1-5.88,12.62l-5,1.82c.77,2.7,1.51,5.56,2.26,8.56l5.27-.94h0a9.86,9.86,0,0,1,11.42,8l2.31,13.22a9.88,9.88,0,0,1-8,11.41l-5.32.93c.33,3.12.6,6,.8,8.81h5.41a9.84,9.84,0,0,1,9.81,9.85v13.29a9.73,9.73,0,0,1-2.87,7,9.83,9.83,0,0,1-7,2.89h-5.38c-.2,2.81-.47,5.7-.8,8.81l5.31,1a9.7,9.7,0,0,1,6.34,4,9.82,9.82,0,0,1,1.67,7.41l-2.35,13.2a1.42,1.42,0,0,1,0,.2,9.74,9.74,0,0,1-11.35,7.8l-5.3-.93c-.72,3-1.47,5.79-2.26,8.55l5,1.83a9.88,9.88,0,0,1,5.9,12.63l-4.61,12.6a10,10,0,0,1-12.6,5.89l-5-1.83c-1.14,2.53-2.39,5.18-3.78,8l4.64,2.68h0a9.86,9.86,0,0,1,3.6,13.46l-6.73,11.6a10.09,10.09,0,0,1-13.44,3.62l-4.67-2.7c-1.66,2.54-3.33,5-5,7.26l4.1,3.44a9.67,9.67,0,0,1,3.49,6.63,9.86,9.86,0,0,1-2.25,7.26l-8.64,10.25a10.13,10.13,0,0,1-13.88,1.25l-4.14-3.49c-2,2.08-4.11,4.17-6.26,6.25l3.49,4.15h0a9.84,9.84,0,0,1-1.22,13.86l-10.29,8.62a10.11,10.11,0,0,1-13.89-1.12l-3.44-4.11c-2.27,1.58-4.66,3.25-7.27,5l2.7,4.66h0a9.84,9.84,0,0,1-3.61,13.44l-11.62,6.7a10.11,10.11,0,0,1-13.46-3.59l-2.68-4.65c-2.71,1.35-5.37,2.6-8,3.78l1.84,5h0a9.83,9.83,0,0,1-5.89,12.61l-12.62,4.58a10.06,10.06,0,0,1-12.62-5.87l-1.83-5c-2.78.79-5.62,1.54-8.56,2.26l.94,5.27v0a9.86,9.86,0,0,1-8,11.4l-13.18,2.35h0a9.83,9.83,0,0,1-11.36-8l-.94-5.33c-2.92.31-5.86.59-8.8.8v5.38a9.68,9.68,0,0,1-2.86,6.93,9.79,9.79,0,0,1-7,2.91Zm40.17-12a2.62,2.62,0,0,0,3,2.07l13.22-2.32a2.59,2.59,0,0,0,1.67-1.07,2.51,2.51,0,0,0,.41-1.88l-2.15-12.1,3.38-.78c5.21-1.19,10-2.47,14.77-3.91l3.3-1,4.16,11.47a2.59,2.59,0,0,0,3.29,1.53l12.63-4.59a2.54,2.54,0,0,0,1.43-1.32,2.49,2.49,0,0,0,.09-1.93l-4.19-11.47,3.17-1.36c4.5-1.93,9-4.07,13.82-6.52l3.08-1.58,6.12,10.62h0a2.58,2.58,0,0,0,3.51,1l11.62-6.7a2.63,2.63,0,0,0,1.2-1.57,2.53,2.53,0,0,0-.26-1.92l-6.14-10.63,2.89-1.89c4.77-3.12,8.87-6,12.53-8.73l2.77-2.08,7.84,9.37a2.32,2.32,0,0,0,.4.48,2.28,2.28,0,0,0,3.21-.16l10.29-8.63a2.55,2.55,0,0,0,.91-1.74,2.47,2.47,0,0,0-.59-1.84l-7.91-9.43,2.51-2.36c3.8-3.58,7.45-7.21,10.8-10.8l2.36-2.52,9.41,7.91a2.22,2.22,0,0,0,.47.39,2.27,2.27,0,0,0,3.14-.72l8.63-10.26a2.55,2.55,0,0,0,.59-1.91,2.47,2.47,0,0,0-.9-1.7l-9.38-7.89,2.07-2.76c2.88-3.82,5.72-7.91,8.72-12.52l1.88-2.91,10.63,6.16a2.62,2.62,0,0,0,3.5-.94l6.72-11.61,0,0a2.54,2.54,0,0,0-1-3.46l-10.62-6.14,1.57-3.07c2.57-5.09,4.7-9.61,6.5-13.83l1.36-3.17,11.46,4.17a2.58,2.58,0,0,0,3.27-1.52l4.61-12.59a2.59,2.59,0,0,0-1.54-3.3l-11.48-4.18,1-3.3c1.41-4.65,2.69-9.48,3.91-14.76l.78-3.37,12.52,2.17a2.54,2.54,0,0,0,2.51-2.12l2.35-13.19a2.63,2.63,0,0,0-.44-2,2.59,2.59,0,0,0-1.63-1l-12.11-2.13.41-3.42c.67-5.66,1.12-10.63,1.35-15.21l.19-3.46h12.26a2.56,2.56,0,0,0,1.81-.75,2.48,2.48,0,0,0,.74-1.8V818.57h0a2.55,2.55,0,0,0-2.55-2.55h-12.24l-.19-3.45c-.23-4.6-.68-9.57-1.35-15.21l-.41-3.43,12.07-2.12h0a2.56,2.56,0,0,0,2-3l-2.32-13.22a2.77,2.77,0,0,0-3-2.08l-12.08,2.14-.78-3.37c-1.29-5.49-2.56-10.32-3.91-14.77l-1-3.3L3069,750a2.56,2.56,0,0,0,1.53-3.28l-4.59-12.62a.14.14,0,0,1,0-.06,2.51,2.51,0,0,0-3.24-1.46l-11.46,4.17-1.36-3.16c-1.85-4.31-4-8.83-6.52-13.83l-1.57-3.08,10.62-6.12a2.57,2.57,0,0,0,.94-3.5l-6.71-11.64a2.59,2.59,0,0,0-3.49-.93l-10.62,6.15-1.89-2.89c-3.08-4.72-5.94-8.82-8.73-12.54l-2.08-2.76,9.36-7.85a2.58,2.58,0,0,0,.33-3.61l-8.7-10.34a2.21,2.21,0,0,0-.44-.52,2.23,2.23,0,0,0-3.16.2l-9.41,7.9-2.36-2.52c-3.41-3.64-7-7.27-10.8-10.79l-2.51-2.36,7.89-9.41a2.56,2.56,0,0,0-.32-3.6l-10.28-8.64a2.33,2.33,0,0,0-.45-.38,2.29,2.29,0,0,0-3.15.7l-7.86,9.38-2.77-2.08c-3.73-2.8-7.82-5.66-12.52-8.73l-2.88-1.89,6.12-10.62a2.56,2.56,0,0,0-.93-3.49l-11.64-6.72a2.61,2.61,0,0,0-3.48.94l-6.11,10.61-3.08-1.56c-5.23-2.64-9.62-4.71-13.84-6.51l-3.18-1.35,4.17-11.45a2.59,2.59,0,0,0-1.52-3.33l-12.62-4.58a2.59,2.59,0,0,0-3.27,1.52l-4.17,11.48-3.3-1c-4.59-1.39-9.55-2.7-14.76-3.9l-3.37-.78,2.12-12.06a2.58,2.58,0,0,0-2.07-3l-13.66-2.37a2.56,2.56,0,0,0-2.52,2.13L2866.51,594l-3.41-.4c-5.63-.67-10.61-1.12-15.22-1.37l-3.45-.19V579.77h0a2.55,2.55,0,0,0-2.55-2.55h-13.43a2.55,2.55,0,0,0-2.55,2.55V592l-3.44.19c-4.59.25-9.57.7-15.22,1.37l-3.42.4-2.12-12a1.57,1.57,0,0,0,0-.23,2.48,2.48,0,0,0-3-1.86l-13.22,2.33a2.56,2.56,0,0,0-1.67,1.08,2.46,2.46,0,0,0-.41,1.86l2.15,12.08-3.38.78c-5.36,1.24-10.2,2.52-14.78,3.91l-3.31,1-4.16-11.44a2.62,2.62,0,0,0-3.27-1.54l-12.6,4.59a2.57,2.57,0,0,0-1.47,1.35,2.4,2.4,0,0,0-.08,1.91l4.17,11.46-3.17,1.35c-4.27,1.82-8.82,3.95-13.82,6.51l-3.08,1.56-6.12-10.58a2.62,2.62,0,0,0-3.49-.94l-11.62,6.7a2.56,2.56,0,0,0-1.21,1.59,2.49,2.49,0,0,0,.25,1.89l6.14,10.61-2.88,1.89c-4.8,3.15-8.91,6-12.54,8.74l-2.76,2.07-7.85-9.34a2,2,0,0,0-.4-.48,2.27,2.27,0,0,0-3.19.16l-10.29,8.63a2.53,2.53,0,0,0-.34,3.58l7.92,9.41L2675.7,655c-3.67,3.42-7.31,7.06-10.82,10.79l-2.36,2.52-9.37-7.88a2.44,2.44,0,0,0-.46-.39,2.28,2.28,0,0,0-3.15.7L2640.91,671a2.6,2.6,0,0,0-.6,1.91,2.46,2.46,0,0,0,.89,1.68l9.39,7.86-2.08,2.76c-2.88,3.84-5.75,7.94-8.75,12.54l-1.89,2.89-10.6-6.11a2.59,2.59,0,0,0-3.47.93l-6.73,11.62a2.59,2.59,0,0,0-.25,2,2.49,2.49,0,0,0,1.18,1.53l10.61,6.11-1.56,3.07c-2.64,5.22-4.71,9.62-6.51,13.84l-1.35,3.17-11.45-4.14a2.58,2.58,0,0,0-3.26,1.51l-4.61,12.61a2.57,2.57,0,0,0,.09,2,2.46,2.46,0,0,0,1.43,1.29l11.46,4.17-1,3.31c-1.36,4.47-2.64,9.3-3.92,14.77l-.78,3.36-12.47-2.16a2.59,2.59,0,0,0-2.53,2.11l-2.33,13.22a2.57,2.57,0,0,0,.43,1.94,2.44,2.44,0,0,0,1.62,1l12.08,2.12-.4,3.42c-.59,5-1.08,10.1-1.36,15.23L2602,816h-12.21a2.55,2.55,0,0,0-2.56,2.54v13.41h0a2.56,2.56,0,0,0,2.55,2.57H2602l.19,3.45c.25,4.63.7,9.61,1.37,15.21l.41,3.43-12.07,2.13h-.05a2.55,2.55,0,0,0-2,3l2.31,13.22a2.64,2.64,0,0,0,3,2.09l12.09-2.19.78,3.36c1.28,5.47,2.55,10.3,3.91,14.77l1,3.3-11.44,4.18a2.55,2.55,0,0,0-1.52,3.27l4.56,12.61s0,0,0,.06a2.53,2.53,0,0,0,3.26,1.48l11.46-4.18,1.36,3.18c1.81,4.26,3.94,8.82,6.5,13.82l1.56,3.08-10.58,6.12a2.56,2.56,0,0,0-1.2,1.57,2.53,2.53,0,0,0,.26,1.92l6.68,11.62a2.64,2.64,0,0,0,3.5,1l10.62-6.15,1.89,2.89c3.12,4.77,6,8.87,8.73,12.54l2.08,2.76-9.36,7.85a2.55,2.55,0,0,0-.31,3.59l8.61,10.29a2.19,2.19,0,0,0,.41.5,2.26,2.26,0,0,0,3.18-.16l9.42-7.91,2.37,2.52c3.46,3.7,7.09,7.33,10.79,10.79l2.52,2.36-7.88,9.42a2.54,2.54,0,0,0-.59,1.87,2.47,2.47,0,0,0,.89,1.72l10.28,8.63a2,2,0,0,0,.5.42,2.24,2.24,0,0,0,3.1-.72l7.87-9.38,2.76,2.07c3.73,2.81,7.82,5.67,12.52,8.74l2.88,1.88-6.1,10.62a2.56,2.56,0,0,0,.93,3.49l11.61,6.71a2.62,2.62,0,0,0,3.5-.92l6.12-10.63,3.09,1.57c5,2.5,9.55,4.68,13.82,6.5l3.17,1.36-4.16,11.43a2.56,2.56,0,0,0,1.51,3.28l12.62,4.61A2.57,2.57,0,0,0,2760,1059l4.17-11.5,3.3,1c4.67,1.42,9.5,2.7,14.77,3.91l3.38.77-2.12,12.08v0a2.55,2.55,0,0,0,2.07,3l13.67,2.38a2.54,2.54,0,0,0,2.5-2.1l2.14-12.11,3.42.41c5.63.67,10.61,1.12,15.21,1.36l3.45.18v12.24a2.57,2.57,0,0,0,2.55,2.57H2842a2.56,2.56,0,0,0,1.83-.76,2.46,2.46,0,0,0,.73-1.77v-12.27l3.46-.19c5.12-.28,10.22-.77,15.22-1.36l3.41-.4Z" transform="translate(0 -0.02)" style="fill:url(#linear-gradient-9)"/><path d="M2879.63,995l-147.69-30.17-68.5-134.27,62.26-137.27,146.14-36.9,120,91.24,3.46,150.69L2879.63,995Z" transform="translate(0 -0.02)" style="fill:url(#linear-gradient-10)"/><path d="M2722.17,977.71,2647.25,831l68.07-150.06,159.76-40.34,131.14,99.74L3010,905l-126.41,105.67ZM2977.39,755,2868.6,672.24l-132.52,33.47-56.47,124.47L2741.73,952l133.94,27.35,104.86-87.67Z" transform="translate(0 -0.02)" style="fill:#231f20"/><path d="M2879.63,995l-147.69-30.17-68.5-134.27,62.26-137.27,146.14-36.9,120,91.24,3.46,150.69L2879.63,995Z" transform="translate(0 -0.02)" style="fill:url(#linear-gradient-11)"/><path d="M2729.49,968.09l-70.1-137.4,63.72-140.47,149.54-37.76,122.76,93.37L2999,900l-118.33,98.89Zm258.68-218.62-117.1-89.12-142.74,36-60.81,134.06,66.91,131.14,144.25,29.47,112.94-94.43Z" transform="translate(0 -0.02)" style="fill:#231f20"/><path d="M2666.76,832.06l-6.65-3,63-138.87,149.54-37.76L2994,744.72l-4.41,5.8L2871,660.35l-142.73,36-61.54,135.67Z" transform="translate(0 -0.02)" style="fill:#808285"/><path d="M2849.22,638l-23.53,114.33L2877,762.78l23.53-114.26L2849.22,638Z" transform="translate(0 -0.02)" style="fill:#121011"/><path d="M2904.74,813.59l-1.34,2.93,110.91-52.79-22.52-47.31-109.94,52.33Z" transform="translate(0 -0.02)" style="fill:#121111"/><path d="M2883.46,771.91l-3.14-6.59L2990.27,713l3.13,6.58Z" transform="translate(0 -0.02)" style="fill:#808285"/><path d="M2877.13,866.2l0,.29,119.76,59.43,23.3-46.93-118.49-58.83-20.4,45Z" transform="translate(0 -0.02)" style="fill:#191718"/><path d="M3020.24,879l-118.49-58.83" transform="translate(0 -0.02)" style="fill:#231f20"/><path d="M3018.69,882.36l-118.51-58.81,3.24-6.53,118.51,58.81Z" transform="translate(0 -0.02)" style="fill:#6d6e71"/><path d="M2876.77,866.28l-49,12.38-1.14,1.59,31.22,132.27,51-12-31.64-134-.41-.21Z" transform="translate(0 -0.02)" style="fill:#231f20"/><path d="M2826.6,880.25l-.35-1.46-40.8-31-80.68,112.4,42.56,30.55,79.27-110.45Z" transform="translate(0 -0.02)" style="fill:#191718"/><path d="M2707.72,962.23,2701.8,958l80.68-112.4,5.92,4.25Z" transform="translate(0 -0.02)" style="fill:#58595b"/><path d="M2785.14,847.53l-3.69-2.81-1.14-49.4-130,7.42,3,52.31,131.87-7.52Z" transform="translate(0 -0.02)" style="fill:#121111"/><path d="M2650.58,806.25l-.41-7.28,130-7.41.42,7.28Z" transform="translate(0 -0.02)" style="fill:#939598"/><path d="M2780.15,788.15l38.08-31.83-81.85-90.59-38.87,35.15,82.75,91.55Z" transform="translate(0 -0.02)" style="fill:#121011"/><path d="M2829,779.05,2804,801.59l8.13,4.28-8.13-4.28-.39.36,1.89,33.08,26.26,18.87,31.2-7.36,14.73-29.68-14.64-30.79-.38-.08-2,2.58,2-2.58Z" transform="translate(0 -0.02)" style="fill:none"/><path d="M2829,779.05,2862.7,786l16.92-21.62-.6-1.19-55.45-11.32-43.42,36.29,0,.85L2804,801.59,2829,779.05Z" transform="translate(0 -0.02)" style="fill:#58595b"/><path d="M2804,801.59,2780.17,789l1.28,55.72L2826.5,879l54.85-13.85,23.39-51.53-25.12-49.22L2862.7,786l.38.08,14.64,30.79L2863,846.54l-31.2,7.36L2805.53,835,2803.64,802l.39-.36Z" transform="translate(0 -0.02)"/><path d="M2803.4,838l4.26-5.93,24.91,17.9,29.58-7,1.67,7.1L2831,857.83Z" transform="translate(0 -0.02)" style="fill:#808285"/><path d="M393.42,794.56c-.24,5.34-.31,10.64-.24,15.92l-9,.65a6.37,6.37,0,0,0-5.9,6.78l1,13.76a6.39,6.39,0,0,0,6.79,5.91l9-.64c.66,5.3,1.45,10.54,2.45,15.74l-8.71,2.18a6.4,6.4,0,0,0-4.62,7.71L387.52,876a6.37,6.37,0,0,0,7.71,4.64l8.7-2.17c1.59,5,3.36,10.06,5.27,15L401,897.11a6.39,6.39,0,0,0-3.22,8.4l5.6,12.59a6.38,6.38,0,0,0,8.4,3.23l8.28-3.69c2.42,4.73,5,9.4,7.7,13.94l-7.46,5a6.36,6.36,0,0,0-1.71,8.83l7.7,11.44a6.37,6.37,0,0,0,8.83,1.73l7.53-5.1q4.78,6.38,10,12.38l-6.53,6.31a6.39,6.39,0,0,0-.15,9l9.58,9.92a6.38,6.38,0,0,0,9,.16L471,985c3.89,3.61,7.93,7.06,12,10.42l-5.3,7.33a6.39,6.39,0,0,0,1.41,8.89l11.15,8.1a6.37,6.37,0,0,0,8.88-1.42l5.32-7.32c4.45,2.87,9,5.67,13.64,8.26l-3.93,8.07a6.37,6.37,0,0,0,2.93,8.5l12.41,6h0a6.34,6.34,0,0,0,8.47-2.94l3.93-8.09c4.9,2,9.9,3.92,14.9,5.65l-2.48,8.7a6.4,6.4,0,0,0,4.37,7.88l13.26,3.78h0a6.33,6.33,0,0,0,7.84-4.34l2.49-8.74c5.14,1.16,10.35,2.23,15.64,3.06l-.94,9a6.37,6.37,0,0,0,5.66,7l13.72,1.43h0a6.35,6.35,0,0,0,7-5.64l.94-9q8,.35,15.92.23l.64,9.06a6.36,6.36,0,0,0,6.8,5.88l13.76-1h0a6.34,6.34,0,0,0,5.88-6.77l-.64-9q8-1,15.75-2.45l2.18,8.73a6.37,6.37,0,0,0,7.72,4.62l13.38-3.34h0a6.35,6.35,0,0,0,4.62-7.7l-2.19-8.71c5-1.6,10.06-3.38,15-5.28l3.69,8.28a6.37,6.37,0,0,0,8.4,3.2l12.6-5.59a6.39,6.39,0,0,0,3.22-8.4l-3.69-8.29c4.73-2.43,9.39-5,13.94-7.7l5,7.49a6.4,6.4,0,0,0,8.85,1.69l11.43-7.7a6.37,6.37,0,0,0,1.72-8.83l-5.11-7.55q6.38-4.8,12.37-10L802,997h0a6.36,6.36,0,0,0,9,.14l9.93-9.59,0,0a6.36,6.36,0,0,0,.11-9L814.75,972c3.62-3.84,7.06-7.87,10.42-12l7.42,5.23a6.38,6.38,0,0,0,8.88-1.42l8.11-11.14h0a6.37,6.37,0,0,0-1.43-8.89l-7.32-5.32c2.88-4.46,5.66-9,8.27-13.63l8.07,3.94a6.37,6.37,0,0,0,8.5-2.94l6-12.39a6.38,6.38,0,0,0-2.95-8.51l-8.09-4c2.06-4.89,3.91-9.89,5.66-14.89l8.71,2.5a6.38,6.38,0,0,0,7.86-4.39l3.8-13.24a6.36,6.36,0,0,0-4.37-7.86l-8.73-2.5c1.17-5.17,2.22-10.36,3.07-15.64l9,.94a6.37,6.37,0,0,0,7-5.67l1.45-13.71h0a6.37,6.37,0,0,0-5.68-7l-9-.94c.23-5.35.29-10.65.23-15.93l9-.63a6.39,6.39,0,0,0,5.9-6.79l-1-13.76a6.38,6.38,0,0,0-6.8-5.91l-9,.64c-.66-5.29-1.45-10.55-2.45-15.74l8.73-2.18a6.39,6.39,0,0,0,4.63-7.72l-3.34-13.37v0a6.34,6.34,0,0,0-7.7-4.59l-8.73,2.16c-1.57-5-3.36-10.06-5.24-15l8.26-3.69a6.37,6.37,0,0,0,3.2-8.4L869.5,695v0a6.37,6.37,0,0,0-8.42-3.2l-8.28,3.68c-2.43-4.73-5-9.39-7.69-13.94l7.48-5a6.38,6.38,0,0,0,1.71-8.84l-7.72-11.43h0a6.36,6.36,0,0,0-8.83-1.7l-7.52,5.08q-4.8-6.36-10-12.37l6.52-6.3a6.37,6.37,0,0,0,.15-9L817.3,622a6.37,6.37,0,0,0-9-.14l-6.47,6.27c-3.84-3.62-7.87-7.07-12-10.43l5.31-7.32a6.37,6.37,0,0,0-1.41-8.89l-11.16-8.1,0,0a6.35,6.35,0,0,0-8.86,1.44l-5.31,7.3c-4.46-2.88-9-5.65-13.64-8.24l3.93-8.06a6.38,6.38,0,0,0-2.94-8.52l-12.38-6h0a6.37,6.37,0,0,0-8.51,2.94l-3.93,8.08C726,580.27,721,578.4,716,576.67l2.49-8.69a6.38,6.38,0,0,0-4.37-7.87l-13.26-3.79h0a6.35,6.35,0,0,0-7.86,4.37l-2.5,8.7c-5.14-1.17-10.35-2.22-15.63-3.06l.94-9v0a6.34,6.34,0,0,0-5.67-7l-13.7-1.44a6.37,6.37,0,0,0-7,5.66l-.93,9c-5.34-.23-10.65-.32-15.93-.23l-.63-9a6.42,6.42,0,0,0-6.8-5.9l-13.75,1h0a6.35,6.35,0,0,0-5.89,6.78l.64,9c-5.29.66-10.55,1.45-15.77,2.45L588.2,559a6.41,6.41,0,0,0-7.72-4.64l-13.38,3.34a6.36,6.36,0,0,0-4.63,7.71l2.18,8.7c-5.06,1.58-10.06,3.36-15.06,5.26l-3.67-8.23a6.41,6.41,0,0,0-8.4-3.24l-12.6,5.62a6.38,6.38,0,0,0-3.22,8.4l3.69,8.26c-4.77,2.43-9.44,5-14,7.7l-5-7.45a6.38,6.38,0,0,0-8.83-1.72l-11.43,7.72a6.37,6.37,0,0,0-1.72,8.83l5.08,7.51q-6.32,4.78-12.38,10l-6.29-6.51a6.37,6.37,0,0,0-9-.16l-9.92,9.59,0,0a6.35,6.35,0,0,0-.14,9l6.28,6.48c-3.62,3.89-7.07,7.93-10.44,12l-7.3-5.29a6.4,6.4,0,0,0-8.89,1.4l-8.1,11.17a6.36,6.36,0,0,0,1.41,8.88l7.31,5.3c-2.88,4.45-5.66,9-8.27,13.63l-8.05-3.91a6.36,6.36,0,0,0-8.49,2.92l-6.05,12.4,0,.05a6.33,6.33,0,0,0,2.95,8.45l8.06,3.94c-2.05,4.89-3.9,9.89-5.65,14.89l-8.67-2.47a6.39,6.39,0,0,0-7.86,4.36l-3.81,13.26a6.38,6.38,0,0,0,4.36,7.87l8.72,2.49c-1.17,5.15-2.22,10.34-3.06,15.62l-9-.92a6.38,6.38,0,0,0-7,5.65l-1.45,13.73v0a6.35,6.35,0,0,0,5.66,7Z" transform="translate(0 -0.02)" style="fill:#231f20"/><path d="M399.77,819.57c.29,5.2.78,10.34,1.4,15.45l-8.8,1.63a6.19,6.19,0,0,0-5,7.16L389.69,857a6.2,6.2,0,0,0,7.18,5l8.65-1.54c1.21,5.06,2.5,10.07,4,15l-8.22,3a6.2,6.2,0,0,0-3.69,7.93l4.57,12.63,0,0a6.21,6.21,0,0,0,8,3.66l8.22-3c2,4.73,4.27,9.4,6.6,14l-7.6,4.4a6.21,6.21,0,0,0-2.27,8.46l6.7,11.63a6.22,6.22,0,0,0,8.47,2.28l7.63-4.41c2.87,4.33,5.77,8.6,8.87,12.73l-6.72,5.63a6.22,6.22,0,0,0-.76,8.72l8.62,10.3h0a6.19,6.19,0,0,0,8.72.77l6.78-5.69q5.35,5.71,11,11l-5.66,6.79h0a6.18,6.18,0,0,0,.75,8.71l10.28,8.64h0a6.2,6.2,0,0,0,8.72-.77l5.65-6.73c4.13,3.11,8.39,6,12.72,8.87l-4.39,7.63a6.2,6.2,0,0,0,2.26,8.46l11.62,6.72a6.22,6.22,0,0,0,8.48-2.26l4.4-7.63c4.56,2.33,9.23,4.6,14,6.6l-3,8.22a6.2,6.2,0,0,0,3.7,7.93l12.62,4.6h0a6.19,6.19,0,0,0,7.92-3.7l3-8.24c4.92,1.52,9.93,2.83,15,4l-1.52,8.67a6.2,6.2,0,0,0,5,7.18l13.22,2.33h0a6.17,6.17,0,0,0,7.13-5l1.54-8.71c5.1.61,10.24,1.11,15.45,1.38v8.8a6.23,6.23,0,0,0,6.19,6.19H643a6.21,6.21,0,0,0,6.22-6.18v-8.81c5.2-.28,10.34-.79,15.45-1.38l1.53,8.7a6.2,6.2,0,0,0,7.18,5l13.23-2.32a6.2,6.2,0,0,0,5-7.18l-1.54-8.68c5.06-1.19,10.06-2.5,15-4l3,8.25a6.2,6.2,0,0,0,7.94,3.69l12.63-4.59a6.2,6.2,0,0,0,3.71-7.93l-3-8.23c4.73-2.05,9.4-4.27,14-6.62l4.4,7.63a6.21,6.21,0,0,0,8.47,2.26l11.64-6.7a6.2,6.2,0,0,0,2.26-8.46l-4.41-7.65c4.33-2.87,8.6-5.76,12.73-8.87l5.64,6.74a6.21,6.21,0,0,0,8.73.75l10.29-8.63h0a6.18,6.18,0,0,0,.77-8.71l-5.7-6.79q5.68-5.36,11-11l6.77,5.7a6.21,6.21,0,0,0,8.73-.79l8.65-10.27a6.2,6.2,0,0,0-.77-8.73l-6.74-5.67c3.11-4.12,6-8.38,8.86-12.72l7.65,4.43a6.21,6.21,0,0,0,8.45-2.29l6.74-11.61h0a6.2,6.2,0,0,0-2.28-8.47l-7.63-4.42c2.33-4.57,4.61-9.23,6.61-14l8.23,3a6.2,6.2,0,0,0,7.93-3.7L875,886.43l0,0a6.22,6.22,0,0,0-3.73-8l-8.25-3c1.52-4.93,2.83-9.95,4-15l8.68,1.53a6.18,6.18,0,0,0,7.16-5l2.35-13.22a6.19,6.19,0,0,0-5-7.17L871.53,835c.61-5.11,1.11-10.25,1.38-15.45h8.82a6.21,6.21,0,0,0,6.18-6.19V800h0a6.19,6.19,0,0,0-6.19-6.19H872.9c-.27-5.21-.77-10.35-1.38-15.45l8.7-1.53a6.19,6.19,0,0,0,5-7.18l-2.31-13.23a6.22,6.22,0,0,0-7.2-5l-8.66,1.54c-1.21-5.06-2.5-10.07-4-15l8.23-3A6.2,6.2,0,0,0,875,727l-4.58-12.63,0,0a6.16,6.16,0,0,0-7.92-3.65l-8.22,3c-2-4.73-4.29-9.4-6.62-14l7.63-4.4a6.21,6.21,0,0,0,2.26-8.47l-6.71-11.64a6.21,6.21,0,0,0-8.47-2.26l-7.63,4.41c-2.87-4.33-5.77-8.6-8.87-12.72l6.72-5.64a6.22,6.22,0,0,0,.77-8.74l-8.63-10.29,0,0a6.19,6.19,0,0,0-8.72-.74l-6.77,5.68q-5.35-5.72-11-11l5.68-6.77a6.21,6.21,0,0,0-.77-8.73l-10.28-8.64h0a6.2,6.2,0,0,0-8.73.78l-5.64,6.73c-4.13-3.11-8.39-6-12.72-8.87l4.41-7.63a6.25,6.25,0,0,0-2.27-8.48l-11.63-6.71a6.21,6.21,0,0,0-8.48,2.27l-4.38,7.62c-4.62-2.34-9.27-4.61-14.06-6.61l3-8.21,0-.06a6.19,6.19,0,0,0-3.72-7.94L716,568a6.19,6.19,0,0,0-7.94,3.71l-3,8.23c-4.94-1.52-9.95-2.83-15-4l1.52-8.65a6.22,6.22,0,0,0-5-7.19l-13.23-2.34a6.22,6.22,0,0,0-7.18,5l-1.53,8.68c-5.1-.6-10.25-1.11-15.45-1.39v-8.89a6.2,6.2,0,0,0-6.19-6.2H629.55a6.22,6.22,0,0,0-6.2,6.2v8.78c-5.19.28-10.34.79-15.45,1.39l-1.52-8.68a6.24,6.24,0,0,0-7.18-5L586,560a6.2,6.2,0,0,0-5,7.17l1.54,8.67c-5,1.2-10.06,2.51-15,4l-3-8.21a6.22,6.22,0,0,0-7.93-3.7L544,572.46h0a6.2,6.2,0,0,0-3.72,7.94l3,8.21c-4.73,2-9.4,4.27-14,6.61l-4.4-7.61a6.23,6.23,0,0,0-8.46-2.26l-11.63,6.71a6.21,6.21,0,0,0-2.28,8.46l4.41,7.62c-4.32,2.88-8.6,5.77-12.73,8.88l-5.62-6.59a6.2,6.2,0,0,0-8.71-.77l-10.29,8.63,0,0a6.17,6.17,0,0,0-.75,8.69l5.69,6.77q-5.67,5.33-11,11l-6.75-5.67a6.23,6.23,0,0,0-8.73.76l-8.64,10.29a6.2,6.2,0,0,0,.75,8.72l6.74,5.64c-3.1,4.13-6.06,8.4-8.89,12.73l-7.62-4.39a6.21,6.21,0,0,0-8.44,2.26l-6.74,11.64a6.19,6.19,0,0,0,2.27,8.45L425,699.6c-2.34,4.56-4.61,9.22-6.61,14l-8.2-3a6.18,6.18,0,0,0-7.93,3.69l-4.62,12.62a6.19,6.19,0,0,0,3.71,7.94l8.21,3c-1.53,4.93-2.82,9.94-4,15L397,751.33a6.2,6.2,0,0,0-7.18,5l-2.34,13.22a6.2,6.2,0,0,0,5,7.19l8.68,1.52c-.6,5.11-1.09,10.25-1.38,15.45H391a6.22,6.22,0,0,0-6.2,6.18v13.44a6.22,6.22,0,0,0,6.2,6.2Z" transform="translate(0 -0.02)" style="fill:url(#linear-gradient-12)"/><path d="M629.63,1061.82a9.88,9.88,0,0,1-9.84-9.8v-5.42c-2.81-.2-5.7-.46-8.81-.8l-.93,5.31,0,.09a9.81,9.81,0,0,1-11.39,7.91l-13.2-2.33a9.84,9.84,0,0,1-8-11.4l.92-5.28c-3-.73-5.79-1.48-8.56-2.27l-1.82,5a10,10,0,0,1-12.62,5.88l-12.61-4.59a9.88,9.88,0,0,1-5.89-12.61l1.83-5c-2.55-1.14-5.21-2.39-8-3.78l-2.67,4.65a10.1,10.1,0,0,1-13.47,3.61l-11.61-6.72a9.85,9.85,0,0,1-3.61-13.43l2.68-4.67c-2.58-1.73-5-3.4-7.26-5l-3.44,4.1a10.11,10.11,0,0,1-13.87,1.21l-10.28-8.64A9.84,9.84,0,0,1,466,983.94l3.47-4.15q-3.19-3.07-6.25-6.25L459,977a10.12,10.12,0,0,1-13.89-1.22l-8.59-10.28a9.84,9.84,0,0,1,1.19-13.86l4.1-3.44c-1.64-2.27-3.31-4.66-5-7.27l-4.65,2.69A10.11,10.11,0,0,1,418.67,940L412,928.45a9.65,9.65,0,0,1-1-7.46,9.85,9.85,0,0,1,4.58-6l4.63-2.68q-2-4-3.77-8l-5,1.81a10,10,0,0,1-12.64-5.88l-4.57-12.61A9.87,9.87,0,0,1,400.06,875l5-1.82c-.77-2.71-1.52-5.56-2.27-8.56l-5.26.93-.13,0a9.79,9.79,0,0,1-11.28-8l-2.32-13.22v0a9.83,9.83,0,0,1,8-11.37l5.31-.94c-.34-3.11-.61-6-.8-8.82h-5.42a9.84,9.84,0,0,1-9.79-9.85V799.91a9.87,9.87,0,0,1,9.83-9.82h5.36c.21-3,.49-5.89.8-8.81l-5.3-.93a9.85,9.85,0,0,1-8-11.41l2.34-13.22v0a9.81,9.81,0,0,1,11.38-8l5.27.93q1.05-4.3,2.26-8.57l-5-1.81a9.63,9.63,0,0,1-5.55-5,9.78,9.78,0,0,1-.35-7.58l4.61-12.62a10,10,0,0,1,12.6-5.87l5,1.81c1.13-2.52,2.38-5.15,3.77-8l-4.62-2.67a9.69,9.69,0,0,1-4.58-5.93,9.88,9.88,0,0,1,1-7.52l6.73-11.62a10.07,10.07,0,0,1,13.42-3.61l4.66,2.68c1.7-2.55,3.39-5,5.06-7.27l-4.09-3.42a9.72,9.72,0,0,1-3.48-6.63,9.84,9.84,0,0,1,2.25-7.25l8.65-10.28A10.11,10.11,0,0,1,459,636.28l4.13,3.47q3.09-3.19,6.26-6.26l-3.47-4.13a9.7,9.7,0,0,1-2.28-7.15,9.8,9.8,0,0,1,3.5-6.72l10.29-8.63a10.15,10.15,0,0,1,13.85,1.21l3.44,4.1c2.27-1.63,4.64-3.3,7.27-5.06l-2.7-4.65a9.71,9.71,0,0,1-1-7.41,9.85,9.85,0,0,1,4.6-6l11.63-6.71a10.12,10.12,0,0,1,13.43,3.6l2.69,4.63c2.79-1.38,5.44-2.63,8-3.78l-1.82-5,0-.06a9.82,9.82,0,0,1,5.91-12.57l12.62-4.59a10.07,10.07,0,0,1,12.6,5.88l1.82,5c2.74-.78,5.57-1.53,8.57-2.26l-.93-5.26a9.72,9.72,0,0,1,1.58-7.31,9.87,9.87,0,0,1,6.4-4.11l13.23-2.33a9.88,9.88,0,0,1,11.4,8l.93,5.3c3.11-.33,6-.6,8.8-.8v-5.36a9.85,9.85,0,0,1,9.85-9.84H643a9.86,9.86,0,0,1,9.84,9.84v5.36c2.81.2,5.7.47,8.81.8l.94-5.31v-.06A9.82,9.82,0,0,1,674,554.17l13.23,2.34a9.89,9.89,0,0,1,8,11.41l-.93,5.27c2.94.73,5.8,1.48,8.55,2.26l1.82-5a10,10,0,0,1,12.62-5.88l12.61,4.58a9.86,9.86,0,0,1,5.89,12.63l-1.82,5c2.52,1.13,5.15,2.37,8,3.78l2.68-4.64a10.13,10.13,0,0,1,13.45-3.61L769.73,589a9.87,9.87,0,0,1,3.59,13.44l-2.69,4.67c2.58,1.68,5,3.35,7.26,5l3.44-4.11a10.13,10.13,0,0,1,13.87-1.21l10.28,8.63a9.86,9.86,0,0,1,1.22,13.87l-3.48,4.15c2.13,2.06,4.25,4.14,6.25,6.24l4.14-3.47a10.12,10.12,0,0,1,13.88,1.21l8.63,10.29a9.87,9.87,0,0,1-1.22,13.87l-4.09,3.44c1.6,2.26,3.28,4.67,5,7.26l4.66-2.69a10.11,10.11,0,0,1,13.47,3.6l6.7,11.62A9.87,9.87,0,0,1,857,698.3L852.38,701c1.38,2.77,2.63,5.43,3.79,8l5-1.82A10,10,0,0,1,873.81,713l4.59,12.62a9.88,9.88,0,0,1-5.88,12.62l-5,1.82c.77,2.7,1.51,5.56,2.26,8.56l5.28-.93h.08a9.81,9.81,0,0,1,11.34,8l2.33,13.22a9.87,9.87,0,0,1-8,11.41l-5.32.93c.34,3.12.61,6,.8,8.81h5.41a9.84,9.84,0,0,1,9.81,9.85v13.41h0a9.83,9.83,0,0,1-9.82,9.84H876.3c-.19,2.82-.46,5.7-.8,8.82l5.32.93a9.68,9.68,0,0,1,6.33,4,9.86,9.86,0,0,1,1.67,7.41l-2.35,13.2,0,.19a9.74,9.74,0,0,1-11.35,7.81l-5.3-.93c-.73,3-1.48,5.79-2.27,8.55l5,1.83a9.88,9.88,0,0,1,5.91,12.63l-4.61,12.6a10,10,0,0,1-12.61,5.89l-5-1.83c-1.14,2.53-2.38,5.18-3.78,8l4.64,2.68h0a9.85,9.85,0,0,1,3.61,13.46L854,940.05a10.09,10.09,0,0,1-13.45,3.62L835.86,941c-1.65,2.56-3.32,5-5,7.27l4.1,3.45a9.66,9.66,0,0,1,3.5,6.62,9.91,9.91,0,0,1-2.26,7.26l-8.63,10.26a10.13,10.13,0,0,1-13.88,1.24l-4.15-3.49q-3,3.13-6.26,6.25l3.49,4.16h0a9.83,9.83,0,0,1-1.22,13.85l-10.28,8.62a10.13,10.13,0,0,1-13.88-1.2l-3.44-4.11c-2.26,1.63-4.66,3.3-7.26,5.05l2.69,4.67a9.84,9.84,0,0,1-3.59,13.44L758.17,1031a10.11,10.11,0,0,1-13.46-3.62l-2.68-4.65q-4,2-8,3.78l1.83,5a9.85,9.85,0,0,1-5.88,12.61l-12.62,4.58a10.08,10.08,0,0,1-12.63-5.87l-1.82-5c-2.78.79-5.62,1.54-8.56,2.26l.94,5.28a9.86,9.86,0,0,1-8,11.42l-13.22,2.32H674a9.82,9.82,0,0,1-11.34-8l-.95-5.33c-2.92.31-5.8.59-8.8.8V1052a9.85,9.85,0,0,1-9.86,9.84ZM669.81,1050a2.43,2.43,0,0,0,3,2.07l13.22-2.32a2.55,2.55,0,0,0,1.65-1.07,2.46,2.46,0,0,0,.42-1.88L686,1034.7l3.37-.78c5.21-1.2,10-2.47,14.77-3.9l3.3-1,4.17,11.47a2.58,2.58,0,0,0,3.28,1.53l12.63-4.59a2.48,2.48,0,0,0,1.44-1.31,2.51,2.51,0,0,0,.08-1.94l-4.18-11.47,3.16-1.36c4.5-1.93,9-4.07,13.82-6.52l3.08-1.57,6.12,10.61a2.59,2.59,0,0,0,3.51,1l11.63-6.7a2.53,2.53,0,0,0,1.18-1.57,2.43,2.43,0,0,0-.24-1.92l-6.14-10.63,2.88-1.89c4.78-3.12,8.87-6,12.54-8.73l2.76-2.08,7.85,9.37a2.14,2.14,0,0,0,.41.49,2.26,2.26,0,0,0,3.19-.17l10.3-8.63a2.56,2.56,0,0,0,.9-1.74,2.5,2.5,0,0,0-.58-1.84l-7.91-9.43,2.5-2.36c3.8-3.58,7.45-7.21,10.8-10.8l2.37-2.52,9.41,7.91a2.22,2.22,0,0,0,.47.39,2.27,2.27,0,0,0,3.14-.72L830.59,961a2.55,2.55,0,0,0,.59-1.91,2.4,2.4,0,0,0-.9-1.69l-9.37-7.9,2.07-2.75c2.87-3.83,5.71-7.93,8.71-12.53l1.89-2.91,10.62,6.16a2.62,2.62,0,0,0,3.5-1l6.73-11.6a2.59,2.59,0,0,0,.25-2,2.53,2.53,0,0,0-1.19-1.54l-10.62-6.14,1.55-3.07c2.58-5.09,4.71-9.61,6.51-13.83l1.36-3.17,11.47,4.18a2.62,2.62,0,0,0,3.26-1.53l4.61-12.59a2.57,2.57,0,0,0-1.53-3.29l-11.49-4.19,1-3.3c1.41-4.65,2.69-9.48,3.91-14.76l.77-3.37,12.54,2.17a2.53,2.53,0,0,0,2.5-2.12l2.35-13.2a2.55,2.55,0,0,0-.44-1.93,2.46,2.46,0,0,0-1.63-1l-12.11-2.14.41-3.42c.68-5.66,1.12-10.63,1.36-15.21l.18-3.46h12.26a2.56,2.56,0,0,0,1.81-.75,2.5,2.5,0,0,0,.74-1.8V800h0a2.55,2.55,0,0,0-2.54-2.56H869.44l-.18-3.45c-.24-4.6-.68-9.57-1.36-15.21l-.41-3.43,12.08-2.12h0a2.55,2.55,0,0,0,2.06-3L879.34,757a2.72,2.72,0,0,0-3-2.08l-12.07,2.13-.79-3.35c-1.28-5.5-2.56-10.33-3.91-14.78l-1-3.3L870,731.49h0a2.57,2.57,0,0,0,1.53-3.28L867,715.59l0-.06a2.52,2.52,0,0,0-3.25-1.46l-11.45,4.17-1.36-3.16c-1.86-4.31-4-8.83-6.53-13.83l-1.56-3.08,10.62-6.12a2.56,2.56,0,0,0,.93-3.5l-6.7-11.63a2.57,2.57,0,0,0-3.49-.93l-10.62,6.14-1.9-2.89c-3.08-4.72-5.93-8.82-8.72-12.54l-2.08-2.76,9.36-7.85a2.59,2.59,0,0,0,.33-3.61l-8.63-10.28a2.32,2.32,0,0,0-.4-.48,2.28,2.28,0,0,0-3.21.16l-9.41,7.91-2.36-2.53c-3.41-3.64-7-7.27-10.79-10.79l-2.52-2.37,7.89-9.4a2.55,2.55,0,0,0-.31-3.6l-10.28-8.64a1.87,1.87,0,0,0-.46-.38,2.28,2.28,0,0,0-3.16.7l-7.84,9.38-2.77-2.07c-3.73-2.81-7.83-5.67-12.52-8.74l-2.89-1.89L767,598.85a2.56,2.56,0,0,0-.92-3.5l-11.64-6.72a2.61,2.61,0,0,0-3.49.94l-6.11,10.61-3.08-1.56c-5.22-2.64-9.61-4.71-13.83-6.51l-3.18-1.35,4.17-11.45a2.59,2.59,0,0,0-1.53-3.32l-12.62-4.58a2.58,2.58,0,0,0-3.27,1.52l-4.16,11.48-3.31-1c-4.59-1.4-9.55-2.71-14.75-3.91l-3.37-.78L688,566.66v0a2.56,2.56,0,0,0-2.07-3l-13.67-2.38a2.56,2.56,0,0,0-2.52,2.13l-2.13,12.06-3.42-.4c-5.63-.67-10.61-1.12-15.22-1.37l-3.45-.19V561.28a2.55,2.55,0,0,0-2.54-2.55H629.58a2.55,2.55,0,0,0-2.55,2.55v12.23l-3.45.19c-4.58.25-9.56.7-15.22,1.37l-3.43.4-2.11-12.05v-.06a2.52,2.52,0,0,0-2.94-2l-13.22,2.32a2.58,2.58,0,0,0-1.68,1.08,2.53,2.53,0,0,0-.4,1.87l2.14,12.07-3.37.78c-5.37,1.24-10.2,2.52-14.79,3.91l-3.3,1-4.17-11.44a2.67,2.67,0,0,0-3.26-1.54L545.21,576a2.57,2.57,0,0,0-1.47,1.35,2.44,2.44,0,0,0-.07,1.91l4.16,11.46-3.17,1.35c-4.26,1.82-8.82,4-13.82,6.51l-3.07,1.56-6.13-10.58a2.6,2.6,0,0,0-3.48-.94l-11.63,6.7a2.54,2.54,0,0,0-1.2,1.59,2.41,2.41,0,0,0,.25,1.89l6.14,10.61-2.88,1.89c-4.81,3.15-8.91,6-12.54,8.75l-2.76,2.07-7.87-9.35a2.37,2.37,0,0,0-.41-.49,2.24,2.24,0,0,0-3.16.17l-10.3,8.63a2.43,2.43,0,0,0-.91,1.76,2.46,2.46,0,0,0,.58,1.82l7.91,9.41-2.52,2.36q-5.58,5.24-10.81,10.81l-2.36,2.51-9.39-7.88a1.94,1.94,0,0,0-.49-.41,2.26,2.26,0,0,0-3.11.72l-8.63,10.27a2.59,2.59,0,0,0-.59,1.91,2.47,2.47,0,0,0,.88,1.69l9.39,7.85-2.07,2.76c-2.89,3.84-5.75,7.94-8.75,12.55L439,682.07,428.44,676a2.59,2.59,0,0,0-3.47.93l-6.73,11.62a2.59,2.59,0,0,0-.25,2,2.48,2.48,0,0,0,1.17,1.52l10.61,6.11-1.56,3.07c-2.64,5.22-4.71,9.62-6.51,13.84l-1.35,3.17-11.45-4.14a2.56,2.56,0,0,0-3.26,1.51L401,728.2a2.57,2.57,0,0,0,.09,2,2.49,2.49,0,0,0,1.43,1.29L414,735.66l-1,3.3c-1.35,4.48-2.63,9.31-3.91,14.78l-.79,3.36L395.85,755a2.57,2.57,0,0,0-2.52,2.1L391,770.28a2.55,2.55,0,0,0,.44,1.93,2.42,2.42,0,0,0,1.61,1l12.08,2.12-.4,3.42c-.59,5-1.08,10.1-1.36,15.23l-.18,3.43H391A2.55,2.55,0,0,0,388.4,800v13.41h0a2.57,2.57,0,0,0,2.56,2.58H403.2l.18,3.44c.26,4.64.7,9.61,1.38,15.21l.41,3.43-12.1,2H393a2.55,2.55,0,0,0-2,3l2.32,13.22a2.8,2.8,0,0,0,2.94,2.09l12.07-2.14.79,3.36c1.27,5.47,2.55,10.3,3.91,14.77l1,3.3-11.44,4.18a2.55,2.55,0,0,0-1.52,3.27l4.57,12.61a.19.19,0,0,1,0,.07,2.53,2.53,0,0,0,3.25,1.47L420.37,895l1.36,3.17c1.82,4.27,3.95,8.82,6.51,13.82l1.56,3.08-10.59,6.12a2.55,2.55,0,0,0-1.19,1.57,2.4,2.4,0,0,0,.26,1.92L425,936.3a2.62,2.62,0,0,0,3.5,1l10.61-6.15L441,934c3.12,4.77,6,8.87,8.73,12.54l2.08,2.76-9.35,7.85,0,0a2.53,2.53,0,0,0-.28,3.57l8.6,10.29a2.28,2.28,0,0,0,.42.51,2.26,2.26,0,0,0,3.18-.17l9.42-7.91,2.36,2.52c3.46,3.7,7.09,7.33,10.79,10.79l2.52,2.36-7.88,9.42a2.54,2.54,0,0,0-.59,1.87,2.57,2.57,0,0,0,.89,1.72l10.29,8.64a1.87,1.87,0,0,0,.46.38,2.26,2.26,0,0,0,3.13-.69l7.87-9.38,2.77,2.08c3.72,2.8,7.82,5.66,12.51,8.73l2.89,1.88-6.11,10.62a2.56,2.56,0,0,0,.93,3.49l11.61,6.71a2.6,2.6,0,0,0,3.5-.92l6.13-10.63,3.08,1.57c5,2.5,9.56,4.68,13.82,6.5l3.17,1.36L543.71,1034a2.57,2.57,0,0,0,1.52,3.29l12.62,4.6a2.56,2.56,0,0,0,3.26-1.51l4.17-11.49,3.31,1c4.67,1.42,9.5,2.69,14.77,3.91l3.36.78-2.11,12.07v.05a2.55,2.55,0,0,0,2.08,2.95l13.67,2.38a2.54,2.54,0,0,0,2.49-2.1l2.14-12.11,3.43.41c5.63.67,10.6,1.12,15.2,1.36l3.46.18V1052h0a2.55,2.55,0,0,0,2.54,2.56H643a2.56,2.56,0,0,0,1.83-.76,2.5,2.5,0,0,0,.74-1.77v-12.27l3.45-.19c5.12-.28,10.22-.77,15.22-1.36l3.42-.4Z" transform="translate(0 -0.02)" style="fill:url(#linear-gradient-13)"/><path d="M533,946.18l-68.5-134.27,62.27-137.26,146.14-36.91,120,91.24,3.46,150.69L680.71,976.35Z" transform="translate(0 -0.02)" style="fill:url(#linear-gradient-14)"/><path d="M523.17,959.07,448.34,812.29l68.07-150.06,159.76-40.34,131.14,99.72,3.78,164.73L684.68,992ZM778.47,736.3,669.69,653.56,537.17,687,480.7,811.58l62.12,121.76,133.93,27.35L781.61,873Z" transform="translate(0 -0.02)" style="fill:#231f20"/><path d="M533,946.18l-68.5-134.27,62.27-137.26,146.14-36.91,120,91.24,3.46,150.69L680.71,976.35Z" transform="translate(0 -0.02)" style="fill:url(#linear-gradient-15)"/><path d="M530.57,949.42,460.47,812l63.7-140.47,149.57-37.77,122.75,93.37L800,881.35,681.7,980.28ZM789.29,730.91,672.11,641.8l-142.73,36L468.56,811.87,535.47,943l144.29,29.41L792.7,878Z" transform="translate(0 -0.02)" style="fill:#231f20"/><path d="M467.83,813.42l-6.63-3,63-138.87,149.55-37.76,121.36,92.3-4.42,5.8L672.11,641.71l-142.73,36L467.83,813.42Z" transform="translate(0 -0.02)" style="fill:#808285"/><path d="M626.78,733.65l51.33,10.49,23.52-114.26L650.3,619.32Z" transform="translate(0 -0.02)" style="fill:#121011"/><path d="M682.94,750.11,705.82,795l-1.34,2.93L815.39,745.1l-22.51-47.32L682.94,750.11Z" transform="translate(0 -0.02)" style="fill:#121111"/><path d="M684.56,753.32l-3.13-6.58,109.94-52.32,3.14,6.58Z" transform="translate(0 -0.02)" style="fill:#808285"/><path d="M682.44,846.48l-4.23,1.07,0,.3L798,907.28l23.31-46.93-118.5-58.82-20.39,45Z" transform="translate(0 -0.02)" style="fill:#191718"/><path d="M821.33,860.35,702.82,801.53" transform="translate(0 -0.02)" style="fill:#231f20"/><path d="M819.68,863.75l-118.46-58.9,3.25-6.53,118.46,58.91Z" transform="translate(0 -0.02)" style="fill:#6d6e71"/><path d="M677.85,847.64l-49,12.38-1.15,1.6L658.9,993.88l51-12-31.65-134-.41-.21Z" transform="translate(0 -0.02)" style="fill:#231f20"/><path d="M627.68,861.62l-.35-1.47-40.8-31-80.67,112.4,42.56,30.55,79.26-110.44Z" transform="translate(0 -0.02)" style="fill:#191718"/><path d="M508.83,943.6l-5.92-4.25,80.68-112.41,5.92,4.25Z" transform="translate(0 -0.02)" style="fill:#58595b"/><path d="M586.22,828.89l-3.68-2.81-1.14-49.4-130,7.42,3,52.31,131.87-7.52Z" transform="translate(0 -0.02)" style="fill:#121111"/><path d="M451.31,787.86l-.42-7.27,130-7.43.42,7.27Z" transform="translate(0 -0.02)" style="fill:#939598"/><path d="M581.24,769.52l38.08-31.85-81.85-90.58-38.88,35.15,82.75,91.55Z" transform="translate(0 -0.02)" style="fill:#121011"/><path d="M663.79,767.35l-33.74-6.94L605.12,783l8.13,4.28L605.12,783l-.4.36,1.89,33.08,26.26,18.87,31.2-7.36,14.74-29.68-14.64-30.79-.38-.08-2,2.58,2-2.58Z" transform="translate(0 -0.02)" style="fill:none"/><path d="M630.05,760.41l33.74,6.94,16.91-21.62-.6-1.19-55.45-11.32-43.41,36.3,0,.84L605.12,783l24.93-22.54Z" transform="translate(0 -0.02)" style="fill:#58595b"/><path d="M605.12,783l-23.86-12.59,1.28,55.72,45.05,34.25,54.85-13.85L705.82,795,680.7,745.73l-16.91,21.62.38.08,14.64,30.79L664.07,827.9l-31.2,7.36-26.26-18.87-1.89-33.08.4-.36Z" transform="translate(0 -0.02)"/><path d="M632.1,839.19l-27.62-19.84,4.26-5.92,24.91,17.9,29.58-7,1.68,7.1-32.81,7.74Z" transform="translate(0 -0.02)" style="fill:#808285"/><path d="M1924.52,34.35c-84.53,0-409.53,36-721,80.16l-22.22,135.31c648.26,34.76,1592.24,85.37,1633.77,89.05,0,0-678.51-252.45-890.58-304.52Z" transform="translate(0 -0.02)" style="fill:url(#linear-gradient-16)"/><path d="M3030.74,451.32c-36.43-2-359.33-11.83-392.14-12.62l21,38.24c29.7.32,332.14,9.82,352.14,10.45l19-36.07Z" transform="translate(0 -0.02)" style="fill:url(#linear-gradient-17)"/><path d="M2456.8,719.3c7.48.91,32.31,1.21,45.68,0,12.76-15.8,145.84-226,155.84-242.41h1.33l-21-38.24h-2.2C2628.7,448.21,2467.24,705.11,2456.8,719.3Z" transform="translate(0 -0.02)" style="fill:#1a1f33"/><path d="M372.86,845.37c-4.43-51.68,7.16-130.6,17.19-150.08-6.27.48-39.19,1.31-56.51,0-13.67-3.13-275.22-30.59-294.35-29.68.93,10,5.46,47.34,10.93,71,50.12,8.17,281.6,89.35,281.6,89.35l41.14,19.41Z" transform="translate(0 -0.02)" style="fill:url(#linear-gradient-18)"/><path d="M449.61,427.39l-148,219.67,37.41,2.1,129-185h0l-18.46-36.77Z" transform="translate(0 -0.02)" style="fill:#131824"/><path d="M450,426.79l-.4.6,18.46,36.77,347.55,5.47.06.08,38.74-42.92Z" transform="translate(0 -0.02)" style="fill:#3b4856"/><path d="M855.73,426.79h-1.31l-38.74,42.92L978.76,691.08l56.5-5.19L855.73,426.79Z" transform="translate(0 -0.02)" style="fill:#1e273a"/><path d="M984.23,802.73c9.41-.71,49.51-4.41,63.15-5.56-3.64-6.28-11.85-100.62-12.15-111.28-7.58.58-49.48,4.55-58,5.19.62,6.08,6.39,89,7,111.65Z" transform="translate(0 -0.02)" style="fill:#0b090b"/><path d="M2459.38,797.1l-2.57-77.77L1035.26,694.72l5.47,89.4Z" transform="translate(0 -0.02)" style="fill:url(#linear-gradient-19)"/><path d="M2455,797.1l-7.29-.29,15.91-404.75,7.28.28Z" transform="translate(0 -0.02)" style="fill:#43434c"/><path d="M1836.6,786.79l-7.27-.59,6.08-73.39-24.22-354.5,7.28-.5,24.21,355.05-6.08,73.93Zm-636.68-2.33-8.51-89L1166,323.28l7.28-.5,25.43,372.11,8.5,88.88-7.26.69Z" transform="translate(0 -0.02)" style="fill:#43434c"/><path d="M3268,660.09l-108.76,12.76V463l125.16,24.34Z" transform="translate(0 -0.02)" style="fill:url(#linear-gradient-20)"/><path d="M3150.13,432.11l93.56,6.58,40.71,48.69L3159.24,463l-9.11-30.93Z" transform="translate(0 -0.02)" style="fill:#f6f7f8"/><path d="M3030.79,451.33l-19,36.07h.58c5,7.29,109.66,171.32,121.5,187.72,15.54-1.24,25.05-2.56,38.32-3.79-17.34-25.73-131.93-207.42-139.93-219.93Z" transform="translate(0 -0.02)" style="fill:#1c172b"/><path d="M1938,395.11l-86.45-4.94.76-13.17,86.44,4.94Z" transform="translate(0 -0.02)" style="fill:none;stroke:#43434c;stroke-miterlimit:10.00000019211974;stroke-width:4.000000076847896px"/><path d="M1293,358.16l-86.45-4.94.75-13.17L1293.7,345Z" transform="translate(0 -0.02)" style="fill:none;stroke:#43434c;stroke-miterlimit:10.00000019211974;stroke-width:4.000000076847896px"/></svg>