<svg data-name="—ÎÓÈ_1" xmlns="http://www.w3.org/2000/svg" xmlns:xlink="http://www.w3.org/1999/xlink" viewBox="0 0 4980.23 1240.39"><defs><linearGradient id="a" x1="18505.23" y1="1386.23" x2="18505.23" y2="2063.52" gradientTransform="translate(-14145.05)" gradientUnits="userSpaceOnUse"><stop offset="0" stop-color="#141414"/><stop offset=".62" stop-color="#181818"/><stop offset="1" stop-color="#1e1e1e"/></linearGradient><linearGradient id="f" x1="-5723.71" y1="2090.49" x2="-5723.71" y2="1358.74" gradientTransform="matrix(-1 0 0 1 -1380.39 0)" xlink:href="#a"/><linearGradient id="d" x1="-515.51" y1="2016.12" x2="-515.51" y2="1665.55" gradientTransform="matrix(-.86 -.51 -.51 .86 4834.16 -126.68)" gradientUnits="userSpaceOnUse"><stop offset="0" stop-color="#141414"/><stop offset="1"/></linearGradient><linearGradient id="c" x1="-1416.58" y1="1422.3" x2="-1416.58" y2="2027.44" gradientTransform="matrix(-1 0 0 1 2943.6 0)" gradientUnits="userSpaceOnUse"><stop offset="0" stop-color="#787878"/><stop offset=".42" stop-color="#5a5a5a"/><stop offset=".43" stop-color="#5e5e5e"/><stop offset=".47" stop-color="#797979"/><stop offset=".52" stop-color="#8f8f8f"/><stop offset=".57" stop-color="#a0a0a0"/><stop offset=".64" stop-color="#ababab"/><stop offset=".73" stop-color="#b2b2b2"/><stop offset="1" stop-color="#b4b4b4"/></linearGradient><linearGradient id="b" x1="-1410.03" y1="1791.49" x2="-1410.03" y2="1656.97" gradientTransform="matrix(-1 0 0 1 2943.6 0)" gradientUnits="userSpaceOnUse"><stop offset="0" stop-color="#a8a9a8"/><stop offset="1" stop-color="#282828"/></linearGradient><linearGradient id="g" x1="-1416.58" y1="2025.43" x2="-1416.58" y2="1431.45" xlink:href="#b"/><linearGradient id="h" x1="-1416.58" y1="2027.44" x2="-1416.58" y2="1422.3" xlink:href="#c"/><linearGradient id="e" x1="-1418.04" y1="2027.44" x2="-1418.04" y2="1422.3" gradientTransform="matrix(-1 0 0 1 2943.6 0)" gradientUnits="userSpaceOnUse"><stop offset="0" stop-color="#a8a9a8"/><stop offset="1" stop-color="#fff"/></linearGradient><linearGradient id="i" x1="15705.03" y1="1339.12" x2="15705.03" y2="2061.24" gradientTransform="matrix(-1 0 0 1 17088.65 0)" xlink:href="#a"/><linearGradient id="j" x1="-2922.39" y1="2090" x2="-2922.39" y2="1309.82" gradientTransform="translate(4323.99)" xlink:href="#a"/><linearGradient id="k" x1="2193.37" y1="1311.64" x2="2193.37" y2="937.86" gradientTransform="rotate(59.29 1300.38 719.587)" xlink:href="#d"/><linearGradient id="l" x1="1383.63" y1="1377.58" x2="1383.63" y2="2022.78" xlink:href="#c"/><linearGradient id="m" x1="1390.61" y1="1771.21" x2="1390.61" y2="1627.78" xlink:href="#b"/><linearGradient id="n" x1="1383.63" y1="2020.63" x2="1383.63" y2="1387.34" xlink:href="#b"/><linearGradient id="o" x1="1383.63" y1="2022.78" x2="1383.63" y2="1377.58" xlink:href="#c"/><linearGradient id="p" x1="1382.07" y1="2022.78" x2="1382.07" y2="1377.58" xlink:href="#e"/><linearGradient id="q" x1="2937.71" y1="1936.76" x2="2937.71" y2="857.49" gradientUnits="userSpaceOnUse"><stop offset="0" stop-color="#41001c"/><stop offset=".08" stop-color="#56082a"/><stop offset=".32" stop-color="#921f52"/><stop offset=".54" stop-color="#c13271"/><stop offset=".73" stop-color="#e33f88"/><stop offset=".89" stop-color="#f74796"/><stop offset=".99" stop-color="#ff4a9b"/></linearGradient><linearGradient id="r" x1="2962.26" y1="1915.95" x2="2962.26" y2="857.49" gradientUnits="userSpaceOnUse"><stop offset="0" stop-color="#ec228e"/><stop offset=".49" stop-color="#f690ba"/><stop offset=".84" stop-color="#fcd9d8"/><stop offset="1" stop-color="#fff5e3"/></linearGradient><linearGradient id="s" x1="3366.64" y1="1262.8" x2="3366.64" y2="931.67" gradientUnits="userSpaceOnUse"><stop offset="0"/><stop offset="1" stop-color="#282828"/></linearGradient><linearGradient id="t" x1="3023.13" y1="1144.05" x2="3023.13" y2="955.21" gradientUnits="userSpaceOnUse"><stop offset="0" stop-color="#fff"/><stop offset="1" stop-color="#282828"/></linearGradient><linearGradient id="u" x1="2946.84" y1="1970.98" x2="2946.84" y2="999.24" xlink:href="#a"/><linearGradient id="v" x1="2946.9" y1="999.31" x2="2946.9" y2="1970.98" xlink:href="#a"/><linearGradient id="w" x1="3168.25" y1="1816.31" x2="3168.25" y2="1015.46" xlink:href="#c"/></defs><path d="M4952.57 797.59c-211.41-154.94-447.17-270.7-667.41-351.18-135.67-49.57-284.47-84.7-408.47-83.29q-42.52.75-86.12 4.24c-272.39-120.64-552.84-212.79-838.47-286.59a54.58 54.58 0 0 1 18.24-6.59c-.94-5.18-1.89-7-10.36-8.94-349.17-79.06-748.7-74.83-1064.58-46.94a64.15 64.15 0 0 0-20.12 5.06s-2.24-5-14.36-4c-422.16 34.49-718.67 86-1144.84 158.24l-41.33-21.7a62.9 62.9 0 0 0-27.94-7.22l-317.11-6.92a34.18 34.18 0 0 0-22.92 8.15l-26.29 22.37c-80-1-149.13-1.63-183.57-1.63-20.7 0-29.64 1.41-39.52 10.82s-51.3 57.42-56 64.47 2.67 15.19 18.82 17.42l88.94 12.23s-36.24 34.35-51.76 72c-5.34 12.94 4.7 38.12 15.28 49.12-2.11 31.8 4.58 80.8 20.48 130.65 2.86 9 14.48 5.45 17.41 14.58q2.09 6.48 4.25 13.06c-24.53 3.82-62.64 9.8-76.25 12.12-20.7 3.53-29.65 79.3-32.47 84.71s5.18 6.35 12 5.64-17.18 30.83-3.53 38.12 95.3 66.35 95.3 66.35l35.43 77.84c7.11 15.6 20.64 23 36.78 32.72C236.22 905.07 595 1005.02 595 1005.02l4.09-28.64c39 12.54 64.89 20.62 64.89 20.62s412.94 61.42 542.83 61.42 135.53 42.35 135.53 42.35l135.61 89.27a19.38 19.38 0 0 0 10.67 3.2h43.71a19.4 19.4 0 0 0 14.88-7l13.82-16.5a19.39 19.39 0 0 1 14.78-7l1722.52-9.08a19.39 19.39 0 0 1 15 7l12.32 14.85a19.41 19.41 0 0 0 14.94 7h48.81a19.42 19.42 0 0 0 14.18-6.15l49.9-53.35a19.44 19.44 0 0 1 14.18-6.15h65.7c42.85-26.17 97.17-39.65 157.41-46.59l364.94-10.58s164 12.94 216.7 31.76c108.27 2.35 413.18 9.18 480 9.18s172.16-15.12 175.1-30.21 34.24-177.18 37.77-203-15-31.41-5.65-31.41 20.12-1.76 20.12-11.29c0-17.21 6.35-27.13-27.18-27.13ZM2164.64 233.1c-73.72-27.89-158.85-62.25-228.32-96.2a4.6 4.6 0 0 1 1.34-8.69c71.64-10.88 143.2-18.48 213.62-23.37a4.61 4.61 0 0 1 4.89 4l14.67 119.36a4.61 4.61 0 0 1-6.2 4.9Zm916.28 78.49c-34.58 0-15.21 18.44-22.58 30.35-6.48 10.47-13.05 27.18-18.83 44.43-22.32-2.65-45.53-5.45-69.35-8.38a140.46 140.46 0 0 1-2.18-23.34c0-44.47-26.11-56.47-29.64-43.06s-18.36 36.71-18.36 36.71l-19.76-2.12s3.51-47.29 3.51-72.71-28.22-31.06-41 0c-7.44 18.14-19.42 57.7-28.09 87.48-168.23-21.59-340.69-45.06-432.54-57.69a690.76 690.76 0 0 1-120.67-27.82 4.63 4.63 0 0 1-3.15-3.93l-16.48-167.33a4.61 4.61 0 0 1 4.44-5.06q38.64-1.17 76.5-1.36c168.17.91 321 16.4 439.67 36.28 123.52 20.7 266.14 66.43 401.47 119.33a290.64 290.64 0 0 0-1.23 33.6 55 55 0 0 0 6.25 24.62Z"/><path d="M3684.32 500.99h-22.1c-196.09 0-355.06 159-355.06 355.07s159 355.06 355.06 355.06h22.1c196.1 0 355.06-159 355.06-355.06s-158.96-355.07-355.06-355.07Z"/><path d="M3895.27 498.23h-23.09c-204.94 0-371.08 166.14-371.08 371.08s166.14 371.08 371.08 371.08h23.09c204.94 0 371.08-166.14 371.08-371.08s-166.14-371.08-371.08-371.08Z"/><path d="M4360.18 1386.23c-189.69 0-343.46 151.61-343.46 338.64s153.77 338.65 343.46 338.65 343.47-151.62 343.47-338.65-153.77-338.64-343.47-338.64Zm0 647.39c-171.5 0-310.53-138.52-310.53-309.39s139-309.39 310.53-309.39 310.54 138.52 310.54 309.39-139.03 309.39-310.54 309.39Z" transform="translate(-461.43 -857.49)" style="fill:url(#a)"/><path d="M4335.75 2090.4c-2.26 0-4.52.09-6.78.09-208.23 0-364.74-162.83-364.74-363.69s165.92-368.06 374.14-368.06c2.27 0 4.53 0 6.79.09-197.84 3.49-366.54 169.31-366.54 368s159.3 360.08 357.13 363.57Zm386.66-363.85c0 198.27-163.73 359-365.71 359s-365.7-160.73-365.7-359 163.74-359 365.71-359 365.7 160.73 365.7 359Zm-14 0c0-190.67-157.46-345.24-351.7-345.24S4005 1535.88 4005 1726.55s157.46 345.24 351.69 345.24 351.71-154.57 351.71-345.24Z" transform="translate(-461.43 -857.49)" style="fill:url(#f)"/><circle cx="4337.45" cy="1719.24" r="175.28" transform="rotate(-45 3071.651 1847.48)" style="fill:url(#d)"/><path d="M4363.41 1451.4q-.1 6.57-.19 13.21h-3c-5.51 0-11 .19-16.41.53-.06-4.42-.13-8.84-.19-13.23 5.49-.33 11-.51 16.6-.51 1.04-.04 2.11-.01 3.19 0Zm-35.1 1.81a272.73 272.73 0 0 0-111.41 38.43l11.13 8.75a259.59 259.59 0 0 1 100.28-33.88Zm-122.93 45.89a273.67 273.67 0 0 0-27.62 21.6l5.18 13.17a261.26 261.26 0 0 1 33.1-26Zm290.44-12a273 273 0 0 0-117.15-35.1v13.24a259.82 259.82 0 0 1 105.88 30.76ZM4543 1521l-4.93 13.41a260.15 260.15 0 0 1 63.28 91.06l12.65-4.11a273.45 273.45 0 0 0-71-100.36Zm-10.4-8.84a276.58 276.58 0 0 0-25-18l-10.77 8.88a262.39 262.39 0 0 1 30.69 22.06Zm-432.92 127.57q-3 9.24-5.38 18.76l12.69 3.93q2.29-9.35 5.25-18.41Zm279.46 387.1c160.67-9.64 288-141.14 288-302 0-167.1-137.39-302.57-306.88-302.57s-306.87 135.47-306.87 302.57a299.07 299.07 0 0 0 9.74 75.93l23.87-16a279.6 279.6 0 0 1-1.66-113l-17-5.52a1.4 1.4 0 0 1-.92-1.64q1.44-6 3.14-12a1.38 1.38 0 0 1 1.73-.94l16.37 5q2.4-9.59 5.46-18.92-7.84-2.67-15.54-5.31a1.38 1.38 0 0 1-.85-1.79q2.16-5.82 4.57-11.53a1.39 1.39 0 0 1 1.7-.78l15.28 5a279.06 279.06 0 0 1 66-99.13l-7.56-20.56a1.38 1.38 0 0 1 .42-1.55q3.94-3.26 8-6.37a1.39 1.39 0 0 1 2.14.6l7.25 18.44a281.47 281.47 0 0 1 25.18-19.64l-14.15-11.66a1.39 1.39 0 0 1 .12-2.23q4.33-2.8 8.77-5.46a1.37 1.37 0 0 1 1.57.1l15 11.81a278.91 278.91 0 0 1 116.37-40.5v-5.42a1.38 1.38 0 0 1 1.27-1.38q6.16-.5 12.4-.73a1.38 1.38 0 0 1 1.43 1.36c0 1.62.05 3.24.08 4.87 5.52-.32 11.09-.51 16.69-.51h3.32c0-1.48 0-3 .07-4.42a1.38 1.38 0 0 1 1.43-1.36q6.24.24 12.4.73a1.39 1.39 0 0 1 1.27 1.39v4.23a279 279 0 0 1 122.17 37.12l9.21-7.24a1.37 1.37 0 0 1 1.57-.1q4.44 2.65 8.77 5.46a1.39 1.39 0 0 1 .12 2.23l-8.15 6.71q11.66 7.55 22.49 16.17l3.94-10a1.39 1.39 0 0 1 2.14-.6q4 3.12 8 6.37a1.38 1.38 0 0 1 .42 1.55l-4.17 11.34a279.5 279.5 0 0 1 74.47 104.5l3.43-1.12a1.39 1.39 0 0 1 1.71.78q2.4 5.7 4.56 11.53a1.38 1.38 0 0 1-.84 1.79l-3.53 1.21q3.26 9.45 5.84 19.2l4-1.23a1.37 1.37 0 0 1 1.73 1c1.13 4 2.16 8 3.12 12a1.39 1.39 0 0 1-.92 1.64l-4.41 1.43a279.92 279.92 0 0 1-2.69 124.84l17.37 11.63a1.38 1.38 0 0 1 .57 1.49c-.82 3.3-1.71 6.57-2.64 9.82a1.39 1.39 0 0 1-2.08.78l-16.95-10.7a273.52 273.52 0 0 1-10.72 29.12l21 1.28a1.38 1.38 0 0 1 1.21 1.87c-1.2 3.19-2.47 6.36-3.78 9.5a1.39 1.39 0 0 1-1.33.85l-23-.88a280.16 280.16 0 0 1-75.25 93.83l8.76 12.06a1.38 1.38 0 0 1-.22 1.86q-4.72 4-9.61 7.86a1.39 1.39 0 0 1-2-.25l-9.16-12.23q-8 5.76-16.39 10.95c3.09 4.39 6.17 8.76 9.2 13.08a1.38 1.38 0 0 1-.36 1.94q-5.18 3.43-10.49 6.65a1.37 1.37 0 0 1-1.83-.37l-9.84-13.54a278.63 278.63 0 0 1-108.03 32.88Zm-312.47-213.43q3.49 11.28 7.83 22.19l28.24-1.72a276.07 276.07 0 0 1-12.46-35.53Zm37-135.6-12.71-4.14a273.4 273.4 0 0 0 1.27 107.6l11.92-8a260.8 260.8 0 0 1-.48-95.48Zm522.69 111.2a274 274 0 0 0 2.26-119.46l-12.71 4.13a260.52 260.52 0 0 1-1.32 107.45Zm-453.87-245-5.05-13.72a273 273 0 0 0-62.59 94.87l12.63 4.1a259.82 259.82 0 0 1 55.01-85.17Zm-77 250.91a270.37 270.37 0 0 0 13.53 38.5l14.14-.86a257.14 257.14 0 0 1-15.91-45.13Zm95.81 144.26q7.6 5.93 15.62 11.34l7.63-10.82q-7.86-5.28-15.32-11.12Zm433.79-284.57q-2.55-9.66-5.78-19l-12.55 4.28q3.16 9.18 5.65 18.66Zm-284.22 372.15c6.38.39 12.8.61 19.27.61 1.92 0 3.84 0 5.75-.07l6.34-24.48c-4 .17-8 .27-12.09.27-8.67 0-17.24-.41-25.71-1.18Zm-261.16-178.94c43.59 96.47 136.88 166.29 247.8 177.85l-7.19-25.4a278.67 278.67 0 0 1-103.74-36.63l-13.77 19a1.38 1.38 0 0 1-1.83.38q-5.33-3.22-10.49-6.65a1.38 1.38 0 0 1-.37-2c4.4-6.25 8.89-12.62 13.38-19q-8.07-5.45-15.75-11.43c-4.69 6.26-9.37 12.51-14 18.63a1.38 1.38 0 0 1-2 .26q-4.89-3.83-9.61-7.86a1.38 1.38 0 0 1-.22-1.86l13.83-19a279.92 279.92 0 0 1-67.18-87.36Zm140.37 111a272.94 272.94 0 0 0 98.47 35.21l-4-14a259.56 259.56 0 0 1-86.68-31.92Zm-40.76-29.58 7.82-10.76a260.89 260.89 0 0 1-57.34-72.58l-14.64.55a274.13 274.13 0 0 0 64.2 82.88Zm425.6-82.23-14.65-.55a261 261 0 0 1-65.36 79.11l7.79 10.72a274.18 274.18 0 0 0 72.22-89.28Zm6-12.75a271 271 0 0 0 11.83-32.06l-11.64-7.42a256.57 256.57 0 0 1-14.36 38.62Zm-223.07 161.57a272.85 272.85 0 0 0 102.89-31.56l-7.86-10.81a259.83 259.83 0 0 1-91.14 28.64Zm116.3-39.34q8.32-5.15 16.25-10.84l-7.93-10.6q-7.77 5.6-15.95 10.61Zm-144 40.73q6.87 0 13.64-.34l3.49-13.45c-5.66.37-11.37.57-17.13.57a265.87 265.87 0 0 1-30.83-1.81l3.55 13.68q13.48 1.37 27.31 1.38Z" transform="translate(-461.43 -857.49)" style="fill:url(#c)"/><path d="M4286.8 1732.84a67 67 0 0 0 14.34 33.6l8.23-11.33a10.93 10.93 0 0 1 15.26-2.42l2.23 1.63a2.77 2.77 0 0 1 .62 3.87l-14.39 19.81a67.1 67.1 0 0 0 15.28 8.63l13.21-18.19a2.78 2.78 0 0 1 3.88-.61l2.23 1.62a10.92 10.92 0 0 1 2.42 15.26l-4.57 6.3a69 69 0 0 0 7.92.48 67 67 0 0 0 17.46-2.31l-3.25-4.47a10.93 10.93 0 0 1 2.42-15.26l2.24-1.62a2.77 2.77 0 0 1 3.87.61l10.4 14.3a67.43 67.43 0 0 0 13.92-10.49l-10.21-14.06a2.77 2.77 0 0 1 .61-3.87l2.24-1.63a10.93 10.93 0 0 1 15.26 2.42l2.7 3.72a67 67 0 0 0 8.43-22.28l-5.7 1.86a10.93 10.93 0 0 1-13.77-7l-.86-2.63a2.78 2.78 0 0 1 1.78-3.49l19.47-6.33a67.2 67.2 0 0 0-3.62-17.15l-21.23 6.9a2.78 2.78 0 0 1-3.5-1.78l-.85-2.63a10.92 10.92 0 0 1 7-13.77l11.11-3.61a67.59 67.59 0 0 0-25.32-22.55v15.84a10.92 10.92 0 0 1-10.92 10.92h-2.77a2.77 2.77 0 0 1-2.77-2.77v-29.87a67.93 67.93 0 0 0-14.15-1.5c-1.1 0-2.19 0-3.28.08v31.29a2.78 2.78 0 0 1-2.78 2.77h-2.76a10.92 10.92 0 0 1-10.93-10.92v-20.26a67.28 67.28 0 0 0-34.15 24.1l19.94 6.48a10.93 10.93 0 0 1 7 13.77l-.86 2.63a2.77 2.77 0 0 1-3.49 1.78l-30.89-10a66.68 66.68 0 0 0-4.47 16.88l30 9.74a2.76 2.76 0 0 1 1.78 3.49l-.85 2.63a10.94 10.94 0 0 1-13.77 7Zm34.18-3a33.45 33.45 0 0 1 33.46-33.45h1.51a30.44 30.44 0 1 0 31.9 31.91v1.51a33.46 33.46 0 1 1-66.91 0Z" transform="translate(-461.43 -857.49)" style="fill:url(#b)"/><path d="M4231.71 1670.62a27.14 27.14 0 0 1-6.59-9.78L4164 1494.58q5-4.15 10.22-8.11l66.23 168.34a10.67 10.67 0 0 0 6.65 6.26l18.9 6.15 54.8 17.8a10.94 10.94 0 0 1 7 13.77l-.85 2.63a2.78 2.78 0 0 1-3.5 1.78l-62.55-20.33-18.91-6.14-37.18-12.08c-28.3-9.19-77.37-25.86-121-40.78q2.61-7.09 5.56-14l128.9 41.88a54.16 54.16 0 0 0 13.44 18.87Zm-164.44 138.47 155.2-99a10.69 10.69 0 0 1 9.06-1.16l18.9 6.14 54.8 17.81a10.93 10.93 0 0 0 13.77-7l.85-2.62a2.77 2.77 0 0 0-1.78-3.5l-62.55-20.33-18.9-6.14-37.19-12.08c-28.3-9.2-77.82-24.57-121.88-38.13q-2.09 7.23-3.82 14.6l129 41.92c6.54-4.1 14-6.35 22-7.42a27.2 27.2 0 0 0-11.09 4l-149.74 100.3q1.55 6.39 3.37 12.61Zm284.2-251c0-29.54-.68-80.82-1.38-126.64-5.07.17-10.09.46-15.09.88v134.58c5.93 5 10.36 11.33 13.84 18.59a27.23 27.23 0 0 0-7.27-9.29l-138.7-109.09q-5.67 3.38-11.17 7l139.4 114.81a10.69 10.69 0 0 1 3.9 8.26v77.5a10.94 10.94 0 0 0 10.93 10.93h2.76a2.79 2.79 0 0 0 2.78-2.78v-124.73Zm-82 271.79c-7.08 3.83-14.41 6.38-22.12 6.91L4168 1946q5.72 4.92 11.69 9.56c27.56-36.73 58.37-78 75.78-102l23-31.62c4.45-6.14 8.34-11.48 11.68-16.08l38.66-53.21a2.78 2.78 0 0 0-.61-3.88l-2.24-1.62a10.92 10.92 0 0 0-15.26 2.41l-33.87 46.62-11.68 16.08a10.68 10.68 0 0 1-8 4.39l-183.61 11.15q2.28 6.14 4.81 12.14l179.8-6.85a27.25 27.25 0 0 0 11.28-3.19Zm.12 34c-17.4 24-47.1 66-73.51 103.54q6.27 4.2 12.76 8.09l79.26-109.09c-1.88-7.49-1.72-15.25-.27-23.17a27.34 27.34 0 0 0 .42 11.79l48.07 169.69c4.33.33 8.7.56 13.08.71l-45.21-174.53a10.72 10.72 0 0 1 1.7-9l11.68-16.08 33.87-46.62A10.92 10.92 0 0 0 4349 1764l-2.23-1.62a2.78 2.78 0 0 0-3.88.61l-38.66 53.21q-5 6.9-11.68 16.08c-6.45 8.82-14.07 19.31-23 31.59Zm115.81-431.52q-7.48-.64-15.08-.9c-.71 45.83-1.38 97.12-1.38 126.66v124.74a2.78 2.78 0 0 0 2.78 2.78h2.76a10.93 10.93 0 0 0 10.92-10.93v-77.5a10.72 10.72 0 0 1 3.9-8.26l139.4-114.81q-5.51-3.62-11.16-7l-138.7 109.09a27.23 27.23 0 0 0-7.27 9.29c3.48-7.26 7.91-13.63 13.83-18.59Zm251.17 191.52q-2.61-7.09-5.55-14l-128.91 41.89a54.16 54.16 0 0 1-13.41 18.9 27.14 27.14 0 0 0 6.59-9.78l61.12-166.26q-5-4.15-10.21-8.11l-66.23 168.34a10.67 10.67 0 0 1-6.65 6.26l-18.91 6.15-54.8 17.8a10.92 10.92 0 0 0-7 13.77l.85 2.63a2.78 2.78 0 0 0 3.5 1.78l62.55-20.33 18.91-6.14 37.18-12.08c28.25-9.24 77.32-25.91 120.93-40.83Zm-140.86 68.34a54.21 54.21 0 0 1 22 7.41l129-41.92c-1.14-4.91-2.4-9.79-3.79-14.6-44.06 13.56-93.59 28.93-121.9 38.13l-37.18 12.08-18.9 6.14-62.55 20.33a2.78 2.78 0 0 0-1.79 3.5l.86 2.62a10.93 10.93 0 0 0 13.77 7l54.8-17.81 18.9-6.14a10.69 10.69 0 0 1 9.06 1.16l155.19 99q1.84-6.22 3.4-12.55l-149.74-100.3a27 27 0 0 0-11.17-4.06Zm-81.15 149.71a10.72 10.72 0 0 1 1.7 9l-45.26 174.5q6.59-.23 13.09-.71l48.07-169.72a27.19 27.19 0 0 0 .41-11.79c1.46 7.92 1.62 15.68-.26 23.17l79.26 109.09q6.48-3.88 12.75-8.1c-26.41-37.56-56.1-79.58-73.5-103.53-8.93-12.28-16.55-22.77-23-31.63l-11.69-16.08-38.64-53.13a2.77 2.77 0 0 0-3.87-.61l-2.24 1.62a10.92 10.92 0 0 0-2.41 15.26l33.86 46.62Zm50.4 11.7c17.41 24 48.22 65.22 75.78 102q6-4.63 11.69-9.56l-79.34-109.2c-7.7-.53-15-3.08-22.12-6.91a27.33 27.33 0 0 0 11.34 3.25l179.79 6.85q2.53-6 4.81-12.14l-183.6-11.15a10.68 10.68 0 0 1-8-4.39l-11.68-16.08-33.87-46.62a10.92 10.92 0 0 0-15.26-2.41l-2.24 1.62a2.78 2.78 0 0 0-.61 3.88l38.66 53.21 11.68 16.08Z" transform="translate(-461.43 -857.49)" style="fill:url(#g)"/><path d="m4090.07 1797.6.51-.32a275.64 275.64 0 0 0 10.68 28.9l-1.64.1a276.19 276.19 0 0 1-9.55-28.68Zm113.06 157.54 3.42-4.85q-4.79-3.24-9.44-6.67a233 233 0 0 1-5.5-4l-3.46 4.62q7.31 5.71 14.98 10.9Zm337.41-25.44 3.5 4.81a279.88 279.88 0 0 0 67.83-88.08l-6.29-.24q-2 3.68-4 7.28a274.28 274.28 0 0 1-61.04 76.23Zm-365.07 4.1 3.17-4.36a280 280 0 0 1-67.94-83.61l-2.44.09a280 280 0 0 0 67.21 87.88Zm345.4 11.56q-4 2.9-8.1 5.63l3.42 4.85c2.78-1.86 5.52-3.78 8.23-5.73Zm-202 48.78a273 273 0 0 1-98.2-34.94l-3.51 4.82a278.58 278.58 0 0 0 103.48 36.36Zm73.56 1.2-1.74 6.14a278.74 278.74 0 0 0 104.07-32.61l-3.51-4.83a272.89 272.89 0 0 1-98.84 31.3Zm-32.23 1.9c-6.14 0-12.24-.23-18.28-.63l1.56 6c5.54.33 11.11.51 16.72.51 4 0 7.93-.1 11.86-.27l1.55-6c-4.46.27-8.93.39-13.43.39ZM4488.47 1708q-.72-5.31-1.87-10.47l-3.07-.17a125.29 125.29 0 0 1-4.86 12.66 1.31 1.31 0 0 0 1.61 1.77l7.29-2.36a1.33 1.33 0 0 0 .9-1.43Zm-113.6 79.39 28 38.49 10.4 14.31a1.31 1.31 0 0 0 1.61.42 128.69 128.69 0 0 0 13.72-7.34l-.72-1-11.69-16.08-24-33.05a1.3 1.3 0 0 0-1.36-.5 129.72 129.72 0 0 1-15 2.67 1.31 1.31 0 0 0-.96 2.04Zm-14.69-365c169.49 0 306.88 135.47 306.88 302.57s-137.39 302.57-306.88 302.57-306.87-135.53-306.87-302.66 137.39-302.57 306.87-302.57Zm-273.93 359.26 127.36-85.32a27.05 27.05 0 0 1 11.08-4 54.57 54.57 0 0 0-21.44 7.09 1.29 1.29 0 0 1-1.08.13l-127.28-41.36a1.31 1.31 0 0 1-.88-1.55q1.45-6.12 3.17-12.13a1.32 1.32 0 0 1 1.65-.9c43.73 13.47 92.57 28.63 120.6 37.74l26.91 8.74a1.31 1.31 0 0 1 .85 1.57c-.78 3-1.45 6-2 9.13a1.26 1.26 0 0 1-.57.85 252 252 0 0 0-43.94 35.23 1.84 1.84 0 0 1-.22.17l-109.24 69.66q3.06 10.67 6.88 21l44-2.67a1.31 1.31 0 0 1 1.31 1.76q-2 5.38-3.67 10.88a1.32 1.32 0 0 1-1.2.92l-35.59 1.36a301 301 0 0 0 554.55 0l-35.59-1.36a1.31 1.31 0 0 1-1.2-.92q-1.71-5.49-3.67-10.88a1.31 1.31 0 0 1 1.3-1.76l17 1q5-11.57 9-23.63l3.91 2.49q-3.31 10.92-7.47 21.47l21.54 1.3q3.81-10.32 6.87-21L4539.96 1737a1.84 1.84 0 0 1-.22-.17 252.36 252.36 0 0 0-43.94-35.23 1.31 1.31 0 0 1-.58-.85c-.56-3.08-1.24-6.13-2-9.13a1.3 1.3 0 0 1 .85-1.57l26.9-8.74c28-9.11 76.88-24.27 120.62-37.74a1.31 1.31 0 0 1 1.65.9q1.7 6 3.15 12.13a1.32 1.32 0 0 1-.88 1.56l-127.27 41.35a1.28 1.28 0 0 1-1.08-.13 54.73 54.73 0 0 0-21.45-7.1 27.11 27.11 0 0 1 11.08 4l124 83.07a279.72 279.72 0 0 0 3.11-112.32l.25-.08a279.4 279.4 0 0 1 0 114.66l-.27-.18 18.62 12.47a299.23 299.23 0 0 0 8.17-69.56c0-91-40.78-172.54-105.12-227.45l-60.29 164a27.14 27.14 0 0 1-6.59 9.78 54.45 54.45 0 0 0 13.18-18.35 1.26 1.26 0 0 1 .8-.73l127.19-41.33a1.32 1.32 0 0 1 1.62.74q2.43 5.76 4.61 11.66a1.31 1.31 0 0 1-.8 1.7c-43.29 14.81-91.69 31.24-119.71 40.34l-27.14 8.82a1.3 1.3 0 0 1-1.6-.74 134 134 0 0 0-7.58-15.16 1.3 1.3 0 0 1 0-1.33 10.41 10.41 0 0 0 .68-1.43l65.42-166.29q-8.84-6.9-18.2-13.14l-137.89 113.56a10.66 10.66 0 0 0-2.18 2.47 1.25 1.25 0 0 1-1.31.54 140.86 140.86 0 0 0-15.65-2 1.3 1.3 0 0 1-1.22-1.3v-30.54c0-29.26.66-79.83 1.36-125.32a1.32 1.32 0 0 1 1.37-1.29q6.3.24 12.53.75a1.31 1.31 0 0 1 1.2 1.31v132.77a1.3 1.3 0 0 1-.45 1 54.54 54.54 0 0 0-13.38 18.2 27.23 27.23 0 0 1 7.27-9.29L4516 1468.3a301.69 301.69 0 0 0-311.69 0l137.23 107.93a27.23 27.23 0 0 1 7.27 9.29 54.54 54.54 0 0 0-13.38-18.2 1.31 1.31 0 0 1-.46-1v-132.76a1.32 1.32 0 0 1 1.21-1.31q6.22-.49 12.53-.74a1.33 1.33 0 0 1 1.37 1.29c.7 45.49 1.36 96.06 1.36 125.31v30.54a1.31 1.31 0 0 1-1.22 1.3 140.86 140.86 0 0 0-15.65 2 1.24 1.24 0 0 1-1.31-.54 10.48 10.48 0 0 0-2.19-2.47l-137.88-113.56q-9.35 6.24-18.21 13.14l65.43 166.29a10.41 10.41 0 0 0 .68 1.43 1.32 1.32 0 0 1 0 1.33 134 134 0 0 0-7.58 15.16 1.3 1.3 0 0 1-1.6.74l-27.14-8.82c-28-9.1-76.42-25.53-119.71-40.34a1.31 1.31 0 0 1-.8-1.7q2.19-5.89 4.62-11.66a1.32 1.32 0 0 1 1.62-.74l127.18 41.33a1.29 1.29 0 0 1 .8.73 54.45 54.45 0 0 0 13.18 18.35 27.14 27.14 0 0 1-6.59-9.78l-60.29-164c-64.34 54.91-105.12 136.43-105.12 227.45a299.23 299.23 0 0 0 8.17 69.56l18.33-12.28c-.08-.39-.17-.79-.25-1.18.14.4.24.78.34 1.17Zm224.06-3.44a1.32 1.32 0 0 0-.56-2 129.36 129.36 0 0 1-12.55-6 1.31 1.31 0 0 0-1.69.37l-18.72 25.77-10.68 14.7a1.32 1.32 0 0 0 .11 1.68 130.36 130.36 0 0 0 10.31 9.63 1.31 1.31 0 0 0 1.89-.24c4.46-6.15 8.35-11.49 11.69-16.09Zm-6.1 38q-5 6.9-11.68 16.08c-.23.33-.48.67-.72 1a129.51 129.51 0 0 0 13.71 7.34 1.34 1.34 0 0 0 1.62-.42l10.39-14.31 28-38.49a1.31 1.31 0 0 0-.92-2.07 129.72 129.72 0 0 1-15-2.67 1.3 1.3 0 0 0-1.36.5Zm149.93-3.54a1.32 1.32 0 0 0 .12-1.68l-10.68-14.7-18.72-25.77a1.31 1.31 0 0 0-1.69-.37 129.36 129.36 0 0 1-12.55 6 1.31 1.31 0 0 0-.56 2l20.2 27.8 10.85 14.94 3.85.43a125.4 125.4 0 0 0 9.18-8.7ZM4241.7 1710a125.29 125.29 0 0 1-4.86-12.66l-3.08.17q-1.14 5.16-1.86 10.47a1.33 1.33 0 0 0 .9 1.43l7.29 2.36a1.31 1.31 0 0 0 1.61-1.77Zm142.06 32.13a30.43 30.43 0 1 0-56.43-19.64 30.43 30.43 0 0 1 56.74 15.31 30.86 30.86 0 0 1-.31 4.31Z" transform="translate(-461.43 -857.49)" style="fill:url(#h)"/><path d="M4078.11 1643.27c43.92 13.52 93.14 28.8 121.32 38l27.56 9a.55.55 0 0 1 .37.68q-1.3 5-2.24 10.11a.57.57 0 0 1-.26.38c-.55.34-1.08.69-1.62 1a.57.57 0 0 1-.88-.59c.45-2.19 1-4.36 1.52-6.51a.55.55 0 0 0-.37-.68l-2.07-.68a.57.57 0 0 1 0-1.1 25.43 25.43 0 0 1 3.22-.63q-2.77.36-5.46.94a.57.57 0 0 1-.29 0l-23-7.47c-27.75-9-75.88-24-119.27-37.33a.57.57 0 0 1-.39-.69c.36-1.33.72-2.66 1.1-4a.58.58 0 0 1 .76-.43Zm146.15 27.7.59.19a26.84 26.84 0 0 1-3.21-5.89l-5.11-13.9a.58.58 0 0 0-.36-.34l-125.62-40.82a1.32 1.32 0 0 0-1.62.74c-.45 1.07-.89 2.14-1.32 3.22a.56.56 0 0 0 .35.76l126.29 41a1.29 1.29 0 0 1 .8.73 50.91 50.91 0 0 0 9.21 14.34ZM4335 1432.88v3a.57.57 0 0 0 .61.57c3.46-.24 6.92-.44 10.41-.56a.56.56 0 0 1 .59.56c.71 45.68 1.38 96.65 1.38 126.06v21.15a.58.58 0 0 0 .06.26c.27.52.53 1 .79 1.57-.27-.55-.55-1.09-.85-1.62v5.62a.57.57 0 0 0 .62.57c.77-.07 1.54-.14 2.31-.18a.57.57 0 0 0 .55-.57v-31.23c0-29.41-.67-80.38-1.38-126.06a.56.56 0 0 0-.59-.56q-7 .24-14 .82a.57.57 0 0 0-.5.6Zm-234.55 393.35a.58.58 0 0 0 .49-.8 274.14 274.14 0 0 1-10.36-28.15l-.51.32a277.32 277.32 0 0 0 9.39 28.29.59.59 0 0 0 .58.36Zm227.61-104.93c-.22.23-.44.46-.65.7 0 .16-.06.31-.08.47.23-.4.48-.78.73-1.17Zm161.42-51.48a.27.27 0 0 0-.07.08 27.38 27.38 0 0 1-2.36 3.19l.05.06a59.83 59.83 0 0 0 6.16-7.35 71.17 71.17 0 0 1-3.78 4.02Zm-80 107.54.93 1.27a.58.58 0 0 0 .7.19q4.66-2.13 9.12-4.61a.56.56 0 0 1 .73.16l19.11 26.3 10.67 14.7a1.19 1.19 0 0 1 .21.42c1.22-1.18 2.42-2.38 3.59-3.62a.57.57 0 0 0 .05-.73l-11-15.2-19.11-26.3a.56.56 0 0 0-.73-.16 129.26 129.26 0 0 1-14 6.72.56.56 0 0 0-.24.86Zm-35.39 9 1.88 2.58a.59.59 0 0 0 .55.23q5.7-.87 11.23-2.21a.56.56 0 0 1 .59.21l24.3 33.45 10.88 15a.58.58 0 0 0 .75.17c1.43-.81 2.86-1.64 4.26-2.5l-.72-1-11.69-16.08-24.3-33.45a.56.56 0 0 0-.59-.21 131.7 131.7 0 0 1-16.73 2.93.57.57 0 0 0-.38.85Zm-139.45-92.53c-.71 2.62-1.27 5.29-1.77 8h.46c.94 2.92 2 5.79 3.14 8.62a.59.59 0 0 0 .36.33l4.83 1.57a.56.56 0 0 0 .69-.78 125 125 0 0 1-6.62-17.69Zm305.87 235.9.59.8a275.53 275.53 0 0 0 33.05-35.82 275.63 275.63 0 0 1-33.61 34.99Zm-209-361.09a.55.55 0 0 0-.22-.45l-124.93-98.27a.59.59 0 0 0-.65 0c-1.39.8-2.78 1.62-4.15 2.45a.57.57 0 0 0-.06.94l136.58 107.42a27.23 27.23 0 0 1 7.27 9.29 54.32 54.32 0 0 0-13.64-18.42.58.58 0 0 1-.2-.43Zm43.8 12.05 137.23-107.93-.89-.53a.56.56 0 0 0-.64 0l-132.22 104a27.1 27.1 0 0 0-5.72 6.49 27.47 27.47 0 0 1 2.25-2.06Zm232.67 271a278.31 278.31 0 0 1-28.71 46.13 277.94 277.94 0 0 0 32.19-50.56.58.58 0 0 0-.49-.83l-5-.19a.58.58 0 0 0-.53.3c-.6 1.12-1.2 2.23-1.82 3.34a.57.57 0 0 0 .48.85l3.43.13a.58.58 0 0 1 .47.79ZM4192.07 1940a.58.58 0 0 0-.8.12c-.9 1.2-1.79 2.4-2.69 3.59a.58.58 0 0 0 .12.81q2.45 1.8 4.93 3.56 4.65 3.43 9.44 6.67l-.18.25c.89.6 1.63 1.44 5.63-2.54l-.09-.88c-3.84-2.56-7.62-5.19-11.32-7.93-1.7-1.22-3.37-2.44-5.04-3.65Zm-111.81-95.74a.57.57 0 0 0-.5.8 298.8 298.8 0 0 0 42.56 71 308 308 0 0 0 237.86 111.4 314.1 314.1 0 0 0 45.47-3.31 300.49 300.49 0 0 0 189.54-113.29 301.08 301.08 0 0 1-510.3-66.43.57.57 0 0 0-.54-.34Zm443.81 105.41-2.86-3.83a.57.57 0 0 0-.79-.12q-3.54 2.55-7.16 5a.57.57 0 0 0-.15.8l.31.44a.58.58 0 0 0 .8.14l2.71-1.93a.58.58 0 0 1 .8.12l1.92 2.57a.57.57 0 0 0 .78.12c1.18-.82 2.35-1.64 3.52-2.48a.58.58 0 0 0 .12-.86Zm72.54-124c.45 1.16.86 2.36 1.27 3.55a.56.56 0 0 0 .51.38l13.06.79a.58.58 0 0 0 .57-.34c.48-1.14 1-2.27 1.43-3.42a.57.57 0 0 0-.5-.79l-15.78-1a.57.57 0 0 0-.56.79Zm-318.18-3.67c4.45-6.14 8.34-11.48 11.68-16.08l20.75-28.56a.57.57 0 0 0-.25-.86 129.26 129.26 0 0 1-14-6.72.56.56 0 0 0-.73.16l-3.3 4.54a1.26 1.26 0 0 1 1.12 0 129.88 129.88 0 0 0 13.41 6.4.57.57 0 0 1 .25.86l-20.75 28.56-8.8 12.1a1.22 1.22 0 0 0 .59-.44Zm-102.61-331.42a.57.57 0 0 0-.88-.25l-3.07 2.36a.57.57 0 0 0-.18.66l65.31 165.89a10.12 10.12 0 0 0 .91 1.8.57.57 0 0 1 0 .59q-3.2 5.43-5.87 11.18a.58.58 0 0 0 .35.79l.23.08a.56.56 0 0 0 .7-.33 134.38 134.38 0 0 1 8.07-16.15.57.57 0 0 0 0-.59 10.12 10.12 0 0 1-.91-1.8Zm141.71 335.26 28.71-39.51a.56.56 0 0 0-.4-.9 131.39 131.39 0 0 1-16.73-2.93.56.56 0 0 0-.59.21l-3.19 4.38a1.38 1.38 0 0 1 .78 0 131.61 131.61 0 0 0 16.25 2.82.56.56 0 0 1 .4.89l-28.71 39.52-7.48 10.31a1.33 1.33 0 0 0 .57-.43Zm-208.88 20.88a279.9 279.9 0 0 0 66.35 86.66.58.58 0 0 0 .84-.09l2.48-3.42a.56.56 0 0 0-.09-.77 280.29 280.29 0 0 1-67.36-82.95.59.59 0 0 0-.53-.31l-1.19.05a.58.58 0 0 0-.5.83Zm271-142.33c-16.33-12.32-33.65-9.23-43.77 1a.57.57 0 0 0 .74.87 30.43 30.43 0 0 1 47.84 25 31 31 0 0 1-.38 4.75.41.41 0 0 0 0 .11v1.69a30.86 30.86 0 0 1-.31 4.33c6-10.23 6.17-24.22-4-37.6a.34.34 0 0 0-.17-.15Zm-64.13 294.53.09.35a.61.61 0 0 0 .47.41c1.23.19 2.47.39 3.71.57a.57.57 0 0 0 .63-.72l-1.42-5a.56.56 0 0 0-.46-.41 272.77 272.77 0 0 1-97.4-34.62.57.57 0 0 0-.75.15l-2.62 3.61a.58.58 0 0 0 .18.84 272.63 272.63 0 0 0 97.1 34.45.58.58 0 0 1 .42.37ZM4120.28 1830c-.95 2.54-1.83 5.11-2.68 7.69a.57.57 0 0 0 .57.75h.85a.57.57 0 0 0 .52-.4q1.95-6.29 4.22-12.44a.57.57 0 0 0-.57-.77l-26.33 1.6a.58.58 0 0 0-.5.79c.37.88.73 1.76 1.1 2.63a.58.58 0 0 1-.49.8h-.41a.58.58 0 0 1-.58-.36c-.43-1.11-.84-2.23-1.26-3.34a.56.56 0 0 0-.57-.37l-15.65 1a.58.58 0 0 1-.57-.38q-3.25-8.88-6-18a.56.56 0 0 0-.85-.31l-3 1.93a.57.57 0 0 0-.25.64q3 10.26 6.61 20.19a.57.57 0 0 0 .57.38l44.69-2.71a.56.56 0 0 1 .58.68Zm518.68 1.57c.42-1.13.82-2.28 1.23-3.42a.58.58 0 0 0-.51-.76l-18.15-1.11a.56.56 0 0 1-.49-.77q3.9-10 7.05-20.32a.59.59 0 0 0-.24-.66l-2.92-1.86a.57.57 0 0 0-.85.3c-.48 1.46-1 2.9-1.48 4.34a.56.56 0 0 0 .23.67l1.54 1a.6.6 0 0 1 .24.66q-3.15 10.33-7 20.32a.56.56 0 0 0 .49.77l20.33 1.24a.57.57 0 0 0 .57-.36Zm-86.27-329.79a.58.58 0 0 0-.92.24l-60 163.21a27.09 27.09 0 0 1-2.31 4.56 27.29 27.29 0 0 0 5.79-9l58.08-158a.57.57 0 0 0-.17-.63Zm48.17 410.77a298.58 298.58 0 0 0 66.2-187.72c0-167.1-137.39-302.57-306.88-302.57A307.86 307.86 0 0 0 4116 1541.58a307.37 307.37 0 0 1 140.16-98.22 302.1 302.1 0 0 1 259.13 24.5.59.59 0 0 1 .06 1l-.42.33a.57.57 0 0 0 .06.93q5.17 3.09 10.22 6.36a.56.56 0 0 0 .67 0l.91-.74a.57.57 0 0 1 .68 0q9 6 17.51 12.65a.56.56 0 0 1 .19.66l-.34.85a.58.58 0 0 0 .19.66q4.72 3.63 9.31 7.44a.56.56 0 0 0 .89-.24.58.58 0 0 1 .92-.24 302 302 0 0 1 44.69 415.2Zm47.46-114.76a.58.58 0 0 0 .88-.35q.54-2.32 1.05-4.68a.57.57 0 0 0-.24-.6l-16.14-10.81.27.18a279.4 279.4 0 0 0 0-114.66l-.25.08a359 359 0 0 1-3.22 119l-.27-.18Zm-584.11-.35a.58.58 0 0 0 .88.35l17.32-11.6a.58.58 0 0 0 .24-.6c-.06-.27-.12-.53-.17-.8.09.39.19.77.29 1.16l127.36-85.32a27.2 27.2 0 0 1 11.08-4 62.42 62.42 0 0 0-12.52 2.92l-.13.07-122.31 81.93c-.1-.39-.2-.77-.29-1.16.05.27.11.53.17.8a.58.58 0 0 1-.24.6l-17.32 11.6a.58.58 0 0 1-.88-.35 298.93 298.93 0 0 1 53.92-250.75 298.9 298.9 0 0 0-57.4 255.18Zm424.34-88.91a125.61 125.61 0 0 0-2.85-14.85h-1.1c-.75 2.78-1.67 5.48-2.64 8.15h.72a.59.59 0 0 1 .54.45c.52 2.41 1 4.85 1.36 7.31a.57.57 0 0 0 .74.45l2.83-.92a.57.57 0 0 0 .4-.55Zm-115.83-125.46a.44.44 0 0 0 .08-.11 62.76 62.76 0 0 1 4.12-6.76 57.91 57.91 0 0 0-8 12v.07a26.6 26.6 0 0 1 3.8-5.16Zm-2.5-147.63a.58.58 0 0 0 .54.58q5.33.24 10.6.67a.58.58 0 0 1 .52.58v131.5a.57.57 0 0 0 1 .41c.75-.73 1.51-1.44 2.31-2.12a.55.55 0 0 0 .2-.43v-133.75a.58.58 0 0 0-.52-.58q-6.94-.57-14-.83a.59.59 0 0 0-.6.57c-.01 1.14-.03 2.29-.05 3.44Zm131.62 216.79c-.3.72-.63 1.43-1 2.12a.57.57 0 0 0 .7.79l124.78-40.54a1.32 1.32 0 0 1 1.62.74q2 4.72 3.8 9.54a.58.58 0 0 0 .72.33l3.48-1.19a.57.57 0 0 0 .36-.74q-2.31-6.25-4.88-12.37a1.32 1.32 0 0 0-1.62-.74l-127.19 41.33a1.26 1.26 0 0 0-.77.77Zm124.75 131a.58.58 0 0 0 .88-.35c.36-1.56.71-3.13 1-4.69a.57.57 0 0 0-.24-.6l-111-74.37a.59.59 0 0 0-.5-.07l-2.35.77a.56.56 0 0 1-.47-.06 52.91 52.91 0 0 0-19.48-6.93v.06a27.39 27.39 0 0 1 8.81 3.63Zm15.68-140c-43.92 13.52-93.15 28.8-121.34 38l-27.56 9a.58.58 0 0 0-.37.71c.19.62.33 1.26.48 1.9a.58.58 0 0 0 .74.41l2.56-.83c-.37-.06-.74-.13-1.11-.17l1 .14a.46.46 0 0 0 .26 0l20.53-6.67c28.19-9.16 77.42-24.44 121.34-38a.57.57 0 0 1 .72.39c1 3.43 1.89 6.9 2.74 10.39a.58.58 0 0 0 .74.41l3.13-1a.57.57 0 0 0 .38-.68q-1.59-6.82-3.51-13.53a.57.57 0 0 0-.73-.43ZM4488 1968.87l1.58 2.17a.57.57 0 0 0 .73.17c1.27-.67 2.55-1.34 3.81-2a.56.56 0 0 0 .19-.84l-2.83-3.9a.58.58 0 0 0-.73-.17 272.81 272.81 0 0 1-98 31 .54.54 0 0 0-.48.41l-.83 2.92a.58.58 0 0 0 .63.73 272.6 272.6 0 0 0 95.2-30.66.58.58 0 0 1 .73.17ZM4370.45 2003h1.17a.56.56 0 0 0 .53-.43l1.25-4.82a.57.57 0 0 0-.58-.72c-4.19.19-8.4.3-12.64.3-5.88 0-11.71-.21-17.5-.58a.57.57 0 0 0-.58.72l.91 3.53a.58.58 0 0 0 .53.43c4.36.21 8.75.33 13.16.33 4.24 0 8.45-.11 12.64-.3a.57.57 0 0 1 .58.72v.14a.58.58 0 0 0 .53.68Z" transform="translate(-461.43 -857.49)" style="fill:url(#e)"/><path d="M4253.49 462.61v274.8s-53.83-223.09-371.68-223.09-391.35 384.25-391.35 384.25v-436ZM772.26 831.51c0 209.07 169.49 378.57 378.56 378.57h23.56c209.08 0 378.57-169.5 378.57-378.57s-169.49-378.57-378.57-378.57h-23.56c-209.07-.01-378.56 169.48-378.56 378.57Z"/><path d="M530.27 844.75c0 218.51 177.13 395.64 395.64 395.64h24.66c218.5 0 395.64-177.13 395.64-395.64s-177.18-395.64-395.64-395.64h-24.62c-218.55 0-395.68 177.13-395.68 395.64Z"/><path d="M1017.42 1700.18c0 199.41 164 361.06 366.21 361.06s366.2-161.65 366.2-361.06-164-361.06-366.2-361.06-366.21 161.65-366.21 361.06Zm35.11-.68c0-182.19 148.24-329.88 331.1-329.88s331.09 147.69 331.09 329.88-148.24 329.87-331.09 329.87-331.1-147.69-331.1-329.87Z" transform="translate(-461.43 -857.49)" style="fill:url(#i)"/><path d="M1790.45 1702.24c0-211.82-179.87-388.61-390.8-392.33 2.41-.05 4.82-.09 7.23-.09 222 0 398.91 178.27 398.91 392.42S1638.92 2090 1416.91 2090c-2.42 0-4.83-.05-7.24-.09 210.93-3.73 380.78-175.85 380.78-387.67Zm-403.11-383c215.34 0 389.92 171.37 389.92 382.76s-174.58 382.76-389.92 382.76-389.92-171.4-389.92-382.76 174.58-382.79 389.92-382.79Zm0 750.85c207.09 0 375-164.8 375-368.09s-167.89-368.09-375-368.09-375 164.8-375 368.09 167.9 368.06 375 368.06Z" transform="translate(-461.43 -857.49)" style="fill:url(#j)"/><circle cx="1407.87" cy="1694.17" r="186.88" transform="rotate(-45 142.068 1822.413)" style="fill:url(#k)"/><path d="M1383.63 1408.56c5.94 0 11.84.2 17.7.55l-.21 14.1c-5.78-.36-11.61-.56-17.49-.56h-3.24q-.09-7.07-.2-14.09c1.14.03 2.29 0 3.44 0Zm34 16.15a276.87 276.87 0 0 1 106.91 36.13l11.87-9.33a291 291 0 0 0-118.78-41Zm119.7 44.11a279.45 279.45 0 0 1 35.3 27.71l5.52-14a293.55 293.55 0 0 0-29.46-23ZM1251 1456.14a277 277 0 0 1 112.9-32.79v-14.11a291.09 291.09 0 0 0-124.9 37.45Zm-138 133.7 13.49 4.38a277.22 277.22 0 0 1 67.47-97.08l-5.26-14.31a291.66 291.66 0 0 0-75.7 107.01Zm92.21-102.63a278.43 278.43 0 0 1 32.73-23.52l-11.49-9.47a293.74 293.74 0 0 0-26.66 19.19ZM1648 1614q3.15 9.66 5.59 19.62l13.54-4.18q-2.52-10.15-5.75-20Zm-292.07 381.6a297.26 297.26 0 0 1-115.28-35l-10.49 14.4a1.48 1.48 0 0 1-2 .4q-5.67-3.43-11.18-7.09a1.48 1.48 0 0 1-.39-2.08l9.81-13.93q-9-5.55-17.47-11.68l-9.77 13a1.48 1.48 0 0 1-2.09.28q-5.22-4.1-10.24-8.38a1.48 1.48 0 0 1-.24-2l9.34-12.85a298.73 298.73 0 0 1-80.23-100l-24.49.93a1.48 1.48 0 0 1-1.42-.91q-2.1-5-4-10.13a1.48 1.48 0 0 1 1.29-2l22.42-1.36a294.22 294.22 0 0 1-11.42-31l-18 11.45a1.48 1.48 0 0 1-2.22-.83c-1-3.46-1.94-7-2.82-10.47a1.5 1.5 0 0 1 .61-1.59l18.52-12.4a298.47 298.47 0 0 1-2.87-133.1l-4.69-1.53a1.48 1.48 0 0 1-1-1.74q1.53-6.45 3.32-12.8a1.49 1.49 0 0 1 1.86-1l4.23 1.3q2.76-10.38 6.23-20.47l-3.76-1.28a1.48 1.48 0 0 1-.9-1.91q2.31-6.21 4.87-12.3a1.49 1.49 0 0 1 1.82-.83l3.66 1.19a297.92 297.92 0 0 1 79.4-111.41l-4.45-12.1a1.46 1.46 0 0 1 .45-1.65q4.2-3.46 8.52-6.78a1.47 1.47 0 0 1 2.27.63l4.21 10.69q11.53-9.2 24-17.24l-8.68-7.16a1.48 1.48 0 0 1 .13-2.38q4.62-3 9.34-5.82a1.48 1.48 0 0 1 1.68.11l9.82 7.72a297.41 297.41 0 0 1 130.26-39.57v-4.52a1.47 1.47 0 0 1 1.35-1.47q6.57-.54 13.22-.79a1.48 1.48 0 0 1 1.53 1.45c0 1.56 0 3.13.07 4.71h3.54q9 0 17.8.54c0-1.74 0-3.47.08-5.2a1.47 1.47 0 0 1 1.53-1.45q6.64.25 13.21.78a1.48 1.48 0 0 1 1.36 1.47v5.79a297.25 297.25 0 0 1 124.07 43.17l16-12.59a1.46 1.46 0 0 1 1.67-.11q4.74 2.83 9.35 5.82a1.48 1.48 0 0 1 .13 2.38l-15.09 12.43a299.14 299.14 0 0 1 26.84 21l7.74-19.67a1.48 1.48 0 0 1 2.28-.63q4.32 3.32 8.52 6.78a1.48 1.48 0 0 1 .45 1.65l-8.06 21.93a297.46 297.46 0 0 1 70.41 105.6l16.29-5.3a1.49 1.49 0 0 1 1.82.83q2.57 6.09 4.87 12.3a1.48 1.48 0 0 1-.9 1.91l-16.57 5.66q3.25 9.94 5.81 20.17l17.46-5.38a1.48 1.48 0 0 1 1.85 1q1.8 6.35 3.34 12.79a1.48 1.48 0 0 1-1 1.75l-18.13 5.89a298 298 0 0 1-1.77 120.48l25.45 17.05a319 319 0 0 0 10.39-81c0-178.16-146.49-322.6-327.19-322.6s-327.2 144.44-327.2 322.6c0 171.48 135.71 311.69 307 322Zm315.46-217.09a293.33 293.33 0 0 1-13.28 37.89l30.11 1.83q4.63-11.62 8.35-23.66Zm-9.82-78.94a277.41 277.41 0 0 1-5 52.22l12.71 8.51a291.74 291.74 0 0 0 1.35-114.72l-13.55 4.41a277.32 277.32 0 0 1 4.49 49.58Zm-549.19 60.61a277.62 277.62 0 0 1-1.41-114.56l-13.55-4.4a291.92 291.92 0 0 0 2.41 127.37Zm530-161.87 13.46-4.37a291.13 291.13 0 0 0-66.73-101.15l-5.38 14.63a277 277 0 0 1 58.67 90.89Zm10.88 168.69a273.16 273.16 0 0 1-17 48.12l15.08.92a287.46 287.46 0 0 0 14.43-41Zm-98.07 150.5q-7.93 6.21-16.34 11.86 4.07 5.73 8.14 11.53 8.55-5.76 16.65-12.09Zm-440.53-287.93q2.65-10.11 6-19.9l-13.38-4.57q-3.45 10-6.16 20.29ZM1411 1995.63c-9 .82-18.17 1.26-27.41 1.26-4.32 0-8.62-.11-12.89-.29l6.76 26.1c2 0 4.08.08 6.13.08 6.9 0 13.75-.24 20.54-.65Zm240.74-165.47a298.57 298.57 0 0 1-71.63 93.14l14.74 20.29a1.48 1.48 0 0 1-.23 2q-5 4.29-10.24 8.38a1.48 1.48 0 0 1-2.09-.28c-4.9-6.53-9.9-13.19-14.9-19.87q-8.17 6.38-16.8 12.19l14.27 20.27a1.48 1.48 0 0 1-.39 2.08q-5.51 3.66-11.18 7.08a1.47 1.47 0 0 1-2-.39l-14.68-20.21a297 297 0 0 1-110.6 39.05l-7.67 27.08c118.26-12.32 217.72-86.77 264.21-189.62Zm-127.15 108.07a276.48 276.48 0 0 1-92.42 34l-4.24 15a290.81 290.81 0 0 0 105-37.55Zm120.2-108.33-15.61-.6a278.14 278.14 0 0 1-61.13 77.39l8.33 11.47a292.3 292.3 0 0 0 68.45-88.26Zm-445.14 95.71 8.3-11.42a278.65 278.65 0 0 1-69.68-84.36l-15.62.6a292.45 292.45 0 0 0 77.04 95.18Zm-68.34-109.7a274.24 274.24 0 0 1-15.3-41.18l-12.41 7.92a288.33 288.33 0 0 0 12.61 34.18Zm218.59 158.55a276.72 276.72 0 0 1-97.17-30.54l-8.38 11.53a290.91 290.91 0 0 0 109.69 33.65Zm-111.71-38.86q-8.73-5.34-17-11.3l-8.45 11.29q8.45 6.08 17.33 11.56Zm174.49 53.54 3.78-14.59a280.86 280.86 0 0 1-32.87 1.94c-6.14 0-12.22-.22-18.26-.61l3.71 14.33q7.23.36 14.55.37c9.86 0 19.56-.5 29.13-1.44Z" transform="translate(-461.43 -857.49)" style="fill:url(#l)"/><path d="M1443.59 1714.61a11.65 11.65 0 0 1-14.68-7.48l-.91-2.8a3 3 0 0 1 1.9-3.73l31.95-10.38a71.28 71.28 0 0 0-4.76-18l-32.93 10.71a3 3 0 0 1-3.73-1.9l-.91-2.8a11.66 11.66 0 0 1 7.48-14.69l21.26-6.9a71.67 71.67 0 0 0-36.41-25.7v21.6a11.66 11.66 0 0 1-11.65 11.65h-2.94a3 3 0 0 1-3-3v-33.36c-1.17 0-2.33-.09-3.51-.09a72 72 0 0 0-15.08 1.61v31.84a3 3 0 0 1-3 3h-2.94a11.65 11.65 0 0 1-11.65-11.65v-16.88a72 72 0 0 0-27 24l11.85 3.84a11.68 11.68 0 0 1 7.48 14.69l-.91 2.8a3 3 0 0 1-3.73 1.9l-22.64-7.36a71.91 71.91 0 0 0-3.86 18.29l20.75 6.74a3 3 0 0 1 1.9 3.73l-.91 2.8a11.65 11.65 0 0 1-14.68 7.48l-6.08-2a71.43 71.43 0 0 0 9 23.74l2.88-4a11.65 11.65 0 0 1 16.27-2.58l2.38 1.73a3 3 0 0 1 .66 4.14l-10.89 15a71.61 71.61 0 0 0 14.85 11.19l11.08-15.25a3 3 0 0 1 4.13-.65l2.38 1.73a11.65 11.65 0 0 1 2.58 16.27l-3.46 4.77a70.76 70.76 0 0 0 27.06 1.94l-4.87-6.71a11.64 11.64 0 0 1 2.57-16.27l2.39-1.73a3 3 0 0 1 4.13.65l14.09 19.39a71.65 71.65 0 0 0 16.29-9.19l-15.34-21.12a3 3 0 0 1 .65-4.14l2.38-1.73a11.67 11.67 0 0 1 16.28 2.58l8.77 12.08a71.36 71.36 0 0 0 15.29-35.83Zm-53.84 26.52a35.67 35.67 0 0 1-35.67-35.67v-1.61a32.45 32.45 0 1 0 34-34h1.6a35.67 35.67 0 0 1 0 71.34Z" transform="translate(-461.43 -857.49)" style="fill:url(#m)"/><path d="m1534.9 1622.19 137.44-44.66q3.15 7.4 5.92 15c-46.49 15.9-98.81 33.67-129 43.47l-39.64 12.89-20.15 6.54-66.7 21.67a3 3 0 0 1-3.73-1.9l-.91-2.8a11.66 11.66 0 0 1 7.48-14.68l58.43-19 20.16-6.55a11.4 11.4 0 0 0 7.09-6.68l70.62-179.49q5.55 4.21 10.89 8.64l-65.17 177.27a29 29 0 0 1-7 10.43c6.2-5.92 11.19-12.51 14.27-20.15Zm164.65 154.41-159.65-106.94a29 29 0 0 0-11.81-4.31c8.51 1.13 16.42 3.53 23.4 7.9l137.51-44.69c-1.22-5.24-2.59-10.43-4.07-15.56-47 14.46-99.77 30.85-130 40.65l-39.65 12.88-20.15 6.55-66.69 21.67a3 3 0 0 0-1.9 3.73l.91 2.8a11.64 11.64 0 0 0 14.68 7.48l58.42-19 20.16-6.55a11.4 11.4 0 0 1 9.66 1.23L1695.93 1790q1.95-6.66 3.62-13.4Zm-306.63-212.54v91.32a3 3 0 0 0 3 3h2.94a11.65 11.65 0 0 0 11.65-11.65v-82.63a11.43 11.43 0 0 1 4.16-8.81l148.63-122.41q-5.87-3.84-11.91-7.45l-147.92 116.27a28.93 28.93 0 0 0-7.75 9.91c3.71-7.75 8.44-14.54 14.75-19.82V1388.3q-8-.67-16.08-1c-.75 48.86-1.47 103.54-1.47 135Zm99.55 251.56 191.69 7.31q2.7-6.4 5.13-12.94l-195.75-11.89a11.43 11.43 0 0 1-8.54-4.68l-12.46-17.15-36.11-49.7a11.65 11.65 0 0 0-16.27-2.58l-2.39 1.73a3 3 0 0 0-.65 4.14l41.22 56.73 12.45 17.14 24.51 33.73c18.56 25.54 51.4 69.52 80.79 108.69q6.38-4.94 12.47-10.19L1504 1819.53c-8.22-.57-16-3.28-23.59-7.37a28.94 28.94 0 0 0 12.06 3.46Zm-36.71-1q-7.12-9.81-12.46-17.14l-41.22-56.74a3 3 0 0 0-4.13-.65l-2.38 1.73a11.65 11.65 0 0 0-2.58 16.27l36.11 49.7 12.46 17.15a11.41 11.41 0 0 1 1.81 9.57l-48.21 186.08c4.68-.16 9.33-.4 13.95-.75l51.25-180.84a29.05 29.05 0 0 0 .45-12.57c1.55 8.45 1.72 16.72-.28 24.71L1545 1967.4q6.92-4.14 13.6-8.63c-28.15-40-59.82-84.85-78.37-110.39-9.49-13.1-17.62-24.28-24.47-33.72Zm-99-282.87c6.31 5.28 11 12.07 14.75 19.82a28.93 28.93 0 0 0-7.75-9.91l-147.86-116.27q-6 3.6-11.91 7.45l148.63 122.41a11.43 11.43 0 0 1 4.16 8.81v82.63a11.65 11.65 0 0 0 11.65 11.65h2.94a3 3 0 0 0 3-3v-133c0-31.5-.72-86.18-1.47-135q-8.1.27-16.08 1ZM1218 1636l39.64 12.89 20.16 6.54 66.69 21.67a3 3 0 0 0 3.73-1.9l.91-2.8a11.65 11.65 0 0 0-7.48-14.68l-58.43-19-20.15-6.55a11.39 11.39 0 0 1-7.1-6.68L1185.34 1446q-5.53 4.21-10.89 8.64l65.17 177.27a29 29 0 0 0 7 10.43c-6.22-5.92-11.21-12.51-14.29-20.15l-137.44-44.66q-3.15 7.38-5.92 15c46.51 15.87 98.84 33.64 129.03 43.47Zm9.37 33.69L1067.7 1776.6c1.12 4.49 2.32 9 3.63 13.37l165.46-105.51a11.4 11.4 0 0 1 9.66-1.23l20.16 6.55 58.43 19a11.65 11.65 0 0 0 14.68-7.48l.91-2.8a3 3 0 0 0-1.9-3.73l-66.7-21.67-20.15-6.55-39.64-12.88c-30.19-9.81-83-26.2-130-40.66q-2.22 7.71-4 15.58l137.54 44.68c7-4.37 14.89-6.77 23.41-7.9a29.06 29.06 0 0 0-11.84 4.29Zm110.8 138.17 36.11-49.7a11.64 11.64 0 0 0-2.57-16.27l-2.39-1.73a3 3 0 0 0-4.13.65l-41.19 56.71-12.46 17.14c-6.85 9.44-15 20.62-24.5 33.72-18.55 25.54-50.21 70.34-78.37 110.38q6.69 4.48 13.6 8.64l84.51-116.31c-2-8-1.84-16.26-.29-24.71a29.05 29.05 0 0 0 .45 12.57l51.25 180.93c4.62.35 9.28.59 13.95.75l-48.21-186.08a11.41 11.41 0 0 1 1.82-9.57Zm-41.69-4.1 12.45-17.14 41.22-56.73a3 3 0 0 0-.65-4.14l-2.38-1.73a11.66 11.66 0 0 0-16.28 2.58l-36.11 49.7-12.45 17.15a11.46 11.46 0 0 1-8.54 4.68L1078 1810q2.41 6.54 5.13 12.94l191.69-7.31a28.94 28.94 0 0 0 12.09-3.46c-7.55 4.09-15.37 6.8-23.58 7.37L1178.69 1936q6.11 5.25 12.47 10.19c29.39-39.17 62.24-83.15 80.8-108.69Z" transform="translate(-461.43 -857.49)" style="fill:url(#n)"/><path d="m1661.44 1808.3-1.75-.11a293.85 293.85 0 0 0 11.39-30.81l.54.34a293 293 0 0 1-10.18 30.58Zm-94.39 125.79-3.69-4.93c-1.94 1.44-3.89 2.86-5.87 4.25q-5 3.66-10.06 7.11l3.64 5.17q8.19-5.53 15.98-11.6Zm-440.78-96.79q-2.19-3.85-4.28-7.78l-6.71.26a298.51 298.51 0 0 0 72.32 93.92l3.73-5.13a292.56 292.56 0 0 1-65.06-81.27Zm526-8-2.6-.1a298.66 298.66 0 0 1-72.43 89.14l3.38 4.65a298.49 298.49 0 0 0 71.6-93.74Zm-443.7 111.07q4.32 3.14 8.78 6.12l3.64-5.17q-4.38-2.93-8.64-6Zm217.29 53.61a297.12 297.12 0 0 0 110.33-38.77l-3.74-5.14a290.94 290.94 0 0 1-104.7 37.25Zm-181.9-38.75-3.75 5.15a297.33 297.33 0 0 0 111 34.77l-1.86-6.55a290.87 290.87 0 0 1-105.44-33.42Zm125.42 35 1.65 6.39c4.2.17 8.41.28 12.65.28q9 0 17.82-.54l1.67-6.44c-6.44.43-12.94.67-19.49.67-4.85-.01-9.61-.14-14.35-.37Zm-121.52-306.55 7.77 2.52a1.39 1.39 0 0 0 1.72-1.88 134.74 134.74 0 0 1-5.18-13.5l-3.28.18q-1.23 5.51-2 11.16a1.41 1.41 0 0 0 .92 1.51Zm119.14 80.91a138.08 138.08 0 0 1-16-2.85 1.4 1.4 0 0 0-1.45.54l-25.6 35.24-12.46 17.14-.76 1.06a138.21 138.21 0 0 0 14.62 7.82 1.4 1.4 0 0 0 1.72-.45l11.08-15.26 29.82-41a1.4 1.4 0 0 0-.97-2.24Zm343.83-64.41c0 178.17-146.49 322.6-327.19 322.6s-327.2-144.43-327.2-322.6 146.49-322.6 327.2-322.6 327.18 144.42 327.18 322.6Zm-34.81 59.2c-.09.42-.19.84-.28 1.26l19.55 13.09a319.14 319.14 0 0 0 8.71-74.16c0-97-43.48-184-112.08-242.5l-64.28 174.84a29 29 0 0 1-7 10.43c6.06-5.77 11-12.17 14.05-19.56a1.33 1.33 0 0 1 .85-.79l135.6-44.06a1.4 1.4 0 0 1 1.73.79q2.6 6.15 4.92 12.43a1.39 1.39 0 0 1-.86 1.81c-46.15 15.79-97.75 33.31-127.63 43l-28.93 9.41a1.39 1.39 0 0 1-1.7-.79 145 145 0 0 0-8.09-16.16 1.41 1.41 0 0 1 0-1.43 11.2 11.2 0 0 0 .73-1.52l69.75-177.3q-9.42-7.35-19.41-14l-147 121.08a11.25 11.25 0 0 0-2.33 2.64 1.34 1.34 0 0 1-1.39.57 150.1 150.1 0 0 0-16.69-2.13 1.4 1.4 0 0 1-1.3-1.39v-32.56c0-31.19.7-85.11 1.45-133.6a1.4 1.4 0 0 1 1.46-1.38q6.7.25 13.36.79a1.4 1.4 0 0 1 1.28 1.4v141.56a1.42 1.42 0 0 1-.48 1c-6.08 5.22-10.65 11.86-14.27 19.41a28.93 28.93 0 0 1 7.75-9.91l146.32-115.08a321.68 321.68 0 0 0-332.33 0l146.32 115.08a28.93 28.93 0 0 1 7.75 9.91 58 58 0 0 0-14.27-19.41 1.42 1.42 0 0 1-.48-1v-141.56a1.4 1.4 0 0 1 1.29-1.4q6.63-.54 13.36-.8a1.4 1.4 0 0 1 1.45 1.38c.75 48.49 1.45 102.42 1.45 133.61v32.56a1.4 1.4 0 0 1-1.3 1.39 149.92 149.92 0 0 0-16.68 2.13 1.36 1.36 0 0 1-1.4-.57 11.25 11.25 0 0 0-2.33-2.64l-147-121.08q-10 6.66-19.41 14l69.75 177.3a11.2 11.2 0 0 0 .73 1.52 1.41 1.41 0 0 1 0 1.43 143.26 143.26 0 0 0-8.08 16.16 1.4 1.4 0 0 1-1.71.79L1218 1636c-29.88-9.7-81.49-27.22-127.64-43a1.39 1.39 0 0 1-.85-1.81q2.33-6.29 4.92-12.44a1.39 1.39 0 0 1 1.72-.78l135.6 44.03a1.34 1.34 0 0 1 .84.79 58.34 58.34 0 0 0 14.05 19.56 29 29 0 0 1-7-10.43l-64.28-174.85c-68.6 58.55-112.08 145.46-112.08 242.51a319.14 319.14 0 0 0 8.71 74.16l19.86-13.29-.3.19a297.83 297.83 0 0 1 0-122.25l.26.08a298.24 298.24 0 0 0 3.32 119.76l132.22-88.56a29.06 29.06 0 0 1 11.82-4.31 58.18 58.18 0 0 0-22.87 7.57 1.4 1.4 0 0 1-1.15.14l-135.7-44.07a1.41 1.41 0 0 1-.93-1.66q1.55-6.52 3.36-12.94a1.4 1.4 0 0 1 1.76-1c46.63 14.36 98.7 30.53 128.6 40.24l28.68 9.32a1.39 1.39 0 0 1 .91 1.67c-.83 3.2-1.55 6.45-2.15 9.73a1.38 1.38 0 0 1-.62.92 268.2 268.2 0 0 0-46.84 37.55 1.37 1.37 0 0 1-.23.19l-116.47 74.27q3.26 11.37 7.32 22.39l23-1.39q-4.43-11.23-8-22.89l4.17-2.66q4.21 12.87 9.56 25.2l18.16-1.11a1.4 1.4 0 0 1 1.4 1.88q-2.1 5.73-3.92 11.6a1.4 1.4 0 0 1-1.28 1l-37.94 1.45a320.94 320.94 0 0 0 591.25 0l-37.94-1.45a1.4 1.4 0 0 1-1.28-1q-1.82-5.86-3.91-11.6a1.39 1.39 0 0 1 1.39-1.88l46.9 2.85q4.06-11 7.32-22.39L1575.27 1713a1.12 1.12 0 0 1-.24-.19 268.2 268.2 0 0 0-46.84-37.55 1.38 1.38 0 0 1-.62-.92c-.6-3.28-1.32-6.53-2.14-9.73a1.38 1.38 0 0 1 .9-1.67l28.69-9.32c29.89-9.71 82-25.88 128.58-40.23a1.4 1.4 0 0 1 1.76.95c1.21 4.28 2.35 8.59 3.38 12.93a1.4 1.4 0 0 1-.93 1.66l-135.71 44.1a1.41 1.41 0 0 1-1.15-.14 58.18 58.18 0 0 0-22.87-7.57 29 29 0 0 1 11.82 4.31l135.8 91c.1-.42.21-.83.3-1.25Zm-217.67 27.21 12.45 17.14a1.41 1.41 0 0 0 2 .27 140.27 140.27 0 0 0 11-10.26 1.42 1.42 0 0 0 .12-1.8l-11.39-15.67-20-27.47a1.39 1.39 0 0 0-1.8-.4 138.44 138.44 0 0 1-13.38 6.45 1.38 1.38 0 0 0-.59 2.1Zm-40.64-24.31a1.39 1.39 0 0 0-1.45-.54 137.7 137.7 0 0 1-16 2.85 1.4 1.4 0 0 0-1 2.21l29.81 41 11.08 15.26a1.4 1.4 0 0 0 1.72.45 138.21 138.21 0 0 0 14.62-7.82l-.76-1.06q-7.12-9.81-12.46-17.14ZM1293.24 1803l4.1-.47 11.57-15.93 21.54-29.64a1.39 1.39 0 0 0-.6-2.1 138.44 138.44 0 0 1-13.38-6.45 1.39 1.39 0 0 0-1.8.4l-20 27.47-11.38 15.67a1.41 1.41 0 0 0 .12 1.8q4.7 4.85 9.83 9.25Zm218.43-116.8 7.77-2.52a1.41 1.41 0 0 0 1-1.52q-.76-5.65-2-11.16l-3.28-.18a132.3 132.3 0 0 1-5.17 13.5 1.39 1.39 0 0 0 1.68 1.87Zm-153.51 27.75a32.45 32.45 0 0 1 60.49-16.32 32.45 32.45 0 1 0-60.16 20.94 33.5 33.5 0 0 1-.33-4.63Z" transform="translate(-461.43 -857.49)" style="fill:url(#o)"/><path d="M1685.14 1613.59c.41 1.41.79 2.83 1.17 4.24a.63.63 0 0 1-.41.75c-46.26 14.24-97.58 30.18-127.17 39.8l-24.51 8a.65.65 0 0 1-.31 0q-2.87-.61-5.83-1a28.63 28.63 0 0 1 3.44.67.61.61 0 0 1 0 1.18l-2.21.72a.61.61 0 0 0-.39.73c.61 2.29 1.14 4.61 1.62 6.94a.61.61 0 0 1-.93.64c-.58-.38-1.15-.76-1.73-1.12a.6.6 0 0 1-.28-.4q-1-5.48-2.39-10.78a.61.61 0 0 1 .39-.73l29.39-9.55c30-9.76 82.53-26.05 129.35-40.47a.62.62 0 0 1 .8.38Zm-146.77 13.91a1.41 1.41 0 0 1 .85-.79l134.65-43.71a.61.61 0 0 0 .38-.81c-.47-1.14-.93-2.29-1.41-3.43a1.4 1.4 0 0 0-1.73-.79l-133.93 43.52a.6.6 0 0 0-.39.37l-5.44 14.82a29.05 29.05 0 0 1-3.43 6.27l.63-.2a54.42 54.42 0 0 0 9.82-15.25Zm-128.46-239.25q-7.4-.62-14.89-.88a.63.63 0 0 0-.64.61c-.75 48.69-1.46 103-1.46 134.4v33.3a.6.6 0 0 0 .58.6c.83 0 1.65.12 2.47.19a.6.6 0 0 0 .66-.6v-6c-.32.57-.63 1.15-.91 1.74.27-.57.56-1.12.84-1.68a.53.53 0 0 0 .07-.28v-22.55c0-31.36.71-85.7 1.47-134.4a.61.61 0 0 1 .63-.6c3.72.13 7.41.34 11.09.6a.6.6 0 0 0 .65-.61v-3.23a.61.61 0 0 0-.56-.61Zm251.08 420a.6.6 0 0 0 .61-.39 291.14 291.14 0 0 0 10-30.16l-.54-.34a294.75 294.75 0 0 1-11 30 .6.6 0 0 0 .52.84Zm-242.34-110.65c0-.17-.05-.33-.08-.5l-.7-.75c.27.43.54.84.78 1.27Zm-176.91-60.42a64.53 64.53 0 0 0 6.57 7.84v-.07a30.12 30.12 0 0 1-2.51-3.4l-.08-.09c-1.36-1.37-2.72-2.79-3.98-4.26Zm89 118a138 138 0 0 1-14.9-7.17.61.61 0 0 0-.79.18l-20.37 28-11.77 16.21a.62.62 0 0 0 0 .78c1.25 1.32 2.53 2.6 3.83 3.86a1.57 1.57 0 0 1 .22-.45l11.38-15.67 20.37-28a.61.61 0 0 1 .79-.17q4.74 2.64 9.71 4.91a.62.62 0 0 0 .76-.2l1-1.36a.59.59 0 0 0-.2-.87Zm37.56 9.51a140 140 0 0 1-17.84-3.12.6.6 0 0 0-.63.23l-25.83 35.72-12.46 17.14-.76 1.06c1.49.91 3 1.79 4.54 2.65a.61.61 0 0 0 .8-.17l11.59-16 25.91-35.66a.62.62 0 0 1 .64-.24q5.88 1.44 12 2.36a.61.61 0 0 0 .59-.25l2-2.75a.6.6 0 0 0-.52-.92Zm148-97.69a133.8 133.8 0 0 1-7 18.87.6.6 0 0 0 .73.83l5.15-1.68a.59.59 0 0 0 .39-.35q1.83-4.52 3.35-9.19h.49c-.53-2.87-1.14-5.72-1.89-8.51Zm-360.81 214.18a293 293 0 0 0 35.24 38.19l.62-.85a293.66 293.66 0 0 1-35.88-37.29Zm258.72-345a.6.6 0 0 1-.22.46c-6.21 5.26-10.87 12-14.54 19.64a29.17 29.17 0 0 1 7.75-9.91l145.63-114.53a.61.61 0 0 0-.07-1c-1.47-.89-2.94-1.75-4.43-2.61a.6.6 0 0 0-.68 0L1414.44 1533a.6.6 0 0 0-.23.48Zm-44.31 12.39a29.24 29.24 0 0 0-6.1-6.92l-141-110.87a.6.6 0 0 0-.69 0l-.95.56 146.32 115.08a31.3 31.3 0 0 1 2.4 2.2Zm-249.94 285.85 3.66-.14a.62.62 0 0 0 .51-.91c-.66-1.18-1.31-2.37-1.95-3.56a.58.58 0 0 0-.55-.32l-5.38.2a.62.62 0 0 0-.53.89 296.72 296.72 0 0 0 34.33 53.9 296.7 296.7 0 0 1-30.62-49.18.62.62 0 0 1 .51-.83Zm437.55 98.94q-5.91 4.38-12.07 8.45c0 .38-.05.56-.09.94 4.26 4.24 5.05 3.36 6 2.71l-.19-.27q5.1-3.45 10.07-7.11c1.77-1.24 3.51-2.51 5.25-3.8a.62.62 0 0 0 .13-.86l-2.87-3.82a.61.61 0 0 0-.85-.13q-2.69 2.03-5.4 3.94Zm120.23-106.14a.6.6 0 0 0-.58.36 321 321 0 0 1-544.07 70.83 320.36 320.36 0 0 0 202.08 120.79 333.89 333.89 0 0 0 48.48 3.53A328.32 328.32 0 0 0 1637.23 1904a318.79 318.79 0 0 0 45.39-75.71.62.62 0 0 0-.55-.85ZM1209 1940.69q1.86 1.33 3.75 2.65a.61.61 0 0 0 .84-.14l2.05-2.73a.6.6 0 0 1 .84-.13l2.9 2.06a.62.62 0 0 0 .85-.15l.33-.47a.61.61 0 0 0-.16-.85q-3.86-2.6-7.63-5.31a.59.59 0 0 0-.84.13l-3.06 4.07a.61.61 0 0 0 .13.87Zm-78-133.92-16.82 1a.62.62 0 0 0-.53.85c.5 1.21 1 2.43 1.52 3.64a.65.65 0 0 0 .61.37l13.93-.85a.63.63 0 0 0 .54-.41c.44-1.27.87-2.54 1.35-3.79a.6.6 0 0 0-.6-.81Zm339.85-3a1.44 1.44 0 0 0 .63.47q-5.23-7.18-9.38-12.91l-22.12-30.44a.61.61 0 0 1 .26-.92 136.93 136.93 0 0 0 14.3-6.83 1.38 1.38 0 0 1 1.19 0l-3.51-4.83a.6.6 0 0 0-.78-.18 139.06 139.06 0 0 1-14.91 7.17.6.6 0 0 0-.26.91l22.12 30.45 12.45 17.14Zm40.5-178.27a11.51 11.51 0 0 1-1 1.92.62.62 0 0 0 0 .63 143.31 143.31 0 0 1 8.61 17.22.61.61 0 0 0 .74.35l.25-.09a.61.61 0 0 0 .37-.84q-2.85-6.12-6.26-11.92a.6.6 0 0 1 0-.62 11.52 11.52 0 0 0 1-1.92l69.59-176.87a.6.6 0 0 0-.2-.71c-1.08-.85-2.18-1.68-3.27-2.51a.61.61 0 0 0-.94.26Zm-71.12 197.61a1.41 1.41 0 0 0 .61.45l-8-11-30.61-42.14a.6.6 0 0 1 .43-1 139.05 139.05 0 0 0 17.33-3 1.34 1.34 0 0 1 .82 0l-3.39-4.67a.59.59 0 0 0-.63-.23 139.67 139.67 0 0 1-17.84 3.12.6.6 0 0 0-.43 1l30.61 42.13Zm211.1 6.12h-1.28a.6.6 0 0 0-.55.32 299 299 0 0 1-71.82 88.45.6.6 0 0 0-.1.82l2.64 3.64a.61.61 0 0 0 .9.1 298.35 298.35 0 0 0 70.74-92.4.62.62 0 0 0-.58-.95Zm-288.49-150.74c-10.88 14.26-10.66 29.19-4.3 40.09a33.5 33.5 0 0 1-.33-4.62V1712a32.44 32.44 0 0 1 50.59-31.69.61.61 0 0 0 .79-.92c-10.79-10.92-29.26-14.21-46.66-1.08a.86.86 0 0 0-.14.16Zm69 313.46a290.85 290.85 0 0 0 103.53-36.73.61.61 0 0 0 .19-.89l-2.79-3.85a.61.61 0 0 0-.8-.16 290.92 290.92 0 0 1-103.85 36.91.63.63 0 0 0-.49.43l-1.52 5.38a.61.61 0 0 0 .68.77c1.32-.19 2.64-.4 4-.61a.63.63 0 0 0 .49-.44l.1-.37a.63.63 0 0 1 .42-.46ZM1640 1811.5l47.64 2.89a.63.63 0 0 0 .62-.4q3.88-10.59 7-21.53a.63.63 0 0 0-.26-.69l-3.23-2.06a.62.62 0 0 0-.91.34q-2.88 9.73-6.36 19.21a.62.62 0 0 1-.61.41l-16.68-1a.63.63 0 0 0-.61.4c-.44 1.18-.88 2.37-1.34 3.56a.62.62 0 0 1-.61.38h-.45a.61.61 0 0 1-.52-.85c.4-.93.78-1.87 1.17-2.8a.61.61 0 0 0-.53-.84l-28.07-1.71a.61.61 0 0 0-.61.82c1.62 4.37 3.11 8.79 4.5 13.26a.6.6 0 0 0 .55.43h.91a.61.61 0 0 0 .61-.8c-.91-2.75-1.85-5.49-2.86-8.2a.6.6 0 0 1 .65-.82Zm-553 2.89 21.68-1.32a.6.6 0 0 0 .53-.82q-4.17-10.65-7.52-21.67a.61.61 0 0 1 .26-.7l1.64-1a.6.6 0 0 0 .24-.72q-.79-2.31-1.58-4.63a.61.61 0 0 0-.9-.32l-3.12 2a.61.61 0 0 0-.25.69q3.35 11 7.51 21.67a.6.6 0 0 1-.52.83l-19.35 1.17a.61.61 0 0 0-.54.82c.43 1.22.86 2.44 1.31 3.65a.61.61 0 0 0 .61.35Zm90.86-351.58a.6.6 0 0 0-.17.67l61.92 168.43a28.71 28.71 0 0 0 6.18 9.58 28.72 28.72 0 0 1-2.47-4.85l-64-174a.62.62 0 0 0-1-.26Zm-117.71 242.09a332.34 332.34 0 0 1 114.52-247.26.61.61 0 0 1 1 .25.61.61 0 0 0 1 .26c3.26-2.71 6.56-5.35 9.93-7.93a.62.62 0 0 0 .19-.71l-.35-.9a.62.62 0 0 1 .19-.71q9.07-7.07 18.67-13.48a.63.63 0 0 1 .74 0l1 .8a.63.63 0 0 0 .72 0q5.37-3.49 10.89-6.78a.61.61 0 0 0 .06-1l-.44-.35a.61.61 0 0 1 .06-1 322.08 322.08 0 0 1 276.18-26.09A327.88 327.88 0 0 1 1644 1504.76a328.27 328.27 0 0 0-260.32-127.18c-180.71 0-327.2 144.44-327.2 322.6a318.38 318.38 0 0 0 70.52 200.15 318.25 318.25 0 0 1-66.85-195.43Zm35.39 60.26-.3.2a331.22 331.22 0 0 1-3.43-126.9l-.26-.08a297.83 297.83 0 0 0 0 122.25l.3-.19-17.24 11.56a.62.62 0 0 0-.26.64c.37 1.67.74 3.33 1.13 5a.62.62 0 0 0 .94.37Zm612.16-60.87a317.05 317.05 0 0 0-69.7-198.77 318.69 318.69 0 0 1 57.49 267.35.61.61 0 0 1-.94.37l-18.46-12.37a.61.61 0 0 1-.26-.63c.06-.29.13-.57.19-.86-.1.42-.21.83-.31 1.24l-130.41-87.35a.41.41 0 0 0-.15-.07 66.64 66.64 0 0 0-13.35-3.13 29 29 0 0 1 11.82 4.31l135.8 91c.1-.41.21-.82.31-1.23-.06.28-.12.57-.19.85a.62.62 0 0 0 .26.64l18.46 12.37a.62.62 0 0 0 .94-.37 318.57 318.57 0 0 0 8.5-73.35Zm-460.52-20.82 3 1a.61.61 0 0 0 .78-.49q.62-3.93 1.46-7.79a.62.62 0 0 1 .57-.48h.77c-1-2.84-2-5.72-2.82-8.68h-1.17a133.84 133.84 0 0 0-3 15.84.64.64 0 0 0 .41.6Zm127.15-128.87v-.08a61.76 61.76 0 0 0-8.54-12.81 67.52 67.52 0 0 1 4.39 7.21l.08.12a28.66 28.66 0 0 1 4.07 5.56Zm-1.46-166.6a.62.62 0 0 0-.64-.6q-7.49.27-14.89.89a.6.6 0 0 0-.56.61v142.65a.62.62 0 0 0 .21.46c.86.72 1.67 1.48 2.47 2.26a.61.61 0 0 0 1-.44v-140.25a.61.61 0 0 1 .56-.61c3.75-.31 7.51-.54 11.3-.72a.62.62 0 0 0 .58-.62Zm-141.12 234-135.62-44.06a1.39 1.39 0 0 0-1.72.78q-2.76 6.52-5.21 13.2a.62.62 0 0 0 .38.79l3.72 1.27a.59.59 0 0 0 .76-.36 299 299 0 0 1 4.06-10.17 1.4 1.4 0 0 1 1.72-.79l133.05 43.23a.6.6 0 0 0 .73-.84c-.36-.75-.71-1.5-1-2.26a1.34 1.34 0 0 0-.87-.79Zm-.69 52.39a29.14 29.14 0 0 1 9.4-3.87v-.07a56.41 56.41 0 0 0-20.76 7.39.59.59 0 0 1-.5.06l-2.51-.81a.62.62 0 0 0-.53.07l-118.38 79.29a.61.61 0 0 0-.25.64q.53 2.51 1.1 5a.61.61 0 0 0 .94.37Zm-149-60.79q-2 7.14-3.75 14.43a.62.62 0 0 0 .41.72l3.35 1.09a.6.6 0 0 0 .77-.44c.92-3.71 1.88-7.41 2.93-11.07a.62.62 0 0 1 .77-.42c46.83 14.42 99.31 30.71 129.37 40.48l21.89 7.11a.53.53 0 0 0 .28 0l1.05-.16c-.4.05-.79.12-1.18.19l2.73.89a.61.61 0 0 0 .78-.45c.16-.68.32-1.36.51-2a.61.61 0 0 0-.38-.76l-29.39-9.55c-30.06-9.76-82.55-26.06-129.37-40.47a.6.6 0 0 0-.73.4Zm166 346.56a290.53 290.53 0 0 0 101.5 32.69.61.61 0 0 0 .67-.78l-.88-3.12a.63.63 0 0 0-.52-.44 290.81 290.81 0 0 1-104.49-33.07.59.59 0 0 0-.77.18l-3 4.15a.62.62 0 0 0 .21.9q2 1.1 4.07 2.16a.61.61 0 0 0 .78-.18l1.68-2.31a.61.61 0 0 1 .78-.19Zm125.2 35.75v-.15a.6.6 0 0 1 .61-.76q6.71.3 13.48.31c4.7 0 9.38-.13 14-.35a.63.63 0 0 0 .57-.46l1-3.77a.61.61 0 0 0-.63-.76c-6.17.4-12.38.62-18.65.62q-6.78 0-13.48-.32a.61.61 0 0 0-.62.76l1.34 5.15a.61.61 0 0 0 .57.45h1.24a.61.61 0 0 0 .6-.73Z" transform="translate(-461.43 -857.49)" style="fill:url(#p)"/><path d="M543.98 411.12v293s57.39-237.86 396.29-237.86 417.24 409.68 417.24 409.68V411.12Z"/><path d="M2256.48 956.89c-122.6 9.46-461.28 47.37-703.71 86.35a293.74 293.74 0 0 1-48.4 3.68c-62.63-.39-114.61 1.52-166.18 4.79a1.8 1.8 0 0 1-.48-3.57c66.28-13.38 189.59-34.45 310.53-46.82 39.55-4.05 95.13-.36 121.41-3.77 145-18.83 412.18-45.73 486.78-42.84a1.09 1.09 0 0 1 .05 2.18ZM634.62 1116.51l21.22-13.51 86.08-73.25c-80-1-149.13-1.63-183.57-1.63-20.7 0-29.64 1.41-39.52 10.82s-51.3 57.42-56 64.47 2.67 15.19 18.82 17.42c56.5 4.28 108.56 3.94 152.97-4.32Zm39.8 281.57c-.49-1.51-1-3-1.46-4.54a14.29 14.29 0 0 0-12-9.85l-26.84-3.08c-21.69-2.49-43.29-23.53-47.53-40.94s-6.66-26.34-10.82-42.82c-2.94-11.63-17.65-27.46-26.07-35.77a2.55 2.55 0 0 1 2.18-4.33c21.6 3.27 49.5 5.72 78.43 7.57a5.78 5.78 0 0 0 6-6.93v-.07c-8.18-40.52-9.46-97.61-9.61-121.83 0-.73 0-1.45.08-2.17.05-5.66-35.25-2.8-56.22-.24 0 0-36.24 34.35-51.76 72-5.34 12.94 4.7 38.12 15.28 49.12-2.08 31.8 4.61 80.8 20.51 130.65 1.39 4.34 4.83 5.76 8.34 7.1l109.49 8.66a1.94 1.94 0 0 0 2-2.53Zm583.29-340.38a150.74 150.74 0 0 0 22.83-3.65c53.31-12.72 187.12-41.56 363-57.2 50.75-4.52 102.49-1.85 130.82-5.89 118-16.79 436.6-40.48 489.83-44.38a16.41 16.41 0 0 0 12-6.66c10-13.68 34.88-46.58 50.64-59 4.26-3.37 7.5-2.28 7.5-2.28-2-1.18-5.66-2.29-12-1.77-422.16 34.49-718.67 86-1144.84 158.24l48.14 25.29c10.94-.95 21.6-1.84 32.08-2.7Zm421-10.76 74.52-16.12c55.21-11.94 59.23-.42 91.29-8.33 108.24-26.68 290.18-53.94 457.39-64.67 87.93 47.29 204 98.46 299.89 138.52a3.57 3.57 0 0 1 .43 6.37c-15.35 8.9-33.71 25.88-56.26 46.75-14.37 13.3-41.84 36.45-63.24 54.19a19.42 19.42 0 0 1-17.44 3.79c-248.78-67.35-524.52-134.87-786.14-154.08a3.25 3.25 0 0 1-.49-6.42ZM2143.4 1075c1.66 32 38.83 56 83 53.75s78.66-30.07 77-62-38.82-56-83-53.75-78.66 30-77 62ZM759.22 1622.38c-79.5-68.54-140.6-135.75-180.16-201.42 29.48 88.2 68.44 185.14 84 223.89 10.48 26.1 29.1 36.86 48.5 50.13 10.86 7.43 34.26 18 64.68 30a427.22 427.22 0 0 0 8.18-51 93.59 93.59 0 0 1-18.12-35.57 1966.6 1966.6 0 0 1-7.08-16.03Zm3004-321.89a46.34 46.34 0 0 0-12-4c-.87 1.31-1.6 2.45-2.2 3.38a3.61 3.61 0 0 0 1.12 5c9.39 5.85 38 23.8 52 34.33 16.94 12.71-122.82 15.53-144 12.71S3631.3 1318 3631.3 1318s9.75-12.73 23.48-29.39c-202-21-622.57-82.77-796-108.64a689.91 689.91 0 0 1-153.86-41.55c-21.78-8.69-47.21-19-74.94-30.39a24.14 24.14 0 0 0-20.12.71c-14.73 7.45-34.15 25.41-57.81 47.31-17.12 15.84-36.52 33.79-58.65 52h-.06a4.27 4.27 0 0 0 1.6 7.41c240 65.87 555.88 170.64 633.13 196.49a7.09 7.09 0 0 1 .52 13.25c-151.45 64.9-310.59 125.8-475.14 183.93a9.18 9.18 0 0 0-1.41 16.67l188.59 104.77a228.06 228.06 0 0 0 88.47 27.61l1041.75 102.4a5.34 5.34 0 0 0 5.56-7.07c-.67-1.93-6.66 2-7.29 0l-86.48-12.24c-9-1.27-49.88-14.07-56-20.71l-22.33-50.56c-6.75-7.26-1.81-24.21 4.36-32a2121.19 2121.19 0 0 0 143.22-204.14l-530.95-80.66 597 61.86q7.51-11.55 15.83-22.57a5.74 5.74 0 0 0-.86-7.82c-94.8-81.19-182.12-140.82-269.74-184.18Zm1607.7 422.71h-35.74A102.42 102.42 0 0 0 5263 1753l-81.92 81.46a44.43 44.43 0 0 1-33.19 12.88l-83.83-3.53a7.44 7.44 0 0 1-5.71-11.8c19.59-27 69.95-98 103.58-159.1a8.13 8.13 0 0 0-6.21-12c-46.08-5.28-210.74-24.13-232-26.51-24.79-2.77-30.61 0-43.51 7.16-5.42 3-10.05 5.5-10.05 5.5a37 37 0 0 1-17.89 4.6 39.64 39.64 0 0 1-4.07-.22l-82.93-9a5.47 5.47 0 0 0-6 6.53 392.1 392.1 0 0 1-3.44 171l-9 77.47a9.31 9.31 0 0 0 9.1 10.39s430.42 8.77 473.48 8.07 76.05-7.3 79.77-17l65.6-170.14a4.14 4.14 0 0 0-3.86-5.56Zm-624.33-419.3c-135.67-49.57-284.47-84.7-408.47-83.29q-42.52.75-86.12 4.24c-272.39-120.64-552.84-212.79-838.47-286.59a54.58 54.58 0 0 1 18.24-6.59c-.94-5.18-1.89-7-10.36-8.94-349.17-79.06-748.7-74.83-1064.58-46.94a64.15 64.15 0 0 0-20.12 5.06c-18.68 16.48-35.59 41-52 67.75a2.12 2.12 0 0 0 2 3.22c1-.06 2.15-.18 3.47-.39 388.59-67.17 777.18-40.35 1032.35 4.47s596.12 165.53 822.71 281.65c-196 29.24-277.62 45.6-354.4 54.62a4.63 4.63 0 0 0-1.39 8.82c37.27 17 74.46 36.35 109 63.62 43.14 34.09 90.93 71.14 139.85 112.84a5.75 5.75 0 0 0 8.13-.66q11.53-13.74 24.39-26.52a394.8 394.8 0 0 1 278.79-114.55h23.28a394.75 394.75 0 0 1 278.78 114.55 389.51 389.51 0 0 1 84.49 124.3q1.07 2.51 2.1 5a11.25 11.25 0 0 0 8.43 6.82l148.17 26.29a10.18 10.18 0 0 1 5.66 3 17.63 17.63 0 0 0 10.86 5.16l250 28.56a2.46 2.46 0 0 0 2.25-3.93c-59.2-78.09-291.81-236.23-465-312-210.21-92-325.68-103.06-530.82-75.53-11.48 1.54.61-5.38 10-6.82 259.49-39.77 452.26 40.84 518.71 68.9 143.76 60.7 204.67 81.17 235.06 96.75 67.16 34.42 285.48 160.9 370.32 210.23a184.37 184.37 0 0 0 73.57 24l38.58 4c-211.46-154.86-447.22-270.62-667.46-351.1Zm-1826.25 511.24a31.26 31.26 0 0 0-1.87-9.49 15 15 0 0 0-16.64-9.93c-46.67 7.63-96.35-.18-171.24-37.93-84.79-42.74-432.16-253.47-690-456.61a45.1 45.1 0 0 0-23.78-9.48l-30.19-2.8c-129.11-12-275.44-25.51-301.34-20.8-18.47 3.35-62.83 32-94 53.32a5.36 5.36 0 0 0 .67 9.22 417.58 417.58 0 0 1 108.4 77.7q3.7 3.67 7.31 7.43c52.46 44 135.93 165 180.34 232a105.79 105.79 0 0 1 10.25 97l-32.77 83.61 340.31 28.92a132.16 132.16 0 0 1 34.35 7.63l17.32 6.36 657.36 30.79a5.25 5.25 0 0 0 5.49-5.24Zm23.71-22.35a4.26 4.26 0 0 0-4.65 4.5c.3 5 .18 10.81-1.28 15.2-2.53 7.6-3.5 63.23-3.78 85.45a5.23 5.23 0 0 0 5 5.3l715.75 33.52 44.66-38.73a26.62 26.62 0 0 1 18.76-6.51l240.3 11.28-5.36-18.16Zm-956.6-512.85 23.57 2.18a45.43 45.43 0 0 0 27.44-6.26c41.79-24.9 121.1-57.72 155.57-71.57a6.42 6.42 0 0 0-.48-12.08c-307.81-96.54-621.55-123-938.25-114.54l-520 167.87a6.31 6.31 0 0 0-4.11 7.8c7.87 26.57 40.34 135.27 55 169.62 15 35.3 156 143 184.33 164.42 3.17 2.4 6.13-.54 6.76-2.66a413.52 413.52 0 0 1 71.44-137.9 6.71 6.71 0 0 0-2.93-10.47l-128-47.13a18.46 18.46 0 0 1-12-16l-.88-12.17a9 9 0 0 1 1.65-6 8.61 8.61 0 0 1 9.12-3.19l168.28 44.68a17.1 17.1 0 0 0 15.73-3.78 419.24 419.24 0 0 1 279.67-106.15h24.82a419.32 419.32 0 0 1 163.11 32.67h.07a13.84 13.84 0 0 0 13.21-1.37c31.74-22 81.86-54.81 103.2-58.69 27.02-4.91 167.66 8.12 303.68 20.72Z" transform="translate(-461.43 -857.49)" style="fill:url(#q)"/><path d="M1623 1289.73c-60.46-30.93-131.35-55.3-205.42-56.06-163-1.67-286.7 37.37-377.16 151.33l-124.87-33.15a8.61 8.61 0 0 0-9.12 3.19 9 9 0 0 0-1.65 6l.88 12.17a18.46 18.46 0 0 0 12 16l94.87 34.93q-14.55 22.72-27.78 48.7a30.5 30.5 0 0 1-32.52 16.27c-60.53-10.77-151.85-35.47-174.65-88.5-16.16-45.62-39.89-125.09-46.46-147.28a6.31 6.31 0 0 1 4.11-7.8l520-167.87c316.7-8.48 630.44 18 938.25 114.54a6.42 6.42 0 0 1 .48 12.08c-34.47 13.85-113.78 46.67-155.57 71.57a45.43 45.43 0 0 1-27.44 6.26l-23.57-2.18c-136-12.6-276.66-25.63-303.78-20.7-12.98 2.38-36.78 15.58-60.6 30.5Zm733.8-413.94a64.15 64.15 0 0 0-20.12 5.06c-18.68 16.48-35.59 41-52 67.75a2.12 2.12 0 0 0 2 3.22c1-.06 2.15-.18 3.47-.39 388.59-67.17 777.18-40.35 1032.35 4.47 250.72 44.05 584.22 161.34 810.72 275.56l101-14.45c-266.79-116.8-541.23-206.56-820.63-278.75a54.58 54.58 0 0 1 18.24-6.59c-.94-5.18-1.89-7-10.36-8.94-349.23-79.06-748.76-74.83-1064.64-46.94Zm561.64 929.86a15 15 0 0 0-16.64-9.93c-46.67 7.63-96.35-.18-171.24-37.93-84.79-42.74-432.16-253.47-690-456.61a45.1 45.1 0 0 0-23.78-9.48l-30.19-2.8c-129.11-12-275.44-25.51-301.34-20.8-11.12 2-31.64 13.21-53 26.45 65.74 34.94 118.23 76.86 147.62 102.63a57.75 57.75 0 0 0 54.37 12.13c29.38-8.66 84.67-17.85 180.11-11.52 162.45 10.77 271.86 91.06 459.27 216s282.94 182.23 346.94 190.59c22.3 2.91 56.71 6.58 99.75 10.76a31.26 31.26 0 0 0-1.84-9.49Zm844.7-505.16a46.34 46.34 0 0 0-12-4c-.87 1.31-1.6 2.45-2.2 3.38a3.61 3.61 0 0 0 1.12 5c9.39 5.85 38 23.8 52 34.33a4.06 4.06 0 0 1 1.22 1.32c13.86 8.8 64.76 41.34 93.84 63.15 33.42 25.06-161.13-43.27-236-51.46q-1.8-.14-3.06-.3c-21.18-2.83-26.82-33.89-26.82-33.89s9.75-12.73 23.48-29.39c-202-21-622.57-82.77-796-108.64a689.91 689.91 0 0 1-153.86-41.55c-21.78-8.69-47.21-19-74.94-30.39a24.14 24.14 0 0 0-20.12.71c-14.73 7.45-34.15 25.41-57.81 47.31-17.12 15.84-36.52 33.79-58.65 52h-.06a4.27 4.27 0 0 0 1.6 7.41c240 65.87 555.88 170.64 633.13 196.49a7.09 7.09 0 0 1 .52 13.25C2977.14 1490.1 2818 1551 2653.45 1609.13a9.18 9.18 0 0 0-1.41 16.67l188.59 104.77a228.06 228.06 0 0 0 88.47 27.61l1041.75 102.4a5.34 5.34 0 0 0 5.56-7.07c-.67-1.93-6.66 2-7.29 0l-86.48-12.24c-9-1.27-49.88-14.07-56-20.71l-22.33-50.56a10.34 10.34 0 0 1-1.45-2c-5.3-5.23-23.14-9.12-80.15-16.52l-1041.4-135a3.07 3.07 0 0 1-.68-5.92c165.74-62.93 318.65-123.19 447-178.32a103.42 103.42 0 0 1 53-7.67l240.25 28.7 552.11 57.21a553.86 553.86 0 0 1 37.28-44.8c-86.13-71.63-166.49-125.3-247.1-165.19Zm1317.63 266.3c-99.26-79.71-256.43-178.22-382.21-233.24-210.21-92-325.68-103.06-530.82-75.53-11.48 1.54.61-5.38 10-6.82 259.49-39.77 452.26 40.84 518.71 68.9 143.76 60.7 204.67 81.17 235.06 96.75 67.16 34.42 285.48 160.9 370.32 210.23a184.37 184.37 0 0 0 73.57 24l38.58 4c-211.41-154.94-447.17-270.7-667.41-351.18-135.67-49.57-284.47-84.7-408.47-83.29q-42.52.75-86.12 4.24l-113.31 13.67c-191.29 28.63-272 44.73-347.91 53.65a4.63 4.63 0 0 0-1.39 8.82c37.27 17 74.46 36.35 109 63.62 36.71 29 76.8 60.18 118.08 94.52 92.91-96.89 216.21-150.31 371.45-148.17 153.29 2.12 239.14 71.64 287.41 114 85.86 75.27 346.08 97.4 405.49 141.83Zm-324.87 341s430.42 8.77 473.48 8.07 76.05-7.3 79.77-17l16.41-42.56c-14 36.39-26.35 38.32-52.88 40.16-105.88 7.34-39.39-114.06-39.38-114.08l-52.26 52a44.43 44.43 0 0 1-33.19 12.88l-83.83-3.53-308.94-17.73-8.28 71.39a9.31 9.31 0 0 0 9.13 10.45Zm-3077.27-860.9 74.52-16.12c55.21-11.94 59.23-.42 91.29-8.33 108.24-26.68 290.18-53.94 457.39-64.67 87.93 47.29 204 98.46 299.89 138.52a3.57 3.57 0 0 1 .43 6.37c-15.35 8.9-33.71 25.88-56.26 46.75-14.37 13.3-41.84 36.45-63.24 54.19a19.42 19.42 0 0 1-17.44 3.79c-248.78-67.35-524.52-134.87-786.14-154.08a3.25 3.25 0 0 1-.41-6.37ZM2143.4 1075c1.66 32 38.83 56 83 53.75s78.66-30.07 77-62-38.82-56-83-53.75-78.66 30-77 62Zm-1588.69-36.51 167.47 8.08 19.74-16.8c-80-1-149.13-1.63-183.57-1.63-20.7 0-29.64 1.41-39.52 10.82-1.84 1.75-4.75 4.82-8.31 8.7 11.13-10.58 21.75-10.25 44.19-9.17Zm3338.7 851.19c-16.31-1.06-296.16-32.13-553.89-60.9l-395.47-36a4.26 4.26 0 0 0-4.65 4.5c.3 5 .18 10.81-1.28 15.2a25.49 25.49 0 0 0-.8 4.29c288.85 27.57 912 75 960.8 78.55 57.41 4.25 25.88-3.65-4.71-5.64Zm-1637-935c-74.6-2.89-341.74 24-486.78 42.84-26.28 3.41-81.86-.28-121.41 3.77-120.94 12.37-244.25 33.44-310.53 46.82a1.8 1.8 0 0 0 .48 3.57c51.57-3.27 103.55-5.18 166.18-4.79a293.74 293.74 0 0 0 48.4-3.68c242.43-39 581.11-76.89 703.71-86.35a1.09 1.09 0 0 0-.03-2.15ZM5084 1569.39c2.72 2.39 5.71 4.83 8.92 7.3q-4.38-3.63-8.92-7.3Zm-3858.38-509c10.92-.93 21.58-1.82 32.06-2.68a150.74 150.74 0 0 0 22.83-3.65c53.31-12.72 187.12-41.56 363-57.2 50.75-4.52 102.49-1.85 130.82-5.89 118-16.79 436.6-40.48 489.83-44.38a16.41 16.41 0 0 0 12-6.66c10-13.68 34.88-46.58 50.64-59 4.26-3.37 7.5-2.28 7.5-2.28-2-1.18-5.66-2.29-12-1.77-422.16 34.49-718.67 86-1144.84 158.24Z" transform="translate(-461.43 -857.49)" style="opacity:.45;fill:url(#r)"/><path d="M3676.81 1262.72c-175.6-15.15-639.17-78-813.24-102a690.76 690.76 0 0 1-120.67-27.82 4.63 4.63 0 0 1-3.15-3.93l-16.48-167.33a4.61 4.61 0 0 1 4.44-5.06c218.3-6.6 419.17 11 568.36 34.92 109.58 17.6 233.56 53.28 355 96.08a12.2 12.2 0 0 0-1.93 3.59c-4.65 13.76-5.31 36.61-5.06 53.26a55.22 55.22 0 0 0 14.91 36.86c12.93 13.86 33.27 33.13 54.62 43.53-11.2 9.82-24.35 23.77-36.8 37.9Zm-1034.54-298a4.59 4.59 0 0 0-4.84-4c-78.36 4.76-158.3 12.83-238.34 25a4.61 4.61 0 0 0-1.34 8.69c78.08 38.16 176 76.84 255.17 106.26a4.6 4.6 0 0 0 6.17-4.9Zm1351.05 262.68c-39.61-18.35-82.35-37.34-127.12-56.26a14.08 14.08 0 0 1-4 5c-37.5 29.34-66.76 61.86-86.39 86.62 44.69-3.81 69.53-6.69 216.23-26.66a4.61 4.61 0 0 0 1.28-8.7Zm-561.55-295.73a54.58 54.58 0 0 0-18.24 6.59c285.63 73.8 566.08 166 838.47 286.59q43.58-3.46 86.12-4.24c-389.18-145.41-685.65-233.88-906.35-288.94Z" transform="translate(-461.43 -857.49)" style="opacity:.7000000000000001;fill:url(#s)"/><path d="M2653.41 1051.54a12 12 0 0 1-12.32 13.55c-24.24-.78-47.77-1.49-70.43-2.14a94.46 94.46 0 0 1-32.77-6.86c-48.44-19.65-97.28-40.76-140.15-61.71a4.6 4.6 0 0 1 1.34-8.68c80-12.16 160-20.23 238.35-25a4.59 4.59 0 0 1 4.84 4Zm995.77 39.66a12.44 12.44 0 0 1 1.93-3.59c-121.48-42.8-245.46-78.48-355-96.08-149.23-23.95-350.11-41.53-568.4-34.92a4.61 4.61 0 0 0-4.44 5.06l9.48 96.19a12 12 0 0 0 11.5 10.84c144 5.46 302.8 13.33 448 24.58 141.12 10.93 302.08 30.25 451.87 50.77-.24-16.61.45-39.2 5.06-52.85Z" transform="translate(-461.43 -857.49)" style="opacity:.4;fill:url(#t)"/><path d="M4008.82 1529.86a389.38 389.38 0 0 0-36.7 310.42 4.92 4.92 0 0 1-5.39 6.32l-78.73-11.15a39.52 39.52 0 0 1-23.41-12.22l-54.92-59.13a20 20 0 0 1-1-26.09 2106.42 2106.42 0 0 0 133-187.78 41.52 41.52 0 0 1 29.92-19.06c17.15-2.17 39.04-4.38 37.23-1.31ZM2316.31 1888l82 30a252.55 252.55 0 0 0 79.83 15.28l488.86 13.59q45.89 1.26 91.79-.45l380.47-14.28L2317 1884.62a1.76 1.76 0 0 0-.69 3.38Zm-120.51-703c5.68 1.78 23.5 6.3 23.73 12.26s-17.18 11.71-22.71 13.93c-32.59 13.1-112.89 46.25-154.52 71l-.1.06a6.18 6.18 0 0 0-.32 10.49 53.2 53.2 0 0 1 3.36 2.44c252.54 199 597.23 409.68 688.73 455.8 87.77 44.24 138.23 45.41 186.37 33.08-.62-3.65-3.85-6.09-11.11-6.67a49.35 49.35 0 0 1-19-5.46c-236.82-124.49-493.63-285.23-765.24-472.81a9.32 9.32 0 0 1-.08-15.3c36.38-25.42 96-47.84 167.27-68.74a7.3 7.3 0 0 0-.1-14c-101.33-27.94-219.37-56.36-345.69-85 31.27 8.6 62.54 17.19 92.29 25.59 53.13 12.75 105.39 27.17 157.12 43.39Zm259.5 263.55c21.7 15.71 56.35 37.07 92.1 58.12a3.73 3.73 0 0 0 5.2-4.92c-28.47-55.65-51.3-108.58-65.85-157.49a5 5 0 0 0-4.58-3.58l-132.71-5.56A8.68 8.68 0 0 0 2343 1350c23.16 23.19 69 67.23 112.3 98.61Zm113.7 63.57a40.27 40.27 0 0 0 15.61 16.19c52 29.82 97.31 54.42 97.31 54.42s373.42-142.59 388.24-151.06 1.84-19.63-22.59-27.53l-216-69.88-20.34 7.84a149.81 149.81 0 0 1-60.23 9.9l-250.49-10.5a5 5 0 0 0-4.95 6.62c17.31 50.53 42.82 105.8 73.44 164Zm1090-330.8c4.34 4.65 9.53 9.92 15.3 15.25-.95-1.26-26.51-35.28 0-36.67 27-1.41 149.84 1.89 171.52 3.53s13.16 15.22 13.16 15.22c1-.83 2.07-1.65 3.12-2.47a14.11 14.11 0 0 0 .07-22.16c-64.84-51.19-201.69-96.47-213.05-62.82-4.65 13.76-5.31 36.61-5.06 53.26a55.22 55.22 0 0 0 14.94 36.86Zm-12.91 153.17c4.47-3.76 65.54-71.69 77.65-84.94s-10.12-24.7-10.12-24.7c-32.94 28.7-82.35 93.17-82.35 93.17s10.38 20.24 14.85 16.47Zm42.71-2.7c-27.77 7.41 95.9-4.86 102.86 0-14.74-10.11-34.14-22.3-41.57-26.92a3.61 3.61 0 0 1-1.12-5s-32.38 24.51-60.14 31.92Zm1736.1 391.38-34.61 5a12.61 12.61 0 0 0-10 8l-54.57 144a2.26 2.26 0 0 0 2.48 3l62.6-10.17a13 13 0 0 0 10.67-10.38c10.17-53.26 23.05-121.67 25.24-137.66a1.59 1.59 0 0 0-1.81-1.79Zm-259 111.56c6.53-4.68 20.13-17.21 36.66-33.16l-24.14 20.27a12.53 12.53 0 0 1-8.76 2.93c-5.74-.32-14.39-1.57-16.09-6.11a68.64 68.64 0 0 1-2.65-9.71c-.24-2.87 2-6.85 8.4-12.34L5293.18 1682a5.85 5.85 0 0 0 .64-11.3c-36.89-21.88-131.48-78-142-84-13.18-7.53-14.59 5.18-32.94-6.12-4.88-3-7-6.62-7.84-9.3a11.85 11.85 0 0 0-5.13-6.55l-65.44-39a3.07 3.07 0 0 1-1.35-1.57 68.64 68.64 0 0 1-2.55-9.61 3.13 3.13 0 0 1 3.16-3.15h17.46c-25.46-15.45-43.58-25.3-47.92-25-13.05 1-30.72-8.61-40.8-14.92a21.14 21.14 0 0 1-9.19-12.52 46.85 46.85 0 0 0-24.13-30.18c-18.18-9.36-87.35-36.86-120.77-50a1.46 1.46 0 0 0-1.26 2.63c143.59 83.22 265.21 168.47 358.59 256.33a35.34 35.34 0 0 0 23.49 9.62c6.58.13 13.86.25 17.72.25 8.11 0-14.95 13.06-3.89 13.06s54.36 3.17 54.36 3.17a112.68 112.68 0 0 1-47.06 28 86 86 0 0 0-48.68 38.36l-59.89 100.86a5.35 5.35 0 0 0 4.23 8.08c14.78 1.11 44.62 2.24 53.89-4.41Zm-1182.15 77.75L3718.11 1900a18.18 18.18 0 0 0-12.79 4.44l-64.32 55.8a28.61 28.61 0 0 1-19.29 7l-1172.81-23.41a117.52 117.52 0 0 1-38.24-7.2l-173.42-63.7a123.93 123.93 0 0 0-32.14-7.14l-340.7-29a17.49 17.49 0 0 0-13.65 4.9c-8.48 8.28-25.34 23.19-39.92 26.88-8.19 2.07-32.24 51-.71 35 20.77-10.54 36.7-30.67 45.14-43.17a22.36 22.36 0 0 1 20.42-9.76l332 27.85a123.59 123.59 0 0 1 31.38 6.82l171 61.34a117.87 117.87 0 0 0 38 6.89l1182 17.38a28.6 28.6 0 0 0 18-6l62.06-48.33a18.21 18.21 0 0 1 11.77-3.83l261.52 8.28a4.3 4.3 0 0 0 .34-8.6Zm1410.83-30.14-66.79 8.39a9.65 9.65 0 0 0-8 6.67c-1.64 5-5 11.71-11.68 12.86h67.41c15.18 0-48 24.47-103.41 30.7s-144.35 6.24-144.35 6.24 92 5.18 148.7 0 100.82-14.69 106.83-22.59l8.41-11.06c1.44-7.46 3.32-17.24 5.46-28.42a2.36 2.36 0 0 0-2.6-2.79Zm-3577.25-37.52c-5.13 20.73 22.27-2.59 22.27-2.59l36.63-93.48a105.74 105.74 0 0 0-10.25-97c-19.19-29-45.68-68-73.8-106.61 20.54 49.87 44.08 103.39 44.08 157.76-.02 39.1-7.21 94.53-18.95 141.92Zm-1064.62-123c-26.5-10.72-46.78-20-56.66-26.8-19.4-13.27-38-24-48.5-50.13-9-22.35-25.74-64.07-44-112.29a7.93 7.93 0 0 0-7.55-5.12l-15.75.28a6.73 6.73 0 0 0-6 9.45l57 128.15c-20.6-6.57-40.6-21.79-60-45.89l35.43 77.84c7.11 15.6 20.64 23 36.78 32.72 0 0 41.43-.2 117 18 7.7 1.85 6.38-6.53 4-13.7a20.47 20.47 0 0 0-11.77-12.55Zm383.49-708.39a62.9 62.9 0 0 0-27.94-7.22l-317.11-6.92a34.18 34.18 0 0 0-22.92 8.15L640 1116.51a24.68 24.68 0 0 0-8.69 19c.17 24.22 1.57 81.31 10.59 121.83 29 130 105.18 304.29 143.3 381.06 10.94 36.82 40.59 55.79 55.06 55.79 5.16 0 16.8.33 29.63.75a114.87 114.87 0 0 0 85.59-34.22l11.81-12a19 19 0 0 0 5.42-14.36l-1.36-24.45a10.38 10.38 0 0 0-4.12-7.73c-25.57-19.3-170.23-129.49-185.43-165.25-14.62-34.36-47.09-143.06-55-169.63-1-3.28 1.58-25.4 4.84-26.45l65.8-21.25a4.19 4.19 0 0 0-1-8.17c-20.72-1.22-35.51-2.12-40.2-2.47-23.77-1.76-58.12-14.11-38.83-14.11 7.59 0 64.86 1.41 132.27 3.14a80.42 80.42 0 0 0 26.71-3.86l66.61-21.51a4.26 4.26 0 0 0-1.07-8.31c-79.4-4.53-171.09-9.79-185.73-10.76-26.59-1.76-59.06-14.12-38.83-14.12 14.13 0 184.08 4.48 289.27 7.18a91.8 91.8 0 0 0 30.6-4.42l214.47-69.19-26.06-12.59Zm-541.78 494.74c-11.29-30.46-22.75-62.56-32.94-93.38-23 3.61-50.39 7.93-61.48 9.82-20.7 3.53-29.65 79.3-32.47 84.71s5.18 6.35 12 5.64l111.84-2.31a3.32 3.32 0 0 0 3.05-4.48Z" transform="translate(-461.43 -857.49)" style="fill:url(#u)"/><path d="m1819.62 1583.65-20.57-21.78c-2.31-5.6-4.62-11.17-6.89-16.69 9.4 12.9 18.63 25.82 27.46 38.47Zm62.53 109.6a106.33 106.33 0 0 0-4.53-17.91l-58.81-62.26q3.38 9.83 6.29 19.76Zm-926.59-690.41-12.64-.28L1066 1132.91l9.49-3.06Zm925 732.11a105.27 105.27 0 0 0 2-10.94l-48.67-51.53q1.1 7.43 1.68 14.89ZM857.6 1159.48l-13.09-.75 33.07 35 9.49-3.07ZM778 1001.56l134.71 142.62 12.69.33-137.11-145.2a34.15 34.15 0 0 0-10.29 2.25Zm52-1.46-12.64-.28 137.38 145.45 12.69.33Zm70.93 161.9-13.09-.74 21.16 22.35 9.49-3.06Zm322.14-79.74 9.49-3.07-28.4-30.06-24.56-12.9Zm-31.41 10.14 9.49-3.07-75.92-80.38a62.86 62.86 0 0 0-14.87-2.63Zm-31.41 10.13 9.49-3.06-88.64-93.85-12.64-.28Zm667.16 693.27q-.93 5.54-1.94 11l19.78 21 3.63-9.27Zm5.33-37.75q-.66 5.74-1.42 11.6l26 27.48 3.63-9.27Zm-12.34 73.72q-1.2 5.3-2.46 10.51l8.57 9.06a63.53 63.53 0 0 0 7.73-4.92Zm15.52-113.77q-.26 6-.67 12.4l34 36 3.63-9.26ZM631.3 1136.85c0 3.79.09 8.28.21 13.33l96.33 102c.7-4.3 1.67-8.29 2.76-10.2Zm1.44 44.92c.26 4.59.57 9.3.92 14.08l105.16 111.34c-2.13-7-4.09-13.49-5.83-19.28Zm238-38.67 12.69.33-122.58-129.77-6.85 5.84Zm-42-1.07 12.69.32L738.13 1033l-6.86 5.84Zm-57.85 12.42-13.14-.8 40.65 43 12.68.32ZM653.64 1303.8l131.57 139.3a42.89 42.89 0 0 1-3.41-6.17c-2-4.69-4.32-10.77-6.87-17.83l-126.24-133.66q2.31 9.09 4.95 18.36Zm-16.52-74c.71 5.33 1.51 10.58 2.41 15.66L759 1372c-2.1-6.51-4.21-13.15-6.3-19.77Zm77.66-34.8c.73-.07 1.6-.1 2.63-.1 1.48 0 4.85.05 9.79.15l-80-84.66-6.86 5.84Zm72-54 12.68.31-84-89-6.87 5.84Zm-3.8 69.65-13.13-.79 13.54 14.32 9.48-3.06Zm-45.3-4.57a146.34 146.34 0 0 1-16.91-4.79l31.21 33 9.48-3.06Zm18.78-10.4 12.67.3L723 1147.1c-11-3.54-16.36-7.25-7.21-7.63L670 1091l-6.86 5.84ZM744.82 1140l12.66.29-64.79-68.6-6.87 5.84ZM2876 1790.8c4-.12 7.84-.38 11.67-.75l-36.79-39q-12.61-6.78-25.31-13.69Zm-170.37 110.27-12.89-.54 37.55 39.76 12.71.35Zm-389.27-13 12.37 4.52-7.32-7.75-4.37-.19a1.76 1.76 0 0 0-.73 3.35ZM3010.53 1456l9-3.56-78-82.55-17.83-5.76Zm29.82-11.82 9-3.61-48.74-51.57-17.83-5.77Zm-998.47-151.3a53.2 53.2 0 0 1 3.36 2.44q11.72 9.24 23.7 18.5l-28.37-30a6.15 6.15 0 0 0 1.31 9.03Zm848.75 209.74 9.07-3.5-138.84-147c-3.29.08-6.58.06-9.87-.08l-2.69-.11Zm-180.44 69.32 9.09-3.48-214.13-226.76-4.65-.19a5 5 0 0 0-4.88 3.21Zm359.55-140 .38-.2c3.39-1.94 5.31-4 6-6.16l-15.33-16.23a113.56 113.56 0 0 0-13.25-5.14l-5.73-1.85ZM2381.32 1471q-16-10.37-32.09-20.87l157.16 166.39q15.48 9.77 30.37 19Zm-1690.79-54.46q4 10.88 8.09 21.66l229.51 243q4.07-2.19 7.94-4.71Zm438.32-303.91 9.48-3.06-99.08-104.91-12.64-.27Zm1783.59 673.42q4-.87 7.9-1.88c-.62-3.65-3.85-6.09-11.11-6.67a52.17 52.17 0 0 1-5.59-.77Zm-224.29 153.07 12.72.35-38-40.2-12.89-.55Zm-459.65-703.64q4.61-1.62 9.34-3.22l-25.84-27.41a87.71 87.71 0 0 1-8.68 3.91Zm173.29 313.65q16.3 10.71 32.28 21.08l-160.85-170.31q-16.8-11.2-33.71-22.58Zm-562.34 302.77a134.6 134.6 0 0 1-7.14 5.55l14.12 15c2-2.51 3.89-5 5.54-7.24Zm71.48-11.11-13.47-1.15 13.22 14 13.44 1.12Zm573.43-304.12q-15.26-9.57-30.59-19.29l151.06 159.94q14.8 8.94 28.49 17.06Zm-528.87 307.91-13.46-1.15 13.16 13.94 13.45 1.13Zm-159.76 47.82c-3.11 10.11-1.8 18.36 11.78 12.46Zm-698.29-769.63 9.49-3.06-109.53-116-12.64-.28Zm947.17 729.38-13.46-1.14 13.07 13.83 13.44 1.13Zm133.69 11.36-13.46-1.14 12.91 13.67 13.45 1.13Zm-178.25-15.15-13.46-1.14 13.11 13.89 13.45 1.12Zm286.06 42.52-19-7 16.5 17.46 18.72 6.71Zm-152.38-31.15-13.46-1.15 13 13.73 13.44 1.13Zm-44.56-3.79-13.46-1.15 13 13.78 13.44 1.13Zm259.7 58-19-7 15.72 16.64 18.72 6.71Zm-535.37-46.11c-.9.3-1.79.57-2.67.79-1.34.34-3.09 1.92-4.95 4.25l19.6 20.74q3.55-2.83 6.81-5.89ZM5356.1 1800l-3.54 9.35 49.15 52 2.07-10.91Zm-515.21-402.21q14.49 8.6 28.65 17.23l-21.54-22.84c-7-2.78-13.68-5.45-19.82-7.88Zm328 390.63 6.84-5.86-24.06-25.48-4.78 8.05Zm-228.63-328.85q17 11.09 33.38 22.24l-58.72-62.18c-6.15-2.65-13.13-5.59-20.56-8.66Zm136 87.52-28.31-16.87 14.9 15.78q26.06 19.93 50.21 40ZM5242.77 1680q-3.93 2.4-8.12 4.51l24.86 26.31 6.84-5.86Zm-34.92-23.87 4.37 4.63c3.37.1 7.93.32 12.95.6l-11.06-11.71c-1.18 1.75-4.22 4.29-6.26 6.51Zm141.88 267.3c-3 1-6.2 2-9.54 3l9.68 10.25q5.45-1.17 10.13-2.38ZM5135.56 1840c4 0 8.07-.2 11.88-.53l-27.44-29.08-4.78 8Zm69.26-143.64 32 33.91 6.85-5.86-29.91-31.66a85.08 85.08 0 0 0-8.94 3.59Zm188.23 186.19-11.07 1.39 12.82 13.57 2.09-10.89Zm-75.61 50.13q-5 1.21-10.16 2.35l7.37 7.81c3.73-.53 7.36-1.06 10.86-1.62Zm-34.49 6.87c-3.63.55-7.25 1-10.83 1.43h-.18l5.76 6.1q5.74-.52 11.32-1.12Zm-37.38 3.82q-5.76.42-11.65.77l4.79 5.08q6.09-.15 12-.39Zm-93.45-129.22a39.35 39.35 0 0 1-1.22-5.18c-.14-1.73.61-3.85 2.61-6.46l-17.7-18.75-4.78 8Zm192.25 16.85-3.55 9.35 33.39 35.36L5385 1874Zm-306.79-311.71a33.43 33.43 0 0 1-1.06-4.7 3.13 3.13 0 0 1 3.16-3.15h2.87l-17.39-18.44c-8.22-4.33-13.82-6.7-16-6.54q-1.24.09-2.52.06Zm162.09 128.22c4.83.09 9.52.16 12.54.17l-54-57.21c-3-1.78-5.24-3.06-6.41-3.73-5.06-2.89-8.39-2.8-11.6-2.23Zm6.94 298-11.95.45 3.28 3.47c4.09 0 8.25.07 12.45.08Zm-39.83 1.22c-4.32.09-8.39.16-12.17.22l1.41 1.49c4 .14 8.24.28 12.76.41Zm189.63-59.59-11.07 1.39 20.53 21.74h9.66c4.45 0 2.16 2.11-4.71 5.24l10.37 11a9.32 9.32 0 0 0 2.11-1.87l3.79-5Zm-100.78-223.77 7.67.54c-1.24 1.23-2.5 2.41-3.78 3.57l22.65 24 6.85-5.86-38-40.24-28.11-16.66Zm-68.69 44.34a86.82 86.82 0 0 0-6.65 6.07l33.89 35.88 6.84-5.86Zm134.86 186.19a9.85 9.85 0 0 0-2 3.51 30.55 30.55 0 0 1-2.19 5.15l7.28 7.71h12.38Zm10.83-31.94-3.55 9.36 9.6 10.15 10.73-1.74ZM5191.51 1769l6.85-5.86-30.91-32.72-4.78 8Zm6.06 36.7-6.9 5.8.68.72q3.15-3 6.52-6.2Zm-23.57 18.52a12.71 12.71 0 0 1-4.39.55 47.12 47.12 0 0 1-8.61-1.21l8.15 8.63c2-1.59 4.26-3.55 6.86-5.85Zm-4507-476q3.19 10 6.58 20.07l278.91 295.3c1-.95 2-1.91 3-2.9l3.4-3.46ZM524.34 1514l12.14-.26-56.05-59.34c-1 3.27-2 6.64-2.9 10Zm40.19-.84 12.15-.25-81.41-86.19a25.78 25.78 0 0 0-5.92 6.84Zm73.62 108.24-49.93-52.87 11 24.79 48 50.84c-2.45-6.16-5.53-13.86-9.07-22.72ZM719 1490.1q4.8 11.82 9.6 23.27l169.1 179q5-1.08 9.93-2.59Zm-131.88 164.09 11.52 25.3 47.74 50.51c2.62.08 7 .27 13.09.76Zm-103-139.32 12.14-.25-24.26-25.75c-.81 4.05-1.53 7.73-2.14 10.84Zm268.64 54.35q5.9 13.21 11.45 25.23l94.56 100.12 11.08.35h1.65Zm-198.2-153.34 11.25 11.9c-1.47-4.34-2.93-8.68-4.35-13ZM790.88 1653c9.17 18.7 23.16 31.15 35 37.11Zm-166.13-2.32 6.54 14.68c-2.62-.84-5.22-1.81-7.82-2.93l68.09 72.09q6.81 1 14.54 2.29Zm-95.07-230.88-10.76 1.72 71.44 75.63c-2.59-7-5.17-14.16-7.74-21.3Zm60.78 107.74-10.2.18a7.12 7.12 0 0 0-1.76.27l39.21 41.52c-2.76-7.13-5.61-14.53-8.52-22.13Zm129 180c-10.25-4.76-18.25-9-23.42-12.53l-2.24-1.53 47.32 50.1q7.6 1.65 15.75 3.57ZM942 1164.31l-10.81-.62 9.24 9.78 2.64-.85a4.26 4.26 0 0 0-1.07-8.31Zm3041.76 748.17-9.66-.45 8.52 9h.8a4.3 4.3 0 0 0 .34-8.6Zm-355.57 54.13a28.83 28.83 0 0 1-6.44.61l-5.47-.11 3.51 3.72 10.32.15c.72 0 1.43 0 2.15-.06ZM829.91 1490.43l142 150.35a19.08 19.08 0 0 0 .77-6.44l-.34-6.22-79.36-84c-21.31-17.3-43.83-36.19-63.07-53.69Zm4578.76 235.07-10.9 1.57 24.25 25.67c.72-4 1.37-7.68 2-11Zm-29.09 12.59-3.55 9.35 39.33 41.64c.7-3.73 1.37-7.39 2-10.95ZM2411.6 1937c-.31-.11-.63-.2-.94-.32l-18-6.61 14.93 15.81 2.44.88a118.58 118.58 0 0 0 14.75 4.21Zm1546.77-401.8a41.56 41.56 0 0 0-7.7 4.95l34.65 36.69c.31-.74.61-1.48.93-2.22 1-2.27 2-4.52 3-6.76ZM2224.48 1869a122.58 122.58 0 0 0-15-2.77l13.83 14.64a124.29 124.29 0 0 1 15.7 4.48l1.38.5ZM871.86 1001l-12.64-.28 137.54 145.62 9.92.26h2.71Zm-57.6 156-13.1-.76 39.22 41.52 9.3.24h3.31Zm4553.58 612.06-3.55 9.36 44.28 46.87q1-5.47 2.06-10.92ZM913.71 1001.92l-12.64-.27L1034.58 1143c.9-.26 1.8-.52 2.7-.81l6.83-2.2ZM1866.36 1837l-2-.17a17.48 17.48 0 0 0-9 1.66l12.28 13a22.35 22.35 0 0 1 8-.79l3.93.33Zm1994.13-665.85c.88 3.78-1.45 7.5-1.45 7.5 1-.83 2.07-1.65 3.12-2.47a14 14 0 0 0 1.63-1.53Zm-524 790.38-12.61-.25 5 5.27 12.55.19Zm41.78.83-12.62-.25 4.77 5.05 12.56.19Zm-208.86-4.17-12.62-.25 5.82 6.17 12.56.18Zm41.77.84-12.62-.25 5.62 5.94 12.55.18Zm250.63 5-12.62-.26 4.35 4.61 12.56.19Zm-167.09-3.34-12.61-.25 5.19 5.5 12.55.18Zm-41.77-.83-12.62-.25 5.41 5.72 12.55.18Zm167.09 3.33-12.62-.25 4.56 4.83 12.56.19Zm255.68-33-6.81 5.9 6.9 7.31 7.14-5.56Zm-22.53 19.54-6.8 5.9 5.81 6.16 7.13-5.56Zm45.06-39.08-6.81 5.9 8 8.46 7.13-5.56Zm-194.67 54.25-12.62-.25 4.15 4.39 12.55.18Zm41.77.83-12.62-.25 3.94 4.17 12.55.18Zm41.77.83-12.62-.25 3.73 4 12.55.18Zm-668.34-13.32-12.62-.25 7.09 7.49 12.55.19Zm-167.08-3.33-12.62-.26 7.92 8.35 12.55.18Zm-41.77-.84-12.62-.25 8.13 8.61 12.55.18Zm125.31 2.5-12.62-.25 7.5 7.94 12.56.18Zm-41.77-.83-12.62-.25 7.71 8.16 12.55.18Zm-167.09-3.33-12.61-.26 8.54 9.06 12.56.18Zm41.77.83-12.61-.25 8.34 8.83 12.55.18Zm376 7.5-12.62-.26 6.45 6.83 12.55.19Zm-167.15-3.38-12.62-.25 7.29 7.72 12.56.19Zm250.63 5-12.62-.25 6 6.39 12.56.18Zm-41.77-.83-12.62-.25 6.24 6.61 12.56.18Zm-83.55-1.67-12.61-.25 6.66 7.05 12.55.19Zm727.42-54.3-11.6-.55h-1.29l12.29 13 12.76.4ZM2960.52 1954l-12.61-.25 6.87 7.27 12.55.19Zm786.63-859.49c-6-2-11.89-3.91-17.66-5.58l68.5 72.52c4.43.13 8.7.27 12.76.41Zm-86.84 224.92 6.09-6.65-16.82-17.78c-2 2.5-3.95 4.87-5.71 7.07Zm-14.31 15.15-13.42-14.21c2.84 5.14 9.84 16.78 13.42 14.21Zm291.65 222q-2.49 3.92-5 7.82l41.14 43.57q1.56-4.85 3.25-9.67Zm-1355 40.71q-14.55-8.82-29.18-17.79l143 151.4c9.55 5.34 18.12 10 25.59 14Zm1158.71-292c-2.19 1.49-4.76 3.2-7.64 5l19.86 21c4.14-.19 8.15-.36 11.92-.49Zm-60.87-7.94 6.06-6.68-17.75-18.67c-2 2.32-4 4.63-5.87 6.9Zm20.07-22.15 6-6.69-17.9-19q-3 3.29-6.08 6.66Zm14.67 45.82a184.75 184.75 0 0 1-8.48 4.14l7.78 8.23 11.79-.62Zm-1130.6 625.48-12.61-.25 8.75 9.27 12.56.19Zm1270.49-781.11-38.28-40.53c-7.6-4.09-15.46-8-23.45-11.72l47.16 49.93c2.18.12 4 .23 5.38.33a28.46 28.46 0 0 1 9.14 2.02Zm-161.79-84.51a132.58 132.58 0 0 0-13.54-1.23l76.23 80.7c4.22.1 8.45.19 12.66.3Zm300.1 447.92c-3.54.28-7.42.66-11.34 1.1l16.87 17.85q2.19-4.21 4.47-8.36Zm-348.59-412.4c-.32 4.13-.52 8.32-.63 12.44l29.39 31.16.76-.06c2.81-.14 6.65-.24 11.29-.29Zm10.35-32.43a13.61 13.61 0 0 0-5.87 6.89l65 68.82c4 0 8.22.09 12.53.16Zm117.4 818.6-13-.61 11.72 12.41 12.76.4Zm171.55 8-13-.61 9.17 9.7 12.76.41Zm-135-173.22 94.73 100.3 14.29 2-103.38-109.45c-1.88 2.45-3.78 4.8-5.64 7.2Zm24.12-31q-2.76 3.63-5.55 7.24l123.47 130.72 14.29 2Zm68 202.17-12.95-.61 9.8 10.38 12.76.4Zm-85.77-4-12.95-.61 11.07 11.73 12.76.41Zm42.88 2-13-.6 10.44 11 12.76.4ZM3659 1181.32c4.34 4.65 9.53 9.92 15.3 15.25a86 86 0 0 1-9-15.07l-17.82-18.87a55.68 55.68 0 0 0 11.52 18.69Zm245 426.5q-2.58 3.83-5.18 7.63l59.36 62.85q.72-5.71 1.6-11.41Zm-52.63 74.46-5.46 7.33 119.67 126.71q-2-8.43-3.61-16.94Zm-127.66-432.73a15.05 15.05 0 0 0 2.48-3.56l-16.59-17.57q-3.19 2.94-6.52 6.21l17.42 18.44c1.34-1.4 2.42-2.6 3.27-3.52Zm-38.37 83.37c-1.13.56-.67.92 1 1.12Zm201.42 300q-2.62 3.77-5.27 7.52l73.8 78.14q.12-6.33.45-12.62Zm-17.54 24.82q-2.67 3.72-5.36 7.43l93.07 98.55q-.66-7.11-1.08-14.25Zm51.71-75.43q-2.53 3.87-5.08 7.72l48.7 51.57q1.18-5.25 2.5-10.46Zm-831.18 335-12.89-.54 26.4 28 11.95-.45Zm-42.69-1.81-12.9-.54 29.51 31.24 12-.44Zm-85.38-3.61-12.9-.55 33.84 35.83q6.26.1 12.52.15Zm42.69 1.81-12.9-.55 32.22 34.11q6.09-.07 12.19-.2Zm-170.77-7.23-12.9-.55 35.75 37.84 12.71.36Zm42.69 1.8-12.89-.54 35.14 37.2 12.71.36Zm42.69 1.81-12.89-.54 34.54 36.56 12.71.36Zm384.23 16.27-12.9-.55 10.85 11.49 12-.45Zm-170.77-7.23-12.89-.55 23.29 24.66 11.95-.45Zm128.08 5.42-12.9-.54 14 14.78 12-.45Zm85.38 3.62-12.89-.55 7.74 8.2 12-.45Zm-555-23.5-12.9-.55 36.35 38.49 12.71.35Zm384.29 16.34-12.89-.55 20.18 21.37 11.95-.45Zm42.7 1.81-12.9-.55 17.07 18.07 12-.45Zm-1076.46-649.3q3.93-2.28 8.11-4.52l-25.53-27q-4.35 1.92-8.71 3.88ZM2590 1531.4c9.22 5.27 18.19 10.36 26.68 15.14L2551 1477q7 14.12 14.54 28.5Zm-93.25-55.34c9.3 5.82 19.18 11.87 29.37 18l-149-157.71-12.89-.54Zm25.86-59.41 154.2 163.35 5.07 2.77 7.29-2.79-176.7-187.09q4.82 11.74 10.1 23.76Zm-115.66-79.06 135 143q-6.55-13.36-12.62-26.47l-109.52-116Zm358.69 366.67q-13.23-7.44-26.53-15l92.34 97.77c5 1 9.85 1.74 14.58 2.33Zm-89.33-51.19q-13.87-8.11-27.83-16.36l125.16 132.52q10 4 19.23 7.24Zm72 249.81-12.9-.54 36.95 39.12 12.71.35ZM2343 1350c13 13 33.11 32.55 55.9 52.75l-58.05-61.46a8.48 8.48 0 0 0 2.15 8.71Zm-220.21-52.9a9.32 9.32 0 0 1 .92-12.14l-28.33-30q-4.32 2-8.55 4Zm201.8 200.55-164.78-174.47q-17.39-11.91-34.82-23.94a8.95 8.95 0 0 1-.68-.54l165.52 175.25q17.38 11.96 34.72 23.69ZM3388.65 1930l-12.89-.55 4.63 4.9 12-.45Zm-1190.48-683.24c3-1.18 6-2.35 9.06-3.52l-24.73-26.18q-4.23 1.73-8.92 3.67Zm-29.18 12.5q4.25-2 8.67-3.93l-24.57-26q-4.34 1.83-8.82 3.76ZM2501 1944.87l-12.62-.25 9.18 9.71 12.55.19Zm157.74-6.57-38.58-40.84-12.89-.55 38.75 41Zm-54.8-1.52 12.71.35-39.18-41.48-12.9-.54Zm-540.13-788.88q8.16 2 16.28 4.13l-5.88-6.23-15.95-3.78Zm-54.59-14.41 16.81 4.69-4.51-4.78-15.86-3.68Zm-55.44-15.31 16.72 4.6-1.38-1.46-15.77-3.59Zm608.11 817.43 12.71.35-39.78-42.12-12.9-.54Zm-395.12-548.53q19.24 14 38.72 27.9l-138.21-146.33q-4.26 2.17-8.29 4.32Zm292.5 557-10.37-.2c-.76 0-1.53-.07-2.29-.1l9.43 10 12.55.19Zm-86.89-35.5 18.9 6.92-27.23-28.84-12.89-.54Zm170.43 37.17-12.62-.25 9 9.49 12.56.19Zm-23-11.26 12.71.35-40.39-42.84-12.9-.55Zm-42.09-1.17h.39l12.32.35-41-43.4-12.89-.55Zm953.63-1.47-12.89-.54 1.52 1.61 12-.45Zm-1000-4.21q7.47 1.62 15 2.8l-39.64-42-12.89-.55Zm429.22-413.42 9.08-3.49-151.14-160-12.89-.54Zm60.07-23.19 9.06-3.51-132.85-140.66q-5 1.38-10.12 2.39Zm-90.12 34.77 9.08-3.5-163.77-173.39-12.89-.54Zm120.12-46.4 9-3.52-132.23-140-9.08 3.5Zm-150.19 58 9.08-3.49-176.37-186.74-12.89-.54Zm180.15-69.61 9-3.54-107.09-113.38-17.83-5.77Zm-475-69q-4.27-11-8.1-21.69l-35-37.06-12.89-.54Zm-214.09-183.29.65-.19a7.13 7.13 0 0 0 5.23-6.69l-7.5-7.94q-8.28-2.28-16.69-4.56Zm-31.82 9.71c3.15-1 6.34-2 9.55-3l-34.24-36.39q-8.16-2.14-16.42-4.28Zm-84.92-46.52q8.74 2.65 17.46 5.38l-11.39-12.06-16.22-4.07Zm-56.42-16.34q8.43 2.32 16.84 4.72l-7.89-8.35-16.07-3.91Zm622 398.15 9.09-3.48-201.56-213.41-12.89-.54Zm30.09-11.53 9.09-3.49-189-200.08-12.89-.54Z" transform="translate(-461.43 -857.49)" style="fill:url(#v)"/><path d="M1086 1405.41c-1 1-2 1.94-3 2.93q-9.56 9.47-18.41 19.48a9.16 9.16 0 0 1-10 2.49l-135.11-49.73a13.46 13.46 0 0 1-8.75-11.64l-.89-12.47a3.6 3.6 0 0 1 4.51-3.74l169.7 45.06a4.52 4.52 0 0 1 1.95 7.62Zm1205.86-343.86c1.42 27.34-28.06 51.09-65.84 53s-69.56-18.62-71-46 28.06-51.09 65.84-53.05 69.54 18.71 70.96 46.05Zm-7.62-2.13c-1.19-23-29.43-40.15-63.07-38.41s-60 21.77-58.77 44.73 29.43 40.15 63.08 38.41 59.91-21.77 58.72-44.73Zm-62.86-34.35c-30.36 1.51-54.1 18.83-53 38.69s26.55 34.73 56.91 33.22 54.09-18.83 53-38.69-26.6-34.73-56.95-33.22Zm2672.34 590.13-147.67-26.2a2.59 2.59 0 0 0-2.87 3.46q5.53 15 9.8 30.35a13.87 13.87 0 0 0 11.86 10.12l83.95 9.11a31.28 31.28 0 0 0 18.44-3.67l27.79-15.22a4.27 4.27 0 0 0-1.3-7.95Zm527.79 48-76.33-3.72a64.53 64.53 0 0 1-28.24-8l-245.4-136.12a30.72 30.72 0 0 0-14.9-3.86h-17a3.15 3.15 0 0 0-1.62 5.86l65.45 39a11.84 11.84 0 0 1 5.12 6.56c.88 2.68 3 6.3 7.84 9.3 18.36 11.29 19.77-1.41 32.94 6.12 10.58 6 105.16 62.13 142.06 84a12.21 12.21 0 0 1 1.71 19.77l-133.84 114.5c-18.86 16.14-1.46 19.16 8 19.69a12.59 12.59 0 0 0 8.76-2.93l147.15-123.59a18.08 18.08 0 0 1 11.62-4.23h86.43a5.48 5.48 0 0 0 5.48-5.48v-11.42a5.48 5.48 0 0 0-5.23-5.47Z" transform="translate(-461.43 -857.49)" style="fill:url(#w)"/></svg>