<svg data-name="—ÎÓÈ_1" xmlns="http://www.w3.org/2000/svg" xmlns:xlink="http://www.w3.org/1999/xlink" viewBox="0 0 3697.49 1210"><defs><linearGradient id="h" x1="2526.2" y1="1466.51" x2="2542.31" y2="543.17" gradientUnits="userSpaceOnUse"><stop offset="0" stop-color="#3a0200"/><stop offset=".99" stop-color="#e30613"/></linearGradient><linearGradient id="i" x1="2530.64" y1="1473.4" x2="2530.64" y2="708.24" gradientUnits="userSpaceOnUse"><stop offset="0" stop-color="#ff654f"/><stop offset=".15" stop-color="#ff6853"/><stop offset=".3" stop-color="#ff735f"/><stop offset=".45" stop-color="#ff8573"/><stop offset=".6" stop-color="#ff9d8f"/><stop offset=".76" stop-color="#ffbdb3"/><stop offset=".91" stop-color="#ffe3df"/><stop offset="1" stop-color="#fff"/></linearGradient><linearGradient id="j" x1="2190.66" y1="927.92" x2="2190.66" y2="587.62" gradientUnits="userSpaceOnUse"><stop offset="0"/><stop offset="1" stop-color="#282828"/></linearGradient><linearGradient id="a" x1="2174.34" y1="870.99" x2="2174.34" y2="587.62" gradientUnits="userSpaceOnUse"><stop offset="0" stop-color="#fff"/><stop offset="1" stop-color="#282828"/></linearGradient><linearGradient id="k" x1="2921.67" y1="897.71" x2="2921.67" y2="545" gradientUnits="userSpaceOnUse"><stop offset="0" stop-color="#c8c8c8"/><stop offset="1" stop-color="#fff"/></linearGradient><linearGradient id="b" x1="2667.93" y1="1287.4" x2="2738.97" y2="611.59" gradientUnits="userSpaceOnUse"><stop offset="0" stop-color="#aaabaa"/><stop offset="1" stop-color="#dedede"/></linearGradient><linearGradient id="d" x1="2511.89" y1="1604.98" x2="2511.89" y2="587.38" gradientUnits="userSpaceOnUse"><stop offset="0" stop-color="#141414"/><stop offset=".24" stop-color="#181818"/><stop offset=".46" stop-color="#222"/><stop offset=".67" stop-color="#353535"/><stop offset=".87" stop-color="#4e4e4e"/><stop offset="1" stop-color="#646464"/></linearGradient><linearGradient id="l" x1="871.07" y1="1034.45" x2="871.07" y2="926.93" gradientUnits="userSpaceOnUse"><stop offset="0" stop-color="#631d00"/><stop offset=".99" stop-color="#32000c"/></linearGradient><linearGradient id="m" x1="2496.25" y1="1094.79" x2="2500.11" y2="984.27" gradientUnits="userSpaceOnUse"><stop offset="0" stop-color="#787878"/><stop offset="1" stop-color="#464646"/></linearGradient><linearGradient id="n" x1="2496.64" y1="1083.62" x2="2500.11" y2="984.24" xlink:href="#a"/><linearGradient id="o" x1="3701.42" y1="1675.07" x2="3701.42" y2="1247.07" xlink:href="#b"/><linearGradient id="c" x1="3699" y1="1260.82" x2="3699" y2="1661.31" gradientUnits="userSpaceOnUse"><stop offset="0" stop-color="#3c3c3c"/><stop offset=".18" stop-color="#404040"/><stop offset=".33" stop-color="#4a4a4a"/><stop offset=".49" stop-color="#5d5d5d"/><stop offset=".63" stop-color="#777"/><stop offset=".78" stop-color="#989898"/><stop offset=".92" stop-color="silver"/><stop offset="1" stop-color="#dcdcdc"/></linearGradient><linearGradient id="p" x1="3696.33" y1="1277.02" x2="3696.33" y2="1645.12" xlink:href="#c"/><linearGradient id="e" x1="3696.33" y1="1642.33" x2="3696.33" y2="1279.8" gradientUnits="userSpaceOnUse"><stop offset="0" stop-color="#3c3c3c"/><stop offset="1" stop-color="#dedede"/></linearGradient><linearGradient id="f" x1="3697.24" y1="1361.18" x2="3697.24" y2="1577.32" gradientTransform="rotate(9.56 3743.837 1459.393)" gradientUnits="userSpaceOnUse"><stop offset="0" stop-color="#1d1d1b"/><stop offset=".2" stop-color="#20201f"/><stop offset=".38" stop-color="#2b2b29"/><stop offset=".55" stop-color="#3d3d3c"/><stop offset=".71" stop-color="#575756"/><stop offset=".87" stop-color="#777776"/><stop offset="1" stop-color="#969696"/></linearGradient><linearGradient id="q" x1="3700.98" y1="1491.45" x2="3693.51" y2="1447.06" gradientTransform="rotate(11.67 3736.41 1461.005)" xlink:href="#c"/><linearGradient id="r" x1="3677.92" y1="1490.76" x2="3677.92" y2="1502.76" gradientTransform="rotate(9.56 3743.837 1459.393)" xlink:href="#d"/><linearGradient id="s" x1="3678.09" y1="1491.26" x2="3678.09" y2="1497.72" gradientTransform="rotate(9.56 3743.837 1459.393)" xlink:href="#b"/><linearGradient id="t" x1="3717.94" y1="1490.64" x2="3717.94" y2="1502.64" gradientTransform="rotate(45 3721.156 1487.213)" xlink:href="#d"/><linearGradient id="u" x1="3718.1" y1="1491.14" x2="3718.1" y2="1497.6" gradientTransform="rotate(9.56 3743.837 1459.393)" xlink:href="#b"/><linearGradient id="v" x1="3730.24" y1="1451.97" x2="3730.24" y2="1463.97" gradientTransform="rotate(9.56 3743.837 1459.393)" xlink:href="#d"/><linearGradient id="w" x1="3730.4" y1="1452.47" x2="3730.4" y2="1458.94" gradientTransform="rotate(9.56 3743.837 1459.393)" xlink:href="#b"/><linearGradient id="x" x1="3664.91" y1="1453.1" x2="3664.91" y2="1465.1" gradientTransform="rotate(9.56 3743.837 1459.393)" xlink:href="#d"/><linearGradient id="y" x1="3665.08" y1="1453.6" x2="3665.08" y2="1460.06" gradientTransform="rotate(9.56 3743.837 1459.393)" xlink:href="#b"/><linearGradient id="z" x1="3697.24" y1="1428.91" x2="3697.24" y2="1440.91" gradientTransform="rotate(9.56 3743.837 1459.393)" xlink:href="#d"/><linearGradient id="A" x1="3697.41" y1="1429.41" x2="3697.41" y2="1435.88" gradientTransform="rotate(9.56 3743.837 1459.393)" xlink:href="#b"/><linearGradient id="g" x1="3697.53" y1="1733.3" x2="3697.53" y2="1214.05" gradientUnits="userSpaceOnUse"><stop offset="0" stop-color="#141414"/><stop offset=".62" stop-color="#181818"/><stop offset="1" stop-color="#1e1e1e"/></linearGradient><linearGradient id="B" x1="1371.42" y1="1675.07" x2="1371.42" y2="1247.07" xlink:href="#b"/><linearGradient id="C" x1="1376.62" y1="1260.82" x2="1376.62" y2="1661.31" xlink:href="#c"/><linearGradient id="D" x1="1382.12" y1="1272.86" x2="1382.12" y2="1649.27" xlink:href="#c"/><linearGradient id="E" x1="1382.12" y1="1644.67" x2="1382.12" y2="1277.46" xlink:href="#e"/><linearGradient id="F" x1="1426.73" y1="1724.57" x2="1400.78" y2="1940.65" gradientTransform="rotate(-6.85 -1706.362 1912.038)" xlink:href="#f"/><linearGradient id="G" x1="1411.07" y1="1854.95" x2="1416.44" y2="1810.27" gradientTransform="rotate(47.97 1815.635 1611.453)" xlink:href="#c"/><linearGradient id="H" x1="1394.43" y1="1854.11" x2="1394.43" y2="1866.11" gradientTransform="rotate(-6.85 -1706.362 1912.038)" xlink:href="#d"/><linearGradient id="I" x1="1394.6" y1="1854.61" x2="1394.6" y2="1861.08" gradientTransform="rotate(-6.85 -1706.362 1912.038)" xlink:href="#b"/><linearGradient id="J" x1="1434.44" y1="1853.99" x2="1434.44" y2="1865.99" gradientTransform="rotate(-6.85 -1706.362 1912.038)" xlink:href="#d"/><linearGradient id="K" x1="1434.61" y1="1854.49" x2="1434.61" y2="1860.96" gradientTransform="rotate(-6.85 -1706.362 1912.038)" xlink:href="#b"/><linearGradient id="L" x1="1446.74" y1="1815.33" x2="1446.74" y2="1827.33" gradientTransform="rotate(-6.85 -1706.362 1912.038)" xlink:href="#d"/><linearGradient id="M" x1="1446.91" y1="1815.83" x2="1446.91" y2="1822.29" gradientTransform="rotate(-6.85 -1706.362 1912.038)" xlink:href="#b"/><linearGradient id="N" x1="1381.42" y1="1816.45" x2="1381.42" y2="1828.45" gradientTransform="rotate(-6.85 -1706.362 1912.038)" xlink:href="#d"/><linearGradient id="O" x1="1381.59" y1="1816.95" x2="1381.59" y2="1823.42" gradientTransform="rotate(-6.85 -1706.362 1912.038)" xlink:href="#b"/><linearGradient id="P" x1="1413.75" y1="1792.27" x2="1413.75" y2="1804.27" gradientTransform="rotate(-6.85 -1706.362 1912.038)" xlink:href="#d"/><linearGradient id="Q" x1="1413.92" y1="1792.77" x2="1413.92" y2="1799.23" gradientTransform="rotate(-6.85 -1706.362 1912.038)" xlink:href="#b"/><linearGradient id="R" x1="1103.06" y1="1473.93" x2="1647.53" y2="1473.93" xlink:href="#g"/></defs><path d="M3672.65 783.87s38.1-152.06 2.92-178.24c-248.86-185.22-712.32-230.68-813.3-245.94-20.1 2.39-40.57 4.71-61.75 5.1a39.17 39.17 0 0 1-17-3.6c-18.75-8.57-36.83-17.57-53.35-26.33C2437.45 179.55 2112.61 11.97 1567.82 2.23 1037.96-18.22 503.23 103.55 80.19 298.98c-18.56 8.57-45.94 8.6-56.17 8.6s-11.75 11.16-5.36 15.59a73.34 73.34 0 0 0 8.35 5 20 20 0 0 1 10.93 17.93q0 9.25-.18 18.48c-.08 5.11-2.37 12.52-7.73 15.3 1.84-.09 1.76 6 0 6.11-.67 25.08-3.09 51 4 73.66-4.12 65.79-10.86 124.33-17.31 164-4.15 25.5-13.11 42.28-13.64 49.67C1.21 699.32 0 780.79 0 780.79c15.26 11.61 7.27 34.66 7.27 34.66A21.46 21.46 0 0 0 6 823.81c0 22.4 16.36 80.89 58.93 104.7 7.14 4.87 5.39 5.42 14.12 12.18 101.3 78.41 196.75 94 288.8 104.22 29.61 3.29 55.09 5.52 76 7 46.8 93.7 143.6 158.06 255.46 158.06a284.37 284.37 0 0 0 115.64-24.42 285.06 285.06 0 0 0 228.72-122.3l1611.63-.32c16.15 0 23.45-7.88 27.82-23.62 42 75.13 117 129.33 205.35 143a284.19 284.19 0 0 0 122.8 27.71c114.34 0 213-67.25 258.5-164.35l69.21-2.64a64.66 64.66 0 0 0-1.91 14.07c0 14.12 10.72 13.64 20 6.82s45.29-32.14 79.38-41.4 72.56-11.32 125.16-12.66 96.91-61.36 96.91-61.36a43.46 43.46 0 0 0 5.9-12.51l7.52-5.25 3.14-4.16s22.4-78.89 22.4-95.94-24.83-46.77-24.83-46.77ZM828.23 269.76c-3.9-9.09-16.89-9.09-14.94-20.13s-18.83-30.08-18.83-30.08 47.47-13.91 99.14-26.56l-5.23 67c-21.7 6.47-57.44 16.07-60.14 9.77Zm101.94-61.21c-7.79 0-25.32 46.32-25.32 46.32s-5.1 1.69-12.66 4l5.9-66.94c14.45-3.5 29.14-6.86 43.12-9.77-3.25 9.03-3.25 26.39-11.04 26.39Zm584.12 142.91c-80.28-4.05-160.31-8.32-238.81-12.78l-44.67-40.3a104.47 104.47 0 0 0-41.55-22.73s-9.09-33.76-34.86-61.68-95.66-20.13-98.26-29-37.17-18.24-37.17-18.24 206.15-33.18 471.4-35.41l29.83 213.64a5.66 5.66 0 0 1-5.91 6.45Zm194-200c-18.5 8.09-36.28 20.09-45.92 37.69l-.29.57-16.71-55.95q19.59.81 39.37 1.9 26 1.44 51.26 3.68a171.47 171.47 0 0 0-27.73 12.1Zm579.34 199c-17.74 7.44-18.23 22.94-29.6 32.66q-47.08-1.65-96.52-3.48c2.15-4 3.76-8.44 3.4-12.62-1-11.2-11.69-35.55-11.69-35.55a101.47 101.47 0 0 0 14.61-19c7.3-12-2.09-17.5-15.59-7.79-28.72 20.67-64.26 54.27-81.94 71.49-78.56-3.06-160.27-6.42-243.6-10.07 3.22-6.93-2.89-34.71.15-37.45 5.25-4.73 1.63-11.06 1.63-11.06s22.64-10.17 27.39-17.26-4.67-24.78-1.58-29-2.47-8.92-2.47-8.92l2.69-3.71-4.97-11.15 6.88-3a6.08 6.08 0 0 0 2.68-8.83l-18.07-28.37s-4.39-3.95-.27-10.62c1.47-2.39-2.35-7.46-6.81-12.15 5.94-9.8 4.15-15.85-.87-19.56-2.07-4.82-6.35-7.91-11.29-9.87-1.37-2.46-3.76-4.64-9.37-6.43-.17-.3-.37-.58-.56-.87 282.44 38.37 470.88 139.29 470.88 139.29l4.87 13.31s-30.68-3.25-36 0-6.81 10.55 11.2 16.4 50.61 22.77 24.8 33.59Zm-459.78-171.81a28.66 28.66 0 0 0 1.88-9.37c1.74 3.13 2.37 7.18 1.32 12.37-1.11-1.1-2.2-2.1-3.2-3Zm4.21 4a34.41 34.41 0 0 0 2.15-8.35c.94 2.53.8 5.7-.85 9.66-.43-.41-.86-.88-1.3-1.31Z"/><path d="M731 903.13c4.7.79 3.3 4.27 2.89 9a4.2 4.2 0 0 1-4.22 3.85c-6.26 0-15.51 0-20 .25 5.36-2.78 7.65-10.19 7.73-15.3 2.34.37 10.01 1.6 13.6 2.2Zm13.68 2.87c-2.25-.51-5.08 7.9-5.31 10.31 35 1.61 66.65 10.17 85.2 16.24A442.7 442.7 0 0 0 744.68 906Zm347.4 294.35-20.58-14.91s-124.49-6.28-187-9-129.47-8.77-122.41-62.12c4.6-34.76 8.17-56.89 10.1-68.09a4.66 4.66 0 0 0-4.6-5.45h-33.18a7.41 7.41 0 0 0-7.38 6.73c-.33 3.46-.66 6.91-1 10.32-7.46 79.28-25.56 132.46-29.22 140.26-2.28 4.88-8.44 5.69-12.73 5.61a29.59 29.59 0 0 0-1.39 6.07c-1.87 26-3.08 107.47-3.08 107.47 17.89 10.49 31.39 22 36.06 35.76l5 3.25c28 18.12 131.67 34.73 277.19 44.42a5.93 5.93 0 0 0 6.22-4.61 419.34 419.34 0 0 1 49.15-123 403.18 403.18 0 0 1 40.71-56.38 11.16 11.16 0 0 0-1.86-16.35Zm336-558.47c198.7-45.48 463.82-82.42 783.17-82.42q11.57 0 23.12.13a2.25 2.25 0 0 0 2.21-2.79 42.67 42.67 0 0 1-1.29-15.42 2.85 2.85 0 0 0-2.72-3.21c-270.83-9.1-542.64 18.8-799.88 74.51a10.13 10.13 0 0 0-7.88 8.47l-2.24 15.66a4.54 4.54 0 0 0 5.49 5.05ZM698.29 859.62c-2.95-3.48-2.67-11.8 8-7 5.28 2.39 13 5.6 22.28 10.25.26-3.06 2.13-7.71 9.7-12.28 9.24-5.58 62-31.79 91.15-46.2q-35.25 15.18-69.56 31c-18.56 8.57-45.94 8.6-56.17 8.6s-11.79 11.2-5.4 15.63Zm-3.82 327c10.4-27.84 19.38-70.22 25.74-129.14.83-7.65 1.71-16.28 2.63-25.5-1.54-9.26-4.56-23.69-9.41-32.43-4.13 64.36-10.74 121.53-17.08 160.53l-2.94 14.08c-2.27 9-4.9 16.59-7 22.6 2.59-1.39 5.88-4.27 8.06-10.12Zm3378.71-125.87c-37.59-14.84-183.27-64.76-487.44-86.06-13.61-1-40.43-10.39-57.15-23.86-11.84-9.54-38.9-31.3-53.68-43.18a31.25 31.25 0 0 0-17.82-6.84c-32.59-1.86-67.07-9.59-104.63-29.52-292.69-155.36-575.15-312.17-1105-332.63l-6.42-.23c-1.23 2.88-2.75 8.82 0 17.44a5.61 5.61 0 0 0 5.28 3.84c118.6 1.91 235 13.46 346.45 34.42a1888.5 1888.5 0 0 1 321.42 90.37c167.31 63.62 323.94 150.29 478.83 265l14 10.37-17.42-.41c-43-1-90.67-2.34-142.33-3.93a3.93 3.93 0 0 0-3.54 5.88c8.92 15.74 18.12 42.67 25.55 77.68a9 9 0 0 0 8.71 7.1c17.15.06 29.67.13 30.76.13h118.35a12.37 12.37 0 0 1 11.5 7.46 11.88 11.88 0 0 1-2.38 12.86l-23.22 24.64a25.08 25.08 0 0 1-29.28 5.37l-77.81-37.74c-1.6-.77-4.08-2.94-27.38-5.66a4.85 4.85 0 0 0-5.33 5.66c8 45 12.93 100.54 11.38 161.58-3.26 128.19-6.6 225.31-7.61 253.77a5.21 5.21 0 0 0 5.09 5.39l8.57.21a3.18 3.18 0 0 0 2.34-3v-12.22a372.27 372.27 0 0 1 30.72-148.7 380.24 380.24 0 0 1 83.73-121.39 389.84 389.84 0 0 1 124.13-81.81 400.41 400.41 0 0 1 279.21-9.26c13.21-10.93 32.22-26.45 49-39.43 19.06-14.8 122.07-13.05 213.42-3.28ZM3026.49 825.62c-16.39-.46-24.76 15.65-24.76 41v38.52h.11c47.63 2.51 159.61 8.41 170.71 9.08 8.57.52 14.07 2.69 17.21 4.43-.44-.77-.91-1.55-1.42-2.31-19.8-29.5-37.66-87.24-161.85-90.72Zm1350.62 541.45c0 17-22.4 95.94-22.4 95.94l-3.14 4.16-16.85 11.76c-1.87.86-20.46 8.35-97.37 8.35-61.74 0-126.6-1.26-159.76-2a3.7 3.7 0 0 1-3.59-3.71v-17a372.27 372.27 0 0 0-30.72-148.7 380.37 380.37 0 0 0-83.72-121.39 390 390 0 0 0-124.13-81.81q-8-3.3-16.1-6.24l44.44-36.93c7.59-6.31 29-9.65 57.62-10.73a35.9 35.9 0 0 1 24 8c27.51 22.29 90.94 71.88 121.51 81 39.69 11.85 166.8 25.73 190.91 27.92s41.15-19.34 47.24-26.78c3.52-4.31 2.23-10.24.52-14.47 30.67 17.19 51.17 35.37 45.26 51-12.2 32.26-43.83 72.08-43.83 72.08s39.93-46.27 53.08-73.54-85.71-77.43-164-101.78c-15.71-4.89-37.49-9.47-62.5-13.47a157.83 157.83 0 0 1-31.11-8.3c-53.66-20.35-204.43-66.48-516.12-90.57-18.05-1.39-31.49-6.49-51.94-21.43-16.92-12.35-46.28-38.48-55.92-47.14 21.76-.29 42.76-2.68 63.38-5.13 101 15.26 564.44 60.72 813.3 245.94 29.34 21.84 7.71 131.21-.28 166.93a4.63 4.63 0 0 1-7.22 2.77c-17.88-12.86-42.53-22.7-56.76-27.76a5.44 5.44 0 0 1-1.19-9.66c4.48-3 9.52-6.88 13.07-11.34-13.08 11.34-41.12 17.21-41.12 17.21s67.44 18.66 93.85 44.2c6.76 8.72 21.59 29.45 21.59 42.62Zm-18 42.86s12.66-39.45-6.34-57.47-96.91-49.72-151-49.67c-18.4 0-35.24 8.2-31.16 22.89s29.39 110.71 33.13 119.32 13.15 13.14 22.89 13.14h32.54c18.18 0 43.93-24.77 45.38-42.12l.47-5.65c-13.49-.67-50.9-2.71-50.9-2.71a7.84 7.84 0 0 1-6.17-7.06l-2.19-29.16a5.32 5.32 0 0 1 5.3-5.71h.26l56.8 3.78a8.21 8.21 0 0 0-7.3-6.6l-56-5.11c19.68 1.79 39.16 1.93 44.51-3.86a35.87 35.87 0 0 1 42.78-7.73c7 3.64 12.37 7 15.34 9.65 15.78 14.3 11.65 54.07 11.65 54.07Zm-1093.55-352.56a7.54 7.54 0 0 0-6.75-6.08c-18.64-1.6-44.92-3.31-82.16-5 15.72-.31 52.32-.28 83-.19a2.83 2.83 0 0 0 2.77-3.46c-7.81-34.27-18.12-60.16-29.84-80.61a14.78 14.78 0 0 0-12.36-7.39l-11.8-.38c-.93 3.7-4.31 10.92-16.55 18.17-17.53 10.39-126 62.34-151 71.75s-46.1 13-61.36 4.87-15.91-39.91 0-58.76c8.78-10.41 31.91-28.32 50.88-42.29-210.24-7.91-456.15-18.81-705-31.66a14.84 14.84 0 0 0-15.59 15.72l1.91 31.62 122.25 6a53.78 53.78 0 0 1 26.28 8.39l26.12 16.72a6.47 6.47 0 0 1 2.85 7.15 6.24 6.24 0 0 1-6 4.58h-.21l-169-6.59 1.63 27.05s39.61 197.4 45.46 326.62c1.64 36.38.64 63.64.64 63.64l6.13 30.3a13.3 13.3 0 0 0 12.71 10.65l193.43 4.71 688.69 16.3a6.91 6.91 0 0 0 7.05-6.52c1.27-23.09 4.37-88.24 7.68-222 2.11-83.5-2.65-145.79-11.86-193.31Zm-1869.88-3.93s-14.61-94-31.65-156.81c0-5.13 1.68-15 3.67-24.87a14.87 14.87 0 0 0-13.32-17.76l-12.38-1.07c-121.48-10.32-204-27.93-266.37-87.22l-5.69-5.41 7-3.52c63.75-32 176.59-73.72 332.24-110.54a7.48 7.48 0 0 0 5.66-6.07l3.23-20a3.05 3.05 0 0 0-3.68-3.47c-196.72 43.73-384.65 103.69-556.79 175.76-3.82 1.9-93.46 46.51-110.14 57.71-17 11.45-9 17.9-9 17.9 65.65 34.26 189.55 108.67 222.76 127 40.17 22.16.24 45.78-40.43 45.78H788.64a10.9 10.9 0 0 0-10.69 8.73 659.21 659.21 0 0 0-9.77 65.54c-4.38 44.81 52.6 50.65 106.9 54.73 5 .38 201 9.15 201 9.15l24.18 17.16a10.9 10.9 0 0 0 14-1.2q11.19-11.15 23.26-21.35c70.24-59.43 157.41-90.84 252.09-90.84h.08a7.55 7.55 0 0 0 7.53-8.09Zm957.61 363.8s1.39-31.85 0-61.69c-6.75-145.23-48.7-328.57-48.7-328.57l-1.51-27.48-120.25-4.68a53.48 53.48 0 0 1-35.83-15.67L2133.81 966a6.3 6.3 0 0 1 4.77-10.75l162.51 8-1.92-34.91a14.86 14.86 0 0 0-14.05-14c-318.94-16.72-639.73-36.52-893.49-57.19a14.86 14.86 0 0 0-15.76 11.85c-2 10-3.85 21-4 29.14 21.91 73.54 33.6 155.35 33.6 155.35l1.67 20.26a10.93 10.93 0 0 0 10.16 10 384.58 384.58 0 0 1 326.69 232.26 376.49 376.49 0 0 1 29.67 128s5.48-.4 6.72-.37l571 13.89a7.79 7.79 0 0 0 7.85-9.25Z" transform="translate(-679.63 -536.45)" style="fill:url(#h)"/><path d="M3137.09 902.5c-39.28-1-94.2 8.58-103.33-15.66s-32 3.78-32-20.24c0-25.33 8.37-41.44 24.76-41 124.19 3.48 142.05 61.22 161.85 90.71-4.78-4.81-11.99-12.84-51.28-13.81Zm-1773-5.63c-188.61-11.48-421.64 1.48-480.25 4.12 120.78 7.65 100.33 31.54 65.26 48s38 30.42 139.28 29.61 68.27-3.37 169.48.81c152.51 6.29 52.6 61.32 11.69 88.11 49.28-9.1 90.35-12.72 126.26-12.37l-.13-1.76s-14.57-93.69-31.59-156.52ZM928 1215.29c-48-18.51-181.92 15.36-188.63-18.51s3.24-97.56 5.19-116.55-14.07-34.7-15.72-3.25c-3.76 71.43-19.26 122.08-26.81 129.87s-15.09 17-7.56 21c27.54 14.54 99.6 24.44 197.81 32.89s83.77-26.94 35.72-45.45ZM815.2 882.83l475.13-10.39s-231.17-17-508.36-16.88c-37.76.01-4.13 28.09 33.23 27.27Zm934.53 363a206.24 206.24 0 0 0-11.41-18c7.17 11.1 11.41 17.98 11.41 17.98ZM3257.16 1022c-6.3-22-13.75-40.11-22-55.3q-18-.72-33.8-1.32a51 51 0 0 1-9.48 7.08c-10.49 6.22-53.54 27.32-91.78 45.28 35.43.22 71.71.88 107.69 2.12 17.83.6 34.21 1.32 49.37 2.14Zm149.91-62.13c53.29 2 94 .1 132.58-1.44a93.74 93.74 0 0 1-11.06-7.56c-10.44-8.41-32.7-26.31-48-38.57-19.57-2.91-35.64-5.55-79-14.57-47.41-9.87-256.87-121.1-428.09-189.47 145.25 61 283.05 140.22 419.5 241.24ZM3549 958c17.38-.66 34.52-1.18 52.37-1.18 60.39 0-55.25-34.65-93.51-40.53-5.51-.85-10.37-1.57-14.85-2.24 12.88 11.3 30 26 41.48 34.32A170 170 0 0 0 3549 958Zm746.51 498.81c-12-4.95 22.73-16.48 17.21-81.82a105 105 0 0 1-7.66 35.47l-.46 5.52c-1.45 17.35-27.2 42.12-45.38 42.12h-32.54c-9.74 0-19.15-4.54-22.89-13.14-1.3-3-5.25-16.72-10-33.9 1.07 40.89-35.61 40.88-47.3 47s-23 15.26-4.22 15.26H4307c32.63 0 49.83-47.07 49.83-47.07s-29.83 43.58-61.37 30.6Zm-182.3-281.17c61.36 7.31 101.78-4.25 153.46 7.79 49.53 11.55 49.26-42.85 84.73-7.54-3.09-13.25-21.15-27.69-45.79-41.5 1.71 4.23 3 10.16-.52 14.47-6.09 7.44-23.13 29-47.24 26.78s-151.22-16.07-190.91-27.92c-30.57-9.13-94-58.72-121.51-81a35.9 35.9 0 0 0-24-8c-28.67 1.08-50 4.42-57.62 10.73l-23.81 19.9c76.65 24.22 131 69.73 155.09 92.91a54.11 54.11 0 0 0 35.83 15.06l145.58 4.68s-103.32-20-63.34-26.32Zm242-33.6c-248.86-185.22-712.32-230.68-813.3-245.94-20.62 2.45-41.62 4.84-63.38 5.13 0 0 29.85 2.65 70.2 8.18 379.1 51.95 533.05 119.63 596.74 142.86-217.65-64.89-369.47-81.78-424.67-85.67s-75.15-.94-44.16 2.59c167.79 19.12 257.55 41.6 299.71 54.93 62.9 14.31 103.32 27.63 126.15 36.29a157.83 157.83 0 0 0 31.11 8.3c25 4 46.79 8.58 62.5 13.47 73.79 23 165.89 68.87 165.12 96.9 4.08 1.71 8.7 7.78 8.7 7.78-.87-20.64-4.99-37.53-14.73-44.78Zm-282-81.31c-17.24-6.8-57.24-21-124.85-36.42-70.24-12.34-197.41-31.41-352.85-40.22-149.28-8.46-265.07-13.63-348.68-17 6.47 13.17 13 32 18.72 55.3 156.29 8.88 169.57 26.62 169.57 26.62a11.73 11.73 0 0 1 3.56 4.7 11.88 11.88 0 0 1-2.38 12.86l-23.3 24.71a25.08 25.08 0 0 1-29.28 5.37l-77.81-37.74c-1.6-.77-4.08-2.94-27.38-5.66a4.85 4.85 0 0 0-5.33 5.66c.92 5.17 1.79 10.5 2.63 15.95 29.55 1.44 47.06 2.29 49.58 2.4 24.77 1.15 72 28.62 64.88 38.68s-4.87 20.13-24.67 46.76-13 51.29-13 51.29 45.78-69.15 125.9-105.19c-22.86 23.28-10.12 19.15-14.33 39.74a394.7 394.7 0 0 1 219.31-65.84 402.1 402.1 0 0 1 59.06 4.34c6.12-7.11 11.62-17.64 64.76-6.32 8.17 1.74 16.12 3.75 23.86 6 9.3-7.54 19.28-15.51 28.58-22.7 19.06-14.77 122.07-13.02 213.42-3.25Zm-1151.54 348.71C2598.24 1387 2474 1368.15 2361.19 1356c1.18 27.84.84 50 .64 58 294.39 12.22 644.6 26.18 723.84 26.18 133.84-.05 26.61-17.49-164-30.74Zm337.14-358.15c-18.64-1.6-44.92-3.31-82.16-5h2.43l-127.35-6.5c-4.42 1.9-8.09 3.42-10.79 4.43-25 9.42-46.1 13-61.36 4.87-4.79-2.54-8.13-7.42-10-13.49l-193.75-9.88s81.27-4.84 192.27-7a51.82 51.82 0 0 1 11.46-28.37c8.78-10.41 31.91-28.32 50.88-42.29-210.24-7.91-456.15-18.81-705-31.66a14.84 14.84 0 0 0-15.59 15.72l1.91 31.62 122.25 6a53.78 53.78 0 0 1 26.28 8.39l26.12 16.72a6.47 6.47 0 0 1 2.85 7.15 6.24 6.24 0 0 1-6 4.58h-.26l-169-6.59 1.63 27.05s.14.67.39 1.94c369.16 17.29 799.92 38.18 952.56 45.59q-1.42-8.88-3-17.14a7.54 7.54 0 0 0-6.77-6.14Zm-905.54 303.82c-60.38-6.38-118.74-10.83-204.19-12.87-104.45-2.5-155.36 20.45-222.56 23.37s-92 26.66 13.15 30.69c42.3 1.61 214.42 9 413.76 17.31.31-9.16 1-34.24-.14-58.06 0-.15-.01-.3-.02-.44Zm-732.43-275.85c-51.95-41.89 0-77 100.65-76.16 39.47.31 290.89 11.61 583.42 25.3l-.32-1.42-1.51-27.48-120.25-4.68a53.48 53.48 0 0 1-35.83-15.67L2133.81 966a6.3 6.3 0 0 1 4.77-10.75l162.51 8-1.92-34.91a14.86 14.86 0 0 0-14.05-14c-282.42-14.8-566.27-32-803.76-50.13 139.48 14.17-23 24.54 68.7 34.09 99.35 10.35 250.32 41.76 250.32 41.76s-187-20.72-382.25-39c-15-1.4-30.47-2.6-46.28-3.63v.73c21.91 73.54 33.6 155.35 33.6 155.35l.16 2c51.69 1.57 92.7 11.48 132.79 24.84 112.8 37.6 175.92 113.12 200 147.63-23.4-36.17-77.81-116.68-117.56-148.72Z" transform="translate(-679.63 -536.45)" style="opacity:.32;fill:url(#i)"/><path d="M1408.78 676.83 1377.4 835.1c-85.49-8.11-148.78-19.42-196.68-51.61a76.39 76.39 0 0 1 0-31.52c52.17-23.26 129.05-50.04 228.06-75.14Zm1748.36 172.42a48.94 48.94 0 0 0-17.67-17.85 1703.896 1703.896 0 0 0-134.12-70.72 2.54 2.54 0 0 0-3.44 3.24l24.58 61.7c124.19 3.48 142.05 61.22 161.85 90.71a30 30 0 0 1 4.72 11.33l9.21.26Zm-997.67-256.72a5.69 5.69 0 0 0-5.7-4.91c-220.13 2.39-411.34 23.17-568.17 51.28L1567 850.27c189.59 13.82 407.37 26.51 627 37.59a5.66 5.66 0 0 0 5.89-6.45Zm847.91 245-29.53-82a22.3 22.3 0 0 0-12-12.84c-181.19-79.95-402.64-140.37-667.51-152.87a2.74 2.74 0 0 0-2.77 3.46L2377 892.43a6.17 6.17 0 0 0 5.67 4.54c222 10.27 438 18.71 620.3 24.82a56.88 56.88 0 0 1-1.22-13V866.6c-.02-12.05 1.88-22.01 5.63-29.09ZM1414.48 675.4l-32 160.17c7 .65 14 1.27 21.29 1.89 50.39 4.28 104 8.48 160 12.57l16.4-210.16c-60.49 10.97-115.84 23.03-165.69 35.53Z" transform="translate(-679.63 -536.45)" style="opacity:.7000000000000001;fill:url(#j)"/><path d="m1408.78 676.83-29.33 147.95q-22.47 2.93-43.75 5.81c-64.85-8.06-115.23-20.38-155-47.1a76.39 76.39 0 0 1 0-31.52c52.19-23.26 129.07-50.04 228.08-75.14Zm5.7-1.43-29.68 148.68a8410.2 8410.2 0 0 1 182.73-21.64l12.69-162.57c-60.54 10.97-115.89 23.03-165.74 35.53Zm1612 150.22c72.5 2 108.76 22.56 130.32 45.16 4.31.1 8.59.17 12.8.21l-12.47-21.74a48.94 48.94 0 0 0-17.67-17.85 1703.896 1703.896 0 0 0-134.12-70.72 2.54 2.54 0 0 0-3.44 3.24Zm-872.72-238c-220.13 2.39-411.34 23.17-568.17 51.28l-14.38 163.15c129.71-13.85 274.79-26.18 424.94-33.21 69-3.23 130.83-5.54 187-6.92l-23.66-169.39a5.69 5.69 0 0 0-5.72-4.91Zm853.61 249.89-29.53-82a22.3 22.3 0 0 0-12-12.84c-181.19-79.95-402.64-140.37-667.51-152.87a2.74 2.74 0 0 0-2.77 3.46l45.53 167.34c242 2.73 369.89 30.77 603.74 83.13q29.65 6.64 57.53 11.45c.86-7.02 2.53-12.98 5.02-17.67Z" transform="translate(-679.63 -536.45)" style="opacity:.7000000000000001;fill:url(#a)"/><path d="M2595 573.23a1940.14 1940.14 0 0 1 281.66 74C3047.44 706.1 3192 782.9 3331.73 857.17l22 11.7c35 18.59 67.55 26.42 98 28.83a2.51 2.51 0 0 0 1.27-4.76c-15.13-7.12-29.7-14.46-43.23-21.63-266.43-141.42-559.5-292.92-1020.86-326.31 71.23 6.51 139.44 15.87 206.09 28.23Z" transform="translate(-679.63 -536.45)" style="fill:url(#k)"/><path d="M2292.5 912.16c-327.64-17.11-658.77-37.59-919.5-59.16l2.12-10.59a4 4 0 0 1 4.28-3.21l13.55 1.18c247.43 21 572.88 40.82 895.46 57.16a6 6 0 0 1 5.63 5l1.09 6.71a2.48 2.48 0 0 1-2.63 2.91Zm6.58 53-160.63-7.86a3.54 3.54 0 0 0-2.68 6l13.23 13.24a50.86 50.86 0 0 0 34 14.86l117.47 4.6c-1.33-6.17-3.38-21.37-1.39-30.83Zm186.08 31.4-26.31-16.83a50.81 50.81 0 0 0-24.93-8l-127.56-6.25c-1.92 8-.27 23.88 2.38 30.77l174.37 6.8a3.55 3.55 0 0 0 2.05-6.48Zm-289.33-417.7q21.21 0 42.31.42a2.58 2.58 0 0 0 2.6-3l-.95-5.83a2.83 2.83 0 0 0-2.75-2.37q-13.23-.17-26.6-.17c-325 0-594.26 38.42-794.13 85.14a5.48 5.48 0 0 0-4.13 4.27l-1.81 9.05c43.57-10.79 89.36-20.8 136.3-29.73 201.45-38.35 419.86-57.78 649.16-57.78ZM1163.66 784.1l-.35-1.63a81.81 81.81 0 0 1 0-33.61l.42-2.1 2-.87c61.25-27.3 143.79-54.18 236.9-77.58a4.81 4.81 0 0 0 3.56-3.75L1408 655c-154 36.51-265.91 77.8-329.35 109.65 59.42 56.49 137.16 75 263 85.71q11.41 1 23 1.94a5 5 0 0 0 5.28-4l1.93-9.81c-82.4-7.55-154.57-18.36-206.84-53.49ZM4300 1365.29c-3.18-.28-94.85-8.28-97.57-8.28s-3.7 1.41-3.24 3.41 6.33 27.92 7.95 34.74a19 19 0 0 0 12.5 13.8c5.93 1.86 76.24 5.1 76.24 5.1 3.46.23 4.51-2.06.5-2.06-2.19 0-48.13-2.71-48.13-2.71a4.13 4.13 0 0 1-3.92-3.77l-3-34.88a7 7 0 0 0-6.65-6.42l-23.53-1.16c-6.69-.33-4 11.56-4 11.56s-5-15.58 2.68-14.85c5.24.5 84.82 7 89.45 7.39s3.9-1.59.72-1.87ZM3030.88 941c-14.17-1-22.66-4.32-26.93-12.4-206.87-7.35-453.24-17.8-702-30.33a2.47 2.47 0 0 0-2.57 2.87l1.44 8.89a3.3 3.3 0 0 0 3.09 2.77c258 13.42 513.32 24.74 729.87 32.85-2.13-2.88-.61-4.54-2.9-4.65Zm1268.56 204.3c1.13-2.12.6-5.11-.68-8.23a23.74 23.74 0 0 0-10.85-11.8c3.09 3.86 5.94 8.57 4.22 11.26-3.27 5.11-22.64 22.89-40.66 20.94s-54.55-8-97.4-16c-52.27-9.68-121.28-66.93-136.81-80.28-25.11-1.74-49.66-2.75-71.61-2.79 15.91 13.45 92.19 76.89 124.17 85.16 35.79 9.25 162.66 25.81 187.49 27.76s38.48-19.26 42.13-26.07Zm-54.09 276.15c-.25-3.54-6.3-5.06-6.3-5.06 1.52.08 3.52.16 5.87.23a3.31 3.31 0 0 0-3.12-3l-17.47-.91a21.41 21.41 0 0 1-19.71-16.38l-8.46-35.17a5.86 5.86 0 0 1 6.23-7.21l35.71 3.26a2.23 2.23 0 0 0 2.42-2.44l-8.94-.75s8.93-.08 8.64-4.2c-.22-3.11-1.58-22-2.23-31.07a6.29 6.29 0 0 0-5.2-5.75c-10.95-1.87-21.22-2.81-30-2.41-19.7.9-29.49 2.06-25.33 18s28.74 103.9 32.63 111 8.44 10.71 17.53 11.69c2.23.24 7.41.45 14.3.66a5.13 5.13 0 0 0 5.26-5.48ZM3208.66 935.19c-6.39-.86-17.09-12.74-17.09-12.74s-5.34-5.29-19.15-6.12c-11.38-.69-129.27-6.9-170.69-9.08v1.56c0 22 6.78 28.33 28.82 29.86 28 2 134.89 5 151.3 5.85s17 6.54 27 7.21 14.13.45 21.08.67l-8.93-11.07c-3-3.76-5.94-5.33-12.34-6.14Zm218.85 113.87H3308.8a3.88 3.88 0 0 0-1.7 7.37l77.81 37.73a22.41 22.41 0 0 0 26.07-4.77l23.29-24.67a9.29 9.29 0 0 0-6.76-15.66ZM2247.63 568.22a2 2 0 0 0-2 2.3l1 6.31a3.24 3.24 0 0 0 3.13 2.72c213.38 5.32 417.34 42.25 607 110 163.77 58.53 316.14 139.52 452.85 240.73l10.51 7.78-13.07-.31c-25.71-.6-53.16-1.32-82.18-2.13l9.63 12.38a12.73 12.73 0 0 0 9.63 4.89c52.72 1.63 101.28 3 144.86 4-245.59-181.84-612.1-379.76-1141.36-388.67Z" transform="translate(-679.63 -536.45)" style="fill:url(#b)"/><path d="M2252.48 590.87a2.32 2.32 0 0 1 2.36-2.7q15.91.42 31.63 1.07a6.11 6.11 0 0 1 5.64 4.54l79.27 297.5a4 4 0 0 1-4 5q-30.47-1.41-61-2.88a5.86 5.86 0 0 1-5.5-4.91Zm962.33 337.39c23.27.63 45.44 1.2 66.38 1.7a2.48 2.48 0 0 0 1.53-4.47c-37.53-27.51-78.37-55-122.59-81.78l44.38 78.36a12.2 12.2 0 0 0 10.3 6.19Zm-192.23-102.4-23.76-63.09a16.33 16.33 0 0 0-8.41-9.06l-7.61-3.48 28.16 82a18.91 18.91 0 0 1 11.62-6.37Zm-817.23 57.49a6.21 6.21 0 0 0 5.85 5.37q39.57 2 79.14 3.89a4.55 4.55 0 0 0 4.7-5.27l-48.4-296.6a3.39 3.39 0 0 0-3.27-2.85q-23.31-.5-47-.51-13.71 0-27.27.1a3.48 3.48 0 0 0-3.43 4Zm2032 610.83c-62.78 0-129.26-1.32-159.92-2a10.58 10.58 0 0 1-10.33-10.64v-16.94c0-207.1-171.76-375-383.64-375s-383.63 167.89-383.63 375v12.22a10.08 10.08 0 0 1-10.07 10.07h-6.57a5.27 5.27 0 0 0-5.28 5.27v35.58a6.6 6.6 0 0 1-6.69 6.6l-1497.47-20.86a6.86 6.86 0 0 1-6.76-6.94c.18-15.45.24-29.56.24-41.94 0-207.1-169.09-375-377.67-375-194.5 0-339.61 135.22-378.75 308a12.85 12.85 0 0 1-13.41 10c-70.4-4.73-238.63-18.54-280.4-45.6 5.85 53.9 31.64 94.36 53.9 114.29 48.3 43.24 178.69 82.47 269.72 91.84a10.17 10.17 0 0 0 11.17-10c.4-30.86 1.73-60.1 3.59-86.39 14.39-202.84 155.7-342.85 342.77-342.85s338.71 154 338.71 344.07c0 29.08-.31 68.53-2.06 112.55a7.68 7.68 0 0 0 7.66 8h1585.27a20.9 20.9 0 0 0 20.89-21.28c-.62-35.56-.54-69.28-.54-99.25 0-190 154-344.07 344.07-344.07s344.06 154 344.06 344.07c0 66-19.48 98.62-19.48 120.53 0 14.12 10.72 13.64 20 6.82s45.29-32.14 79.38-41.4 72.56-11.32 125.16-12.66 96.91-61.36 96.91-61.36-15.61 9.27-100.83 9.27ZM1782 1505l1479.68 23.78a7.4 7.4 0 0 0 7.52-7.4v-29.89a4.91 4.91 0 0 0-4.79-4.91l-1484.23-36.11a5.62 5.62 0 0 0-5.75 5.62v41.21a7.7 7.7 0 0 0 7.57 7.7ZM685.63 1360.26c0 22.4 16.36 80.89 58.93 104.7-32.63-46.26-33.12-90.09-38-100.81s-20.93-26.3-20.93-3.89Z" transform="translate(-679.63 -536.45)" style="fill:url(#d)"/><path d="M777.84 926.93c5.58.85 11 1.77 16.16 2.72a64.61 64.61 0 0 1 38.88 23.25 107.87 107.87 0 0 1 19.2 36.43 11.35 11.35 0 0 1-10.94 14.67c-15-.12-28.18-.42-38.56-.72a3.44 3.44 0 0 1-3-4.9c2.45-5.2 4-9.45.82-10-8.6-1.46-12.33-41.14-13.8-25.49-.64 6.9-3.27 9.23-6.41 11l1.81-25.15a43.73 43.73 0 0 0-4.16-21.81ZM953 996.79c-2.49-1.53-7.61-4.31-14.74-8a98.35 98.35 0 0 0-42.54-11.08l-14.82-.44a8.72 8.72 0 0 0-9 8.72c0 31.14 2 36.69 5.27 36.31 9.41-1.14-5.78-16.43 5.84-13s45.99 19.63 45.99 19.63l-55.27-.44a2.87 2.87 0 0 0-2.89 2.81 2.87 2.87 0 0 0 2.85 2.94c17.73.1 33.38.16 44.27.16 48.84.05 56.47-24.4 35.04-37.61Z" transform="translate(-679.63 -536.45)" style="fill:url(#l)"/><path d="M4282.37 1122.49c-28.32-13.53-60.9-25.83-88.86-35-32.19-10.51-98.2-20.25-163-25.38 17.74 14.59 83.53 66.89 124.52 75 47.73 9.5 77.44 14.37 94.72 15.34s33.85-11.1 37.26-17.78c1.79-3.39-1.29-8.3-4.64-12.18Zm-22 12.61c-6.82 3.25-42.21-3.25-48 0s-7.92 4.9-2.28 9.09c-32.46-4.22-53.49-8.77-65.58-14.93S4112 1100 4112 1100s97.08 28.25 120.78 30.85 28.9-5.52 9.42-8.44-105.2-28.57-105.2-28.57a280.32 280.32 0 0 1-31.17-11.69c-14.93-6.82 12.34-7.47 29.22-2.6s-11.6 5.54 15.26 13 110.72 30.52 119.48 33.11-2.58 6.19-9.39 9.44ZM819.11 934.8c13.66 3.1 22.37 5.56 22.37 5.56l3.56 1.75c3.72 1.85 7 3.48 10 4.91 20.73 10.23 40.59 20.1 57.06 28.39l-31.1-.92a11.48 11.48 0 0 0-11.82 11.17c-.08 3.23-.19 7.36-.31 12-.15 5.88-4.09 11.34-9.86 12.45a3.8 3.8 0 0 0-1.61.76c-6.17 4.71-1.78 14-16.07 13.15s-27.76-3-43-4.38c-3.81-.35-5-2.39-4.9-5.27a9.1 9.1 0 0 1 9.44-8.41c10.29.31 23.41.6 38.29.72h.12a14 14 0 0 0 11.06-5.37 14.48 14.48 0 0 0 2.31-13.16c-8.22-26.99-25.27-44.68-35.54-53.35Zm-72.44 92.67c-15.1-.12-14.77-7.79-11.36-37.82 1-9.15 5.52-6.82 5.52-6.82s2.27 34.74 28.08 34.09-4.87-16.07-.16-31.17a19.51 19.51 0 0 1 2.54-5.41 38.61 38.61 0 0 0 7-19.22l.9-12.58a40.81 40.81 0 0 0-3.88-20.44 3.38 3.38 0 0 0-2.59-1.92c-9.42-1.33-19.2-2.43-28.91-3.1a5.22 5.22 0 0 0-5.55 4.7c-2.6 27.59-6 64.23-9.43 100.22a4.77 4.77 0 0 0 4.71 5.23c22.34.2 82.82 1 131.52 1 3 0 2.93-1.93 3-2.89a2.86 2.86 0 0 0-2.84-2.93Zm-37-105.07c-.67 25.08-3.09 51 4 73.66 6.29 5.26 9.2 14.65 10.53 22.21 3-30.81 6.11-65.73 8.47-92.52a3 3 0 0 0-3-3.3c-6.17-.14-15.67-.21-20.01-.05Z" transform="translate(-679.63 -536.45)" style="fill:url(#m)"/><path d="M4282.37 1122.49c3.35 3.88 6.43 8.79 4.65 12.28-1.43 2.8-5.15 6.53-10.27 9.86-63.46-24.14-135.75-38.44-199.13-46.91-21.06-14.52-39-28.93-47.1-35.56 64.79 5.13 130.8 14.87 163 25.38 27.95 9.12 60.53 21.46 88.85 34.95Zm-3549.44-200c-5.43-.17-18.06-.33-23.27-.13-.38 14.13-1.31 28.53-.78 42.46a82.44 82.44 0 0 0 19.29 10.91c1.74-19.04 3.4-37.65 4.76-53.2ZM953 996.79c-8.84-5.46-51.24-26.7-98-49.77-2.94-1.43-6.25-3.06-10-4.91l-3.56-1.75s-53.15-15-102.72-17.59c-1.47 15.67-3.27 34.73-5.19 55.16 12.46 4.7 27.33 8.53 43.13 11.39 34.7 6.29 112.24 5.18 172.6 40.26 19.53-7.81 19.23-23.22 3.74-32.79Z" transform="translate(-679.63 -536.45)" style="opacity:.7000000000000001;fill:url(#n)"/><circle cx="3011.3" cy="924.62" r="285.38"/><path d="M3701.42 1247.07c-118.18 0-214 95.81-214 214s95.82 214 214 214 214-95.81 214-214-95.81-214-214-214Zm0 421.5c-114.59 0-207.5-92.9-207.5-207.5s92.91-207.5 207.5-207.5 207.5 92.9 207.5 207.5-92.92 207.5-207.5 207.5Z" transform="translate(-679.63 -536.45)" style="fill:url(#o)"/><path d="M3709 1261c-2.51-.1-5-.16-7.56-.16-110.41 0-200.24 89.83-200.24 200.25s89.83 200.24 200.24 200.24c2.53 0 5-.06 7.56-.15 104.83-6.53 187.85-93.61 187.85-200.09S3813.81 1267.5 3709 1261Zm168.75 205.16-15.47.53a168.12 168.12 0 0 1-7.8 45.58c2.9 1 5.2 1.76 6.73 2.25a10.5 10.5 0 0 1 6.82 6.38c4.6 11.64-6.93 35.37-14.21 48.47a8.7 8.7 0 0 1-12.85 2.72l-13-8.78a169.89 169.89 0 0 1-32.74 32.65c1.68 2.39 3 4.28 3.94 5.54a10.48 10.48 0 0 1 1.78 9.17c-3.13 12.12-26.4 24.54-40 30.86a8.7 8.7 0 0 1-12-5.36l-5-13.78a168.8 168.8 0 0 1-46.05 7.64v5.36a10.51 10.51 0 0 1-4 8.46c-4.37 3.61-12.11 4.84-20.64 4.84-10.32 0-21.8-1.8-29.85-3.38a8.69 8.69 0 0 1-6.56-11.38l3.55-12.33a168.35 168.35 0 0 1-42.45-21c-.79 1.07-1.47 2-2 2.7a10.48 10.48 0 0 1-8.17 4.52h-.78c-12.5 0-30.93-17.77-40.94-28.52a8.7 8.7 0 0 1 1.39-13.06l8.56-6.68a168.53 168.53 0 0 1-22.18-42.62l-1.42.45a10.47 10.47 0 0 1-9.28-1.14c-10.56-6.72-15.18-32.69-17-47.57a8.73 8.73 0 0 1 2.2-6.92 8.6 8.6 0 0 1 6.6-2.83l9.47-.33a168.83 168.83 0 0 1 7.6-47.86l-.53-.18a10.46 10.46 0 0 1-6.83-6.37c-4.59-11.65 6.93-35.37 14.22-48.48a8.7 8.7 0 0 1 12.85-2.71l7.64 5.16a169.84 169.84 0 0 1 34.72-33.8l-.56-.77a10.48 10.48 0 0 1-1.77-9.17c3.12-12.12 26.4-24.54 40-30.86a8.69 8.69 0 0 1 12 5.35l3.48 9.58a169.05 169.05 0 0 1 46.16-6.38h1.46v-2.42a10.49 10.49 0 0 1 4-8.47c9.66-8 35.79-4.33 50.5-1.46a8.71 8.71 0 0 1 6.55 11.39l-3.33 11.59a168.38 168.38 0 0 1 41.59 22.65c1.09-1.46 2-2.67 2.63-3.57a10.45 10.45 0 0 1 8.17-4.52c12.5-.77 31.5 17.52 41.71 28.5a8.68 8.68 0 0 1-1.39 13l-11.1 8.67a168.32 168.32 0 0 1 20.24 42c2.52-.78 4.53-1.42 5.91-1.87a10.49 10.49 0 0 1 9.27 1.15c10.56 6.72 15.18 32.69 17 47.57a8.69 8.69 0 0 1-8.79 9.75Z" transform="translate(-679.63 -536.45)" style="fill:url(#c)"/><path d="M3884.41 1455.2c-2-16.13-8.1-52-23.49-47-10.56 3.46-57 17.29-97.94 29.43-8.16 2.42-18.26 4.12-25.91 1.42l106.93-83.39a6.56 6.56 0 0 0 1.09-9.89c-11.06-11.89-37.11-37.3-46.6-24.18-6.51 9-35.94 47.49-61.94 81.38-5.18 6.75-12.35 14.07-20.12 16.38L3753.8 1289a6.57 6.57 0 0 0-4.93-8.65c-15.94-3.11-51.95-8.36-51.92 7.84 0 11.11-1.16 59.55-2.27 102.24-.22 8.51-1.72 18.64-6.65 25.08l-46.33-127.41a6.56 6.56 0 0 0-9.07-4.1c-14.73 6.85-47 23.77-37.4 36.85 6.55 9 34.06 48.86 58.26 84.05 4.82 7 9.56 16.1 9.36 24.21l-112.38-75.87a6.56 6.56 0 0 0-9.75 2c-7.89 14.2-24 46.82-8.6 51.79 10.58 3.41 56.28 19.51 96.54 33.76 8 2.84 17.19 7.4 21.8 14.08l-135.52 4.68a6.57 6.57 0 0 0-6.7 7.36c2 16.13 8.1 52 23.49 47 10.57-3.46 57-17.3 97.94-29.44 8.17-2.42 18.27-4.12 25.92-1.42l-106.89 83.44a6.57 6.57 0 0 0-1.09 9.9c11.07 11.89 37.12 37.3 46.61 24.18 6.51-9 35.94-47.5 61.93-81.38 5.18-6.76 12.35-14.07 20.13-16.39l-37.43 130.33a6.57 6.57 0 0 0 4.93 8.65c15.95 3.11 52 8.36 51.92-7.83 0-11.12 1.16-59.55 2.27-102.24.22-8.52 1.73-18.65 6.66-25.09L3751 1634a6.57 6.57 0 0 0 9.08 4.09c14.73-6.85 46.94-23.77 37.39-36.85-6.55-9-34.06-48.86-58.25-84-4.83-7-9.57-16.1-9.37-24.21l112.39 75.87a6.56 6.56 0 0 0 9.75-2c7.89-14.2 24-46.82 8.59-51.79-10.57-3.41-56.27-19.51-96.53-33.76-8-2.84-17.2-7.4-21.81-14.08l135.52-4.67a6.57 6.57 0 0 0 6.65-7.4Z" transform="translate(-679.63 -536.45)" style="fill:url(#p)"/><path d="M3738.75 1404.69c24.61-32.08 55.34-72.25 62-81.44a5.58 5.58 0 0 1 4.46-2.48c5.85-.36 15.62 5.43 27.39 16.52 3.41 3.2 1.76 5.46-1.67 8.73-8.18 7.82-25.47 22.63-44.83 36.89-41.53 30.56-54.81 31.51-47.35 21.78Zm-132.19 134.54c-19.36 14.25-36.64 29.07-44.83 36.88-3.42 3.27-5.07 5.53-1.67 8.74 11.77 11.08 21.54 16.87 27.4 16.51a5.56 5.56 0 0 0 4.46-2.48c6.64-9.19 37.37-49.36 62-81.44 7.45-9.73-5.84-8.78-47.36 21.79Zm208.33-88.63c24-.15 46.74-2 58-3.49 4.69-.64 7.35-1.49 6.48-6.09-3-15.89-7.5-26.31-12.45-29.46a5.59 5.59 0 0 0-5.07-.62c-10.77 3.53-59.25 18-98 29.46-11.85 3.48-.52 10.52 51.04 10.2Zm-237.13 20.94c-24 .15-46.73 2-58 3.49-4.68.63-7.35 1.49-6.48 6.08 3 15.89 7.5 26.32 12.46 29.47a5.57 5.57 0 0 0 5.06.61c10.78-3.53 59.25-18 98-29.45 11.83-3.49.52-10.53-51.04-10.2Zm220.64 50.75c19.54 14 39 25.87 48.94 31.23 4.16 2.25 6.82 3.12 8.82-1.11 6.9-14.62 9.39-25.7 7.24-31.16a5.58 5.58 0 0 0-3.74-3.47c-10.79-3.48-58.49-20.29-96.61-33.78-11.56-4.1-6.55 8.24 35.35 38.29Zm-204.15-122.44c-19.53-14-39-25.87-48.93-31.24-4.16-2.25-6.83-3.12-8.82 1.11-6.91 14.62-9.4 25.7-7.24 31.16a5.57 5.57 0 0 0 3.73 3.48c10.79 3.47 58.5 20.29 96.61 33.78 11.56 4.09 6.56-8.25-35.35-38.29Zm148.67 170.74c7.58 22.82 16.33 43.84 21.23 54 2 4.26 3.69 6.53 7.79 4.28 14.18-7.77 22.71-15.27 24.17-21a5.59 5.59 0 0 0-1-5c-6.69-9.15-35.4-50.79-58.31-84.11-6.92-10.03-10.12 2.9 6.12 51.83Zm-93.19-219c-7.57-22.82-16.32-43.84-21.22-54-2.05-4.27-3.69-6.54-7.8-4.29-14.18 7.77-22.7 15.27-24.17 21a5.56 5.56 0 0 0 1 5c6.69 9.16 35.4 50.8 58.3 84.12 6.93 9.98 10.16-2.95-6.11-51.88Zm19.92 225.52c-7.29 22.91-12.56 45.06-14.59 56.19-.85 4.66-.86 7.46 3.78 8 16 2 27.35 1 31.87-2.74a5.6 5.6 0 0 0 2.16-4.63c0-11.34 1.22-61.9 2.27-102.32.32-12.26-9.87-3.68-25.49 45.45Zm53.36-232c7.28-22.91 12.56-45.06 14.59-56.19.84-4.66.85-7.46-3.79-8.05-16-2-27.34-1-31.87 2.74a5.59 5.59 0 0 0-2.15 4.63c0 11.34-1.22 61.9-2.27 102.32-.32 12.22 9.87 3.65 25.48-45.49Z" transform="translate(-679.63 -536.45)" style="fill:url(#e)"/><path d="M3723.2 1488.57c16.25 9.44 63 33.84 63 33.84s-40.72-25.53-53.75-53.88a5 5 0 0 1 1.78-1c18.68-1.91 70.86-9.66 70.86-9.66s-47.95 3.28-75.15-12a5.08 5.08 0 0 1 .84-1.86c14-12.52 51.66-49.46 51.66-49.46s-36.87 30.84-67.86 34.47a5 5 0 0 1-.41-2c4-18.37 12.71-70.38 12.71-70.38s-11.69 46.61-34.63 67.77a5.1 5.1 0 0 1-1.51-1.38c-7.59-17.18-31.08-64.42-31.08-64.42s17.93 44.59 11.81 75.19a5.06 5.06 0 0 1-2-.23c-16.24-9.44-63-33.84-63-33.84s40.72 25.53 53.75 53.89a5 5 0 0 1-1.77 1c-18.69 1.91-70.87 9.66-70.87 9.66s47.95-3.28 75.16 12a5.16 5.16 0 0 1-.84 1.86c-14 12.53-51.66 49.46-51.66 49.46s36.86-30.83 67.86-34.46a5.35 5.35 0 0 1 .41 2c-4 18.36-12.72 70.38-12.72 70.38s11.7-46.62 34.64-67.77a5.39 5.39 0 0 1 1.51 1.37c7.59 17.19 31.08 64.42 31.08 64.42s-17.94-44.59-11.81-75.19a5 5 0 0 1 1.99.22Z" transform="translate(-679.63 -536.45)" style="fill:url(#f)"/><circle cx="3696.33" cy="1461.07" r="24" transform="rotate(-40.3 2625.202 2118.917)"/><circle cx="3696.33" cy="1461.07" r="22.5" transform="rotate(-2.11 -11202.138 19648.061)" style="fill:url(#q)"/><path d="M3696 1451.39c7.51.14 14.06 3.29 17.85 7.95a11.18 11.18 0 0 0 .34-2.53c.16-8-7.9-14.59-18-14.78-7.23-.15-13.45 3.07-16.61 7.78-2.25 3.36.5 6.34 5.45 3.7a22.81 22.81 0 0 1 10.97-2.12Z" transform="translate(-679.63 -536.45)" style="fill:#ededed"/><path d="M2992.56 941.1a8 8 0 0 0-5.18 2.27c-1.65 1.63-5.5 5.79-9.61 10.64 5.09-2.42 8-.82 9.5.68a8 8 0 0 0 13.59-4.21 19.19 19.19 0 0 1 .52 8.68s3.36-11.21-1.85-16.53-15.68-4.24-15.68-4.24a15.29 15.29 0 0 1 8.71 2.71ZM3046.72 925.89a8 8 0 0 0 5.52 1.2c2.3-.34 7.86-1.44 14-3-5.55-1-7-4.06-7.3-6.14a8 8 0 0 0-13.46-4.57 19 19 0 0 1 4.68-7.33s-9.31 7.09-8.21 14.45 10.18 12.65 10.18 12.65a15.25 15.25 0 0 1-5.41-7.26ZM2993.96 906.36a8 8 0 0 0-3.76-4.22c-2-1.07-7.2-3.44-13.09-5.86 3.88 4.09 3.27 7.39 2.3 9.25a8 8 0 0 0 8.2 11.62 19.14 19.14 0 0 1-8.1 3.18s11.7-.27 15.15-6.87-.81-16.22-.81-16.22a15.23 15.23 0 0 1 .11 9.12ZM3025.17 953.17a8 8 0 0 0 .56 5.63c1 2.07 3.8 7 7.14 12.43-.73-5.59 1.7-7.9 3.58-8.83a8 8 0 0 0 3.6-10.73 7.92 7.92 0 0 0-3.4-3.49 19 19 0 0 1 8.42 2.18s-9.63-6.66-16.29-3.34-8.88 13.59-8.88 13.59a15.25 15.25 0 0 1 5.27-7.44ZM3027.43 896.96a8 8 0 0 0 2.86-4.88c.38-2.29 1-7.92 1.52-14.26-2.69 5-6 5.39-8.08 5a8 8 0 0 0-8.52 11.39 19.12 19.12 0 0 1-5.52-6.72s3.87 11 11.21 12.28 15.17-5.78 15.17-5.78a15.3 15.3 0 0 1-8.64 2.97Z"/><path d="M3678.63 1486a6 6 0 1 1-4.92-6.92 6 6 0 0 1 4.92 6.92Z" transform="translate(-679.63 -536.45)" style="fill:url(#r)"/><path d="M3673 1483.08a6.48 6.48 0 0 1 4.85 3.75 4.81 4.81 0 0 0 .25-.94 5.49 5.49 0 0 0-4.51-6.33 5.55 5.55 0 0 0-5.39 2.22c-.86 1.17-.21 2.41 1.41 1.63a5.63 5.63 0 0 1 3.39-.33Z" transform="translate(-679.63 -536.45)" style="fill:url(#s)"/><circle cx="3712.19" cy="1491.5" r="6" transform="rotate(-35.44 2533.411 2286.802)" style="fill:url(#t)"/><path d="M3712.51 1489.6a6.47 6.47 0 0 1 4.85 3.76 5 5 0 0 0 .25-.94 5.5 5.5 0 0 0-4.51-6.34 5.56 5.56 0 0 0-5.39 2.23c-.86 1.16-.21 2.41 1.41 1.62a5.71 5.71 0 0 1 3.39-.33Z" transform="translate(-679.63 -536.45)" style="fill:url(#u)"/><path d="M3736.65 1456.41a6 6 0 1 1-4.92-6.91 6 6 0 0 1 4.92 6.91Z" transform="translate(-679.63 -536.45)" style="fill:url(#v)"/><path d="M3731.06 1453.51a6.51 6.51 0 0 1 4.85 3.76 5.91 5.91 0 0 0 .25-.94 5.5 5.5 0 0 0-9.9-4.11c-.86 1.17-.22 2.41 1.41 1.62a5.7 5.7 0 0 1 3.39-.33Z" transform="translate(-679.63 -536.45)" style="fill:url(#w)"/><path d="M3672.05 1446.68a6 6 0 1 1-4.92-6.91 6 6 0 0 1 4.92 6.91Z" transform="translate(-679.63 -536.45)" style="fill:url(#x)"/><path d="M3666.45 1443.78a6.46 6.46 0 0 1 4.85 3.75 4.91 4.91 0 0 0 .25-.93 5.49 5.49 0 0 0-4.51-6.34 5.55 5.55 0 0 0-5.38 2.22c-.87 1.17-.22 2.41 1.4 1.63a5.71 5.71 0 0 1 3.39-.33Z" transform="translate(-679.63 -536.45)" style="fill:url(#y)"/><path d="M3708 1428.2a6 6 0 1 1-4.93-6.92 6 6 0 0 1 4.93 6.92Z" transform="translate(-679.63 -536.45)" style="fill:url(#z)"/><path d="M3702.35 1425.29a6.49 6.49 0 0 1 4.85 3.76 4.81 4.81 0 0 0 .25-.94 5.49 5.49 0 0 0-4.51-6.33 5.55 5.55 0 0 0-5.39 2.22c-.86 1.17-.21 2.41 1.41 1.63a5.71 5.71 0 0 1 3.39-.34Z" transform="translate(-679.63 -536.45)" style="fill:url(#A)"/><path d="M3935.19 1328.23a315.76 315.76 0 0 0-451.66-35.45 271.09 271.09 0 0 0-58.23 168.29c0 150.35 121.88 272.23 272.23 272.23s272.24-121.88 272.24-272.23a271 271 0 0 0-34.58-132.84Zm-237.66 354.91c-122.64 0-222.07-99.43-222.07-222.07S3574.89 1239 3697.53 1239s222.08 99.43 222.08 222.08-99.43 222.06-222.08 222.06Z" transform="translate(-679.63 -536.45)" style="fill:url(#g)"/><circle cx="705.17" cy="924.62" r="285.38"/><path d="M1371.42 1247.07c-118.18 0-214 95.81-214 214s95.82 214 214 214 214-95.81 214-214-95.81-214-214-214Zm0 421c-114.32 0-207-92.68-207-207s92.68-207 207-207 207 92.67 207 207-92.67 207-207 207Z" transform="translate(-679.63 -536.45)" style="fill:url(#B)"/><path d="M1559 1526.31a8.7 8.7 0 0 1-7.16.46l-14.61-4.65a169.73 169.73 0 0 1-22.31 40.65c2.18 1.73 3.93 3.1 5.12 4a10.48 10.48 0 0 1 4.29 8.3c.43 12.51-18.39 31-29.65 40.9a8.69 8.69 0 0 1-13-1.75l-8.59-11.66a169 169 0 0 1-42.12 20.25c.6 2.13 1.1 3.86 1.46 5.09a10.49 10.49 0 0 1-1.4 9.24c-7 10.37-33.1 14.26-48 15.66h-.81a8.69 8.69 0 0 1-8.69-9.1l-.09-12.9a168.5 168.5 0 0 1-46.59-8.3c-.49 1.32-.9 2.45-1.2 3.32a10.5 10.5 0 0 1-6.57 6.65c-11.77 4.27-35.16-7.92-48.06-15.56a8.7 8.7 0 0 1-2.36-12.92l6.5-9.07a168.48 168.48 0 0 1-33.19-34.59l-1.54 1.05a10.48 10.48 0 0 1-9.21 1.52c-12-3.46-23.8-27.07-29.74-40.84a8.7 8.7 0 0 1 5.69-11.84l9.38-3.11a168.61 168.61 0 0 1-6.21-47.92h-1a10.5 10.5 0 0 1-8.35-4.19c-7.69-9.87-3.33-35.89 0-50.51a8.69 8.69 0 0 1 11.56-6.24l9.13 2.9a169.63 169.63 0 0 1 23.65-42.16l-1-.75a10.48 10.48 0 0 1-4.29-8.3c-.43-12.51 18.39-31 29.65-40.9a8.69 8.69 0 0 1 13 1.75l6.15 8.34a169.33 169.33 0 0 1 42.78-19.36l1-.28c-.26-.92-.5-1.73-.69-2.38a10.49 10.49 0 0 1 1.4-9.24c7-10.37 33.1-14.26 48-15.66a8.7 8.7 0 0 1 9.5 9.07l.08 12a168.65 168.65 0 0 1 46.36 9.89c.6-1.63 1.09-3 1.45-4a10.44 10.44 0 0 1 6.56-6.65c11.77-4.27 35.16 7.91 48.06 15.56a8.7 8.7 0 0 1 2.36 12.92l-8 11.2a168.44 168.44 0 0 1 31.43 34.66c2-1.36 3.69-2.47 4.83-3.25a10.45 10.45 0 0 1 9.21-1.52c12 3.46 23.8 27.07 29.74 40.83a8.69 8.69 0 0 1-5.69 11.84l-14.29 4.75a168.43 168.43 0 0 1 5.41 46.07c2.94.13 5.19.21 6.68.25a10.5 10.5 0 0 1 8.35 4.19c6.37 8.17 4.48 27.39 1.77 42.07a199.66 199.66 0 0 0 6.6-51c0-110.42-89.83-200.25-200.25-200.25h-.05a200.81 200.81 0 0 0-45.88 7.91c-106.23 31.27-167 142.74-135.71 249a200.56 200.56 0 0 0 181.48 143.62h.16c88.33 0 163.47-57.48 190-137a8.6 8.6 0 0 1-2.49 1.94Z" transform="translate(-679.63 -536.45)" style="fill:url(#C)"/><path d="M1554.89 1466.51c-11.11-.29-59.49-2.82-102.14-5.12-8.5-.46-18.59-2.25-24.89-7.35l128.68-42.76a6.58 6.58 0 0 0 4.35-9c-6.44-14.91-22.46-47.59-35.8-38.41-9.15 6.3-49.79 32.69-85.64 55.9-7.15 4.62-16.36 9.11-24.46 8.68l79-110.23a6.57 6.57 0 0 0-1.74-9.8c-14-8.28-46.15-25.3-51.54-10-3.7 10.48-21.07 55.71-36.43 95.56-3.06 7.94-7.88 17-14.68 21.4l-.91-135.6a6.56 6.56 0 0 0-7.17-6.9c-16.18 1.51-52.2 6.65-47.59 22.18 3.16 10.65 15.7 57.45 26.69 98.72 2.19 8.23 3.61 18.37.71 25.94l-80.44-109.17a6.56 6.56 0 0 0-9.86-1.36c-12.19 10.73-38.32 36.06-25.47 45.91 8.83 6.76 46.48 37.25 79.63 64.18 6.61 5.37 13.72 12.74 15.82 20.57l-129.24-41a6.57 6.57 0 0 0-8.78 4.69c-3.56 15.85-9.81 51.7 6.38 52.12 11.11.28 59.49 2.82 102.14 5.12 8.5.45 18.59 2.24 24.89 7.34l-128.68 42.76a6.58 6.58 0 0 0-4.35 9c6.44 14.92 22.46 47.59 35.8 38.41 9.15-6.3 49.79-32.69 85.64-55.89 7.15-4.63 16.36-9.12 24.46-8.69l-79 110.23a6.56 6.56 0 0 0 1.75 9.8c14 8.28 46.14 25.3 51.53 10 3.7-10.48 21.07-55.72 36.43-95.56 3.07-8 7.88-17 14.68-21.41l.91 135.6a6.56 6.56 0 0 0 7.17 6.9c16.18-1.51 52.2-6.65 47.59-22.17-3.16-10.66-15.7-57.46-26.69-98.72-2.19-8.23-3.61-18.38-.7-25.95l80.43 109.17a6.57 6.57 0 0 0 9.86 1.37c12.19-10.74 38.32-36.07 25.47-45.92-8.83-6.76-46.48-37.25-79.63-64.17-6.61-5.37-13.72-12.74-15.82-20.58l129.24 41a6.57 6.57 0 0 0 8.78-4.69c3.56-15.84 9.81-51.69-6.38-52.1Z" transform="translate(-679.63 -536.45)" style="fill:url(#D)"/><path d="M1406.89 1395c14.55-37.73 32.68-85 36.46-95.64a5.63 5.63 0 0 1 3.58-3.64c5.52-2 16.52.8 31 8.11 4.17 2.12 3.22 4.75.86 8.85-5.64 9.81-18 28.91-32.59 48-31.2 41.11-43.72 45.77-39.31 34.32Zm-88.81 166.39c-14.55 19.14-26.95 38.23-32.59 48-2.36 4.1-3.31 6.74.86 8.85 14.43 7.31 25.43 10.11 31 8.11a5.58 5.58 0 0 0 3.58-3.64c3.78-10.69 21.91-57.91 36.46-95.63 4.36-11.4-8.12-6.73-39.31 34.32Zm174.82-143.86c23-6.94 44.27-15.1 54.6-19.72 4.32-1.93 6.63-3.5 4.5-7.67-7.37-14.39-14.63-23.12-20.27-24.74a5.58 5.58 0 0 0-5 .84c-9.34 6.43-51.77 34-85.71 55.94-10.33 6.67 2.51 10.23 51.88-4.64Zm-221.57 87c-23 6.94-44.27 15.1-54.6 19.72-4.32 1.93-6.63 3.51-4.5 7.67 7.37 14.39 14.63 23.12 20.27 24.74a5.57 5.57 0 0 0 5-.83c9.34-6.43 51.77-34 85.71-55.94 10.33-6.61-2.51-10.17-51.88 4.7Zm226-13.62c22.7 7.92 44.7 13.81 55.77 16.14 4.63 1 7.43 1.07 8.15-3.56 2.49-16 1.75-27.3-1.86-31.93a5.56 5.56 0 0 0-4.56-2.28c-11.34-.29-61.84-2.95-102.22-5.12-12.26-.6-3.97 9.84 44.71 26.84Zm-230.41-59.8c-22.7-7.92-44.69-13.81-55.77-16.15-4.63-1-7.42-1.06-8.15 3.56-2.49 16-1.75 27.3 1.86 31.93a5.56 5.56 0 0 0 4.56 2.28c11.34.29 61.85 3 102.22 5.13 12.24.72 3.95-9.71-44.73-26.69ZM1457.75 1553c13.7 19.75 28 37.45 35.62 45.84 3.17 3.52 5.38 5.23 8.68 1.92 11.41-11.46 17.47-21.06 17.28-26.93a5.61 5.61 0 0 0-2.36-4.53c-9-6.89-48.3-38.73-79.68-64.22-9.52-7.77-8.94 5.54 20.46 47.92Zm-151.27-183.81c-13.7-19.75-28-37.44-35.62-45.84-3.17-3.51-5.38-5.23-8.68-1.91-11.41 11.45-17.47 21.06-17.28 26.92a5.61 5.61 0 0 0 2.36 4.53c9 6.9 48.3 38.73 79.68 64.23 9.52 7.7 8.95-5.61-20.46-47.96Zm82.8 210.72c-.52 24 .68 46.77 1.88 58 .5 4.7 1.28 7.39 5.9 6.65 16-2.56 26.51-6.77 29.8-11.63a5.6 5.6 0 0 0 .76-5.05c-3.23-10.87-16.31-59.72-26.72-98.8-3.16-11.86-10.51-.75-11.62 50.8ZM1375 1342.26c.52-24-.68-46.77-1.88-58-.5-4.7-1.28-7.39-5.9-6.65-16 2.56-26.51 6.77-29.8 11.63a5.6 5.6 0 0 0-.76 5c3.23 10.87 16.31 59.73 26.72 98.8 3.11 11.87 10.46.76 11.62-50.78Z" transform="translate(-679.63 -536.45)" style="fill:url(#E)"/><path d="M1415.66 1479.86c18.25 4.47 70 14.67 70 14.67s-46.27-13-66.77-36.51a5.17 5.17 0 0 1 1.41-1.47c17.39-7.11 65.26-29.28 65.26-29.28s-45.07 16.69-75.49 9.72a5.24 5.24 0 0 1 .28-2c9.89-16 35.59-62 35.59-62s-26.66 40-55.36 52.22a5.26 5.26 0 0 1-1-1.8c-1.39-18.73-7.68-71.11-7.68-71.11s2 48-14.09 74.8a5.1 5.1 0 0 1-1.83-.9c-12.14-14.34-48-53-48-53s29.8 37.71 32.56 68.79a5 5 0 0 1-2 .35c-18.25-4.47-70-14.67-70-14.67s46.27 13 66.77 36.52a5.23 5.23 0 0 1-1.41 1.46c-17.39 7.11-65.26 29.28-65.26 29.28s45.07-16.69 75.49-9.71a5.32 5.32 0 0 1-.28 2c-9.89 16-35.59 62-35.59 62s26.65-40 55.36-52.23a5.26 5.26 0 0 1 1 1.8c1.39 18.74 7.68 71.11 7.68 71.11s-2-48 14.09-74.8a5.1 5.1 0 0 1 1.83.9c12.14 14.34 48 53 48 53s-29.8-37.7-32.56-68.79a5.18 5.18 0 0 1 2-.35Z" transform="translate(-679.63 -536.45)" style="fill:url(#F)"/><circle cx="1382.12" cy="1461.07" r="24" transform="rotate(-46.8 422.415 1978.085)"/><circle cx="1382.12" cy="1461.07" r="22.5" transform="rotate(-54.83 525.01 1847.927)" style="fill:url(#G)"/><path d="M1380.47 1451.52c7.46-.9 14.38 1.32 18.78 5.4a10.88 10.88 0 0 0 0-2.55c-1-7.91-9.85-13.35-19.89-12.15-7.17.86-12.89 4.91-15.36 10-1.76 3.64 1.37 6.21 5.91 2.92a22.61 22.61 0 0 1 10.56-3.62Z" transform="translate(-679.63 -536.45)" style="fill:#ededed"/><path d="M683.99 947.25a8 8 0 0 0-4.33 3.64c-1.13 2-3.64 7.1-6.22 12.92 4.2-3.77 7.48-3.06 9.31-2a8 8 0 0 0 11.84-7.87 19.11 19.11 0 0 1 3 8.18s0-11.7-6.45-15.33-16.23.36-16.23.36a15.21 15.21 0 0 1 9.08.1ZM731.65 917.35a7.93 7.93 0 0 0 5.63-.4c2.11-1 7.13-3.6 12.63-6.79-5.61.57-7.85-1.92-8.73-3.83a8 8 0 0 0-14.21-.59 19.09 19.09 0 0 1 2.43-8.35s-6.93 9.43-3.8 16.19 13.34 9.25 13.34 9.25a15.21 15.21 0 0 1-7.29-5.48ZM675.52 913.55a8 8 0 0 0-4.8-3c-2.27-.45-7.88-1.27-14.21-1.93 4.88 2.84 5.22 6.17 4.81 8.23a8 8 0 0 0 11.15 8.83 19.08 19.08 0 0 1-6.87 5.33s11.15-3.56 12.59-10.86-5.36-15.33-5.36-15.33a15.25 15.25 0 0 1 2.69 8.73ZM718.68 949.61a7.91 7.91 0 0 0 2.12 5.24c1.58 1.7 5.63 5.66 10.37 9.91-2.29-5.16-.6-8 .94-9.48a8 8 0 0 0-3.83-13.7 19.17 19.17 0 0 1 8.69-.28s-11.11-3.67-16.57 1.4-4.67 15.54-4.67 15.54a15.19 15.19 0 0 1 2.95-8.63ZM704.97 895.05a8 8 0 0 0 1.4-5.5c-.27-2.3-1.23-7.89-2.56-14.1-1.18 5.51-4.25 6.86-6.33 7.12a8 8 0 0 0-5 13.32 19 19 0 0 1-7.19-4.88s6.83 9.5 14.22 8.62 12.92-9.83 12.92-9.83a15.27 15.27 0 0 1-7.46 5.25Z"/><path d="M1372.17 1490a6 6 0 1 1-6.67-5.24 6 6 0 0 1 6.67 5.24Z" transform="translate(-679.63 -536.45)" style="fill:url(#H)"/><path d="M1366 1488.76a6.51 6.51 0 0 1 5.72 2.23 5.27 5.27 0 0 0 0-1 5.5 5.5 0 0 0-10.65-1.15c-.5 1.37.47 2.37 1.81 1.17a5.6 5.6 0 0 1 3.12-1.25Z" transform="translate(-679.63 -536.45)" style="fill:url(#I)"/><path d="M1411.88 1485.07a6 6 0 1 1-6.67-5.24 6 6 0 0 1 6.67 5.24Z" transform="translate(-679.63 -536.45)" style="fill:url(#J)"/><path d="M1405.7 1483.87a6.49 6.49 0 0 1 5.71 2.23 5.26 5.26 0 0 0 0-1 5.5 5.5 0 0 0-10.66-1.15c-.5 1.37.47 2.37 1.81 1.17a5.66 5.66 0 0 1 3.14-1.25Z" transform="translate(-679.63 -536.45)" style="fill:url(#K)"/><path d="M1419.48 1445.21a6 6 0 1 1-6.67-5.24 6 6 0 0 1 6.67 5.24Z" transform="translate(-679.63 -536.45)" style="fill:url(#L)"/><path d="M1413.3 1444a6.49 6.49 0 0 1 5.71 2.23 5.26 5.26 0 0 0 0-1 5.5 5.5 0 0 0-10.66-1.15c-.5 1.37.47 2.38 1.81 1.17a5.66 5.66 0 0 1 3.14-1.25Z" transform="translate(-679.63 -536.45)" style="fill:url(#M)"/><path d="M1354.76 1454.12a6 6 0 1 1-6.67-5.24 6 6 0 0 1 6.67 5.24Z" transform="translate(-679.63 -536.45)" style="fill:url(#N)"/><path d="M1348.57 1452.92a6.51 6.51 0 0 1 5.72 2.23 5.27 5.27 0 0 0 0-1 5.5 5.5 0 0 0-10.65-1.15c-.5 1.37.47 2.37 1.81 1.17a5.63 5.63 0 0 1 3.12-1.25Z" transform="translate(-679.63 -536.45)" style="fill:url(#O)"/><path d="M1384 1426.25a6 6 0 1 1-6.68-5.24 6 6 0 0 1 6.68 5.24Z" transform="translate(-679.63 -536.45)" style="fill:url(#P)"/><path d="M1377.79 1425.05a6.51 6.51 0 0 1 5.72 2.23 6.33 6.33 0 0 0 0-1 5.5 5.5 0 0 0-6.12-4.8 5.57 5.57 0 0 0-4.54 3.65c-.49 1.37.48 2.38 1.81 1.17a5.66 5.66 0 0 1 3.13-1.25Z" transform="translate(-679.63 -536.45)" style="fill:url(#Q)"/><path d="M1645.63 1428.92c-39.34-124.28-155.58-214.35-292.87-214.35a305.72 305.72 0 0 0-161.32 45.74 271.49 271.49 0 0 0-88.38 200.76c0 150.35 121.89 272.23 272.24 272.23s272.23-121.88 272.23-272.23a272.92 272.92 0 0 0-1.9-32.15Zm-270.33 254.22c-122.65 0-222.08-99.43-222.08-222.07S1252.65 1239 1375.3 1239s222.07 99.43 222.07 222.08-99.37 222.06-222.07 222.06Z" transform="translate(-679.63 -536.45)" style="fill:url(#R)"/></svg>