<svg xmlns="http://www.w3.org/2000/svg" viewBox="0 0 79.08 82.04"><g data-name="Layer 2"><path d="M33.61 73.93a.25.25 0 0 1-.16-.06.22.22 0 0 1 0-.32l4.84-5.36a.21.21 0 0 1 .31 0 .22.22 0 0 1 0 .32l-4.84 5.36a.21.21 0 0 1-.15.06Z" style="fill:#3f3f3f"/><rect x="41.28" y="62.13" width="4.5" height="1.26" rx=".59" transform="rotate(-20.98 43.538 62.776)" style="fill:#5c5c5c"/><path d="m40.66 59.65-.11 2.21v.23a.89.89 0 0 0 .06.35.84.84 0 0 0 1.09.47l2.88-1.14a.56.56 0 0 0 .33-.56.55.55 0 0 0-.6-.48l-1.57.19.44-1.53a8.26 8.26 0 0 1-2.52.26Z" style="fill:#7c523d"/><path d="M45.42 47.24a13.11 13.11 0 0 0-.7-2.5 12.68 12.68 0 0 0-2.91-4.44l-.49-.48-.53-.44a11.27 11.27 0 0 0-1.11-.81c-.19-.14-.39-.25-.59-.37l-.61-.34-.92-.5-7.21-3.94a4.7 4.7 0 0 0-6.8 2.87 4.72 4.72 0 0 0 3.28 5.81l7.92 2.2 1 .27.32.08a2.07 2.07 0 0 1 .33.1 5.41 5.41 0 0 1 .6.25c.1 0 .21.09.31.15l.3.17a6.63 6.63 0 0 1 2.1 1.93 7.31 7.31 0 0 1 .75 1.31 8 8 0 0 1 .45 1.44c0 .13.05.26.07.39v2.21l-.05 1-.31 6a8.26 8.26 0 0 0 2.51-.26l1.47-5.13.29-1 .14-.5.07-.24v-.28l.13-.6.07-.31v-.31l.08-.62v-.63a12.85 12.85 0 0 0 .04-2.48Z" style="fill:#d68d51"/><path d="M64.91 82a14.17 14.17 0 1 1 14.17-14.13A14.19 14.19 0 0 1 64.91 82Zm0-27.21a13 13 0 1 0 13 13 13.06 13.06 0 0 0-13-12.96Z" style="fill:#3f3f3f"/><path d="M64.91 80.67a12.8 12.8 0 1 1 12.79-12.8 12.81 12.81 0 0 1-12.79 12.8Zm0-24.92A12.12 12.12 0 1 0 77 67.87a12.14 12.14 0 0 0-12.09-12.12Z" style="fill:#baae90"/><circle cx="64.91" cy="67.87" r="2.43" style="fill:#3f3f3f"/><path d="M14.17 82a14.17 14.17 0 1 1 14.17-14.13A14.19 14.19 0 0 1 14.17 82Zm0-27.21a13 13 0 1 0 13 13 13.06 13.06 0 0 0-13-12.96Z" style="fill:#3f3f3f"/><path d="M14.17 80.67A12.8 12.8 0 1 1 27 67.87a12.81 12.81 0 0 1-12.83 12.8Zm0-24.92a12.12 12.12 0 1 0 12.12 12.12 12.14 12.14 0 0 0-12.12-12.12Z" style="fill:#baae90"/><circle cx="14.17" cy="67.87" r="2.43" style="fill:#3f3f3f"/><path d="M64.91 68.77a.89.89 0 0 1-.86-.64L53.58 32.85a.9.9 0 1 1 1.73-.51l10.46 35.28a.89.89 0 0 1-.61 1.11.73.73 0 0 1-.25.04ZM38.89 68.43a.56.56 0 0 1-.51-.32l-12-25.21a.56.56 0 0 1 1-.48l12 25.21a.57.57 0 0 1-.27.75.52.52 0 0 1-.22.05Z" style="fill:#d65b5b"/><path d="M38.89 68.43a.56.56 0 0 1-.41-.94l19.71-21.27A.56.56 0 0 1 59 47L39.3 68.25a.55.55 0 0 1-.41.18ZM14.17 68.77a.9.9 0 0 1-.68-1.49 81.52 81.52 0 0 1 20-17.14 60.3 60.3 0 0 1 23.91-8 .89.89 0 0 1 1 .79.9.9 0 0 1-.79 1c-16 1.8-30 9.82-42.79 24.54a.89.89 0 0 1-.65.3Z" style="fill:#d65b5b"/><path d="M33.4 41.23c.16-1.65-8.33-2.08-10-1.58S22 42.6 22.63 43s10.54.53 10.77-1.77Z" style="fill:#3f3f3f"/><path d="M54.45 33.16h-.16l-7.43-2.21a.56.56 0 0 1-.38-.7.58.58 0 0 1 .7-.38l7.43 2.21a.56.56 0 0 1-.16 1.1Z" style="fill:#d65b5b"/><path d="M38.89 71.72a3.85 3.85 0 1 1 3.85-3.85 3.85 3.85 0 0 1-3.85 3.85Zm0-7.25a3.4 3.4 0 1 0 3.4 3.4 3.41 3.41 0 0 0-3.4-3.4Z" style="fill:#3f3f3f"/><path d="M40.14 67.87a1.25 1.25 0 1 1-2.49 0 1.25 1.25 0 0 1 2.49 0Z" style="fill:#3f3f3f"/><path d="M17.6 28.52a16.49 16.49 0 0 1 6.66 3.6c2.77 2.28 10.18 1.21 13.32.62a.94.94 0 0 0 .64-1.41 6.72 6.72 0 0 1-1.17-4.39C37.49 24.16 38.49 15 34.52 13 29.77 15.92 17.6 28.52 17.6 28.52Z" style="fill:#578c6d"/><path d="M30.63 9.22a10.5 10.5 0 0 1-.25 2.14 1.71 1.71 0 0 0 1 1.94 8.54 8.54 0 0 0 3 .8 6.14 6.14 0 0 0 1.06-2.58c-1.36-1.92-4.81-2.3-4.81-2.3Z" style="fill:#eaa86c"/><path d="M33.87 1.22c3.76.08 4.6 2.26 4.81 3.39s.19 1.4 0 1.69a2.08 2.08 0 0 0 .4 1.51 2.8 2.8 0 0 1 .58 1 .56.56 0 0 1-.47.46.46.46 0 0 0-.43.27c-.08.16.05.43.05.57a.35.35 0 0 1-.06.17.39.39 0 0 0-.06.33.15.15 0 0 1 0 .16.6.6 0 0 0-.13.49 1.18 1.18 0 0 1 .06.7.62.62 0 0 1-.59.52 7.34 7.34 0 0 1-2.16-.15 4 4 0 0 1-1.8-1.31c-.91-.27-3-.27-3.71-1.24s-1.8-2-1.59-4.25a4.1 4.1 0 0 1 1.8-3.47 5.07 5.07 0 0 1 3.3-.84Z" style="fill:#eaa86c"/><path d="M34.86 7.13a1.39 1.39 0 0 1 1.59-1.52h.08a1.39 1.39 0 0 0 1.16-.48 1.15 1.15 0 0 1 .45-.33 1.62 1.62 0 0 0 1-2.06A2.24 2.24 0 0 0 37 1.22a1.27 1.27 0 0 1-.8-.35 3.54 3.54 0 0 0-2.74-.8c-2.39.09-3.46 2.39-4.74 3.3s-3.72-1.2-5.18-.48a4.59 4.59 0 0 0-1.27.88 1.39 1.39 0 0 1-1.39.37 3.53 3.53 0 0 0-2.88.14 4.13 4.13 0 0 0-1.54 1.94 1.4 1.4 0 0 1-.77.78 2.58 2.58 0 0 0-1.62 2.6A2 2 0 0 0 16 11.66a1.42 1.42 0 0 1 1.06.7 3.52 3.52 0 0 0 2.6 1.6 3.54 3.54 0 0 0 3-.71 1.38 1.38 0 0 1 1.63-.07 4.62 4.62 0 0 0 3.44.44 6 6 0 0 0 4.13-3.12A1.38 1.38 0 0 1 33 9.78a1.84 1.84 0 0 0 1.67-1.33 3.13 3.13 0 0 0 .19-1.32Z" style="fill:#7c523d"/><path d="M22.63 32.21s-.44 5 .66 6.88 3.3 2.81 5.61 3.15 4.62-1.8 5.17-3.15.44-5.52.44-5.52Z" style="fill:#dd9954"/><path d="M35.46 27.62c-.63 2-.61 7.56-.61 7.56s-7.76 1-12.52-2a34.24 34.24 0 0 1 2.05-11.46 19.39 19.39 0 0 0 .79-2.77 10.45 10.45 0 0 1 1.15-3.3 11 11 0 0 1 3.55-3.34 1.93 1.93 0 0 1 2.55-.31 10.87 10.87 0 0 0 1.68 1 6.28 6.28 0 0 1 2.51 4c.86 4.05-.7 9.19-1.15 10.62Z" style="fill:#e4d8b4"/><path d="M36.61 17c-.83 0-1.28-1.77-1.78-2.46a6.15 6.15 0 0 0-3.24-2 2.1 2.1 0 0 1-1.1-.72 1.94 1.94 0 0 1 1.93.15 10.87 10.87 0 0 0 1.68 1A6.28 6.28 0 0 1 36.61 17Z" style="fill:#eaa86c"/><path d="m31.92 69.34-.26 2.35v.2a.75.75 0 0 0 .43.77c1 .47 2 1 3 1.4a.53.53 0 0 0 .64-.15.54.54 0 0 0-.08-.76c-.66-.54-1.33-1.06-2-1.58l.65-1.94a6.61 6.61 0 0 1-2.38-.29Z" style="fill:#7c523d"/><path d="M37.45 48.93c-.09-.41-.19-.83-.29-1.25s-.22-.83-.35-1.24-.26-.82-.42-1.23L36 44.06l-3.19-8.41a4.87 4.87 0 0 0-.45-.88 4.71 4.71 0 1 0-7.91 5.1l4.87 7.56.55.86c.18.27.33.55.49.82s.3.57.46.85.27.58.41.88a20.28 20.28 0 0 1 1.23 3.72 20.93 20.93 0 0 1 .5 4v2c0 .65-.14 1.43-.22 2.17l-.74 6.6a6.61 6.61 0 0 0 2.34.29l2-6.09c.23-.72.47-1.4.71-2.21.12-.39.2-.79.31-1.19s.17-.8.25-1.2A26.47 26.47 0 0 0 38 54a27.07 27.07 0 0 0-.55-5.07Z" style="fill:#eaa86c"/><path d="M44.7 43.33c-1.63-4.08-7.42-6.76-8.72-8S35 30.44 35 30.44a25.38 25.38 0 0 1-6.5 0 19.58 19.58 0 0 1-5.77-2.37c-2.77 10.57 1.5 13.44 3 15 1.31 1.37 3 5.53 3.62 8.81a1.64 1.64 0 0 0 1.86 1.35A12.24 12.24 0 0 0 38 49.34c2.12-2.12 5.54-1.51 6.73-4.91a1.54 1.54 0 0 0-.03-1.1Z" style="fill:#5c5c5c"/><path d="M30.16 11.42s1.67.91 3 1.53a3.2 3.2 0 0 1 2.1 2.26c.39 1.19 1.16 7.32-1.82 9.1-3.69 2.2-9.29 3.54-17.63 4.26 5.22-5.12 6.9-4.36 7.91-6.66s1.07-7.91 6.44-10.49Z" style="fill:#83b799"/><path d="M35.33 15.83a3.61 3.61 0 0 0-2.2-2.59c-1.92-.77-5.9-.24-7.19-1.1 1.63-.53 3-1.73 3.64-1.44s1.87 1.39 2.64 1.63 3.4 1.53 3.11 3.5ZM26 27a46.12 46.12 0 0 1-12.53-.26.55.55 0 0 0-.48.93C15.61 30.26 20.8 29.19 26 27Z" style="fill:#afddc1"/><path d="m29.55 33.76-1.46 3.52a1 1 0 0 1-1.32.54l-6.17-2.56a1 1 0 0 1-.54-1.26l1.45-3.52a1 1 0 0 1 .21-.31 1 1 0 0 1 1.11-.23l6.17 2.5a1 1 0 0 1 .55 1.32Z" style="fill:#c14b48"/><path d="M21.53 30.8a44.55 44.55 0 0 0 4.39-10.42c1.29-5.25 3.73-8.34 6.46-7.47S36 19.45 34.76 23s-5.54 10.92-5.54 10.92l-.5-.14s4.6-7.55 5.53-10.93.94-8.41-2.08-9.48-5 4.45-6 8.26S22 30.8 22 30.8Z" style="fill:#c14b48"/><path d="m29.55 33.76-.64 1.53a1 1 0 0 1-1.11.24L21.63 33a1 1 0 0 1-.54-1.32l.63-1.53a1 1 0 0 1 1.11-.23L29 32.44a1 1 0 0 1 .55 1.32Z" style="fill:#d65b5b"/><path d="M38.1 25.14a8.69 8.69 0 0 1-1.7-3.08L36 20.7l-1.83-5.53a2.66 2.66 0 0 0-.16-.39A2.77 2.77 0 1 0 29 17.31l2.66 5.17.68 1.31a12.15 12.15 0 0 0 .88 1.47 13.2 13.2 0 0 0 2.27 2.5A12.63 12.63 0 0 0 40 30.23a7.85 7.85 0 0 0 1.17-2.73 9.32 9.32 0 0 1-3.07-2.36Z" style="fill:#6aa080"/><path d="m47.67 29.63-2.78-.85-1.39-.43-.7-.21-.37-.14-.3-.11a8.93 8.93 0 0 1-.9-.37 7.85 7.85 0 0 1-1.17 2.73 11.42 11.42 0 0 0 1.4.34l.4.07.36.05.72.11 1.44.2 2.88.41a1 1 0 0 0 1-.65.94.94 0 0 0-.59-1.15Z" style="fill:#eaa86c"/><path d="M40.1 27.27a5.68 5.68 0 0 1-1.22 2.36.35.35 0 0 0 .16.54l1.44.48a.34.34 0 0 0 .39-.13A8.46 8.46 0 0 0 42 28.06a.33.33 0 0 0-.18-.4L40.58 27a.35.35 0 0 0-.48.27Z" style="fill:#578c6d"/><path d="M47 29.48a4.16 4.16 0 0 1 2.38 0 1.3 1.3 0 0 1 .34 1.29 1.21 1.21 0 0 1-1.14 1c-.67 0-1.6-.14-1.76-.44a1.62 1.62 0 0 1 .18-1.85Z" style="fill:#eaa86c"/><circle cx="34.23" cy="7.73" r="2.3" style="fill:#272324"/><circle cx="34.23" cy="7.73" r="1.39" style="fill:#5c5c5c"/><path d="M35.65.88a18.15 18.15 0 0 0-.92 6.79.49.49 0 0 1-.41.51.56.56 0 0 1-.63-.5 19.27 19.27 0 0 1 .7-7.24.67.67 0 0 1 .87-.39.64.64 0 0 1 .39.83Z" style="fill:#272324"/><rect x="31.07" y="73.2" width="4.5" height="1.26" rx=".59" transform="rotate(25.92 33.323 73.82)" style="fill:#5c5c5c"/></g></svg>