<svg xmlns="http://www.w3.org/2000/svg" viewBox="0 0 78.81 85.24"><g data-name="Layer 2"><path d="M33.15 77.82a.2.2 0 0 1-.11 0 .23.23 0 0 1-.08-.31l5.94-10a.24.24 0 0 1 .31-.08.23.23 0 0 1 .08.31l-5.94 10a.23.23 0 0 1-.2.08Z" style="fill:#42363a"/><rect x="36.99" y="66.74" width="4.5" height="1.26" rx=".59" transform="rotate(15.18 39.26 67.367)" style="fill:#5c5c5c"/><path d="m39.36 65.15 1.87-7 .5-1.65a5.72 5.72 0 0 1-3.16-.36l-.07 1.37L37.28 65a3.2 3.2 0 0 0 2.08.15Z" style="fill:#664638"/><path d="m41.65 66.25-1.6-.74-.71-.32a3.2 3.2 0 0 1-2.06-.19l-.08.52v.23a.83.83 0 0 0 .68.9l1.73.32c.58.11 1.16.22 1.74.31a.54.54 0 0 0 .32-1Z" style="fill:#c14b48"/><path d="M42.86 54.29v-.28a13.79 13.79 0 0 0 0-5 14.68 14.68 0 0 0-5.34-8.73 11 11 0 0 0-1.1-.79l-.94-.62-1.7-1.11-3.4-2.23a5.1 5.1 0 0 0-1-.49 4.72 4.72 0 0 0-6 2.72A4.82 4.82 0 0 0 26.29 44L30 45.34c1.22.45 2.74 1 3.4 1.25a8.1 8.1 0 0 1 4 4 8.84 8.84 0 0 1 .74 2.81 7.84 7.84 0 0 0 4.72.89Z" style="fill:#51827c"/><path d="M38.17 53.42a2 2 0 0 1 0 .23v1.73l-.08.84a.46.46 0 0 0 .29.47 9.3 9.3 0 0 0 3.33.54.45.45 0 0 0 .41-.31l.22-.65.16-.49.16-.58c.05-.2.11-.39.15-.59l.06-.32a7.84 7.84 0 0 1-4.7-.87Z" style="fill:#659992"/><path d="M13.61 59.6a12 12 0 1 1-12 12 12 12 0 0 1 12-12Zm0-1.57a13.61 13.61 0 1 0 13.6 13.6A13.6 13.6 0 0 0 13.61 58Z" style="fill:#42363a"/><circle cx="13.61" cy="71.63" r="1.82" style="fill:#42363a"/><path d="M36.6 72.53a.91.91 0 0 1-.84-.57L25.08 44a.9.9 0 1 1 1.68-.64l10.68 27.95a.89.89 0 0 1-.51 1.16.77.77 0 0 1-.33.06Z" style="fill:#a53737"/><path d="M36.6 72.2h-23a.57.57 0 1 1 0-1.13h23a.57.57 0 1 1 0 1.13Z" style="fill:#9b3131"/><path d="M36.6 72.76a1.13 1.13 0 0 1 0-2.25c5 0 7-7.43 9-14.61 2-7.35 3.91-14.29 9.19-14.45a1.12 1.12 0 1 1 .07 2.24c-3.62.12-5.38 6.57-7.09 12.81a56.4 56.4 0 0 1-3.7 10.77c-1.96 3.73-4.39 5.49-7.47 5.49Z" style="fill:#a53737"/><path d="M27.81 66.2a.56.56 0 0 1-.52-.35A14.86 14.86 0 0 0 1.7 62.76a.57.57 0 1 1-.91-.67 16 16 0 0 1 27.54 3.33.56.56 0 0 1-.3.73.63.63 0 0 1-.22.05Z" style="fill:#d65b5b"/><path d="M65.21 59.6a12 12 0 1 1-12 12 12 12 0 0 1 12-12Zm0-1.57a13.61 13.61 0 1 0 13.6 13.6A13.6 13.6 0 0 0 65.21 58Z" style="fill:#42363a"/><path d="M50.56 67.41a.57.57 0 0 1-.54-.74 16 16 0 0 1 20.52-10.1.57.57 0 0 1 .34.72.56.56 0 0 1-.72.34A14.89 14.89 0 0 0 51.09 67a.56.56 0 0 1-.53.41Z" style="fill:#d65b5b"/><circle cx="65.21" cy="71.63" r="1.82" style="fill:#42363a"/><path d="M36.6 74.93a3.3 3.3 0 1 1 3.29-3.3 3.3 3.3 0 0 1-3.29 3.3Zm0-6.14a2.85 2.85 0 1 0 2.84 2.84 2.85 2.85 0 0 0-2.84-2.84Z" style="fill:#42363a"/><path d="M37.85 71.63a1.25 1.25 0 1 1-1.25-1.24 1.25 1.25 0 0 1 1.25 1.24Z" style="fill:#42363a"/><path d="M65.21 72.2a.57.57 0 0 1-.54-.39L52.69 35a.58.58 0 0 1 .36-.71.57.57 0 0 1 .71.36l12 36.83a.56.56 0 0 1-.36.71.51.51 0 0 1-.19.01ZM13.61 72.2a.57.57 0 0 1-.37-.14.56.56 0 0 1-.06-.79l16-18.42a.56.56 0 0 1 .85.74L14 72a.56.56 0 0 1-.39.2Z" style="fill:#a53737"/><path d="M47.1 55.79a.53.53 0 0 1-.47-.25.55.55 0 0 1 .15-.78l10.51-7a.56.56 0 0 1 .62.94l-10.5 7a.61.61 0 0 1-.31.09ZM4.89 54.35a.34.34 0 0 1-.34-.35.33.33 0 0 1 .33-.35l24.67-.8a.33.33 0 0 1 .34.33.34.34 0 0 1-.32.35l-24.67.82Z" style="fill:#a53737"/><path d="M13.42 71.94a.34.34 0 0 1-.31-.19L4.58 54.16a.34.34 0 0 1 .61-.29l8.53 17.59a.34.34 0 0 1-.16.45Z" style="fill:#9b3131"/><path d="m20.8 42.17.2.59A1.75 1.75 0 0 0 22.66 44h7.53a1.72 1.72 0 0 0-1.46-1.71l-7.09-1.08a.77.77 0 0 0-.84.96Z" style="fill:#42363a"/><path d="M55.69 36.48a4.61 4.61 0 0 1-2-.36 2 2 0 0 1-1-1.14c-.93-2.87 5.51-5.36 6.82-5.83a.56.56 0 0 1 .38 1.06c-2.81 1-6.57 3.06-6.13 4.42a.81.81 0 0 0 .45.48c1.5.75 5.44-.35 6.83-.83a.56.56 0 1 1 .37 1.06 20.41 20.41 0 0 1-5.72 1.14Z" style="fill:#9b3131"/><path d="m33.15 75.83-.2-.12 2.81-8.42A7.14 7.14 0 0 1 33 66.21l-1.85 9.14a2.63 2.63 0 0 0 2 .48Z" style="fill:#7c523d"/><path d="m34.83 76.92-1.68-1.09a2.63 2.63 0 0 1-2-.48l-.1.48V76a.77.77 0 0 0 .47.82l2.83 1.06a.54.54 0 0 0 .48-1Z" style="fill:#e86f68"/><path d="M20.83 33.42s-.44 5 .66 6.87 3.3 2.82 5.61 3.15 4.63-1.8 5.18-3.15.44-5.52.44-5.52Z" style="fill:#6da39e"/><path d="M32.68 66.36a.7.7 0 0 0 .33.7 9.91 9.91 0 0 0 2.19.94.67.67 0 0 0 .81-.4l.24-.62.51-1.35A7.13 7.13 0 0 1 33 64.26Z" style="fill:#88bcb5"/><path d="m37.34 64.07.11-.29.11-.32.22-.66c.07-.23.13-.45.19-.68a19.84 19.84 0 0 0 .69-5.61 20.42 20.42 0 0 0-.93-5.72l-.23-.7c-.08-.23-.17-.46-.26-.69-.17-.46-.38-.91-.59-1.36-.1-.23-.22-.44-.33-.66l-.32-.63-.58-1.1-4.66-8.77a5.54 5.54 0 0 0-.5-.76 4.7 4.7 0 0 0-6.79-.54 4.77 4.77 0 0 0-.47 6.57l6.17 7.62.78 1 .33.42a3.79 3.79 0 0 1 .31.39c.19.27.4.53.57.82s.19.28.27.43l.25.44a14.37 14.37 0 0 1 1.45 3.85 14.89 14.89 0 0 1 .31 4.23v.54l-.07.54v.27l-.05.31-.11.61-.11.68a7.13 7.13 0 0 0 3.72 1.37l.36-1Z" style="fill:#6da39e"/><path d="M29.23 35.53s-.29 3.16-2.95 3.45a8.58 8.58 0 0 1-.14-4.6Z" style="fill:#51827c"/><path d="M26.14 32.37s-1.51 5.46.79 8.4 8.33 10.57 8.4 14.66a60.52 60.52 0 0 1-1.22 10.42l.29.15s1.51-6.33 1.29-10.13S32.1 47 30.52 44.94s-3.88-4.67-4.24-6.68a13.61 13.61 0 0 1 .21-4.53Z" style="fill:#88bcb5"/><path d="M55.7 29.47a4.84 4.84 0 0 1 2.36-.1 1.1 1.1 0 0 1-.6 2c-.66 0-1.59 0-1.78-.29a1.26 1.26 0 0 1 .02-1.61Z" style="fill:#664638"/><path d="m56.15 29.44-7-1.76-.9-.23c-.29-.07-.56-.14-.84-.23-.55-.16-1.09-.36-1.62-.57a18.24 18.24 0 0 1-5.7-3.65l-2.65-2.58-5.35-5.22a1.78 1.78 0 0 0-.26-.22 2.76 2.76 0 1 0-3.34 4.39l5.95 4.53 3 2.29A22.13 22.13 0 0 0 41 28.32a21.61 21.61 0 0 0 3.79 1.41c.65.16 1.3.32 2 .42.33.06.67.11 1 .15l.92.12 7.37.91a2.87 2.87 0 0 0 .07-1.89Z" style="fill:#c6b054"/><path d="M55 30.25c.19-.94 0-2-.82-2.1a20.5 20.5 0 0 1-3.18-.34 65 65 0 0 0-6.19-2.43c-2.15-.62-3.25-1.21-6.29-4.64s-7.42-8.25-10.28-6 1 6.6 4.16 8.44S37.28 27 39 28.25a18.66 18.66 0 0 0 7.88 2.6 53.58 53.58 0 0 1 6.07.9 1.73 1.73 0 0 0 2.05-1.5Z" style="fill:#af9a3f"/><path d="M32.3 14.16a15 15 0 0 1-2.94-1.92 12.67 12.67 0 0 0-1.28 1.26 10.87 10.87 0 0 0-3.55 3.34 10.63 10.63 0 0 0-1.15 3.3 20.92 20.92 0 0 1-.79 2.78 32.32 32.32 0 0 0-2.51 10.23 1.59 1.59 0 0 0 .92 1.53c3.38 1.65 8.23 1.72 10.82 1.62a1.75 1.75 0 0 0 1.68-1.86 19.68 19.68 0 0 1 .2-5.62c.6-2.01 3.44-11.4-1.4-14.66Z" style="fill:#e2cd6d"/><path d="M32.07 2.42c3.77.09 4.6 2.26 4.82 3.39s.19 1.4 0 1.7A2.08 2.08 0 0 0 37.32 9a3 3 0 0 1 .58 1.05c0 .2-.29.45-.47.45a.48.48 0 0 0-.43.27c-.08.16 0 .43 0 .58a.44.44 0 0 1-.06.17.37.37 0 0 0-.06.32.24.24 0 0 1 0 .17.55.55 0 0 0-.13.48 1.19 1.19 0 0 1 .06.7.61.61 0 0 1-.6.52 7.25 7.25 0 0 1-2.15-.14 4 4 0 0 1-1.8-1.32c-.92-.27-3-.27-3.71-1.24s-1.81-2-1.59-4.25a4.08 4.08 0 0 1 1.8-3.47 5.18 5.18 0 0 1 3.31-.87Z" style="fill:#7c523d"/><path d="M33.63 12.52c-1.34-1.75-4.79-2.1-4.79-2.1a6.8 6.8 0 0 1-.67 3l.24.16c.07.39 2.05 1.06 2.78 1.47s1.62.82 1.66.24c0-.28.11-.24-.17-.52a4.9 4.9 0 0 0 .95-2.25Z" style="fill:#7c523d"/><path d="m31.88 7.18 3 .32a2.72 2.72 0 0 1 1.58.11.72.72 0 0 1 .33 0 .14.14 0 0 1 .11.13s0 .19 0 .28a.16.16 0 0 1-.12 0 .34.34 0 0 0-.31.27v.32a.5.5 0 0 1-.34.4 1.94 1.94 0 0 1-.93 0 .56.56 0 0 1-.39-.52.58.58 0 0 0-.56-.49l-2.51-.26Z" style="fill:#e2cd6d"/><path d="M35.05 7.81c.24-.17 1.09-.15 1.2.09a.91.91 0 0 1-.18.93c-.25.23-1 .15-1.06-.14s-.13-.78.04-.88ZM29.51 27.41c-3.88 3.59-7.9.28-8.69-1.51a10.67 10.67 0 0 1-.66-6 4.27 4.27 0 0 1 .36-1 3.36 3.36 0 0 1 1.88-1.65c.93.36.86.94.86.94a28.25 28.25 0 0 0 6.25 9.22Z" style="fill:#42363a"/><path d="M33.82 22.3c-1 2.52-4.31 5.11-4.31 5.11l-2.44-.58s2.8-.43 5.46-4.74a6.58 6.58 0 0 0 .33-6.9c0-.21.07-.2-.18-.45.08-.12.2-.3.34-.53 2.22 2.05 1.78 5.65.8 8.09Z" style="fill:#42363a"/><path d="M23.54 26.4a7.77 7.77 0 0 1-2-2 9.92 9.92 0 0 1-1.38-4.49 4.27 4.27 0 0 1 .36-1A9.26 9.26 0 0 0 22 24a19.83 19.83 0 0 0 1.79 2 .23.23 0 0 1-.25.4Z" style="fill:#e2cd6d"/><path d="M33 15.48c.36-.28-.18-.9-.18-.9l-.32.42a7.07 7.07 0 0 1-2.92-1.76c-1-1.18-6.39-.18-7.33.11s-1.83.65-1.79 1.44 1.72 4.09 3.09 4.31 3-3.81 4.49-4.17a4.63 4.63 0 0 1 3.45.33c.68.4.97.61 1.51.22Z" style="fill:#c6b054"/><path d="M32.48 7.4A1.44 1.44 0 0 1 33 9a1.4 1.4 0 0 1-.67.92 1 1 0 0 0-.51 1.08 1.85 1.85 0 0 1-.49 2 3.25 3.25 0 0 1-2.48.72 1 1 0 0 0-.56.11c-.67.38-2.45 1.17-3.33-.45a2.48 2.48 0 0 1-.29-2.21.91.91 0 0 0-.32-1.17 2.19 2.19 0 0 1-1-2.27 2.67 2.67 0 0 1 1.39-2 1 1 0 0 0 .49-1.06 2.2 2.2 0 0 1 .47-2.18 2.36 2.36 0 0 1 1.88-.65.9.9 0 0 0 .83-.36A3.18 3.18 0 0 1 31.29 0a3.34 3.34 0 0 1 2.15 1.06 1 1 0 0 0 1.05.29 2.25 2.25 0 0 1 1.73 0 1.51 1.51 0 0 1 .85 1.44 1 1 0 0 0 .25.66 1.55 1.55 0 0 1 .29 2 1.82 1.82 0 0 1-1.87.44.92.92 0 0 0-1.1.74 1.27 1.27 0 0 1-.38.73 1.48 1.48 0 0 1-1.78.04ZM58.13 43.17l1.28 5.5A1.59 1.59 0 0 0 61 49.9h4.53a1.59 1.59 0 0 0 1.57-1.39l.73-5.68A1.58 1.58 0 0 0 66.17 41l-6.54.18a1.58 1.58 0 0 0-1.5 1.99Z" style="fill:#42363a"/><path d="M59 45.18h-3.42a.45.45 0 0 1-.45-.45.45.45 0 0 1 .45-.45H59a.45.45 0 0 1 .45.45.46.46 0 0 1-.45.45Z" style="fill:#42363a"/><path d="m44.68 28.73-.1 1.46L44.4 33l-.08 1.21a.61.61 0 0 1-.61.57h-1.93a.62.62 0 0 1-.61-.55L41.05 33l-.27-2.77-.15-1.44a.62.62 0 0 1 .61-.67h2.83a.62.62 0 0 1 .61.61Z" style="fill:#baae90"/><path d="M44.83 28.91H40.4a.13.13 0 0 1-.13-.16l.16-.62a.13.13 0 0 1 .13-.1h4.12a.12.12 0 0 1 .12.1l.16.62a.13.13 0 0 1-.13.16Z" style="fill:#7f6a72"/><path style="fill:#6aa080" d="m44.58 30.19-.18 2.77h-3.35l-.28-2.77h3.81z"/><path d="M40.5 32a4.38 4.38 0 0 1 2.32.05 1.1 1.1 0 0 1 .34 1.16 1.07 1.07 0 0 1-1.09.87c-.65 0-1.55-.14-1.72-.41A1.39 1.39 0 0 1 40.5 32Z" style="fill:#7c523d"/><path d="m40.38 32-5.47-1.19a4.55 4.55 0 0 1-1.84-.95 4.32 4.32 0 0 1-1.16-1.58 4 4 0 0 1-.3-1.82c0-.15 0-.29.05-.44l.1-.7.24-1.41.76-5.54a2.3 2.3 0 0 0 0-.45 2.77 2.77 0 1 0-5.53.15l.15 5.59V25.76c0 .3 0 .62.06.92a8.12 8.12 0 0 0 1.25 3.4 8 8 0 0 0 2.56 2.42 7.68 7.68 0 0 0 3.29 1l5.58.29a1.14 1.14 0 0 0 .26 0 2.42 2.42 0 0 0 0-1.79Z" style="fill:#af9a3f"/><path d="M39.57 32.89a1.82 1.82 0 0 0-1.77-2.25c-1.72-.1-4.07 0-5-1.58s-1.06-2.11-.58-4.41a32.85 32.85 0 0 0 .77-6.8A3 3 0 0 0 30.38 15c-2-.24-3.69 1.15-3.41 4.46s-.19 7.38.43 9.1 2.11 4.41 4.27 4.89 3 .05 4.21.43 3.55.83 3.69-.99Z" style="fill:#c6b054"/><rect x="30.29" y="77.09" width="4.5" height="1.26" rx=".59" transform="rotate(24.38 32.535 77.713)" style="fill:#5c5c5c"/></g></svg>