<svg xmlns="http://www.w3.org/2000/svg" viewBox="0 0 80.18 85.21"><g data-name="Layer 2"><path d="M40.31 76.78 41 75c-.74-.07-1.47-.19-2.23-.26l-.55 2.4a4.62 4.62 0 0 0 2.09-.36Z" style="fill:#edb09d"/><path d="M42.86 77c-.85-.09-1.7-.16-2.55-.23a4.62 4.62 0 0 1-2.1.39v.26a1 1 0 0 0 0 .25.81.81 0 0 0 .89.75l3.83-.33a.55.55 0 0 0 .5-.49.54.54 0 0 0-.57-.6ZM46.48 56.14a17.74 17.74 0 0 0-.67-3.59l-.28-.88-.33-.86c-.11-.29-.24-.57-.37-.85s-.26-.56-.41-.84A19.8 19.8 0 0 0 42.36 46c-.2-.25-.42-.48-.62-.72l-.32-.35-.28-.3-1.06-1.14L38 41.2l-8.5-9.14a5.35 5.35 0 0 0-.55-.51 4.82 4.82 0 0 0-6.9 1 4.9 4.9 0 0 0 1.06 6.65l9.72 7.62 2.46 1.92 1.22 1 .3.23.23.19c.16.13.33.25.48.39a13.91 13.91 0 0 1 1.69 1.82c.13.17.23.35.36.52a4.79 4.79 0 0 1 .34.53l.33.55.28.57a12.71 12.71 0 0 1 .88 2.42c.12.42.17.85.26 1.29l.07.65v.66a13.28 13.28 0 0 1-.13 2.67l-.12.67v.17l-.05.19-.08.38-.35 1.49-2.5 9.07a.92.92 0 0 0 .5 1.1 3.26 3.26 0 0 0 1.39.23 1.45 1.45 0 0 0 1.3-1l2.7-7.77.68-2 .14-.36.08-.18.11-.22.29-.83a17.58 17.58 0 0 0 .75-3.47l.05-.45v-.45c0-.29 0-.6.05-.9 0-.55.01-1.16-.06-1.76Z" style="fill:#42363a"/><path d="M15.85 85.21A14.17 14.17 0 1 1 30 71a14.19 14.19 0 0 1-14.15 14.21Zm0-27.21a13 13 0 1 0 13 13 13.06 13.06 0 0 0-13-13Z" style="fill:#272324"/><path d="M15.85 84.15A13.11 13.11 0 1 1 29 71a13.12 13.12 0 0 1-13.15 13.15Zm0-25.55A12.44 12.44 0 1 0 28.29 71a12.45 12.45 0 0 0-12.44-12.4Z" style="fill:#dd9954"/><path d="M.56 67.61a.36.36 0 0 1-.14 0 .55.55 0 0 1-.4-.68 16.36 16.36 0 0 1 30.36-3.39.57.57 0 0 1-.24.76.55.55 0 0 1-.76-.24 15.24 15.24 0 0 0-28.27 3.13.56.56 0 0 1-.55.42Z" style="fill:#51827c"/><path d="M18.13 71a2.29 2.29 0 1 1-2.28-2.28A2.28 2.28 0 0 1 18.13 71ZM66 85.21A14.17 14.17 0 1 1 80.18 71 14.19 14.19 0 0 1 66 85.21ZM66 58a13 13 0 1 0 13 13 13.06 13.06 0 0 0-13-13Z" style="fill:#272324"/><path d="M66 84.15A13.11 13.11 0 1 1 79.13 71 13.12 13.12 0 0 1 66 84.15Zm0-25.55A12.44 12.44 0 1 0 78.45 71 12.45 12.45 0 0 0 66 58.6Z" style="fill:#dd9954"/><circle cx="66.01" cy="71.04" r="2.28" style="fill:#272324"/><path d="M51 66.81h-.17a.57.57 0 0 1-.37-.71 16.36 16.36 0 0 1 25.36-8.16.57.57 0 0 1 .12.79.56.56 0 0 1-.79.11 15.25 15.25 0 0 0-23.62 7.6.55.55 0 0 1-.53.37Z" style="fill:#51827c"/><path d="M66 71.83a.76.76 0 0 1-.66-.37C65 71 57.47 58.8 56.46 49.1a141 141 0 0 1-.87-15.91.79.79 0 1 1 1.57 0A138.76 138.76 0 0 0 58 48.94c1 9.34 8.58 21.56 8.66 21.68a.79.79 0 0 1-.66 1.21ZM40 71.83a.78.78 0 0 1-.71-.45L25.63 43a.77.77 0 0 1 .37-1 .78.78 0 0 1 1.05.36L40.7 70.7a.78.78 0 0 1-.36 1 .84.84 0 0 1-.34.13Z" style="fill:#6da39e"/><path d="m40.06 71.85-24.21-.18a.35.35 0 0 1-.34-.34.34.34 0 0 1 .34-.34l24.22.19a.34.34 0 0 1 0 .67Z" style="fill:#6da39e"/><path d="M15.85 71.6a.53.53 0 0 1-.34-.11.55.55 0 0 1-.11-.78L30 51a.56.56 0 0 1 .9.68l-14.6 19.7a.58.58 0 0 1-.45.22ZM34.46 60.11a.57.57 0 0 1-.5-.3.56.56 0 0 1 .23-.76L56.8 46.8a.56.56 0 0 1 .54 1L34.72 60a.48.48 0 0 1-.26.11ZM40 71.6a.57.57 0 0 1-.36-.13.56.56 0 0 1-.07-.79L57 50a.56.56 0 0 1 .87.72L40.43 71.4a.57.57 0 0 1-.43.2Z" style="fill:#6da39e"/><path d="m29.52 43.7-7.42-.87a1.29 1.29 0 0 1-1.1-1.44 1.28 1.28 0 0 1 1.43-1.13l7.43.87A1.29 1.29 0 0 1 31 42.56a1.3 1.3 0 0 1-1.48 1.14Z" style="fill:#dd9954"/><path d="M56.24 33.77a.51.51 0 0 1-.29-.08.57.57 0 0 1-.25-.63 2.64 2.64 0 0 0-.57-2.26c-.78-.89-2.69-1.82-7.4-1.23a.55.55 0 0 1-.62-.48.56.56 0 0 1 .48-.63c4.19-.53 7 0 8.4 1.61a3.46 3.46 0 0 1 .81 1.66c.88-1.14 1.8-2.77 1.31-4-.43-1.07-2.16-2.35-8-2.35a.57.57 0 1 1 0-1.13c5.22 0 8.17 1 9 3.06 1.11 2.77-2.37 6.15-2.52 6.3a.58.58 0 0 1-.35.16Z" style="fill:#6da39e"/><path d="M40 75.45A4.41 4.41 0 1 1 44.4 71a4.41 4.41 0 0 1-4.4 4.45Zm0-8.14A3.73 3.73 0 1 0 43.73 71 3.74 3.74 0 0 0 40 67.31Z" style="fill:#272324"/><path d="M41.24 71A1.25 1.25 0 1 1 40 69.79 1.25 1.25 0 0 1 41.24 71Z" style="fill:#272324"/><path d="M13.69 26.31a6.54 6.54 0 0 1 4 2.48c1.73 2.21 7.67 7.48 12.75 7.39a59.46 59.46 0 0 0 8-.7.83.83 0 0 0 .67-1c-.41-1.58-1.1-5-.29-7.3 1.09-3.05 2.48-10 .9-12.11-5.24 1.37-26.03 11.24-26.03 11.24Z" style="fill:#5c5c5c"/><path d="M37.43 13.11 49 19l-2.57 2.8-5.08-12A.93.93 0 0 1 43 9l6.83 11a1.78 1.78 0 0 1-2.11 2.62l-.22-.08-12.2-4.35A2.77 2.77 0 0 1 37.11 13Z" style="fill:#272324"/><path d="M35.87 9.4a8.08 8.08 0 0 1-.67 3.26 8.62 8.62 0 0 0 4.41 1.62 6.17 6.17 0 0 0 1-2.58c-1.29-1.92-4.74-2.3-4.74-2.3Z" style="fill:#ffc9b6"/><path d="M22.1 28.94c-.69 2.14-1.84 4.59-1.37 6.88s2.64 3.18 4.75 3.78c2.39.72 4.65 0 5.67-1.72a23.15 23.15 0 0 0 1.94-4.18c-3.69-1.58-7.3-3.17-10.99-4.76Z" style="fill:#272324"/><path d="M37.64 13.23A14 14 0 0 0 39.27 16H40a6.92 6.92 0 0 0-1.11-2.7c-.43-.51-.88-1-1.3-1.47a2 2 0 0 0-2-.63 5 5 0 0 0 2.05 2.03Z" style="fill:#ffc9b6"/><path d="M38.75 15.19c-.06-.13-.11-.26-.16-.39a6 6 0 0 0-2.33-2.86 1.57 1.57 0 0 1-.67-.78 2 2 0 0 0-.49.19h-.06a11.54 11.54 0 0 0-4.4 2.32 11.14 11.14 0 0 0-2.06 2.88A26.16 26.16 0 0 1 27 19.09 42.59 42.59 0 0 0 22.22 28a2.63 2.63 0 0 0 .82 3 22.28 22.28 0 0 0 7.35 3.72A2.68 2.68 0 0 0 33.72 33a18.9 18.9 0 0 1 2.34-5.29C37.84 24.87 40.77 20.2 40 16a1.36 1.36 0 0 1-1.25-.81Z" style="fill:#e4d8b4"/><path d="M39.39 1.26c3.77.08 4.6 2.26 4.82 3.39s.19 1.39 0 1.69.14 1.16.41 1.51a2.75 2.75 0 0 1 .57 1.05c0 .2-.28.45-.47.45a.49.49 0 0 0-.43.27c-.08.16.06.43.06.58a.34.34 0 0 1-.07.17.44.44 0 0 0-.06.32.17.17 0 0 1 0 .17.59.59 0 0 0-.12.49 1.25 1.25 0 0 1 0 .69.61.61 0 0 1-.59.52 7.25 7.25 0 0 1-2.15-.14 3.94 3.94 0 0 1-1.8-1.32c-.92-.27-3-.27-3.72-1.23s-1.8-2-1.58-4.26a4.08 4.08 0 0 1 1.8-3.47 5.12 5.12 0 0 1 3.33-.88ZM38.76 62.65l1.17-2.31a13.06 13.06 0 0 1-2.93 0l-.81 2.81a9.19 9.19 0 0 0 2.57-.5Z" style="fill:#ffc9b6"/><path d="m41.15 62.67-2.15.15h-.32l.1-.2a9.19 9.19 0 0 1-2.57.54l-.11.41-.06.19a1 1 0 0 0 0 .5.93.93 0 0 0 1.14.64l2.08-.6c.7-.19 1.39-.39 2.08-.6a.54.54 0 0 0-.18-1.06ZM44.08 44.79A13.16 13.16 0 0 0 43 41.93c-.12-.23-.26-.45-.39-.67a7.48 7.48 0 0 0-.43-.66 12.92 12.92 0 0 0-1-1.24l-.54-.59-.58-.54a12.17 12.17 0 0 0-1.25-1 6 6 0 0 0-.67-.45l-.69-.41-1.07-.62L28 31a5.54 5.54 0 0 0-.82-.37 4.7 4.7 0 0 0-5.94 2.85 4.8 4.8 0 0 0 3 6.09l9 3.08 1.12.38.37.14a2.46 2.46 0 0 1 .38.14 4.84 4.84 0 0 1 .72.36l.36.21.33.24a6.54 6.54 0 0 1 .65.53 4.11 4.11 0 0 1 .29.3c.1.1.2.2.29.31a7.18 7.18 0 0 1 .95 1.46 8 8 0 0 1 .63 1.67l.09.45c0 .15.06.3.07.45a7.25 7.25 0 0 1 0 .93v.94a7.69 7.69 0 0 1-.16.94c0 .08 0 .15-.06.24l-.08.29-.16.58-.33 1.16-1.85 5.3a.91.91 0 0 0 .48 1.14 4.37 4.37 0 0 0 2.08.45 1.13 1.13 0 0 0 .91-.69l1.8-4.24.68-1.64.27-.53.14-.27.14-.33a10.51 10.51 0 0 0 .53-1.35l.22-.7.15-.72a10.2 10.2 0 0 0 .21-1.47 6.12 6.12 0 0 0 0-.74v-.75a13.88 13.88 0 0 0-.38-3.04Z" style="fill:#272324"/><path d="m37.71 16.32.34 5.68.08 1.41v.52c0 .15 0 .29.07.44a3.22 3.22 0 0 0 .29.84A3.49 3.49 0 0 0 39 26c.09.12.22.22.33.34a3.47 3.47 0 0 0 .37.3 3.91 3.91 0 0 0 1.86.71H42.24l.71.05 5.63.42a.94.94 0 0 1 0 1.87L43 30.2l-.7.06h-.73a7.18 7.18 0 0 1-3.48-.66 7.67 7.67 0 0 1-.8-.43 7.81 7.81 0 0 1-.75-.53 7.69 7.69 0 0 1-1.29-1.32 8.15 8.15 0 0 1-.94-1.62 9.44 9.44 0 0 1-.32-.89c-.08-.31-.16-.65-.2-.84l-.31-1.38-1.24-5.51a2.76 2.76 0 1 1 5.39-1.22 2.36 2.36 0 0 1 .08.46Z" style="fill:#ffc9b6"/><path d="M45.93 27.16c-2.7-.15-4.83-.37-6.27-1.16s-1.58-9.34-1.58-9.34-.1-3.6-3.55-3.21-2.49 4-2.16 5.84 1.44 7 3.5 9.53 5.09 2.33 10 1.7a4 4 0 0 0 .06-3.36Z" style="fill:#272324"/><path d="M46.94 27.58a.74.74 0 0 0-.62-.4h-.39a4 4 0 0 1 0 3.36l.43-.05a.9.9 0 0 0 .71-.55 2.81 2.81 0 0 0-.13-2.36Z" style="fill:#e4d8b4"/><path d="M42.87 3.17a3 3 0 0 0-2.78.05c-.67.57-.19 2.06-.05 2.63a3.58 3.58 0 0 1 .08.43v.29c0 .26-.08.45-.24.48a1.24 1.24 0 0 1-.68-.19 1.21 1.21 0 0 0-.2-.28 1.35 1.35 0 0 0-.33-.29.62.62 0 0 0-.75 0c-.51.4-.16 1.32.24 1.74a1.07 1.07 0 0 1 .26 1.07c-.23.67-.73.77-.88 1.17s-2 .14-1.92-.29a2.72 2.72 0 0 0-.81-1.63 5.32 5.32 0 0 1-1.15-4c.14-2.26 1.29-2.3 2.39-3.12C37.79-.62 41.38-.09 43 .87s.39 2.64-.13 2.3Z" style="fill:#7c523d"/><path d="M48.5 27.8a4 4 0 0 1 2.23 0A1.19 1.19 0 0 1 51 29a1.11 1.11 0 0 1-1.06.92c-.63 0-1.49-.12-1.65-.4a1.56 1.56 0 0 1 .21-1.72Z" style="fill:#ffc9b6"/><path d="M39.88 5.22s.36 1.33.61 2.62.62 2.59 1.33 2.7 1-.51 1.3-.76 1.29-.47 1.33-.14 0 .57-.43.57a.82.82 0 0 0-.76.65c0 .25 0 .75.25.75s.15-.46.54-.43.54 1.58 0 1.83a4.24 4.24 0 0 1-2.69 0c-.72-.32-2-1.22-2.27-2s-.43-1.3-.09-1.8a6.08 6.08 0 0 0 .28-2.35 4.5 4.5 0 0 1 .6-1.64Z" style="fill:#7c523d"/><path d="M27.19 30.58a14.38 14.38 0 0 0-5.09-1.64 5.68 5.68 0 0 0 1.15 4.41Z" style="fill:#272324"/><path d="M35.79 10.56s1.67 2.76 4.19 3.11a6.43 6.43 0 0 1 .13 2.72s-4.37-3-5-5a2.06 2.06 0 0 1 .68-.83Z" style="fill:#c6b999"/><path d="M35.3 10.74a16.8 16.8 0 0 0 2.2 3.11c1.25 1.34 1.29 5.46.14 7.19-1 1.55-14.68 1.51-22.34 4.82a.48.48 0 0 1-.52-.8C19.3 20.85 27 18.89 28.06 17c1.25-2.24 1.94-4.63 7.24-6.26Z" style="fill:#272324"/><path d="M28.92 22.71S18.58 23.6 12 20.08a1.13 1.13 0 0 0-1.64.88 7 7 0 0 0 1.77 5.21 2.23 2.23 0 0 0 2 .78 49.63 49.63 0 0 0 14.79-4.24ZM37.37 15.85s-1.26-1.36-2.37-2.4a4.4 4.4 0 0 1-1.18-1.84.49.49 0 0 1 .27-.62 3.71 3.71 0 0 1 .8-.3.66.66 0 0 1 .72.26c.72 1 2.47 3.37 2.47 3.37Z" style="fill:#757575"/><path d="m37.81 14.31-1 1.89a.66.66 0 0 0 0 .65 11.81 11.81 0 0 1 1.35 3 7.6 7.6 0 0 0-.08-5.49.15.15 0 0 0-.27-.05Z" style="fill:#5c5c5c"/><path d="M39.84 15a2.69 2.69 0 0 1-.33.47.82.82 0 0 0-.16.81 1.31 1.31 0 0 0 .35.63h.39a2.6 2.6 0 0 0 .21-1.92.26.26 0 0 0-.46.01Z" style="fill:#c14b48"/><path d="M39.66 16.68a6.29 6.29 0 0 1-8.48 2c-5.42-2.73-9.11-2.2-9.11-2.2l-3 1.72 3 1.78a14.52 14.52 0 0 1 9.25.86c5 2.16 8.19-2.35 8.77-3.83-.09-.86-.43-.33-.43-.33Z" style="fill:#c14b48"/><path d="M43 7.55h-.41a.82.82 0 0 1-.8-.64l-.1-.48a.14.14 0 0 1 0-.12.13.13 0 0 1 .11 0h1.72a.16.16 0 0 1 .11 0 .15.15 0 0 1 0 .11v.55a.67.67 0 0 1-.63.58Zm-1-1 .06.31a.54.54 0 0 0 .52.42H43a.38.38 0 0 0 .37-.36v-.4Z" style="fill:#272324"/><path d="M44.3 6.83h-.79a.14.14 0 1 1 0-.28h.79a.14.14 0 1 1 0 .28ZM41.93 6.4a.15.15 0 0 1-.14.15H39a1.35 1.35 0 0 0-.33-.29h3.11a.13.13 0 0 1 .15.14Z" style="fill:#272324"/><rect x="38.61" y="78.22" width="4.5" height="1.26" rx=".59" transform="rotate(-5.93 40.923 78.876)" style="fill:#5c5c5c"/><path d="M40.9 78.85a.22.22 0 0 1-.22-.19L39 65.19a.23.23 0 1 1 .45 0l1.68 13.41a.23.23 0 0 1-.2.25Z" style="fill:#272324"/><rect x="36.98" y="64.23" width="4.5" height="1.26" rx=".59" transform="rotate(-12.21 39.21 64.857)" style="fill:#5c5c5c"/></g></svg>