<svg xmlns="http://www.w3.org/2000/svg" viewBox="0 0 112.52 81.75"><g data-name="Layer 2"><path d="M70.73 74.09a.24.24 0 0 1-.14 0 .21.21 0 0 1 0-.31l4.31-5.85a.22.22 0 0 1 .31 0 .24.24 0 0 1 0 .32L70.91 74a.24.24 0 0 1-.18.09ZM31.77 74.09a.24.24 0 0 1-.13 0 .23.23 0 0 1 0-.32l4.45-5.84a.23.23 0 0 1 .32 0 .22.22 0 0 1 0 .31L32 74a.24.24 0 0 1-.23.09Z" style="fill:#272324"/><path d="M81.13 44.57a12.29 12.29 0 0 0-2.79-4.45c-.33-.3-.65-.62-1-.9a12.64 12.64 0 0 0-1.12-.8l-.58-.36c-.2-.12-.41-.21-.62-.31L74 37.24l-7.18-3.4a5.78 5.78 0 0 0-1-.35 4.72 4.72 0 1 0-1.94 9.23l7.77 1.63.48.11.31.06h.3l.29.09a4.5 4.5 0 0 1 .58.21c.19.07.36.18.56.27A6.16 6.16 0 0 1 76 46.93a6 6 0 0 1 .91 2 8.87 8.87 0 0 0 4.83-1.73 11 11 0 0 0-.61-2.63Z" style="fill:#d38862"/><path d="M81.74 47.25A8.87 8.87 0 0 1 76.91 49a5.41 5.41 0 0 1 .12.58v.73a4.82 4.82 0 0 1 0 .76 1.27 1.27 0 0 0 0 .2v.24L77 52l-.13 1-1 7.45a2.7 2.7 0 0 0 2.32.37l-.25-.14 2.59-6.74.36-.93.18-.46.09-.23.09-.29a9.8 9.8 0 0 0 .32-1.18l.12-.61c0-.21 0-.41.07-.62a11.44 11.44 0 0 0-.02-2.37Z" style="fill:#e4d8b4"/><path d="m75.86 60.42-.06.42v.23a.83.83 0 0 0 .6.9c1.09.3 2.17.61 3.27.89a.54.54 0 0 0 .41-1l-1.87-1.09a2.7 2.7 0 0 1-2.35-.35Z" style="fill:#e86f68"/><path d="M73.5 36.57a1.54 1.54 0 0 1 .89 1.19 8.41 8.41 0 0 1-.23 3.82 7.62 7.62 0 0 1-1.65 2.67 1.54 1.54 0 0 1-1.44.45l-7.63-1.59A5 5 0 0 1 60 36.62c1.39-5.26 6.83-3.14 6.83-3.14Z" style="fill:#42363a"/><path d="m40.76 53.62.36-.93.17-.46.09-.23.09-.29a9.8 9.8 0 0 0 .32-1.18l.12-.61c0-.21.05-.41.07-.62a11.25 11.25 0 0 0-.62-5 12.17 12.17 0 0 0-2.79-4.44c-.33-.31-.66-.63-1-.91a11.19 11.19 0 0 0-1.11-.8l-.59-.36-.61-.31-1.08-.48L27 33.56a5.18 5.18 0 0 0-1-.35 4.71 4.71 0 0 0-2 9.23l7.77 1.63.48.1.31.06.3.06.29.08a4.5 4.5 0 0 1 .58.21c.19.07.37.19.56.28a5.93 5.93 0 0 1 1.92 1.79 6.16 6.16 0 0 1 1 2.62l.06.37V50a4.7 4.7 0 0 1 0 .75 1.34 1.34 0 0 1 0 .2v.25l-.07.49-.13 1-.43 3.31a6.81 6.81 0 0 0 2.88.84Z" style="fill:#936652"/><path d="m38.24 60.19 1.28-3.33a6.81 6.81 0 0 1-2.88-.86l-.53 4a6.33 6.33 0 0 0 2.13.19Z" style="fill:#e4d8b4"/><path d="M40.29 61.59c-.7-.42-1.41-.82-2.12-1.23l.07-.17a6.33 6.33 0 0 1-2.13-.19l-.07.54v.23a.82.82 0 0 0 .6.9c1.09.3 2.17.61 3.27.9a.56.56 0 0 0 .6-.25.54.54 0 0 0-.22-.73Z" style="fill:#272324"/><path d="M35.6 37.18a1.6 1.6 0 0 1 .9 1.63 13.93 13.93 0 0 1-.76 3.2 7.44 7.44 0 0 1-1.3 2.28 1.51 1.51 0 0 1-1.47.48c-1.94-.42-7-1.51-9.2-2-2.78-.63-5-3.25-3.43-6.92s4.66-3.54 6.74-2.65c1.58.68 6.42 2.98 8.52 3.98Z" style="fill:#e86f68"/><path d="M98.36 81.75a14.17 14.17 0 1 1 14.16-14.17 14.18 14.18 0 0 1-14.16 14.17Zm0-27.21a13 13 0 1 0 13 13 13.06 13.06 0 0 0-13-13Z" style="fill:#272324"/><path d="M98.36 80.76a13.18 13.18 0 1 1 13.17-13.18 13.19 13.19 0 0 1-13.17 13.18Zm0-25.68a12.51 12.51 0 1 0 12.5 12.5 12.52 12.52 0 0 0-12.5-12.5Z" style="fill:#c6b999"/><circle cx="98.36" cy="67.58" r="1.82" style="fill:#272324"/><path d="M14.17 81.75a14.17 14.17 0 1 1 14.17-14.17 14.18 14.18 0 0 1-14.17 14.17Zm0-27.21a13 13 0 1 0 13 13 13.06 13.06 0 0 0-13-13Z" style="fill:#272324"/><path d="M14.17 80.76a13.18 13.18 0 1 1 13.18-13.18 13.19 13.19 0 0 1-13.18 13.18Zm0-25.68a12.51 12.51 0 1 0 12.5 12.5 12.52 12.52 0 0 0-12.5-12.5Z" style="fill:#c6b999"/><circle cx="14.17" cy="67.58" r="1.82" style="fill:#272324"/><path d="M98.36 68.26a.68.68 0 0 1-.62-.4L83.38 36.24a.68.68 0 0 1 1.23-.56L99 67.31a.68.68 0 0 1-.34.89.66.66 0 0 1-.3.06ZM57.55 68.26a.67.67 0 0 1-.61-.4L42.58 36.24a.68.68 0 0 1 1.23-.56l14.36 31.63a.68.68 0 0 1-.34.89.67.67 0 0 1-.28.06Z" style="fill:#5c5c5c"/><path d="M75.52 68.28a.36.36 0 0 1-.2-.06.34.34 0 0 1-.08-.47l14-19.62a.34.34 0 1 1 .55.39l-14 19.62a.33.33 0 0 1-.27.14Z" style="fill:#5c5c5c"/><path d="M75.31 68.26h-61a.68.68 0 1 1 0-1.35h61a.68.68 0 0 1 0 1.35Z" style="fill:#5c5c5c"/><path d="M75.31 68.15a.56.56 0 0 1-.51-.33L63.65 44.25a.56.56 0 1 1 1-.48l11.17 23.57a.57.57 0 0 1-.27.75.53.53 0 0 1-.24.06ZM36.39 68.15a.54.54 0 0 1-.5-.33L24.74 44.25a.56.56 0 0 1 1-.48L36.9 67.34a.55.55 0 0 1-.27.75.48.48 0 0 1-.24.06Z" style="fill:#5c5c5c"/><path d="M27.3 48.7a.34.34 0 0 1 0-.67l62-.43a.34.34 0 0 1 .34.34.32.32 0 0 1-.33.34l-62 .42Z" style="fill:#5c5c5c"/><path d="M13.93 67.78a.36.36 0 0 1-.2-.06.35.35 0 0 1-.08-.47L27 48.17a.34.34 0 1 1 .55.39L14.2 67.63a.32.32 0 0 1-.27.15ZM32.57 59.33a.33.33 0 0 1-.33-.27.35.35 0 0 1 .27-.4L89.44 48a.34.34 0 1 1 .13.67L32.63 59.33Z" style="fill:#5c5c5c"/><path d="m19 42.31.19.59a1.76 1.76 0 0 0 1.67 1.21h7.54a1.72 1.72 0 0 0-1.47-1.71l-7.09-1.08a.76.76 0 0 0-.84.99ZM58 42.31l.19.59a1.76 1.76 0 0 0 1.67 1.21h7.53A1.73 1.73 0 0 0 66 42.4l-7.09-1.08a.76.76 0 0 0-.91.99Z" style="fill:#757575"/><path d="M50.37 36.14H39A.56.56 0 0 1 39 35h11.37a.56.56 0 1 1 0 1.12ZM91.23 36.14H79.87a.56.56 0 1 1 0-1.12h11.36a.56.56 0 0 1 0 1.12Z" style="fill:#5c5c5c"/><path d="M36.39 72.05a4.47 4.47 0 1 1 4.47-4.47 4.47 4.47 0 0 1-4.47 4.47Zm0-8.48a4 4 0 1 0 4 4 4 4 0 0 0-4-4Z" style="fill:#272324"/><path d="M37.64 67.58a1.25 1.25 0 1 1-1.25-1.24 1.25 1.25 0 0 1 1.25 1.24ZM75.31 71.85a4.27 4.27 0 1 1 4.26-4.27 4.27 4.27 0 0 1-4.26 4.27Zm0-8.08a3.82 3.82 0 1 0 3.81 3.81 3.82 3.82 0 0 0-3.81-3.81Z" style="fill:#272324"/><path d="M76.56 67.58a1.25 1.25 0 1 1-1.25-1.24 1.25 1.25 0 0 1 1.25 1.24ZM59.08 33s-.44 5 .66 6.87S63 42.68 65.35 43s4.62-1.8 5.17-3.16.44-5.52.44-5.52Z" style="fill:#272324"/><path d="m68.61 71.66.12.46v.22a.73.73 0 0 0 .43.49l3 1.16a.54.54 0 0 0 .52-.93l-2.06-1.52a8.21 8.21 0 0 1-2.01.12Z" style="fill:#c14b48"/><path d="M70.29 56.92a15.81 15.81 0 0 1-5.3.28l3.62 14.46a8.21 8.21 0 0 0 2-.12Z" style="fill:#c9bb97"/><path d="m69.56 46-.69-8.61a3.89 3.89 0 0 0-.18-1 4.71 4.71 0 1 0-9 2.7l2.45 8.19c.81 2.73 1.64 5.46 2.44 8.21L65 57.2a15.81 15.81 0 0 0 5.3-.28l-.05-2.32c-.25-2.87-.46-5.73-.69-8.6Z" style="fill:#b2765b"/><path d="M68.94 44.15a6.26 6.26 0 0 1-2 1 6 6 0 0 1-.64.16c-.22.05-.45.08-.68.11s-.43.05-.66.06a5.9 5.9 0 0 1-.6 0h-.66a14 14 0 0 1-1.7-.26 1.91 1.91 0 0 1-1.45-1.37l-1.32-4.8a1.8 1.8 0 0 1-.06-.32c-.09-1-.29-5.5 4.19-6.14a5 5 0 0 1 2.21.14c2.77.87 3.62 4.21 3.78 4.95a2.19 2.19 0 0 1 0 .27l.29 4.53a1.89 1.89 0 0 1-.7 1.67Z" style="fill:#272324"/><path d="M66.93 45.13a6 6 0 0 1-.64.16c-.18-1.17-.55-3.61-.76-5.16-.29-2.08-.58-7.4-.58-7.4h.65c0 .2.22 5.35.5 7.39.22 1.56.63 3.88.83 5.01ZM65.61 45.4q-.31 0-.66.06c-.18-1.24-.52-3.46-.72-4.9-.28-2.08-.57-7.4-.57-7.4h.65s.21 5.32.5 7.4c.19 1.44.59 3.69.8 4.84ZM64.35 45.47h-.66c-.19-1.28-.49-3.27-.68-4.6-.28-2.08-.57-7.4-.57-7.4h.64s.22 5.32.51 7.4c.19 1.37.54 3.41.76 4.6Z" style="fill:#96848b"/><path d="M18.83 33s-.35 4 .54 6a7.3 7.3 0 0 0 5.73 4c2.31.34 4.62-1.8 5.17-3.16s.44-5.52.44-5.52Z" style="fill:#c14b48"/><path d="m30.37 46.29-.69-8.61a5.47 5.47 0 0 0-.18-1 4.71 4.71 0 1 0-9 2.71l2.45 8.18c.81 2.74 1.64 5.47 2.44 8.21l2.95 11.74a11.2 11.2 0 0 0 3-.29l-.27-12.35c-.23-2.88-.47-5.72-.7-8.59Z" style="fill:#7c523d"/><path d="m31.41 71.62-.09-4.38a11.2 11.2 0 0 1-3 .29l1.06 4.24a7.3 7.3 0 0 0 2.03-.15Z" style="fill:#c9bb97"/><path d="m33.52 73.34-2.1-1.54v-.18a7.3 7.3 0 0 1-2 .15l.16.64.05.22a.71.71 0 0 0 .43.48l3 1.17a.54.54 0 0 0 .63-.18.54.54 0 0 0-.17-.76Z" style="fill:#272324"/><path d="M30 46.93a5.79 5.79 0 0 1-2.81 1h-.21l-.68.06a12.25 12.25 0 0 1-2.66.01 1.59 1.59 0 0 1-1.29-1.13L20 39.34s-1.18-5.34 4-6.25 5.82 3.09 6 5.1c.17 1.58.47 5.58.59 7.24a1.73 1.73 0 0 1-.59 1.5Z" style="fill:#c14b48"/><path d="M28.28 35.2A4.23 4.23 0 0 1 25.4 40a11.8 11.8 0 0 1-.4-5.67Z" style="fill:#9e3939"/><path d="m26.94 48-.68.06c-.51-2.91-1.53-9.13-1.82-13.62.29-.86.58-.1.58-.1A109.66 109.66 0 0 0 26.94 48Z" style="fill:#e86f68"/><path d="m30.32 16.25 1.68 5.2.82 2.6.19.62a17.614 17.614 0 0 0 .66 1.69 16 16 0 0 0 1.18 2.14c.11.17.23.34.35.5l.19.26.2.27.83 1.08L39.69 35a.94.94 0 0 1-1.39 1.25l-4-3.73-1-.93c-.32-.29-.7-.66-1-1a19.27 19.27 0 0 1-1.87-2.33c-.28-.41-.54-.83-.79-1.27-.13-.21-.25-.44-.37-.66l-.27-.67-1.24-2.43-2.48-4.84v-.05a2.77 2.77 0 0 1 4.93-2.52 2.56 2.56 0 0 1 .11.43Z" style="fill:#936652"/><path d="M26.84 10a8 8 0 0 1-.67 3.25 8.58 8.58 0 0 0 4.41 1.63 6.17 6.17 0 0 0 1.05-2.58c-1.34-1.92-4.79-2.3-4.79-2.3Z" style="fill:#7c523d"/><path d="M31.67 28.39a30.6 30.6 0 0 0-.6 6.38 1.32 1.32 0 0 1-1.25 1.29c-2.14.12-6.66.13-10.17-1.5a1.88 1.88 0 0 1-1.06-1.79 32.64 32.64 0 0 1 2-10.28 19.35 19.35 0 0 0 .78-2.77 10.7 10.7 0 0 1 1.16-3.3 10.87 10.87 0 0 1 3.55-3.34 1.79 1.79 0 0 1 .25-.23 2 2 0 0 1 2.27-.06 11.89 11.89 0 0 0 1.68 1 5.67 5.67 0 0 1 2 2.47c1.84 4.07-.1 10.51-.61 12.13Z" style="fill:#e4d8b4"/><path d="M32.31 16.2c-1.57.31-1.83-1.36-3.55-2.08a14.49 14.49 0 0 1-2.41-1.3 2 2 0 0 1 2.27-.06 11.89 11.89 0 0 0 1.68 1 5.67 5.67 0 0 1 2.01 2.44ZM30.07 2c3.77.08 4.6 2.26 4.82 3.39s.19 1.4 0 1.69.13 1.16.4 1.51a2.75 2.75 0 0 1 .57 1.05c0 .2-.28.46-.47.46a.46.46 0 0 0-.42.27c-.08.16 0 .43 0 .57a.28.28 0 0 1-.07.17.42.42 0 0 0 0 .33.21.21 0 0 1 0 .16.56.56 0 0 0-.13.49 1.28 1.28 0 0 1 0 .7.61.61 0 0 1-.59.52 7.27 7.27 0 0 1-2.15-.15 3.91 3.91 0 0 1-1.8-1.31c-.92-.27-3-.27-3.72-1.24s-1.8-2-1.58-4.25a4 4 0 0 1 1.8-3.47A5.06 5.06 0 0 1 30.07 2Z" style="fill:#7c523d"/><path d="M29.08 8.78a1.74 1.74 0 0 1-.43-.54c-.22-.43-.45-1.07 0-1.41.72-.52 1.29.34 1.29.34s1 1 1.73.29.33-1.11.81-1.82 2-.77 2-1.92-.34-2-1.78-2.12a1.76 1.76 0 0 1-1.14-.53 2.19 2.19 0 0 0-3-.11 2 2 0 0 1-1.27.5 2.51 2.51 0 0 0-2.44 2.08 1.89 1.89 0 0 1-.4.94A2.82 2.82 0 0 0 24.1 8a2 2 0 0 1 .42 1.13 2.14 2.14 0 0 0 2.18 2.06 2.19 2.19 0 0 0 1.14-.41 2 2 0 0 1 .84-.43.85.85 0 0 0 .4-1.53Z" style="fill:#272324"/><path d="M38.48 34.43a3.9 3.9 0 0 1 2.2 0 1.17 1.17 0 0 1 .3 1.18 1.11 1.11 0 0 1-1 .92c-.62 0-1.47-.13-1.62-.41a1.48 1.48 0 0 1 .12-1.69Z" style="fill:#936652"/><path d="M39.28 34.29a1.78 1.78 0 0 1-1.58 1.48.29.29 0 0 1-.22-.07l-1-1a.26.26 0 0 1 0-.42 4.31 4.31 0 0 0 1.37-1.41.27.27 0 0 1 .44-.06 14.75 14.75 0 0 1 1 1.24.3.3 0 0 1-.01.24Z" style="fill:#e86f68"/><path d="m70.68 16.25 3.64 11-.32-.55 6.05 8.3a.94.94 0 0 1-1.39 1.25l-7.54-6.95a.89.89 0 0 1-.22-.3l-.12-.23-5.18-10.38a2.77 2.77 0 1 1 5-2.47 2.87 2.87 0 0 1 .08.33Z" style="fill:#6aa080"/><path d="M78.25 34.53c1.32-1.2.43-1.8-.79-3.53s-2.95-3.37-3.38-6-2.44-8.84-3.74-10a3.19 3.19 0 0 0-4-.65c-1.58.72-2.16 3.17-.36 7.33s3.67 8.41 6.33 10.78 4.43 3.43 5.94 2.07Z" style="fill:#578c6d"/><path d="M67.08 10a8 8 0 0 1-.67 3.25 8.6 8.6 0 0 0 4.41 1.63 6.14 6.14 0 0 0 1.06-2.58c-1.35-1.92-4.8-2.3-4.8-2.3Z" style="fill:#b2765b"/><path d="M71.91 28.39a29.62 29.62 0 0 0-.59 6 1.7 1.7 0 0 1-1.63 1.66c-2.29.1-6.57 0-9.89-1.57a1.69 1.69 0 0 1-1-1.63 32.87 32.87 0 0 1 2-10.39 19.39 19.39 0 0 0 .79-2.77 10.45 10.45 0 0 1 1.15-3.3 10.65 10.65 0 0 1 3.36-3.22 1.64 1.64 0 0 0 .35-.29 1.67 1.67 0 0 1 .56-.39 1.71 1.71 0 0 1 1.66.17 13 13 0 0 0 1.69 1 1.35 1.35 0 0 1 .26.15 5.35 5.35 0 0 1 1.49 1.62c2.51 4.06.35 11.24-.2 12.96Z" style="fill:#6aa080"/><path d="M72.16 15.44c-.91.66-2.1-1.21-3.61-1.9a4.1 4.1 0 0 1-1.49-1 1.71 1.71 0 0 1 1.66.17 13 13 0 0 0 1.69 1 1.35 1.35 0 0 1 .26.15 5.35 5.35 0 0 1 1.49 1.58ZM70.32 2c3.76.08 4.6 2.26 4.81 3.39s.19 1.4 0 1.69a2.08 2.08 0 0 0 .4 1.51 2.8 2.8 0 0 1 .58 1.05.56.56 0 0 1-.47.46.46.46 0 0 0-.43.27c-.08.16.05.43.05.57a.35.35 0 0 1-.06.17.39.39 0 0 0-.06.33.15.15 0 0 1 0 .16.59.59 0 0 0-.13.49 1.18 1.18 0 0 1 .06.7.62.62 0 0 1-.59.52 7.34 7.34 0 0 1-2.16-.15 4 4 0 0 1-1.8-1.31c-.91-.27-3-.27-3.71-1.24s-1.8-2-1.59-4.25A4.1 4.1 0 0 1 67 2.89 5.07 5.07 0 0 1 70.32 2Z" style="fill:#b2765b"/><path d="M78.94 34.52a3.94 3.94 0 0 1 2.24 0 1.19 1.19 0 0 1 .31 1.21 1.11 1.11 0 0 1-1.07.93c-.63 0-1.5-.12-1.65-.41a1.53 1.53 0 0 1 .17-1.73Z" style="fill:#d38862"/><path d="M24 13.92c-.61-.34-2.17.66-3.95 2.37 1.83 3.55-3.76 6.61-4.58 10.47-.39 1.16-1.55 1.15-2.62.76a6.75 6.75 0 0 0-.16 1.64c.29 4.31 6.61 4.31 7.09 2.78s1.34-7.38 2.2-9.49 3.33-7.76 2.02-8.53Z" style="fill:#42363a"/><path d="M15.44 26.76c.82-3.86 6.41-6.92 4.58-10.47-2.92 2.81-6.4 7.5-7.2 11.23 1.07.39 2.23.4 2.62-.76Z" style="fill:#6aa080"/><path d="M19.46 31.17C32.88 26.57 32.59 16.61 29.71 14s-6.61.58-6.61.58l-.1 1.55s3.35-3.16 5.84-.77S30 27 19.37 30.31c-.58.69.09.86.09.86Z" style="fill:#42363a"/><path d="m29.75 15.76 3.87 5.81.48.72c.15.22.29.45.45.67.31.44.63.87 1 1.3a29.21 29.21 0 0 0 2.16 2.44 30.23 30.23 0 0 0 2.45 2.2c.86.7 1.75 1.3 2.74 2l5.78 3.92a.93.93 0 0 1-.94 1.61L41.5 33.3c-1-.5-2.14-1.07-3.17-1.7a34.73 34.73 0 0 1-3-2.08 33.58 33.58 0 0 1-2.79-2.42c-.45-.43-.88-.87-1.3-1.33-.21-.22-.41-.46-.62-.69l-.62-.69-4.59-5.26a2.76 2.76 0 1 1 4.16-3.63 2 2 0 0 1 .18.26Z" style="fill:#7c523d"/><path d="M32.21 20.8a4.9 4.9 0 0 1-2.35 2.2 1.59 1.59 0 0 1-1.86-.33l-2.8-3s-2.15-2.59.22-4.81 4.72 1 4.72 1l2 3.12a1.9 1.9 0 0 1 .07 1.82Z" style="fill:#c9bb97"/><path d="M47.92 34.69a4 4 0 0 1 2.23 0 1.19 1.19 0 0 1 .32 1.2 1.14 1.14 0 0 1-1.07.93c-.63 0-1.5-.13-1.65-.41a1.52 1.52 0 0 1 .17-1.72Z" style="fill:#7c523d"/><path d="m46 35.73 1.58.65a.24.24 0 0 0 .24 0 1.88 1.88 0 0 0 .61-1.75.22.22 0 0 0-.09-.16l-1.23-.87a.22.22 0 0 0-.35.15 3.62 3.62 0 0 1-.76 1.62.23.23 0 0 0 0 .36Z" style="fill:#c14b48"/><path d="M35 7.41h-.4v-.23a.15.15 0 0 0 0-.11.12.12 0 0 0-.11 0H33L30.87 7a.14.14 0 0 0-.15.14.14.14 0 0 0 .14.14h1.41a.81.81 0 0 1 .78.63.77.77 0 0 0 .75.59h.2a.64.64 0 0 0 .59-.5.3.3 0 0 1 .3-.27H35a.15.15 0 0 0 .15-.15.15.15 0 0 0-.15-.17Zm-1 .86h-.2a.49.49 0 0 1-.47-.36l-.13-.55h1.15v.16a.09.09 0 0 0 0 .07.14.14 0 0 0 0 .06v.34a.34.34 0 0 1-.35.28ZM70.21 37.64l-.5-.29c.75-1.28.59-2.84.43-4.48-.2-2-.43-4.28.91-6.54 2.53-4.24 3.65-7.87.92-11.8-3.41-1.81-3.45-6.26-3.45-6.45h.58s0 4.35 3.19 6h.07v.06c3.13 4.45 1.44 8.63-.85 12.48-1.25 2.1-1 4.18-.84 6.19.21 1.74.38 3.39-.46 4.83Z" style="fill:#272324"/><path d="M73.14 13.3a6.38 6.38 0 0 1-.76 1.2l-.38-.38a5.58 5.58 0 0 0 .58-.9c.11.03.33.06.56.08Z" style="fill:#272324"/><path d="M70.29 6.4a2.87 2.87 0 0 1 1.78-1.34 7.58 7.58 0 0 0 1.87-.43c.87-.46.66-1.6.18-2.25A3.55 3.55 0 0 0 70.29 1a10 10 0 0 0-2.1.72c-.79.34-2.18 4-3 4.17a9.63 9.63 0 0 1-3-.1 2.87 2.87 0 0 0-2.94 1.8C59 8.76 57.34 9.25 56.19 9.3c-1.35.06-1.43 1.21-2.38 2.23-.76.82-.68 1.62-.49 2.73a2.63 2.63 0 0 0 1.82 2.14c3.49 1.09 5.57-1.61 6.86-1.81 1.63-.24 3.45.11 5-.53a3.15 3.15 0 0 0 2.06-2.87 3.36 3.36 0 0 1 .57-2.1 2.81 2.81 0 0 0 .53-1.44 8.1 8.1 0 0 1 .13-1.25Z" style="fill:#7c523d"/><path d="M64.88 6.16a17.24 17.24 0 0 0 5.41.24 13.13 13.13 0 0 0 5-1.58S74.94-.45 69.1 0c-4.1.32-4.22 6.16-4.22 6.16Z" style="fill:#272324"/><path d="M72.5 6s.86-2.88 2.15-3.31l5.61.71a.4.4 0 0 1 .28.6 4.28 4.28 0 0 1-3.23 2.14C75 6.21 72.5 6 72.5 6Z" style="fill:#42363a"/><path d="m70.11 15.76 7.74 11.5-.59-.52 11.75 8a.92.92 0 0 1 .24 1.3.94.94 0 0 1-1.19.31l-12.72-6.27a1.38 1.38 0 0 1-.4-.31l-.14-.16-9-10.48a2.76 2.76 0 0 1 4.18-3.61Z" style="fill:#6aa080"/><path d="M87.52 35.1c.57-1.08.36-1.65-1.29-2.73s-5.61-4.17-7.34-5.61a18.26 18.26 0 0 1-4-4.67c-.93-1.58-3.74-7.33-5.61-7.76s-3.66 0-4.24 1.08-.93 2.59 1.66 7.11 7.11 8.63 10.42 10 6.59 3.08 8.1 3.48a2.06 2.06 0 0 0 2.3-.9Z" style="fill:#83b799"/><path d="M88.34 34.57a4 4 0 0 1 2.27 0 1.21 1.21 0 0 1 .32 1.22 1.14 1.14 0 0 1-1.09 1c-.63 0-1.52-.13-1.67-.42a1.54 1.54 0 0 1 .17-1.8Z" style="fill:#b2765b"/><rect x="35.61" y="61.86" width="4.5" height="1.26" rx=".59" transform="rotate(16.67 37.842 62.468)" style="fill:#5c5c5c"/><rect x="29" y="73.5" width="4.5" height="1.26" rx=".59" transform="rotate(22.74 31.254 74.119)" style="fill:#5c5c5c"/><path d="M36.39 67.81h-.06a.22.22 0 0 1-.15-.28l1.46-5a.22.22 0 0 1 .28-.15.23.23 0 0 1 .16.28l-1.47 5a.22.22 0 0 1-.22.15Z" style="fill:#272324"/><rect x="75.52" y="62.38" width="4.5" height="1.26" rx=".59" transform="rotate(18.25 77.787 63.025)" style="fill:#5c5c5c"/><rect x="68.24" y="73.35" width="4.5" height="1.26" rx=".59" transform="rotate(21.68 70.499 73.989)" style="fill:#5c5c5c"/><path d="M75.33 67.67a.2.2 0 0 1-.11 0 .23.23 0 0 1-.09-.31l2.25-4.21a.22.22 0 0 1 .3-.09.23.23 0 0 1 .1.3l-2.26 4.22a.22.22 0 0 1-.19.09Z" style="fill:#272324"/></g></svg>