<svg xmlns="http://www.w3.org/2000/svg" viewBox="0 0 75.08 83.23"><g data-name="Layer 2"><path d="M36.88 66.68 36.42 61l-.12-1.42-.07-.73c0-.26 0-.51-.08-.76-.12-1-.28-2-.48-3s-.44-2-.72-3c-.14-.5-.3-1-.46-1.48-.08-.24-.16-.49-.25-.73l-.24-.7-1.91-5.35-3.83-10.72a5.64 5.64 0 0 0-.33-.71 4.7 4.7 0 0 0-8.2 4.6l5.54 9.94 2.77 5 .33.59c.11.19.21.38.31.57.2.38.4.77.58 1.16.38.79.72 1.59 1 2.4s.6 1.65.84 2.5c.06.21.13.42.18.63l.18.66.34 1.38 1.4 5.51.46 1.81a11.82 11.82 0 0 0 3.34-.99Z" style="fill:#d68d51"/><path d="M40.88 76.1a.54.54 0 0 0-.7-.3c-.83.34-1.65.7-2.48 1l-.7-8.64a11.82 11.82 0 0 1-3.31.93L36 78.31v.16a.91.91 0 0 0 .11.25.84.84 0 0 0 1.16.24c1.12-.74 2.25-1.46 3.36-2.21a.54.54 0 0 0 .25-.65Z" style="fill:#7c523d"/><path d="M61.47 57.59a12 12 0 1 1-12 12 12 12 0 0 1 12-12Zm0-1.58a13.61 13.61 0 1 0 13.61 13.61A13.61 13.61 0 0 0 61.47 56Z" style="fill:#3f3f3f"/><path d="M61.47 81.42a11.81 11.81 0 1 1 11.81-11.8 11.81 11.81 0 0 1-11.81 11.8Zm0-22.93A11.13 11.13 0 1 0 72.6 69.62a11.15 11.15 0 0 0-11.13-11.13Z" style="fill:#e2cd6d"/><circle cx="61.47" cy="69.62" r="2.3" style="fill:#3f3f3f"/><path d="M13.61 57.59a12 12 0 1 1-12 12 12 12 0 0 1 12-12Zm0-1.58a13.61 13.61 0 1 0 13.6 13.61A13.61 13.61 0 0 0 13.61 56Z" style="fill:#3f3f3f"/><path d="M13.61 81.42a11.81 11.81 0 1 1 11.8-11.8 11.82 11.82 0 0 1-11.8 11.8Zm0-22.93a11.13 11.13 0 1 0 11.13 11.13 11.14 11.14 0 0 0-11.13-11.13Z" style="fill:#e2cd6d"/><circle cx="13.61" cy="69.62" r="2.3" style="fill:#3f3f3f"/><path d="M61.47 70.41a.79.79 0 0 1-.75-.57L49.47 31.58a.79.79 0 0 1 1.53-.45L62.23 69.4a.79.79 0 0 1-.54 1 .57.57 0 0 1-.22.01Z" style="fill:#afddc1"/><path d="M35.45 72.48a.56.56 0 0 1-.44-.9l19.33-25.07a.55.55 0 0 1 .78-.11.56.56 0 0 1 .11.79L35.9 72.26a.55.55 0 0 1-.45.22Z" style="fill:#afddc1"/><path d="M35.45 72.48h-.06l-21.84-2.3a.56.56 0 0 1 .12-1.12l21.84 2.3a.56.56 0 0 1-.06 1.12Z" style="fill:#afddc1"/><path d="M35.28 72.39a.8.8 0 0 1-.74-.51L22.9 41a.79.79 0 0 1 1.48-.56L36 71.32a.8.8 0 0 1-.46 1 .92.92 0 0 1-.26.07Z" style="fill:#afddc1"/><path d="M13.61 70.18a.58.58 0 0 1-.37-.13.57.57 0 0 1-.06-.8l14.54-17a.57.57 0 0 1 .79-.06.55.55 0 0 1 .06.79L14 70a.56.56 0 0 1-.39.18Z" style="fill:#afddc1"/><path d="M28.14 53.4a.79.79 0 0 1-.76-.63.77.77 0 0 1 .6-.93l26.63-5.76a.79.79 0 0 1 .39 1.54l-26.69 5.76ZM13.36 69.93a.34.34 0 0 1-.3-.19L4.51 52.63a.33.33 0 0 1 .15-.45.34.34 0 0 1 .45.15l8.55 17.11a.33.33 0 0 1-.15.45.42.42 0 0 1-.15.04Z" style="fill:#afddc1"/><path d="m28.15 53-23.34-.18a.34.34 0 1 1 0-.67l23.34.12a.34.34 0 0 1 0 .68Z" style="fill:#afddc1"/><path d="m17.9 39.51.19.59a1.76 1.76 0 0 0 1.67 1.21h7.53a1.72 1.72 0 0 0-1.47-1.71l-7.09-1.08a.76.76 0 0 0-.83.99Z" style="fill:#3f3f3f"/><path d="M50.23 31.63a.56.56 0 0 1-.2-1.09l7.19-2.73a.56.56 0 0 1 .72.33.55.55 0 0 1-.33.72l-7.18 2.73a.51.51 0 0 1-.2.04Z" style="fill:#afddc1"/><path d="M35.45 75.77a3.85 3.85 0 1 1 3.85-3.85 3.86 3.86 0 0 1-3.85 3.85Zm0-7.25a3.4 3.4 0 1 0 3.4 3.4 3.4 3.4 0 0 0-3.4-3.4Z" style="fill:#3f3f3f"/><path d="M36.7 71.92a1.25 1.25 0 1 1-1.25-1.25 1.24 1.24 0 0 1 1.25 1.25Z" style="fill:#3f3f3f"/><path d="M13 28.24s4.6-5.94 8.53-9a50.28 50.28 0 0 1 10.16-5.55s-11.31 6.7-17 15.9A4.16 4.16 0 0 1 13 28.24Z" style="fill:#7c523d"/><path d="m35.83 13.25 4 5.36 1 1.34.48.65c.14.19.29.38.44.56a12.77 12.77 0 0 0 2.08 2 13.05 13.05 0 0 0 2.51 1.53l.34.16.39.16.76.33 1.54.65 6.15 2.61a.93.93 0 0 1-.61 1.76l-6.45-1.75-1.61-.44-.8-.22-.41-.11-.44-.12a17.21 17.21 0 0 1-3.39-1.47 17 17 0 0 1-3-2.19c-.24-.22-.46-.43-.68-.66l-.6-.6-1.17-1.19-4.68-4.77A2.76 2.76 0 0 1 35.59 13a3.36 3.36 0 0 1 .24.25Z" style="fill:#d68d51"/><path d="M37 14.24s2.63 3.51 3.61 4.92 2.84 3.65 4 4.26-.42 4.76-2 4.23-5.74-4.28-7.33-6.6S32 16 33.63 14.34a2.43 2.43 0 0 1 3.37-.1Z" style="fill:#baae90"/><path d="M37.28 12.59a9.76 9.76 0 0 1 1.4 6.26c-.34 2.87-1 8.46-1 11.74a2 2 0 0 1-2.38 2 26.69 26.69 0 0 1-8-3.29Z" style="fill:#baae90"/><path d="M33.89 9.13a8 8 0 0 1-.67 3.25 10.29 10.29 0 0 0 4.29 1.87 7.37 7.37 0 0 0 1.17-2.82c-1.34-1.92-4.79-2.3-4.79-2.3Z" style="fill:#eaa86c"/><path d="M20.12 28.67c-.69 2.14-1.84 4.58-1.37 6.87s2.36 3.76 4.37 4.66a5.19 5.19 0 0 0 5.8-1.49c1.31-1.55 1.49-3.51 2.19-5.28-3.69-1.58-7.3-3.17-10.99-4.76Z" style="fill:#dd9954"/><path d="M38.14 17.14c0 3.82-2.48 7.79-4.06 10.34-2.17 3.52-1.9 4.52-3.19 7.69a22.84 22.84 0 0 1-11.33-5.66A45.27 45.27 0 0 1 25 18.82a25.06 25.06 0 0 0 1.6-2.52 11.31 11.31 0 0 1 2.06-2.88 10.94 10.94 0 0 1 4-2.18l.36-.13a2 2 0 0 1 2.51.42c.42.49.87 1 1.3 1.47a7.28 7.28 0 0 1 1.31 4.14Z" style="fill:#c14b48"/><path d="M38.14 17.14h-.06c-.86-.22-.72-2-1.51-3.6a3 3 0 0 0-2.8-1.87 2 2 0 0 1-1.07-.42l.36-.13a2 2 0 0 1 2.51.42c.42.49.87 1 1.3 1.47a7.28 7.28 0 0 1 1.27 4.13Z" style="fill:#eaa86c"/><path d="M32.21 11.19s2.78-.1 3.84 1.24 2.11 3.93.09 7.19C35 21.5 31 24.34 27.79 26.41s-6.54 2.25-9.15-.66c-.54-.6 1.15.06.92-.65 4.58-3.23 6.71-12.76 12.65-13.91Z" style="fill:#e4d8b4"/><path d="M33.22 22.55s-9.91 3.24-15.31 2a.52.52 0 0 0-.62.62 6.65 6.65 0 0 0 .3.89c.81 1.9 5.34 3.28 8.63 1.64a30.57 30.57 0 0 0 7-5.15Z" style="fill:#baae90"/><path d="M37.41 1c3.77.09 4.6 2.26 4.82 3.39s.18 1.4 0 1.7.14 1.16.41 1.51a2.8 2.8 0 0 1 .57 1c0 .21-.28.46-.47.46a.48.48 0 0 0-.43.27c-.08.16.06.43.06.58a.34.34 0 0 1-.07.17.44.44 0 0 0-.06.32.17.17 0 0 1 0 .17.55.55 0 0 0-.12.48 1.29 1.29 0 0 1 .05.7.61.61 0 0 1-.59.52 7.25 7.25 0 0 1-2.15-.14 3.89 3.89 0 0 1-1.8-1.32c-.92-.27-3-.27-3.72-1.24s-1.8-2-1.58-4.25a4.06 4.06 0 0 1 1.8-3.47A5.18 5.18 0 0 1 37.41 1ZM39.29 57.31l1.17-2.07c0-.08.1-.19.16-.3l.15-.32c.1-.21.22-.42.31-.65l.25-.67.13-.34.09-.35.19-.7a6.1 6.1 0 0 0 .14-.72 5.84 5.84 0 0 0 .11-.73l.06-.73a6.1 6.1 0 0 0 0-.74v-.75L42 47.5a6 6 0 0 0-.11-.74 13.46 13.46 0 0 0-2.34-5.6l-.47-.62c-.15-.21-.34-.39-.51-.59s-.35-.4-.54-.58l-.58-.53-.3-.26-.31-.25-.63-.47-1-.72-7.71-5.56a4.84 4.84 0 0 0-.79-.47 4.71 4.71 0 1 0-3.91 8.56l8.64 3.95 1 .48.36.17.18.08.17.1.35.19c.12.07.22.16.33.23a4 4 0 0 1 .33.24l.31.27a7.17 7.17 0 0 1 1.91 2.76 2 2 0 0 1 .15.41l.14.42.09.43a2.29 2.29 0 0 1 .09.44l.06.45v1.83l-.07.46a3.43 3.43 0 0 1-.11.46l-.06.23a1 1 0 0 1-.07.25l-.74 2.26-.53 1.6a5.62 5.62 0 0 0 3.24 1.2Z" style="fill:#eaa86c"/><path d="m37.58 65.47-2.46-.82 3.44-6.07a5.62 5.62 0 0 1-3.24-1.2l-2.46 7.42-.07.19a1.13 1.13 0 0 0 0 .18.85.85 0 0 0 .76.94c1.28.14 2.55.29 3.83.41a.54.54 0 0 0 .23-1Z" style="fill:#7c523d"/><path d="M19.56 29.51s-2.25 4.72-.92 7.74 3.49 4.17 4.78 7.4c1 2.4 1.3 7 1.41 9.23a2.12 2.12 0 0 0 1.39 1.89 5.52 5.52 0 0 0 3.81.15c2.45-.92 3.9-3.72 7.74-3.72a13.87 13.87 0 0 0 3.73-.43 1.64 1.64 0 0 0 1.18-1.88c-.47-2.61-1.68-8.37-3.45-9.89-2.3-2-12.93-9.49-12.93-9.49s-2.05-1.91-6.74-1Z" style="fill:#c14b48"/><path d="M42.13 2.18A3.14 3.14 0 0 0 39 .47a1.62 1.62 0 0 1-.81-.12 3.45 3.45 0 0 0-3.92.54 2 2 0 0 1-.88.45c-2.06.45-2.59 2.8-3.61 3.38a2.33 2.33 0 0 0-1.05 3 1.72 1.72 0 0 0 .73.66 1.72 1.72 0 0 1 .91 1.49 2.13 2.13 0 0 0 1 1.73 2.17 2.17 0 0 0 2.43.11 1.76 1.76 0 0 1 1.36-.18 2.34 2.34 0 0 0 1.34 0c.89-.22.84-1.37.65-2.3a1.78 1.78 0 0 1 .6-1.7 2.11 2.11 0 0 0 .66-1.08c0-.13.07-.27.1-.4a1.78 1.78 0 0 1 1.89-1.42c.96-.01 2.6-.34 1.73-2.45Z" style="fill:#757575"/><path d="m17.36 28.76 3 2.83a2 2 0 0 1 .33 2.55c-1.29 2.09-4.06 5.3-7.7 2.25s-1.48-6.23.78-7.86a2.84 2.84 0 0 1 3.59.23Z" style="fill:#7c523d"/><path d="M14.87 34.09a6 6 0 0 0 4.58-.09 2.75 2.75 0 0 0-.4-3.55L16.45 28a2.75 2.75 0 0 0-3.45-.27l-.13.09c-1.29 2.36-.66 5.54 2 6.27Z" style="fill:#bc6446"/><path d="M14.87 34.09c-2.66-.73-3.29-3.91-2-6.27-2.23 1.65-4.41 4.69-.7 7.8 3.3 2.77 5.89.38 7.3-1.64a6 6 0 0 1-4.6.11Z" style="fill:#9b5d42"/><path d="M19.45 34s8.36-5.52 12.09-8.68 5.73-10.44 4.67-12.74c3.38 3.73.58 10.78-4.67 14.37s-12.07 8.43-12.07 8.43Z" style="fill:#7c523d"/><path d="m36.06 14 1.36 3.28.68 1.72.34.82c.06.15.11.26.16.37l.15.34a12.18 12.18 0 0 0 6.45 6.15l.37.15.37.13a7.16 7.16 0 0 0 .75.23c.26.07.51.14.78.19l.81.15 7 1.09a.94.94 0 0 1-.17 1.86l-7.1-.18-.94-.05c-.33 0-.65-.06-1-.1s-.65-.1-1-.16l-.48-.1-.48-.13a15.44 15.44 0 0 1-3.66-1.48 16.33 16.33 0 0 1-5.81-5.49l-.26-.44c-.09-.14-.18-.29-.25-.42l-.44-.77-.89-1.53-1.67-3.13a2.76 2.76 0 0 1 4.79-2.75c.08.06.08.18.14.25Z" style="fill:#eaa86c"/><path d="M53.86 28.38a4.22 4.22 0 0 1 2.37-.46 1.3 1.3 0 0 1 .59 1.21 1.21 1.21 0 0 1-.93 1.21c-.67.1-1.62.19-1.84-.07a1.66 1.66 0 0 1-.19-1.89Z" style="fill:#eaa86c"/><path d="M43.48 25.94a3 3 0 0 1-1.32 2.69 1.58 1.58 0 0 1-1.72.06c-5.58-3.38-7-7.29-7.93-8.78s-4.07-5.76-.32-7.68 4.92 3.3 5.71 5.5S40.77 24 43 25.14a1 1 0 0 1 .48.8Z" style="fill:#e4d8b4"/><path d="M13.34 31.88c.43-.43 1.43.48 1.05 1s-1.39-.61-1.05-1Z" style="fill:#eaa86c"/><rect x="36.96" y="77.8" width="4.5" height="1.26" rx=".59" transform="rotate(-32.15 39.208 78.424)" style="fill:#5c5c5c"/><path d="M35.45 72.14a.23.23 0 0 1-.22-.2l-.37-4.73a.23.23 0 0 1 .21-.24.22.22 0 0 1 .24.21l.37 4.72a.22.22 0 0 1-.21.24Z" style="fill:#3f3f3f"/><path d="M39 78.58a.22.22 0 0 1-.2-.12L35.26 72a.23.23 0 0 1 .09-.31.22.22 0 0 1 .3.09l3.52 6.44a.22.22 0 0 1-.09.3.23.23 0 0 1-.08.06Z" style="fill:#3f3f3f"/><rect x="32.94" y="66.21" width="4.5" height="1.26" rx=".59" transform="rotate(6.58 35.17 66.832)" style="fill:#5c5c5c"/></g></svg>