<svg xmlns="http://www.w3.org/2000/svg" viewBox="0 0 76.2 78.65"><g data-name="Layer 2"><rect x="31.61" y="60.46" width="4.5" height="1.26" rx=".59" transform="rotate(-24.93 33.87 61.104)" style="fill:#5c5c5c"/><path d="m33.39 57.37.8-5.3.32-2.07.08-.52v-.56l.07-.59v-.6a19.92 19.92 0 0 0-.28-4.8A20.35 20.35 0 0 0 33 38.21 21.36 21.36 0 0 0 31.89 36c-.22-.36-.43-.72-.68-1.07l-.68-1-4.86-6.88a4.82 4.82 0 0 0-.67-.75 4.71 4.71 0 0 0-6.34 7l6.23 5.66.67.62c.21.18.4.39.61.58.37.42.75.84 1.09 1.3A14.58 14.58 0 0 1 30 47.89l.07.45V49.81l.14 2.1.36 5.37a5.72 5.72 0 0 0 2.82.09ZM36.28 58.61a.55.55 0 0 0-.66-.39l-2.06.58-.27.08a4.51 4.51 0 0 1-2.45 1v.63a.92.92 0 0 0 .11.39 1 1 0 0 0 1.3.37l1.87-1L36 59.21a.55.55 0 0 0 .28-.6Z" style="fill:#3f3f3f"/><path d="m33.15 58.92.24-1.55a5.72 5.72 0 0 1-2.73-.09l.18 2.63a4.51 4.51 0 0 0 2.45-1Z" style="fill:#d68d51"/><path d="M14.17 78.65a14.17 14.17 0 1 1 14.17-14.17 14.19 14.19 0 0 1-14.17 14.17Zm0-27.21a13 13 0 1 0 13 13 13.06 13.06 0 0 0-13-13Z" style="fill:#494949"/><path d="M1 56.18a.55.55 0 0 1-.32-.1.57.57 0 0 1-.15-.78 16.42 16.42 0 0 1 26.88-.5.56.56 0 0 1-.12.79.55.55 0 0 1-.78-.13 15.3 15.3 0 0 0-25 .47.54.54 0 0 1-.51.25Z" style="fill:#757575"/><circle cx="14.17" cy="64.48" r="1.82" style="fill:#494949"/><path d="M62 78.65a14.17 14.17 0 1 1 14.2-14.17A14.19 14.19 0 0 1 62 78.65Zm0-27.21a13 13 0 1 0 13 13 13.06 13.06 0 0 0-13-13Z" style="fill:#494949"/><path d="M47.57 58.54a.69.69 0 0 1-.24 0 .57.57 0 0 1-.28-.74 16.45 16.45 0 0 1 21.38-8.4.56.56 0 0 1-.44 1 15.29 15.29 0 0 0-19.91 7.82.55.55 0 0 1-.51.32Z" style="fill:#757575"/><path d="M63.85 64.48A1.82 1.82 0 1 1 62 62.66a1.81 1.81 0 0 1 1.85 1.82Z" style="fill:#494949"/><path d="M36 66.77 14.12 65a.55.55 0 0 1-.51-.6.56.56 0 0 1 .6-.52l21.85 1.72a.57.57 0 0 1 0 1.13Z" style="fill:#939393"/><path d="M36 67a.77.77 0 0 1-.71-.44l-14.4-29.68a.78.78 0 0 1 1.41-.69l14.42 29.67a.78.78 0 0 1-.36 1A.71.71 0 0 1 36 67Z" style="fill:#939393"/><path d="M14.17 65a.57.57 0 0 1-.17 0 .56.56 0 0 1-.3-.74l9.73-23.2a.56.56 0 0 1 1 .43L14.69 64.7a.57.57 0 0 1-.52.3ZM62 65.27a.78.78 0 0 1-.71-.46c-5.57-12.23-7.25-23.38-8.87-34.17l-.54-3.52a.79.79 0 0 1 1.56-.24c.18 1.18.36 2.35.53 3.53 1.61 10.68 3.28 21.72 8.75 33.74a.79.79 0 0 1-.72 1.12Z" style="fill:#939393"/><path d="M26.77 46.86a1.11 1.11 0 0 1-1.05-.73 1.12 1.12 0 0 1 .66-1.45l26.78-10a1.12 1.12 0 0 1 1.45.66 1.14 1.14 0 0 1-.61 1.44l-26.79 10a1.07 1.07 0 0 1-.44.08ZM30 54.45a.57.57 0 0 1-.16-1.11 52.28 52.28 0 0 0 23.88-14.65.56.56 0 0 1 .79 0 .57.57 0 0 1 0 .8 53.46 53.46 0 0 1-24.35 15ZM14 64.76a.34.34 0 0 1-.3-.19L4.62 46.94a.34.34 0 0 1 .6-.31l9.06 17.64a.34.34 0 0 1-.15.45.28.28 0 0 1-.13.04Z" style="fill:#939393"/><path d="M21.59 47.12H4.92a.34.34 0 1 1 0-.67h16.67a.34.34 0 1 1 0 .67Z" style="fill:#939393"/><path d="m25.15 37.11-7.42-.87a1.29 1.29 0 0 1-1.14-1.43A1.31 1.31 0 0 1 18 33.67l7.42.87A1.31 1.31 0 0 1 26.59 36a1.29 1.29 0 0 1-1.44 1.11Z" style="fill:#757575"/><path d="M59.59 27.18h-12a.56.56 0 0 1 0-1.12h12a.56.56 0 1 1 0 1.12Z" style="fill:#939393"/><path d="M36 70.07a3.87 3.87 0 1 1 3.86-3.86A3.86 3.86 0 0 1 36 70.07Zm0-7.28a3.42 3.42 0 1 0 3.41 3.42A3.42 3.42 0 0 0 36 62.79Z" style="fill:#494949"/><path d="M37.26 66.21A1.25 1.25 0 1 1 36 65a1.25 1.25 0 0 1 1.26 1.21Z" style="fill:#494949"/><path d="M39.68 1.71c3.77.08 4.6 2.26 4.82 3.39s.18 1.4 0 1.69.14 1.16.41 1.51a2.9 2.9 0 0 1 .57 1 .56.56 0 0 1-.47.46.46.46 0 0 0-.43.27c-.08.16.06.43.06.57a.28.28 0 0 1-.07.17.47.47 0 0 0-.06.33.15.15 0 0 1 0 .16.56.56 0 0 0-.12.49 1.28 1.28 0 0 1 0 .7.62.62 0 0 1-.59.52 7.36 7.36 0 0 1-2.16-.15 4 4 0 0 1-1.8-1.31c-.91-.27-3-.27-3.71-1.24s-1.8-2-1.59-4.25A4.08 4.08 0 0 1 36.4 2.6a5 5 0 0 1 3.28-.89Z" style="fill:#eaa86c"/><path d="M39.85 8.41a.83.83 0 0 1-.62.39c-1-.1-1.15-2.21-.48-2.54.47-.24.86.16 1.06.42a.55.55 0 0 0 .41.21.55.55 0 0 0 .57-.6 2.63 2.63 0 0 1 .54-2.14 2.24 2.24 0 0 1 1.61-.58.54.54 0 0 0 .4-.91 4.56 4.56 0 0 0-3.44-1.34c-3.5-.09-4.51 1.92-4.51 1.92s-1.91 2.25-1 4.45A4.51 4.51 0 0 0 36 10.15h.13a4.27 4.27 0 0 1 1.29.49.55.55 0 0 0 .6 0 6.74 6.74 0 0 0 1.83-2.23Z" style="fill:#272324"/><path d="M45 8.13a.21.21 0 0 1-.21.21h-2.1a.44.44 0 0 1-.43-.36.63.63 0 0 0-.54-.53L39 7.11v-.87l5.45.34a.5.5 0 0 1 .45.43V7v1Z" style="fill:#272324"/><path d="M39.37 16.37s-1.82 6.51-3.37 9.19a17.48 17.48 0 0 0-1.72 6 1.12 1.12 0 0 1-1.16 1c-2.37-.12-10.9.5-12.55-2-2.11-3.17-9.3-9-9.3-9l16.1-4.12s9.8-2.22 12-1.07Z" style="fill:#494949"/><path d="M19.66 22.82c-1.09 1.83-2.63 3.74-2.65 6s1.51 4.14 3.2 5.46a5.23 5.23 0 0 0 5.91 0c1.59-1.11 2.06-2.77 3.09-4.23-3.21-2.44-6.32-4.84-9.55-7.23Z" style="fill:#272324"/><path d="M38 68.66a5.61 5.61 0 0 1-.91.27l-.4.07a5.62 5.62 0 0 1-1 0l-2.19-7.91-1.5-5.46-.17-.63-.19-.63c-.12-.42-.26-.83-.41-1.24a26.22 26.22 0 0 0-2.9-5.72l-.77-1.11-3.25-4.67-6.5-9.36A4.69 4.69 0 0 1 23 25l.29.09a4.71 4.71 0 0 1 2.27 1.74 5.7 5.7 0 0 1 .39.68l4.85 10.32L33.23 43l.31.65.33.72c.22.48.42 1 .61 1.44.38 1 .72 2 1 3s.51 2 .7 3q.14.77.24 1.53l.09.76.07.71.59 5.66ZM41.13 69.2a.54.54 0 0 0-.74-.17c-.72.43-1.43.88-2.13 1.33a4.68 4.68 0 0 1-1.83 1.28l.13.47v.15a.82.82 0 0 0 .2.35.85.85 0 0 0 1.21 0c1-.93 2-1.84 3-2.79a.54.54 0 0 0 .16-.62Z" style="fill:#272324"/><path d="M38.26 70.36h-.06l-.2-1.7a5.56 5.56 0 0 1-2.32.38l.72 2.6a4.68 4.68 0 0 0 1.86-1.28Z" style="fill:#eaa86c"/><path d="m37.12 68.93-.4.07c-.72-3.4-3.83-17.41-4.92-21.11-1.24-4.22-7.57-11.89-9.49-15.52-1.37-2.61-.13-5.76.67-7.34.33-.62.58-1 .58-1l-.29 1.09-.27 1.12s-1.72 3.16 0 5.93 8 12.46 9.18 15.34c1.02 2.54 4.21 17.91 4.94 21.42Z" style="fill:#e4d8b4"/><path d="M24.52 27.19s-1.15 2.4 0 4.32 8.24 11 6 13l.39.86s1.72-2-.39-5.37-5.46-7.76-5.84-9.1a5.76 5.76 0 0 1 .19-3Z" style="fill:#e4d8b4"/><path d="m48.41 25.29-2.53-2-.83-.64-.71-.62a12.38 12.38 0 0 1-1.26-1.36 13 13 0 0 1-1-1.51L41 17.4l-2.21-3.61a3.32 3.32 0 0 0-.37-.47 2.78 2.78 0 1 0-4 3.85l2.93 3 1.46 1.52a16.59 16.59 0 0 0 1.74 1.61 17 17 0 0 0 1.93 1.33c.33.19.68.38 1 .55l1 .45 2.85 1.35a6 6 0 0 0 1.08-1.69Z" style="fill:#595959"/><path d="m49.24 25.93-.82-.62a6 6 0 0 1-1.11 1.77l1 .46a.94.94 0 0 0 1-1.59Z" style="fill:#d68d51"/><path d="M36.84 8.72a8.06 8.06 0 0 1-1.75 2.82 8.58 8.58 0 0 0 3.58 3.05 8.07 8.07 0 0 0 2.19-2.34c-.61-2.25-4.02-3.53-4.02-3.53Z" style="fill:#eaa86c"/><path d="M38.58 13.5a24.41 24.41 0 0 1-1.45-3.22 14.6 14.6 0 0 0-1.74.39 11.59 11.59 0 0 0-4.77 1 9.76 9.76 0 0 0-2.58 2 21.24 21.24 0 0 1-2 1.78 31.83 31.83 0 0 0-6.36 6.94 1.76 1.76 0 0 0 0 2.1 26.16 26.16 0 0 0 8 6.56 1.2 1.2 0 0 0 1.58-.39c1.22-1.84 1.27-2.66 3.74-4.94 2.78-2.57 7.46-7.09 5.58-12.22Z" style="fill:#83b799"/><path d="m57.6 25.41-.94-.53a4.14 4.14 0 0 1-.66 1.9l.78.31a1 1 0 0 0 1.22-.41.93.93 0 0 0-.4-1.27Z" style="fill:#eaa86c"/><path d="M57.33 25.22a4.19 4.19 0 0 1 2.39 0 1.27 1.27 0 0 1 .33 1.29 1.18 1.18 0 0 1-1.14 1c-.67 0-1.6-.13-1.76-.43a1.63 1.63 0 0 1 .18-1.86Z" style="fill:#eaa86c"/><path d="M48.58 25.64a4.13 4.13 0 0 1 2.34-.21 1.24 1.24 0 0 1 .45 1.22 1.16 1.16 0 0 1-1 1.08c-.66 0-1.58 0-1.77-.26a1.6 1.6 0 0 1-.02-1.83Z" style="fill:#d68d51"/><path d="M38.41 14.26c2.12-2.3 3.73-7.64 4.8-11.7A1.32 1.32 0 0 0 42.36 1C40.61.37 37.18-.57 34.87.46 31.63 1.9 30.15 10 30.29 11.81c2.73 1 5.44 1.78 5.44 1.78Z" style="fill:#5c5c5c"/><path d="M29.09 18.86S37.93 16 39.27 15A6.59 6.59 0 0 0 34 10.62c-3.25.09-4.12.86-5.27 1.82S22.12 19.53 12.92 18c3.64 3.35 16.17.86 16.17.86Z" style="fill:#3f3f3f"/><path d="M30.12 18.59s-12.34 1.66-20-1.66a.79.79 0 0 0-1.12.85c.4 2.47.61 3.07 1.8 4.39a5.06 5.06 0 0 0 4.73 1.57 59.37 59.37 0 0 0 14.59-5.15Z" style="fill:#5c5c5c"/><path d="m46.42 19-.35-.2-.31-.18-.58-.39-.29-.2-.3-.22-.65-.48-2.6-1.89-5.19-3.8-.33-.2a2.76 2.76 0 1 0-2.6 4.88l5.67 3 2.83 1.51.71.38.38.2.4.2.81.38.41.17.37.15L56 26.78a4.14 4.14 0 0 0 .64-1.91Z" style="fill:#3f3f3f"/><path d="m45 8-2-.09a.39.39 0 0 1-.36-.27l-.12-.36a.31.31 0 0 1 .31-.41l2.08.13Z" style="fill:#83b799"/><rect x="37.51" y="71.24" width="4.5" height="1.26" rx=".59" transform="rotate(-40.99 39.756 71.879)" style="fill:#5c5c5c"/></g></svg>