<svg xmlns="http://www.w3.org/2000/svg" viewBox="0 0 52.27 59.7"><g data-name="Layer 2"><path d="M24.58 47.77 24 44.3l-.29-1.74-.15-.87-.07-.43-.09-.43-2.91-13.77a3 3 0 0 0-.18-.56 4 4 0 0 0-4.9-1.95 3.21 3.21 0 0 0-2.24 4.27l5.61 13.08 4.82 11.56a4.4 4.4 0 0 0 1.87-.46Z" style="fill:#b2765b"/><path d="m25.68 54-.18-1a4.4 4.4 0 0 1-1.87.44l.42 1a2.86 2.86 0 0 0 1.63-.44Z" style="fill:#e2cd6d"/><path d="M28.1 54a.44.44 0 0 0-.52-.28l-1.9.36a2.86 2.86 0 0 1-1.66.43l.24.56v.19a.74.74 0 0 0 .92.28l2.6-1.11a.38.38 0 0 0 .32-.43Z" style="fill:#42363a"/><path d="M21.46 35a1.26 1.26 0 0 0 .74-1.42l-1.41-6.65s-.59-3.25-4.66-2.95-3.27 4.78-3.27 4.78l2.35 5.94a1.55 1.55 0 0 0 1.14 1 9.21 9.21 0 0 0 5.11-.7Z" style="fill:#ba4a4a"/><path d="M26.9 55.51a.23.23 0 0 1-.22-.19l-.85-5.2a.22.22 0 0 1 .44-.08l.86 5.21a.23.23 0 0 1-.19.26Z" style="fill:#272324"/><path d="M26.17 52.1 9 51.53A1.57 1.57 0 0 1 7.52 50 1.57 1.57 0 0 1 9 48.4l17.13-.58A2.14 2.14 0 0 1 28.38 50a2.14 2.14 0 0 1-2.21 2.1Z" style="fill:#88bcb5"/><path d="M9.86 59.7a9.86 9.86 0 1 1 9.86-9.86 9.87 9.87 0 0 1-9.86 9.86Zm0-18.6a8.74 8.74 0 1 0 8.73 8.74 8.75 8.75 0 0 0-8.73-8.74Z" style="fill:#272324"/><circle cx="9.86" cy="49.84" r="1.24" style="fill:#272324"/><path d="M42.41 59.7a9.86 9.86 0 1 1 9.86-9.86 9.87 9.87 0 0 1-9.86 9.86Zm0-18.6a8.74 8.74 0 1 0 8.74 8.74 8.74 8.74 0 0 0-8.74-8.74Z" style="fill:#272324"/><circle cx="42.41" cy="49.84" r="1.24" style="fill:#272324"/><path d="M42.41 50.4a.55.55 0 0 1-.53-.39L35.19 29.4a.55.55 0 0 1 .36-.71.56.56 0 0 1 .71.36L43 49.67a.56.56 0 0 1-.37.7.47.47 0 0 1-.22.03Z" style="fill:#88bcb5"/><path d="m26.82 49.93-2.24-.19a17.55 17.55 0 0 1 6.81-13 16.89 16.89 0 0 1 6-3l.52 2.26-.25-1.1.25 1.1c-.41.09-10.12 2.46-11.09 13.93ZM21.86 50.4a.56.56 0 0 1-.53-.36L15 33.26a.55.55 0 0 1 .33-.72.56.56 0 0 1 .72.33l6.29 16.77a.57.57 0 0 1-.33.73.63.63 0 0 1-.15.03Z" style="fill:#88bcb5"/><path d="M9.86 50.4a.57.57 0 0 1-.56-.49c0-.1-1.06-9.5 7.65-13.09a.58.58 0 0 1 .74.31.57.57 0 0 1-.31.74c-7.93 3.26-7 11.81-7 11.9a.56.56 0 0 1-.49.63Z" style="fill:#88bcb5"/><path d="M20.12 32.21c.13-1.34-6.75-1.69-8.09-1.28s-1.16 2.39-.64 2.74 8.55.41 8.73-1.46Z" style="fill:#272324"/><path d="M35.72 29.78a.57.57 0 0 1-.56-.49.58.58 0 0 1 .5-.63s3.24-.4 4.49-2a2.22 2.22 0 0 0 .46-1.71c-.41-3.15-6-3.47-6.08-3.47a.57.57 0 0 1-.54-.59.56.56 0 0 1 .59-.53c.27 0 6.62.38 7.14 4.45a3.26 3.26 0 0 1-.72 2.53c-1.55 2-5.1 2.42-5.25 2.44Z" style="fill:#88bcb5"/><circle cx="26.09" cy="49.96" r=".93" style="fill:#272324"/><path d="M26.09 52.91A2.95 2.95 0 1 1 29 50a2.95 2.95 0 0 1-2.91 2.91Zm0-5.44A2.5 2.5 0 1 0 28.58 50a2.49 2.49 0 0 0-2.49-2.53Z" style="fill:#272324"/><path d="m27 44.87-.14-.06.44-1a2.34 2.34 0 0 1-1.83-.43l-.17 1.25a2.7 2.7 0 0 0 1.7.24Z" style="fill:#e2cd6d"/><path d="M28.28 45.42 27 44.87a2.7 2.7 0 0 1-1.7-.28l-.06.39v.16a.55.55 0 0 0 .5.59l2.3.41a.47.47 0 0 0 .47-.2.37.37 0 0 0-.23-.52Z" style="fill:#42363a"/><path d="M29.75 33.13a9 9 0 0 0-1.93-3.35 10.91 10.91 0 0 0-1.56-1.38l-.43-.31-.46-.28-.77-.46-5.55-3.27a3.85 3.85 0 0 0-.77-.35 4 4 0 0 0-4.94 1.91c-.76 1.72.06 3.18 2 3.84L21.79 32l.7.23.26.09.25.1a5.27 5.27 0 0 1 2.51 2 4.9 4.9 0 0 1 .74 2.08v1.16l-.2 1.45-.59 4.15a2.34 2.34 0 0 0 1.83.43l1.67-4 .57-1.37v-.19l.07-.21.14-.42c.06-.29.15-.58.19-.87a7.8 7.8 0 0 0-.18-3.5Z" style="fill:#d38862"/><path d="M25.64 27.52a1.1 1.1 0 0 1 .43 1.22 6.79 6.79 0 0 1-.63 1.47 8.18 8.18 0 0 1-.45.69 8.58 8.58 0 0 1-1.28 1.43 1.45 1.45 0 0 1-1.49.27c-1.26-.5-2.77-1.09-3.76-1.43-1.63-.55-5.36-2-5.66-3.8s1-3.66 3.91-4a3.63 3.63 0 0 1 1.34.13c.2.05.41.12.62.19a33.74 33.74 0 0 1 6.97 3.83Z" style="fill:#d65b5b"/><path d="M11.72 25.49s.31 4 3.18 5.05a71.1 71.1 0 0 0 7.85 1.81c-3.57-2.51-11.03-6.86-11.03-6.86Z" style="fill:#d65b5b"/><path d="M26.47 4.47c-.06 1.06-1 1.8-.75 2.24s.53.92.44 1.2-.69.3-.7.44.18.51.06.64-.4.22-.41.36a.5.5 0 0 1-.31.43c-.22.09-.17.38-.26.73a.78.78 0 0 1-1.25.23c-.53-.46-2.19-1-2.18-2.65C19.62 7.74 17 7 17.07 4.35S18.78 0 21.2.17s5.41 1.71 5.27 4.3Z" style="fill:#d38862"/><path d="M22.71 12.71a3.72 3.72 0 0 0-.18-.65 4.35 4.35 0 0 1 .28-2.06l-.55-2.26-3.77-.93s.09 1.7-.47 2.12l-.18.12c1.76 1.05 2.9 3.66 4.87 3.66Z" style="fill:#d38862"/><path d="M21.75 19.75c.38-.92 1.37-2.47 1.25-4.28a25.49 25.49 0 0 0-.29-2.76c-2 0-3.11-2.61-4.87-3.66a8.61 8.61 0 0 0-2.2 1.19A10.53 10.53 0 0 0 11.83 16a24.51 24.51 0 0 0-.83 8.08 10.17 10.17 0 0 0 .55 2.57 1.15 1.15 0 0 0 1.2.78c2.85-.23 6-.68 8.2-2.4a.81.81 0 0 0 .3-.77 10.81 10.81 0 0 1 .5-4.51Z" style="fill:#e2cd6d"/><path d="M32.42 20.09a3.66 3.66 0 0 1 1.91-.24.92.92 0 0 1 .42.92.9.9 0 0 1-.79.86c-.54.05-1.29.08-1.46-.13a1.17 1.17 0 0 1-.08-1.41Z" style="fill:#d38862"/><path d="m32.9 20.13-4.16-.41-1-.11a5.4 5.4 0 0 1-.89-.18 6.49 6.49 0 0 1-1.66-.74 7.33 7.33 0 0 1-2-1.89l-.63-.9-.77-1.1a4.45 4.45 0 0 1-2.1 2.94l.61.65.39.42.22.23.23.24a9.13 9.13 0 0 0 1 .88 9.41 9.41 0 0 0 2.2 1.28 8.19 8.19 0 0 0 2.26.56 7.77 7.77 0 0 0 1.18 0l1-.08 4.22-.28a.66.66 0 0 0 .57-.69.78.78 0 0 0-.67-.82Z" style="fill:#d38862"/><path d="m21.77 14.32-1.55-2c-.07-.09-.16-.18-.24-.27a2.39 2.39 0 1 0-3.28 3.45l2.15 2a6.52 6.52 0 0 0 2.92-3.18Z" style="fill:#c9b357"/><path d="m22.21 14.88-.44-.56a6.52 6.52 0 0 1-2.91 3.24l.51.49a.65.65 0 0 0 .8.08 5.12 5.12 0 0 0 2.16-2.46.83.83 0 0 0-.12-.79Z" style="fill:#d65b5b"/><path d="M21.59 7.28a.91.91 0 0 0-.69-.83h-.09c-.41-.17-.41-1.54.14-1.8a.56.56 0 0 1 .7.17.89.89 0 0 0 .66.28 6.12 6.12 0 0 0 3.78-1 .89.89 0 0 0 .21-1 5.38 5.38 0 0 0-4.56-3 5.11 5.11 0 0 0-4.84 2.12C15 4.61 11.8 6.94 9.65 7.17S6.27 9.3 7.38 11.25s4.28 2.5 6.7 1.8 2.82-2.82 4.08-3.05c1.1-.27 3.53-.66 3.43-2.72Z" style="fill:#272324"/><rect x="24.97" y="45.82" width="3.64" height="1.02" rx=".48" transform="rotate(11.57 26.783 46.348)" style="fill:#5c5c5c"/><rect x="24.85" y="54.91" width="3.64" height="1.02" rx=".48" transform="rotate(-23.53 26.68 55.428)" style="fill:#5c5c5c"/><path d="M26.05 50.31a.23.23 0 0 1-.18-.26l.7-3.62a.21.21 0 0 1 .26-.17.23.23 0 0 1 .18.26l-.7 3.61a.22.22 0 0 1-.26.18Z" style="fill:#272324"/></g></svg>