<svg xmlns="http://www.w3.org/2000/svg" viewBox="0 0 78 81.46"><g data-name="Layer 2"><rect x="37.55" y="64.15" width="4.5" height="1.26" rx=".59" transform="rotate(20.98 39.784 64.776)" style="fill:#5c5c5c"/><path d="M38 70a.23.23 0 0 1-.14-.29l1.68-4.65a.22.22 0 0 1 .28-.13.23.23 0 0 1 .14.29l-1.68 4.64A.23.23 0 0 1 38 70ZM34.67 77.44h-.1a.23.23 0 0 1-.11-.3l3.17-6.85a.22.22 0 1 1 .4.19l-3.16 6.85a.23.23 0 0 1-.2.11Z" style="fill:#42363a"/><path d="m44.41 54.93 1.1-2.13c.09-.16.19-.41.29-.63a5.24 5.24 0 0 0 .28-.69l.23-.71.17-.73a11 11 0 0 0 .21-3 11.48 11.48 0 0 0-2.11-5.84 12.34 12.34 0 0 0-2.22-2.35l-.66-.49-.51-.36-1-.7-1.95-1.4-7.74-5.63a4.41 4.41 0 0 0-.82-.48 4.71 4.71 0 0 0-3.86 8.59l8.74 3.93 4.13 1.85A5.87 5.87 0 0 1 40 45a6.5 6.5 0 0 1 1 1.22 6.63 6.63 0 0 1 .69 1.53 6.43 6.43 0 0 1 .31 1.72v.89a3.25 3.25 0 0 1-.08.45 4.56 4.56 0 0 1-.11.49l-.65 2.31-1 3.42a6 6 0 0 0 2.53 1.32Z" style="fill:#b2765b"/><path d="m40.6 63-.28-.17 2.32-4.47A6 6 0 0 1 40.11 57l-1.47 5.23a1.6 1.6 0 0 0 1.96.77Z" style="fill:#e4d8b4"/><path d="M41.8 63.73 40.6 63a1.6 1.6 0 0 1-2-.73l-.16.57V63a.72.72 0 0 0 .47.88l2.45.83a.54.54 0 0 0 .45-1Z" style="fill:#757575"/><path d="M37.36 35.19a8.14 8.14 0 0 1-3.81 6.74 1 1 0 0 1-.89.07c-5.75-2.37-7.53-3.19-7.53-3.19a5.44 5.44 0 0 1-1.22-7.4C26 27.9 30.71 28.64 37 34.27a1.18 1.18 0 0 1 .36.92Z" style="fill:#6aa080"/><path d="M14.24 81.46A14.17 14.17 0 1 1 28.41 67.3a14.18 14.18 0 0 1-14.17 14.16Zm0-27.21a13 13 0 1 0 13 13 13.06 13.06 0 0 0-13-13Z" style="fill:#42363a"/><path d="M14.24 80.51A13.22 13.22 0 1 1 27.45 67.3a13.23 13.23 0 0 1-13.21 13.21Zm0-25.75A12.54 12.54 0 1 0 26.78 67.3a12.55 12.55 0 0 0-12.54-12.54Z" style="fill:#e2cd6d"/><path d="M29.26 64a.57.57 0 0 1-.55-.43 14.93 14.93 0 0 0-22.41-9 .57.57 0 0 1-.78-.18.55.55 0 0 1 .18-.77 16.06 16.06 0 0 1 24.1 9.63.56.56 0 0 1-.4.69Z" style="fill:#757575"/><path d="M17.11 67.3a2.59 2.59 0 1 1-2.58-2.59 2.58 2.58 0 0 1 2.58 2.59ZM63.83 81.46A14.17 14.17 0 1 1 78 67.3a14.18 14.18 0 0 1-14.17 14.16Zm0-27.21a13 13 0 1 0 13 13 13.06 13.06 0 0 0-13-13Z" style="fill:#42363a"/><path d="M63.83 80.51A13.22 13.22 0 1 1 77 67.3a13.23 13.23 0 0 1-13.17 13.21Zm0-25.75A12.54 12.54 0 1 0 76.36 67.3a12.55 12.55 0 0 0-12.53-12.54Z" style="fill:#e2cd6d"/><path d="M66.42 67.3a2.59 2.59 0 1 1-2.59-2.59 2.59 2.59 0 0 1 2.59 2.59Z" style="fill:#42363a"/><path d="M48.79 63.19a.51.51 0 0 1-.17 0 .56.56 0 0 1-.37-.7 16.34 16.34 0 0 1 23.28-9.55.57.57 0 0 1 .23.76.56.56 0 0 1-.77.23 15.2 15.2 0 0 0-21.67 8.89.56.56 0 0 1-.53.37Z" style="fill:#757575"/><path d="M63.83 67.86a.57.57 0 0 1-.55-.44l-7.79-33.73a.56.56 0 0 1 1.09-.25l7.8 33.73a.56.56 0 0 1-.42.67ZM37.93 70.52h-.06l-23.68-2.78a.45.45 0 0 1-.4-.5.46.46 0 0 1 .5-.39L38 69.63a.44.44 0 0 1 .39.5.44.44 0 0 1-.46.39Z" style="fill:#939393"/><path d="M14.24 67.75a.35.35 0 0 1-.14 0 .45.45 0 0 1-.29-.56C16.48 58.71 20.14 52.6 25 48.46a.45.45 0 0 1 .58.68c-4.72 4-8.28 10-10.9 18.29a.46.46 0 0 1-.44.32Z" style="fill:#939393"/><path d="M25.28 49.36a.55.55 0 0 1-.56-.53l-.29-6.76a.56.56 0 1 1 1.12 0l.29 6.76a.56.56 0 0 1-.54.58Z" style="fill:#939393"/><path d="M37.81 70.56a.69.69 0 0 1-.63-.43c-3.84-9.95-7.88-16.76-12.36-20.83a.68.68 0 0 1 0-.95.67.67 0 0 1 .95-.05c4.64 4.22 8.8 11.2 12.71 21.34a.66.66 0 0 1-.39.87.69.69 0 0 1-.28.05Z" style="fill:#939393"/><path d="M37.83 70.56a.68.68 0 0 1 0-1.35c2.42 0 4.19-4.81 6.06-9.91 2.81-7.64 6.31-17.16 14.3-16.3a.67.67 0 1 1-.14 1.34c-6.94-.77-10.1 7.82-12.89 15.4-2.16 5.82-3.97 10.82-7.33 10.82ZM14 67.68a.32.32 0 0 1-.3-.2l-8-17.7a.34.34 0 0 1 .17-.45.33.33 0 0 1 .44.17l8 17.7a.34.34 0 0 1-.17.45.32.32 0 0 1-.14.03Z" style="fill:#939393"/><path d="M6 50a.34.34 0 0 1 0-.68l19.28-.84a.33.33 0 0 1 .35.33.33.33 0 0 1-.32.35L6 50Z" style="fill:#939393"/><path d="m29 42.62-7.42-.87a1.31 1.31 0 0 1-1.14-1.44 1.29 1.29 0 0 1 1.44-1.13l7.42.87a1.29 1.29 0 0 1 1.14 1.43A1.31 1.31 0 0 1 29 42.62Z" style="fill:#3f3f3f"/><path d="M56 34.13a.54.54 0 0 1-.22 0l-7.25-3a.57.57 0 0 1-.3-.74.56.56 0 0 1 .73-.3l7.25 3a.56.56 0 0 1-.21 1.04Z" style="fill:#939393"/><path d="M37.81 74.15a4.27 4.27 0 1 1 4.27-4.27 4.27 4.27 0 0 1-4.27 4.27Zm0-8.09a3.82 3.82 0 1 0 3.82 3.82 3.83 3.83 0 0 0-3.82-3.82Z" style="fill:#42363a"/><path d="M39.06 69.88a1.25 1.25 0 1 1-2.49 0 1.25 1.25 0 0 1 2.49 0Z" style="fill:#42363a"/><path d="M9.11 34.36 9 33.67s-.22-.82.36-1.07 1.26 0 1.29.39a4.88 4.88 0 0 1-.54 1.55Z" style="fill:#d38862"/><path d="M9.71 40.74a.35.35 0 0 1-.05-.08c-.67-1.25-.77-4.79-1.92-5.75a3.15 3.15 0 0 1-1-2 6 6 0 0 1-3.34 0 13.79 13.79 0 0 0-.4 5.16c.16 1.81.9 5.18 2.33 6.74a9.9 9.9 0 0 0 4.38-4.07Z" style="fill:#9e3939"/><path d="M18.19 48.23c-.39-1-.39-4.79-2.3-5.56s-5.39-.77-6.18-1.93a9.9 9.9 0 0 1-4.43 4.07 2.58 2.58 0 0 0 1 .73c2.11.77 7.38-.19 8.63 1.25a21.08 21.08 0 0 1 1.76 2.62 4.22 4.22 0 0 0 1.64-.93 1.23 1.23 0 0 1-.12-.25Z" style="fill:#6aa080"/><path d="M18.33 48.48a4.22 4.22 0 0 1-1.64.93c.34.54.64.94.92 1 .67.19 2.59.38 2.59-.38s-1.33-.82-1.87-1.55Z" style="fill:#dd9954"/><path d="M6.73 32.9a3.42 3.42 0 0 1 0-.68 17.4 17.4 0 0 0-3-1.14 4.39 4.39 0 0 1-.3 1.76.94.94 0 0 0 0 .09 6 6 0 0 0 3.3-.03Z" style="fill:#d38862"/><path d="M24.38 28c-1.45 2.39-2.72 5.34-1.91 7.43A7.21 7.21 0 0 0 27.36 40a6.51 6.51 0 0 0 6.18-1.79 12.28 12.28 0 0 0 2-4.18A14.36 14.36 0 0 1 24.38 28Z" style="fill:#83b799"/><path d="m37 65.5.6-2.59.3-1.3c0-.21.1-.47.15-.7s.09-.48.13-.72a25.13 25.13 0 0 0 .29-5.89 25.61 25.61 0 0 0-1.12-5.9c-.08-.25-.15-.49-.24-.73l-.25-.7-.46-1.25-.9-2.51-3.63-10a6.08 6.08 0 0 0-.36-.78 4.7 4.7 0 0 0-8.12 4.75l5.38 9.2 1.34 2.3.67 1.15.3.5c.1.17.19.33.27.5A19.31 19.31 0 0 1 33 55.12a19.86 19.86 0 0 1 .64 4.69v1.22l-.06 1.33-.15 2.64-.22 4.85a7.75 7.75 0 0 0 2.61.54Z" style="fill:#d38862"/><path d="m34.74 75.48-.08-.06 1.16-5a7.75 7.75 0 0 1-2.61-.54L33 75a2 2 0 0 0 1.74.48Z" style="fill:#e4d8b4"/><path d="M36.36 76.6c-.53-.38-1.08-.75-1.62-1.12A2 2 0 0 1 33 75v.8a.71.71 0 0 0 .42.67l2.49 1.06a.54.54 0 0 0 .51-.94Z" style="fill:#757575"/><path d="M35 41a9.12 9.12 0 0 1-3.16 2c-.26.1-.51.2-.77.28s-.69.2-1 .28-.74.14-1.08.19a14 14 0 0 1-2.08.12 1.74 1.74 0 0 1-1.38-.74c-2.15-3-6-10.48 0-13.1 6.3-2.76 7.85 3.26 9.81 9.66A1.23 1.23 0 0 1 35 41Z" style="fill:#83b799"/><path d="M38 9.75a8.08 8.08 0 0 1-.7 3.25 10.74 10.74 0 0 0 4.17 1.92 7.35 7.35 0 0 0 1.29-2.88C41.42 10.14 38 9.75 38 9.75ZM26.21 25.3c-.4.54-.87 1.19-1.35 1.92A15.62 15.62 0 0 0 35.77 33c.14-.54.26-1.05.36-1.51-1.37-2.49-6.83-4.75-9.92-6.19Z" style="fill:#d38862"/><path d="M41.09 16c-.29-2-1.73-3.16-2.88-4.6a.23.23 0 0 1-.06-.25c-.35.18-.68.38-1 .56a11.63 11.63 0 0 0-4.41 2.31 11.31 11.31 0 0 0-2.06 2.88c-.44.8-1 1.6-1.59 2.52a38.49 38.49 0 0 0-3.2 5.64 1.52 1.52 0 0 0 .39 1.73A22.22 22.22 0 0 0 35.1 32a1.41 1.41 0 0 0 1.7-.83 40.08 40.08 0 0 1 1.63-3.81c1.48-2.81 4.1-6.6 3.77-10.38a2.31 2.31 0 0 1-1.11-.98Z" style="fill:#e4d8b4"/><path d="M38.73 10.9a6.19 6.19 0 0 0-.58.28.23.23 0 0 0 .06.25C39.36 12.87 40.8 14 41.09 16a2.31 2.31 0 0 0 1.11 1 7.08 7.08 0 0 0-1.2-3.38 24.14 24.14 0 0 1-2.27-2.72ZM47.32 9.26c0 .2-.29.45-.47.45a.48.48 0 0 0-.43.27c-.08.16 0 .43 0 .58a.28.28 0 0 1-.07.16.43.43 0 0 0 0 .33.24.24 0 0 1 0 .17.55.55 0 0 0-.13.48 1.18 1.18 0 0 1 .06.7.62.62 0 0 1-.6.52 7.25 7.25 0 0 1-2.15-.14 6.18 6.18 0 0 1-.75-.39 2.5 2.5 0 0 1-1-.92c-.92-.27-3-.27-3.72-1.24s-1.8-2-1.58-4.25a4 4 0 0 1 1.8-3.47 5.18 5.18 0 0 1 3.28-.89c3.77.09 4.6 2.26 4.82 3.39s.19 1.4 0 1.7a2.09 2.09 0 0 0 .4 1.51 2.87 2.87 0 0 1 .54 1.04Z" style="fill:#d38862"/><path d="m40.05 15 1.15 5.91.28 1.48.14.71c.05.19.07.39.13.57a8.06 8.06 0 0 0 1 2.2 8.4 8.4 0 0 0 3.76 3.21l.61.23.71.23 1.43.47 2.86.94a.94.94 0 0 1 .6 1.18 1 1 0 0 1-1 .64l-3-.5-1.53-.27-.74-.13c-.28-.06-.56-.11-.83-.18a11.63 11.63 0 0 1-5.83-3.58 12.28 12.28 0 0 1-1.91-3c-.13-.27-.23-.56-.34-.84l-.26-.73-.51-1.41-2-5.67a2.77 2.77 0 0 1 5.21-1.86c.02.14.02.28.07.4Z" style="fill:#d38862"/><path d="M41 6.69a2.17 2.17 0 0 0 2.2 0 2.85 2.85 0 0 0 .85-1.09 2.58 2.58 0 0 1 1.26-1.2 1.8 1.8 0 0 0 .82-.68C46.65 2.9 45.26.89 43 .8a7.64 7.64 0 0 0-3.33.59 3.13 3.13 0 0 1-1.17.23A2.91 2.91 0 0 0 36 2.86c-1 1.58-.33 3.21-1.29 4.4s-3.65 0-4.48 2.2a2.79 2.79 0 0 1-.64 1c-1.19 1.19-1 3.64.8 3.94a3.32 3.32 0 0 1 1.26.47 3.35 3.35 0 0 0 4.35-.53.9.9 0 0 1 1.09-.3 2.66 2.66 0 0 0 3.79-2.8c-.18-.86-.29-1.44-.35-1.83A2.06 2.06 0 0 0 40 8.29a1.54 1.54 0 0 1-.48-1.36c.18-1.1 1.23-1.34 1.48-.24Z" style="fill:#7c523d"/><path d="M42.69 7a1.91 1.91 0 0 1-.75 0V5.13l.72.07s-.01.69.03 1.8Z" style="fill:#7c523d"/><path d="M50.8 30.61a4.25 4.25 0 0 1 2.41-.15 1.29 1.29 0 0 1 .42 1.27 1.2 1.2 0 0 1-1.08 1.08c-.67 0-1.62 0-1.81-.31a1.66 1.66 0 0 1 .06-1.89Z" style="fill:#d38862"/><path d="M31.84 43c-.26.1-.51.2-.77.28-.56-1.3-2.37-5.53-2.49-7.17a12.42 12.42 0 0 1 .79-4.38l.58.57a7.46 7.46 0 0 0-.5 3.67A51.61 51.61 0 0 0 31.84 43Z" style="fill:#e4d8b4"/><path d="M30 43.6c-.37.08-.74.14-1.08.19-.64-1.59-2.35-5.79-2.35-7.79a17.41 17.41 0 0 1 1.08-5.25l.65.51a9 9 0 0 0-.72 5A44 44 0 0 0 30 43.6Z" style="fill:#e4d8b4"/><path d="M35.49 34c.1-.34.2-.67.28-1a15.62 15.62 0 0 1-10.91-5.77q-.24.38-.48.78A14.36 14.36 0 0 0 35.49 34ZM50.93 30.43a2 2 0 0 1-.08 2.21.37.37 0 0 1-.36.18l-1.91-.2a.37.37 0 0 1-.29-.52 4 4 0 0 0 .38-2 .36.36 0 0 1 .49-.37l1.59.6a.42.42 0 0 1 .18.1Z" style="fill:#578c6d"/><path d="M43.48 12.77a6.18 6.18 0 0 1-.75-.39c-.18-.66-.41-1.56-.49-2.1a15.87 15.87 0 0 1-1.67-.74s0-.09 0-.13a2 2 0 0 0-.14-.49 5.41 5.41 0 0 0 1.83.64A14.39 14.39 0 0 1 41.94 7V5.13l.72.07v1.78a25 25 0 0 0 .82 5.79ZM46.26 5.11a2 2 0 0 0 .49-.11.88.88 0 0 0 0-.17A5.84 5.84 0 0 0 44.61.44c-1.51-1.16-6.9.22-8.41 1.31a5 5 0 0 0-1.45 3.05c3.35-2.31 7.76.31 11.51.31Z" style="fill:#42363a"/><path d="M46.26 5.11c-3.75 0-8.16-2.62-11.51-.26A1 1 0 0 0 36.09 6l3.58-1.08a1.07 1.07 0 0 1 1.08.29 2.11 2.11 0 0 0 1.72.68L46 5.65a.81.81 0 0 0 .75-.65 2 2 0 0 1-.49.11ZM44.54 4l-4.6-1a8.68 8.68 0 0 1 3.3-.14A2.17 2.17 0 0 1 44.54 4ZM44.82 2.59a7.27 7.27 0 0 0-3.33-1c2.4-.51 3.12.14 3.33 1Z" style="fill:#e2cd6d"/><path d="M9 28.17c.18.82-.36 1.58-.1 1.87s.61.59.6.82-.47.38-.44.49.24.35.18.47-.26.26-.24.37a.44.44 0 0 1-.14.4c-.15.11 0 .32 0 .6a.61.61 0 0 1-.9.45c-.51-.24-1.89-.3-2.24-1.57-1.21.06-3.37.08-3.88-2s.34-3.65 2.22-4.07 4.5.15 4.94 2.17Z" style="fill:#d38862"/><path d="M5.84 31.33a.6.6 0 0 0-.38-.41.76.76 0 0 1-.18-.09c-.2-.11-.53-.85-.08-1.18a.35.35 0 0 1 .54.14.71.71 0 0 0 .63.32A1.27 1.27 0 0 0 7 29.9a1.11 1.11 0 0 0 .38-.36.79.79 0 0 1 .62-.36 1.3 1.3 0 0 0 .76-.28 1 1 0 0 0 .4-1.07.59.59 0 0 1 .09-.46.6.6 0 0 0-.12-.83 1.26 1.26 0 0 0-.92-.3.74.74 0 0 1-.65-.31 1.1 1.1 0 0 0-1.14-.5 2.17 2.17 0 0 0-1.12.4.81.81 0 0 1-.75.12 1.64 1.64 0 0 0-1.52.2 1.77 1.77 0 0 0-.71.86.74.74 0 0 1-.54.5 1.24 1.24 0 0 0-.88.77 1.06 1.06 0 0 0 .17 1.07.63.63 0 0 1 0 .66.94.94 0 0 0 .13 1.1 1.19 1.19 0 0 0 .77.46.65.65 0 0 1 .53.41.68.68 0 0 0 .7.46 1.36 1.36 0 0 0 .93-.25.81.81 0 0 1 .74-.19.93.93 0 0 0 .7-.15.5.5 0 0 0 .27-.52Z" style="fill:#42363a"/><path d="M4.82 34.29a1.46 1.46 0 0 1 1.83.76l1.24 2.54a15.8 15.8 0 0 1 .46-1.94l.43-1.23a.51.51 0 0 1 .51-.35 2.61 2.61 0 0 1 .64.11.57.57 0 0 1 .41.59c-.1 1.94-.32 5.13-2.27 5.3s-3.49-2-3.78-3.09-.46-2.29.53-2.69Z" style="fill:#6aa080"/><path d="M3.29 28.43a4.27 4.27 0 0 0 2.53 2.83c.16-1.18.27-2.51.27-2.51h.43s-.36 3.59-.43 4.2l-.47-.29.07-.89a4.31 4.31 0 0 1-2.87-3.2.81.81 0 0 1 .47-.14Z" style="fill:#96848b"/><path d="M64.82 46.34h-2a2.9 2.9 0 0 1-2.87-2.4l-1.34-7.65a.31.31 0 0 1 0-.1h-3.44A.22.22 0 0 1 55 36a.22.22 0 0 1 .22-.22h12.19a1.21 1.21 0 0 1 .94.43 1.23 1.23 0 0 1 .3 1l-1 6.68a2.92 2.92 0 0 1-2.83 2.45ZM59 36.19l1.33 7.65a2.46 2.46 0 0 0 2.43 2h2a2.46 2.46 0 0 0 2.43-2.11l1-6.68a.83.83 0 0 0-.19-.64.8.8 0 0 0-.6-.27Z" style="fill:#3f3f3f"/><path d="M67.82 39.06h-8.43a.23.23 0 1 1 0-.45h8.43a.23.23 0 1 1 0 .45ZM67.63 42.32H60a.22.22 0 0 1-.22-.23.22.22 0 0 1 .22-.22h7.67a.23.23 0 1 1 0 .45Z" style="fill:#3f3f3f"/><path d="M62.46 46.25a.23.23 0 0 1-.23-.21l-.67-9.87a.23.23 0 0 1 .45 0l.67 9.83a.22.22 0 0 1-.21.24Z" style="fill:#3f3f3f"/><path d="M9.5 28.52a1.52 1.52 0 0 0 .38-.05.69.69 0 0 0 0-.13 4.56 4.56 0 0 0-1.7-3.48C7 24 2.79 25 1.61 25.88a4 4 0 0 0-1.14 2.39v.05c2.63-1.85 6.09.2 9.03.2Z" style="fill:#83b799"/><path d="M9.5 28.52c-2.94 0-6.4-2.05-9-.2a.82.82 0 0 0 1.05.9l2.81-.85a.85.85 0 0 1 .85.23 1.66 1.66 0 0 0 1.34.53l2.8-.19a.62.62 0 0 0 .56-.47 1.52 1.52 0 0 1-.41.05Z" style="fill:#e2cd6d"/><path d="m.06 35.53 3.15 10.23A3.18 3.18 0 0 0 6.29 48h4.64a4.62 4.62 0 0 1 4.37 3l.12.33a1.9 1.9 0 0 0 1.79 1.24 1 1 0 0 0 1-1.31l-1.7-5.96a3 3 0 0 0-2.44-2.17l-1.81-.29a5.6 5.6 0 0 1-4.32-3.56C6.66 35.94 4.51 34.05 1.28 34a1.22 1.22 0 0 0-1.22 1.53ZM65.23 46.06a.24.24 0 0 1-.22-.23l.19-9.68a.23.23 0 0 1 .23-.22.22.22 0 0 1 .22.23l-.19 9.68a.22.22 0 0 1-.23.22Z" style="fill:#3f3f3f"/><rect x="31.99" y="76.8" width="4.5" height="1.26" rx=".59" transform="rotate(25.92 34.245 77.428)" style="fill:#5c5c5c"/></g></svg>