<svg xmlns="http://www.w3.org/2000/svg" viewBox="0 0 77.93 84.79"><g data-name="Layer 2"><path d="m43.48 72.92-11.62-1.15a.22.22 0 0 1 0-.44l11.6 1.14a.24.24 0 0 1 .2.25.22.22 0 0 1-.18.2Z" style="fill:#3f3f3f"/><rect x="28.53" y="70.47" width="4.5" height="1.26" rx=".59" transform="rotate(22.06 30.79 71.08)" style="fill:#5c5c5c"/><path d="m29.34 68.39-.26.49L29 69a.69.69 0 0 0-.07.15.8.8 0 0 0 .53 1c1 .32 2 .65 3.06 1a.54.54 0 0 0 .62-.24.55.55 0 0 0-.19-.74l-1.69-1a2.79 2.79 0 0 1-1.92-.78Z" style="fill:#42363a"/><path d="M36.28 63.14a10.91 10.91 0 0 1-2.87-2l-.59 1.06a5.71 5.71 0 0 0 2.76 1.8Z" style="fill:#e4d8b4"/><path d="M35.58 64a5.71 5.71 0 0 1-2.76-1.81l-.2.36a8.28 8.28 0 0 0 2.66 1.81Z" style="fill:#c14b48"/><path d="m32.62 62.51-3.28 5.88a2.79 2.79 0 0 0 1.91.81l-.09-.06 4.12-4.82a8.28 8.28 0 0 1-2.66-1.81Z" style="fill:#e4d8b4"/><path d="m40.81 46.8-.34-.73-.4-.7c-.14-.23-.29-.45-.44-.67l-.45-.63-.53-.74c-1.06 2.22-3.31 3.58-5.46 4.67l.75.7.32.3a2.44 2.44 0 0 1 .29.27l.27.29.24.32a6.6 6.6 0 0 1 1.24 3.06 7.1 7.1 0 0 1-.4 3.51l-.08.22-.1.2c-.07.15-.12.28-.2.44l-.59 1-1.17 2.1-.35.63a10.91 10.91 0 0 0 2.87 2l.49-.58 1.57-1.83.78-.92.43-.57.23-.3.19-.31a12.15 12.15 0 0 0 1.9-5.69 12.75 12.75 0 0 0-1.06-6.04Z" style="fill:#b2765b"/><path d="m37.58 41.21-5.44-6.9a4.44 4.44 0 0 0-.61-.7 4.71 4.71 0 0 0-6.41 6.9l5.21 5.25a14.18 14.18 0 0 0 7.25-4.55Z" style="fill:#51827c"/><path d="m39 43-1.4-1.79a14.18 14.18 0 0 1-7.25 4.55l2.52 2.55a1 1 0 0 0 1.24.18A14.74 14.74 0 0 0 39 44.21 1 1 0 0 0 39 43Z" style="fill:#659992"/><path d="M14.17 84.79a14.17 14.17 0 1 1 14.17-14.17 14.19 14.19 0 0 1-14.17 14.17Zm0-27.21a13 13 0 1 0 13 13 13.06 13.06 0 0 0-13-13Z" style="fill:#3f3f3f"/><path d="M16 70.62a1.82 1.82 0 1 1-1.82-1.82A1.82 1.82 0 0 1 16 70.62ZM63.76 84.79a14.17 14.17 0 1 1 14.17-14.17 14.19 14.19 0 0 1-14.17 14.17Zm0-27.21a13 13 0 1 0 13 13 13.06 13.06 0 0 0-13-13Z" style="fill:#3f3f3f"/><circle cx="63.76" cy="70.62" r="1.82" style="fill:#3f3f3f"/><path d="M63.76 71.18a.56.56 0 0 1-.54-.41L53.28 35a.56.56 0 0 1 .39-.69.57.57 0 0 1 .7.39l9.93 35.77a.56.56 0 0 1-.39.69.39.39 0 0 1-.15.02Z" style="fill:#5e5056"/><path d="M37.74 72.33a.59.59 0 0 1-.35-.12.57.57 0 0 1-.09-.79l19.44-24.69a.56.56 0 1 1 .88.7L38.18 72.12a.55.55 0 0 1-.44.21Z" style="fill:#5e5056"/><path d="M37.74 72.33a.55.55 0 0 1-.53-.38l-10-29.21a.56.56 0 0 1 .35-.71.57.57 0 0 1 .72.35l10 29.21a.55.55 0 0 1-.35.71.57.57 0 0 1-.19.03Z" style="fill:#5e5056"/><path d="m37.74 72.33-23.6-1.15a.56.56 0 0 1 .06-1.12l23.57 1.15a.56.56 0 0 1 0 1.12Z" style="fill:#5e5056"/><path d="M14.17 71.18a.58.58 0 0 1-.41-.17.58.58 0 0 1 0-.8l17.58-16.48a.57.57 0 0 1 .8 0 .56.56 0 0 1 0 .79L14.55 71a.54.54 0 0 1-.38.18Z" style="fill:#5e5056"/><path transform="rotate(-15.5 44.451 50.617)" style="fill:#5e5056" d="M31.25 49.49h26.41v2.25H31.25z"/><path d="m23.1 41.34.19.59A1.76 1.76 0 0 0 25 43.14h7.53A1.72 1.72 0 0 0 31 41.43l-7.09-1.08a.76.76 0 0 0-.81.99Z"/><path d="M53.58 35.36a.47.47 0 0 1-.16 0l-7.13-2.11a.56.56 0 0 1-.38-.7.57.57 0 0 1 .69-.38l7.14 2.11a.56.56 0 0 1 .38.7.55.55 0 0 1-.54.38Z" style="fill:#5e5056"/><path d="M37.74 75.33a3.56 3.56 0 1 1 3.56-3.56 3.56 3.56 0 0 1-3.56 3.56Zm0-6.67a3.11 3.11 0 1 0 3.11 3.11 3.11 3.11 0 0 0-3.11-3.11Z" style="fill:#3f3f3f"/><path d="M39 71.77a1.25 1.25 0 1 1-2.49 0 1.25 1.25 0 0 1 2.49 0Z" style="fill:#3f3f3f"/><path d="m45.89 63.35.58-2.35.63-2.57.16-.65c.05-.22.11-.4.16-.68l.14-.76c0-.26.07-.52.1-.78a13.53 13.53 0 0 0 0-3.18 14.29 14.29 0 0 0-.72-3.14 15 15 0 0 0-3.46-5.58 8.21 8.21 0 0 0-.6-.58c-.21-.19-.41-.39-.63-.56l-.69-.52-.56-.4-1.14-.86a8.72 8.72 0 0 1-3.7 6.26l1.16.58 1 .5c.15.07.28.16.42.24a2.8 2.8 0 0 1 .4.27 7.89 7.89 0 0 1 1.49 1.29 9.28 9.28 0 0 1 2 3.52 9.67 9.67 0 0 1 .41 2.09v2.37l-.17 2.65-.17 2.75a7.38 7.38 0 0 0 3.19.09Z" style="fill:#d38862"/><path d="m45.57 64.66.32-1.31a7.38 7.38 0 0 1-3.21-.13l-.07 1.18a6 6 0 0 0 2.96.26Z" style="fill:#e4d8b4"/><path d="m45.45 65.15.12-.49a6 6 0 0 1-3-.26v.44a6.42 6.42 0 0 0 2.88.31Z" style="fill:#c14b48"/><path d="M45.45 65.15a6.42 6.42 0 0 1-2.87-.31l-.35 5.75a4.21 4.21 0 0 0 2.15-.14h-.24Z" style="fill:#e4d8b4"/><path d="m46.45 70.66-2.07-.21a4.21 4.21 0 0 1-2.15.14v.76a.8.8 0 0 0 .87.72c1.13-.11 2.26-.21 3.39-.34a.54.54 0 0 0 0-1.07Z" style="fill:#5b4f54"/><path d="M22.05 32.41s-.44 5 .66 6.87 3.3 2.81 5.61 3.15 4.62-1.8 5.17-3.15.44-5.52.44-5.52Z" style="fill:#6da39e"/><path d="m38.07 38.88-7.57-5.27a4.32 4.32 0 0 0-.71-.46 4.7 4.7 0 1 0-4.35 8.34l7.41 4.32a12.61 12.61 0 0 0 5.22-6.93Z" style="fill:#6da39e"/><path d="m40.1 40.3-2-1.42a12.61 12.61 0 0 1-5.22 6.93l2.64 1.54a1.35 1.35 0 0 0 1.57-.13 12.25 12.25 0 0 0 3.54-5.57 1.25 1.25 0 0 0-.53-1.35Z" style="fill:#88bcb5"/><path d="M30.73 33.94a3.23 3.23 0 0 1-2.44 4 5.92 5.92 0 0 1-.87-4.38Z" style="fill:#51827c"/><path d="M27.21 32.72s-.72 4.81 1.94 6.25 9.49 5.75 9.49 5.75l.21-.5-9.48-5.75s-1.95-.58-1.66-5.46c-.29-.72-.5-.29-.5-.29Z" style="fill:#88bcb5"/><path d="M35.3 15.15a5.41 5.41 0 0 0-1.78-2 13 13 0 0 1-1.68-1 1.93 1.93 0 0 0-2.44.2l-.08.08a10.77 10.77 0 0 0-3.55 3.34 10.54 10.54 0 0 0-1.16 3.3 19 19 0 0 1-.78 2.77 33.41 33.41 0 0 0-2.44 10.49 1.53 1.53 0 0 0 .87 1.48c3.74 1.77 9.15 1.54 11.48 1.34a1.13 1.13 0 0 0 1-1.22c-.14-1.65-.31-4.75.14-6.18.54-1.63 2.61-8.51.42-12.6Z" style="fill:#42363a"/><path d="M30.06 9.41a8.08 8.08 0 0 1-.67 3.26 8.68 8.68 0 0 0 4.41 1.63 6.23 6.23 0 0 0 1.05-2.59c-1.34-1.92-4.79-2.3-4.79-2.3Z" style="fill:#42363a"/><path d="M33.29 1.41c3.77.09 4.6 2.26 4.82 3.39s.19 1.4 0 1.7.14 1.15.41 1.5a2.75 2.75 0 0 1 .57 1.05c0 .21-.28.46-.47.46a.48.48 0 0 0-.42.27c-.09.16.05.43.05.57a.28.28 0 0 1-.07.17.43.43 0 0 0-.05.33.25.25 0 0 1 0 .17.54.54 0 0 0-.13.48 1.28 1.28 0 0 1 0 .7.6.6 0 0 1-.59.52 7.6 7.6 0 0 1-2.15-.14 3.94 3.94 0 0 1-1.8-1.32c-.92-.27-3-.27-3.72-1.24s-1.8-2-1.58-4.25A4 4 0 0 1 30 2.3a5.12 5.12 0 0 1 3.29-.89Z" style="fill:#d38862"/><path d="M38.1 13.6c-.29-.43.14-.86.21-1.36s-.11-.9-.32-1-.22.36-.47.36-.29-.54-.29-.87.54-.5.9-.57.33-.36.09-.41a1.78 1.78 0 0 0-1.13.23c-.29.21-.32.82-1.18.82s-.69-.89-1-1.22-.32-1.25-.18-2.08a3.75 3.75 0 0 0-.45-1.95c-.28-.64-.28-1.75.19-2.03s1.05.57 2.11.52a1.6 1.6 0 0 0 1.15-2.44A2 2 0 0 0 36 1a1.42 1.42 0 0 1-1-.3 3.54 3.54 0 0 0-2.78-.63A3.49 3.49 0 0 0 30 1.21a1.41 1.41 0 0 1-.75.49 2.34 2.34 0 0 0-1.82 1.62 2.52 2.52 0 0 0 .05 1.52 1.48 1.48 0 0 1-.1 1.16 1.81 1.81 0 0 0 0 1.79 3.21 3.21 0 0 0 .66.8 1.42 1.42 0 0 1 .52 1.09 1.08 1.08 0 0 0 .64 1.08 1.4 1.4 0 0 0 1.26 0 1.4 1.4 0 0 1 1.08-.13c.48.14 1.13.21 1.44-.29a1.79 1.79 0 0 0 .24-.63 1.55 1.55 0 0 0-.8-1.62c-.58-.29-.86-1.73-.15-2.16a.63.63 0 0 1 .8.08.88.88 0 0 1 .25.85A3.58 3.58 0 0 0 33.75 9c.18.39-.14 1-.47 1.79s0 1.15-.14 2.09.61.93 1.18 1.58 1 .29 1.41.86 1 .51 2 .33.65-1.65.37-2.05Z" style="fill:#757575"/><path d="m23.45 30.2-.29 1C39.55 27.33 35.81 13.63 32 12.67s-6 2.49-6 2.49l.67 1.34a4.45 4.45 0 0 1 4.89-2.11c3.29.77 5.88 11.69-8.11 15.81Z" style="fill:#9b3131"/><path d="M27.05 16.17c0-1.24-.07-2-.34-2.07-3.07-.28-6.62 5.75-8.82 11.22-1.67 4.14.24 6.52 2.52 7 .19-6.04 1.53-12.62 6.64-16.15Z" style="fill:#c14b48"/><path d="M27 17.41c0-.44.06-.86.08-1.24-5.11 3.53-6.45 10.11-6.64 16.11a3.89 3.89 0 0 0 1.13.07C21.64 27 22.61 20.79 27 17.41Z" style="fill:#e2cd6d"/><path d="M21.54 32.35a4.19 4.19 0 0 0 1.05-.23c2.07-.76 4-9.72 4.38-14.71-4.36 3.38-5.33 9.59-5.43 14.94Z" style="fill:#c14b48"/><path d="m47.18 31.85-1.43-.29-1.75-.35-.82-.21c-.28-.06-.6-.11-.83-.18a10.66 10.66 0 0 1-2.86-1.1A10.86 10.86 0 0 1 37.1 28a11.3 11.3 0 0 1-1.76-2.34c-.11-.22-.23-.42-.33-.64l-.28-.66-.23-.68c-.08-.22-.12-.46-.18-.68a2.37 2.37 0 0 1-.08-.34l-.06-.35a5.35 5.35 0 0 1-.08-.7l-.05-.72L34 20l-.16-3.5v-.35a2.76 2.76 0 1 0-5.44 1l.6 3.42.15.86c0 .13.07.33.1.49l.11.5c.06.34.17.66.26 1l.16.49c.05.17.12.32.18.48.13.32.24.64.39.94l.46.91.53.87c.17.29.38.55.58.83a15.12 15.12 0 0 0 2.81 2.84 14 14 0 0 0 3.44 1.92 13.47 13.47 0 0 0 3.78.91c.33 0 .6 0 .89.08l.87.06 1.75.12L47 34a7.08 7.08 0 0 0 .18-2.15Z" style="fill:#5b4f54"/><path d="m49.19 32.26-2-.41A7.08 7.08 0 0 1 47 34l2 .14a.94.94 0 0 0 .25-1.85Z" style="fill:#d38862"/><path d="M47.8 32a4.23 4.23 0 0 1 2.37 0 1.25 1.25 0 0 1 .33 1.28 1.19 1.19 0 0 1-1.13 1c-.66 0-1.59-.13-1.75-.43A1.62 1.62 0 0 1 47.8 32Z" style="fill:#d38862"/><rect x="42.52" y="71.81" width="4.5" height="1.26" rx=".59" transform="rotate(-6.44 44.783 72.418)" style="fill:#5c5c5c"/></g></svg>