<svg xmlns="http://www.w3.org/2000/svg" viewBox="0 0 79.94 77.57"><g data-name="Layer 2"><path d="M30.25 39.78v-.06a17 17 0 0 1-6.95 2.9l.28.47.68 1.11c2.42-.54 4.83-1.41 6.43-3.33ZM26.18 29.42a4.79 4.79 0 0 0-.35-.72 4.7 4.7 0 0 0-8 4.87l4.94 8.15a20 20 0 0 0 7.14-2.91Z" style="fill:#42363a"/><path d="m22.73 41.72.55.9a17 17 0 0 0 7-2.9l-.36-.91a20 20 0 0 1-7.19 2.91Z" style="fill:#757575"/><path d="m36.48 61.61-1-5.47-.52-2.75c-.19-1-.43-1.94-.69-2.9s-.58-1.92-.93-2.86-.71-1.8-1-2.67l-1.61-4.09c-1.6 1.92-4 2.79-6.43 3.33l2.21 3.64c.48.79 1 1.61 1.39 2.31s.83 1.49 1.2 2.26.71 1.56 1 2.36l1 2.6 1.9 5.21L35.36 69a9.28 9.28 0 0 0 2.34-.82Z" style="fill:#936652"/><path d="M37.7 68.17a9.28 9.28 0 0 1-2.34.82l1.34 3.58a8.37 8.37 0 0 0 1.64-1Z" style="fill:#c6b054"/><path d="M41.21 71.08a.54.54 0 0 0-.69-.32l-2.18.84a8.37 8.37 0 0 1-1.64 1l.16.44.06.14a.59.59 0 0 0 .06.14.8.8 0 0 0 1.09.26c1-.61 2-1.21 2.93-1.83a.55.55 0 0 0 .21-.67Z" style="fill:#272324"/><path d="M16.58 63.4a2.41 2.41 0 1 1-2.41-2.4 2.41 2.41 0 0 1 2.41 2.4Z" style="fill:#5e5056"/><path d="M14.17 77.57A14.17 14.17 0 1 1 28.34 63.4a14.19 14.19 0 0 1-14.17 14.17Zm0-27.22a13 13 0 1 0 13 13 13.07 13.07 0 0 0-13-13Z" style="fill:#5e5056"/><path d="M14.17 76.69A13.29 13.29 0 1 1 27.46 63.4a13.3 13.3 0 0 1-13.29 13.29Zm0-26.13A12.84 12.84 0 1 0 27 63.4a12.85 12.85 0 0 0-12.83-12.84Z" style="fill:#eaa86c"/><path d="M37.74 66h-.05l-23.57-2a.56.56 0 0 1-.51-.61.56.56 0 0 1 .61-.51l23.57 2a.56.56 0 0 1 0 1.12Z" style="fill:#51827c"/><path d="M37.74 66a.56.56 0 0 1-.48-.27L21 37.89a.56.56 0 0 1 .2-.77.57.57 0 0 1 .77.21l16.25 27.8a.57.57 0 0 1-.21.77.53.53 0 0 1-.27.1Z" style="fill:#51827c"/><path d="M37.67 66.33a1.13 1.13 0 0 1-.83-1.89l21.78-23.29a1.12 1.12 0 1 1 1.64 1.54L38.49 66a1.11 1.11 0 0 1-.82.33Z" style="fill:#51827c"/><path d="M65.77 77.57A14.17 14.17 0 1 1 79.94 63.4a14.19 14.19 0 0 1-14.17 14.17Zm0-27.22a13 13 0 1 0 13 13 13.06 13.06 0 0 0-13-13Z" style="fill:#5e5056"/><path d="M65.77 76.69A13.29 13.29 0 1 1 79.06 63.4a13.3 13.3 0 0 1-13.29 13.29Zm0-26.13A12.84 12.84 0 1 0 78.61 63.4a12.85 12.85 0 0 0-12.84-12.84Z" style="fill:#eaa86c"/><path d="M68.18 63.4a2.41 2.41 0 1 1-2.41-2.4 2.41 2.41 0 0 1 2.41 2.4ZM37.74 69.23a3.82 3.82 0 1 1 3.82-3.82 3.82 3.82 0 0 1-3.82 3.82Zm0-7.18a3.37 3.37 0 1 0 3.37 3.36 3.37 3.37 0 0 0-3.37-3.36Z" style="fill:#5e5056"/><path d="M39 65.41a1.25 1.25 0 1 1-2.49 0 1.25 1.25 0 0 1 2.49 0Z" style="fill:#5e5056"/><path d="M65.77 64a.56.56 0 0 1-.54-.42L56.17 29a.56.56 0 0 1 .4-.69.55.55 0 0 1 .68.4l9.06 34.56a.55.55 0 0 1-.4.68.32.32 0 0 1-.14.05Z" style="fill:#51827c"/><path d="M58.65 43.05H24.73a1.13 1.13 0 0 1 0-2.25h33.92a1.13 1.13 0 1 1 0 2.25Z" style="fill:#51827c"/><path d="M14.17 64a.69.69 0 0 1-.24-.05.57.57 0 0 1-.27-.75l10-21.25a.56.56 0 0 1 1 .48l-10 21.25a.57.57 0 0 1-.49.32Z" style="fill:#51827c"/><path d="M14 63.75a.35.35 0 0 1-.3-.18L4 45.27a.34.34 0 0 1 .6-.31l9.7 18.29a.34.34 0 0 1-.14.46.47.47 0 0 1-.16.04Z" style="fill:#51827c"/><path d="M22.75 45.45H4.25a.34.34 0 1 1 0-.67h18.5a.34.34 0 1 1 0 .67Z" style="fill:#51827c"/><path d="m16.62 36.17.19.59A1.76 1.76 0 0 0 18.48 38H26a1.74 1.74 0 0 0-1.47-1.71l-7.09-1.08a.76.76 0 0 0-.82.96Z" style="fill:#eaa86c"/><path d="M56.71 29.41a.79.79 0 0 1-.2 0l-6.85-2.54a.56.56 0 0 1 .39-1l6.86 2.54a.56.56 0 0 1 .33.72.58.58 0 0 1-.53.28Z" style="fill:#51827c"/><path d="M36.31 10.8a8.16 8.16 0 0 1-1.75 2.83 8.61 8.61 0 0 0 3.58 3s2-1.43 2.33-2.42c-.6-2.21-4.16-3.41-4.16-3.41Z" style="fill:#7c523d"/><path d="M19.13 24.9c-1.09 1.83-2.63 3.74-2.65 6a5.51 5.51 0 0 0 3.2 5 6.32 6.32 0 0 0 6.22-.48c1.59-1.12 1.75-1.81 2.78-3.27-3.2-2.45-6.32-4.86-9.55-7.25Z" style="fill:#272324"/><path d="M38.05 15.58c-.28-.6-1.39-.73-1.67-1.31-.41-.87-1-1.62-2-1.38l.44-.14a11.59 11.59 0 0 0-4.77 1 9.76 9.76 0 0 0-2.58 2 21.24 21.24 0 0 1-2 1.78 37.7 37.7 0 0 0-6.74 6.56 2 2 0 0 0 0 2.44 28.35 28.35 0 0 0 7.8 6.26 1.86 1.86 0 0 0 2.55-.67 13.42 13.42 0 0 1 3.28-4.31c2.81-2.57 7.49-7.09 5.61-12.21Z" style="fill:#e86f68"/><path d="M39.15 3.79c3.77.08 4.6 2.26 4.82 3.39s.18 1.4 0 1.69.14 1.16.41 1.51a2.9 2.9 0 0 1 .57 1 .56.56 0 0 1-.47.46.46.46 0 0 0-.43.27c-.08.16.06.43.06.57a.28.28 0 0 1-.07.17.47.47 0 0 0-.06.33.15.15 0 0 1 0 .16.56.56 0 0 0-.12.49 1.28 1.28 0 0 1 0 .7.62.62 0 0 1-.59.52 7.27 7.27 0 0 1-2.1-.05 3.94 3.94 0 0 1-1.81-1.31c-.91-.27-3-.27-3.71-1.24s-1.8-2-1.59-4.25a4.08 4.08 0 0 1 1.81-3.47 5 5 0 0 1 3.28-.94Z" style="fill:#7c523d"/><path d="m31.55 32.49-6.78-4.55a4.71 4.71 0 1 0-4.42 8.26l7.12 2.93c1.95-1.89 3.93-3.9 4.08-6.64Z" style="fill:#272324"/><path d="m32.5 33.13-.95-.64c-.15 2.74-2.13 4.75-4.08 6.64l1.2.49a10.67 10.67 0 0 0 3.93-6.43Z" style="fill:#5c5c5c"/><path d="M32.6 33.19a10.67 10.67 0 0 1-3.93 6.43l.29.13 1.1.45a8.74 8.74 0 0 0 3.67-6.2Z" style="fill:#272324"/><path d="m35.36 59.72.49-1.24h-1.54Z" style="fill:#dd9954"/><path d="m37.76 55.68 1.6-4 .86-2.16.11-.27c0-.09.07-.17.11-.29l.22-.69c.08-.23.12-.47.18-.71l.08-.35v-.37a10.84 10.84 0 0 0 .06-3 10.66 10.66 0 0 0-.26-1.48 12.82 12.82 0 0 0-.46-1.45A11.87 11.87 0 0 0 36.64 36a7.62 7.62 0 0 0-.64-.48l-.6-.41-1-.65-.7-.47a8.74 8.74 0 0 1-3.67 6.25l2.87 1.18a5.71 5.71 0 0 1 2.29 2 8.1 8.1 0 0 1 .42.7c.1.25.23.49.31.76a5.62 5.62 0 0 1 .32 1.64v1.86l-.41 2.29-.85 4.74a7 7 0 0 0 2.78.27ZM36.42 59.05Z" style="fill:#7c523d"/><path d="M38.77 59h-2.35v-.12a5.93 5.93 0 0 1-2.27.22l-.12.62v.2a.88.88 0 0 0 1.08 1c1.26-.3 2.52-.58 3.78-.9a.54.54 0 0 0-.12-1.02Z" style="fill:#272324"/><path d="m36.47 58.93 1.29-3.25a7 7 0 0 1-2.88-.33l-.68 3.8a5.93 5.93 0 0 0 2.27-.22Z" style="fill:#c6b054"/><path d="M36.23 59.06Z" style="fill:#7c523d"/><path d="M38.24 15.83c.78-.41-1.7-3.25-3-3.88s-1.15-2.22-2.08-2.22-3.74 1.29-4.1 2.51-.43 1.94.29 2.09 4-1.51 5.61-.79 2.04 2.94 3.28 2.29Z" style="fill:#a53737"/><path d="M23.94 27.5a10.78 10.78 0 0 0-5.51-1.39 13.42 13.42 0 0 0 1.34 3.83ZM38.79 10.83a.61.61 0 0 1-.57.38c-.43 0-1.3-1.48-.72-2.11s1.29.15 1.29.15a8 8 0 0 0 3.26-1.68 5.32 5.32 0 0 0 1.09-1.51 1.14 1.14 0 0 0-.3-1.35A6 6 0 0 0 36.1 4a1.39 1.39 0 0 1-1 .07c-3.56-1-4.36 1.68-5.59 2.5s-4.12.1-4.75 1.87-.05 2.35-.05 2.35-2.06 1.58-.43 3.26 3.5 0 3.5 0 .38 1.49 2.4.77.38-8.87 4.69-9.59a5.42 5.42 0 0 0-.87 5.12 5 5 0 0 0 1.34 1.92s2.78.57 3.45-1.44Z" style="fill:#272324"/><path d="M35.82 4.12a6.39 6.39 0 0 0-1.1 1.44c-.34.48-.62.05-.62.05s-.05-1.35.67-1.78c-.79-1.58-3.42.13-5.86-1a.39.39 0 0 1 .09-.76c2.52-.3 4.95-2.14 6 1.33.69-2.19-1-1.9-3-3.07a.18.18 0 0 1 .12-.33c3.05.55 6.78-.63 3.27 3.74.48.09.43.38.43.38Z" style="fill:#c6b054"/><path d="M35.29 27.84c-4.69.57-8.43-1.25-8.71-5.37a14.83 14.83 0 0 0 3.22.53 20.24 20.24 0 0 0 8.29-1.3 12.7 12.7 0 0 0 1.23-.52s.68 6.08-4.03 6.66Z" style="fill:#272324"/><path d="M26.57 22.47s-1.05-6.71 3.07-8.53c-1.72 2.49-1.72 8.15-1 9.78-.82 0-2.07-1.25-2.07-1.25Z" style="fill:#272324"/><path d="M38.09 21.74a3.84 3.84 0 0 1-3.3 3 5.63 5.63 0 0 1-5-1.71 20.24 20.24 0 0 0 8.3-1.29Z" style="fill:#5c5c5c"/><path d="m36.38 14.27 3.95 3.83 2 1.9a14.49 14.49 0 0 0 1.86 1.52 12.14 12.14 0 0 0 1 .65l1.19.64 2.42 1.31 4.85 2.6a.94.94 0 0 1-.75 1.71l-5.2-1.77-2.6-.88-1.32-.45c-.47-.17-.94-.36-1.4-.58a17.92 17.92 0 0 1-2.66-1.5l-2.28-1.57-4.52-3.13A2.77 2.77 0 1 1 36 14a3.37 3.37 0 0 1 .38.27Z" style="fill:#e86f68"/><path d="M52.42 26.86a2.67 2.67 0 0 1-.09.26 2.11 2.11 0 0 1-.16.3c-1 1.59-4 .51-7-.3-3.16-.86-8.69-4.1-11.5-6.61s-2.73-4.6-2.08-6c0-.08.09-.16.14-.24a2.16 2.16 0 0 1 .77-.7 4.15 4.15 0 0 1 3.47 0c1.73.72 5.61 5.24 7.19 6.68A22.6 22.6 0 0 0 49.81 24c2.19.76 2.92 1.75 2.61 2.86Z" style="fill:#c14b48"/><path d="M53.17 26.67a4 4 0 0 1 2.25 0 1.21 1.21 0 0 1 .32 1.22 1.13 1.13 0 0 1-1.08.93c-.63 0-1.51-.12-1.66-.41a1.54 1.54 0 0 1 .17-1.74Z" style="fill:#7c523d"/><rect x="37.41" y="72.56" width="4.5" height="1.26" rx=".59" transform="rotate(-30 39.65 73.184)" style="fill:#5c5c5c"/><rect x="34.82" y="60.39" width="4.5" height="1.26" rx=".59" transform="rotate(-10.22 37.044 60.97)" style="fill:#5c5c5c"/><path d="M39.32 73.1a.22.22 0 0 1-.22-.19l-2.21-11.69a.23.23 0 0 1 .18-.26.24.24 0 0 1 .27.18l2.2 11.69a.23.23 0 0 1-.18.26Z" style="fill:#5e5056"/></g></svg>