<svg xmlns="http://www.w3.org/2000/svg" viewBox="0 0 80.38 82.05"><g data-name="Layer 2"><path d="M39.62 69.35a.24.24 0 0 1-.19-.26l.8-5a.21.21 0 0 1 .25-.18.22.22 0 0 1 .19.25l-.79 5a.22.22 0 0 1-.26.19Z" style="fill:#42363a"/><rect x="38.23" y="63.23" width="4.5" height="1.26" rx=".59" transform="rotate(6.77 40.508 63.856)" style="fill:#5c5c5c"/><path d="M40.62 62h-.14l.25-1.32a10.41 10.41 0 0 1-2.36-.15v1.54a2.85 2.85 0 0 0 2.25-.07Z" style="fill:#d68d51"/><path d="M43.19 63c-.85-.32-1.71-.62-2.57-.92a2.85 2.85 0 0 1-2.22 0v.69a.83.83 0 0 0 .74.81c1.26.15 2.52.31 3.79.44a.52.52 0 0 0 .55-.34.54.54 0 0 0-.29-.68Z" style="fill:#272324"/><path d="M38.18 58v2.15a.47.47 0 0 0 .33.45 5.18 5.18 0 0 0 2 .13.67.67 0 0 0 .58-.57l.26-1.87v-.15a11.14 11.14 0 0 1-3.13-.51Z" style="fill:#5b4850"/><path d="m41.8 55 .11-.55.08-.61a16.91 16.91 0 0 0-.06-5.07 17.46 17.46 0 0 0-1.62-4.94 18.12 18.12 0 0 0-3.07-4.36c-.33-.31-.64-.65-1-.94l-1-.88-1.13-.8c-.39-.25-.79-.47-1.19-.71l-.34-.14-.31-.15-.63-.3-.64-.28-.51-.22-2-.91-4.06-1.81a4.93 4.93 0 0 0-.94-.31 4.71 4.71 0 0 0-5.57 3.53 4.82 4.82 0 0 0 3.72 5.71l4.23.9 2.18.47.54.11.43.1.4.09h.21l.19.07a11.27 11.27 0 0 1 5.68 3.8 12 12 0 0 1 1.86 3.2 12.7 12.7 0 0 1 .84 3.7v2.16l-.07 1.78a2.46 2.46 0 0 0 3.13.51l.26-2Z" style="fill:#272324"/><path d="M15.37 82.05a14.17 14.17 0 1 1 14.17-14.17 14.18 14.18 0 0 1-14.17 14.17Zm0-27.21a13 13 0 1 0 13.05 13 13.06 13.06 0 0 0-13.05-13Z" style="fill:#42363a"/><path d="M15.37 81.18a13.3 13.3 0 1 1 13.3-13.3 13.31 13.31 0 0 1-13.3 13.3Zm0-25.92A12.62 12.62 0 1 0 28 67.88a12.63 12.63 0 0 0-12.63-12.62Z" style="fill:#e4d8b4"/><path d="M30.77 63.6a.44.44 0 0 1-.43-.32A15.66 15.66 0 0 0 .87 62a.45.45 0 0 1-.59.25.45.45 0 0 1-.28-.58 16.55 16.55 0 0 1 25.27-7A16.69 16.69 0 0 1 31.2 63a.45.45 0 0 1-.3.56Z" style="fill:#88bcb5"/><circle cx="15.37" cy="67.88" r="2.52" style="fill:#42363a"/><path d="M66.21 82.05a14.17 14.17 0 1 1 14.17-14.17 14.18 14.18 0 0 1-14.17 14.17Zm0-27.21a13 13 0 1 0 13 13 13.06 13.06 0 0 0-13-13Z" style="fill:#42363a"/><path d="M66.21 81.18a13.3 13.3 0 1 1 13.29-13.3 13.32 13.32 0 0 1-13.29 13.3Zm0-25.92a12.62 12.62 0 1 0 12.62 12.62 12.63 12.63 0 0 0-12.62-12.62Z" style="fill:#e4d8b4"/><path d="M68.72 67.88a2.52 2.52 0 1 1-2.51-2.52 2.51 2.51 0 0 1 2.51 2.52Z" style="fill:#42363a"/><path d="M51.17 63.6h-.14a.44.44 0 0 1-.29-.56 16.24 16.24 0 0 1 21.78-10.1.46.46 0 0 1 .24.59.45.45 0 0 1-.59.24 15.33 15.33 0 0 0-20.57 9.52.45.45 0 0 1-.43.31Z" style="fill:#88bcb5"/><path d="M39.62 72.8a3.68 3.68 0 1 1 3.67-3.67 3.68 3.68 0 0 1-3.67 3.67Zm0-6.9a3.23 3.23 0 1 0 3.22 3.23 3.23 3.23 0 0 0-3.22-3.23Z" style="fill:#42363a"/><path d="M66.21 68.44a.56.56 0 0 1-.53-.36l-13.6-35.31a.55.55 0 0 1 .32-.72.56.56 0 0 1 .73.32l13.6 35.31a.55.55 0 0 1-.32.72.51.51 0 0 1-.2.04Z" style="fill:#659992"/><path transform="matrix(.86 -.5 .5 .86 -23.84 23.69)" style="fill:#659992" d="M31.15 41.02h1.8v30.14h-1.8z"/><path d="M39.62 69.69a.55.55 0 0 1-.32-.1.56.56 0 0 1-.15-.78l17.26-25.46a.57.57 0 0 1 .78-.15.57.57 0 0 1 .15.79L40.08 69.44a.56.56 0 0 1-.46.25Z" style="fill:#659992"/><path transform="rotate(-15.94 42.92 47.665)" style="fill:#659992" d="M28.42 46.53h29.01v2.25H28.42z"/><path d="M15.37 68.44a.56.56 0 0 1-.43-.92l13.61-16.24a.56.56 0 1 1 .86.72l-13.6 16.24a.59.59 0 0 1-.44.2Z" style="fill:#659992"/><path d="m39.62 69.69-24.27-1.25a.57.57 0 0 1-.54-.59.56.56 0 0 1 .59-.53l24.25 1.24a.57.57 0 0 1 .53.59.58.58 0 0 1-.56.54Z" style="fill:#659992"/><path d="M30.19 41.49c.16-1.65-8.33-2.08-10-1.58s-1.44 3-.79 3.38 10.6.5 10.79-1.8Z" style="fill:#9e3939"/><path d="M52.31 32.91a.34.34 0 0 1-.32-.43 2.87 2.87 0 0 0-.61-2.48c-1.17-1.33-3.79-1.78-7.6-1.3a.33.33 0 0 1-.38-.29.35.35 0 0 1 .3-.38c4.1-.51 6.86 0 8.2 1.54a3.36 3.36 0 0 1 .82 2.05c.89-1 2.3-3 1.67-4.61s-3.48-2.5-8.16-2.5a.34.34 0 1 1 0-.67c5.05 0 8 1 8.79 2.92 1 2.63-2.33 5.91-2.47 6a.33.33 0 0 1-.24.15Z" style="fill:#659992"/><path d="M40.5 69.13a.88.88 0 1 1-.88-.89.89.89 0 0 1 .88.89ZM24.77 12.5c-8-2.92-13 8-13.56 13.74a14.67 14.67 0 0 0 7.39 2.32c.34-2.64.77-5.7 1.18-7.72.86-4.25 4.99-8.34 4.99-8.34Z" style="fill:#42363a"/><path d="M11.16 27.54c.19 5.1 6.8 6.32 6.8 6.32s.26-2.4.64-5.3a14.67 14.67 0 0 1-7.39-2.32 8.43 8.43 0 0 0-.05 1.3Z" style="fill:#7f6a72"/><path d="M17.2 30.56a11.23 11.23 0 0 0 .62 7.2c.83 2.06 3.36 3.3 5.74 3.16 2.62-.16 4.73-1.8 5.29-3.16s.49-5.48.49-5.48Z" style="fill:#42363a"/><path d="m33.48 71.54-.11-.09.4-1.66a12.63 12.63 0 0 1-2.16-.64l-.08 2a2.52 2.52 0 0 0 1.95.39Z" style="fill:#eaa86c"/><path d="M35.39 73c-.63-.49-1.27-1-1.91-1.44a2.52 2.52 0 0 1-1.95-.42v.75a.7.7 0 0 0 .42.69c1 .45 1.93.9 2.91 1.34a.54.54 0 0 0 .55-.92Z" style="fill:#42363a"/><path d="M31.4 68.76a.71.71 0 0 0 .24.56 2.76 2.76 0 0 0 1.82.64.62.62 0 0 0 .57-.48l.53-2.32a15.24 15.24 0 0 1-3-.81Z" style="fill:#7f6a72"/><path d="m36.09 60.1.29-1.18.14-.59.07-.3.07-.34a17.54 17.54 0 0 0 .34-2.81 17.17 17.17 0 0 0-.13-2.88 16.74 16.74 0 0 0-.61-2.84c-.13-.47-.3-.92-.47-1.38s-.38-.91-.6-1.35a17.49 17.49 0 0 0-1.53-2.56l-1.47-2L26.48 34a4.31 4.31 0 0 0-.61-.68 4.7 4.7 0 0 0-6.8.41 4.8 4.8 0 0 0 .49 6.57l7 6.54 1.72 1.59a11.28 11.28 0 0 1 1.28 1.39c.2.24.37.51.56.77s.34.55.49.84a10.64 10.64 0 0 1 .78 1.79 10.4 10.4 0 0 1 .49 1.94 11.35 11.35 0 0 1 .16 2v1.17l-.04 1.2-.25 2.47-.22 4.35a2.45 2.45 0 0 0 3 .81l1.07-4.66Z" style="fill:#42363a"/><path d="M25.34 32.81s.67 3.74-2.3 4.5a14.43 14.43 0 0 1-2-5.42Z" style="fill:#5b4850"/><path d="m33.1 68.21-.57-.08c0-.08 1.15-8.4 1.72-14.46.46-4.83-5.85-10.85-9.24-14.08-.81-.78-1.45-1.39-1.8-1.8-1.65-1.9-2.16-5.74-2.18-5.9l.57-.08s.51 3.83 2 5.6c.34.39 1 1 1.77 1.76 3.46 3.3 9.89 9.45 9.41 14.56-.52 6.06-1.67 14.39-1.68 14.48Z" style="fill:#7f6a72"/><path d="m46.82 23.27-5.22-.94-2.6-.47a7.83 7.83 0 0 1-2.11-.76 8.4 8.4 0 0 1-1.83-1.29l-1.93-1.87-.75-.73a6 6 0 0 1-3 3.56l1.26.88 1.12.78 1.17.81a11.67 11.67 0 0 0 2.81 1.34 11 11 0 0 0 3 .51h7.94a.88.88 0 0 0 .84-.78.93.93 0 0 0-.7-1.04Z" style="fill:#d68d51"/><path d="m31.78 16.29-2.59-2.51a3 3 0 0 0-.34-.28 2.62 2.62 0 0 0-3.81.95 3.25 3.25 0 0 0 .86 4.2l2.42 1.69c1.35-1.22 2.91-2.34 3.46-4.05Z" style="fill:#932a2a"/><path d="m32.39 16.88-.61-.59c-.55 1.75-2.11 2.83-3.42 4.07l.68.48a.82.82 0 0 0 .91 0 6.75 6.75 0 0 0 2.65-3.14.8.8 0 0 0-.21-.82Z" style="fill:#d3c5a1"/><path d="M28.55 12.66s2.66 1.08 3.16 3.38.65 5-1.22 7.19a68.79 68.79 0 0 0-1.94-10.57Z" style="fill:#272324"/><path d="M29.57 31.46a13.15 13.15 0 0 1 .43-3.73c.63-2 3.69-11.74-1.14-15a14.85 14.85 0 0 0-2.73-.94 3.43 3.43 0 0 0-1.87.5 11.06 11.06 0 0 0-3.4 3.45 10.38 10.38 0 0 0-1.16 3.3 19.47 19.47 0 0 1-.78 2.78c-1 2.86-1.78 4.07-2.09 7.59 3.84 2.11 8.41 2.37 12.74 2.05Z" style="fill:#c14b48"/><path d="M29.57 31.46c-4.33.32-8.9.06-12.76-2 0 .37-.06.77-.08 1.2a1.15 1.15 0 0 0 .61 1.1c3.9 2 9.52 1.8 11.54 1.64a.78.78 0 0 0 .71-.8c-.01-.34-.02-.72-.02-1.14Z" style="fill:#e4d8b4"/><path d="M29.27 13.45a1 1 0 0 0 .19-.25 4.64 4.64 0 0 0 .69-2c-1.34-1.91-4.79-2.3-4.79-2.3a1.47 1.47 0 0 1 .32 1.46c-.2.86-.53 1.94.49 2.67a2.87 2.87 0 0 0 .92.44c.72.35 1.63.8 1.94 1 .53.34.77 0 .62-.38a2.93 2.93 0 0 0-.38-.64Z" style="fill:#eaa86c"/><path d="M28.38 1.34c3.77.08 4.6 2.26 4.82 3.39s.18 1.39 0 1.69.14 1.16.41 1.51A2.75 2.75 0 0 1 34.2 9c0 .2-.28.45-.47.45a.48.48 0 0 0-.43.27c-.08.16.06.43.06.58a.34.34 0 0 1-.07.17.44.44 0 0 0-.06.32.17.17 0 0 1 0 .17.56.56 0 0 0-.12.49 1.25 1.25 0 0 1 0 .69.61.61 0 0 1-.59.52 7.25 7.25 0 0 1-2.15-.14c-.41-.16-1.54-.72-1.8-1.32-.92-.27-3-.27-3.72-1.23s-1.8-2-1.58-4.26a4.08 4.08 0 0 1 1.8-3.47 5.1 5.1 0 0 1 3.31-.9Z" style="fill:#eaa86c"/><path d="M28.34 7a2.37 2.37 0 0 0 1.93-1.3 1.41 1.41 0 0 1 .9-.75 2.28 2.28 0 0 0 1.5-3.38A2.53 2.53 0 0 0 29.73.33a3.05 3.05 0 0 1-2-.14 2.56 2.56 0 0 0-2 0 2.44 2.44 0 0 0-1.35 1.21 2.56 2.56 0 0 1-1.17 1.15 2.11 2.11 0 0 0-1 1.33 2.23 2.23 0 0 0 0 1.53 4.31 4.31 0 0 1 .3 2 1.41 1.41 0 0 0 .26 1.13 2.34 2.34 0 0 0 .77.58 1.56 1.56 0 0 1 .8.68 1.48 1.48 0 0 0 1.21.84c.73.06 1.1-.53 1.25-1.11a1.17 1.17 0 0 0-.42-1.16c-.68-.59-.85-2.14-.25-2.42s1 .27 1.37.64a1.08 1.08 0 0 0 .84.41Z" style="fill:#272324"/><path d="M46.88 23.34a4.58 4.58 0 0 1 2.37.06 1.12 1.12 0 0 1 .36 1.17 1.1 1.1 0 0 1-1.12.88c-.66-.05-1.59-.15-1.76-.43a1.36 1.36 0 0 1 .15-1.68Z" style="fill:#d68d51"/><path d="M19.32 14.86a.9.9 0 0 0 1.3.74 6.86 6.86 0 0 1 5.27-.42c3.52 1.22 1.08 10.28-2.8 11.64a34.59 34.59 0 0 1-7.69 1.62.38.38 0 0 0-.35.46.39.39 0 0 0 .43.33c1.44-.16 6.79-.81 9.26-2.05 2.88-1.44 7.19-10.28 2.73-12.94a7.64 7.64 0 0 0-7.69-.24.88.88 0 0 0-.46.85Z" style="fill:#272324"/><path d="M44.51 27.58a4.37 4.37 0 0 1 2.36-.2 1.15 1.15 0 0 1 .48 1.16 1.13 1.13 0 0 1-1 1c-.67 0-1.6 0-1.8-.24a1.45 1.45 0 0 1-.04-1.72Z" style="fill:#eaa86c"/><path d="M27.11 7.51a.43.43 0 1 1-.43-.43.43.43 0 0 1 .43.43Z" style="fill:#42363a"/><path style="fill:#42363a" d="m27.11 7.51.24.77-.24.14-.76-.67.76-.24z"/><path d="m28.74 34.58-.09-.28c2.54-.81 2.43-3.5 2.32-6.09a14.09 14.09 0 0 1 .12-3.53 14.22 14.22 0 0 0-.64-7.57 12.11 12.11 0 0 0-1.08-2.33 8 8 0 0 1-.84-2.57 10.4 10.4 0 0 0-.36-1.49 9 9 0 0 0-1.29-2.59l.23-.13a9.49 9.49 0 0 1 1.34 2.68 13 13 0 0 1 .36 1.53 7.52 7.52 0 0 0 .81 2.48 11.76 11.76 0 0 1 1.1 2.31 14.47 14.47 0 0 1 .65 7.72 14.36 14.36 0 0 0-.12 3.46c.12 2.72.24 5.51-2.51 6.4Z" style="fill:#42363a"/><path d="m30.1 15.82-.18-.23c.83-.64.93-2.12.92-3h.29c.01.96-.13 2.52-1.03 3.23Z" style="fill:#42363a"/><path d="m45.07 27.56-6-.74-1.48-.19a10.87 10.87 0 0 1-1.26-.27 9.57 9.57 0 0 1-2.32-1 9.29 9.29 0 0 1-1.93-1.53 9.73 9.73 0 0 1-.78-.92l-.8-1.14-1-1.4a6.11 6.11 0 0 1-3.35 3.51l.8.84.52.54.28.29.31.32A14.31 14.31 0 0 0 29.45 27a13.15 13.15 0 0 0 6.34 2.54 12 12 0 0 0 1.69.09h1.51l6-.17a.93.93 0 0 0 .09-1.86Z" style="fill:#eaa86c"/><path d="m29 19.24-1.8-2.57a3 3 0 0 0-4.91.13 2.94 2.94 0 0 0 .39 3.61l2.53 2.64A8 8 0 0 0 29 19.24Z" style="fill:#e86f68"/><path d="m29.47 20-.5-.72a8 8 0 0 1-3.78 3.83l.6.63a.82.82 0 0 0 1 .15 6.28 6.28 0 0 0 2.8-2.91 1 1 0 0 0-.12-.98Z" style="fill:#e4d8b4"/><path d="M31.57 8.71c-.69 0-1.16-.5-1.33-1.41a.73.73 0 0 1 .14-.59.75.75 0 0 1 .54-.27l1.24-.05a.73.73 0 0 1 .57.24.72.72 0 0 1 .17.61 2.06 2.06 0 0 0 0 .26c-.06.5-.12 1.21-1.33 1.21ZM32.18 7h-1.24a.19.19 0 0 0-.11.06.17.17 0 0 0 0 .12c.12.63.38 1 .77 1 .68 0 .69-.23.73-.68v-.32a.15.15 0 0 0 0-.13.17.17 0 0 0-.12 0Z" style="fill:#42363a"/><path d="M32.53 7.13a.29.29 0 0 1 0-.57l.82-.1a.29.29 0 1 1 .06.57l-.81.1ZM30.66 7H28a.29.29 0 0 1-.28-.3.28.28 0 0 1 .28-.29h2.68a.29.29 0 0 1 .29.29.29.29 0 0 1-.31.3ZM33.08 73.9a.25.25 0 0 1-.19-.09.24.24 0 0 1 .06-.32l6.54-4.55a.23.23 0 0 1 .26.37l-6.54 4.55a.22.22 0 0 1-.13.04Z" style="fill:#42363a"/><rect x="30.9" y="73.08" width="4.5" height="1.26" rx=".59" transform="rotate(25.92 33.157 73.698)" style="fill:#5c5c5c"/></g></svg>