<svg xmlns="http://www.w3.org/2000/svg" viewBox="0 0 79.94 81.63"><g data-name="Layer 2"><path d="m47.5 66.52-.1-2a5.91 5.91 0 0 1-2.17.4l.54 2.28a4.7 4.7 0 0 0 1.86-.67Z" style="fill:#edb09d"/><path d="m50 66.91-2.33-.37a4.7 4.7 0 0 1-1.86.67v.33a.75.75 0 0 0 .77.58c1.09 0 2.18-.08 3.28-.14a.54.54 0 0 0 .5-.44.55.55 0 0 0-.36-.63Z"/><path d="M47.65 61.81a5 5 0 0 1-3.45.35l.47 2.76a.56.56 0 0 0 .59.45 15.12 15.12 0 0 0 2.23-.37.54.54 0 0 0 .39-.57Z" style="fill:#757575"/><path d="m47.65 61.81-.45-5-.33-2.71-.07-1.3c0-.48-.07-1-.16-1.49s-.18-1-.28-1.48-.26-1-.43-1.46a16.43 16.43 0 0 0-1.26-2.81 17.28 17.28 0 0 0-4-4.82c-.2-.18-.42-.34-.63-.5a7.62 7.62 0 0 0-.64-.48L38.25 39l-2.17-1.45-8.65-5.81a6.12 6.12 0 0 0-.76-.41 4.71 4.71 0 0 0-6.14 2.37 4.81 4.81 0 0 0 2.53 6.3l9.45 4.08 2.39 1 1.08.47a3.1 3.1 0 0 1 .45.21c.15.08.31.15.45.24a11.32 11.32 0 0 1 3.17 2.62 10.27 10.27 0 0 1 1.21 1.75 9.66 9.66 0 0 1 .5 1c.14.33.29.66.4 1a11.14 11.14 0 0 1 .32 1.07l.31 1.26.6 2.77.81 4.68a5 5 0 0 0 3.45-.34Z" style="fill:#5c5c5c"/><path d="M14.17 81.63a14.17 14.17 0 1 1 14.17-14.17 14.19 14.19 0 0 1-14.17 14.17Zm0-27.21a13 13 0 1 0 13 13 13.06 13.06 0 0 0-13-13Z" style="fill:#3f3f3f"/><circle cx="14.17" cy="67.46" r="1.82" style="fill:#3f3f3f"/><path d="M65.77 81.63a14.17 14.17 0 1 1 14.17-14.17 14.19 14.19 0 0 1-14.17 14.17Zm0-27.21a13 13 0 1 0 13 13 13.06 13.06 0 0 0-13-13Z" style="fill:#3f3f3f"/><circle cx="65.77" cy="67.46" r="1.82" style="fill:#3f3f3f"/><path d="M65.77 68a.56.56 0 0 1-.51-.31c-6.05-12.51-9.65-23.36-11-33.15a.56.56 0 1 1 1.11-.15c1.33 9.67 4.9 20.4 10.91 32.81a.57.57 0 0 1-.28.8.56.56 0 0 1-.23 0Z" style="fill:#9b5d42"/><path d="M14.17 68.36a.85.85 0 0 1-.63-.26.89.89 0 0 1 0-1.27c13.08-13.3 26.79-21.7 41.92-25.67a.9.9 0 0 1 .46 1.74C41.1 46.79 27.66 55 14.81 68.09a.9.9 0 0 1-.64.27Z" style="fill:#9b5d42"/><path d="M39.75 68a.54.54 0 0 1-.49-.29L25.43 42.13a.55.55 0 0 1 .23-.76.56.56 0 0 1 .76.23l13.83 25.59A.57.57 0 0 1 40 68a.63.63 0 0 1-.25 0Z" style="fill:#9b5d42"/><path d="M39.75 68a.56.56 0 0 1-.44-.91l17.48-21.72a.56.56 0 0 1 .87.71L40.19 67.81a.55.55 0 0 1-.44.19Z" style="fill:#9b5d42"/><path d="m21 40.23.19.59A1.76 1.76 0 0 0 22.82 42h7.53a1.73 1.73 0 0 0-1.47-1.71l-7.09-1.07a.75.75 0 0 0-.79 1.01Z" style="fill:#3f3f3f"/><path d="M54.68 34.82a.33.33 0 0 1-.17 0 .35.35 0 0 1-.16-.38 2.84 2.84 0 0 0-.6-2.47c-1.17-1.33-3.8-1.78-7.6-1.3a.34.34 0 0 1-.09-.67c4.11-.52 6.87 0 8.2 1.54a3.42 3.42 0 0 1 .83 2c.88-1 2.3-3 1.67-4.61s-3.48-2.5-8.17-2.5a.34.34 0 0 1-.33-.34.34.34 0 0 1 .33-.34c5.06 0 8 1 8.79 2.92 1.06 2.64-2.32 5.91-2.47 6a.33.33 0 0 1-.23.15Z" style="fill:#9b5d42"/><path d="M39.75 72.59a5.13 5.13 0 1 1 5.13-5.13 5.14 5.14 0 0 1-5.13 5.13Zm0-9.58a4.46 4.46 0 1 0 4.46 4.45A4.46 4.46 0 0 0 39.75 63Z" style="fill:#3f3f3f"/><path d="M41 67.46a1.25 1.25 0 1 1-1.25-1.24A1.25 1.25 0 0 1 41 67.46Z" style="fill:#3f3f3f"/><path d="M21.26 29.35c-.7 2.15-1.84 4.59-1.37 6.88s2.55 3.39 4.55 4.29a4.79 4.79 0 0 0 5.62-1.13c1.31-1.54 1.49-3.5 2.19-5.27-3.69-1.59-7.25-3.18-10.99-4.77Z" style="fill:#757575"/><path d="M32.58 65.51a3.33 3.33 0 0 1-2.5-.47l-.75 2.52a15.06 15.06 0 0 0 2.26-.21Z" style="fill:#ffc9b6"/><path d="M33.59 68c-.7-.15-1.4-.28-2.1-.42l.1-.2a15.06 15.06 0 0 1-2.26.21l-.09.31v.18a.78.78 0 0 0 0 .26.85.85 0 0 0 .87.82L33.5 69a.54.54 0 0 0 .5-.43.53.53 0 0 0-.41-.57Z" style="fill:#3a2e2b"/><path d="M29.86 64.51a.87.87 0 0 0 .5 1.12 7.88 7.88 0 0 0 2 .49.88.88 0 0 0 .87-.52l.82-1.83a6.33 6.33 0 0 1-3.44-1.44Z" style="fill:#939393"/><path d="m37.55 56.21.06-.12.08-.16.15-.33a6.21 6.21 0 0 0 .28-.66c.09-.23.18-.46.25-.69l.21-.7a14.08 14.08 0 0 0 .42-2.91 14.42 14.42 0 0 0-.28-3 13.87 13.87 0 0 0-1-2.89 13.12 13.12 0 0 0-1.64-2.63l-.49-.6-.38-.45-.75-.89-6-7.13a4.26 4.26 0 0 0-.68-.66 4.71 4.71 0 0 0-6.75 1 4.8 4.8 0 0 0 1 6.51l7.22 5.7.92.72.46.36.3.24A6.36 6.36 0 0 1 32 48a7.36 7.36 0 0 1 .84 1.38 8.33 8.33 0 0 1 .55 1.62 7.46 7.46 0 0 1 .13 1.71v.44c0 .12 0 .24-.05.36l-.06.37-.08.36v.25l-1.43 4.43-1.25 3.41a6.33 6.33 0 0 0 3.44 1.44l1.47-3.27Z" style="fill:#757575"/><path d="m38 15.34.92 5.07.1.5a1.43 1.43 0 0 0 0 .22l.07.22.06.22a1.8 1.8 0 0 0 .08.21 3.93 3.93 0 0 0 .18.43 5.37 5.37 0 0 0 1.09 1.53 6 6 0 0 0 3.59 1.68 3.15 3.15 0 0 0 .53 0h.56l1.29-.09 2.57-.17a.94.94 0 0 1 .32 1.84l-2.49.62-1.25.38-.35.07-.36.07a6.39 6.39 0 0 1-.75.09 9.23 9.23 0 0 1-5.88-1.52A9.79 9.79 0 0 1 36 24.49a7.75 7.75 0 0 1-.46-.66c-.07-.12-.15-.23-.21-.35l-.19-.36-.19-.36c-.06-.12-.1-.25-.16-.38s-.21-.53-.28-.71l-1.8-4.82v-.05a2.77 2.77 0 0 1 5.19-1.93 2.52 2.52 0 0 1 .1.47Z" style="fill:#edb09d"/><path d="M46.41 24.7a10.58 10.58 0 0 1-5.18-.92c-2.3-1.3-2.51-6.33-2.94-8.63a2.88 2.88 0 0 0-3.67-2.44c-1.44.29-2.66 1.22-2.44 3.52s2.51 7.26 4.74 9.92c2 2.39 5.87 2.86 9.66 2.09.24-1.15.5-2.52-.17-3.54Z" style="fill:#3a2e2b"/><path d="M47.58 25.41a1.16 1.16 0 0 0-1.12-.72h-.05c.67 1 .41 2.39.17 3.54l.47-.09a1.16 1.16 0 0 0 .89-1.14 4.71 4.71 0 0 0-.36-1.59Z" style="fill:#e2cd6d"/><path d="M35 9.81a8.08 8.08 0 0 1-.67 3.26 12 12 0 0 0 4.29 2 8.35 8.35 0 0 0 1.17-3C38.48 10.2 35 9.81 35 9.81Z" style="fill:#ffc9b6"/><path d="M38.14 16.09c0 .37.49.74 1.07.72a7.21 7.21 0 0 0-1.11-3l-.15-.2c-.47-.53-.94-1-1.38-1.56a1.66 1.66 0 0 0-1.83-.5 13 13 0 0 1 3.4 4.54Z" style="fill:#ffc9b6"/><path d="M38.14 17.24a15.14 15.14 0 0 0-3.93-5.46l-.16.07a11.28 11.28 0 0 0-4.26 2.26A11.31 11.31 0 0 0 27.73 17a24.21 24.21 0 0 1-1.58 2.52 43.35 43.35 0 0 0-5 9.61 1.66 1.66 0 0 0 .44 1.87 22.52 22.52 0 0 0 9 4.5 1.67 1.67 0 0 0 2-1.07 22.34 22.34 0 0 1 2.66-6.26c1.61-2.61 4.17-6.69 4.05-10.59-.55.04-.97.03-1.16-.34Z" style="fill:#e2cd6d"/><path d="M38.14 17.24c.19.37.61.38 1.13.34 0-.25 0-.51-.06-.77-.58 0-.73-.86-1-1.1a13 13 0 0 0-3.45-4.19 1.66 1.66 0 0 0-.27.13l-.13.07-.13.06a15.14 15.14 0 0 1 3.91 5.46Z" style="fill:#3a2e2b"/><path d="M38.55 1.67c3.76.09 4.6 2.26 4.81 3.39s.19 1.4 0 1.7.14 1.15.4 1.5a2.8 2.8 0 0 1 .58 1.05.55.55 0 0 1-.47.46.48.48 0 0 0-.43.27c-.08.16.06.43.06.57a.28.28 0 0 1-.07.17.39.39 0 0 0-.06.33.17.17 0 0 1 0 .17.57.57 0 0 0-.13.48 1.18 1.18 0 0 1 .06.7.61.61 0 0 1-.59.52 7.69 7.69 0 0 1-2.16-.14 4 4 0 0 1-1.8-1.32c-.91-.27-3-.27-3.71-1.24s-1.8-2-1.59-4.25a4.08 4.08 0 0 1 1.81-3.47 5.09 5.09 0 0 1 3.29-.89ZM36.33 17.15l-.1 5.59v1a4.85 4.85 0 0 0 .2.9 4.62 4.62 0 0 0 1 1.66 4.92 4.92 0 0 0 1.66 1.16l.25.1.25.07h.28l.34.08 1.36.32L47 29.36a.94.94 0 0 1-.27 1.85l-5.57-.35-1.4-.09c-.23 0-.45 0-.75-.06l-.42-.06-.43-.08a8.41 8.41 0 0 1-5.47-4.11 8.51 8.51 0 0 1-.69-1.67c-.08-.3-.17-.59-.22-.89l-.08-.45-.06-.38-.81-5.52v-.05a2.76 2.76 0 1 1 5.47-.8 3.4 3.4 0 0 1 .03.45Z" style="fill:#ffc9b6"/><path d="M44.86 28.37a8.42 8.42 0 0 1 0 .87 5.42 5.42 0 0 1-.06.58c0 .16-.05.32-.08.49a5.12 5.12 0 0 1-.15.56 6.45 6.45 0 0 1-.21.62 33.58 33.58 0 0 1-5.85-.49c-3-.58-5.49-1.26-7.37-8.26-1.45-5.41-.43-7.73 1.07-8.5a2.8 2.8 0 0 1 .57-.22 3.41 3.41 0 0 1 .64-.1h.18a2.61 2.61 0 0 1 .4 0c1.83.23 2.78 2.12 2.79 4.14s-.17 5.63.77 7.66c.84 1.86 4.79 2.12 7.3 2.65Z"/><path d="M44.9 28.38a7.65 7.65 0 0 1-.53 3.12h.23a1.29 1.29 0 0 0 1.23-.91 2.77 2.77 0 0 0 .13-1 1.28 1.28 0 0 0-1.06-1.21Z" style="fill:#c6b054"/><path d="M38.19 7.61a1.12 1.12 0 0 1 1-.92 1.74 1.74 0 0 0 1-.42 2.32 2.32 0 0 0 .64-.9 1.22 1.22 0 0 1 1-.76c.51-.06 1.07-.27 1.14-.93.1-.84-.71-1.33-1.26-1.56a1.23 1.23 0 0 1-.61-.6A2.17 2.17 0 0 0 39 .28a3.43 3.43 0 0 0-2.25.64 1.18 1.18 0 0 1-.92.23 2.52 2.52 0 0 0-2.38.71 2.3 2.3 0 0 0-.65 1.88 1.22 1.22 0 0 1-.28 1 2.46 2.46 0 0 0-.8 2.11 1.77 1.77 0 0 0 .83 1.17 1.19 1.19 0 0 1 .59.78 1.63 1.63 0 0 0 1.46 1.45 1.1 1.1 0 0 0 1.24-.66 1.17 1.17 0 0 1 .9-.74 1.8 1.8 0 0 0 1.11-.56 1.36 1.36 0 0 0 .34-.68Z" style="fill:#d38862"/><path d="M48.86 25c.07-.14 1.94-.95 2.49-.71a1.37 1.37 0 0 1 .73 1.24 1.28 1.28 0 0 1-.88 1.37c-.71.16-1.7.35-2 .08a1.76 1.76 0 0 1-.34-1.98Z" style="fill:#3a2e2b"/><path d="M47.15 29.2c.1-.11 2.12-.42 2.59-.05a1.37 1.37 0 0 1 .39 1.38 1.28 1.28 0 0 1-1.2 1.11c-.73 0-1.74-.1-1.92-.42a1.78 1.78 0 0 1 .14-2.02Z"/><path d="M45.21 29.26v.57h-.42c-1.32-.07-5.45-.44-8.25-2.25-3-2-3.13-11.38-3.11-13.61h.18a2.61 2.61 0 0 1 .4 0c0 2.17.09 11.33 2.84 13.11s6.76 2.08 8 2.15Z" style="fill:#c6b054"/><path d="M45.09 30.32v.58h-.53c-1.53-.09-6-.5-8.77-2.29-3-1.94-3.5-11.86-3.57-14.3a2.8 2.8 0 0 1 .57-.22c0 1.94.49 12.21 3.32 14s7.24 2.12 8.6 2.21Z" style="fill:#c6b054"/><path d="M40.6 13a7.58 7.58 0 0 1-.75-.38c-.18-.66-.75-4.6-.78-5.4V5.34l.72.08v1.77A25.5 25.5 0 0 0 40.6 13Z" style="fill:#42363a"/><path d="M43 5.11a1.85 1.85 0 0 0 .51-.11.47.47 0 0 0 0-.17A5.81 5.81 0 0 0 41.37.44C39.87-.72 34.48.66 33 1.75a5 5 0 0 0-1.48 3.05c3.34-2.31 7.75.31 11.48.31Z" style="fill:#e2cd6d"/><path d="M43 5.11c-3.76 0-8.17-2.62-11.52-.26A1.05 1.05 0 0 0 32.86 6l3.57-1.08a1.06 1.06 0 0 1 1.08.29 2.13 2.13 0 0 0 1.72.68l3.57-.24a.79.79 0 0 0 .71-.65 1.85 1.85 0 0 1-.51.11ZM41.3 4l-4.6-1a8.72 8.72 0 0 1 3.3-.12A2.17 2.17 0 0 1 41.3 4ZM41.59 2.59a7.27 7.27 0 0 0-3.33-1c2.4-.51 3.11.14 3.33 1Z" style="fill:#42363a"/><path d="M39.63 9.91S35.75 8.57 35.08 5l-.63.2s1.3 4.31 5.32 5.27c.1-.47-.14-.56-.14-.56Z" style="fill:#42363a"/><path d="M33.5 69.78a.22.22 0 0 1-.07-.44l6.27-2a.23.23 0 1 1 .14.43l-6.28 2Z" style="fill:#3f3f3f"/><path d="m46.24 69-6.33-1.24a.23.23 0 0 1 .09-.45l6.32 1.25a.23.23 0 0 1 .18.26.23.23 0 0 1-.26.18Z" style="fill:#3f3f3f"/><rect x="29.38" y="69" width="4.5" height="1.26" rx=".59" transform="rotate(-3.08 31.631 69.527)" style="fill:#5c5c5c"/><rect x="45.96" y="67.95" width="4.5" height="1.26" rx=".59" transform="rotate(-3.08 48.224 68.484)" style="fill:#5c5c5c"/></g></svg>