<svg xmlns="http://www.w3.org/2000/svg" viewBox="0 0 52.27 61.51"><g data-name="Layer 2"><rect x="24.89" y="47.72" width="3.64" height="1.02" rx=".48" transform="rotate(9.27 26.694 48.243)" style="fill:#5c5c5c"/><path d="m27 46.69-.14-.06.44-1a2.38 2.38 0 0 1-1.83-.44l-.17 1.26a2.77 2.77 0 0 0 1.7.24Z" style="fill:#eaa86c"/><path d="M28.28 47.24 27 46.69a2.77 2.77 0 0 1-1.7-.28l-.06.39v.15a.56.56 0 0 0 .5.6c.76.14 1.53.28 2.3.4a.45.45 0 0 0 .47-.2.36.36 0 0 0-.23-.51Z" style="fill:#3f3f3f"/><path d="M29.75 34.94a8.92 8.92 0 0 0-1.93-3.34 10.39 10.39 0 0 0-1.56-1.39l-.43-.31-.46-.28-.77-.45-5.55-3.28a4.51 4.51 0 0 0-.77-.35 4 4 0 0 0-4.94 1.92c-.76 1.71.06 3.18 2 3.84l6.42 2.55.7.23.26.08.25.1a6.36 6.36 0 0 1 1 .5 5.68 5.68 0 0 1 1.54 1.55 4.9 4.9 0 0 1 .74 2.08v1.17l-.2 1.44-.59 4.14a2.38 2.38 0 0 0 1.83.44l1.67-4 .57-1.37v-.19l.07-.21.14-.42c.06-.29.15-.58.19-.88a7.81 7.81 0 0 0-.18-3.57Z" style="fill:#7c523d"/><path d="M26.26 29.77a7.14 7.14 0 0 1-.82 2.23c-.14.23-.29.46-.45.68a9.23 9.23 0 0 1-2 2c-1.35-.54-3.34-1.32-4.55-1.74-1.63-.56-5.36-2-5.65-3.81s1-3.65 3.9-4a3.89 3.89 0 0 1 1.34.14l.62.18a36.31 36.31 0 0 1 7.61 4.32Z" style="fill:#88bcb5"/><path d="m26.61 30-.35-.25a8.06 8.06 0 0 1-3.26 5l.42.16a1.38 1.38 0 0 0 1.33-.18 5.62 5.62 0 0 0 2.3-3.81 1 1 0 0 0-.44-.92ZM11.72 27.31s.31 4 3.18 5.05 4.4.41 6.18.86c-3.57-2.5-9.36-5.91-9.36-5.91Z" style="fill:#6da39e"/><path d="M26.17 53.92 9 53.34a1.56 1.56 0 0 1-1.52-1.56A1.57 1.57 0 0 1 9 50.21l17.13-.57a2.14 2.14 0 0 1 2.21 2.14 2.14 2.14 0 0 1-2.17 2.14Z" style="fill:#c14b48"/><path d="M9.86 61.51a9.86 9.86 0 1 1 9.86-9.86 9.87 9.87 0 0 1-9.86 9.86Zm0-18.59a8.74 8.74 0 1 0 8.73 8.73 8.75 8.75 0 0 0-8.73-8.73Z" style="fill:#272324"/><circle cx="9.86" cy="51.65" r="1.24" style="fill:#272324"/><path d="M42.41 61.51a9.86 9.86 0 1 1 9.86-9.86 9.87 9.87 0 0 1-9.86 9.86Zm0-18.59a8.74 8.74 0 1 0 8.74 8.73 8.74 8.74 0 0 0-8.74-8.73Z" style="fill:#272324"/><circle cx="42.41" cy="51.65" r="1.24" style="fill:#272324"/><path d="M21.86 52.22a.56.56 0 0 1-.53-.37L15 35.08a.55.55 0 0 1 .33-.72.55.55 0 0 1 .72.32l6.29 16.78a.56.56 0 0 1-.33.72.43.43 0 0 1-.15.04ZM42.41 52.22a.55.55 0 0 1-.53-.39l-6.69-20.62a.56.56 0 0 1 .36-.71.58.58 0 0 1 .71.36L43 51.48a.57.57 0 0 1-.37.71.47.47 0 0 1-.22.03Z" style="fill:#c14b48"/><path d="m26.82 51.75-2.24-.19a17.51 17.51 0 0 1 6.81-13 17.23 17.23 0 0 1 6-3l.49 2.19c-.38.15-10.09 2.53-11.06 14ZM9.86 52.22a.57.57 0 0 1-.56-.5c0-.09-1.06-9.5 7.65-13.08a.57.57 0 0 1 .74.31.56.56 0 0 1-.31.73c-7.93 3.26-7 11.82-7 11.91a.56.56 0 0 1-.49.62Z" style="fill:#c14b48"/><path d="M20.12 34c.13-1.34-6.75-1.69-8.09-1.28s-1.16 2.38-.64 2.73 8.55.44 8.73-1.45Z" style="fill:#272324"/><path d="M35.72 31.6a.56.56 0 0 1-.06-1.12s3.24-.41 4.49-2a2.2 2.2 0 0 0 .46-1.7c-.41-3.14-6-3.47-6.08-3.47a.57.57 0 0 1 0-1.13c.27 0 6.62.38 7.14 4.45a3.25 3.25 0 0 1-.67 2.52c-1.55 2-5.1 2.43-5.25 2.45Z" style="fill:#c14b48"/><circle cx="26.09" cy="51.78" r=".93" style="fill:#272324"/><path d="M26.09 54.72A2.95 2.95 0 1 1 29 51.78a2.94 2.94 0 0 1-2.91 2.94Zm0-5.44a2.5 2.5 0 1 0 2.49 2.5 2.49 2.49 0 0 0-2.49-2.5Z" style="fill:#272324"/><path d="M26.83 57.33a.23.23 0 0 1-.23-.2l-.77-5a.22.22 0 0 1 .44-.07l.78 5a.22.22 0 0 1-.19.25Z" style="fill:#272324"/><path d="M20.53 31.26a7.13 7.13 0 0 0 .31-5c-2.64-.53-1.54 3.16-.31 5Z" style="fill:#6da39e"/><path d="M24.58 49.58 24 46.11l-.29-1.73-.15-.87-.07-.43-.09-.43-2.91-13.77a2.9 2.9 0 0 0-.18-.57 4 4 0 0 0-4.9-1.94 3.21 3.21 0 0 0-2.24 4.27l5.61 13.07 4.82 11.57a4.4 4.4 0 0 0 1.87-.44Z" style="fill:#7c523d"/><path d="m25.68 55.86-.18-1a4.4 4.4 0 0 1-1.87.44l.42 1a2.79 2.79 0 0 0 1.63-.44Z" style="fill:#eaa86c"/><path d="M28.1 55.78a.45.45 0 0 0-.52-.29l-1.9.37a2.79 2.79 0 0 1-1.66.42l.24.56v.2a.74.74 0 0 0 .92.27l2.6-1.11a.36.36 0 0 0 .32-.42Z" style="fill:#3f3f3f"/><path d="m22.4 36.32-1.61-7.63s-.59-3.24-4.66-2.94-3.27 4.77-3.27 4.77l2.65 6.69a9.07 9.07 0 0 0 6.89-.89Z" style="fill:#6da39e"/><path d="M22.4 36.32a9.07 9.07 0 0 1-6.89.89l.24.62a1.14 1.14 0 0 0 .85.67 9.3 9.3 0 0 0 3.08.09 5.59 5.59 0 0 0 2.38-.92 1 1 0 0 0 .42-1Z" style="fill:#659992"/><path d="M26.47 6.29c-.06 1-1 1.8-.75 2.24s.53.91.44 1.19-.69.31-.7.45.18.5.06.63-.4.22-.41.36a.51.51 0 0 1-.31.44c-.22.09-.17.37-.26.72a.77.77 0 0 1-1.25.23c-.53-.46-2.19-1-2.18-2.65-1.49-.35-4.12-1.06-4-3.73S18.78 1.85 21.2 2s5.41 1.69 5.27 4.29Z" style="fill:#7c523d"/><path d="M22.71 14.53a3.85 3.85 0 0 0-.18-.66 4.38 4.38 0 0 1 .28-2.06l-.55-2.25-3.77-.93s.09 1.69-.47 2.11l-.18.12c1.76 1.05 2.9 3.67 4.87 3.67Z" style="fill:#7c523d"/><path d="M21.75 21.57c.38-.93 1.37-2.48 1.25-4.28a24.91 24.91 0 0 0-.29-2.76c-2 0-3.11-2.62-4.87-3.67a8.43 8.43 0 0 0-2.2 1.2 10.49 10.49 0 0 0-3.81 5.76A24.51 24.51 0 0 0 11 25.9a10.26 10.26 0 0 0 .55 2.57 1.17 1.17 0 0 0 1.2.78c2.85-.24 6-.69 8.2-2.4a.83.83 0 0 0 .3-.78 10.76 10.76 0 0 1 .5-4.5Z" style="fill:#eaa86c"/><path d="M21.55 9a.9.9 0 0 0-.32-.72A1.23 1.23 0 0 1 21 8c-.19-.23-.35-1.4.31-1.67.36-.15.53.13.6.4a1 1 0 0 0 .66.69 1.54 1.54 0 0 0 .84 0 1.41 1.41 0 0 0 .59-.36.89.89 0 0 1 1-.24 1.41 1.41 0 0 0 1-.1 1.39 1.39 0 0 0 .85-1.33c0-.23-.46-.45-.3-.62s.39-.27.09-.83-.06-1-.41-1.14a1 1 0 0 1-.68-.69A1.49 1.49 0 0 0 24.3 1a2.49 2.49 0 0 0-1.49.12.93.93 0 0 1-.95-.12A1.83 1.83 0 0 0 20 .66a2.33 2.33 0 0 0-1.15.92.92.92 0 0 1-.82.48c-.42 0-.58.36-.95 1s-.69 1-.55 1.34a1 1 0 0 1-.15.93 1.54 1.54 0 0 0-.22 1.59 1.67 1.67 0 0 0 .78.94.93.93 0 0 1 .5.77 1 1 0 0 0 .7.93 1.51 1.51 0 0 0 1.21 0 .91.91 0 0 1 .85 0 1 1 0 0 0 .8.04.69.69 0 0 0 .55-.6Z" style="fill:#272324"/><path d="m16.69 4.79 9.53 1.79A.68.68 0 0 0 27 6c.2-1.49.13-4.92-4.37-5.84a5 5 0 0 0-6.41 3.91.57.57 0 0 0 .47.72Z" style="fill:#d65b5b"/><path d="M19 5a.45.45 0 0 1-.35.45 29.09 29.09 0 0 1-5.24.85c-1.29-.09-1.47-.82-.28-1.28a29.64 29.64 0 0 0 3.44-1.82S19 3.74 19 5Z" style="fill:#9e3939"/><rect x="24.97" y="56.69" width="3.64" height="1.02" rx=".48" transform="rotate(-24.61 26.788 57.183)" style="fill:#5c5c5c"/><path d="M16.11 11.74c-.52-1.17-7.06 2-8.29 5.21s-2 7.92-.12 8.78 4.18 1.29 4.24-.43.3-7.42 1.16-8.77 3.5-3.69 3.01-4.79Z" style="fill:#272324"/><path d="M15.07 12.41s3.68-1.29 5.22.19 2 5.58.36 7.73-9.2 5-9.2 5l-.07-.61s7.06-2.33 8.48-4.6.79-6.45-.25-6.88a6.1 6.1 0 0 0-4.85.55 1.81 1.81 0 0 1 .31-1.38Z" style="fill:#272324"/><path d="M32.42 21.91a3.56 3.56 0 0 1 1.91-.25.93.93 0 0 1 .42.92.91.91 0 0 1-.79.87c-.54 0-1.29.08-1.46-.13a1.18 1.18 0 0 1-.08-1.41Z" style="fill:#7c523d"/><path d="m32.9 22-4.16-.42-1-.11a5.4 5.4 0 0 1-.89-.18 6.46 6.46 0 0 1-1.66-.73 6.76 6.76 0 0 1-1.43-1.18 5.87 5.87 0 0 1-.6-.72l-.63-.89-.77-1.11a4.43 4.43 0 0 1-2.1 2.94l.61.65.39.43.22.22.23.25a11.87 11.87 0 0 0 1 .88 9.37 9.37 0 0 0 2.2 1.27 8.27 8.27 0 0 0 2.34.58 7.77 7.77 0 0 0 1.18 0l1-.07 4.17-.35a.68.68 0 0 0 .57-.69.77.77 0 0 0-.67-.77Z" style="fill:#7c523d"/><path d="m21.77 16.13-1.55-2a3.08 3.08 0 0 0-.24-.27 2.39 2.39 0 1 0-3.28 3.47l2.15 2.05a6.54 6.54 0 0 0 2.92-3.25Z" style="fill:#dd9954"/><path d="m22.21 16.7-.44-.57a6.54 6.54 0 0 1-2.91 3.25l.51.48a.65.65 0 0 0 .8.09 5.17 5.17 0 0 0 2.16-2.46.83.83 0 0 0-.12-.79Z" style="fill:#6da39e"/></g></svg>