<svg xmlns="http://www.w3.org/2000/svg" viewBox="0 0 79.52 76.42"><g data-name="Layer 2"><rect x="37.98" y="56.98" width="4.5" height="1.26" rx=".59" transform="rotate(12.74 40.217 57.634)" style="fill:#5c5c5c"/><rect x="38.41" y="68.29" width="4.5" height="1.26" rx=".59" transform="rotate(-21.14 40.68 68.925)" style="fill:#5c5c5c"/><path d="m38.13 58.39-.72-4.91L37 51l-.18-1.23-.09-.61-.11-.61-3.58-19.5a5.82 5.82 0 0 0-.22-.79 4.7 4.7 0 1 0-8.81 3.29L31 50.08l6 16.38a4.85 4.85 0 0 0 2.3-.63Z" style="fill:#5c5c5c"/><path d="m39.48 67.28-.22-1.46a4.85 4.85 0 0 1-2.3.63l.52 1.42a3.15 3.15 0 0 0 2-.59Z" style="fill:#7c523d"/><path d="M42.46 67.17a.53.53 0 0 0-.64-.41l-2.34.52a3.15 3.15 0 0 1-2 .6l.28.79.07.19v.09a.85.85 0 0 0 1.13.39l3.21-1.57a.53.53 0 0 0 .29-.6ZM35.44 39.62l-2-10.8a5.08 5.08 0 0 0-5.75-4.17c-5 .43-4 6.75-4 6.75l3.26 9.48c2.71 1.12 5.93.27 8.49-1.26Z" style="fill:#272324"/><path d="M35.44 39.62c-2.56 1.53-5.78 2.33-8.51 1.26l.3.87a1.45 1.45 0 0 0 1.05.94 9.65 9.65 0 0 0 3.8.14 6.58 6.58 0 0 0 2.92-1.3 1.48 1.48 0 0 0 .51-1.41Z" style="fill:#5e856f"/><path d="M15.7 76.42a13.95 13.95 0 1 1 13.94-14 14 14 0 0 1-13.94 14Zm0-27.22A13.27 13.27 0 1 0 29 62.47 13.29 13.29 0 0 0 15.7 49.2Z" style="fill:#272324"/><path d="M30.94 58.13a.45.45 0 0 1-.43-.31 15.53 15.53 0 0 0-29.63 0 .45.45 0 0 1-.56.29.45.45 0 0 1-.3-.56 16.43 16.43 0 0 1 31.35 0 .45.45 0 0 1-.29.56.34.34 0 0 1-.14.02Z" style="fill:#9b3131"/><path d="M17.52 62.47a1.82 1.82 0 1 1-1.82-1.82 1.82 1.82 0 0 1 1.82 1.82ZM65.57 76.42a13.95 13.95 0 1 1 14-14 14 14 0 0 1-14 14Zm0-27.22a13.27 13.27 0 1 0 13.27 13.27A13.29 13.29 0 0 0 65.57 49.2Z" style="fill:#272324"/><path d="M49.77 62.92a.45.45 0 0 1-.45-.45 16.27 16.27 0 0 1 22-15.22.45.45 0 0 1-.31.85 15.36 15.36 0 0 0-20.79 14.37.45.45 0 0 1-.45.45Z" style="fill:#9b3131"/><path d="M67.39 62.47a1.82 1.82 0 1 1-1.82-1.82 1.81 1.81 0 0 1 1.82 1.82Z" style="fill:#272324"/><path d="M39.56 63.26a.79.79 0 0 1-.71-.44l-13.51-27.4a.78.78 0 0 1 .35-1.06.8.8 0 0 1 1.06.36l13.51 27.4a.8.8 0 0 1-.36 1.06.84.84 0 0 1-.34.08ZM65.57 63.26a.8.8 0 0 1-.77-.61l-7.62-33.88a.79.79 0 1 1 1.54-.34l7.62 33.87a.78.78 0 0 1-.59.94Z" style="fill:#c14b48"/><path d="M15.7 63.19a.34.34 0 0 1 0-.67l24-.23a.34.34 0 0 1 .34.34.35.35 0 0 1-.34.34l-24 .22Z" style="fill:#c14b48"/><path d="M39.59 63.33a.52.52 0 0 1-.35-.12.56.56 0 0 1-.09-.79L59.4 36.66a.57.57 0 0 1 .79-.09.56.56 0 0 1 .09.79L40 63.12a.56.56 0 0 1-.41.21Z" style="fill:#c14b48"/><path d="M30 43.64a.56.56 0 0 1-.11-1.11l29.85-6.07a.56.56 0 1 1 .22 1.1l-29.85 6.07Z" style="fill:#c14b48"/><path d="M15.7 63a.6.6 0 0 1-.34-.11.57.57 0 0 1-.12-.79l14.3-19.39a.56.56 0 0 1 .79-.12.57.57 0 0 1 .12.79l-14.3 19.43a.56.56 0 0 1-.45.19Z" style="fill:#c14b48"/><path d="m22.26 34.13.19.59a1.76 1.76 0 0 0 1.67 1.21h7.53a1.74 1.74 0 0 0-1.47-1.71l-7.09-1.07a.75.75 0 0 0-.83.98Z" style="fill:#659992"/><path d="M58 29a.68.68 0 0 1-.62-.42.66.66 0 0 1 .36-.88l5.8-2.44a.67.67 0 0 1 .46 1.23l-5.8 2.44a.58.58 0 0 1-.2.07Z" style="fill:#c14b48"/><path d="M39.56 66.48a4 4 0 1 1 4-4 4 4 0 0 1-4 4Zm0-7.56a3.56 3.56 0 1 0 3.55 3.55 3.55 3.55 0 0 0-3.55-3.55Z" style="fill:#272324"/><path d="M40.8 62.47a1.25 1.25 0 1 1-1.24-1.24 1.25 1.25 0 0 1 1.24 1.24Z" style="fill:#272324"/><path d="M43 8.83a8.16 8.16 0 0 1-1.75 2.83 8.61 8.61 0 0 0 3.58 3s1.87-1.35 2.23-2.34C46.47 10.1 43 8.83 43 8.83Z" style="fill:#7c523d"/><path d="M25.83 22.93c-1.09 1.83-2.89 4.24-2.9 6.48s1.56 3.09 3.26 4.41 5.12 1 6.7-.09 1.76-2.57 2.78-4c-3.19-2.47-6.61-4.41-9.84-6.8Z" style="fill:#42363a"/><path d="M44.8 14.1v-.12a18.62 18.62 0 0 0-1.27-1.91 2.85 2.85 0 0 0-1.88-1.36.76.76 0 0 0-.26 0h-1.21a7.94 7.94 0 0 0-3.34 1 9.72 9.72 0 0 0-2.57 2 20 20 0 0 1-2 1.78A32.53 32.53 0 0 0 25.5 23a.92.92 0 0 0 0 1.07 25.78 25.78 0 0 0 8.59 7.18.94.94 0 0 0 1.26-.25c1.3-2 1.26-2.82 3.79-5.13 2.8-2.6 7.47-6.67 5.66-11.77Z" style="fill:#272324"/><path d="M45.85 1.82c3.77.09 4.6 2.26 4.82 3.39s.19 1.4 0 1.7.14 1.15.41 1.5a2.75 2.75 0 0 1 .57 1.05c0 .21-.28.46-.47.46a.49.49 0 0 0-.43.27c-.08.16.06.43.06.57a.28.28 0 0 1-.07.17.48.48 0 0 0-.06.33.17.17 0 0 1 0 .17.54.54 0 0 0-.12.48 1.28 1.28 0 0 1 0 .7.61.61 0 0 1-.59.52 7.6 7.6 0 0 1-2.1-.13 3.89 3.89 0 0 1-1.8-1.32c-.92-.27-3-.27-3.72-1.24s-1.8-2-1.58-4.25a4 4 0 0 1 1.8-3.47 5.12 5.12 0 0 1 3.28-.9ZM61.5 25.44l-.9-.42a3.33 3.33 0 0 1-.36 1.73l.82.23a.71.71 0 0 0 .85-.46.84.84 0 0 0-.41-1.08Z" style="fill:#7c523d"/><path d="M59.92 24.51a4.08 4.08 0 0 1 0 .7v.37a5.2 5.2 0 0 1-.34 1.1l-3.91-1-.72-.18-.73-.19c-.51-.14-1-.3-1.52-.47a25 25 0 0 1-2.94-1.23A25.92 25.92 0 0 1 46.93 22c-.89-.6-1.75-1.32-2.49-1.92l-4.59-3.76a2.76 2.76 0 0 1 .62-4.69 2.53 2.53 0 0 1 .76-.21 2.73 2.73 0 0 1 2.1.6 2.87 2.87 0 0 1 .31.29l4 4.42c.7.77 1.24 1.41 1.9 2a18.09 18.09 0 0 0 2.08 1.72 19.44 19.44 0 0 0 2.31 1.44c.41.21.82.42 1.24.6l.67.28.68.29Z" style="fill:#42363a"/><path d="m60.47 24.75-.55-.24a4.55 4.55 0 0 1-.41 2.17l.37.09a.57.57 0 0 0 .67-.34 3.65 3.65 0 0 0 .27-1.14.55.55 0 0 0-.35-.54Z" style="fill:#83b799"/><path d="m45.59 6.85.23.66a.63.63 0 0 0 .62.42.52.52 0 0 0 .49-.5A6.14 6.14 0 0 1 47.41 5C48 3.83 49.76 4.17 50 3.5S47.17.38 44.1 1.58 40.18 5.17 40.41 7s1.25 3.16 1.92 3.31 1.87.33 2.06-.2c.08-.2.21-.48.34-.76a.82.82 0 0 0-.28-1.06.88.88 0 0 1-.35-1.15c.44-1.2 1.3-.82 1.49-.29Z" style="fill:#272324"/><path d="M61.38 25.47a5 5 0 0 1 2.24.39.9.9 0 0 1 .24 1 1 1 0 0 1-1.13.57c-.62-.14-1.49-.36-1.63-.61a1 1 0 0 1 .28-1.35ZM40.51 55.61l-.17-.08.55-1.48a2.57 2.57 0 0 1-2.25-.61l-.22 1.77a3 3 0 0 0 2.09.4Z" style="fill:#7c523d"/><path d="m42.12 56.39-1.61-.78a3 3 0 0 1-2.09-.4l-.07.56v.22a.76.76 0 0 0 .61.84c.94.2 1.88.4 2.83.58a.56.56 0 0 0 .59-.29.56.56 0 0 0-.26-.73Z" style="fill:#272324"/><path d="M43.93 39a13.39 13.39 0 0 0-2.39-4.73 13.67 13.67 0 0 0-1.92-2c-.18-.15-.35-.3-.54-.44l-.56-.4-1-.64-6.84-4.64a5.13 5.13 0 0 0-1-.5 4.72 4.72 0 0 0-6.09 2.71 3.94 3.94 0 0 0 2.51 5.44l7.92 3.61.86.33.32.12.31.14a6.92 6.92 0 0 1 1.19.71 7.34 7.34 0 0 1 1.9 2.19 7.55 7.55 0 0 1 .92 2.95v1.65l-.26 2-.71 5.87a2.57 2.57 0 0 0 2.25.61l2.2-5.54.71-1.94v-.27l.09-.3.17-.6c.08-.41.19-.82.24-1.24a12.85 12.85 0 0 0-.28-5.09Z" style="fill:#757575"/><path d="M39.62 31.65a10.94 10.94 0 0 1-1 3.21 10.33 10.33 0 0 1-.54 1 13 13 0 0 1-2.45 2.85c-1.67-.77-4.12-1.87-5.62-2.46-2-.79-6.61-2.8-7-5.39s1.23-5.18 4.82-5.68a4 4 0 0 1 1.65.19c.25.07.5.16.77.26 3.17 1.2 7.45 4.48 9.37 6.02Z" style="fill:#42363a"/><path d="m40.05 32-.43-.35a11.65 11.65 0 0 1-4 7l.51.23a1.5 1.5 0 0 0 1.64-.26 8.18 8.18 0 0 0 2.84-5.39 1.44 1.44 0 0 0-.56-1.23Z" style="fill:#83b799"/><path d="M25.34 23.73a47.45 47.45 0 0 1 5.06 1.92c1.82.88-3 4.24-3 4.24s-2.4-3.19-2.06-6.16Z" style="fill:#42363a"/><path d="m39.26 35.43-.5.86-.7-.46c-1.89-1.24-7-4.6-8.28-5.65s-1.28-3-.29-4.84c.25.07.5.16.77.26-.54 1.07-1.08 2.73 0 3.65 1.56 1.29 6 3.76 8.32 5.61a5.54 5.54 0 0 1 .68.57ZM60.3 25.36l-.2.3-.24-.08c-1.31-.41-7.48-2.41-8.7-3.36a54 54 0 0 1-6.53-6.12 22.56 22.56 0 0 0-4.18-4.49 2.53 2.53 0 0 1 .76-.21 28.74 28.74 0 0 1 4 4.44c2.14 2.88 5.73 6 8 6.82 1.89.7 5.45 2.09 6.63 2.55Z" style="fill:#83b799"/><path d="M40.2 5.22a.59.59 0 0 0 .52.75 26.93 26.93 0 0 0 5-.08 14.09 14.09 0 0 0 5.18-1.36S49.7.37 44.58.93c-2.99.33-4.05 3.01-4.38 4.29Z" style="fill:#757575"/><path d="M49.87 2.74h5c.94 0-.65 1.5-1.73 1.86a34.58 34.58 0 0 1-4.34.72 3.67 3.67 0 0 0 1.07-2.58Z" style="fill:#5c5c5c"/><path d="M46.55 6.75a6.16 6.16 0 0 0 1.87 0 6.53 6.53 0 0 1 2.1.07.55.55 0 0 1 .47.5l.07.73a.46.46 0 0 1-.37.49c-.64.12-1.87.26-2.32-.26a3 3 0 0 0-1.87-.77Z" style="fill:#272324"/><rect x="42.93" y="5.13" width="3.81" height="4.83" rx="1.9" style="fill:#e4d8b4"/><path d="M44.83 9a1.16 1.16 0 0 1-1.16-1.16v-.61a1.16 1.16 0 0 1 1.16-1.16A1.16 1.16 0 0 1 46 7.23v.63A1.16 1.16 0 0 1 44.83 9Z" style="fill:#83b799"/><path d="M43.32 1.64c.27 1.6.78 4.65 1 5.8a.53.53 0 0 0 .52.46.54.54 0 0 0 .53-.52l.39-6.15c.05-.73 0-1.3-1.24-1.22h-.13c-1.46.06-1.2.88-1.07 1.63Z" style="fill:#42363a"/><path d="M39.56 62.7a.23.23 0 0 1-.2-.26L39.9 58a.23.23 0 0 1 .26-.2.22.22 0 0 1 .19.25l-.57 4.41a.23.23 0 0 1-.22.24ZM40.7 68.16a.22.22 0 0 1-.22-.18l-1-5a.23.23 0 0 1 .17-.27.23.23 0 0 1 .27.18l1.05 5a.21.21 0 0 1-.17.26Z" style="fill:#272324"/></g></svg>