<svg xmlns="http://www.w3.org/2000/svg" viewBox="0 0 77.64 80.1"><g data-name="Layer 2"><path d="M35.19 71.67h-.09a.22.22 0 0 1-.12-.3L37.23 66l1.58-2.87a.23.23 0 1 1 .4.22l-1.58 2.86-2.25 5.31a.23.23 0 0 1-.19.15Z" style="fill:#42363a"/><rect x="36.92" y="62.41" width="4.5" height="1.26" rx=".59" transform="rotate(23.49 39.177 63.056)" style="fill:#5c5c5c"/><path d="M41.68 52.76c.21-.73.42-1.36.61-2.29a12.66 12.66 0 0 0 .23-2.68 13.07 13.07 0 0 0-1.23-5.35A14 14 0 0 0 39.83 40c-.28-.4-.61-.74-.92-1.11l-.52-.51a6.15 6.15 0 0 0-.53-.49l-.56-.47-.6-.42-1-.7-1.84-1.3-7.38-5.1a5.23 5.23 0 0 0-.87-.48A4.71 4.71 0 1 0 22 38.16l8.28 3.42 2.07.86.94.38.36.15.34.18a2 2 0 0 1 .35.19l.34.2a7.13 7.13 0 0 1 .63.49 7.5 7.5 0 0 1 1.15 1.17 8 8 0 0 1 1.47 3.07 7.41 7.41 0 0 1 .25 1.73c0 .54 0 1.37-.1 2.09l-.37 5.69a4.77 4.77 0 0 0 2.25.92Z" style="fill:#ffc9b6"/><path d="m39.45 61-.1-.08.65-2.18a4.77 4.77 0 0 1-2.25-.92l-.17 2.56a2 2 0 0 0 1.87.62Z" style="fill:#42363a"/><path d="M41.1 62.11c-.55-.4-1.1-.78-1.65-1.16a2 2 0 0 1-1.91-.57V61.27a.74.74 0 0 0 .45.72c.89.35 1.77.72 2.66 1.06a.55.55 0 0 0 .63-.19.54.54 0 0 0-.18-.75Z" style="fill:#e4d8b4"/><path d="M58.9 37.51h-3a.22.22 0 0 1-.22-.23.22.22 0 0 1 .22-.22h3a.23.23 0 1 1 0 .45ZM60.39 43h-3a.23.23 0 1 1 0-.45h3a.22.22 0 0 1 .22.22.22.22 0 0 1-.22.23ZM63.47 80.1a14.17 14.17 0 1 1 14.17-14.17A14.19 14.19 0 0 1 63.47 80.1Zm0-27.21a13 13 0 1 0 13 13 13.06 13.06 0 0 0-13-13Z" style="fill:#42363a"/><path d="M63.47 79.13a13.2 13.2 0 1 1 13.2-13.2 13.21 13.21 0 0 1-13.2 13.2Zm0-25.95a12.75 12.75 0 1 0 12.75 12.75 12.76 12.76 0 0 0-12.75-12.75Z" style="fill:#d65b5b"/><path d="M65.29 65.93a1.82 1.82 0 1 1-1.82-1.82 1.81 1.81 0 0 1 1.82 1.82ZM14.17 80.1a14.17 14.17 0 1 1 14.17-14.17A14.19 14.19 0 0 1 14.17 80.1Zm0-27.21a13 13 0 1 0 13 13 13.06 13.06 0 0 0-13-13Z" style="fill:#42363a"/><path d="M14.17 79.13a13.2 13.2 0 1 1 13.2-13.2 13.21 13.21 0 0 1-13.2 13.2Zm0-25.95a12.75 12.75 0 1 0 12.75 12.75 12.76 12.76 0 0 0-12.75-12.75Z" style="fill:#d65b5b"/><circle cx="14.17" cy="65.93" r="1.82" style="fill:#42363a"/><path d="M63.47 66.72a.8.8 0 0 1-.76-.57L53.4 33.57a.78.78 0 0 1 .54-1 .79.79 0 0 1 1 .54l9.31 32.58a.79.79 0 0 1-.54 1 .83.83 0 0 1-.24.03ZM14.06 66.89a.34.34 0 0 1 0-.67l23.86-.29a.33.33 0 0 1 .33.33.32.32 0 0 1-.33.34l-23.86.29Z" style="fill:#a53737"/><path d="M14.17 66.72a.59.59 0 0 1-.23 0 .78.78 0 0 1-.52-1 41 41 0 0 1 11.17-18 .78.78 0 1 1 1.07 1.14 39.59 39.59 0 0 0-10.74 17.3.78.78 0 0 1-.75.56Z" style="fill:#a53737"/><path d="M37.45 66.49a.53.53 0 0 1-.5-.32c-3.82-8-7.8-13.7-12.19-17.44a.56.56 0 0 1 .73-.86C30 51.72 34.08 57.55 38 65.69a.56.56 0 0 1-.26.75.53.53 0 0 1-.29.05Z" style="fill:#a53737"/><path d="M38.19 66.59a3.84 3.84 0 0 1-.87-.11.56.56 0 0 1-.41-.68.57.57 0 0 1 .68-.42c3.28.8 5.48-5.31 7.8-11.78 2.47-6.85 5-13.93 9.55-14.62a.56.56 0 0 1 .64.47.58.58 0 0 1-.47.64c-3.87.59-6.42 7.66-8.66 13.89-2.32 6.47-4.53 12.61-8.26 12.61ZM25.12 49.38a.79.79 0 0 1-.76-.6L22.92 43a.79.79 0 1 1 1.53-.38l1.44 5.75a.78.78 0 0 1-.57 1 .69.69 0 0 1-.2.01Z" style="fill:#a53737"/><path d="M45.52 55.24h-.1a.33.33 0 0 1-.22-.42c1.72-5.82 4.89-8.53 7.24-9.82a10.75 10.75 0 0 1 4.78-1.34.34.34 0 0 1 0 .68 10.08 10.08 0 0 0-4.49 1.27c-2.22 1.2-5.22 3.79-6.88 9.35a.32.32 0 0 1-.33.28Z" style="fill:#a53737"/><path d="M30 41.7c.16-1.65-8.33-2.09-10-1.58s-1.44 2.94-.79 3.37S29.78 44 30 41.7Z" style="fill:#e86f68"/><path d="M53.54 33.69a.33.33 0 0 1-.17 0 .34.34 0 0 1-.16-.38 3 3 0 0 0-.69-2.58c-1.2-1.35-3.84-1.81-7.61-1.33a.34.34 0 0 1-.09-.67c4.07-.51 6.84 0 8.21 1.56a3.56 3.56 0 0 1 .9 2.16c.87-1.06 2.27-3.1 1.62-4.7s-3.55-2.58-8.19-2.58a.34.34 0 1 1 0-.67c5 0 8 1 8.81 2.95 1.09 2.67-2.25 6-2.4 6.14a.3.3 0 0 1-.23.1Z" style="fill:#a53737"/><path d="M37.45 68.63a2.7 2.7 0 1 1 2.7-2.7 2.7 2.7 0 0 1-2.7 2.7Zm0-4.95a2.25 2.25 0 1 0 2.25 2.25 2.25 2.25 0 0 0-2.25-2.25Z" style="fill:#42363a"/><circle cx="37.45" cy="65.93" r="1.25" style="fill:#42363a"/><path d="m34.52 67 .2-6.67.13-4.79a30.42 30.42 0 0 0-.3-5.2 31.14 31.14 0 0 0-1.21-5.16l-.21-.63-.22-.62-.4-1.13-.81-2.3-3.22-9a5 5 0 0 0-.4-.85A4.71 4.71 0 1 0 20 35.47l5 8.22 1.23 2.05.62 1 .28.47c.1.15.18.3.27.46a24.34 24.34 0 0 1 1.78 3.88 25.52 25.52 0 0 1 1.12 4.23l.81 4.73 1.09 6.39a4.54 4.54 0 0 0 2.32.1Z" style="fill:#edb09d"/><path d="m34.46 69.13.06-2.13a4.54 4.54 0 0 1-2.37 0l.4 2.29a4.9 4.9 0 0 0 1.91-.16Z" style="fill:#42363a"/><path d="m36.73 70.31-2.28-1v-.22a4.9 4.9 0 0 1-1.91.09l.13.76v.18a.74.74 0 0 0 .6.61c1 .19 2.07.39 3.11.56A.54.54 0 0 0 37 71a.53.53 0 0 0-.27-.69Z" style="fill:#e4d8b4"/><path d="M30.8 29a5.9 5.9 0 0 0 .94 3.88 18.64 18.64 0 0 0 3.61 2.94 1.7 1.7 0 0 1 .7 1.88 7.41 7.41 0 0 1-3 4.09c-3.23 2.23-7.11.72-9.49 2.52-1.62 1.23-4.05.81-5.42.42a1 1 0 0 1-.64-1.3 16.48 16.48 0 0 0 1.25-6.38c-.22-3.38-.58-7 1.29-9.56C23.4 28.25 30.8 29 30.8 29Z" style="fill:#42363a"/><path d="m30 11.91 3.46 4.91.86 1.18.4.57c.12.17.25.34.38.5a10.83 10.83 0 0 0 1.8 1.78 11.51 11.51 0 0 0 4.72 2.19l.33.07.37.06.74.12 1.48.25 3 .5a.94.94 0 0 1-.17 1.86H41.31a14.71 14.71 0 0 1-6.39-1.9 14.44 14.44 0 0 1-2.77-2q-.33-.29-.63-.6l-.52-.55-1-1.08-4.16-4.32a2.77 2.77 0 0 1 4-3.84 2.69 2.69 0 0 1 .16.3Z" style="fill:#edb09d"/><path d="M26.9 8.54a8 8 0 0 1-.67 3.25 8.56 8.56 0 0 0 4.4 1.63 6.14 6.14 0 0 0 1.06-2.59c-1.34-1.91-4.79-2.29-4.79-2.29Z" style="fill:#ffc9b6"/><path d="M31.59 14.38a1.12 1.12 0 0 0 .77.4 5.56 5.56 0 0 0-2-2.51 15.2 15.2 0 0 1-2.94-1.91 8.49 8.49 0 0 0-.7.64c2.11.34 3.6 1.86 4.87 3.38Z" style="fill:#ffc9b6"/><path d="M31.59 14.38c-1.27-1.52-2.76-3-4.87-3.38l-.58.61A10.88 10.88 0 0 0 22.59 15a10.36 10.36 0 0 0-1.16 3.31 19.35 19.35 0 0 1-.78 2.69 28.64 28.64 0 0 0-1.58 6 .93.93 0 0 0 .47 1c3.8 2.06 9.06 2.2 11.05 2.18a.87.87 0 0 0 .86-.81c.05-.68.14-1.66.28-2.48.27-1.67 2.34-8 .63-12.15a1.12 1.12 0 0 1-.77-.36Z" style="fill:#bc9384"/><path d="M30.13.54C33.9.62 34.73 2.8 35 3.93s.18 1.4 0 1.69.14 1.16.41 1.51a2.75 2.75 0 0 1 .57 1 .56.56 0 0 1-.47.46.47.47 0 0 0-.43.26c-.08.17.06.44.06.58a.31.31 0 0 1-.07.17.47.47 0 0 0-.07.4.15.15 0 0 1 0 .16.56.56 0 0 0-.12.49 1.28 1.28 0 0 1 0 .7.63.63 0 0 1-.59.52 7.62 7.62 0 0 1-2.15-.15c-.41-.16-1.54-.72-1.8-1.32-.92-.26-3.05-.26-3.72-1.23s-1.8-2-1.59-4.25a4.08 4.08 0 0 1 1.81-3.47 5 5 0 0 1 3.29-.91Z" style="fill:#ffc9b6"/><path d="M34.12 2.5a12 12 0 0 1-1.66 2.34A6 6 0 0 1 29.68 6h-.06a.81.81 0 0 0-.68-.22.66.66 0 0 0-.37.31c-.43.72.5 1.53.53 1.87.58 5.42-4.55 4.32-6.23 3.69s-3.49.24-5.22-.38-2.78-3.11-2.39-5.51 3.45-3.07 6-2.63S25.75.73 29.05.1a5.62 5.62 0 0 1 1.51-.1 5.72 5.72 0 0 1 2.06.54 6.48 6.48 0 0 1 1.28.8.88.88 0 0 1 .22 1.16Z" style="fill:#c2b28f"/><path d="M47.06 24.16a4 4 0 0 1 2.27-.25 1.21 1.21 0 0 1 .45 1.18 1.14 1.14 0 0 1-1 1.07c-.64 0-1.53 0-1.72-.22a1.57 1.57 0 0 1 0-1.78Z" style="fill:#edb09d"/><path d="M29.62 5.9a15 15 0 0 0 3-5.34A5.72 5.72 0 0 0 30.56 0a21.39 21.39 0 0 1-1.62 5.66ZM18.44 14.67l-3 .26a21.59 21.59 0 0 0 1 12.17l3-.26a1.33 1.33 0 0 0 1.21-1.44l-.83-9.52a1.31 1.31 0 0 0-1.38-1.21Z" style="fill:#42363a"/><path d="m15.46 14.93-.88.07a1.34 1.34 0 0 0-1.21 1.44L14.2 26a1.31 1.31 0 0 0 1.44 1.21l.84-.07a21.59 21.59 0 0 1-1.02-12.21Z" style="fill:#5e5056"/><path d="M18.44 16.25s6.54-3.81 8.48-4.1 2.67.2 3.28 1.11 1.61 7.23-10.32 11.83v1.15s13.15-5 10.64-13.3c-1-3.09-8.34 0-12.22 2.45-.15.86.14.86.14.86ZM18.3 15.39s-.15-2.38-1.44-2.3-1.08 2.44-1.08 2.44l.58-.07s-.51-1.65.5-1.8.94 1.73.94 1.73Z" style="fill:#42363a"/><path d="m44 28.28-1.57-.46-.73-.21-.7-.22c-.22-.07-.44-.17-.66-.25s-.43-.17-.64-.27a14.51 14.51 0 0 1-6.11-5.21c-.23-.37-.46-.74-.66-1.13l-.16-.29-.12-.24-.29-.63-2.5-5.56a3.13 3.13 0 0 0-.19-.36 2.76 2.76 0 0 0-4.65 3l3.29 5.12.46.69.24.35.26.35c.33.46.71.89 1.08 1.32a18 18 0 0 0 2.5 2.28 17.64 17.64 0 0 0 5.93 2.95c.26.08.52.15.79.21s.53.12.81.16l.79.14.76.1 2 .27a5.88 5.88 0 0 0 .07-2.11ZM45.35 28.68l-.73-.22a5.45 5.45 0 0 1 0 2h.32a.94.94 0 0 0 .39-1.83Z" style="fill:#ffc9b6"/><path d="M44.45 28.58a4.2 4.2 0 0 1 2.35-.35 1.27 1.27 0 0 1 .52 1.21 1.17 1.17 0 0 1-1 1.15c-.66.06-1.59.12-1.79-.16a1.63 1.63 0 0 1-.08-1.85Z" style="fill:#ffc9b6"/><path d="m44.61 28.46-.61-.18a5.88 5.88 0 0 1-.05 2.09l.7.1a5.45 5.45 0 0 0-.04-2.01Z" style="fill:#42363a"/><path d="m58.2 36.39 1.73 6.91a1.15 1.15 0 0 0 1.12.88h5.25a1.15 1.15 0 0 0 1.15-1.13L67.6 36a1.17 1.17 0 0 0-1.18-1.18L59.3 35a1.16 1.16 0 0 0-1.1 1.39Z" style="fill:#d68d51"/><rect x="32.37" y="70.94" width="4.5" height="1.26" rx=".59" transform="rotate(14.01 34.608 71.546)" style="fill:#5c5c5c"/></g></svg>