<svg width="808" height="335" xmlns="http://www.w3.org/2000/svg"><g fill="none" fill-rule="evenodd"><path fill="#DC3F39" d="M305.316 224.563h1v-26.152h-1zM322.382 224.563h1v-19.925h-1zM339.448 224.563h1v-15.398h-1zM356.514 224.563h1v-12.451h-1zM373.58 224.563h1v-11.071h-1zM390.646 224.563h1v-11.071h-1zM407.711 224.563h1v-12.451h-1zM424.777 224.563h1v-15.398h-1zM441.843 224.563h1v-19.924h-1zM458.909 224.563h1V198.41h-1z"/><path d="M382.613 214.49c-110.365 0-200.154-89.788-200.154-200.153h1.5c0 109.537 89.116 198.653 198.654 198.653 109.537 0 198.653-89.116 198.653-198.653h1.5c0 110.365-89.788 200.153-200.153 200.153" fill="#DC3F39"/><path fill="#DC3F39" d="M202.921 224.563h1V101.912h-1zM219.987 224.563h1V130.45h-1zM237.053 224.563h1v-73.407h-1zM254.119 224.563h1v-57.321h-1zM271.185 224.563h1v-44.502h-1zM288.25 224.563h1v-34.254h-1zM475.975 224.563h1v-34.254h-1zM493.04 224.563h1v-44.502h-1zM510.106 224.563h1v-57.318h-1zM527.172 224.563h1v-73.407h-1zM544.238 224.563h1V130.45h-1zM561.304 224.563h1V101.912h-1zM.627 224.563h1v-12.451h-1zM17.693 224.563h1v-15.398h-1zM34.759 224.563h1v-19.924h-1zM51.825 224.563h1V198.41h-1zM68.891 224.563h1v-34.254h-1zM85.957 224.563h1v-44.502h-1zM103.022 224.563h1v-57.318h-1zM120.088 224.563h1v-73.407h-1zM137.154 224.563h1V130.45h-1zM154.22 224.563h1V101.912h-1z"/><path d="M174.181 14.337c0 101.037-75.822 184.698-173.554 197.074v1.509c98.561-12.385 175.054-96.717 175.054-198.583h-1.5M712.4 224.563h1v-26.152h-1zM729.467 224.563h1v-19.925h-1zM746.532 224.563h1v-15.398h-1zM763.599 224.563h1v-12.451h-1zM780.664 224.563h1v-11.071h-1zM797.729 224.563h1v-11.071h-1zM610.005 224.563h1V101.912h-1zM627.071 224.563h1V130.45h-1zM644.137 224.563h1v-73.407h-1zM661.203 224.563h1v-57.321h-1zM678.269 224.563h1v-44.502h-1zM695.335 224.563h1v-34.254h-1z" fill="#DC3F39"/><path d="M807.263 212.204c-5.789.51-11.646.786-17.566.786-109.538 0-198.653-89.116-198.653-198.653h-1.5c0 110.365 89.788 200.153 200.153 200.153 5.92 0 11.776-.274 17.566-.78v-1.506" fill="#DC3F39"/><path fill="#BA2B2B" d="M569.819 237.721h32.671v-11.295h-32.671z"/><path fill="#9A7957" d="M569.819 327.717h32.671v-20.209h-32.671z"/><path fill="#BA2B2B" d="M573.131 243.369h26.048v-5.648h-26.048zM573.131 307.508h26.048v-13.881h-26.048z"/><path fill="#AB2531" d="M567.612 226.426h37.086v-3.725h-37.086z"/><path fill="#BA2B2B" d="M576.222 293.627h19.867v-50.259h-19.867zM576.222 222.701h19.867V157.43h-19.867zM578.87 157.43h14.569V99.56H578.87zM580.636 99.56h11.038V52.1h-11.038z"/><path fill="#AB2531" d="M580.636 14.337h11.038v-2.195h-11.038z"/><path fill="#BA2B2B" d="M582.016 52.1h8.278V14.337h-8.278z"/><path fill="#DC3F39" d="M582.016 12.142h8.278v-3.98h-8.278z"/><path fill="#DC3F39" d="M587.811 8.162h-3.312L585.604.66h1.103l1.104 7.502"/><path fill="#D3A778" d="M559.03 334.108h54.249v-6.391H559.03z"/><path fill="#982929" d="M576.222 245.688h19.867v-2.32h-19.867z"/><path fill="#BA2B2B" d="M162.735 237.721h32.671v-11.295h-32.671z"/><path fill="#9A7957" d="M162.735 327.717h32.671v-20.209h-32.671z"/><path fill="#BA2B2B" d="M166.046 243.369h26.049v-5.648h-26.049zM166.046 307.508h26.049v-13.881h-26.049z"/><path fill="#AB2531" d="M160.527 226.426h37.086v-3.725h-37.086z"/><path fill="#BA2B2B" d="M169.137 293.627h19.867v-50.259h-19.867zM169.137 222.701h19.867V157.43h-19.867zM171.786 157.43h14.569V99.56h-14.569zM173.551 99.56h11.038V52.1h-11.038z"/><path fill="#AB2531" d="M173.551 14.337h11.038v-2.195h-11.038z"/><path fill="#BA2B2B" d="M174.931 52.1h8.278V14.337h-8.278z"/><path fill="#DC3F39" d="M174.931 12.142h8.278v-3.98h-8.278z"/><path fill="#DC3F39" d="M180.726 8.162h-3.311L178.519.66h1.103l1.104 7.502"/><path fill="#D3A778" d="M151.946 334.108h54.249v-6.391h-54.249z"/><path fill="#982929" d="M169.137 245.688h19.867v-2.32h-19.867z"/><path fill="#AA283E" d="M586.155 26.855h38.526V15.938h-38.526zM586.155 65.105h38.526V54.188h-38.526zM586.543 112.842h38.525v-10.917h-38.525zM586.155 171.23h38.526v-10.917h-38.526zM179.07 26.855h38.526V15.938H179.07zM179.07 65.105h38.526V54.188H179.07zM179.458 112.842h38.526v-10.917h-38.526zM179.07 171.23h38.526v-10.917H179.07z"/><path fill="#9D252F" d="M806.764 233.688H1.127v-9.125h805.636l.001 9.125"/></g></svg>