<svg width="1471" height="165" xmlns="http://www.w3.org/2000/svg"><g fill="#E5E6E3" fill-rule="evenodd"><path d="M515.143 141.233h-2.698a21.052 21.052 0 0 0 2.037-9.019c0-11.648-9.393-21.091-20.979-21.091-7.549 0-14.148 4.022-17.843 10.037a13.564 13.564 0 0 0-6.924-1.902c-7.565 0-13.698 6.165-13.698 13.771 0 2.024.444 3.94 1.225 5.671h-6.095c-6.332 0-11.514 5.209-11.514 11.575s5.182 11.575 11.514 11.575h64.975c5.639 0 10.253-4.639 10.253-10.309 0-5.669-4.614-10.308-10.253-10.308M662.938 15.352h-1.309c.627-1.329.988-2.81.988-4.379 0-5.656-4.56-10.241-10.186-10.241-3.666 0-6.869 1.952-8.664 4.873a6.59 6.59 0 0 0-3.362-.923c-3.674 0-6.652 2.993-6.652 6.687 0 .982.216 1.913.595 2.753h-2.959c-3.076 0-5.591 2.529-5.591 5.621 0 3.091 2.515 5.62 5.591 5.62h31.549c2.739 0 4.979-2.252 4.979-5.005s-2.24-5.006-4.979-5.006M401.697 87.049h1.886a14.736 14.736 0 0 1-1.424-6.306c0-8.144 6.568-14.746 14.668-14.746 5.277 0 9.891 2.812 12.475 7.018a9.479 9.479 0 0 1 4.84-1.331c5.29 0 9.578 4.311 9.578 9.629a9.624 9.624 0 0 1-.857 3.964h4.261c4.428 0 8.05 3.642 8.05 8.093 0 4.451-3.622 8.093-8.05 8.093h-45.427c-3.942 0-7.169-3.243-7.169-7.207 0-3.965 3.227-7.207 7.169-7.207M67.461 105.636H65.09a18.52 18.52 0 0 0 1.79-7.93c0-10.24-8.257-18.543-18.444-18.543-6.637 0-12.438 3.537-15.687 8.825a11.928 11.928 0 0 0-6.087-1.673c-6.652 0-12.044 5.421-12.044 12.108a12.1 12.1 0 0 0 1.077 4.986h-5.359c-5.567 0-10.122 4.579-10.122 10.176s4.555 10.177 10.122 10.177h57.125c4.958 0 9.015-4.079 9.015-9.063 0-4.985-4.057-9.063-9.015-9.063M287.722 151.085h-1.777a13.876 13.876 0 0 0 1.342-5.941c0-7.673-6.188-13.893-13.82-13.893-4.973 0-9.32 2.649-11.754 6.611a8.937 8.937 0 0 0-4.561-1.253c-4.983 0-9.024 4.061-9.024 9.072 0 1.333.294 2.595.808 3.735h-4.015c-4.171 0-7.585 3.432-7.585 7.625 0 4.194 3.414 7.625 7.585 7.625h42.801c3.715 0 6.754-3.056 6.754-6.791 0-3.734-3.039-6.79-6.754-6.79M250.169 36.704h-2.119a16.537 16.537 0 0 0 1.6-7.085c0-9.152-7.379-16.571-16.483-16.571-5.931 0-11.115 3.159-14.018 7.885a10.657 10.657 0 0 0-5.44-1.495c-5.944 0-10.763 4.845-10.763 10.82 0 1.591.35 3.096.963 4.456h-4.789c-4.975 0-9.046 4.092-9.046 9.094s4.071 9.094 9.046 9.094h51.049c4.431 0 8.057-3.644 8.057-8.099 0-4.454-3.626-8.099-8.057-8.099M719.855 94.056h-1.831a14.31 14.31 0 0 0 1.383-6.124c0-7.91-6.378-14.322-14.246-14.322-5.126 0-9.606 2.731-12.115 6.815a9.208 9.208 0 0 0-4.702-1.292c-5.137 0-9.302 4.187-9.302 9.352 0 1.374.303 2.675.832 3.85h-4.139c-4.299 0-7.818 3.537-7.818 7.86s3.519 7.86 7.818 7.86h44.12c3.831 0 6.963-3.15 6.963-6.999 0-3.851-3.132-7-6.963-7"/><g><path d="M1259.143 141.233h-2.698a21.052 21.052 0 0 0 2.037-9.019c0-11.648-9.393-21.091-20.979-21.091-7.549 0-14.148 4.022-17.843 10.037a13.564 13.564 0 0 0-6.924-1.902c-7.565 0-13.698 6.165-13.698 13.771 0 2.024.444 3.94 1.225 5.671h-6.095c-6.332 0-11.514 5.209-11.514 11.575s5.182 11.575 11.514 11.575h64.975c5.639 0 10.253-4.639 10.253-10.309 0-5.669-4.614-10.308-10.253-10.308M1406.938 15.352h-1.309c.627-1.329.988-2.81.988-4.379 0-5.656-4.56-10.241-10.186-10.241-3.666 0-6.869 1.952-8.664 4.873a6.59 6.59 0 0 0-3.362-.923c-3.674 0-6.652 2.993-6.652 6.687 0 .982.216 1.913.595 2.753h-2.959c-3.076 0-5.591 2.529-5.591 5.621 0 3.091 2.515 5.62 5.591 5.62h31.549c2.739 0 4.979-2.252 4.979-5.005s-2.24-5.006-4.979-5.006M1145.697 87.049h1.886a14.736 14.736 0 0 1-1.424-6.306c0-8.144 6.568-14.746 14.668-14.746 5.277 0 9.891 2.812 12.475 7.018a9.479 9.479 0 0 1 4.84-1.331c5.29 0 9.578 4.311 9.578 9.629a9.624 9.624 0 0 1-.857 3.964h4.261c4.428 0 8.05 3.642 8.05 8.093 0 4.451-3.622 8.093-8.05 8.093h-45.427c-3.942 0-7.169-3.243-7.169-7.207 0-3.965 3.227-7.207 7.169-7.207M811.461 105.636h-2.371a18.52 18.52 0 0 0 1.79-7.93c0-10.24-8.257-18.543-18.444-18.543-6.637 0-12.438 3.537-15.687 8.825a11.928 11.928 0 0 0-6.087-1.673c-6.652 0-12.044 5.421-12.044 12.108a12.1 12.1 0 0 0 1.077 4.986h-5.359c-5.567 0-10.122 4.579-10.122 10.176s4.555 10.177 10.122 10.177h57.125c4.958 0 9.015-4.079 9.015-9.063 0-4.985-4.057-9.063-9.015-9.063M1031.722 151.085h-1.777a13.876 13.876 0 0 0 1.342-5.941c0-7.673-6.188-13.893-13.82-13.893-4.973 0-9.32 2.649-11.754 6.611a8.937 8.937 0 0 0-4.561-1.253c-4.983 0-9.024 4.061-9.024 9.072 0 1.333.294 2.595.808 3.735h-4.015c-4.171 0-7.585 3.432-7.585 7.625 0 4.194 3.414 7.625 7.585 7.625h42.801c3.715 0 6.754-3.056 6.754-6.791 0-3.734-3.039-6.79-6.754-6.79M994.169 36.704h-2.119a16.537 16.537 0 0 0 1.6-7.085c0-9.152-7.379-16.571-16.483-16.571-5.931 0-11.115 3.159-14.018 7.885a10.657 10.657 0 0 0-5.44-1.495c-5.944 0-10.763 4.845-10.763 10.82 0 1.591.35 3.096.963 4.456h-4.789c-4.975 0-9.046 4.092-9.046 9.094s4.071 9.094 9.046 9.094h51.049c4.431 0 8.057-3.644 8.057-8.099 0-4.454-3.626-8.099-8.057-8.099M1463.855 94.056h-1.831a14.31 14.31 0 0 0 1.383-6.124c0-7.91-6.378-14.322-14.246-14.322-5.126 0-9.606 2.731-12.115 6.815a9.208 9.208 0 0 0-4.702-1.292c-5.137 0-9.302 4.187-9.302 9.352 0 1.374.303 2.675.832 3.85h-4.139c-4.299 0-7.818 3.537-7.818 7.86s3.519 7.86 7.818 7.86h44.12c3.831 0 6.963-3.15 6.963-6.999 0-3.851-3.132-7-6.963-7"/></g></g></svg>