<svg data-name="—ÎÓÈ_1" xmlns="http://www.w3.org/2000/svg" xmlns:xlink="http://www.w3.org/1999/xlink" viewBox="0 0 1593.76 447.31"><defs><linearGradient id="e" x1="976.29" y1="410.43" x2="976.29" y2="267.99" gradientUnits="userSpaceOnUse"><stop offset="0" stop-color="#ededed"/><stop offset="1" stop-color="#c2c2c2"/></linearGradient><linearGradient id="h" x1="939.61" y1="369.97" x2="939.61" y2="267.99" gradientUnits="userSpaceOnUse"><stop offset="0" stop-color="#333"/><stop offset="1" stop-color="#e6e6e6"/></linearGradient><linearGradient id="u" x1="976.29" y1="410.43" x2="976.29" y2="267.99" gradientUnits="userSpaceOnUse"><stop offset="0" stop-color="#231f20"/><stop offset="1" stop-color="#231f20"/></linearGradient><linearGradient id="w" x1="939.61" y1="369.97" x2="939.61" y2="267.99" gradientUnits="userSpaceOnUse"><stop offset="0" stop-color="#fff"/><stop offset="1" stop-color="#fff"/></linearGradient><linearGradient id="m" x1="4046.53" y1="534.22" x2="4046.53" y2="661.21" gradientTransform="matrix(-1 0 0 1 5536.11 0)" gradientUnits="userSpaceOnUse"><stop offset="0" stop-color="#231f20"/><stop offset=".17" stop-color="#262324"/><stop offset=".31" stop-color="#312d2e"/><stop offset=".46" stop-color="#434041"/><stop offset=".6" stop-color="#5c5a5b"/><stop offset=".73" stop-color="#7c7b7c"/><stop offset=".87" stop-color="#a3a4a5"/><stop offset="1" stop-color="#d1d3d4"/><stop offset="1" stop-color="#d3d5d6"/></linearGradient><linearGradient id="n" x1="1638.72" y1="493.3" x2="1638.72" y2="694.88" gradientTransform="translate(-204.47)" gradientUnits="userSpaceOnUse"><stop offset="0" stop-color="#302e2f"/><stop offset=".8" stop-color="#231f20"/></linearGradient><linearGradient id="i" x1="1711.88" y1="679.35" x2="1678.76" y2="508.97" gradientTransform="translate(-204.47)" gradientUnits="userSpaceOnUse"><stop offset="0" stop-color="#302e2f"/><stop offset="1" stop-color="#292728"/></linearGradient><linearGradient id="x" x1="1673.78" y1="497.79" x2="1714.94" y2="691.45" xlink:href="#i"/><linearGradient id="o" x1="1693.79" y1="527.21" x2="1693.79" y2="662.18" gradientTransform="translate(-204.47)" gradientUnits="userSpaceOnUse"><stop offset="0" stop-color="#797a7d"/><stop offset="1" stop-color="#dcddde"/></linearGradient><linearGradient id="y" x1="4051.41" y1="548.39" x2="4051.41" y2="645.72" gradientTransform="matrix(-1 0 0 1 5536.11 0)" gradientUnits="userSpaceOnUse"><stop offset="0" stop-color="#333132"/><stop offset=".19" stop-color="#373536"/><stop offset=".38" stop-color="#434142"/><stop offset=".57" stop-color="#565557"/><stop offset=".77" stop-color="#717274"/><stop offset=".96" stop-color="#949698"/><stop offset="1" stop-color="#9b9da0"/></linearGradient><linearGradient id="j" x1="4027.01" y1="605.93" x2="4032.39" y2="618.08" gradientTransform="matrix(-1 0 0 1 5536.11 0)" gradientUnits="userSpaceOnUse"><stop offset="0" stop-color="#434345"/><stop offset=".27" stop-color="#464649"/><stop offset=".51" stop-color="#515153"/><stop offset=".75" stop-color="#626366"/><stop offset=".97" stop-color="#7b7c7f"/><stop offset="1" stop-color="#7e8083"/></linearGradient><linearGradient id="z" x1="4023.38" y1="574.12" x2="4029.26" y2="587.4" xlink:href="#j"/><linearGradient id="A" x1="4057.75" y1="612.13" x2="4063.41" y2="624.9" xlink:href="#j"/><linearGradient id="B" x1="4073.42" y1="585.36" x2="4079.46" y2="598.98" xlink:href="#j"/><linearGradient id="C" x1="4052.68" y1="561.28" x2="4058.51" y2="574.44" xlink:href="#j"/><linearGradient id="p" x1="4048.5" y1="536.05" x2="4048.5" y2="653.25" gradientTransform="matrix(-1 0 0 1 5536.11 0)" gradientUnits="userSpaceOnUse"><stop offset="0" stop-color="#292728"/><stop offset=".18" stop-color="#2c2b2c"/><stop offset=".35" stop-color="#373536"/><stop offset=".5" stop-color="#494849"/><stop offset=".66" stop-color="#626163"/><stop offset=".8" stop-color="#828284"/><stop offset=".95" stop-color="#a9aaac"/><stop offset="1" stop-color="#b8babc"/></linearGradient><linearGradient id="k" x1="1137.99" y1="982.92" x2="1149.05" y2="1007.88" gradientTransform="rotate(24.5 2244.02 1570.313)" gradientUnits="userSpaceOnUse"><stop offset="0" stop-color="#dcddde"/><stop offset="1" stop-color="#231f20"/></linearGradient><linearGradient id="l" x1="1692.51" y1="608.27" x2="1692.51" y2="594.12" gradientTransform="translate(-204.47)" gradientUnits="userSpaceOnUse"><stop offset="0" stop-color="#333132"/><stop offset="1" stop-color="#231f20"/></linearGradient><linearGradient id="D" x1="1164.39" y1="999.14" x2="1168.96" y2="1009.45" xlink:href="#k"/><linearGradient id="E" x1="1710.1" y1="617.77" x2="1710.1" y2="611.92" xlink:href="#l"/><linearGradient id="F" x1="1114.51" y1="999.14" x2="1119.08" y2="1009.45" xlink:href="#k"/><linearGradient id="G" x1="1664.49" y1="597.56" x2="1664.49" y2="591.72" xlink:href="#l"/><linearGradient id="H" x1="1139.51" y1="1017.24" x2="1144.08" y2="1027.54" xlink:href="#k"/><linearGradient id="I" x1="1680.02" y1="624.23" x2="1680.02" y2="618.39" xlink:href="#l"/><linearGradient id="J" x1="1124.04" y1="969.83" x2="1128.61" y2="980.13" xlink:href="#k"/><linearGradient id="K" x1="1685.08" y1="574.62" x2="1685.08" y2="568.77" xlink:href="#l"/><linearGradient id="L" x1="1154.87" y1="969.83" x2="1159.43" y2="980.13" xlink:href="#k"/><linearGradient id="M" x1="1713.26" y1="587.11" x2="1713.26" y2="581.26" xlink:href="#l"/><linearGradient id="q" x1="1497.13" y1="680.29" x2="1497.13" y2="510.73" gradientUnits="userSpaceOnUse"><stop offset="0" stop-color="#797a7d"/><stop offset="1" stop-color="#656668"/></linearGradient><linearGradient id="N" x1="538.53" y1="534.22" x2="538.53" y2="661.21" xlink:href="#m"/><linearGradient id="O" x1="5146.71" y1="493.3" x2="5146.71" y2="694.88" gradientTransform="matrix(-1 0 0 1 5740.59 0)" xlink:href="#n"/><linearGradient id="P" x1="5219.88" y1="679.35" x2="5186.76" y2="508.97" gradientTransform="matrix(-1 0 0 1 5740.59 0)" xlink:href="#i"/><linearGradient id="Q" x1="5181.78" y1="497.79" x2="5222.94" y2="691.45" gradientTransform="matrix(-1 0 0 1 5740.59 0)" xlink:href="#i"/><linearGradient id="R" x1="5201.79" y1="527.21" x2="5201.79" y2="662.18" gradientTransform="matrix(-1 0 0 1 5740.59 0)" xlink:href="#o"/><linearGradient id="S" x1="543.42" y1="548.39" x2="543.42" y2="645.72" gradientUnits="userSpaceOnUse"><stop offset="0" stop-color="#333132"/><stop offset=".19" stop-color="#373536"/><stop offset=".39" stop-color="#424142"/><stop offset=".6" stop-color="#565557"/><stop offset=".8" stop-color="#717174"/><stop offset="1" stop-color="#939598"/></linearGradient><linearGradient id="T" x1="519.01" y1="605.93" x2="524.4" y2="618.08" xlink:href="#j"/><linearGradient id="U" x1="515.38" y1="574.12" x2="521.27" y2="587.4" xlink:href="#j"/><linearGradient id="V" x1="549.76" y1="612.13" x2="555.42" y2="624.9" xlink:href="#j"/><linearGradient id="W" x1="565.43" y1="585.36" x2="571.46" y2="598.98" xlink:href="#j"/><linearGradient id="X" x1="544.69" y1="561.28" x2="550.52" y2="574.44" xlink:href="#j"/><linearGradient id="Y" x1="540.51" y1="536.05" x2="540.51" y2="653.25" xlink:href="#p"/><linearGradient id="Z" x1="4345.19" y1="-438.09" x2="4356.25" y2="-413.13" gradientTransform="matrix(-.91 .41 .41 .91 4690.33 -778.72)" xlink:href="#k"/><linearGradient id="aa" x1="5200.5" y1="608.27" x2="5200.5" y2="594.12" gradientTransform="matrix(-1 0 0 1 5740.59 0)" xlink:href="#l"/><linearGradient id="ab" x1="4371.59" y1="-421.87" x2="4376.15" y2="-411.57" gradientTransform="matrix(-.91 .41 .41 .91 4690.33 -778.72)" xlink:href="#k"/><linearGradient id="ac" x1="5218.09" y1="617.77" x2="5218.09" y2="611.92" gradientTransform="matrix(-1 0 0 1 5740.59 0)" xlink:href="#l"/><linearGradient id="ad" x1="4321.71" y1="-421.87" x2="4326.28" y2="-411.57" gradientTransform="matrix(-.91 .41 .41 .91 4690.33 -778.72)" xlink:href="#k"/><linearGradient id="ae" x1="5172.49" y1="597.56" x2="5172.49" y2="591.72" gradientTransform="matrix(-1 0 0 1 5740.59 0)" xlink:href="#l"/><linearGradient id="af" x1="4346.71" y1="-403.78" x2="4351.28" y2="-393.48" gradientTransform="matrix(-.91 .41 .41 .91 4690.33 -778.72)" xlink:href="#k"/><linearGradient id="ag" x1="5188.02" y1="624.23" x2="5188.02" y2="618.39" gradientTransform="matrix(-1 0 0 1 5740.59 0)" xlink:href="#l"/><linearGradient id="ah" x1="4331.24" y1="-451.19" x2="4335.8" y2="-440.88" gradientTransform="matrix(-.91 .41 .41 .91 4690.33 -778.72)" xlink:href="#k"/><linearGradient id="ai" x1="5193.07" y1="574.62" x2="5193.07" y2="568.77" gradientTransform="matrix(-1 0 0 1 5740.59 0)" xlink:href="#l"/><linearGradient id="aj" x1="4362.06" y1="-451.19" x2="4366.63" y2="-440.88" gradientTransform="matrix(-.91 .41 .41 .91 4690.33 -778.72)" xlink:href="#k"/><linearGradient id="ak" x1="5221.26" y1="587.11" x2="5221.26" y2="581.26" gradientTransform="matrix(-1 0 0 1 5740.59 0)" xlink:href="#l"/><linearGradient id="al" x1="538.23" y1="655.19" x2="538.23" y2="519.02" xlink:href="#q"/><linearGradient id="am" x1="969.65" y1="595.5" x2="969.65" y2="249.6" gradientUnits="userSpaceOnUse"><stop offset="0" stop-color="#002241"/><stop offset="1" stop-color="#00496f"/></linearGradient><linearGradient id="r" x1="891.09" y1="287.16" x2="891.09" y2="395.97" gradientUnits="userSpaceOnUse"><stop offset="0" stop-color="#d5d7d8"/><stop offset="1" stop-color="#9da1a2"/></linearGradient><linearGradient id="an" x1="889.24" y1="283.45" x2="889.24" y2="395.8" xlink:href="#r"/><linearGradient id="ao" x1="1137.76" y1="268.86" x2="1137.76" y2="400.93" xlink:href="#r"/><linearGradient id="ap" x1="1102.12" y1="294.09" x2="1102.12" y2="401.57" xlink:href="#r"/><linearGradient id="aq" x1="1047.48" y1="299.11" x2="1047.48" y2="348" xlink:href="#r"/><linearGradient id="ar" x1="1105.12" y1="306.15" x2="1105.12" y2="401.97" xlink:href="#r"/><linearGradient id="s" x1="803.85" y1="406.33" x2="803.85" y2="421.87" gradientUnits="userSpaceOnUse"><stop offset="0" stop-color="#dcddde"/><stop offset="1" stop-color="#4f4f51"/></linearGradient><linearGradient id="as" x1="1080.23" y1="396.04" x2="1080.23" y2="409.95" xlink:href="#s"/><linearGradient id="at" x1="1070.34" y1="346.54" x2="1070.34" y2="383.19" gradientUnits="userSpaceOnUse"><stop offset="0" stop-color="#f6f6f6"/><stop offset=".15" stop-color="#eee"/><stop offset=".39" stop-color="#d7d7d8"/><stop offset=".69" stop-color="#b1b2b4"/><stop offset="1" stop-color="#828487"/></linearGradient><linearGradient id="au" x1="991.9" y1="542.67" x2="1006.91" y2="256.2" gradientUnits="userSpaceOnUse"><stop offset="0" stop-color="#4b798d"/><stop offset="1" stop-color="#fff"/></linearGradient><linearGradient id="av" x1="969.03" y1="497.02" x2="965.36" y2="602.16" xlink:href="#s"/><filter id="a" x="722.73" y="-8642" width="507.13" height="32766" filterUnits="userSpaceOnUse" color-interpolation-filters="sRGB"><feFlood flood-color="#fff" result="bg"/><feBlend in="SourceGraphic" in2="bg"/></filter><filter id="b" x="722.73" y="-8642" width="433.75" height="32766" filterUnits="userSpaceOnUse" color-interpolation-filters="sRGB"><feFlood flood-color="#fff" result="bg"/><feBlend in="SourceGraphic" in2="bg"/></filter><filter id="c" x="722.73" y="267.99" width="507.13" height="142.44" filterUnits="userSpaceOnUse" color-interpolation-filters="sRGB"><feFlood flood-color="#fff" result="bg"/><feBlend in="SourceGraphic" in2="bg"/></filter><filter id="f" x="722.73" y="267.99" width="433.75" height="101.98" filterUnits="userSpaceOnUse" color-interpolation-filters="sRGB"><feFlood flood-color="#fff" result="bg"/><feBlend in="SourceGraphic" in2="bg"/></filter><mask id="d" x="722.73" y="-8642" width="507.13" height="32766" maskUnits="userSpaceOnUse"/><mask id="g" x="722.73" y="-8642" width="433.75" height="32766" maskUnits="userSpaceOnUse"/><mask id="t" x="551.08" y="18.39" width="507.13" height="142.44" maskUnits="userSpaceOnUse"><g style="filter:url(#c)"><g style="mask:url(#d)" transform="translate(-171.65 -249.6)"><path d="M1052.8 268.07c45.63 17.35 177.06 134.64 177.06 134.64L779 410.43l-56.27-129.82s320.01-13.81 330.07-12.54Z" style="mix-blend-mode:multiply;fill:url(#e)"/></g></g></mask><mask id="v" x="551.08" y="18.39" width="433.75" height="101.98" maskUnits="userSpaceOnUse"><g style="filter:url(#f)"><g style="mask:url(#g)" transform="translate(-171.65 -249.6)"><path d="M1055.5 352.49c18.5-5.95 53.72-4.49 53.72-4.49s23.34 13.24 28.54 7.41c4.88-5.48 11.48-11.67 18.72-15.1-38.09-31-81.25-63.71-103.68-72.24-10.06-1.27-330.07 12.54-330.07 12.54L761.44 370c57.27-7 184.01-20.49 294.06-17.51Z" style="mix-blend-mode:multiply;fill:url(#h)"/></g></g></mask></defs><g style="mask:url(#t)"><path d="M1052.8 268.07c45.63 17.35 177.06 134.64 177.06 134.64L779 410.43l-56.27-129.82s320.01-13.81 330.07-12.54Z" transform="translate(-171.65 -249.6)" style="fill:url(#u)"/></g><g style="mask:url(#v)"><path d="M1055.5 352.49c18.5-5.95 53.72-4.49 53.72-4.49s23.34 13.24 28.54 7.41c4.88-5.48 11.48-11.67 18.72-15.1-38.09-31-81.25-63.71-103.68-72.24-10.06-1.27-330.07 12.54-330.07 12.54L761.44 370c57.27-7 184.01-20.49 294.06-17.51Z" transform="translate(-171.65 -249.6)" style="fill:url(#w)"/></g><path d="M1764.82 537.68c-3-4-9.24-13.74-25.55-13.74h-3.15c-.51-10.35.77-34.09 16.41-71.28 6.1 0 10-2.25 5.3-7.87s-47.24-23.3-106.69-31.81-241.33-22.82-412.08-25.83c-7.37-.13-11.47.09-10.39 2-.6-.08 0 1.52-.6 1.52-2.53 0-1.65-1.87-3.59-2-3-.19-5.73-.29-6.51.36-1.88 1.55-4.18 4.19-5.78 5.64-53-40.43-102.19-84.53-145.89-112.49-6.3-4 1.52-5.38 3.93-7.71 2.15-2.08-3.16-5.83-7.26-5.63.38-2.71-3.56-6.78-18-10.76-33.91-9.32-205.83-18.8-357.18 17.35-105.75 25.26-319.86 80.11-412 112.27-16.41 1.52-30.84 3-42.55 4.38-2.79.33-7.15 1.19-7.83 2.05-.3-.78-2.79-.77-4.16-.58-11.89 1.71-15.33 3.79-21.75 13.47-8.2 12.36-16.87 41.78-20 62.18-.79 5.19 2.92 5.17 12.78 5.48.08 1.61.2 3.44.34 5.53l-17-.92a3.7 3.7 0 0 0-3.89 3.67c0 7.72.72 24.91 7.76 32.28 8 8.37 13.87 10.65 21.35 13.63.61.24 4.76 1.59 9.13 2.87.58 1 1.2 2 1.87 3 1.73 2.57 3.44 5.19 5.2 7.81-.76.23-1.42.44-2 .62-4.21 1.45 7.72 20.85 13.38 20.85h6.38a60 60 0 0 0 15.17 9.69c-6.51.24-11.3.4-12.75.43-2.24 8 2.65 14.82 2.65 14.82l56.92-1.34c12.71 4.62 26.12 9.12 33.33 10.42 28.28 5.07 122.44 5.07 122.44 5.07s91.69 75.27 133.81 75.27h5.79a92.9 92.9 0 0 0 79-44c47.6.42 105 .92 108.18.92 5.46 0 7.4-5.14 7.4-5.14l231 1.28c30.69.17 33.42 16.71 62.34 16.71s170.38-1.35 170.38-1.35a10.45 10.45 0 0 0 9.25-5.72l58.81 2a119.84 119.84 0 0 0 28.6 2.79c1.41-.05 4.21-.27 8.12-.63a92.75 92.75 0 0 0 71.12 33.1h5.79c36.23 0 103-53.3 103-53.3s57.51 10.55 76.63 8 60.09-22.83 71.1-28.07c3.11-1.48 4.61-5.17 5.17-9.72 1.12-.18 2.22-.38 3.3-.59a8.39 8.39 0 0 0 7.79 4.16c5.91 0 17.07 0 22.54-3.14s26.19-29 32.29-38.32c2-3 3.38-6.42.48-8.19 4.55-.08 13.34-7.47 10.37-11.49Zm-719.72-225c33.46 22.76 67.6 51.39 86.39 67.72a7 7 0 0 1 2.15 3.3l-9.25-.32a9.36 9.36 0 0 0-8.19 4.31l-3.12 4.89-19.17-.49 11.21-22.43c2.83-5.67-7.74-13.18-11.6-6.11-.22.4-.53.89-.89 1.45-5.33-8.26-18.44-15.15-33.92-17.69-4.86-10.68-10.23-22.11-15.63-32.87a1.38 1.38 0 0 1 2.02-1.77Zm16.17 83.13-231.68-.92a86.23 86.23 0 0 0-11.3-14.89c-9.53-9.58-27.69-13.62-39.41-15.28-4.6-13.37-8.81-26.3-10.15-32.41-3.37-15.42 1.72-17.74 10-19.28 72.22-13.5 186.94-13.5 222-9.64a83.42 83.42 0 0 1 29.77 9.32l17.9 41.52a95 95 0 0 0-2.5 15.53c-1.11 13.07.08 23.84 2.67 24.06a88.34 88.34 0 0 0 14.05.11 21.81 21.81 0 0 1-1.35 1.87Z" transform="translate(-171.65 -249.6)" style="fill:#231f20"/><path d="M1489.89 492.47h-6.36a102.22 102.22 0 0 0 0 204.44h6.36a102.22 102.22 0 0 0 0-204.44Z" transform="translate(-171.65 -249.6)" style="fill:#231f20"/><path d="M1425.21 600.74a68.4 68.4 0 0 0 3.16 20.57 66.5 66.5 0 0 0 123.71-4.61 68.76 68.76 0 0 0 1.88-16c0-36.68-28.88-66.52-64.37-66.52s-64.38 29.88-64.38 66.56Zm4.07 2.27 4.24-.51a5.89 5.89 0 0 0 5.22-6v-1.81a50.25 50.25 0 0 1 1.37-11.64 6.09 6.09 0 0 0-3.71-7l-4.09-1.64 29.27-32.41.85 2a6.63 6.63 0 0 0 8.54 3.56 50 50 0 0 1 12.83-3.13 6.57 6.57 0 0 0 5.85-5.73l.29-2.61 5.58 8.43a50.36 50.36 0 0 1 21.09 7.62l12.93 1.86-1.44 1.26a4.59 4.59 0 0 0-.46 6.47 50.88 50.88 0 0 1 8.72 14.33 4.56 4.56 0 0 0 5.38 2.7l1.83-.47-4.24 8.67a51.12 51.12 0 0 1 .6 7.77 50.25 50.25 0 0 1-5.79 23.46l5 3.88-1.8-.88a4.66 4.66 0 0 0-5.9 1.56 50.63 50.63 0 0 1-11 11.84 5.41 5.41 0 0 0-1 7.64l.73.94-43.17 9.19.51-2.82a6.05 6.05 0 0 0-4.12-6.8 50.61 50.61 0 0 1-11.94-5.81 6.32 6.32 0 0 0-8.79 1.78l-1.43 2.18Z" transform="translate(-171.65 -249.6)" style="fill:url(#m)"/><path d="M1484.12 694.85h-1.87c-57.36 0-100.48-44.86-100.48-100.19s45.71-101.39 103.07-101.39h1.87c-54.5 1-101 46.64-101 101.36a100.17 100.17 0 0 0 98.41 100.22Z" transform="translate(-171.65 -249.6)" style="fill:url(#n)"/><path d="M1490.85 507.44c-48.58 0-88 38.82-88 86.72s39.38 86.73 88 86.73 88-38.83 88-86.73-39.42-86.72-88-86.72Zm-2.33 161.93A75.4 75.4 0 1 1 1564.2 594a75.53 75.53 0 0 1-75.68 75.37Z" transform="translate(-171.65 -249.6)" style="fill:url(#i)"/><path d="M1489.89 495.73c-55.64 0-100.74 44.28-100.74 98.89s45.1 98.89 100.74 98.89 100.74-44.27 100.74-98.89-45.1-98.89-100.74-98.89Zm0 188.27c-50.29 0-91.06-40-91.06-89.38s40.77-89.38 91.06-89.38 91 40 91 89.38-40.71 89.38-91 89.38Z" transform="translate(-171.65 -249.6)" style="fill:url(#x)"/><path d="M1489.32 662.18a67.49 67.49 0 1 1 67.48-67.49 67.57 67.57 0 0 1-67.48 67.49Zm0-131.6a64.11 64.11 0 1 0 64.11 64.11 64.18 64.18 0 0 0-64.11-64.11Z" transform="translate(-171.65 -249.6)" style="fill:url(#o)"/><path d="M1526.61 564.52a57.88 57.88 0 0 1 7.83 9.88 4.6 4.6 0 0 1-2.74 6.9l-5 1.29a7 7 0 0 1-8-3.82 36.38 36.38 0 0 0-2.81-4.83 6.92 6.92 0 0 1 1.21-9.1l.75-.65a6.47 6.47 0 0 1 8.76.33Zm-16.12 56.92a6.18 6.18 0 0 0-.75 8.4l3.82 4.85a5.3 5.3 0 0 0 7.51.86 52.4 52.4 0 0 0 9.66-10.42 5.58 5.58 0 0 0-2.11-8.22l-5.67-2.76a6.1 6.1 0 0 0-7.62 1.87 35.82 35.82 0 0 1-4.84 5.42Zm-51.3 7.37-1.43 2.18a6.44 6.44 0 0 0 2 9 52.22 52.22 0 0 0 6 3.13 54.88 54.88 0 0 0 6.33 2.33 5.43 5.43 0 0 0 6.91-4.24l.73-4a6.93 6.93 0 0 0-4.71-7.86 36.15 36.15 0 0 1-3.9-1.47c-1-.44-2-.92-2.89-1.43a6.91 6.91 0 0 0-9.04 2.36Zm25.27-80.4a54 54 0 0 0-15.12 3.35 3.23 3.23 0 0 0-1.79 4.28l.26.61a5.83 5.83 0 0 0 7.14 3.28 36.47 36.47 0 0 1 7.83-1.56 6.07 6.07 0 0 0 5.19-5.13c.27-2.4.23-5.12-3.51-4.83Zm-35 46.89a36 36 0 0 1 .85-8.55 5.78 5.78 0 0 0-3.55-6.56l-2.85-1.14a4.44 4.44 0 0 0-5.68 2.3 59.74 59.74 0 0 0-4 12.22c0 1.43 0 2.85.08 4.26a4.28 4.28 0 0 0 4.8 4l5.25-.63a5.82 5.82 0 0 0 5.15-5.9Z" transform="translate(-171.65 -249.6)" style="fill:url(#y)"/><path d="M1510.36 606.86a36.7 36.7 0 0 1 2.61 2.74 4.63 4.63 0 0 1 .16 6c-.63.77-1.29 1.52-2 2.23 0-.28.07-.55.08-.82.23-4-1-8-3.32-9.67-2.84-2.13-6.18.05-7.44 4.86a15.41 15.41 0 0 0-.46 4.27 7.08 7.08 0 0 1 10.34-9.58Z" transform="translate(-171.65 -249.6)" style="fill:url(#j)"/><path d="M1514.41 586.17c.23-3.93-1.05-7.85-3.32-9.53-2.85-2.1-6.18.05-7.44 4.78a15 15 0 0 0-.46 4.36 6.72 6.72 0 0 1-.51-.76 7.09 7.09 0 0 1 2.57-9.68 29.05 29.05 0 0 1 3.41-1.45 5.07 5.07 0 0 1 5.93 1.85 33 33 0 0 1 2.15 3.56 5.14 5.14 0 0 1-1.81 6.72l-.54.34a1.11 1.11 0 0 1 .02-.19Z" transform="translate(-171.65 -249.6)" style="fill:url(#z)"/><path d="M1478.36 612.13a7.08 7.08 0 0 1 3.61 9.33c-.19.41-.48 1-.86 1.8 0-.17.05-.33.06-.5.23-3.73-1.05-7.44-3.33-9-2.84-2-6.17 0-7.43 4.54a13.63 13.63 0 0 0-.45 4.57.22.22 0 0 1 0 .08c0 .28.06.55.1.82l-.8-.47a3.11 3.11 0 0 1-1.45-3.34 28.26 28.26 0 0 1 1.2-4.19 7.08 7.08 0 0 1 9.35-3.64Z" transform="translate(-171.65 -249.6)" style="fill:url(#A)"/><path d="M1453.83 587.48a3.49 3.49 0 0 1 3.41-2.69c1.6 0 2.85 0 3.52.1a7.08 7.08 0 0 1 6.31 7.77 7 7 0 0 1-1.46 3.61c.33-3.78-.95-7.6-3.29-9.22-2.85-2-6.18 0-7.44 4.47a13 13 0 0 0-.44 4.51v.07a12.71 12.71 0 0 0 .32 2 2.16 2.16 0 0 1-1.66-2 32.8 32.8 0 0 1 .73-8.62Z" transform="translate(-171.65 -249.6)" style="fill:url(#B)"/><path d="M1482.9 564.12c-2.84-2-6.18 0-7.44 4.62a14.07 14.07 0 0 0-.44 4.56 7 7 0 0 1-1.32-2.83c-.16-.73-.35-2.05-.53-3.71a3.37 3.37 0 0 1 2.18-3.54 34.43 34.43 0 0 1 7.39-1.75 3.36 3.36 0 0 1 3.51 2.14 32.49 32.49 0 0 1 1.29 3.89 7.07 7.07 0 0 1-1.32 5.79c.23-3.78-1.04-7.55-3.32-9.17Z" transform="translate(-171.65 -249.6)" style="fill:url(#C)"/><path d="M1429.28 603a58.86 58.86 0 0 0 22 37.88l14.48-23a10.29 10.29 0 0 0 1-2.11 13.72 13.72 0 0 1 6.16-7.22c1.48-.86 13.31 4.38 13.66 6a13.71 13.71 0 0 1-1.2 9.42 10.15 10.15 0 0 0-.88 2.18l-7.5 26.21a58.86 58.86 0 0 0 43.18-9.23l-17.41-20.81a10.83 10.83 0 0 0-1.69-1.63 13.67 13.67 0 0 1-5-8.09l-.05-.22c-.32-1.5 8.33-11.08 10-10.9a13.74 13.74 0 0 1 8.58 4 10.08 10.08 0 0 0 1.8 1.51l22.62 15c.63-1.19 1.23-2.4 1.78-3.65a58.36 58.36 0 0 0 2.66-40.13l-25.14 10.18a10.44 10.44 0 0 0-2.06 1.11 13.78 13.78 0 0 1-9.24 2.22c-1.69-.18-8.18-11.38-7.49-12.93a13.74 13.74 0 0 1 6.51-6.91 10.19 10.19 0 0 0 2-1.25l21.4-16.71a58.44 58.44 0 0 0-39.6-17.91l1.15 27.09a9.91 9.91 0 0 0 .42 2.31 13.74 13.74 0 0 1-.75 9.46c-.68 1.55-13.34 4.27-14.6 3.14a13.71 13.71 0 0 1-4.56-8.33 10.35 10.35 0 0 0-.57-2.27l-9.36-25.41a58.35 58.35 0 0 0-27.9 28.91c-.52 1.16-1 2.33-1.41 3.51l26.2 7a10.89 10.89 0 0 0 2.33.32 13.65 13.65 0 0 1 8.76 3.63l.07.06c1.24 1.11-.06 13.91-1.41 14.69l-.19.11a13.71 13.71 0 0 1-9.33 1.77 10.09 10.09 0 0 0-2.34-.16Zm44.18-14a15.39 15.39 0 0 1 20.48-8.1 16.09 16.09 0 0 1 7.9 21 15.39 15.39 0 0 1-20.48 8.1 16.09 16.09 0 0 1-7.9-20.94Z" transform="translate(-171.65 -249.6)" style="fill:url(#p)"/><path d="M1444.68 628.72a55 55 0 0 1-8.14-14.06 4.5 4.5 0 0 1 4-6.14l16.11-.71a4.48 4.48 0 0 1 4 6.87l-8.65 13.64a4.49 4.49 0 0 1-7.32.4Zm-.37-57.28 15.66 4a4.49 4.49 0 0 0 5.31-5.92l-5.67-15.12a4.49 4.49 0 0 0-7-1.9 54.16 54.16 0 0 0-10.88 12.11 4.49 4.49 0 0 0 2.58 6.83Zm75.55 30.56 13.49 8.91a4.49 4.49 0 0 0 6.82-2.64 54.12 54.12 0 0 0 1.65-16.19 4.49 4.49 0 0 0-6.14-3.95l-15 6a4.48 4.48 0 0 0-.82 7.87Zm-11.43 36.63-10.3-12.42a4.48 4.48 0 0 0-7.77 1.67l-4.3 15.56a4.49 4.49 0 0 0 4.62 5.68 55 55 0 0 0 15.87-3.42 4.5 4.5 0 0 0 1.88-7.09Zm-12.38-92 1 16.13a4.48 4.48 0 0 0 7.27 3.22l12.68-10.12a4.5 4.5 0 0 0-.38-7.3 54.68 54.68 0 0 0-14.91-6.6 4.49 4.49 0 0 0-5.66 4.62Z" transform="translate(-171.65 -249.6)" style="fill:#231f20"/><path d="M1482.54 607.1a13.65 13.65 0 1 1 18-7 13.67 13.67 0 0 1-18 7Z" transform="translate(-171.65 -249.6)" style="fill:url(#k)"/><path d="M1488.9 600.68c-6.09 0-11.42-2.62-14.46-6.56a13.64 13.64 0 0 0 27.2 1.86 18.86 18.86 0 0 1-12.74 4.7Z" transform="translate(-171.65 -249.6)" style="fill:url(#l)"/><path d="M1503.35 617.29a5.64 5.64 0 1 1 7.44-2.87 5.65 5.65 0 0 1-7.44 2.87Z" transform="translate(-171.65 -249.6)" style="fill:url(#D)"/><path d="M1506 614.63a7.5 7.5 0 0 1-6-2.71 5.63 5.63 0 0 0 10.78 2.5 5.75 5.75 0 0 0 .45-1.73 7.79 7.79 0 0 1-5.23 1.94Z" transform="translate(-171.65 -249.6)" style="fill:url(#E)"/><path d="M1457.75 597.08a5.63 5.63 0 1 1 7.44-2.87 5.64 5.64 0 0 1-7.44 2.87Z" transform="translate(-171.65 -249.6)" style="fill:url(#F)"/><path d="M1460.38 594.43a7.52 7.52 0 0 1-6-2.71 5.64 5.64 0 0 0 10.79 2.49 5.91 5.91 0 0 0 .45-1.72 7.79 7.79 0 0 1-5.24 1.94Z" transform="translate(-171.65 -249.6)" style="fill:url(#G)"/><path d="M1473.28 623.75a5.64 5.64 0 1 1 7.44-2.87 5.64 5.64 0 0 1-7.44 2.87Z" transform="translate(-171.65 -249.6)" style="fill:url(#H)"/><path d="M1475.91 621.1a7.52 7.52 0 0 1-6-2.71 5.64 5.64 0 0 0 10.79 2.49 5.91 5.91 0 0 0 .45-1.72 7.79 7.79 0 0 1-5.24 1.94Z" transform="translate(-171.65 -249.6)" style="fill:url(#I)"/><path d="M1478.33 574.14a5.64 5.64 0 1 1 7.44-2.87 5.66 5.66 0 0 1-7.44 2.87Z" transform="translate(-171.65 -249.6)" style="fill:url(#J)"/><path d="M1481 571.48a7.52 7.52 0 0 1-6-2.71 5.63 5.63 0 0 0 10.78 2.5 5.47 5.47 0 0 0 .45-1.73 7.77 7.77 0 0 1-5.23 1.94Z" transform="translate(-171.65 -249.6)" style="fill:url(#K)"/><path d="M1506.52 586.62a5.63 5.63 0 1 1 7.44-2.87 5.64 5.64 0 0 1-7.44 2.87Z" transform="translate(-171.65 -249.6)" style="fill:url(#L)"/><path d="M1509.15 584a7.52 7.52 0 0 1-6-2.71 5.64 5.64 0 0 0 10.79 2.49 5.91 5.91 0 0 0 .45-1.72 7.79 7.79 0 0 1-5.24 1.94Z" transform="translate(-171.65 -249.6)" style="fill:url(#M)"/><path d="m1441.19 525.39 3.43-2.19a2.27 2.27 0 0 1 1.69-.4 2 2 0 0 1 1.32 1 3.25 3.25 0 0 1 .28.56 3.21 3.21 0 0 1-.29 2.79l.22.06a.64.64 0 0 1 .17.13l1.43 1.43-2.39 1.52-1.18-1.16a.31.31 0 0 0-.17-.1.3.3 0 0 0-.19 0l-.09.06.67 1.76-2.3 1.47Zm4 1.3a.68.68 0 0 0 .35-.89l-.09-.17a.34.34 0 0 0-.26-.19.62.62 0 0 0-.38.14l-.6.38.42 1.09Zm5.64.82a1.65 1.65 0 0 1-1-1 4 4 0 0 1-.28-.74 4.16 4.16 0 0 1 0-2.5 2.89 2.89 0 0 1 1.5-1.64 2 2 0 0 1 .67-.22 1.14 1.14 0 0 1 .56 0l-.08-.28 2.39-1.21 1.41 5.26-2.11 1.07-.21-.28a3.07 3.07 0 0 1-.56.66 3.76 3.76 0 0 1-.77.53 2.17 2.17 0 0 1-1.48.35Zm2.16-3-.35-1.31a.44.44 0 0 0-.22 0 .55.55 0 0 0-.23.07c-.33.16-.4.57-.22 1.21a2.39 2.39 0 0 0 .1.29.38.38 0 0 0 .24.22.57.57 0 0 0 .31-.07.76.76 0 0 0 .38-.39Zm5.1-.65a1.84 1.84 0 0 1-1-1.15 4.37 4.37 0 0 1-.21-.83 3.68 3.68 0 0 1 .26-2.37 3.22 3.22 0 0 1 1.74-1.37 3.39 3.39 0 0 1 .59-.16 2.21 2.21 0 0 1 .54 0l-.38-2.36 2.54-1 1.22 7.66-2.21.84-.18-.3a3 3 0 0 1-1.32 1 2.13 2.13 0 0 1-1.55.06Zm2.4-2.66-.22-1.34a.59.59 0 0 0-.22 0 .57.57 0 0 0-.24 0c-.33.13-.45.48-.36 1.07a1.56 1.56 0 0 0 .1.37.38.38 0 0 0 .21.27.44.44 0 0 0 .31 0 .9.9 0 0 0 .46-.35Zm4.49-7.46 2.8-.81.14 1.92-2.8.81Zm.5 4.31-.72.21.08-2.06 3.11-.9.4 5.43-2.62.76Zm5.18 1.7a1.63 1.63 0 0 1-.75-1.2 5 5 0 0 1-.07-.79 4.2 4.2 0 0 1 .67-2.4 3 3 0 0 1 1.89-1.18 2.16 2.16 0 0 1 .71 0 1.33 1.33 0 0 1 .53.19v-.29l2.62-.52-.06 5.45-2.32.46-.12-.33a2.94 2.94 0 0 1-.72.49 3.46 3.46 0 0 1-.89.3 2.13 2.13 0 0 1-1.45-.16Zm2.88-2.28v-1.36a.5.5 0 0 0-.2-.09.72.72 0 0 0-.25 0c-.35.07-.53.44-.54 1.1a1.35 1.35 0 0 0 0 .31c0 .14.08.24.16.27a.48.48 0 0 0 .32 0 .82.82 0 0 0 .55-.21Zm5.11 1a1.15 1.15 0 0 1-.55-1 2.4 2.4 0 0 1 0-.6l.58-5.86 2.7-.3-.54 5.49a1 1 0 0 0 0 .18.22.22 0 0 0 .09.17.34.34 0 0 0 .26 0 1.51 1.51 0 0 0 .57-.16l-.17 1.72a6.25 6.25 0 0 1-.72.3 3.91 3.91 0 0 1-.85.16 2.18 2.18 0 0 1-1.33-.13Zm16.07-5.5-1.84-.15.58-1.92 6.39.52-.58 1.92-1.84-.15-1.54 5.17-2.71-.22Zm9.5-1 2.75.47-5.4 6.63-2.75-.47Zm7.33 1.88 2.72.76-.74 7.32-2.6-.73.14-1.37-1.69-.47-1.14 1.08-2.8-.79Zm.05 4.2.13-1.4-1.19 1.11Zm44.22 123.27.37-.52 1.35 1.49-.37.51.12.12a3 3 0 0 1 .86 1.7 2.82 2.82 0 0 1-.63 1.86 3.78 3.78 0 0 1-1.17 1.11l-1.17-1.27a1.86 1.86 0 0 0 .47-.46.64.64 0 0 0 .15-.42.49.49 0 0 0-.15-.35l-.07-.08-.67.94-1.28-1.57.61-.85L1552 641l1.59-2.21Zm-5.1 2a1.79 1.79 0 0 1 1.66.43 3 3 0 0 1 .49.52 3.36 3.36 0 0 1 .79 2.3 4.53 4.53 0 0 1-1.2 2.5 3.63 3.63 0 0 1-1.76 1.28 1.78 1.78 0 0 1-1.66-.43 3.7 3.7 0 0 1-1.29-2.82 4.59 4.59 0 0 1 1.22-2.51 3.54 3.54 0 0 1 1.79-1.28Zm-.7 3.33a1.33 1.33 0 0 0 .32.63 1.79 1.79 0 0 0 .26.28.46.46 0 0 0 .34.14.48.48 0 0 0 .29-.2.63.63 0 0 0 .17-.48 1.43 1.43 0 0 0-.32-.63 2.56 2.56 0 0 0-.27-.29.45.45 0 0 0-.33-.13.45.45 0 0 0-.29.19.63.63 0 0 0-.13.48Zm-1.23 6.31-1.89 1.88-.21-.22a4.31 4.31 0 0 1-.4.81 4 4 0 0 1-.62.79l-1.11-1.71c.21-.21.42-.46.65-.74a4 4 0 0 0 .48-.71l-1.79-2.75 1.93-1.92Zm-7.31 9.2-2 1.48-2.48-1.94.06 3.65-2.15 1.56-3-6.77 2.21-1.6 1 2.38v-1.6l1.12-.81 1.06.85-1-2.36 2.21-1.59Zm-11.49-.49a1.44 1.44 0 0 1 .92.76 2.56 2.56 0 0 1 .22.53l1 3.3-2.37 1.33-.94-3-.05-.12c-.08-.13-.21-.15-.39-.05a.65.65 0 0 0-.21.2 1 1 0 0 0-.15.26l1 3.14-2.38 1.33-1.63-5.2 2.22-1.25.15.27a3.19 3.19 0 0 1 .58-.68 4.43 4.43 0 0 1 .81-.59 1.74 1.74 0 0 1 1.23-.24Zm-7.3 3.64a3.76 3.76 0 0 1 1-.15l.37 1.72a3.24 3.24 0 0 0-.95.06 4.61 4.61 0 0 0-.92.28 4 4 0 0 0-.42.21.15.15 0 0 0-.1.16s.06.06.15.06a2.61 2.61 0 0 0 .41 0l.63-.08a2.44 2.44 0 0 1 1 .12 1 1 0 0 1 .52.53 2.91 2.91 0 0 1 .12.39 1.89 1.89 0 0 1-.35 1.59 4.79 4.79 0 0 1-1.91 1.32 8.35 8.35 0 0 1-1.11.41 4.81 4.81 0 0 1-1 .22l-.37-1.71a4.18 4.18 0 0 0 .76-.08 3.33 3.33 0 0 0 .69-.21 5.29 5.29 0 0 0 .53-.26c.12-.07.17-.14.16-.21s-.06 0-.14 0a3.21 3.21 0 0 0-.42 0l-.53.09a2.34 2.34 0 0 1-1-.06.91.91 0 0 1-.54-.53 2.35 2.35 0 0 1-.13-.42c-.25-1.19.49-2.17 2.23-2.94a8.39 8.39 0 0 1 1.36-.52Zm-5.91 3a1.78 1.78 0 0 1 1.25 1.23 3.15 3.15 0 0 1 .15.65 3.27 3.27 0 0 1-.54 2.41 4.47 4.47 0 0 1-2.23 1.5 6.59 6.59 0 0 1-1.13.3 3.59 3.59 0 0 1-1 0l-.24-1.92a3 3 0 0 0 1.51-.17 1.81 1.81 0 0 0 .81-.48.88.88 0 0 0 .17-.74 1.05 1.05 0 0 0-.06-.29.44.44 0 0 0-.36-.32 1.81 1.81 0 0 0-.78.15 3.8 3.8 0 0 0-1.43 1l-.25-2a4.67 4.67 0 0 1 .89-.64 9 9 0 0 1 1.11-.48 3.5 3.5 0 0 1 2.17-.21Zm-6.29 1.85a1.18 1.18 0 0 1 .68.86 2.79 2.79 0 0 1 .09.6l.29 5.88-2.63.7-.27-5.52a.89.89 0 0 0 0-.17.24.24 0 0 0-.11-.16.47.47 0 0 0-.26 0 1.48 1.48 0 0 0-.54.24l-.09-1.72a5.28 5.28 0 0 1 .67-.41 4.39 4.39 0 0 1 .81-.28 2.28 2.28 0 0 1 1.4-.03Zm-5.36 1.26a2.22 2.22 0 0 1 1.14.55 1.93 1.93 0 0 1 .58 1.09 3.48 3.48 0 0 1 0 .57 3.66 3.66 0 0 1-.74 2.26 3.73 3.73 0 0 1-2.31 1.16 3 3 0 0 1-1.35 0 2 2 0 0 1-1-.56 1.94 1.94 0 0 1-.5-1 3.55 3.55 0 0 1 0-.52v-.93l3.5-.65a.83.83 0 0 0-.52-.25 3.51 3.51 0 0 0-1 .07 7 7 0 0 0-.94.26 4.25 4.25 0 0 0-.76.34v-1.5a6.26 6.26 0 0 1 2.42-.86 3.68 3.68 0 0 1 1.52-.04Zm-1.92 3.56v.11a.46.46 0 0 0 0 .1q.06.33.57.24a.68.68 0 0 0 .63-.67Zm-9.49-1.56a2.45 2.45 0 0 1 1 2.06 5.24 5.24 0 0 1-.07.93 4.38 4.38 0 0 1-1.64 2.83 5.74 5.74 0 0 1-3.36 1 7.14 7.14 0 0 1-1.18-.06 5.06 5.06 0 0 1-1-.27l.44-2.38a4.71 4.71 0 0 0 1 .33 4.93 4.93 0 0 0 1 .08 2.47 2.47 0 0 0 1.35-.36 1.67 1.67 0 0 0 .62-1.14 1.91 1.91 0 0 0 0-.49.8.8 0 0 0-.38-.73 2.36 2.36 0 0 0-1.13-.18 4.85 4.85 0 0 0-1.08.15 5.69 5.69 0 0 0-1.11.39l.44-2.39a9 9 0 0 1 1.14-.33 7.36 7.36 0 0 1 1.22-.13 4.39 4.39 0 0 1 2.78.68Zm-6.7-.15a1.65 1.65 0 0 1 .42 1.35 4.05 4.05 0 0 1-.14.78 4.27 4.27 0 0 1-1.27 2.15 2.9 2.9 0 0 1-2.13.65 2.06 2.06 0 0 1-.69-.16 1.24 1.24 0 0 1-.46-.31l-.08.27-2.67-.17 1.48-5.25 2.35.16v.35a3.17 3.17 0 0 1 .82-.29 3.63 3.63 0 0 1 .94-.06 2.1 2.1 0 0 1 1.47.52Zm-3.38 1.46-.36 1.31a.55.55 0 0 0 .17.14.6.6 0 0 0 .24.05c.36 0 .63-.28.81-.92a1.33 1.33 0 0 0 0-.3.41.41 0 0 0-.08-.32.52.52 0 0 0-.31-.09.8.8 0 0 0-.43.12Zm-5.83 2.76-2.63-.4v-.3a4.92 4.92 0 0 1-.89.16 4.16 4.16 0 0 1-1 0l.72-1.92a7 7 0 0 0 1 .09 5.43 5.43 0 0 0 .86 0l1.16-3.08 2.69.42Zm-4.19-6.09a3.28 3.28 0 0 1 .9.49l-.74 1.59a3.35 3.35 0 0 0-.8-.52 4.6 4.6 0 0 0-.9-.33l-.46-.09c-.09 0-.15 0-.18.07s0 .09.08.15a2.45 2.45 0 0 0 .36.2c.28.16.47.27.55.33a2.26 2.26 0 0 1 .7.67 1 1 0 0 1 .09.73 1.63 1.63 0 0 1-.13.39 1.94 1.94 0 0 1-1.23 1.06 5 5 0 0 1-2.33-.09 10.77 10.77 0 0 1-1.13-.34 4.52 4.52 0 0 1-.89-.41l.73-1.58a4.47 4.47 0 0 0 .65.39 3.6 3.6 0 0 0 .68.25c.25.06.44.09.58.11s.22 0 .25-.07 0-.08-.08-.13a2.45 2.45 0 0 0-.36-.2 5.15 5.15 0 0 1-.48-.25 2.35 2.35 0 0 1-.78-.67.93.93 0 0 1-.12-.75 2.32 2.32 0 0 1 .15-.41c.52-1.1 1.7-1.44 3.55-1a8.42 8.42 0 0 1 1.38.4Zm-10.93-2.57a1.77 1.77 0 0 1 .12 1.71 3.43 3.43 0 0 1-.34.62 3.3 3.3 0 0 1-1.94 1.48 4.54 4.54 0 0 1-2.74-.34 3.61 3.61 0 0 1-1.78-1.27 1.75 1.75 0 0 1-.11-1.71 3.18 3.18 0 0 1 .33-.63 3.33 3.33 0 0 1 1.94-1.48 4.57 4.57 0 0 1 2.76.36 3.52 3.52 0 0 1 1.8 1.25Zm-3.38.39a1.41 1.41 0 0 0-.5.49 2.3 2.3 0 0 0-.18.34.44.44 0 0 0 0 .37.48.48 0 0 0 .27.22.65.65 0 0 0 .51 0 1.38 1.38 0 0 0 .5-.5 2.45 2.45 0 0 0 .19-.35.38.38 0 0 0-.25-.57.67.67 0 0 0-.5-.01Zm-6.42.83-2.27-1.17.14-.27a4.39 4.39 0 0 1-.91-.15 4.87 4.87 0 0 1-1-.39 1.59 1.59 0 0 1-.81-.81 1.27 1.27 0 0 1 .13-1.07 3 3 0 0 1 .38-.55l2.22-2.71 2.42 1.26-2 2.43a.35.35 0 0 0-.06.09c-.08.15 0 .27.16.36a.66.66 0 0 0 .28.08 1 1 0 0 0 .31 0l2.08-2.54 2.42 1.26Zm-4.36-8.19a1.16 1.16 0 0 1-.16 1.09 2.57 2.57 0 0 1-.38.46l-4.11 4.21-2.3-1.46 3.86-3.94.11-.13a.25.25 0 0 0 0-.2.44.44 0 0 0-.18-.19 1.63 1.63 0 0 0-.55-.22l1.21-1.24a4.94 4.94 0 0 1 .75.21 4.58 4.58 0 0 1 .77.41 2.22 2.22 0 0 1 1.02.99Zm-3-4.48a5 5 0 0 1 .55.52l-1.37 1.18a3.45 3.45 0 0 0-.39-.42 4 4 0 0 0-.46-.41 5.06 5.06 0 0 0-1.22-.72c-.33-.12-.56-.13-.68 0l-.14.12a3.41 3.41 0 0 1 .85.26 4 4 0 0 1 .86.51 1.57 1.57 0 0 1 .68 1 1.49 1.49 0 0 1-.33 1.14 3.11 3.11 0 0 1-.38.41l-2.47 2.14-2.17-1.64 2.24-1.94a.29.29 0 0 0 .07-.08q.16-.21-.09-.39a.85.85 0 0 0-.27-.12.81.81 0 0 0-.3 0l-2.34 2-2.17-1.64 3.44-3a3.27 3.27 0 0 1 2.37-.88 5.9 5.9 0 0 1 3.06 1.4q.31.18.73.55Z" transform="translate(-171.65 -249.6)" style="fill:url(#q)"/><path d="M436 594.69a102.22 102.22 0 0 0 102.23 102.22h6.36a102.22 102.22 0 0 0 0-204.44h-6.36A102.23 102.23 0 0 0 436 594.69Z" transform="translate(-171.65 -249.6)" style="fill:#231f20"/><path d="M538.53 534.22c-35.5 0-64.37 29.84-64.37 66.52a68.76 68.76 0 0 0 1.88 16 66.5 66.5 0 0 0 123.71 4.61 68.4 68.4 0 0 0 3.16-20.57c0-36.72-28.91-66.56-64.38-66.56Zm38.33 106.67-1.43-2.18a6.32 6.32 0 0 0-8.79-1.78 50.8 50.8 0 0 1-11.94 5.81 6 6 0 0 0-4.12 6.8l.51 2.82-43.18-9.23.73-.94a5.42 5.42 0 0 0-1-7.64 50.63 50.63 0 0 1-11-11.84 4.66 4.66 0 0 0-5.9-1.56L489 622l5-3.88a50.25 50.25 0 0 1-5.79-23.46 51.12 51.12 0 0 1 .6-7.77l-4.24-8.67 1.82.47a4.57 4.57 0 0 0 5.39-2.7 50.65 50.65 0 0 1 8.72-14.33 4.59 4.59 0 0 0-.46-6.47l-1.46-1.19 12.93-1.86a50.26 50.26 0 0 1 21.09-7.62l5.57-8.43.3 2.61a6.55 6.55 0 0 0 5.85 5.73 49.91 49.91 0 0 1 12.82 3.13 6.63 6.63 0 0 0 8.55-3.56l.85-2 29.31 32.42-4.09 1.58a6.09 6.09 0 0 0-3.71 7 50.25 50.25 0 0 1 1.36 11.64v1.81a5.89 5.89 0 0 0 5.22 6l4.23.51Z" transform="translate(-171.65 -249.6)" style="fill:url(#N)"/><path d="M544 694.85h1.87c57.36 0 100.47-44.86 100.47-100.19S600.64 493.3 543.28 493.3h-1.87c54.5 1 101 46.64 101 101.36A100.17 100.17 0 0 1 544 694.85Z" transform="translate(-171.65 -249.6)" style="fill:url(#O)"/><path d="M449.31 594.16c0 47.9 39.38 86.73 88 86.73s88-38.83 88-86.73-39.38-86.72-88-86.72-88 38.82-88 86.72Zm14.61-.18a75.68 75.68 0 1 1 75.67 75.39A75.54 75.54 0 0 1 463.92 594Z" transform="translate(-171.65 -249.6)" style="fill:url(#P)"/><path d="M437.49 594.62c0 54.62 45.1 98.89 100.74 98.89S639 649.24 639 594.62s-45.1-98.89-100.74-98.89S437.49 540 437.49 594.62Zm9.69 0c0-49.36 40.76-89.38 91.05-89.38s91 40 91 89.38-40.71 89.38-91 89.38-91.05-40-91.05-89.38Z" transform="translate(-171.65 -249.6)" style="fill:url(#Q)"/><path d="M471.32 594.69a67.48 67.48 0 1 1 67.48 67.49 67.55 67.55 0 0 1-67.48-67.49Zm3.37 0a64.11 64.11 0 1 0 64.11-64.11 64.18 64.18 0 0 0-64.11 64.11Z" transform="translate(-171.65 -249.6)" style="fill:url(#R)"/><path d="m510.34 564.19.74.65a6.89 6.89 0 0 1 1.21 9.1 36.32 36.32 0 0 0-2.8 4.83 7 7 0 0 1-8 3.82l-5-1.29a4.6 4.6 0 0 1-2.74-6.9 57.88 57.88 0 0 1 7.83-9.88 6.47 6.47 0 0 1 8.76-.33Zm2.45 51.81a6.11 6.11 0 0 0-7.63-1.87l-5.66 2.76a5.58 5.58 0 0 0-2.11 8.22 52.4 52.4 0 0 0 9.66 10.42 5.3 5.3 0 0 0 7.51-.86l3.82-4.85a6.18 6.18 0 0 0-.75-8.4 35.29 35.29 0 0 1-4.84-5.42Zm47.07 10.45c-.93.51-1.9 1-2.89 1.43a37 37 0 0 1-3.9 1.47 6.92 6.92 0 0 0-4.71 7.86l.73 4a5.43 5.43 0 0 0 6.91 4.24 54.88 54.88 0 0 0 6.33-2.33 53.93 53.93 0 0 0 6-3.13 6.44 6.44 0 0 0 2-9l-1.43-2.18a6.91 6.91 0 0 0-9.04-2.34Zm-19.71-73.23a6.06 6.06 0 0 0 5.19 5.13 36.59 36.59 0 0 1 7.83 1.56 5.83 5.83 0 0 0 7.14-3.28l.26-.61a3.23 3.23 0 0 0-1.79-4.28 54.12 54.12 0 0 0-15.12-3.35c-3.74-.27-3.78 2.45-3.51 4.85Zm43.58 48 5.25.63a4.29 4.29 0 0 0 4.8-4c.08-1.41.11-2.83.08-4.26a59.16 59.16 0 0 0-4-12.22 4.42 4.42 0 0 0-5.67-2.3l-2.85 1.14a5.78 5.78 0 0 0-3.55 6.56 36 36 0 0 1 .85 8.55 5.82 5.82 0 0 0 5.09 5.87Z" transform="translate(-171.65 -249.6)" style="fill:url(#S)"/><path d="M517.75 606.86c-.55.5-1.48 1.47-2.6 2.74a4.62 4.62 0 0 0-.16 6c.63.77 1.29 1.52 2 2.23 0-.28-.07-.55-.08-.82-.24-4 1-8 3.32-9.67 2.84-2.13 6.18.05 7.44 4.86a15.41 15.41 0 0 1 .46 4.27 7.08 7.08 0 0 0-10.35-9.58Z" transform="translate(-171.65 -249.6)" style="fill:url(#T)"/><path d="M513.71 586.17c-.23-3.93 1-7.85 3.32-9.53 2.85-2.1 6.18.05 7.44 4.78a15 15 0 0 1 .46 4.36 6.72 6.72 0 0 0 .51-.76 7.1 7.1 0 0 0-2.57-9.68 29.05 29.05 0 0 0-3.41-1.45 5.07 5.07 0 0 0-5.93 1.85 33 33 0 0 0-2.15 3.56 5.14 5.14 0 0 0 1.81 6.72l.54.34a1.11 1.11 0 0 0-.02-.19Z" transform="translate(-171.65 -249.6)" style="fill:url(#U)"/><path d="M549.76 612.13a7.08 7.08 0 0 0-3.61 9.33c.18.41.48 1 .86 1.8 0-.17 0-.33-.06-.5-.23-3.73 1-7.44 3.32-9 2.85-2 6.18 0 7.44 4.54a13.37 13.37 0 0 1 .44 4.57v.08c0 .28-.06.55-.1.82l.8-.47a3.09 3.09 0 0 0 1.44-3.34 28.57 28.57 0 0 0-1.19-4.19 7.08 7.08 0 0 0-9.34-3.64Z" transform="translate(-171.65 -249.6)" style="fill:url(#V)"/><path d="M574.29 587.48a3.5 3.5 0 0 0-3.41-2.69c-1.61 0-2.85 0-3.52.1a7.08 7.08 0 0 0-6.31 7.77 7 7 0 0 0 1.46 3.61c-.33-3.78 1-7.6 3.29-9.22 2.84-2 6.18 0 7.44 4.47a13 13 0 0 1 .44 4.51v.07a14 14 0 0 1-.32 2 2.16 2.16 0 0 0 1.66-2 33.23 33.23 0 0 0-.73-8.62Z" transform="translate(-171.65 -249.6)" style="fill:url(#W)"/><path d="M545.22 564.12c2.84-2 6.18 0 7.43 4.62a14.08 14.08 0 0 1 .45 4.56 7 7 0 0 0 1.32-2.83c.16-.73.34-2.05.52-3.71a3.36 3.36 0 0 0-2.17-3.54 34.43 34.43 0 0 0-7.39-1.75 3.36 3.36 0 0 0-3.51 2.14 32.49 32.49 0 0 0-1.29 3.89 7 7 0 0 0 1.32 5.79c-.23-3.78 1.04-7.55 3.32-9.17Z" transform="translate(-171.65 -249.6)" style="fill:url(#X)"/><path d="M571.76 601.75a10.09 10.09 0 0 0-2.34.16 13.7 13.7 0 0 1-9.33-1.77l-.2-.11c-1.34-.78-2.64-13.58-1.41-14.69l.08-.06a13.65 13.65 0 0 1 8.76-3.63 10.89 10.89 0 0 0 2.33-.32l26.2-7c-.43-1.18-.89-2.35-1.41-3.51a58.35 58.35 0 0 0-27.9-28.82l-9.38 25.44a10.35 10.35 0 0 0-.57 2.27A13.76 13.76 0 0 1 552 578c-1.26 1.13-13.92-1.59-14.6-3.14a13.74 13.74 0 0 1-.75-9.46 11.08 11.08 0 0 0 .42-2.31l1.08-27.05A58.44 58.44 0 0 0 498.58 554L520 570.67a10.19 10.19 0 0 0 2 1.25 13.74 13.74 0 0 1 6.51 6.91c.69 1.55-5.8 12.75-7.49 12.93a13.77 13.77 0 0 1-9.23-2.22 10.44 10.44 0 0 0-2.06-1.11l-25.14-10.18a58.41 58.41 0 0 0 2.65 40.13c.56 1.25 1.16 2.46 1.79 3.65l22.62-15a10.45 10.45 0 0 0 1.8-1.51 13.74 13.74 0 0 1 8.58-4c1.69-.18 10.34 9.4 10 10.9v.22a13.72 13.72 0 0 1-5 8.09 10 10 0 0 0-1.69 1.63l-17.41 20.81a58.86 58.86 0 0 0 43.18 9.23l-7.48-26.11a10.69 10.69 0 0 0-.88-2.18 13.77 13.77 0 0 1-1.21-9.42c.36-1.67 12.19-6.91 13.67-6a13.72 13.72 0 0 1 6.16 7.22 10.29 10.29 0 0 0 1 2.11l14.48 23a58.85 58.85 0 0 0 22-37.88Zm-25 8.31a15.38 15.38 0 0 1-20.48-8.1 16.09 16.09 0 0 1 7.9-21 15.39 15.39 0 0 1 20.48 8.1 16.1 16.1 0 0 1-7.9 21Z" transform="translate(-171.65 -249.6)" style="fill:url(#Y)"/><path d="m576.14 628.32-8.64-13.64a4.48 4.48 0 0 1 4-6.87l16.11.71a4.5 4.5 0 0 1 4 6.14 55 55 0 0 1-8.14 14.06 4.49 4.49 0 0 1-7.33-.4Zm10.3-63.7a54 54 0 0 0-10.89-12.11 4.49 4.49 0 0 0-7 1.9l-5.66 15.12a4.49 4.49 0 0 0 5.31 5.92l15.66-4a4.49 4.49 0 0 0 2.58-6.83Zm-79 29.45-15-6a4.49 4.49 0 0 0-6.14 3.95 54.12 54.12 0 0 0 1.7 16.23 4.49 4.49 0 0 0 6.82 2.64l13.44-8.89a4.49 4.49 0 0 0-.81-7.93Zm14.11 51.61a55.1 55.1 0 0 0 15.88 3.42 4.5 4.5 0 0 0 4.62-5.68l-4.3-15.56a4.48 4.48 0 0 0-7.77-1.67l-10.3 12.42a4.5 4.5 0 0 0 1.88 7.07ZM526.4 542a54.79 54.79 0 0 0-14.9 6.6 4.5 4.5 0 0 0-.38 7.3l12.64 10.07a4.48 4.48 0 0 0 7.27-3.22l1-16.13a4.49 4.49 0 0 0-5.63-4.62Z" transform="translate(-171.65 -249.6)" style="fill:#231f20"/><path d="M527.57 600.15a13.65 13.65 0 1 1 18 7 13.67 13.67 0 0 1-18-7Z" transform="translate(-171.65 -249.6)" style="fill:url(#Z)"/><path d="M539.22 600.68c6.08 0 11.42-2.62 14.46-6.56a13.64 13.64 0 0 1-27.2 1.86 18.86 18.86 0 0 0 12.74 4.7Z" transform="translate(-171.65 -249.6)" style="fill:url(#aa)"/><path d="M517.33 614.42a5.64 5.64 0 1 1 7.44 2.87 5.64 5.64 0 0 1-7.44-2.87Z" transform="translate(-171.65 -249.6)" style="fill:url(#ab)"/><path d="M522.14 614.63a7.52 7.52 0 0 0 6-2.71 5.63 5.63 0 0 1-10.78 2.5 5.75 5.75 0 0 1-.45-1.73 7.77 7.77 0 0 0 5.23 1.94Z" transform="translate(-171.65 -249.6)" style="fill:url(#ac)"/><path d="M562.93 594.21a5.64 5.64 0 1 1 7.44 2.87 5.63 5.63 0 0 1-7.44-2.87Z" transform="translate(-171.65 -249.6)" style="fill:url(#ad)"/><path d="M567.74 594.43a7.5 7.5 0 0 0 6-2.71 5.63 5.63 0 0 1-11.23.77 7.79 7.79 0 0 0 5.23 1.94Z" transform="translate(-171.65 -249.6)" style="fill:url(#ae)"/><path d="M547.4 620.88a5.64 5.64 0 1 1 7.44 2.87 5.65 5.65 0 0 1-7.44-2.87Z" transform="translate(-171.65 -249.6)" style="fill:url(#af)"/><path d="M552.21 621.1a7.52 7.52 0 0 0 6-2.71 5.64 5.64 0 0 1-11.24.77 7.79 7.79 0 0 0 5.24 1.94Z" transform="translate(-171.65 -249.6)" style="fill:url(#ag)"/><path d="M542.35 571.27a5.63 5.63 0 1 1 7.43 2.87 5.64 5.64 0 0 1-7.43-2.87Z" transform="translate(-171.65 -249.6)" style="fill:url(#ah)"/><path d="M547.16 571.48a7.52 7.52 0 0 0 6-2.71 5.63 5.63 0 0 1-10.78 2.5 5.47 5.47 0 0 1-.45-1.73 7.77 7.77 0 0 0 5.23 1.94Z" transform="translate(-171.65 -249.6)" style="fill:url(#ai)"/><path d="M514.16 583.75a5.64 5.64 0 1 1 7.44 2.87 5.63 5.63 0 0 1-7.44-2.87Z" transform="translate(-171.65 -249.6)" style="fill:url(#aj)"/><path d="M519 584a7.49 7.49 0 0 0 6-2.71 5.63 5.63 0 0 1-11.23.77A7.79 7.79 0 0 0 519 584Z" transform="translate(-171.65 -249.6)" style="fill:url(#ak)"/><path d="m478.31 655.19-2.76-3a2.31 2.31 0 0 1-.68-1.6 2 2 0 0 1 .7-1.46 3.34 3.34 0 0 1 .51-.37 3.18 3.18 0 0 1 2.79-.2 1.3 1.3 0 0 1 0-.23.58.58 0 0 1 .1-.19l1.15-1.66 1.92 2.09-.93 1.36a.32.32 0 0 0-.07.18.24.24 0 0 0 .08.18l.08.08 1.61-1 1.85 2Zm.58-4.21a.69.69 0 0 0-.94-.19l-.16.12a.37.37 0 0 0-.13.29.61.61 0 0 0 .2.35l.48.53 1-.61Zm-.19-5.7a1.64 1.64 0 0 1-.75 1.2 4.68 4.68 0 0 1-3.14.84 2.91 2.91 0 0 1-1.88-1.19 2.08 2.08 0 0 1-.33-.62 1.11 1.11 0 0 1-.06-.56l-.26.13-1.61-2.14 4.93-2.31 1.42 1.89-.24.25a3.46 3.46 0 0 1 1.41 1.11 2.11 2.11 0 0 1 .51 1.4Zm-3.31-1.6-1.23.57a.59.59 0 0 0 0 .23 1.08 1.08 0 0 0 .11.21c.22.29.63.29 1.23 0l.27-.16a.35.35 0 0 0 .17-.27.5.5 0 0 0-.12-.29.8.8 0 0 0-.43-.29Zm-1.53-4.91a1.84 1.84 0 0 1-.95 1.21 3.89 3.89 0 0 1-.79.36 3.65 3.65 0 0 1-2.38.16 3.19 3.19 0 0 1-1.64-1.5 2.81 2.81 0 0 1-.27-.55 2.2 2.2 0 0 1-.14-.51l-2.26.78-1.43-2.31 7.33-2.54 1.22 2-.27.23a3 3 0 0 1 1.22 1.13 2.14 2.14 0 0 1 .36 1.54Zm-3-1.89-1.28.44a.61.61 0 0 0 0 .23.68.68 0 0 0 .09.23c.18.31.55.36 1.11.17a1.87 1.87 0 0 0 .35-.16.43.43 0 0 0 .23-.26.46.46 0 0 0-.08-.3.89.89 0 0 0-.46-.35Zm-8.13-3.12-1.29-2.61 1.86-.48 1.29 2.61Zm4.15-1.24.33.66-2 .29-1.43-2.9 5.28-1.35 1.2 2.44Zm.77-5.4a1.65 1.65 0 0 1-1.05 1 5.07 5.07 0 0 1-.76.2 4.21 4.21 0 0 1-2.49-.24 2.93 2.93 0 0 1-1.49-1.65 2.32 2.32 0 0 1-.15-.69 1.18 1.18 0 0 1 .09-.55h-.28l-1-2.49 5.37-.89.86 2.2-.3.18a3.46 3.46 0 0 1 1.06 1.45 2.19 2.19 0 0 1 .1 1.48Zm-2.76-2.44-1.33.22a.49.49 0 0 0-.06.22.79.79 0 0 0 .05.24c.13.33.53.44 1.19.33a1.48 1.48 0 0 0 .29-.08q.21-.08.24-.21a.5.5 0 0 0 0-.31.83.83 0 0 0-.42-.41Zm0-5.19a1.2 1.2 0 0 1-.84.71 3.29 3.29 0 0 1-.59.1l-5.87.46-.77-2.62 5.5-.42h.17a.23.23 0 0 0 .16-.12.47.47 0 0 0 0-.26 1.56 1.56 0 0 0-.27-.53l1.72-.14a5.6 5.6 0 0 1 .43.66 4.06 4.06 0 0 1 .31.8 2.24 2.24 0 0 1 .06 1.36Zm-8.24-14.86.18 1.83-2-.22-.61-6.39 2 .23.17 1.84 5.37.61.26 2.71Zm-2.65-9.19v-2.79l7.48 4.16v2.79Zm.57-7.54.27-2.81 7.33-.55-.26 2.69-1.37.1-.17 1.74 1.27.93-.29 2.9Zm4.13-.79-1.4.13 1.29 1ZM572.33 522l-.57-.27 1.22-1.58.57.27.1-.14a2.93 2.93 0 0 1 1.52-1.14 2.78 2.78 0 0 1 2 .29 3.6 3.6 0 0 1 1.29 1l-1 1.37a1.94 1.94 0 0 0-.54-.38.65.65 0 0 0-.43-.08.59.59 0 0 0-.33.21l-.07.08 1 .5-1.32 1.54-1-.45-2.09 2.74-2.46-1.18Zm2.86 4.68a1.79 1.79 0 0 1 .14-1.71 3.15 3.15 0 0 1 .42-.58 3.33 3.33 0 0 1 2.13-1.17 4.48 4.48 0 0 1 2.67.73 3.64 3.64 0 0 1 1.57 1.51 1.76 1.76 0 0 1-.13 1.71 3.88 3.88 0 0 1-.42.58 3.3 3.3 0 0 1-2.13 1.18 4.59 4.59 0 0 1-2.69-.75 3.65 3.65 0 0 1-1.56-1.54Zm3.41.1a1.42 1.42 0 0 0 .56-.42 1.9 1.9 0 0 0 .23-.31.38.38 0 0 0-.16-.61.63.63 0 0 0-.51-.08 1.42 1.42 0 0 0-.56.42 2 2 0 0 0-.24.32.44.44 0 0 0-.07.35.45.45 0 0 0 .23.25.66.66 0 0 0 .52.04Zm6.42.1 2.19 1.54-.18.24a5.37 5.37 0 0 1 .87.25 4.35 4.35 0 0 1 .88.47l-1.49 1.4a7.74 7.74 0 0 0-.84-.51 4.79 4.79 0 0 0-.78-.35l-2.4 2.25-2.27-1.61Zm10.34 5.59 1.82 1.75-1.47 2.74 3.58-.7 1.91 1.85-6.13 4.14-2-1.89 2.15-1.45-1.57.3-1-1 .64-1.19-2.15 1.45-2-1.89Zm1.54 11.39a1.41 1.41 0 0 1 .58-1 2.16 2.16 0 0 1 .49-.31l3.06-1.59 1.73 2.1-2.76 1.38-.1.07c-.13.1-.12.23 0 .39a.92.92 0 0 0 .23.18.9.9 0 0 0 .28.09l2.92-1.52 1.73 2.11-4.83 2.52-1.62-2 .23-.2a2.8 2.8 0 0 1-.76-.45 4.32 4.32 0 0 1-.72-.7 1.63 1.63 0 0 1-.46-1.11Zm4.86 6.56a3.55 3.55 0 0 1-.33-1l1.63-.67a3.16 3.16 0 0 0 .23.92 4.89 4.89 0 0 0 .43.86 3.39 3.39 0 0 0 .28.38.16.16 0 0 0 .18.07s.05-.07 0-.16a3.68 3.68 0 0 0-.12-.39c-.1-.32-.16-.52-.18-.61a2.42 2.42 0 0 1-.06-1 1 1 0 0 1 .43-.61 2.09 2.09 0 0 1 .36-.19 1.9 1.9 0 0 1 1.63.07 4.72 4.72 0 0 1 1.64 1.65 11.49 11.49 0 0 1 .6 1 5.41 5.41 0 0 1 .38.9l-1.62.66a3.69 3.69 0 0 0-.21-.73 3.27 3.27 0 0 0-.33-.65 4.37 4.37 0 0 0-.35-.47c-.09-.11-.17-.15-.23-.12s0 .06 0 .14a2.9 2.9 0 0 0 .13.4l.18.52a2.33 2.33 0 0 1 .12 1 1 1 0 0 1-.43.63 2.37 2.37 0 0 1-.39.19c-1.13.46-2.22-.1-3.29-1.67a10.12 10.12 0 0 1-.68-1.16Zm4 5.29a1.8 1.8 0 0 1 1-1.45 4 4 0 0 1 .62-.26 3.23 3.23 0 0 1 2.46.11 4.45 4.45 0 0 1 1.87 1.94 5.69 5.69 0 0 1 .49 1 3.27 3.27 0 0 1 .19 1l-1.84.57a3 3 0 0 0-.43-1.45 1.78 1.78 0 0 0-.62-.71.94.94 0 0 0-.76 0l-.27.12a.42.42 0 0 0-.25.4 1.69 1.69 0 0 0 .28.76 3.89 3.89 0 0 0 1.18 1.23l-1.93.6a4.74 4.74 0 0 1-.78-.77 7.54 7.54 0 0 1-.67-1 3.57 3.57 0 0 1-.55-2.13Zm2.93 5.87a1.17 1.17 0 0 1 .73-.83 2.83 2.83 0 0 1 .56-.19l5.74-1.31 1.15 2.47-5.38 1.23-.16.05a.23.23 0 0 0-.14.15.37.37 0 0 0 .05.25 1.72 1.72 0 0 0 .34.49l-1.68.38a3.76 3.76 0 0 1-.52-.58 4 4 0 0 1-.43-.75 2.23 2.23 0 0 1-.27-1.4Zm2.17 5.05a2.31 2.31 0 0 1 .34-1.21 2 2 0 0 1 1-.77 2.69 2.69 0 0 1 .56-.14 3.71 3.71 0 0 1 2.34.33 3.77 3.77 0 0 1 1.56 2.08 3.23 3.23 0 0 1 .22 1.33 2.1 2.1 0 0 1-.38 1.09 1.92 1.92 0 0 1-.9.67 3.4 3.4 0 0 1-.51.13l-.92.14-1.25-3.33a.83.83 0 0 0-.15.56 3.39 3.39 0 0 0 .25 1 5.75 5.75 0 0 0 .41.87 4.45 4.45 0 0 0 .47.7l-1.48.22a6.38 6.38 0 0 1-1.28-2.24 3.77 3.77 0 0 1-.29-1.47Zm3.85 1.27h.2c.21-.08.25-.29.13-.61a.66.66 0 0 0-.76-.5Zm.13 9.61a2.43 2.43 0 0 1 1.84-1.37 4.45 4.45 0 0 1 .93-.09 4.36 4.36 0 0 1 3.07 1.12 5.65 5.65 0 0 1 1.63 3.12 5.79 5.79 0 0 1 .14 1.17 5.47 5.47 0 0 1-.08 1.06h-2.43a4.16 4.16 0 0 0 .16-1 4.66 4.66 0 0 0-.1-1 2.43 2.43 0 0 0-.59-1.27 1.71 1.71 0 0 0-1.23-.41 1.77 1.77 0 0 0-.5 0 .77.77 0 0 0-.64.49 2.23 2.23 0 0 0 0 1.15 4.67 4.67 0 0 0 .33 1 6.43 6.43 0 0 0 .58 1h-2.43a8 8 0 0 1-.52-1.06 8.67 8.67 0 0 1-.35-1.18 4.38 4.38 0 0 1 .18-2.77Zm1 6.63a1.62 1.62 0 0 1 1.25-.65 3.44 3.44 0 0 1 .79 0 4.26 4.26 0 0 1 2.34.87 2.9 2.9 0 0 1 1 2 2 2 0 0 1 0 .71 1.34 1.34 0 0 1-.23.51h.28l.3 2.66-5.43-.53-.26-2.35.35-.1a3 3 0 0 1-.43-.75 3.53 3.53 0 0 1-.22-.92 2 2 0 0 1 .28-1.49Zm2 3.06 1.35.14a.81.81 0 0 0 .11-.2.67.67 0 0 0 0-.25q-.06-.52-1.05-.63H618a.4.4 0 0 0-.29.14.53.53 0 0 0 0 .32.77.77 0 0 0 .17.44Zm3.74 5.26.06 2.67h-.3a4.13 4.13 0 0 1 .31.85 4.24 4.24 0 0 1 .15 1l-2-.37a9.15 9.15 0 0 0-.09-1 5 5 0 0 0-.18-.84l-3.23-.6-.06-2.72Zm-5.26 5.2a3.51 3.51 0 0 1 .32-1l1.7.45a3.11 3.11 0 0 0-.37.87 4.35 4.35 0 0 0-.17.95v.47c0 .09 0 .14.1.16s.09 0 .13-.1a2.28 2.28 0 0 0 .14-.39 5.64 5.64 0 0 1 .23-.6 2.17 2.17 0 0 1 .53-.8 1 1 0 0 1 .71-.23 1.67 1.67 0 0 1 .4.07 1.88 1.88 0 0 1 1.26 1 4.72 4.72 0 0 1 .32 2.31 9.16 9.16 0 0 1-.14 1.18 4.91 4.91 0 0 1-.23.94l-1.69-.44a5.27 5.27 0 0 0 .27-.71 3.51 3.51 0 0 0 .12-.71 4.07 4.07 0 0 0 0-.59c0-.14 0-.22-.11-.24s-.08 0-.11.1a2.28 2.28 0 0 0-.14.39c-.06.2-.11.38-.16.52a2.27 2.27 0 0 1-.53.89.94.94 0 0 1-.71.25 3.22 3.22 0 0 1-.44-.08c-1.17-.32-1.71-1.42-1.61-3.32a7.65 7.65 0 0 1 .22-1.38Zm-.62 11.21a1.79 1.79 0 0 1 1.66-.42 3.37 3.37 0 0 1 .68.22 3.41 3.41 0 0 1 1.8 1.65 4.56 4.56 0 0 1 .14 2.77 3.6 3.6 0 0 1-.94 2 1.76 1.76 0 0 1-1.66.41 3 3 0 0 1-.68-.22 3.36 3.36 0 0 1-1.8-1.64 4.62 4.62 0 0 1-.13-2.79 3.57 3.57 0 0 1 .97-2.02Zm1 3.26a1.41 1.41 0 0 0 .58.4 1.52 1.52 0 0 0 .36.12.38.38 0 0 0 .53-.35.65.65 0 0 0-.08-.5 1.32 1.32 0 0 0-.58-.4 2.45 2.45 0 0 0-.38-.13.44.44 0 0 0-.35 0 .49.49 0 0 0-.17.31.64.64 0 0 0 .11.51Zm1.95 6.18-.76 2.43-.29-.09a4.69 4.69 0 0 1 0 .93 4.31 4.31 0 0 1-.2 1.06 1.62 1.62 0 0 1-.65.95 1.32 1.32 0 0 1-1.08.06 3.64 3.64 0 0 1-.61-.28l-3.06-1.75.82-2.6 2.74 1.55h.1c.16 0 .27 0 .33-.22a.65.65 0 0 0 0-.29.83.83 0 0 0-.07-.3l-2.86-1.61.81-2.59Zm-7.29 5.69a1.18 1.18 0 0 1 1.1 0 2.78 2.78 0 0 1 .53.29l4.86 3.31-1 2.52-4.56-3.1-.15-.09a.23.23 0 0 0-.2 0 .47.47 0 0 0-.15.21 1.74 1.74 0 0 0-.13.58l-1.42-1a5.5 5.5 0 0 1 .07-.78 4.54 4.54 0 0 1 .27-.82 2.21 2.21 0 0 1 .78-1.12Zm-3.88 3.71a5.81 5.81 0 0 1 .41-.63l1.4 1.14a3.67 3.67 0 0 0-.34.46 3.55 3.55 0 0 0-.32.53 4.63 4.63 0 0 0-.5 1.32c-.06.35 0 .57.1.67l.14.12a3.59 3.59 0 0 1 .11-.88 4.29 4.29 0 0 1 .35-.94 1.61 1.61 0 0 1 .88-.85 1.54 1.54 0 0 1 1.19.13 2.62 2.62 0 0 1 .46.3l2.55 2-1.24 2.43-2.3-1.87h-.09c-.15-.08-.28 0-.37.16a.73.73 0 0 0-.07.29.88.88 0 0 0 0 .29l2.42 2-1.23 2.43-3.55-2.86a3.3 3.3 0 0 1-1.28-2.18 5.9 5.9 0 0 1 .84-3.26q.15-.33.44-.81Z" transform="translate(-171.65 -249.6)" style="fill:url(#al)"/><path d="M1201.15 553.58a8 8 0 0 1-8 6.7c-43.26-.62-89.37-1.61-118.84-2.63-50-1.72-118.62-10.7-275-11.2a7.6 7.6 0 0 1-7.44-6.17c-4.59-24.06-9.26-50.31-13.29-73.66 4.09 3.33 5.53 7 9.57 6.95 182.53-3.92 323.38-6.17 404.07-7.53a16.43 16.43 0 0 1 16.69 17c-.68 22.04-4.28 48.96-7.76 70.54Zm551.38-100.9c-19 45.17-16.8 70.5-16 76.09l-6.06-3.14a8.17 8.17 0 0 0-6.1-7.71c-6.11-1.61-24.26-1.29-25.39-7.39s-1.44-21.86 3.22-28 26.83-27.32 40.65-27.32c4.33 0 6.42-5.3.8-5.3h-21c-20.4 0-25.38 31.95-26.67 45.78a102.85 102.85 0 0 0-.33 15.1 7.83 7.83 0 0 1-7.37 8.23c-9.48.56-25.3 1.43-36.81 1.75-17.51.48-24 14.45-24.1 23.46-.12 8.79 4.18 19.26 13.66 19.28l52.63.08a1.57 1.57 0 0 1 .43 3.09 9.72 9.72 0 0 1-2.41.36c-6.62.21-6.75 4.46-13.74 8.68-4.33 2.62-9.84 6-15.38 6.75-24.62 3.21-34.38-8-36.63-12.37s-2.42 1-1 5.46a80.57 80.57 0 0 1 2.54 12.77c1.72 12.21-6.15 5.86-6.39 2-4-62.5-52.86-110.14-139.3-109.26-75.08.77-114.58 63.21-128.67 101.52a13.72 13.72 0 0 1-13 9l-133-1.55a6.51 6.51 0 0 1-6.34-7.65c.37-2 .77-4.33 1.21-6.89a12.28 12.28 0 0 1 12.29-10.2c71.86 1.16 122.27 2 125.14 2 10.44 0 21.22-13.74 14.7-13s-22.66 5.87-64.11 6.51c-16.19.24-44 .11-75.28-.26a9 9 0 0 1-8.76-10.23c3.33-23 6.63-51.8 6.81-76.4a8.43 8.43 0 0 1 8.27-8.38h.51c123-2.19 188.91-7.89 469.41-11.09-187.28-2.9-341.49-5.09-471-6.57a11.64 11.64 0 0 1-11-8.31 177.07 177.07 0 0 0-11.29-27.36 4.88 4.88 0 0 1 4.39-7.07c1.7 0 170.84 6 170.84 6s-75.47-4-150.63-7a1.33 1.33 0 0 1-.7-2.43c6-4.31 8.74-10.5 7.46-11.93-2.17-2.41 2-2.67 10-2.53 170.75 3 352.63 17.31 412.08 25.83s102 26.19 106.69 31.81.83 7.79-5.27 7.79Zm-206.6 27.4c-18.75-16.17-127.44-45.84-175.4 50.5 57.35-80.92 151.8-57.89 175.4-50.5Zm-362.34 84.81c-114.82-1.85-269.13-4.36-377.29-6.13a8.72 8.72 0 0 0-8.68 10.48c.74 3.54 1.46 7 2.17 10.25a7.54 7.54 0 0 0 7.29 6l381.82 4.46a6.81 6.81 0 0 0 6.77-5.5c.23-1.14.47-2.4.73-3.76a13.27 13.27 0 0 0-12.81-15.8ZM796.51 579.1a5.09 5.09 0 0 1-5 6.17l-116.6-1.37a11 11 0 0 1-10.76-9.06c-8.62-47.75-46.76-97.25-120-97.25-89.51 0-126 40.17-144.6 100.9-1.8 5.85-11.16 6.12-9.16-2.66 3.95-17.36 14.94-25.62-11.57-32.37s-118.34-10.67-142.68-14.3c-12.71-1.89-23.34-8-24.9-13.49-3.51-12.31-5.26-23.1-5.14-29.89.16-9.8-.28-12.54-7-12.77-11.49-.4-20.46 1.78-19.61-3.78 3.14-20.4 11.81-49.82 20-62.18 6.28-9.47 9.72-11.67 21-13.35a1.86 1.86 0 0 1 2.07 2.35c-3.41 11.68-9.58 34.94-16.06 72.1-.77 4.39 2.23 5.61 2.89 1.81 6-34.52 12.16-58.23 16.11-71.5a8.9 8.9 0 0 1 7.5-6.32h.25c11.52-1.35 25.68-2.81 41.76-4.31l14.44-4.71c98.19-32.56 297.51-83.54 398.34-107.63 151.35-36.15 323.27-26.67 357.18-17.35 14.48 4 18.42 8.05 18 10.76a5 5 0 0 0-1.41.25 25 25 0 0 0-14.34 11.85c56.36 36 123.22 94.47 149.23 117.84a1.65 1.65 0 0 1-1.11 2.88h-4.39a26.87 26.87 0 0 1-17.45-6.64c-30.81-27-85.87-73.53-127.61-99.82-21-13.25-26-15.6-45.31-16.63-76.4-4.1-196.66 1.68-239.24 12.29a14.24 14.24 0 0 0-2 .56c-13.1 3.84-26 10.86-20 31.72 3.55 12.46 11.47 38.2 17.65 58.1a10.21 10.21 0 0 1-11.23 13.15c-11.58-1.77-20.25-5.05-29.8-8.67-15.71-6-33.52-12.71-69.31-15.65-20.86-1.72-49-2.23-81.13-1.88-2.91.11-108.23 4.15-200 12.31 100.19-7 220.13-12.06 280.9-7.07 64.72 5.32 70.23 23.4 110.91 25.51a7.73 7.73 0 0 1 7.25 6.34l5.79 32.08a7.3 7.3 0 0 1-7.12 8.59c-45.19.42-85.93 1.09-124.2 2 17.93 4.82 85.09.81 67.18 9.78-4.83 2.42-7.81 6.21-6.83 12.72 1.82 12.13 7.87 43.54 9.4 48.36s-2.45-13.33-1.85-21.21c.63-8.11 4.92-15.35 4-22.65-1.45-11.73-.38-12.14 13.17-12.53 12.25-.36 24.5-1 36.73-1 1.54 0 3 .07 4.28.19A12.23 12.23 0 0 1 776 472c2.18 13.83 6.08 36.82 12.32 68a5.33 5.33 0 0 1-5.22 6.39c-15.71 0-32.25.11-49.71.3-11 .12-16.27.83-22.53-19 1 19.6-10 15.23-18.68 11.16-7.27-3.41-11.34-6.92-18.92-14.38-6-5.92-20.47-16.23-14.14-4.82s6.1 36.77 17.35 37l101.06 1.66a18.26 18.26 0 0 1 17.57 14.44q.71 3.13 1.41 6.35ZM772 471.54l-57.84.69.71 4.9 58.61-.93a32.15 32.15 0 0 0-1.48-4.66ZM715.17 479l.76 5.25 58.52-.92a32.3 32.3 0 0 0-.52-5Zm1.06 7.33a7.14 7.14 0 0 0 7.32 6.11c14-.5 43.78-.85 48.23-1.79 1.59-.33 2.42-2.43 2.62-5.27l-58.21.69ZM782 521.76l-61.34.8.77 5.25 60.9-1a29.67 29.67 0 0 0-.33-5.05Zm-1.64-6.71-60.67.79.71 4.9 61.25-1a35.38 35.38 0 0 0-1.3-4.69Zm1.8 13.79-60.39.79a7.13 7.13 0 0 0 7.09 5.11c14-.5 46.35-.85 50.81-1.79 1.33-.29 2.14-1.87 2.48-4.11Zm-7.8-21-50.1.68a4.79 4.79 0 0 0-4.84 5.46l60.11-1c-1.38-2.98-3.16-5.05-5.18-5.09Zm-60.26-37.43 57-.9c-1.27-2.35-2.84-3.93-4.59-4l-47.53.68a4.79 4.79 0 0 0-4.88 4.22ZM685.94 308c.58 2.47 10.81 46.51 11.69 50.13s-3.37 7.23 0 7.23 6.09-2.7 4.94-7.59-11.12-47.44-11.93-51.58-6-3.61-8.79-3.61 3.52 2.95 4.09 5.42Zm-10.42 1.81c.58 2.47 10.38 44.7 11.26 48.32s-3.37 7.23 0 7.23 6.09-2.7 5-7.59S681 312.14 680.22 308s-6-3.62-8.8-3.62 3.52 2.95 4.1 5.43Zm-10.18 2.41c.57 2.47 9.71 42.29 10.6 45.91s-3.38 7.23 0 7.23 6.08-2.7 4.94-7.59-10-43.22-10.84-47.36-6-3.62-8.8-3.62 3.52 2.95 4.1 5.43Zm-10.59 2c.58 2.48 9.46 40.31 10.34 43.93s-3.37 7.23 0 7.23 6.09-2.7 4.94-7.59-9.78-41.24-10.58-45.37-6-3.62-8.8-3.62 3.52 2.93 4.1 5.4ZM644 316.25c.57 2.48 8.88 38.26 9.76 41.88s-3.38 7.23 0 7.23 6.09-2.7 4.94-7.59-9.2-39.19-10-43.32-6-3.62-8.8-3.62 3.53 2.95 4.1 5.42ZM633.34 318c.58 2.47 8.7 36.51 9.58 40.13s-3.37 7.23 0 7.23 6.09-2.7 4.94-7.59-9-37.44-9.82-41.58-6-3.61-8.79-3.61 3.52 2.95 4.09 5.42ZM623 319.63c.58 2.47 8.21 34.88 9.09 38.5s-3.37 7.23 0 7.23 6.09-2.7 4.94-7.59-8.53-35.81-9.33-39.95-6-3.62-8.8-3.62 3.5 2.95 4.1 5.43Zm-10.36 2.11c.57 2.47 7.72 32.77 8.61 36.39s-3.38 7.23 0 7.23 6.08-2.7 4.94-7.59-8-33.7-8.85-37.84-6-3.62-8.8-3.62 3.46 2.95 4.08 5.43ZM600.75 324c.57 2.47 7 30.48 7.91 34.1s-3.37 7.23 0 7.23 6.09-2.7 5-7.59-7.36-31.41-8.16-35.55-6-3.62-8.8-3.62 3.47 2.98 4.05 5.43Zm-10.31 2.53c.58 2.47 6.49 27.95 7.38 31.57s-3.38 7.23 0 7.23 6.08-2.7 4.94-7.59-6.81-28.88-7.62-33-6-3.62-8.79-3.62 3.52 2.96 4.09 5.44ZM580.32 329c.58 2.47 5.77 25.54 6.65 29.16s-3.37 7.23 0 7.23 6.09-2.7 4.94-7.59-6.09-26.47-6.89-30.61-6-3.62-8.8-3.62 3.53 2.92 4.1 5.43Zm-10.6 2.15c.57 2.47 5.52 23.39 6.4 27s-3.37 7.23 0 7.23 6.09-2.7 4.94-7.59-5.84-24.32-6.64-28.45-6-3.62-8.8-3.62 3.52 2.93 4.1 5.4Zm-11 1.94c.58 2.48 5.17 21.45 6 25.07s-3.37 7.23 0 7.23 6.09-2.7 4.94-7.59-5.49-22.38-6.29-26.51-6-3.62-8.8-3.62 3.6 2.92 4.18 5.39Zm44.16 138.42c-14.61-13.33-141-44.66-188.94 51.68 57.38-80.95 165.37-59.09 188.97-51.71Zm168-75.63a1.54 1.54 0 0 0 1.48-2c-7.13-21.82-20.14-61.76-22.71-70.18a86.3 86.3 0 0 1-2.65-10.55c-1.31 11.64 4.83 37.8 6.68 43.89 4.81 14.86 6.85 21.06 11.29 34.65a6 6 0 0 0 5.68 4.16Zm-3 7.38a3.44 3.44 0 0 1 3.43-4c39 .35 167.25 2.31 274.56 3.88a3.11 3.11 0 0 0-.45 1.53 11.06 11.06 0 0 0 .68 3.54s-5.44 7.54 0 17.78c7.61 4.34 33.24 7.72 41.68-3.28 3.25-3.28 15.9-5 22.53-5.61s3-5.41 3-5.41a8.91 8.91 0 0 0 1.57-4 4.25 4.25 0 0 0-2-3.58c29.48.42 54.37.74 71.13.92a9.31 9.31 0 0 1 8 4.73 138.31 138.31 0 0 1 12 27.88 7.79 7.79 0 0 1-7.54 10c-178.92-2-309.53-2.56-415.51-1.77a7.11 7.11 0 0 1-7.06-5.93c-2.64-16.51-4.79-29.66-5.9-36.71Zm6.32 15.58a4.46 4.46 0 0 0 1.78 1.9 4.62 4.62 0 0 1 2.09 3.32 3.78 3.78 0 0 0 .15.74 7.13 7.13 0 0 0 12.46.37 1.33 1.33 0 0 0 .1-.24 3.31 3.31 0 0 1 3.22-2.07c5.31.15 11.43.29 15.7.29 9.16 0 12.45-.33 17.43-2.53s6.62-8.8 6.62-8.8c.46-1.47-.44-3.35-2.84-3.45-4-.17-36.39-2.81-42.26-1.77s-9.8 3.46-13 5.14c-2.21 1.17-2.21 5.26-1.37 7.07Z" transform="translate(-171.65 -249.6)" style="fill:url(#am)"/><path d="M1025.09 295.08c-3.15-1.61-7.09-4.49-18.71-5.47-38.48-3.21-172.93-4.82-235 5.31-15.7 2.56-20.28 13.47-16.45 26.75 2.82 9.75 16.93 54.56 21.57 69.41.79 2.52 2.83 4.89 3.89 4.89a1.76 1.76 0 0 0 .27-2c-3.67-11.12-21.24-64.52-23.51-75.41-2.53-12.18 3.77-18.9 14.7-20.76 58.09-9.89 200.62-9.28 235.47-5.19 7.95.94 10.2 2.66 17 6s3.93-1.93.77-3.53Z" transform="translate(-171.65 -249.6)" style="fill:url(#r)"/><path d="M1025.73 291.13c-3.16-1.61-7.1-4.49-18.72-5.47-38.48-3.21-174.41-4.17-236.47 5.95-15.7 2.56-23.83 12.91-20 26.18 2.82 9.76 18.23 59.08 22.88 73.94.79 2.52.68 4.07 3.32 4.07a9.7 9.7 0 0 0-.39-2.19c-3.67-11.12-20.94-64.78-23.47-75.62-3.28-14.1 6.36-22 17.3-23.86 58.08-9.88 202.48-9.4 237.33-5.3 8 .94 10.16 1.33 17 4.7s4.37-.8 1.22-2.4Z" transform="translate(-171.65 -249.6)" style="fill:url(#an)"/><path d="M1218 389.06a48 48 0 0 0-3.73 3.62 3.25 3.25 0 0 1-4.29.31c-52.17-40-100.57-83.22-143.65-110.78-6.3-4 1.52-5.38 3.93-7.71s-4.55-6.76-8.67-5.38c-8.2 2.73-8.48 6.66-10.53 10.36 61.32 39.16 82.12 60.35 153.09 119.08a10.54 10.54 0 0 0 12.28.75c5.53-3.41 5.32-10.25 8.08-10.61-3-.26-5.76-.29-6.51.36Z" transform="translate(-171.65 -249.6)" style="fill:url(#ao)"/><path d="M1032.54 297c-1.73-.86-1.58-3.72.33-2.74 35.26 18.13 102.83 74.88 139.46 105.65 2.19 1.84-2.34 2.5-5.22 0-28.6-24.91-105.36-88.48-134.57-102.91Z" transform="translate(-171.65 -249.6)" style="fill:url(#ap)"/><path d="M1038.49 301.85c-4.37-2.8-8.43-5.32-4.09 2.39 2 3.56 8.7 19.61 18.19 42.3a79.2 79.2 0 0 1 9.82 1.46c-5-10.92-11.93-25.19-17.62-36.54.01 0-4.46-8.46-6.3-9.61Z" transform="translate(-171.65 -249.6)" style="fill:url(#aq)"/><path d="M1163.32 399.23c-36.73-32.37-83.18-70.28-118-93a.46.46 0 0 0-.64.62l3 5.08a3.25 3.25 0 0 0 .94 1c31.69 20.85 85.59 65.46 104.17 81.6-9.64.12-67.73-1.6-67.73-1.6s-1.18-1.2-3.48-3.4a36.54 36.54 0 0 1-6.44 3 24.09 24.09 0 0 0 2.8 7.34 4.66 4.66 0 0 0 2.23.64c15 .25 73 1.39 79.17 1.39 6.96.01 7.83.72 3.98-2.67Z" transform="translate(-171.65 -249.6)" style="fill:url(#ar)"/><path d="M775.72 411.71c3.21-1.68 7.15-4.09 13-5.14s38.23 1.6 42.26 1.77 3.21 3.77-.56 3.53-35.27-2.81-41.21-1.56-10.21 4.22-12.46 5.58-4.24-2.49-1.03-4.18Zm8.52 4.12a3 3 0 1 0 3.41 3 3.23 3.23 0 0 0-3.41-3Z" transform="translate(-171.65 -249.6)" style="fill:url(#s)"/><path d="M1108.48 402.71c-6.87 0-21.33-.27-29.52-.8-2.22-.14-3.59-2-4.42-4.61-3.17 3.71-2.75-2.92-3.71-.85-2.89 6.26-14.76 7.71-16.14 6.75-1-.7 2.71-3 4.34-5.11a14.76 14.76 0 0 1-10.08 3.66c-5.3-.05-3.86 6.87 0 7.07s56.52 1 62.5 1.12 3.9-7.23-2.97-7.23Z" transform="translate(-171.65 -249.6)" style="fill:url(#as)"/><path d="M1052.6 346.54c-2.58-.22-5.58 10.19-6.69 23.25-.23 2.75-.37 5.39-.4 7.86 28.34 16.54 38.62-9.8 49.63-3.67 1.11-13.06-18.88-25.43-42.54-27.44Z" transform="translate(-171.65 -249.6)" style="fill:url(#at)"/><path d="M687.66 291.39c-43.28 8.42-94.74 19.84-139.14 30.54-9.42 2.27-10 8.67-19.22 10.58-93.19 19.3-169.32 39-169.32 39s152.71-55.2 352.35-97.94C778.46 259.38 930 243.65 1035 260.76a75.6 75.6 0 0 1 24.68 9.05 24.88 24.88 0 0 0-12.5 11.2c56.36 36 123.22 94.47 149.23 117.84a1.65 1.65 0 0 1-1.11 2.88h-4.39a26.94 26.94 0 0 1-6.16-.8C1171 388.52 1099 324.4 1051 293c-18.16-11.9-29.08-17.77-52.86-19.7-55.84-4.52-141.6-1.59-221.89 8.11-25.93 3.14-39.86 11.08-57.37 16.11s-20.21-8.27-31.22-6.13ZM428.91 513.16c53.28-51.88 153.37-54.53 208.23-11.87-16.98-36.88-147.98-63.63-208.23 11.87Zm341.38-75.76-5.79-32.08a2.3 2.3 0 0 0-2.24-1.83c-69.87-1.89-48.47-9.58-103.28-18.75-79.2-13.25-319.23 5-395.4 12.69s21.34 33.41 147.49 29.89c138.86-3.88 216 9.09 308.29 11.57 15.18.4 31.79.2 49.4.29a1.52 1.52 0 0 0 1.53-1.74Zm858-9.3c-46.76-3.71-276.65-13.18-429.58-17-.48 0-1.42.48-.49 2.21a176 176 0 0 1 10.78 26.26 1.52 1.52 0 0 0 .09.25 3.34 3.34 0 0 0 3 2c29.53.31 400 4.26 447.06 6.89 49.03 2.69 21.85-16.43-30.82-20.61Zm-424.11 9.75a3.11 3.11 0 0 1-3.06 3.85l-424.4-2.5a3.37 3.37 0 0 1-3.31-2.82c-2.12-12.62-3.84-23-5-29.88a2.44 2.44 0 0 1 2.45-2.84c4.15.08 8.57.14 13.3.18 73.74.65 160.28 2.43 261.94 4.34 0 0-5.44 7.54 0 17.78 7.61 4.34 33.24 7.72 41.68-3.28 3.25-3.28 15.9-5 22.53-5.61s3-5.41 3-5.41a5.45 5.45 0 0 1 4.33-2.18l27 .47c13.76.23 28.76.54 44.7.92a5.86 5.86 0 0 1 5 3.13 133.43 133.43 0 0 1 9.7 23.6ZM831 408.34c-4-.17-36.39-2.81-42.26-1.77s-9.8 3.46-13 5.14c-2.28 1.2-2.28 5.26-1.44 7.1a4.46 4.46 0 0 0 1.78 1.9 4.62 4.62 0 0 1 2.09 3.32 3.78 3.78 0 0 0 .15.74 7.13 7.13 0 0 0 12.46.37 1.33 1.33 0 0 0 .1-.24 3.31 3.31 0 0 1 3.22-2.07c5.31.15 11.43.29 15.7.29 9.16 0 12.45-.33 17.43-2.53s6.62-8.8 6.62-8.8c.44-1.47-.46-3.35-2.85-3.45Zm926.84 36.47c-4.66-5.62-47.24-23.3-106.69-31.81s-241.33-22.82-412.08-25.83c-7.1-.13-11.17.07-10.49 1.8 2 .53 2.32 3 2 5.82a7.71 7.71 0 0 0 7.28 8.66c35.22 1.68 161.91 7.82 279.52 14.62 73.31 4.25 153.75 4.89 191.1 24.65 9.47 5 40.68.71 50.85 4.22a12.11 12.11 0 0 0-1.5-2.13Zm-375.52 75.05c53.28-51.88 141.26-53.28 198.63-12.42-18.1-30.74-138.39-63.08-198.64 12.42Z" transform="translate(-171.65 -249.6)" style="opacity:.32;fill:url(#au)"/><path d="M200.76 528.9c-7.48-3-13.35-5.26-21.35-13.63-7-7.37-7.79-24.56-7.76-32.28a3.7 3.7 0 0 1 3.89-3.67l17 .92a7 7 0 0 1 6.48 5.48c-1.17-1-3-1.36-5.06-1.47l-17-.93c-2.11-.11-2 3.92-2.05 6 0 7.72 1.58 17.42 7.71 25.55 5.55 7.38 10.66 11.05 18.14 14.03Zm.41.1h.15ZM1343 596l-672.7-8.7a4.28 4.28 0 0 0-4.3 4.4c-.09-2.45 6.95-1.52 9.4-1.49l661.93 10c3.25 0 11.19-.94 10 2.09a4.66 4.66 0 0 0-4.33-6.3Zm411.47-46.7c2.87 1.77-9.27 4.45-11.22 7.42-6.11 9.32-16.88 26.41-23 33.58-5.46 6.43-15.21 8.65-21.11 8.65 5.9 0 17.07 0 22.53-3.14s26.19-29 32.29-38.32c1.96-3.02 3.38-6.49.5-8.24Zm-123.71-8.57h134.49a4.93 4.93 0 0 1-.24.67 3.58 3.58 0 0 0-.18-3.67c-3-4-9.24-13.74-25.55-13.74s-66.6 1.45-91.58 1.45c-14.18 0-19.06 8.51-16.78 15.87Z" transform="translate(-171.65 -249.6)" style="fill:url(#av)"/></svg>