<svg xmlns="http://www.w3.org/2000/svg" viewBox="0 0 3266.75 1042.28"><g id="Layer_2" data-name="Layer 2"><g id="_ÎÓÈ_1" data-name="—ÎÓÈ_1"><rect x="1475.57" y="877.43" width="16.96" height="97.42" transform="translate(-226.83 561.41) rotate(-19.93)" style="fill:#8e8e8e"/><rect x="1506.79" y="864.63" width="16.3" height="113.29" transform="translate(371.52 -433.85) rotate(18.54)" style="fill:#ccc"/><polygon points="1538.23 877.46 1521.03 877.46 1516.09 892.19 1532.9 893.36 1538.23 877.46" style="fill:#b7b7b7"/><rect x="1517.04" y="866.3" width="5.77" height="113.29" transform="translate(372.32 -435.36) rotate(18.54)" style="fill:#b7b7b7"/><rect x="1503.94" y="916.29" width="21.99" height="9.97" transform="translate(371.52 -433.85) rotate(18.54)" style="fill:#e2e2e2"/><rect x="1503.94" y="920.55" width="21.99" height="1.46" transform="translate(371.52 -433.86) rotate(18.54)" style="fill:#9b9b9b"/><rect x="1453.33" y="968.01" width="91.51" height="13.15" style="fill:#afafaf"/><rect x="1453.33" y="976.86" width="91.51" height="4.29" style="fill:#8e8e8e"/><circle cx="1451.63" cy="996.42" r="39.76" transform="translate(-279.4 1318.31) rotate(-45)" style="fill:#3f3f3f"/><path d="M1440.44,958.29a39.75,39.75,0,0,0-28.57,38.13c0,.71.07,1.4.11,2.11l39.65-2.11Z" style="fill:#fff"/><circle cx="1451.63" cy="996.42" r="37.21" style="fill:#232323"/><circle cx="1451.63" cy="996.42" r="21.68" transform="translate(-279.4 1318.31) rotate(-45)" style="fill:#ffcf48"/><circle cx="1451.63" cy="996.42" r="16.62" transform="translate(-279.4 1318.31) rotate(-45)" style="fill:#e58e1a"/><path d="M1457.28,996.42a5.65,5.65,0,1,1-5.65-5.65A5.65,5.65,0,0,1,1457.28,996.42Z" style="fill:#cecece"/><circle cx="1544.84" cy="996.42" r="39.76" transform="translate(-252.1 1384.21) rotate(-45)" style="fill:#3f3f3f"/><path d="M1533.65,958.29a39.74,39.74,0,0,0-28.57,38.13c0,.71.07,1.4.11,2.11l39.65-2.11Z" style="fill:#fff"/><circle cx="1544.84" cy="996.42" r="37.21" style="fill:#232323"/><circle cx="1544.84" cy="996.42" r="21.68" transform="translate(-252.1 1384.21) rotate(-45)" style="fill:#ffcf48"/><circle cx="1544.84" cy="996.42" r="16.62" transform="translate(-252.1 1384.21) rotate(-45)" style="fill:#e58e1a"/><path d="M1550.49,996.42a5.65,5.65,0,1,1-5.65-5.65A5.65,5.65,0,0,1,1550.49,996.42Z" style="fill:#cecece"/><path d="M3053.79,550.38l-32.16-64.56H2986.4L3174.89,9.35A6.83,6.83,0,0,0,3168.54,0H2997.61l-276,296.83-367.47,97.41L2718.93,516Z" style="fill:#d8e4ed"/><path d="M2997.61,0l-276,296.83-106.68,28.28L2504.11,444.28,2718.93,516l334.86,34.43-32.16-64.56H2986.4L3174.89,9.35A6.83,6.83,0,0,0,3168.54,0Z" style="fill:#ffb54a"/><polygon points="2354.13 394.24 2409.08 412.57 2449.67 368.91 2354.13 394.24" style="fill:#ffb54a"/><rect x="432.09" y="949.95" width="14.35" height="30.43" style="fill:#ccc"/><rect x="441.64" y="949.95" width="4.8" height="30.43" style="fill:#b5b5b5"/><rect x="407.39" y="896.3" width="73.14" height="60.46" style="fill:#ccc"/><rect x="406.3" y="951.7" width="75.32" height="6.64" style="fill:#e8e8e8"/><polygon points="480.53 938.68 480.53 896.3 407.39 896.3 407.39 948.55 480.53 938.68" style="fill:#b5b5b5"/><circle cx="439.27" cy="1008.14" r="34.14" transform="translate(-352.36 244.84) rotate(-22.5)" style="fill:#3f3f3f"/><path d="M429.66,975.39a34.13,34.13,0,0,0-24.54,32.75c0,.61.06,1.2.1,1.81l34-1.81Z" style="fill:#fff"/><circle cx="439.27" cy="1008.14" r="31.96" style="fill:#232323"/><circle cx="439.27" cy="1008.14" r="18.62" transform="translate(-352.36 244.84) rotate(-22.5)" style="fill:#ffcf48"/><circle cx="439.27" cy="1008.14" r="14.27" transform="translate(-642.82 1204.03) rotate(-76.72)" style="fill:#e58e1a"/><path d="M444.12,1008.14a4.85,4.85,0,1,1-4.85-4.85A4.85,4.85,0,0,1,444.12,1008.14Z" style="fill:#cecece"/><path d="M12.35,871.08,79,828.56l36.3-38.44,41.76-108A561.6,561.6,0,0,1,577.33,332.66h0l1210.83-25.44a1331,1331,0,0,1,317.92,31.66L3161.59,574.44v42.85l-771.7,215.2a1840.87,1840.87,0,0,1-498.14,68.68H720.13l-508.6,68.66A265.17,265.17,0,0,1,24.36,924.54l-12.92-9A26.73,26.73,0,0,1,12.35,871.08Z" style="fill:#dbdbdb"/><path d="M2147.79,348h0l-41.43-9.25a1331.62,1331.62,0,0,0-317.93-31.67l-37.94.8h0L577.6,332.57l-6.6,1.28-16.77,27L540,401.44l-5.88,27.82c0,46.55,40.74,86.17,87.29,86.17H2006.88l1112.29,98a39.24,39.24,0,0,0,42.69-39.09h0Z" style="fill:#fff;opacity:0.33"/><path d="M2855.39,678.39,2064.8,798.45a206.25,206.25,0,0,1-31.11,2.35H868.61A1435.27,1435.27,0,0,0,597.7,826.59L38.85,933.94a265.23,265.23,0,0,0,172.68,35.89l508.6-68.66H1891.76a1840.85,1840.85,0,0,0,498.13-68.68l497.43-138.72h0A31.43,31.43,0,0,0,2855.39,678.39Z" style="fill:#999;opacity:0.18"/><path d="M2517,430.43l644.88,143.92a41,41,0,0,1-.27,4.59v38.35l-3.18.89h0L2389.89,832.49q-53.19,15-107.13,26.67-7.7,1.68-15.42,3.28-9,1.88-18,3.65-14.21,2.8-28.43,5.4-38.76,7.05-77.77,12.43-15.6,2.15-31.24,4-11.39,1.38-22.79,2.59ZM2347.89,392.7l-472.8,508.47h16.66q32.05,0,64-1.12l458.08-492.63Z" style="fill:#ffcf48"/><path d="M1968.42,800.8l-93.33,100.37h17.53q7.55,0,15.1-.06l1.84,0q7.11-.06,14.2-.18h.58q15.72-.28,31.43-.83h0l92.79-99.79q-7.42.54-14.89.54Z" style="fill:#ffb54a"/><path d="M2302,854.86q4.89-1.11,9.78-2.26c1.86-.43,3.71-.87,5.57-1.32l9-2.14,5.82-1.43,8.76-2.18,5.81-1.47,8.95-2.31,5.51-1.44q4.89-1.29,9.78-2.61l4.61-1.24q7.18-2,14.35-4l497.43-138.72h0a31.43,31.43,0,0,0-31.93-15.38L2192.86,779,2089.15,890.54h0l10.53-1.17q17.86-2,35.68-4.41c2.6-.35,5.21-.68,7.81-1h0q6.95-1,13.88-2l3-.44q6.78-1,13.55-2l2.29-.36q6.21-1,12.42-2l2.27-.37q6.78-1.11,13.54-2.28l2.94-.51q14.09-2.44,28.14-5.11,7.08-1.35,14.15-2.75l5.86-1.18q21.06-4.23,42-9Z" style="fill:#ffb54a"/><path d="M2517,430.43,2405.3,550.54l713.87,62.9a39.25,39.25,0,0,0,42.42-34.5h0c.08-.74.15-1.48.19-2.22a.17.17,0,0,0,0-.07c0-.76.07-1.53.07-2.3Z" style="fill:#ffd97b"/><polygon points="2216.59 533.91 2290.22 540.4 2413.87 407.42 2393.47 402.87 2347.89 392.7 2216.59 533.91" style="fill:#ffd97b"/><rect x="309.42" y="839.53" width="12.8" height="14.75" rx="1.89" style="fill:#adadad"/><rect x="309.88" y="840.46" width="4.42" height="12.89" rx="1.55" style="fill:#6d6d6d"/><rect x="317.35" y="840.46" width="4.42" height="12.89" rx="1.55" style="fill:#6d6d6d"/><polygon points="301.03 880.22 301.03 885.29 303.13 890.77 317.35 893.8 342.15 892.71 351.75 892.17 356.19 887.01 356.19 869.35 301.03 880.22" style="fill:#dbdbdb"/><path d="M3158.31,618.17,2389.89,823.92a1840.84,1840.84,0,0,1-498.13,68.67H720.13l-508.6,68.66c-59.72,8.06-120.21,4-171.61-26.68h0a265.25,265.25,0,0,0,171.65,35.25l508.6-68.66H1891.75a1840.87,1840.87,0,0,0,498.14-68.68l768.52-214.31Z" style="fill:#4c4c4c;opacity:0.30000000000000004"/><polygon points="2924.47 639.57 2871.55 628.43 2796.92 639.3 2970.14 670.68 3003.61 661.34 2924.47 639.57" style="fill:#4f3007;opacity:0.30000000000000004"/><path d="M168.45,701.9a6.16,6.16,0,0,1-2.17-.4,6,6,0,0,1-3.44-7.79A568.17,568.17,0,0,1,492.22,367.2a6,6,0,1,1,4.24,11.26A556.15,556.15,0,0,0,174.07,698.05,6,6,0,0,1,168.45,701.9Z" style="fill:#fff"/><path d="M157,832.3H73.1L79,828.56l26.22-27.76h46.49a5.35,5.35,0,0,1,5.19,4l5.28,20.78A5.35,5.35,0,0,1,157,832.3Z" style="fill:#b7e2ed"/><polygon points="78.96 828.56 73.1 832.3 115.9 832.3 147.91 800.8 105.18 800.8 78.96 828.56" style="fill:#fff;opacity:0.5"/><path d="M157,833.39H73.1a1.09,1.09,0,0,1,0-2.18H157a4.27,4.27,0,0,0,4.14-5.32l-5.28-20.78a4.27,4.27,0,0,0-4.14-3.22H105.18a1.09,1.09,0,1,1,0-2.18h46.49a6.43,6.43,0,0,1,6.24,4.86l5.29,20.78a6.45,6.45,0,0,1-6.25,8Z" style="fill:#303030"/><path d="M2763.78,620.61h0a7.51,7.51,0,0,0,2.65,5.74h0a55.28,55.28,0,0,0,35.87,13.22h122.17L3090,597.93l-20.29-47.55-299.91,62.84A7.56,7.56,0,0,0,2763.78,620.61Z" style="fill:#dbdbdb"/><polygon points="3089.97 597.93 3080.02 574.61 2802.3 639.57 2924.47 639.57 3089.97 597.93" style="fill:#b7b7b7"/><path d="M3266.72,566.49l-10-209.51a23.17,23.17,0,0,0-23.14-22.06h-108.2a23.16,23.16,0,0,0-21.66,14.95l-78.59,207.46a23.14,23.14,0,0,0,.36,17.29l10.62,24.9a23.17,23.17,0,0,0,21.31,14.07h140.46a23.17,23.17,0,0,0,10.36-2.44l45.67-22.84A23.15,23.15,0,0,0,3266.72,566.49Z" style="fill:#fff"/><path d="M889.63,823.34h0A23.92,23.92,0,0,1,908.22,800l743-169.33a520.41,520.41,0,0,1,115.66-13h122.88a13.15,13.15,0,0,1,13.15,13.16h0a13.15,13.15,0,0,1-8,12.12L1525.74,798.67h0a56.06,56.06,0,0,1-56.06,56.05H975.44a284.55,284.55,0,0,1-67.59-8.15h0A23.91,23.91,0,0,1,889.63,823.34Z" style="fill:#fff"/><polygon points="1525.74 798.66 907.85 846.57 1113.75 901.17 1730.49 901.17 1525.74 798.66" style="fill:#292935;opacity:0.30000000000000004"/><path d="M129.48,753.34l-1.4,3.63h252.7L534.42,624.38l.73-.64-.12-1a876.16,876.16,0,0,1-6.49-117.49c1.28-76.36,17.85-138.76,45.58-172-1.83.36-3.67.71-5.5,1.08-26.61,34.6-42.45,96.2-43.7,170.85a884.17,884.17,0,0,0,6.39,117L379.44,753.34Z" style="fill:#7c7c7c"/><path d="M975.44,854.72h494.24a56.06,56.06,0,0,0,56.06-56.05h0L1894.87,643a13.16,13.16,0,0,0,4.73-3.39H1713.85L952.49,835.1c-10.48,2.69-9.15,18,1.64,18.82Q964.77,854.72,975.44,854.72Z" style="fill:#bfbfbf"/><path d="M952.49,835.1c-10.48,2.69-9.15,18,1.64,18.82q10.64.8,21.31.8h494.24a56.06,56.06,0,0,0,56.06-56.05H1094.36Z" style="fill:#bfbfbf"/><path d="M1311.74,885.66a7.36,7.36,0,0,0,0-14l-33.28-10.51L1223,843.6v70.09l55.47-17.52Z" style="fill:#515659"/><path d="M1223,913.69l55.47-17.52,33.28-10.51a7.22,7.22,0,0,0,5.13-7L1223,889.17Z" style="fill:#3c4042"/><polygon points="1252.66 918.28 1135.75 935.1 1135.75 822.19 1252.66 839 1252.66 918.28" style="fill:#c7cdd1"/><polygon points="1252.66 892.72 1135.75 899.42 1135.75 935.1 1252.66 918.28 1252.66 892.72" style="fill:#a8afb2"/><path d="M1148,951.1,910.13,965.84A37.91,37.91,0,0,1,869.88,928V829.29a37.91,37.91,0,0,1,40.25-37.84L1148,806.19a6.62,6.62,0,0,1,6.22,6.61V944.49A6.62,6.62,0,0,1,1148,951.1Z" style="fill:#ededed"/><path d="M869.88,920.54V928a37.91,37.91,0,0,0,40.25,37.84L1148,951.1a6.62,6.62,0,0,0,6.22-6.61V913.12Z" style="fill:#d3d3d3"/><path d="M903.16,791.67a37.92,37.92,0,0,0-33.28,37.62V928a37.92,37.92,0,0,0,33.28,37.62Z" style="fill:#aaa"/><path d="M870,930.57c0,.43.06.85.1,1.27,0,.25.06.5.09.75s.09.76.15,1.13.08.52.13.78.12.72.2,1.08.1.52.16.78.16.69.25,1l.21.78c.09.34.19.67.3,1s.15.51.24.76.23.67.35,1,.17.49.27.73.29.72.44,1.07.29.68.45,1,.36.78.55,1.16.29.55.43.82l.41.76c.16.29.33.57.5.86l.41.67c.18.29.37.58.56.87l.41.61.62.87.41.54c.22.3.45.59.69.88s.25.31.37.46c.26.31.52.61.79.91.09.11.19.21.28.31a38.39,38.39,0,0,0,6,5.33l.07,0c.42.3.85.59,1.29.88l.14.09q.64.42,1.32.81l.13.08c.45.27.92.53,1.39.78l0,0a37.33,37.33,0,0,0,13,4.08h0v-46l-33.28.87V928c0,.65,0,1.3,0,1.94C869.94,930.15,870,930.36,870,930.57Z" style="fill:#999"/><path d="M965.87,794.9l217.09-19h391.68l62.33,22.3a6.35,6.35,0,0,1,3.33,9.21h0a6.35,6.35,0,0,1-5.47,3.11H1431.75l-277.58-4Z" style="fill:#a8a8a8"/><path d="M347,895H309.59a10.66,10.66,0,0,1-10.65-10.65V809.94a10.66,10.66,0,0,1,10.65-10.65H347a10.66,10.66,0,0,1,10.64,10.65v74.37A10.66,10.66,0,0,1,347,895Zm-37.36-91.48a6.46,6.46,0,0,0-6.46,6.46v74.37a6.46,6.46,0,0,0,6.46,6.46H347a6.46,6.46,0,0,0,6.45-6.46V809.94a6.46,6.46,0,0,0-6.45-6.46Z" style="fill:#adadad"/><polygon points="3100.42 0 3091.64 0 2827.65 485.82 2986.4 485.82 2989.48 478.03 2838.42 478.03 3100.42 0" style="fill:#d68b29"/><polygon points="1292.43 747.8 1371.84 765.78 1645.93 765.78 1652.94 752.26 1365.22 729.1 1292.43 747.8" style="fill:#969696"/><polygon points="1393.03 721.96 1455.93 736.2 1725.59 736.2 1732.6 722.68 1472.68 701.5 1393.03 721.96" style="fill:#969696"/><polygon points="1493.63 696.12 1540.03 706.63 1793.1 706.63 1800.1 693.11 1580.7 673.76 1493.63 696.12" style="fill:#969696"/><polygon points="1594.23 670.29 1624.13 677.05 1863.95 677.05 1870.96 663.53 1689.58 646.18 1594.23 670.29" style="fill:#969696"/><path d="M1841.81,619.63h0a9,9,0,0,0,0,18h0l104,46.53c5.5,2.34,17-1.7,17-7.68V580.78c0-6-11.55-10-17-7.68Z" style="fill:#ffb54a"/><path d="M1836.37,619.63h0a9,9,0,0,0,0,18h0l109.41,46.53a8.35,8.35,0,0,0,11.61-7.68V580.78a8.35,8.35,0,0,0-11.61-7.68Z" style="fill:#ffcf48"/><path d="M1235.52,521.45H1184.8a6,6,0,1,1,0-12h50.72a6,6,0,0,1,0,12Z" style="fill:#fff"/><path d="M1136.26,521.45h-305a6,6,0,1,1,0-12h305a6,6,0,0,1,0,12Z" style="fill:#fff"/><path d="M886.52,931.67a6,6,0,0,1-6-6V908.38a6,6,0,0,1,12,0v17.27A6,6,0,0,1,886.52,931.67Z" style="fill:#fff"/><path d="M886.52,873.83a6,6,0,0,1-6-6v-49.7a6,6,0,0,1,12,0v49.7A6,6,0,0,1,886.52,873.83Z" style="fill:#fff"/><path d="M2934,120.88a6,6,0,0,1-4.38-10.15l7.12-7.56a6,6,0,1,1,8.77,8.25l-7.12,7.56A6,6,0,0,1,2934,120.88Z" style="fill:#fff"/><path d="M2901.58,155.28a6,6,0,0,1-4.12-1.64,6,6,0,0,1-.26-8.51L2914.3,127a6,6,0,1,1,8.77,8.25L2906,153.38A6,6,0,0,1,2901.58,155.28Z" style="fill:#fff"/><path d="M2770.43,294.65A6,6,0,0,1,2766,284.5l108.47-115.26a6,6,0,1,1,8.77,8.25L2774.81,292.75A6,6,0,0,1,2770.43,294.65Z" style="fill:#fff"/><path d="M2673.13,688.89a6,6,0,0,1-1.4-11.87l20.17-4.84a6,6,0,1,1,2.81,11.71l-20.18,4.84A6.14,6.14,0,0,1,2673.13,688.89Z" style="fill:#fff"/><path d="M2378.85,759.44a6,6,0,0,1-1.4-11.87l246.65-59.13a6,6,0,1,1,2.81,11.7l-246.65,59.13A5.72,5.72,0,0,1,2378.85,759.44Z" style="fill:#fff"/><polygon points="3048.12 329.8 2916.23 329.8 2920.33 321.59 3051.37 321.59 3048.12 329.8" style="fill:#d68b29"/></g></g></svg>