<svg xmlns="http://www.w3.org/2000/svg" viewBox="0 0 1638.68 569.69"><g style="isolation:isolate"><g id="Layer_2" data-name="Layer 2"><g id="_ÎÓÈ_1" data-name="—ÎÓÈ_1"><rect x="851.65" y="472.43" width="6.81" height="64.28" style="fill:#b2b2b2"/><rect x="855.66" y="472.43" width="2.79" height="64.28" style="fill:#919191"/><rect x="843.17" y="472.43" width="6.81" height="64.28" style="fill:#b2b2b2"/><rect x="847.18" y="472.43" width="2.79" height="64.28" style="fill:#919191"/><rect x="231.37" y="469.66" width="6.81" height="64.28" style="fill:#b2b2b2"/><rect x="235.38" y="469.66" width="2.79" height="64.28" style="fill:#919191"/><rect x="222.89" y="469.66" width="6.81" height="64.28" style="fill:#b2b2b2"/><rect x="226.9" y="469.66" width="2.79" height="64.28" style="fill:#919191"/><path d="M1305.13,370.54h125.94a15.05,15.05,0,0,0,13.91-9.31l16.67-40.35-95,14.57Z" style="fill:#c1c1c1"/><path d="M964,228.05l258-31.3,174.5-191A17.75,17.75,0,0,1,1410.8,0l159.06,10.5a15.33,15.33,0,0,1,12.27,23l-8.21,14.24-50.19,10.53-73.52,197.93h-253Z" style="fill:#d3d3d3"/><path d="M1449.33,73.37a1.87,1.87,0,0,0-1.69.91L1337.81,256.19h4.41l108.07-179,65.43,2.63,1.38-3.73Z" style="fill:#bcbcbc"/><rect x="216.47" y="445.6" width="28.13" height="36.66" style="fill:#d3d3d3"/><path d="M19.93,380.38l259.75-74.61,41.44-30.45A243.51,243.51,0,0,1,465.3,228.05h595.88l408.06,29.51a18.13,18.13,0,0,1,15.51,24.85l-11.81,29.31a55.54,55.54,0,0,1-36.53,32.73L993.69,468.58A818.87,818.87,0,0,1,772.6,499H654.26a304.63,304.63,0,0,1-57.8-5.53L424.13,460.19a264.11,264.11,0,0,0-34.45-4.33L25.9,434.3C-5,432.47-9.81,388.93,19.93,380.38Z" style="fill:#d3d3d3"/><path d="M244.6,445.6H216.47v5.11l10.76.64a3.52,3.52,0,0,1,3.3,3.51v27.4H244.6V445.6Z" style="fill:#b2b2b2"/><path d="M247.34,353.9A159,159,0,0,0,306.4,327l14.72-10.82A243.51,243.51,0,0,1,465.3,268.86l562.82-6.27,457.82,15.14a18.13,18.13,0,0,0-16.7-20.17l-408.06-29.51H465.3a243.51,243.51,0,0,0-144.18,47.27l-41.44,30.45L19.93,380.38C5.07,384.65-1.16,397.66.18,409.84Z" style="fill:#ededed"/><polygon points="67.12 436.75 70.9 436.97 70.9 365.74 67.12 366.83 67.12 436.75" style="fill:#bcbcbc"/><path d="M254.09,313.12l140.29,18.21a45.13,45.13,0,0,0,39.32-14.52l5.58-6.18a20,20,0,0,0-1.75-28.45h0a113.65,113.65,0,0,0-57.93-26.57l-20.77-3a244.22,244.22,0,0,0-37.71,22.75l-41.44,30.45Z" style="fill:#b7e2ed"/><path d="M422.23,271a113.68,113.68,0,0,0-42.63-15.41l-20.77-3a243.66,243.66,0,0,0-37.7,22.75l-41.45,30.45-25.59,7.35,57.45,7.46C343.52,306.12,390,285.4,422.23,271Z" style="fill:#fff;opacity:0.5"/><path d="M890,363.52H712.12a1346.89,1346.89,0,0,0-341.5,44L223.72,446h0l166,9.83a264.11,264.11,0,0,1,34.45,4.33l172.33,33.27a305.44,305.44,0,0,0,57.8,5.53H772.6a818.87,818.87,0,0,0,221.09-30.41l158-44.29L991.28,377.88A363.85,363.85,0,0,0,890,363.52Z" style="fill:#ededed"/><path d="M1484.75,273.7,1472.94,303a55.58,55.58,0,0,1-36.53,32.74L993.69,459.87A818.87,818.87,0,0,1,772.6,490.28H654.26a304.63,304.63,0,0,1-57.8-5.53L424.13,451.48a264.11,264.11,0,0,0-34.45-4.33L25.9,425.6c-15-.89-23.81-11.56-25.57-23.31-2.21,14.63,6.94,30.91,25.57,32l363.78,21.56a264.11,264.11,0,0,1,34.45,4.33l172.33,33.27a304.63,304.63,0,0,0,57.8,5.53H772.6a818.87,818.87,0,0,0,221.09-30.41l442.72-124.13a55.54,55.54,0,0,0,36.53-32.73l11.81-29.31a18,18,0,0,0,.78-11.13A20,20,0,0,1,1484.75,273.7Z" style="fill:#7c7c7c;opacity:0.5"/><path d="M472.25,252.6a14.34,14.34,0,0,0-14.46,14.18V426.14a14.34,14.34,0,0,0,14.46,14.18h56.47a14.34,14.34,0,0,0,14.47-14.18V266.78a14.34,14.34,0,0,0-14.47-14.18Z" style="fill:#ededed"/><path d="M1436.41,344.45a55.37,55.37,0,0,0,19.07-9.63c-255.79,21.75-599.07-25-767.18-13.94-152,10-289.13,86.5-357.71,131.48l14.2.84c75.4-36.84,210.19-93,339-97.78C787.88,351.58,982,393,1177.72,417Z" style="fill:#72a5ce"/><rect x="577.06" y="262.59" width="42.64" height="65.31" rx="21.32" style="fill:#2d2d2d"/><rect x="666.37" y="262.59" width="42.64" height="65.31" rx="21.32" style="fill:#2d2d2d"/><path d="M777,327.9h0a21.38,21.38,0,0,1-21.32-21.32V283.91A21.38,21.38,0,0,1,777,262.59h0a21.38,21.38,0,0,1,21.32,21.32v22.67A21.38,21.38,0,0,1,777,327.9Z" style="fill:#2d2d2d"/><path d="M353.74,326.05l10.12,1.32,31.83-68.19q-3.79-1.12-7.68-2Z" style="fill:#fff"/><circle cx="223.72" cy="538.39" r="31.3" transform="matrix(0.23, -0.97, 0.97, 0.23, -351.66, 632.43)" style="fill:#3f3f3f"/><path d="M214.91,508.36a31.31,31.31,0,0,0-22.49,30c0,.56.06,1.1.09,1.65l31.21-1.65Z" style="fill:#fff"/><circle cx="223.72" cy="538.39" r="29.3" transform="translate(-351.66 632.43) rotate(-76.72)" style="fill:#232323"/><circle cx="223.72" cy="538.39" r="17.07" style="fill:#4e89ad"/><circle cx="223.72" cy="538.39" r="13.09" transform="translate(-343.55 672.98) rotate(-80.78)" style="fill:#36708e"/><path d="M228.17,538.39a4.45,4.45,0,1,1-4.45-4.45A4.44,4.44,0,0,1,228.17,538.39Z" style="fill:#cecece"/><circle cx="843.17" cy="538.39" r="31.3" transform="translate(-133.74 753.9) rotate(-45)" style="fill:#3f3f3f"/><path d="M834.36,508.36a31.31,31.31,0,0,0-22.5,30c0,.56.06,1.1.09,1.65l31.22-1.65Z" style="fill:#fff"/><circle cx="843.17" cy="538.39" r="29.3" transform="translate(-133.74 753.9) rotate(-45)" style="fill:#232323"/><circle cx="843.17" cy="538.39" r="17.07" style="fill:#4e89ad"/><circle cx="843.17" cy="538.39" r="13.09" transform="translate(-133.74 753.9) rotate(-45)" style="fill:#36708e"/><path d="M847.61,538.39a4.45,4.45,0,1,1-4.44-4.45A4.44,4.44,0,0,1,847.61,538.39Z" style="fill:#cecece"/><path d="M400.2,333.72a47.85,47.85,0,0,1-6.08-.39L253.83,315.12a2,2,0,0,1,.52-4l140.29,18.21a43.12,43.12,0,0,0,37.56-13.87l5.58-6.18a17.95,17.95,0,0,0-1.56-25.58,111.43,111.43,0,0,0-56.91-26.09l-20.77-3.05a2,2,0,0,1,.58-4l20.78,3.05a115.51,115.51,0,0,1,59,27A22,22,0,0,1,440.77,312l-5.58,6.18A47.15,47.15,0,0,1,400.2,333.72Z" style="fill:#2d2d2d"/><rect x="214.35" y="482.26" width="32.36" height="2.85" style="fill:#e8e8e8"/><path d="M1197.39,264.16,1162.81,255a337.88,337.88,0,0,0-192.94,5.9h0c-.94.31-1.89.61-2.83.93a10.66,10.66,0,0,0-7.24,10.08h0v63.42a10.68,10.68,0,0,0,.36,2.72,10.3,10.3,0,0,0,1.19,2.79,10.72,10.72,0,0,0,2.73,3,11,11,0,0,0,3,1.55l.67.22,2.16.72h0q11.93,3.95,24.07,7,10,2.51,20,4.39l2.24.42q7.89,1.41,15.83,2.46l2.77.36q14.58,1.8,29.26,2.33,3.29.12,6.57.17a338.21,338.21,0,0,0,62.75-4.83c3.33-.58,6.64-1.2,9.95-1.87q7.5-1.51,14.94-3.38l4.51-1.15,34.58-9.17a7,7,0,0,0,1.19-.43,7.61,7.61,0,0,0,4.45-6.9V271.49A7.59,7.59,0,0,0,1197.39,264.16Z" style="fill:#161616;mix-blend-mode:multiply;opacity:0.30000000000000004"/><path d="M1157,246.29a338,338,0,0,0-195.77,6.84A10.65,10.65,0,0,0,954,263.2v63.42a10.65,10.65,0,0,0,7.24,10.07A338,338,0,0,0,1157,343.53l34.58-9.17a7.59,7.59,0,0,0,5.64-7.33V262.78a7.6,7.6,0,0,0-5.64-7.33Z" style="fill:#fff"/><path d="M1185.24,317.69a455.25,455.25,0,0,1-231.28.54v8.39a10.65,10.65,0,0,0,7.24,10.07A338,338,0,0,0,1157,343.53l34.58-9.17a7.59,7.59,0,0,0,5.64-7.33v-12.5Z" style="fill:#ededed"/><path d="M964,252.19l-2.83.94A10.65,10.65,0,0,0,954,263.2v63.42a10.65,10.65,0,0,0,7.24,10.07l2.83.94Z" style="fill:#c4c4c4"/><path d="M527.61,442.24H473.37a17.7,17.7,0,0,1-17.68-17.67V268.35a17.7,17.7,0,0,1,17.68-17.67h54.24a17.69,17.69,0,0,1,17.67,17.67V424.57A17.69,17.69,0,0,1,527.61,442.24ZM473.37,254.46a13.91,13.91,0,0,0-13.9,13.89V424.57a13.91,13.91,0,0,0,13.9,13.89h54.24a13.9,13.9,0,0,0,13.89-13.89V268.35a13.9,13.9,0,0,0-13.89-13.89Z" style="fill:#bcbcbc"/><rect x="468.72" y="336.21" width="17.8" height="20.51" rx="2.63" style="fill:#adadad"/><rect x="469.35" y="337.5" width="6.15" height="17.92" rx="2.15" style="fill:#2d2d2d"/><rect x="479.73" y="337.5" width="6.15" height="17.92" rx="2.15" style="fill:#2d2d2d"/><path d="M915,467.88l-167.31-22-106.86,22,83,31.11H772.6a818.42,818.42,0,0,0,165-16.8Z" style="fill:#161616;mix-blend-mode:multiply;opacity:0.30000000000000004"/><path d="M626,453.06h0a14.83,14.83,0,0,1,12.56-14.65L960.3,388.54h153L915,467.88H640.79A14.83,14.83,0,0,1,626,453.06Z" style="fill:#fff"/><path d="M915,467.88l166.45-66.58H970.75a66,66,0,0,0-13.3,1.35l-269.8,55.58c-5.75,1.18-4.89,9.65,1,9.65Z" style="fill:#d3d3d3"/><polygon points="1397.85 39.64 1520.81 66.12 1523.73 58.26 1573.92 47.73 1581.63 34.35 1397.85 39.64" style="fill:#161616;mix-blend-mode:multiply;opacity:0.30000000000000004"/><path d="M1631,39.64H1397.85a7.69,7.69,0,0,1-7.69-7.69h0a7.69,7.69,0,0,1,7.69-7.69H1631a7.69,7.69,0,0,1,7.69,7.69h0A7.69,7.69,0,0,1,1631,39.64Z" style="fill:#c1c1c1"/><path d="M1508.71,32.48h-11.25a3,3,0,1,1,0-6h11.25a3,3,0,0,1,0,6Z" style="fill:#fff"/><path d="M1483.86,32.48H1399a3,3,0,1,1,0-6h84.86a3,3,0,1,1,0,6Z" style="fill:#fff"/><path d="M1360,69.14a3,3,0,0,1-2.23-5.06l9.63-10.54a3,3,0,0,1,4.46,4.08l-9.63,10.53A3,3,0,0,1,1360,69.14Z" style="fill:#fff"/><path d="M1282.42,154.05a3,3,0,0,1-2.23-5.06l63.14-69.1a3,3,0,0,1,4.46,4.08l-63.14,69.1A3,3,0,0,1,1282.42,154.05Z" style="fill:#fff"/><path d="M847.24,241.67H824.07a3,3,0,0,1,0-6h23.17a3,3,0,0,1,0,6Z" style="fill:#fff"/><path d="M784,241.67H633a3,3,0,1,1,0-6H784a3,3,0,0,1,0,6Z" style="fill:#fff"/><path d="M80.33,373.29a3,3,0,0,1-.8-5.93l75-20.86a3,3,0,0,1,1.62,5.82l-75,20.86A2.82,2.82,0,0,1,80.33,373.29Z" style="fill:#fff"/><path d="M619.7,283.91a21.32,21.32,0,1,0-42.64,0v22.67a21.15,21.15,0,0,0,2.56,10.1l40.08-27.75Z" style="fill:#fff;opacity:0.5"/><path d="M709,283.91a21.32,21.32,0,1,0-42.63,0v22.67a21.15,21.15,0,0,0,2.56,10.1L709,288.93Z" style="fill:#fff;opacity:0.5"/><path d="M798.31,283.91a21.32,21.32,0,1,0-42.64,0v22.67a21.15,21.15,0,0,0,2.56,10.1l40.08-27.75Z" style="fill:#fff;opacity:0.5"/></g></g></g></svg>