<svg xmlns="http://www.w3.org/2000/svg" viewBox="0 0 4436.14 1469.96"><g id="Layer_2" data-name="Layer 2"><g id="_ÎÓÈ_1" data-name="—ÎÓÈ_1"><rect x="300.36" y="1353.13" width="17.98" height="38.12" style="fill:#ccc"/><rect x="312.32" y="1353.13" width="6.02" height="38.12" style="fill:#b5b5b5"/><rect x="300.36" y="1353.13" width="17.98" height="3.95" style="fill:#b5b5b5"/><rect x="269.42" y="1287.08" width="91.63" height="59.38" style="fill:#b2b2b2"/><rect x="267.62" y="1346.46" width="95.23" height="7.83" style="fill:#d1d1d1"/><rect x="267.62" y="1349.35" width="95.23" height="2.06" style="fill:#a0a0a0"/><circle cx="309.35" cy="1427.19" r="42.77" transform="translate(-535.82 236.28) rotate(-23.13)" style="fill:#3f3f3f"/><path d="M297.31,1386.16a42.78,42.78,0,0,0-30.74,41c0,.76.08,1.51.12,2.26l42.66-2.26Z" style="fill:#fff"/><circle cx="309.35" cy="1427.19" r="40.04" transform="translate(-534.96 235.67) rotate(-23.09)" style="fill:#232323"/><circle cx="309.35" cy="1427.19" r="23.33" transform="translate(-1148.87 1505.64) rotate(-80.85)" style="fill:#cecece"/><circle cx="309.35" cy="1427.19" r="17.88" transform="translate(-918.57 636.76) rotate(-45)" style="fill:#898989"/><path d="M315.42,1427.19a6.08,6.08,0,1,1-6.07-6.08A6.07,6.07,0,0,1,315.42,1427.19Z" style="fill:#cecece"/><polygon points="269.42 1312.22 361.04 1327.12 361.04 1287.08 269.42 1287.08 269.42 1312.22" style="fill:#919191"/><rect x="2303.34" y="1303.03" width="18.25" height="104.8" transform="translate(-323.55 869.54) rotate(-19.93)" style="fill:#adadad"/><rect x="2349.81" y="1289.91" width="17.54" height="121.88" transform="translate(551.87 -679.79) rotate(18.54)" style="fill:#ccc"/><rect x="2360.84" y="1291.71" width="6.21" height="121.88" transform="translate(552.7 -681.38) rotate(18.54)" style="fill:#b7b7b7"/><rect x="2235.41" y="1409.31" width="98.45" height="14.14" style="fill:#afafaf"/><rect x="2235.41" y="1418.83" width="98.45" height="4.62" style="fill:#adadad"/><rect x="2338.91" y="1409.31" width="98.45" height="14.14" style="fill:#afafaf"/><rect x="2338.91" y="1418.83" width="98.45" height="4.62" style="fill:#adadad"/><circle cx="2233.58" cy="1427.19" r="42.77" transform="translate(-381.1 992.24) rotate(-23.13)" style="fill:#3f3f3f"/><path d="M2221.54,1386.16a42.78,42.78,0,0,0-30.73,41c0,.76.07,1.51.11,2.26l42.66-2.26Z" style="fill:#fff"/><circle cx="2233.58" cy="1427.19" r="40.04" transform="translate(-380.79 990.35) rotate(-23.09)" style="fill:#232323"/><circle cx="2233.58" cy="1427.19" r="23.33" transform="translate(469.36 3405.39) rotate(-80.85)" style="fill:#cecece"/><circle cx="2233.58" cy="1427.19" r="17.88" transform="translate(-354.97 1997.4) rotate(-45)" style="fill:#898989"/><path d="M2239.66,1427.19a6.08,6.08,0,1,1-6.08-6.08A6.08,6.08,0,0,1,2239.66,1427.19Z" style="fill:#cecece"/><circle cx="2436.92" cy="1427.19" r="42.77" transform="translate(-364.75 1072.12) rotate(-23.13)" style="fill:#3f3f3f"/><path d="M2424.88,1386.16a42.77,42.77,0,0,0-30.73,41c0,.76.07,1.51.11,2.26l42.66-2.26Z" style="fill:#fff"/><circle cx="2436.92" cy="1427.19" r="40.04" transform="translate(-364.5 1070.1) rotate(-23.09)" style="fill:#232323"/><circle cx="2436.92" cy="1427.19" r="23.33" transform="translate(640.36 3606.14) rotate(-80.85)" style="fill:#cecece"/><circle cx="2436.92" cy="1427.19" r="17.88" transform="translate(639.77 3605.65) rotate(-80.83)" style="fill:#898989"/><path d="M2443,1427.19a6.08,6.08,0,1,1-6.08-6.08A6.08,6.08,0,0,1,2443,1427.19Z" style="fill:#cecece"/><circle cx="2335.25" cy="1427.19" r="42.77" transform="translate(417.99 3380.23) rotate(-76.96)" style="fill:#3f3f3f"/><path d="M2323.21,1386.16a42.77,42.77,0,0,0-30.73,41c0,.76.07,1.51.11,2.26l42.66-2.26Z" style="fill:#fff"/><circle cx="2335.25" cy="1427.19" r="40.04" transform="translate(417.47 3379.72) rotate(-76.95)" style="fill:#232323"/><circle cx="2335.25" cy="1427.19" r="23.33" transform="translate(414.26 3376.56) rotate(-76.85)" style="fill:#cecece"/><circle cx="2335.25" cy="1427.19" r="17.88" transform="translate(413.2 3375.52) rotate(-76.82)" style="fill:#898989"/><path d="M2341.33,1427.19a6.08,6.08,0,1,1-6.08-6.08A6.08,6.08,0,0,1,2341.33,1427.19Z" style="fill:#cecece"/><path d="M51.41,1082.81l57.89-33.66L149.68,1010A625.74,625.74,0,0,1,527.44,836.15l49-4.55q206.91-19.2,414.92-19.21H3363.76L4076.82,48A150.79,150.79,0,0,1,4187.11,0h208.2a9.72,9.72,0,0,1,8.85,13.77L4000.8,896.66l265.86,30.09V1015l-828.18,222.22A3312.83,3312.83,0,0,1,2674,1349.12l-317.44,9L562.31,1327.07a2313.23,2313.23,0,0,1-331-29.6L86.75,1274C-8.92,1258.42-32.37,1131.53,51.41,1082.81Z" style="fill:#ddd"/><path d="M15,1225.88C29.33,1250,53.74,1268.6,86.75,1274l144.58,23.5a2313.23,2313.23,0,0,0,331,29.6l1794.21,31.07,317.44-9a3312.83,3312.83,0,0,0,764.52-111.86l42.41-11.38Z" style="fill:#c6c6c6"/><path d="M2665.44,1344.19l-317.45,9L553.78,1322.14a2311.53,2311.53,0,0,1-331-29.61L78.22,1269a106,106,0,0,1-31.66-10.32A104.33,104.33,0,0,0,86.75,1274l144.58,23.5a2313.23,2313.23,0,0,0,331,29.6l1794.21,31.07,317.44-9a3312.83,3312.83,0,0,0,764.52-111.86l42.41-11.38C3231.29,1292.86,2923.77,1336.85,2665.44,1344.19Z" style="fill:#b5b5b5"/><path d="M3363.76,812.39H991.37q-207.79,0-414.93,19.21l-49,4.55q-5.34.5-10.87,1.28c-112,15.87-100.22,181.35,12.93,181.35H4252.7l14-3.74V926.75L4000.8,896.66Z" style="fill:#fff;opacity:0.8"/><polygon points="2005.62 812.38 725.85 1329.9 966.56 1334.07 2490.38 812.38 2005.62 812.38" style="fill:#ff865c"/><polygon points="2911.6 812.38 2724.71 812.38 1184.65 1337.85 1207.64 1338.25 2911.6 812.38" style="fill:#ff865c"/><path d="M4280,0,3926.52,577.42h220.13L4404.16,13.77A9.72,9.72,0,0,0,4395.31,0Z" style="fill:#b7b7b7"/><polygon points="3931.04 574.91 3751.36 868.29 4000.8 896.66 4147.8 574.91 3931.04 574.91" style="fill:#b7b7b7"/><path d="M220.18,979.64a6,6,0,0,1-3.64-10.82,630.21,630.21,0,0,1,191.69-99.28A6,6,0,0,1,411.86,881a618,618,0,0,0-188,97.39A6,6,0,0,1,220.18,979.64Z" style="fill:#fff"/><polygon points="4053.57 1018.22 3819.45 1018.22 3672.59 1036.8 3945.71 1101.16 4157.94 1044.21 4053.57 1018.22" style="fill:#262626;opacity:0.5"/><path d="M3937.14,572.18l346-569.58a4.91,4.91,0,0,0,.72-2.6H4273L3749.68,861.4a5,5,0,0,0,1.68,6.89,4.93,4.93,0,0,0,2.6.73,5,5,0,0,0,4.29-2.41L3931,582.21h213.42l4.38-9.57a5,5,0,0,0-2.08-.46Z" style="fill:#adadad"/><path d="M2527.34,1353.29l168.42-22.68q1.66-.22,3.3-.51c85.81-14.9,75.74-141.87-11.3-144.95l-734.23-26L1168,1171.71V1241a96.82,96.82,0,0,0,95,96.79l1093.53,20.31Z" style="fill:#efefef"/><path d="M2691.1,1185.34c29.79,39,17.48,107-43.89,117.62-1.09.18-2.19.35-3.3.5l-168.42,22.68L2304.67,1331l-1093.54-20.31a96.9,96.9,0,0,1-15.05-1.46,96.47,96.47,0,0,0,66.91,28.6l1093.53,20.31,170.82-4.85,168.42-22.68q1.66-.22,3.3-.51C2783.76,1315.39,2775,1191.51,2691.1,1185.34Z" style="fill:#d6d6d6"/><path d="M3581.89,973.33l558.63-82.19h295.62l-382.56,127.08L3768.23,1041a388,388,0,0,1-191.16-33.4h0C3560.68,1000.17,3564.09,976,3581.89,973.33Z" style="fill:#e2e2e2"/><path d="M47.4,1085.26v174q3.85,2.43,8,4.54V1080.48l-4,2.33C50,1083.6,48.71,1084.42,47.4,1085.26Z" style="fill:#adadad"/><path d="M789.09,1299.45H625.23a16.4,16.4,0,0,1-16.39-16.38V1168.7a16.41,16.41,0,0,1,16.39-16.39H789.09a16.41,16.41,0,0,1,16.38,16.39v114.37A16.4,16.4,0,0,1,789.09,1299.45ZM625.23,1158.33a10.38,10.38,0,0,0-10.37,10.37v114.37a10.38,10.38,0,0,0,10.37,10.36H789.09a10.37,10.37,0,0,0,10.36-10.36V1168.7a10.38,10.38,0,0,0-10.36-10.37Z" style="fill:#adadad"/><path d="M408.78,1161.18H355.11a15.32,15.32,0,0,1-15.3-15.3V1039a15.32,15.32,0,0,1,15.3-15.3h53.67a15.32,15.32,0,0,1,15.3,15.3v106.85A15.32,15.32,0,0,1,408.78,1161.18Zm-53.67-131.43a9.29,9.29,0,0,0-9.28,9.28v106.85a9.29,9.29,0,0,0,9.28,9.28h53.67a9.29,9.29,0,0,0,9.28-9.28V1039a9.29,9.29,0,0,0-9.28-9.28Z" style="fill:#adadad"/><path d="M1016.73,1161.18H963.06a15.33,15.33,0,0,1-15.3-15.3V1039a15.33,15.33,0,0,1,15.3-15.3h53.67A15.32,15.32,0,0,1,1032,1039v106.85A15.32,15.32,0,0,1,1016.73,1161.18Zm-53.67-131.43a9.3,9.3,0,0,0-9.28,9.28v106.85a9.3,9.3,0,0,0,9.28,9.28h53.67a9.29,9.29,0,0,0,9.28-9.28V1039a9.29,9.29,0,0,0-9.28-9.28Z" style="fill:#adadad"/><path d="M1294.23,988.36h-54.47a14.82,14.82,0,0,1-14.8-14.81V874.28a14.82,14.82,0,0,1,14.8-14.81h54.47A14.83,14.83,0,0,1,1309,874.28v99.27A14.83,14.83,0,0,1,1294.23,988.36Zm-54.47-123.07a9,9,0,0,0-9,9v99.27a9,9,0,0,0,9,9h54.47a9,9,0,0,0,9-9V874.28a9,9,0,0,0-9-9Z" style="fill:#adadad"/><path d="M2464.15,988.36h-54.46a14.82,14.82,0,0,1-14.81-14.81V874.28a14.82,14.82,0,0,1,14.81-14.81h54.46A14.82,14.82,0,0,1,2479,874.28v99.27A14.82,14.82,0,0,1,2464.15,988.36Zm-54.46-123.07a9,9,0,0,0-9,9v99.27a9,9,0,0,0,9,9h54.46a9,9,0,0,0,9-9V874.28a9,9,0,0,0-9-9Z" style="fill:#adadad"/><path d="M3012,988.36h-54.47a14.82,14.82,0,0,1-14.8-14.81V874.28a14.82,14.82,0,0,1,14.8-14.81H3012a14.83,14.83,0,0,1,14.81,14.81v99.27A14.83,14.83,0,0,1,3012,988.36Zm-54.47-123.07a9,9,0,0,0-9,9v99.27a9,9,0,0,0,9,9H3012a9,9,0,0,0,9-9V874.28a9,9,0,0,0-9-9Z" style="fill:#adadad"/><path d="M3280,1154.89H3225.5a14.82,14.82,0,0,1-14.8-14.8v-99.28a14.82,14.82,0,0,1,14.8-14.8H3280a14.82,14.82,0,0,1,14.8,14.8v99.28A14.82,14.82,0,0,1,3280,1154.89Zm-54.47-123.06a9,9,0,0,0-9,9v99.28a9,9,0,0,0,9,9H3280a9,9,0,0,0,9-9v-99.28a9,9,0,0,0-9-9Z" style="fill:#adadad"/><path d="M2005.41,1161.18h-53.67a15.32,15.32,0,0,1-15.3-15.3V1039a15.32,15.32,0,0,1,15.3-15.3h53.67a15.32,15.32,0,0,1,15.3,15.3v106.85A15.32,15.32,0,0,1,2005.41,1161.18Zm-53.67-131.43a9.29,9.29,0,0,0-9.28,9.28v106.85a9.29,9.29,0,0,0,9.28,9.28h53.67a9.29,9.29,0,0,0,9.28-9.28V1039a9.29,9.29,0,0,0-9.28-9.28Z" style="fill:#adadad"/><rect x="466.55" y="1070.72" width="24.08" height="33.44" rx="3.93" style="fill:#2d2d2d"/><rect x="505.05" y="1070.72" width="24.08" height="33.44" rx="3.93" style="fill:#2d2d2d"/><rect x="543.55" y="1070.72" width="24.08" height="33.44" rx="3.93" style="fill:#2d2d2d"/><rect x="582.05" y="1070.72" width="24.08" height="33.44" rx="3.93" style="fill:#2d2d2d"/><rect x="620.55" y="1070.72" width="24.08" height="33.44" rx="3.93" style="fill:#2d2d2d"/><rect x="659.04" y="1070.72" width="24.08" height="33.44" rx="3.93" style="fill:#2d2d2d"/><rect x="697.54" y="1070.72" width="24.08" height="33.44" rx="3.93" style="fill:#2d2d2d"/><rect x="736.04" y="1070.72" width="24.08" height="33.44" rx="3.93" style="fill:#2d2d2d"/><rect x="774.54" y="1070.72" width="24.08" height="33.44" rx="3.93" style="fill:#2d2d2d"/><rect x="813.04" y="1070.72" width="24.08" height="33.44" rx="3.93" style="fill:#2d2d2d"/><rect x="771.4" y="910.2" width="24.08" height="27.42" rx="6.25" style="fill:#2d2d2d"/><rect x="810.78" y="910.2" width="24.08" height="27.42" rx="6.25" style="fill:#2d2d2d"/><rect x="850.16" y="910.2" width="24.08" height="27.42" rx="6.25" style="fill:#2d2d2d"/><rect x="889.53" y="910.2" width="24.08" height="27.42" rx="6.25" style="fill:#2d2d2d"/><rect x="928.91" y="910.2" width="24.08" height="27.42" rx="6.25" style="fill:#2d2d2d"/><rect x="968.29" y="910.2" width="24.08" height="27.42" rx="6.25" style="fill:#2d2d2d"/><rect x="1007.66" y="910.2" width="24.08" height="27.42" rx="6.25" style="fill:#2d2d2d"/><rect x="1047.04" y="910.2" width="24.08" height="27.42" rx="6.25" style="fill:#2d2d2d"/><rect x="1086.42" y="910.2" width="24.08" height="27.42" rx="6.25" style="fill:#2d2d2d"/><rect x="1125.79" y="910.2" width="24.08" height="27.42" rx="6.25" style="fill:#2d2d2d"/><rect x="1165.17" y="910.2" width="24.08" height="27.42" rx="6.25" style="fill:#2d2d2d"/><rect x="1356.03" y="910.2" width="24.08" height="27.42" rx="6.25" style="fill:#2d2d2d"/><rect x="1395.41" y="910.2" width="24.08" height="27.42" rx="6.25" style="fill:#2d2d2d"/><rect x="1434.79" y="910.2" width="24.08" height="27.42" rx="6.25" style="fill:#2d2d2d"/><rect x="1474.16" y="910.2" width="24.08" height="27.42" rx="6.25" style="fill:#2d2d2d"/><rect x="1513.54" y="910.2" width="24.08" height="27.42" rx="6.25" style="fill:#2d2d2d"/><rect x="1552.92" y="910.2" width="24.08" height="27.42" rx="6.25" style="fill:#2d2d2d"/><rect x="1592.29" y="910.2" width="24.08" height="27.42" rx="6.25" style="fill:#2d2d2d"/><rect x="1631.67" y="910.2" width="24.08" height="27.42" rx="6.25" style="fill:#2d2d2d"/><rect x="1671.05" y="910.2" width="24.08" height="27.42" rx="6.25" style="fill:#2d2d2d"/><rect x="1710.42" y="910.2" width="24.08" height="27.42" rx="6.25" style="fill:#2d2d2d"/><rect x="1749.8" y="910.2" width="24.08" height="27.42" rx="6.25" style="fill:#2d2d2d"/><rect x="1789.17" y="910.2" width="24.08" height="27.42" rx="6.25" style="fill:#2d2d2d"/><rect x="1828.55" y="910.2" width="24.08" height="27.42" rx="6.25" style="fill:#2d2d2d"/><rect x="1867.93" y="910.2" width="24.08" height="27.42" rx="6.25" style="fill:#2d2d2d"/><rect x="1907.3" y="910.2" width="24.08" height="27.42" rx="6.25" style="fill:#2d2d2d"/><rect x="1946.68" y="910.2" width="24.08" height="27.42" rx="6.25" style="fill:#2d2d2d"/><rect x="1986.06" y="910.2" width="24.08" height="27.42" rx="6.25" style="fill:#2d2d2d"/><rect x="2025.43" y="910.2" width="24.08" height="27.42" rx="6.25" style="fill:#2d2d2d"/><rect x="2064.81" y="910.2" width="24.08" height="27.42" rx="6.25" style="fill:#2d2d2d"/><rect x="2104.19" y="910.2" width="24.08" height="27.42" rx="6.25" style="fill:#2d2d2d"/><rect x="2143.56" y="910.2" width="24.08" height="27.42" rx="6.25" style="fill:#2d2d2d"/><rect x="2182.94" y="910.2" width="24.08" height="27.42" rx="6.25" style="fill:#2d2d2d"/><rect x="2222.32" y="910.2" width="24.08" height="27.42" rx="6.25" style="fill:#2d2d2d"/><rect x="2261.69" y="910.2" width="24.08" height="27.42" rx="6.25" style="fill:#2d2d2d"/><rect x="2301.07" y="910.2" width="24.08" height="27.42" rx="6.25" style="fill:#2d2d2d"/><rect x="2340.45" y="910.2" width="24.08" height="27.42" rx="6.25" style="fill:#2d2d2d"/><rect x="2527.05" y="910.2" width="24.08" height="27.42" rx="6.25" style="fill:#2d2d2d"/><rect x="2566.42" y="910.2" width="24.08" height="27.42" rx="6.25" style="fill:#2d2d2d"/><rect x="2605.8" y="910.2" width="24.08" height="27.42" rx="6.25" style="fill:#2d2d2d"/><rect x="2645.18" y="910.2" width="24.08" height="27.42" rx="6.25" style="fill:#2d2d2d"/><rect x="2684.55" y="910.2" width="24.08" height="27.42" rx="6.25" style="fill:#2d2d2d"/><rect x="2723.93" y="910.2" width="24.08" height="27.42" rx="6.25" style="fill:#2d2d2d"/><rect x="2763.3" y="910.2" width="24.08" height="27.42" rx="6.25" style="fill:#2d2d2d"/><rect x="2802.68" y="910.2" width="24.08" height="27.42" rx="6.25" style="fill:#2d2d2d"/><rect x="2842.06" y="910.2" width="24.08" height="27.42" rx="6.25" style="fill:#2d2d2d"/><rect x="2881.43" y="910.2" width="24.08" height="27.42" rx="6.25" style="fill:#2d2d2d"/><rect x="3071.15" y="910.2" width="24.08" height="27.42" rx="6.25" style="fill:#2d2d2d"/><rect x="3110.53" y="910.2" width="24.08" height="27.42" rx="6.25" style="fill:#2d2d2d"/><rect x="3149.9" y="910.2" width="24.08" height="27.42" rx="6.25" style="fill:#2d2d2d"/><rect x="3189.28" y="910.2" width="24.08" height="27.42" rx="6.25" style="fill:#2d2d2d"/><rect x="3228.66" y="910.2" width="24.08" height="27.42" rx="6.25" style="fill:#2d2d2d"/><rect x="1749.8" y="910.2" width="24.08" height="27.42" rx="6.25" style="fill:#2d2d2d"/><rect x="851.54" y="1070.72" width="24.08" height="33.44" rx="3.93" style="fill:#2d2d2d"/><rect x="890.04" y="1070.72" width="24.08" height="33.44" rx="3.93" style="fill:#2d2d2d"/><rect x="1074.5" y="1070.72" width="24.08" height="33.44" rx="3.93" style="fill:#2d2d2d"/><rect x="1113" y="1070.72" width="24.08" height="33.44" rx="3.93" style="fill:#2d2d2d"/><rect x="1151.5" y="1070.72" width="24.08" height="33.44" rx="3.93" style="fill:#2d2d2d"/><rect x="1190" y="1070.72" width="24.08" height="33.44" rx="3.93" style="fill:#2d2d2d"/><rect x="1228.5" y="1070.72" width="24.08" height="33.44" rx="3.93" style="fill:#2d2d2d"/><rect x="1267" y="1070.72" width="24.08" height="33.44" rx="3.93" style="fill:#2d2d2d"/><rect x="1305.5" y="1070.72" width="24.08" height="33.44" rx="3.93" style="fill:#2d2d2d"/><rect x="1343.99" y="1070.72" width="24.08" height="33.44" rx="3.93" style="fill:#2d2d2d"/><rect x="1382.49" y="1070.72" width="24.08" height="33.44" rx="3.93" style="fill:#2d2d2d"/><rect x="1420.99" y="1070.72" width="24.08" height="33.44" rx="3.93" style="fill:#2d2d2d"/><rect x="1459.49" y="1070.72" width="24.08" height="33.44" rx="3.93" style="fill:#2d2d2d"/><rect x="1497.99" y="1070.72" width="24.08" height="33.44" rx="3.93" style="fill:#2d2d2d"/><rect x="1536.49" y="1070.72" width="24.08" height="33.44" rx="3.93" style="fill:#2d2d2d"/><rect x="1574.99" y="1070.72" width="24.08" height="33.44" rx="3.93" style="fill:#2d2d2d"/><rect x="1613.49" y="1070.72" width="24.08" height="33.44" rx="3.93" style="fill:#2d2d2d"/><rect x="1651.98" y="1070.72" width="24.08" height="33.44" rx="3.93" style="fill:#2d2d2d"/><rect x="1690.48" y="1070.72" width="24.08" height="33.44" rx="3.93" style="fill:#2d2d2d"/><rect x="1728.98" y="1070.72" width="24.08" height="33.44" rx="3.93" style="fill:#2d2d2d"/><rect x="1767.48" y="1070.72" width="24.08" height="33.44" rx="3.93" style="fill:#2d2d2d"/><rect x="1805.98" y="1070.72" width="24.08" height="33.44" rx="3.93" style="fill:#2d2d2d"/><rect x="2682.55" y="1070.72" width="24.08" height="33.44" rx="3.93" style="fill:#2d2d2d"/><rect x="2721.04" y="1070.72" width="24.08" height="33.44" rx="3.93" style="fill:#2d2d2d"/><rect x="2759.54" y="1070.72" width="24.08" height="33.44" rx="3.93" style="fill:#2d2d2d"/><rect x="2798.04" y="1070.72" width="24.08" height="33.44" rx="3.93" style="fill:#2d2d2d"/><rect x="2836.54" y="1070.72" width="24.08" height="33.44" rx="3.93" style="fill:#2d2d2d"/><rect x="2875.04" y="1070.72" width="24.08" height="33.44" rx="3.93" style="fill:#2d2d2d"/><rect x="2913.54" y="1070.72" width="24.08" height="33.44" rx="3.93" style="fill:#2d2d2d"/><rect x="2952.04" y="1070.72" width="24.08" height="33.44" rx="3.93" style="fill:#2d2d2d"/><rect x="2990.53" y="1070.72" width="24.08" height="33.44" rx="3.93" style="fill:#2d2d2d"/><rect x="3029.03" y="1070.72" width="24.08" height="33.44" rx="3.93" style="fill:#2d2d2d"/><rect x="3067.53" y="1070.72" width="24.08" height="33.44" rx="3.93" style="fill:#2d2d2d"/><rect x="3106.03" y="1070.72" width="24.08" height="33.44" rx="3.93" style="fill:#2d2d2d"/><rect x="3144.53" y="1070.72" width="24.08" height="33.44" rx="3.93" style="fill:#2d2d2d"/><path d="M1652,1097.38l24.08-16v-6.71a3.93,3.93,0,0,0-3.93-3.93h-16.22a3.93,3.93,0,0,0-3.93,3.93Z" style="fill:#fff;opacity:0.30000000000000004"/><path d="M1690.48,1097.38l24.08-16v-6.71a3.93,3.93,0,0,0-3.93-3.93h-16.22a3.93,3.93,0,0,0-3.93,3.93Z" style="fill:#fff;opacity:0.30000000000000004"/><path d="M1729,1097.38l24.08-16v-6.71a3.93,3.93,0,0,0-3.93-3.93h-16.22a3.93,3.93,0,0,0-3.93,3.93Z" style="fill:#fff;opacity:0.30000000000000004"/><path d="M1767.48,1097.38l24.08-16v-6.71a3.93,3.93,0,0,0-3.93-3.93h-16.22a3.93,3.93,0,0,0-3.93,3.93Z" style="fill:#fff;opacity:0.30000000000000004"/><path d="M1806,1097.38l24.08-16v-6.71a3.93,3.93,0,0,0-3.93-3.93h-16.22a3.93,3.93,0,0,0-3.93,3.93Z" style="fill:#fff;opacity:0.30000000000000004"/><path d="M3144.53,1097.38l24.08-16v-6.71a3.93,3.93,0,0,0-3.93-3.93h-16.22a3.93,3.93,0,0,0-3.93,3.93Z" style="fill:#fff;opacity:0.30000000000000004"/><path d="M3106,1097.38l24.08-16v-6.71a3.93,3.93,0,0,0-3.93-3.93H3110a3.93,3.93,0,0,0-3.93,3.93Z" style="fill:#fff;opacity:0.30000000000000004"/><path d="M3067.53,1097.38l24.08-16v-6.71a3.93,3.93,0,0,0-3.93-3.93h-16.22a3.93,3.93,0,0,0-3.93,3.93Z" style="fill:#fff;opacity:0.30000000000000004"/><path d="M3029,1097.38l24.08-16v-6.71a3.93,3.93,0,0,0-3.93-3.93H3033a3.93,3.93,0,0,0-3.93,3.93Z" style="fill:#fff;opacity:0.30000000000000004"/><path d="M2990.53,1097.38l24.08-16v-6.71a3.93,3.93,0,0,0-3.93-3.93h-16.22a3.93,3.93,0,0,0-3.93,3.93Z" style="fill:#fff;opacity:0.30000000000000004"/><path d="M2952,1097.38l24.07-16v-6.71a3.93,3.93,0,0,0-3.93-3.93H2956a3.93,3.93,0,0,0-3.93,3.93Z" style="fill:#fff;opacity:0.30000000000000004"/><path d="M2913.54,1097.38l24.07-16v-6.71a3.92,3.92,0,0,0-3.92-3.93h-16.22a3.93,3.93,0,0,0-3.93,3.93Z" style="fill:#fff;opacity:0.30000000000000004"/><path d="M2875,1097.38l24.08-16v-6.71a3.93,3.93,0,0,0-3.93-3.93H2879a3.93,3.93,0,0,0-3.93,3.93Z" style="fill:#fff;opacity:0.30000000000000004"/><path d="M2836.54,1097.38l24.08-16v-6.71a3.93,3.93,0,0,0-3.93-3.93h-16.22a3.93,3.93,0,0,0-3.93,3.93Z" style="fill:#fff;opacity:0.30000000000000004"/><path d="M2798,1097.38l24.08-16v-6.71a3.93,3.93,0,0,0-3.93-3.93H2802a3.93,3.93,0,0,0-3.93,3.93Z" style="fill:#fff;opacity:0.30000000000000004"/><path d="M795.48,917.72v-1.27a6.25,6.25,0,0,0-6.25-6.25H777.65a6.25,6.25,0,0,0-6.25,6.25v13.69Z" style="fill:#fff;opacity:0.30000000000000004"/><path d="M834.86,917.72v-1.27a6.25,6.25,0,0,0-6.25-6.25H817a6.25,6.25,0,0,0-6.25,6.25v13.69Z" style="fill:#fff;opacity:0.30000000000000004"/><path d="M874.24,917.72v-1.27A6.25,6.25,0,0,0,868,910.2H856.41a6.25,6.25,0,0,0-6.25,6.25v13.69Z" style="fill:#fff;opacity:0.30000000000000004"/><path d="M913.61,917.72v-1.27a6.25,6.25,0,0,0-6.25-6.25H895.78a6.24,6.24,0,0,0-6.24,6.25v13.69Z" style="fill:#fff;opacity:0.30000000000000004"/><path d="M953,917.72v-1.27a6.25,6.25,0,0,0-6.25-6.25H935.16a6.25,6.25,0,0,0-6.25,6.25v13.69Z" style="fill:#fff;opacity:0.30000000000000004"/><path d="M992.37,917.72v-1.27a6.25,6.25,0,0,0-6.25-6.25H974.54a6.25,6.25,0,0,0-6.25,6.25v13.69Z" style="fill:#fff;opacity:0.30000000000000004"/><path d="M1031.74,917.72v-1.27a6.25,6.25,0,0,0-6.25-6.25h-11.58a6.24,6.24,0,0,0-6.24,6.25v13.69Z" style="fill:#fff;opacity:0.30000000000000004"/><path d="M1071.12,917.72v-1.27a6.25,6.25,0,0,0-6.25-6.25h-11.58a6.25,6.25,0,0,0-6.25,6.25v13.69Z" style="fill:#fff;opacity:0.30000000000000004"/><path d="M1110.5,917.72v-1.27a6.25,6.25,0,0,0-6.25-6.25h-11.58a6.25,6.25,0,0,0-6.25,6.25v13.69Z" style="fill:#fff;opacity:0.30000000000000004"/><path d="M1149.87,917.72v-1.27a6.25,6.25,0,0,0-6.25-6.25h-11.57a6.25,6.25,0,0,0-6.25,6.25v13.69Z" style="fill:#fff;opacity:0.30000000000000004"/><path d="M1189.25,917.72v-1.27a6.25,6.25,0,0,0-6.25-6.25h-11.58a6.25,6.25,0,0,0-6.25,6.25v13.69Z" style="fill:#fff;opacity:0.30000000000000004"/><path d="M1380.11,917.72v-1.27a6.25,6.25,0,0,0-6.25-6.25h-11.58a6.25,6.25,0,0,0-6.25,6.25v13.69Z" style="fill:#fff;opacity:0.30000000000000004"/><path d="M1419.49,917.72v-1.27a6.25,6.25,0,0,0-6.25-6.25h-11.58a6.25,6.25,0,0,0-6.25,6.25v13.69Z" style="fill:#fff;opacity:0.30000000000000004"/><path d="M1458.86,917.72v-1.27a6.25,6.25,0,0,0-6.25-6.25H1441a6.25,6.25,0,0,0-6.25,6.25v13.69Z" style="fill:#fff;opacity:0.30000000000000004"/><path d="M1498.24,917.72v-1.27a6.25,6.25,0,0,0-6.25-6.25h-11.58a6.25,6.25,0,0,0-6.25,6.25v13.69Z" style="fill:#fff;opacity:0.30000000000000004"/><path d="M1537.62,917.72v-1.27a6.25,6.25,0,0,0-6.25-6.25h-11.58a6.25,6.25,0,0,0-6.25,6.25v13.69Z" style="fill:#fff;opacity:0.30000000000000004"/><path d="M1577,917.72v-1.27a6.25,6.25,0,0,0-6.25-6.25h-11.57a6.25,6.25,0,0,0-6.25,6.25v13.69Z" style="fill:#fff;opacity:0.30000000000000004"/><path d="M1616.37,917.72v-1.27a6.25,6.25,0,0,0-6.25-6.25h-11.58a6.25,6.25,0,0,0-6.25,6.25v13.69Z" style="fill:#fff;opacity:0.30000000000000004"/><path d="M1655.75,917.72v-1.27a6.25,6.25,0,0,0-6.25-6.25h-11.58a6.25,6.25,0,0,0-6.25,6.25v13.69Z" style="fill:#fff;opacity:0.30000000000000004"/><path d="M1695.12,917.72v-1.27a6.25,6.25,0,0,0-6.25-6.25h-11.58a6.24,6.24,0,0,0-6.24,6.25v13.69Z" style="fill:#fff;opacity:0.30000000000000004"/><path d="M1734.5,917.72v-1.27a6.25,6.25,0,0,0-6.25-6.25h-11.58a6.25,6.25,0,0,0-6.25,6.25v13.69Z" style="fill:#fff;opacity:0.30000000000000004"/><path d="M1773.88,917.72v-1.27a6.25,6.25,0,0,0-6.25-6.25h-11.58a6.25,6.25,0,0,0-6.25,6.25v13.69Z" style="fill:#fff;opacity:0.30000000000000004"/><path d="M1813.25,917.72v-1.27a6.25,6.25,0,0,0-6.25-6.25h-11.58a6.25,6.25,0,0,0-6.25,6.25v13.69Z" style="fill:#fff;opacity:0.30000000000000004"/><path d="M1852.63,917.72v-1.27a6.25,6.25,0,0,0-6.25-6.25H1834.8a6.25,6.25,0,0,0-6.25,6.25v13.69Z" style="fill:#fff;opacity:0.30000000000000004"/><path d="M1892,917.72v-1.27a6.25,6.25,0,0,0-6.25-6.25h-11.58a6.25,6.25,0,0,0-6.25,6.25v13.69Z" style="fill:#fff;opacity:0.30000000000000004"/><path d="M1931.38,917.72v-1.27a6.25,6.25,0,0,0-6.25-6.25h-11.58a6.25,6.25,0,0,0-6.25,6.25v13.69Z" style="fill:#fff;opacity:0.30000000000000004"/><path d="M1970.76,917.72v-1.27a6.25,6.25,0,0,0-6.25-6.25h-11.58a6.25,6.25,0,0,0-6.25,6.25v13.69Z" style="fill:#fff;opacity:0.30000000000000004"/><path d="M2010.13,917.72v-1.27a6.24,6.24,0,0,0-6.24-6.25h-11.58a6.25,6.25,0,0,0-6.25,6.25v13.69Z" style="fill:#fff;opacity:0.30000000000000004"/><path d="M2049.51,917.72v-1.27a6.25,6.25,0,0,0-6.25-6.25h-11.58a6.25,6.25,0,0,0-6.25,6.25v13.69Z" style="fill:#fff;opacity:0.30000000000000004"/><path d="M2088.89,917.72v-1.27a6.25,6.25,0,0,0-6.25-6.25h-11.58a6.25,6.25,0,0,0-6.25,6.25v13.69Z" style="fill:#fff;opacity:0.30000000000000004"/><path d="M2128.26,917.72v-1.27a6.25,6.25,0,0,0-6.25-6.25h-11.57a6.25,6.25,0,0,0-6.25,6.25v13.69Z" style="fill:#fff;opacity:0.30000000000000004"/><path d="M2167.64,917.72v-1.27a6.25,6.25,0,0,0-6.25-6.25h-11.58a6.25,6.25,0,0,0-6.25,6.25v13.69Z" style="fill:#fff;opacity:0.30000000000000004"/><path d="M2207,917.72v-1.27a6.25,6.25,0,0,0-6.25-6.25h-11.58a6.25,6.25,0,0,0-6.25,6.25v13.69Z" style="fill:#fff;opacity:0.30000000000000004"/><path d="M2246.39,917.72v-1.27a6.25,6.25,0,0,0-6.25-6.25h-11.57a6.25,6.25,0,0,0-6.25,6.25v13.69Z" style="fill:#fff;opacity:0.30000000000000004"/><path d="M2285.77,917.72v-1.27a6.25,6.25,0,0,0-6.25-6.25h-11.58a6.25,6.25,0,0,0-6.25,6.25v13.69Z" style="fill:#fff;opacity:0.30000000000000004"/><path d="M2325.15,917.72v-1.27a6.25,6.25,0,0,0-6.25-6.25h-11.58a6.25,6.25,0,0,0-6.25,6.25v13.69Z" style="fill:#fff;opacity:0.30000000000000004"/><path d="M2364.52,917.72v-1.27a6.25,6.25,0,0,0-6.25-6.25H2346.7a6.25,6.25,0,0,0-6.25,6.25v13.69Z" style="fill:#fff;opacity:0.30000000000000004"/><path d="M2551.12,917.72v-1.27a6.25,6.25,0,0,0-6.25-6.25H2533.3a6.25,6.25,0,0,0-6.25,6.25v13.69Z" style="fill:#fff;opacity:0.30000000000000004"/><path d="M2590.5,917.72v-1.27a6.25,6.25,0,0,0-6.25-6.25h-11.58a6.25,6.25,0,0,0-6.25,6.25v13.69Z" style="fill:#fff;opacity:0.30000000000000004"/><path d="M2629.88,917.72v-1.27a6.25,6.25,0,0,0-6.25-6.25h-11.58a6.25,6.25,0,0,0-6.25,6.25v13.69Z" style="fill:#fff;opacity:0.30000000000000004"/><path d="M2669.25,917.72v-1.27a6.25,6.25,0,0,0-6.25-6.25h-11.58a6.24,6.24,0,0,0-6.24,6.25v13.69Z" style="fill:#fff;opacity:0.30000000000000004"/><path d="M2708.63,917.72v-1.27a6.25,6.25,0,0,0-6.25-6.25H2690.8a6.25,6.25,0,0,0-6.25,6.25v13.69Z" style="fill:#fff;opacity:0.30000000000000004"/><path d="M2748,917.72v-1.27a6.25,6.25,0,0,0-6.25-6.25h-11.58a6.25,6.25,0,0,0-6.25,6.25v13.69Z" style="fill:#fff;opacity:0.30000000000000004"/><path d="M2787.38,917.72v-1.27a6.25,6.25,0,0,0-6.25-6.25h-11.58a6.25,6.25,0,0,0-6.25,6.25v13.69Z" style="fill:#fff;opacity:0.30000000000000004"/><path d="M2826.76,917.72v-1.27a6.25,6.25,0,0,0-6.25-6.25h-11.58a6.25,6.25,0,0,0-6.25,6.25v13.69Z" style="fill:#fff;opacity:0.30000000000000004"/><path d="M2866.14,917.72v-1.27a6.25,6.25,0,0,0-6.25-6.25h-11.58a6.25,6.25,0,0,0-6.25,6.25v13.69Z" style="fill:#fff;opacity:0.30000000000000004"/><path d="M2905.51,917.72v-1.27a6.25,6.25,0,0,0-6.25-6.25h-11.58a6.25,6.25,0,0,0-6.25,6.25v13.69Z" style="fill:#fff;opacity:0.30000000000000004"/><path d="M3095.23,917.72v-1.27a6.25,6.25,0,0,0-6.25-6.25H3077.4a6.25,6.25,0,0,0-6.25,6.25v13.69Z" style="fill:#fff;opacity:0.30000000000000004"/><path d="M3134.6,917.72v-1.27a6.25,6.25,0,0,0-6.25-6.25h-11.57a6.25,6.25,0,0,0-6.25,6.25v13.69Z" style="fill:#fff;opacity:0.30000000000000004"/><path d="M3174,917.72v-1.27a6.25,6.25,0,0,0-6.25-6.25h-11.58a6.25,6.25,0,0,0-6.25,6.25v13.69Z" style="fill:#fff;opacity:0.30000000000000004"/><path d="M3213.36,917.72v-1.27a6.25,6.25,0,0,0-6.25-6.25h-11.58a6.25,6.25,0,0,0-6.25,6.25v13.69Z" style="fill:#fff;opacity:0.30000000000000004"/><path d="M3252.73,917.72v-1.27a6.25,6.25,0,0,0-6.25-6.25h-11.57a6.25,6.25,0,0,0-6.25,6.25v13.69Z" style="fill:#fff;opacity:0.30000000000000004"/><path d="M466.55,1097.38l24.08-16v-6.71a3.93,3.93,0,0,0-3.93-3.93H470.48a3.93,3.93,0,0,0-3.93,3.93Z" style="fill:#fff;opacity:0.30000000000000004"/><path d="M505.05,1097.38l24.08-16v-6.71a3.93,3.93,0,0,0-3.93-3.93H509a3.93,3.93,0,0,0-3.93,3.93Z" style="fill:#fff;opacity:0.30000000000000004"/><path d="M543.55,1097.38l24.08-16v-6.71a3.93,3.93,0,0,0-3.93-3.93H547.48a3.93,3.93,0,0,0-3.93,3.93Z" style="fill:#fff;opacity:0.30000000000000004"/><path d="M582.05,1097.38l24.07-16v-6.71a3.93,3.93,0,0,0-3.93-3.93H586a3.93,3.93,0,0,0-3.93,3.93Z" style="fill:#fff;opacity:0.30000000000000004"/><path d="M620.55,1097.38l24.07-16v-6.71a3.93,3.93,0,0,0-3.93-3.93H624.48a3.93,3.93,0,0,0-3.93,3.93Z" style="fill:#fff;opacity:0.30000000000000004"/><path d="M659.05,1097.38l24.07-16v-6.71a3.93,3.93,0,0,0-3.93-3.93H663a3.92,3.92,0,0,0-3.92,3.93Z" style="fill:#fff;opacity:0.30000000000000004"/><path d="M697.54,1097.38l24.08-16v-6.71a3.93,3.93,0,0,0-3.93-3.93H701.47a3.93,3.93,0,0,0-3.93,3.93Z" style="fill:#fff;opacity:0.30000000000000004"/><path d="M736,1097.38l24.08-16v-6.71a3.93,3.93,0,0,0-3.93-3.93H740a3.93,3.93,0,0,0-3.93,3.93Z" style="fill:#fff;opacity:0.30000000000000004"/><path d="M774.54,1097.38l24.08-16v-6.71a3.93,3.93,0,0,0-3.93-3.93H778.47a3.93,3.93,0,0,0-3.93,3.93Z" style="fill:#fff;opacity:0.30000000000000004"/><path d="M813,1097.38l24.08-16v-6.71a3.93,3.93,0,0,0-3.93-3.93H817a3.93,3.93,0,0,0-3.93,3.93Z" style="fill:#fff;opacity:0.30000000000000004"/><path d="M851.54,1097.38l24.08-16v-6.71a3.93,3.93,0,0,0-3.93-3.93H855.47a3.93,3.93,0,0,0-3.93,3.93Z" style="fill:#fff;opacity:0.30000000000000004"/><path d="M890,1097.38l24.08-16v-6.71a3.93,3.93,0,0,0-3.93-3.93H894a3.93,3.93,0,0,0-3.93,3.93Z" style="fill:#fff;opacity:0.30000000000000004"/><path d="M1074.5,1097.38l24.08-16v-6.71a3.93,3.93,0,0,0-3.93-3.93h-16.22a3.93,3.93,0,0,0-3.93,3.93Z" style="fill:#fff;opacity:0.30000000000000004"/><path d="M1113,1097.38l24.08-16v-6.71a3.93,3.93,0,0,0-3.93-3.93h-16.22a3.93,3.93,0,0,0-3.93,3.93Z" style="fill:#fff;opacity:0.30000000000000004"/><path d="M1151.5,1097.38l24.08-16v-6.71a3.93,3.93,0,0,0-3.93-3.93h-16.22a3.93,3.93,0,0,0-3.93,3.93Z" style="fill:#fff;opacity:0.30000000000000004"/><path d="M1190,1097.38l24.08-16v-6.71a3.93,3.93,0,0,0-3.93-3.93h-16.22a3.93,3.93,0,0,0-3.93,3.93Z" style="fill:#fff;opacity:0.30000000000000004"/><path d="M1228.5,1097.38l24.08-16v-6.71a3.93,3.93,0,0,0-3.93-3.93h-16.22a3.93,3.93,0,0,0-3.93,3.93Z" style="fill:#fff;opacity:0.30000000000000004"/><path d="M1267,1097.38l24.07-16v-6.71a3.92,3.92,0,0,0-3.92-3.93h-16.22a3.93,3.93,0,0,0-3.93,3.93Z" style="fill:#fff;opacity:0.30000000000000004"/><path d="M1305.5,1097.38l24.07-16v-6.71a3.93,3.93,0,0,0-3.93-3.93h-16.21a3.93,3.93,0,0,0-3.93,3.93Z" style="fill:#fff;opacity:0.30000000000000004"/><path d="M1344,1097.38l24.08-16v-6.71a3.93,3.93,0,0,0-3.93-3.93h-16.22a3.93,3.93,0,0,0-3.93,3.93Z" style="fill:#fff;opacity:0.30000000000000004"/><path d="M1382.49,1097.38l24.08-16v-6.71a3.93,3.93,0,0,0-3.93-3.93h-16.22a3.93,3.93,0,0,0-3.93,3.93Z" style="fill:#fff;opacity:0.30000000000000004"/><path d="M1421,1097.38l24.08-16v-6.71a3.93,3.93,0,0,0-3.93-3.93h-16.22a3.93,3.93,0,0,0-3.93,3.93Z" style="fill:#fff;opacity:0.30000000000000004"/><path d="M1459.49,1097.38l24.08-16v-6.71a3.93,3.93,0,0,0-3.93-3.93h-16.22a3.93,3.93,0,0,0-3.93,3.93Z" style="fill:#fff;opacity:0.30000000000000004"/><path d="M1498,1097.38l24.08-16v-6.71a3.93,3.93,0,0,0-3.93-3.93h-16.22a3.93,3.93,0,0,0-3.93,3.93Z" style="fill:#fff;opacity:0.30000000000000004"/><path d="M1536.49,1097.38l24.08-16v-6.71a3.93,3.93,0,0,0-3.93-3.93h-16.22a3.93,3.93,0,0,0-3.93,3.93Z" style="fill:#fff;opacity:0.30000000000000004"/><path d="M1575,1097.38l24.07-16v-6.71a3.93,3.93,0,0,0-3.93-3.93h-16.21a3.93,3.93,0,0,0-3.93,3.93Z" style="fill:#fff;opacity:0.30000000000000004"/><path d="M1613.49,1097.38l24.07-16v-6.71a3.93,3.93,0,0,0-3.93-3.93h-16.21a3.93,3.93,0,0,0-3.93,3.93Z" style="fill:#fff;opacity:0.30000000000000004"/><path d="M2838.27,1322.42V1170.87a18.38,18.38,0,0,1,18.38-18.38h134.76a18.38,18.38,0,0,1,18.38,18.38v136.85a15.41,15.41,0,0,1-13.81,15.33l-140.7,14.69A15.4,15.4,0,0,1,2838.27,1322.42Zm18.38-164.11a12.56,12.56,0,0,0-12.56,12.56v148a13.24,13.24,0,0,0,14.34,13.21c44.56-3.76,89.48-8.48,134-14.07a13.25,13.25,0,0,0,11.58-13.15V1170.87a12.56,12.56,0,0,0-12.56-12.56Z" style="fill:#adadad"/><path d="M4155.67,906.43,3711.2,1022.66c-10.48,2.74-9,18.1,1.78,18.79a386.06,386.06,0,0,0,55.25-.45l285.34-22.78,344.31-114.37H4175.73A79.41,79.41,0,0,0,4155.67,906.43Z" style="fill:#adadad"/><path d="M241,999.49H160.8c-3.74,3.46-51.5,49.66-51.5,49.66h50.22a24.76,24.76,0,0,1,12.43,3.33l4.62,2.67a24.89,24.89,0,0,0,12.43,3.33h64.11a5.55,5.55,0,0,0,5.38-6.91l-12.09-47.89A5.55,5.55,0,0,0,241,999.49Z" style="fill:#b7e2ed"/><path d="M160.8,999.49c-3.74,3.46-51.5,49.66-51.5,49.66h50.22a24.76,24.76,0,0,1,12.43,3.33l4.52,2.61,53.82-55.6Z" style="fill:#fff;opacity:0.30000000000000004"/><path d="M253.11,1060.48H189a26.84,26.84,0,0,1-13.43-3.6l-4.62-2.67a22.92,22.92,0,0,0-11.43-3.06H109.3a2,2,0,1,1,0-4h50.22a26.81,26.81,0,0,1,13.43,3.6l4.63,2.67a22.91,22.91,0,0,0,11.42,3.06h64.11a3.55,3.55,0,0,0,3.43-4.41l-12.09-47.89a3.54,3.54,0,0,0-3.43-2.67H160.8a2,2,0,0,1,0-4H241a7.55,7.55,0,0,1,7.32,5.71l12.1,47.89a7.56,7.56,0,0,1-7.33,9.4Z" style="fill:#303030"/><rect x="354.88" y="1081.54" width="18.39" height="21.19" rx="2.72" style="fill:#adadad"/><rect x="355.53" y="1082.88" width="6.35" height="18.52" rx="2.23" style="fill:#6d6d6d"/><rect x="366.26" y="1082.88" width="6.35" height="18.52" rx="2.23" style="fill:#6d6d6d"/><rect x="962.83" y="1081.54" width="18.39" height="21.19" rx="2.72" style="fill:#adadad"/><rect x="963.49" y="1082.88" width="6.35" height="18.52" rx="2.23" style="fill:#6d6d6d"/><rect x="974.21" y="1082.88" width="6.35" height="18.52" rx="2.23" style="fill:#6d6d6d"/><rect x="3225.67" y="1081.54" width="18.39" height="21.19" rx="2.72" style="fill:#adadad"/><rect x="3226.32" y="1082.88" width="6.35" height="18.52" rx="2.23" style="fill:#6d6d6d"/><rect x="3237.05" y="1082.88" width="6.35" height="18.52" rx="2.23" style="fill:#6d6d6d"/><rect x="2996.38" y="913.32" width="18.39" height="21.19" rx="2.72" style="fill:#adadad"/><rect x="2997.04" y="914.65" width="6.35" height="18.52" rx="2.23" style="fill:#6d6d6d"/><rect x="3007.76" y="914.65" width="6.35" height="18.52" rx="2.23" style="fill:#6d6d6d"/><rect x="2448.5" y="913.32" width="18.39" height="21.19" rx="2.72" style="fill:#adadad"/><rect x="2449.15" y="914.65" width="6.35" height="18.52" rx="2.23" style="fill:#6d6d6d"/><rect x="2459.88" y="914.65" width="6.35" height="18.52" rx="2.23" style="fill:#6d6d6d"/><rect x="1278.57" y="913.32" width="18.39" height="21.19" rx="2.72" style="fill:#adadad"/><rect x="1279.23" y="914.65" width="6.35" height="18.52" rx="2.23" style="fill:#6d6d6d"/><rect x="1289.95" y="914.65" width="6.35" height="18.52" rx="2.23" style="fill:#6d6d6d"/><path d="M2442.36,1355.7l-463.78-97-996.23,36.2s81.33,18.49,186.95,42.73l1187.22,20.56Z" style="fill:#262626;opacity:0.5"/><path d="M970.87,1214.91h0a624.83,624.83,0,0,1,219-64.13L2848.77,982.26H3032v26.09L1804.75,1336.07l-518.93-8.92a1712.5,1712.5,0,0,1-282.69-28.44l-20.78-3.86C942.26,1287.42,934.49,1233.33,970.87,1214.91Z" style="fill:#e2e2e2"/><path d="M1325.51,1158.4a6,6,0,0,1-.6-12l30.51-3.1a6,6,0,0,1,1.22,12l-30.51,3.1C1325.92,1158.39,1325.72,1158.4,1325.51,1158.4Z" style="fill:#fff"/><path d="M1056.41,1202.2a6,6,0,0,1-2-11.71,631.68,631.68,0,0,1,141.08-31l94.94-9.64a6,6,0,0,1,1.21,12l-94.93,9.64a619.7,619.7,0,0,0-138.38,30.36A5.85,5.85,0,0,1,1056.41,1202.2Z" style="fill:#fff"/><path d="M1285.82,1327.15l518.93,8.92L3032,1008.35V982.26h-42.83L1086.05,1278.7c-19.21,3-19.09,30.72.14,33.51C1156.47,1322.39,1235.06,1326.28,1285.82,1327.15Z" style="fill:#969696"/><path d="M1532.23,1181.16l222-22.88a299.92,299.92,0,0,1,94,5.14L1888,1172a222.26,222.26,0,0,0,85.39,1.58l141.39-25a228.21,228.21,0,0,1,81.58.39L2309.18,1170a14.19,14.19,0,0,1,8.74,22.46h0a14.17,14.17,0,0,1-11.35,5.68H2096.12a127.49,127.49,0,0,0-76.12,25.2l-12.52,9.3a111.57,111.57,0,0,1-76.14,21.63l-286.88-24.71Z" style="fill:#c6c6c6"/><path d="M1719.88,1229.59l126.81,23.21A5.31,5.31,0,0,1,1851,1258v59.78a5.31,5.31,0,0,1-4.17,5.19l-127,27.81Z" style="fill:#d4d4d4"/><path d="M1851,1317.8v-20.32l-131.16,14.34v39l127-27.82A5.31,5.31,0,0,0,1851,1317.8Z" style="fill:#b7b7b7"/><path d="M1413,1381.13l11.53,3.39a639.83,639.83,0,0,0,293.72-10l.91-.25a12.31,12.31,0,0,0,9.07-11.88V1208a8,8,0,0,0-6.08-7.77A672.85,672.85,0,0,0,1409,1199a14,14,0,0,0-10.79,14L1403,1368.2A13.92,13.92,0,0,0,1413,1381.13Z" style="fill:#efefef"/><path d="M1409.24,1328.12l-7.52-2.21,1.32,42.29a13.92,13.92,0,0,0,10,12.93l11.53,3.39a639.7,639.7,0,0,0,293.72-10l.91-.24a12.31,12.31,0,0,0,9.07-11.88v-44.79A698.16,698.16,0,0,1,1409.24,1328.12Z" style="fill:#d1d1d1"/><path d="M1431.81,1385.92c1.8.34,3.61.66,5.42,1l-6-192.69-5.36,1.09Z" style="fill:#adadad"/><polygon points="1739.03 1346.61 1744.42 1345.43 1744.19 1234.04 1738.8 1233.06 1739.03 1346.61" style="fill:#adadad"/><path d="M2766.23,990.65h0a44.9,44.9,0,0,0,43.76,28.08l222-10.38V982.26H2848.77Z" style="fill:#e3e3e3"/><path d="M2990.6,991.77,3010.72,976a7.11,7.11,0,0,1,1.23-.78l100.16-49.75a7.1,7.1,0,0,1,3.2-.75H3143a7.18,7.18,0,0,1,4.79,12.53L3100.11,980a7.18,7.18,0,0,0-2.38,5.68l3.5,74a7.19,7.19,0,0,1-7.18,7.52h-15.61a7.16,7.16,0,0,1-5-2.07l-49-48.35a7.15,7.15,0,0,0-2.52-1.61l-29.39-11A7.18,7.18,0,0,1,2990.6,991.77Z" style="fill:#ff865c"/><path d="M2026.31,1108l251.34-25.91a339.84,339.84,0,0,1,106.4,5.82l45.17,9.72a251.3,251.3,0,0,0,96.69,1.79L2686,1071.15a258.08,258.08,0,0,1,92.37.44l127.71,23.85a16.06,16.06,0,0,1,9.9,25.43h0a16,16,0,0,1-12.85,6.43H2664.84a144.46,144.46,0,0,0-86.2,28.53l-14.17,10.54a126.37,126.37,0,0,1-86.22,24.49l-324.85-28Z" style="fill:#c6c6c6"/><path d="M2238.8,1162.88l143.6,26.28a6,6,0,0,1,4.92,5.91v67.7a6,6,0,0,1-4.72,5.87l-143.8,31.5Z" style="fill:#d4d4d4"/><path d="M2387.32,1262.77v-23L2238.8,1256v44.15l143.8-31.5A6,6,0,0,0,2387.32,1262.77Z" style="fill:#b7b7b7"/><path d="M1891.34,1334.48l13.05,3.84a724.45,724.45,0,0,0,332.6-11.38l1-.28a13.94,13.94,0,0,0,10.27-13.45V1138.46a9,9,0,0,0-6.88-8.8,761.82,761.82,0,0,0-354.65-1.37,15.82,15.82,0,0,0-12.22,15.87l5.48,175.68A15.77,15.77,0,0,0,1891.34,1334.48Z" style="fill:#efefef"/><path d="M1887,1274.45l-8.51-2.5,1.49,47.89a15.77,15.77,0,0,0,11.32,14.64l13.05,3.84a724.45,724.45,0,0,0,332.6-11.38l1-.28a13.94,13.94,0,0,0,10.27-13.45v-50.72A790.47,790.47,0,0,1,1887,1274.45Z" style="fill:#d1d1d1"/><path d="M1912.6,1339.9l6.13,1.12-6.79-218.19q-3,.6-6.07,1.23Z" style="fill:#adadad"/><polygon points="2260.49 1295.39 2266.59 1294.05 2266.32 1167.92 2260.22 1166.8 2260.49 1295.39" style="fill:#adadad"/><path d="M1416.41,1352.63a6,6,0,0,1-6-5.83l-3.89-124.92a6,6,0,1,1,12-.38l3.89,124.92a6,6,0,0,1-5.83,6.21Z" style="fill:#fff"/><path d="M1888.25,1290.17a6,6,0,0,1-6-5.83l-3.9-124.92a6,6,0,0,1,12-.38l3.89,124.92a6,6,0,0,1-5.83,6.21Z" style="fill:#fff"/><path d="M30.16,1231.28A6,6,0,0,1,25,1228.4c-23-37.66-20.72-85.81,5.68-119.8a6,6,0,0,1,9.51,7.38c-23.35,30.07-25.33,72.72-4.92,106.15a6,6,0,0,1-5.13,9.15Z" style="fill:#fff"/><path d="M3900.32,950.43a6,6,0,0,1-.94-12l27.74-4.4A6,6,0,1,1,3929,946l-27.74,4.4A6.16,6.16,0,0,1,3900.32,950.43Z" style="fill:#fff"/><path d="M3654.58,989.4a6,6,0,0,1-.93-12l208.18-33a6,6,0,0,1,1.89,11.89l-208.19,33A6.08,6.08,0,0,1,3654.58,989.4Z" style="fill:#fff"/><path d="M3733.9,464.06a6,6,0,0,1-4.47-10.05l172.93-191.93a6,6,0,1,1,8.94,8.05L3738.37,462.07A6,6,0,0,1,3733.9,464.06Z" style="fill:#fff"/><path d="M3694.75,507.68a6,6,0,0,1-4.53-10l18.42-21.1a6,6,0,0,1,9.06,7.92l-18.41,21.1A6,6,0,0,1,3694.75,507.68Z" style="fill:#fff"/><path d="M3660.76,544.65a6,6,0,0,1-4.47-10.06l12.54-13.89a6,6,0,0,1,8.94,8.07l-12.54,13.89A6,6,0,0,1,3660.76,544.65Z" style="fill:#fff"/><path d="M1587,1024.8h-49.41a6,6,0,0,1,0-12H1587a6,6,0,0,1,0,12Z" style="fill:#fff"/><path d="M1459.49,1024.8H1137.08a6,6,0,0,1,0-12h322.41a6,6,0,0,1,0,12Z" style="fill:#fff"/></g></g></svg>