<svg data-name="—ÎÓÈ_1" xmlns="http://www.w3.org/2000/svg" xmlns:xlink="http://www.w3.org/1999/xlink" viewBox="0 0 4870.98 2206.09"><defs><linearGradient id="m" x1="2017.19" y1="931.86" x2="2017.19" y2="675.58" gradientUnits="userSpaceOnUse"><stop offset="0" stop-color="#fff"/><stop offset="1" stop-color="#666"/></linearGradient><linearGradient id="b" x1="8304.83" y1="1787.18" x2="8304.83" y2="2364.05" gradientTransform="matrix(-1 0 0 1 9752.35 0)" gradientUnits="userSpaceOnUse"><stop offset="0" stop-color="#0d0e0e"/><stop offset=".57" stop-color="#111"/><stop offset="1" stop-color="#191919"/></linearGradient><linearGradient id="p" x1="8289.98" y1="2398.1" x2="8289.98" y2="1752.68" xlink:href="#b"/><linearGradient id="e" x1="8301.76" y1="1862.04" x2="8301.76" y2="2288.01" gradientTransform="matrix(-1 0 0 1 9752.35 0)" gradientUnits="userSpaceOnUse"><stop offset=".01"/><stop offset=".89" stop-color="#161616"/><stop offset="1" stop-color="#191919"/></linearGradient><linearGradient id="c" x1="8301.76" y1="1877.34" x2="8301.76" y2="2272.72" gradientTransform="matrix(-1 0 0 1 9752.35 0)" gradientUnits="userSpaceOnUse"><stop offset="0"/><stop offset=".53" stop-color="#030404"/><stop offset="1" stop-color="#0d0e0e"/></linearGradient><linearGradient id="q" x1="8301.76" y1="2291.1" x2="8301.76" y2="1858.95" xlink:href="#b"/><linearGradient id="f" x1="1452.41" y1="2239.73" x2="1452.41" y2="1907.38" gradientUnits="userSpaceOnUse"><stop offset="0" stop-color="#282828"/><stop offset="1" stop-color="#505050"/></linearGradient><linearGradient id="d" x1="8301.76" y1="1903.3" x2="8301.76" y2="2246.76" gradientTransform="matrix(-1 0 0 1 9752.35 0)" gradientUnits="userSpaceOnUse"><stop offset="0" stop-color="#e3e2e1"/><stop offset="1" stop-color="#1d1f1c"/></linearGradient><linearGradient id="r" x1="8301.76" y1="2248.17" x2="8301.76" y2="1901.88" xlink:href="#c"/><linearGradient id="s" x1="8923.23" y1="1673.45" x2="8934.83" y2="1699.64" gradientTransform="matrix(-.99 .16 .16 .99 9987.88 -1027.02)" xlink:href="#d"/><linearGradient id="g" x1="7927.81" y1="2134.38" x2="7927.81" y2="2119.53" gradientTransform="matrix(-1 -.07 -.07 1 9511.11 552.4)" gradientUnits="userSpaceOnUse"><stop offset="0" stop-color="#2d2d2b"/><stop offset="1" stop-color="#1d1f1c"/></linearGradient><linearGradient id="t" x1="4689.91" y1="1787.18" x2="4689.91" y2="2364.05" xlink:href="#b"/><linearGradient id="u" x1="4675.05" y1="2398.1" x2="4675.05" y2="1752.68" xlink:href="#b"/><linearGradient id="v" x1="4686.84" y1="1862.04" x2="4686.84" y2="2288.01" xlink:href="#e"/><linearGradient id="w" x1="4686.84" y1="1877.34" x2="4686.84" y2="2272.72" xlink:href="#c"/><linearGradient id="x" x1="4686.84" y1="2291.1" x2="4686.84" y2="1858.95" xlink:href="#b"/><linearGradient id="y" x1="4685.01" y1="2239.02" x2="4685.01" y2="1907.63" xlink:href="#f"/><linearGradient id="z" x1="4686.84" y1="1903.3" x2="4686.84" y2="2246.76" xlink:href="#d"/><linearGradient id="A" x1="4686.84" y1="2248.17" x2="4686.84" y2="1901.88" xlink:href="#c"/><linearGradient id="B" x1="5355.39" y1="2255.86" x2="5367" y2="2282.05" gradientTransform="rotate(9.27 6216.161 -1966.09)" xlink:href="#d"/><linearGradient id="C" x1="4322.86" y1="1865.06" x2="4322.86" y2="1850.2" gradientTransform="rotate(-4.27 7529.411 -2959.312)" xlink:href="#g"/><linearGradient id="D" x1="3001.5" y1="1739.32" x2="3001.5" y2="257.2" gradientUnits="userSpaceOnUse"><stop offset="0" stop-color="#9e9e9e"/><stop offset="1" stop-color="#ccc"/></linearGradient><linearGradient id="h" x1="4052.32" y1="1351.94" x2="4052.32" y2="663.88" gradientUnits="userSpaceOnUse"><stop offset="0" stop-color="#141414"/><stop offset="1" stop-color="#282828"/></linearGradient><linearGradient id="E" x1="4703.65" y1="1390.18" x2="4703.65" y2="1154.74" xlink:href="#h"/><linearGradient id="F" x1="4561.12" y1="1366.59" x2="4561.12" y2="1110.72" xlink:href="#h"/><linearGradient id="G" x1="3000" y1="2165.8" x2="3000" y2="1591.49" gradientUnits="userSpaceOnUse"><stop offset="0" stop-color="#0a0a0a"/><stop offset="1" stop-color="#282828"/></linearGradient><linearGradient id="j" x1="4152.11" y1="899.12" x2="4692.96" y2="899.12" gradientUnits="userSpaceOnUse"><stop offset="0" stop-color="#787878"/><stop offset="1" stop-color="#dedede"/></linearGradient><linearGradient id="H" x1="4058.95" y1="682.81" x2="4058.95" y2="1322.18" gradientUnits="userSpaceOnUse"><stop offset="0"/><stop offset="1" stop-color="#282828"/></linearGradient><linearGradient id="I" x1="4058.95" y1="1143.01" x2="4058.95" y2="682.81" gradientUnits="userSpaceOnUse"><stop offset="0" stop-color="#fff"/><stop offset="1" stop-color="#282828"/></linearGradient><linearGradient id="J" x1="2175.12" y1="562.31" x2="2175.12" y2="1180.58" gradientUnits="userSpaceOnUse"><stop offset="0"/><stop offset="1" stop-color="#323232"/></linearGradient><linearGradient id="i" x1="2866.11" y1="580.8" x2="2866.11" y2="948.93" gradientUnits="userSpaceOnUse"><stop offset="0" stop-color="#141414"/><stop offset="1" stop-color="#696969"/></linearGradient><linearGradient id="K" x1="1593.7" y1="562.31" x2="1593.7" y2="931.87" xlink:href="#i"/><linearGradient id="L" x1="2819.4" y1="1397.85" x2="2819.4" y2="1026.86" xlink:href="#h"/><linearGradient id="M" x1="663.33" y1="1671.85" x2="663.33" y2="1140.58" gradientUnits="userSpaceOnUse"><stop offset="0" stop-color="#650223"/><stop offset=".99" stop-color="#360600"/></linearGradient><linearGradient id="N" x1="652.76" y1="1175.54" x2="652.76" y2="1576.57" xlink:href="#j"/><linearGradient id="O" x1="657.29" y1="1663.74" x2="657.29" y2="1150.71" gradientUnits="userSpaceOnUse"><stop offset="0" stop-color="#c8c8c8"/><stop offset="1" stop-color="#fff"/></linearGradient><linearGradient id="P" x1="5121.84" y1="1294.09" x2="5121.84" y2="1576.81" gradientUnits="userSpaceOnUse"><stop offset="0" stop-color="#646464"/><stop offset="1" stop-color="#c8c8c8"/></linearGradient><linearGradient id="Q" x1="5110.87" y1="1294.09" x2="5110.87" y2="1517.23" gradientUnits="userSpaceOnUse"><stop offset="0" stop-color="#fff"/><stop offset="1" stop-color="#fff"/></linearGradient><linearGradient id="o" x1="3043.54" y1="1714.29" x2="3043.54" y2="257.2" gradientUnits="userSpaceOnUse"><stop offset="0" stop-color="#ccc"/><stop offset=".99" stop-color="#ebebeb"/></linearGradient><linearGradient id="R" x1="2012.63" y1="1060.3" x2="2012.63" y2="675.58" gradientUnits="userSpaceOnUse"><stop offset="0" stop-color="#bababa"/><stop offset="1" stop-color="#fff"/></linearGradient><linearGradient id="n" x1="1590.94" y1="955.69" x2="1590.94" y2="707.47" gradientUnits="userSpaceOnUse"><stop offset="0" stop-color="#c7001e"/><stop offset="1" stop-color="#ff2e2e"/></linearGradient><linearGradient id="S" x1="2297.08" y1="853.14" x2="2297.08" y2="485.67" gradientUnits="userSpaceOnUse"><stop offset="0" stop-color="#001f65"/><stop offset="1" stop-color="#004da6"/></linearGradient><linearGradient id="U" x1="2017.19" y1="931.86" x2="2017.19" y2="675.58" gradientUnits="userSpaceOnUse"><stop offset="0" stop-color="#fff"/><stop offset="1" stop-color="#999"/></linearGradient><linearGradient id="V" x1="3036.51" y1="1739.32" x2="3036.51" y2="1150.06" xlink:href="#n"/><linearGradient id="W" x1="750.47" y1="1591.26" x2="5373.44" y2="1591.26" xlink:href="#o"/><filter id="a" x="985.37" y="-9542" width="2063.64" height="32766" filterUnits="userSpaceOnUse" color-interpolation-filters="sRGB"><feFlood flood-color="#fff" result="bg"/><feBlend in="SourceGraphic" in2="bg"/></filter><filter id="k" x="985.37" y="675.58" width="2063.64" height="256.28" filterUnits="userSpaceOnUse" color-interpolation-filters="sRGB"><feFlood flood-color="#fff" result="bg"/><feBlend in="SourceGraphic" in2="bg"/></filter><mask id="l" x="985.37" y="-9542" width="2063.64" height="32766" maskUnits="userSpaceOnUse"/><mask id="T" x="420.86" y="477.05" width="2063.64" height="256.28" maskUnits="userSpaceOnUse"><g style="filter:url(#k)"><g style="mask:url(#l)" transform="translate(-564.51 -198.54)"><path d="M1947.9 916.81q-31.82.45-63.67 1L1866 845.44l-1 72.7q-24.91.45-49.83 1l2.83-200.82.12-8.5 8.5.11 45.72.63 6.55.09 1.59 6.35 19.64 78.49 1-76 .11-8.5 8.51.11 32.47.45 8.5.12-.12 8.5Zm1093.61 10.6-1.45-.87-96.48-57.47 98-54.81 7.43-4.16-4.15-7.42-31.72-56.68-4.15-7.43-7.42 4.16-98 54.81 1.54-112.29.12-8.5-8.51-.12-65-.89-8.51-.12-.11 8.51-1.54 112.28-96.48-57.47-7.3-4.36-4.35 7.31-33.27 55.83-4.35 7.31 7.3 4.35 96.48 57.48-92.15 51.53c128.32 2.2 247.83 5.34 354.07 9.02Zm-945.24-213.78-8.5-.12-.12 8.51-2.65 193.32q58.52-.45 116.44-.6v-.82l-8.5-.12-54.46-.75.7-50.92 41.53.57 8.51.12.11-8.5.46-33.14.11-8.5-8.5-.12-41.53-.57.65-47.6 54.46.74 8.5.12.11-8.5.46-33.14.12-8.5-8.51-.12Zm-285.49 205.56q-26.71.55-53.4 1.18l-.61-4.49-30.08-.41-.93 5.67q-79.15 2-157.55 4.69l2.9-210.89.11-8.51 8.51.12 36.44.5 8.51.12-.12 8.5L1622 906l51.47.71 4.34.06 33.29-191.23 1.25-7.14 7.25.1 53.34.73 7.25.1 1 7.17Zm-60.84-51.89-7-52.65-8.44 52.43Zm-337.06-46.75a45.74 45.74 0 0 1 12.59 15.51c4.73 9.36 6.94 20.83 6.74 35.05L1432 890c-.23 17-4.38 30.86-12.31 41.25-41 1-80.3.76-117.94-.42l3-219.54.12-8.51 8.5.12 55 .75c21.25.29 36.62 5.67 47 16.42 10.15 10.54 15 25.68 14.67 46.29l-.11 8.28c-.33 20.86-5.93 36.02-17.05 45.91ZM1357 798l5.74.08h.51c7.53 0 12.88-1.14 13.08-15.84l.18-12.92c.1-7.87-1.29-11.39-2.47-13-.51-.67-1.85-2.45-7.38-2.53l-9.05-.12Zm18.58 53.51c-1.15-1.35-3.59-3.16-11.53-3.27l-7.74-.1-.74 54.23 12.37.17h.42c5.35 0 10 0 10.16-14.22l.28-20.21c.1-8.43-.98-14.01-3.23-16.65Zm177.91 74.89c4.65-9.63 7.18-21.32 7.36-34.91l2.42-176.61.12-8.5-8.5-.12-34.46-.47-8.51-.12-.11 8.5-2.45 178.93c-.19 13.89-5.77 13.89-10.24 13.89h-.35c-5.41-.08-7-1.83-7.49-2.41-1.84-2.06-2.77-6.13-2.69-11.76l2.41-178.98.12-8.5-8.5-.12-36.45-.5-8.51-.12-.11 8.51-2.42 176.6c-.23 16.38 3 30.09 9.33 40.81q7.41-.25 14.87-.56 46.8-1.96 94.15-3.61Zm-261.27 4.16 3-219.35.12-8.51-8.51-.11-50.69-.7-7.33-.1-1.18 7.24-18.3 112.29-16.58-112.92-1.06-7.17-7.24-.1-50.7-.69-8.5-.12-.12 8.5-2.85 208.3Q1146 920 1171 922.49l.59-43.26 6.49 43.94q27.59 2.58 56.74 4.47l6.48-40.09-.56 40.46q25.19 1.55 51.47 2.5Zm787.84-32.29.42-30.81.11-8.51-8.5-.11-34.46-.48-8.5-.11-.12 8.5-.45 33.14c-.19 13.88-5.76 13.88-10.24 13.88h-.32c-4.61-.06-10.37-.14-10.18-14.17l1.72-125.25c.19-14.22 6-14.22 10.26-14.22h.32c4.38.06 10.38.14 10.18 14.5l-.34 24.85-.11 8.5 8.5.12 34.46.47 8.5.12.12-8.51.31-22.53c.28-20.82-4.87-37.32-15.32-49-10.78-12.09-26.46-18.36-46.61-18.64h-1.34c-39.09 0-61.84 24.05-62.42 66l-1.65 120.61a96.84 96.84 0 0 0 1.72 20.2q61.32-.83 122.3-1.31a100.28 100.28 0 0 0 1.63-17.29ZM1119 916.71q-28.29-3.54-54.68-7.69l-.36-2.63-17.41-.24q-32.1-5.35-61.17-11.35l32.86-188.8 1.24-7.14 7.25.1 53.35.73 7.25.1 1.05 7.18Zm-61.86-58.91-7-52.65-8.44 52.44Z" style="mix-blend-mode:multiply;fill:url(#m)"/></g></g></mask></defs><path d="M4870.87 1615.87c-.06-25.86-29.41-63.5-60.56-77.53-12.51-4.28-.26-11.05-.47-17.57-1.41-43-5.44-112.4-17.06-155.53-7.48-27.8-15.35-59.64-28.42-90.75a22.31 22.31 0 0 0-6.54-8.29c-1.55-1.13 1.28-3.58.45-5.32-18.1-38-45.14-73.74-90.09-98.44-86.77-47.68-483.17-213.32-505.4-223.14s-34.33-6.67-34.33-6.67-31.95-14.08-70.88-47.05-453.91-384.29-462.81-392.56-7-24.48-7-24.48l-31.47-27c-174.64-149.9-389.15-254.4-818.53-278.4l-4.28-4.51v-21.09a8.25 8.25 0 0 0-8.25-8.25L2721.49 70a70 70 0 1 0-140 0l-3.75 59.29a8.25 8.25 0 0 0-8.25 8.25v15.6l-6.71 4.09c-42.77-1-91.33-2.08-144.64-3.19-28.69-33.66-93.86-92-202.1-93.58-534.55-8-627.87 13-1192.7 18-54.28.48-112.33 32.4-141.25 50.72-353.27-4.48-619.84-6.72-638.6-4.24-50.54 6.67-81.09 55.6-94.41 125.87-41.62 219.61-68.16 466.49-85 680-.22 2.8 1.63 6 1.42 8.83s-2.53 5.36-2.75 8.25c-22.47 291.89-26.7 517.29-26.7 517.29l8.59 15.26s-16.21 12.16-37.67 13.83c-8.57.67-10.17 184.51 0 319.26 0 18.31 95.84 36 149.24 41.21 34.35 3.37 127.32 8.51 189.26 11.76 17.05 12.28 38.38 23.77 59.62 24.94l96 5.29c1.32 12 3.13 23.31 5.11 33 4.66 22.94 21.7 36.07 29.52 37.38l.23.12c4.07 1.52 22.62 1.68 30.64-19 31.8 147.4 162.71 257.85 319.4 257.85h20.33a324.9 324.9 0 0 0 171.68-48.77 314.25 314.25 0 0 0 37.53 2.25h19.44c136 0 251.73-87.09 294.59-208.63 84.4-3.51 206.81-8.62 230.91-9.8 37.51-1.83 35.63-16.47 87.73-18.71l102.25-4.4 1493.83 5.58c43.91 6.28 183.75 16.88 280.89 23.84 41.86 123.36 158.49 212.12 295.81 212.12h12.93a324.87 324.87 0 0 0 168 46.52h20.34c162.55 0 297.37-118.88 322.55-274.56 4.21 2.28 10.9 5.11 18 4.92 232.52-6.43 310.4-59.36 310.4-59.36 43.45-22.71 64.39-47.43 80.89-63.53 18.92-18.41 16.88-150.48 16.78-197.68Zm-1361.17-1067c5.24 6.82 10.57 14.1 15.34 21.3l-16 1.43-3.41-25c1.35.74 2.71 1.51 4.07 2.25Zm-115.08 0c25.75-3.31 55.31-7.77 81.28-13.3l21.9 159.89-117.45-97.25c-18.86-15.63-10.01-46.24 14.27-49.37Zm-171.07 431.49a81.18 81.18 0 0 1-51.31-64.63l-54.36-391.4q34.38 5.53 71.53 22l60.8 444.1c-9.48-3.55-18.39-6.97-26.66-10.1Zm243.43 81.47c-70.7-20-136.51-42.21-189.21-61.27l-60.11-440.33q57.82 31.15 121.19 87l173.29 153 23.91 174.68c-25.12 26.2-49.44 58.49-69.07 86.89Zm105.93-119.79c-4 2.87-8 6-12 9.4l-16.79-123L3574.2 855Zm313.29-12.58c-37.43-2.92-76.7-5.19-112.72-5.77l-244-202-10.99-81.04c22.84 1.09 71.84 2.12 110.92-6.08 2 1.72 4 3.43 5.94 5.19l251.86 222.32Z"/><path d="M559.28 1878.78c0 180.76 146.31 327.3 326.8 327.3h20.33c180.49 0 326.8-146.54 326.8-327.3s-146.31-327.32-326.8-327.32h-20.33c-180.49 0-326.8 146.56-326.8 327.32Zm126.55 0c0-111.6 90.65-202.39 202.07-202.39s202.08 90.79 202.08 202.39-90.65 202.38-202.08 202.38-202.07-90.79-202.07-202.38Z"/><path d="M1155.43 2075.62c0 159.3 130.77 288.43 292.09 288.43s292.09-129.13 292.09-288.43-130.77-288.44-292.09-288.44-292.09 129.14-292.09 288.44Zm75.67-.59c0-122 99.09-220.84 221.31-220.84s221.31 98.87 221.31 220.84-99.08 220.83-221.31 220.83S1231.1 2197 1231.1 2075Z" transform="translate(-564.51 -198.54)" style="fill:url(#b)"/><path d="M1783.55 2077.32c0-175.23-148.57-321.48-322.8-324.57 2 0 4-.07 6-.07 183.37 0 329.49 147.48 329.49 324.64S1658.39 2398.1 1475 2398.1c-2 0-4 0-6-.07 174.26-3.09 314.55-145.48 314.55-320.71Zm-333-316.87c177.87 0 322.06 141.77 322.06 316.65s-144.19 316.64-322.06 316.64-322.03-141.74-322.03-316.64 144.19-316.65 322.07-316.65Zm0 612.15c166 0 300.56-132.3 300.56-295.5s-134.57-295.5-300.56-295.5S1150 1913.9 1150 2077.1s134.59 295.5 300.59 295.5Z" transform="translate(-564.51 -198.54)" style="fill:url(#p)"/><path d="M1237.93 2075c0-117.45 95.4-213 212.66-213s212.65 95.54 212.65 213-95.39 213-212.65 213-212.66-95.53-212.66-213Zm41.19 0c0 94.69 76.92 171.73 171.47 171.73s171.46-77 171.46-171.73-76.92-171.73-171.46-171.73-171.47 77.06-171.47 171.73Z" transform="translate(-564.51 -198.54)" style="fill:url(#e)"/><path d="M1259.05 2075c0-105.78 85.92-191.84 191.54-191.84s191.53 86.06 191.53 191.84-85.92 191.83-191.53 191.83-191.54-86.03-191.54-191.83Zm-5.85 0c0 109 88.55 197.69 197.39 197.69S1648 2184 1648 2075s-88.55-197.69-197.38-197.69S1253.2 1966 1253.2 2075Z" transform="translate(-564.51 -198.54)" style="fill:url(#c)"/><path d="M1234.85 2075c0-119.15 96.78-216.08 215.74-216.08s215.74 96.93 215.74 216.08-96.78 216.07-215.74 216.07-215.74-96.9-215.74-216.07Zm10.78 0c0 113.18 91.95 205.27 205 205.27s205-92.09 205-205.27-91.94-205.27-205-205.27-205 92.11-205 205.27Z" transform="translate(-564.51 -198.54)" style="fill:url(#q)"/><path d="M1452.41 1907.38c-91.49 0-165.92 74.54-165.92 166.17s74.43 166.18 165.92 166.18 165.93-74.55 165.93-166.18-74.43-166.17-165.93-166.17Zm128.59 99.18a9.46 9.46 0 0 1-5.9 5.58l-14.94 4.86a9.43 9.43 0 0 1-11-4 116.08 116.08 0 0 0-12.7-17.47 9.46 9.46 0 0 1-.46-11.72l9.23-12.72a9.45 9.45 0 0 1 7.12-3.9 9.31 9.31 0 0 1 7.41 3 150.84 150.84 0 0 1 20.65 28.39 9.38 9.38 0 0 1 .59 7.98Zm-28.62 170a9.43 9.43 0 0 1-7.12-3.91l-9.23-12.71a9.48 9.48 0 0 1 .46-11.73 114.89 114.89 0 0 0 12.7-17.47 9.35 9.35 0 0 1 8-4.49 9.52 9.52 0 0 1 2.92.46l14.94 4.86a9.46 9.46 0 0 1 5.34 13.62 150.84 150.84 0 0 1-20.65 28.39 9.28 9.28 0 0 1-7.37 2.97Zm12.44-93.89a114.693 114.693 0 0 0 0-21.62 9.45 9.45 0 0 1 6.5-9.75l15-4.87a9.54 9.54 0 0 1 2.93-.46 9.4 9.4 0 0 1 5.11 1.5 9.27 9.27 0 0 1 4.25 6.78 151.05 151.05 0 0 1 0 35.22 9.27 9.27 0 0 1-4.25 6.78 9.4 9.4 0 0 1-8 1l-15-4.86a9.45 9.45 0 0 1-6.55-9.73Zm-57.9-120.12a9.44 9.44 0 0 1-11.28 3.17 114.76 114.76 0 0 0-20.4-6.67 9.6 9.6 0 0 1-7.35-9.37v-15.59a9.46 9.46 0 0 1 9.43-9.49 8.84 8.84 0 0 1 1.84.19 148.37 148.37 0 0 1 33.4 10.9 9.32 9.32 0 0 1 5.1 6.13 9.5 9.5 0 0 1-1.51 8Zm-39 231.49a9.6 9.6 0 0 1 7.35-9.37 115.58 115.58 0 0 0 20.4-6.67 9.11 9.11 0 0 1 3.61-.74 9.53 9.53 0 0 1 7.67 3.91l9.23 12.73a9.5 9.5 0 0 1 1.51 8 9.32 9.32 0 0 1-5.1 6.13 148.37 148.37 0 0 1-33.4 10.9 9.46 9.46 0 0 1-11.27-9.3Zm-63.77-228.32a9.42 9.42 0 0 1-11.28-3.17l-9.23-12.73a9.5 9.5 0 0 1-1.51-8 9.32 9.32 0 0 1 5.1-6.13 148.29 148.29 0 0 1 33.39-10.9 8.94 8.94 0 0 1 1.85-.19 9.46 9.46 0 0 1 9.43 9.49v15.59a9.6 9.6 0 0 1-7.35 9.37 114.76 114.76 0 0 0-20.44 6.66Zm-20.51 228.18 9.23-12.73a9.51 9.51 0 0 1 7.67-3.91 9.11 9.11 0 0 1 3.61.74 115.58 115.58 0 0 0 20.4 6.67 9.6 9.6 0 0 1 7.35 9.37v15.59a9.46 9.46 0 0 1-11.28 9.3 148.46 148.46 0 0 1-33.39-10.9 9.32 9.32 0 0 1-5.1-6.13 9.5 9.5 0 0 1 1.47-8.01Zm-20.35-198.4a116.78 116.78 0 0 0-12.7 17.47 9.42 9.42 0 0 1-11 4l-14.93-4.86a9.47 9.47 0 0 1-5.34-13.62 150.84 150.84 0 0 1 20.65-28.39 9.28 9.28 0 0 1 6.85-3h.56a9.46 9.46 0 0 1 7.12 3.9l9.23 12.72a9.45 9.45 0 0 1-.48 11.77Zm-28.36 65.5c-.34 3.57-.51 7.21-.51 10.81s.17 7.24.51 10.81a9.46 9.46 0 0 1-6.5 9.75l-15 4.87a9.44 9.44 0 0 1-8-1 9.31 9.31 0 0 1-4.26-6.78 151.05 151.05 0 0 1 0-35.22 9.44 9.44 0 0 1 9.36-8.28 9.55 9.55 0 0 1 2.94.46l15 4.87a9.46 9.46 0 0 1 6.46 9.71Zm-16.18 76.09a9.45 9.45 0 0 1 5.9-5.57l14.93-4.86a9.41 9.41 0 0 1 11 4 116.27 116.27 0 0 0 12.7 17.47 9.47 9.47 0 0 1 .47 11.73l-9.23 12.71a9.4 9.4 0 0 1-7.12 3.9 9.27 9.27 0 0 1-7.41-3 150.39 150.39 0 0 1-20.65-28.39 9.4 9.4 0 0 1-.59-7.95Z" transform="translate(-564.51 -198.54)" style="fill:url(#f)"/><path d="M1279.12 2075c0 94.69 76.92 171.73 171.47 171.73s171.46-77 171.46-171.73-76.92-171.73-171.46-171.73-171.47 77.06-171.47 171.73Zm304.06 27.58-15-4.87a13.45 13.45 0 0 1-9.28-14q.48-5.14.48-10.43t-.48-10.43a13.45 13.45 0 0 1 9.28-14l15-4.87a13.49 13.49 0 0 1 17.58 11.2 154.81 154.81 0 0 1 0 36.17 13.49 13.49 0 0 1-17.58 11.26Zm-51.57 44.42a111.37 111.37 0 0 0 12.26-16.86 13.42 13.42 0 0 1 15.71-5.82l14.94 4.86a13.53 13.53 0 0 1 7.62 19.46 154.53 154.53 0 0 1-21.21 29.15 13.47 13.47 0 0 1-20.79-1.29l-9.23-12.72a13.48 13.48 0 0 1 .7-16.78Zm-.7-164.14 9.23-12.71a13.47 13.47 0 0 1 20.79-1.29 154.78 154.78 0 0 1 21.21 29.14 13.54 13.54 0 0 1-7.62 19.47l-14.94 4.86a13.42 13.42 0 0 1-15.71-5.82 111.37 111.37 0 0 0-12.26-16.86 13.49 13.49 0 0 1-.7-16.79ZM1462 2195.5a13.62 13.62 0 0 1 10.51-13.33 110.12 110.12 0 0 0 19.67-6.42 13.43 13.43 0 0 1 16.18 4.51l9.23 12.72a13.53 13.53 0 0 1-5.16 20.2 152.66 152.66 0 0 1-34.31 11.19 13.5 13.5 0 0 1-16.12-13.27Zm0-260a13.5 13.5 0 0 1 16.12-13.27 152.66 152.66 0 0 1 34.31 11.19 13.52 13.52 0 0 1 5.16 20.19l-9.23 12.73a13.43 13.43 0 0 1-16.18 4.51 110.14 110.14 0 0 0-19.67-6.43 13.6 13.6 0 0 1-10.51-13.32Zm-97.53 64.1a111.37 111.37 0 0 0-12.26 16.86 13.41 13.41 0 0 1-15.71 5.82l-14.94-4.86a13.54 13.54 0 0 1-7.62-19.47 154.78 154.78 0 0 1 21.21-29.14 13.48 13.48 0 0 1 20.8 1.29l9.22 12.71a13.49 13.49 0 0 1-.7 16.84Zm14 193.33 9.23-12.72a13.43 13.43 0 0 1 16.18-4.51 109.58 109.58 0 0 0 19.67 6.42 13.63 13.63 0 0 1 10.52 13.33v15.6a13.51 13.51 0 0 1-16.13 13.27 152.58 152.58 0 0 1-34.3-11.19 13.52 13.52 0 0 1-5.15-20.13Zm5.17-259.51a152.58 152.58 0 0 1 34.3-11.19 13.51 13.51 0 0 1 16.13 13.27v15.6a13.61 13.61 0 0 1-10.52 13.32 110.41 110.41 0 0 0-19.67 6.43 13.43 13.43 0 0 1-16.18-4.51l-9.23-12.73a13.52 13.52 0 0 1 5.19-20.14Zm-62.1 195.71 14.94-4.86a13.41 13.41 0 0 1 15.71 5.82 111.37 111.37 0 0 0 12.26 16.86 13.48 13.48 0 0 1 .7 16.78l-9.15 12.77a13.48 13.48 0 0 1-20.8 1.29 154.78 154.78 0 0 1-21.21-29.14 13.54 13.54 0 0 1 7.57-19.47Zm-26.24-37.77a154.81 154.81 0 0 1 0-36.17 13.49 13.49 0 0 1 17.58-11.2l14.95 4.87a13.47 13.47 0 0 1 9.29 14q-.5 5.16-.49 10.43t.49 10.43a13.47 13.47 0 0 1-9.29 14l-14.95 4.87a13.49 13.49 0 0 1-17.56-11.18Z" transform="translate(-564.51 -198.54)" style="fill:url(#d)"/><path d="M1277.71 2075c0-95.48 77.55-173.15 172.88-173.15s172.87 77.67 172.87 173.15-77.55 173.14-172.87 173.14-172.88-77.64-172.88-173.14Zm2.82 0c0 93.91 76.29 170.31 170.06 170.31s170.05-76.4 170.05-170.31-76.29-170.32-170.05-170.32-170.06 76.43-170.06 170.32Z" transform="translate(-564.51 -198.54)" style="fill:url(#r)"/><path d="M1434.05 2080.71a14.3 14.3 0 1 1 18.27 8.68 14.36 14.36 0 0 1-18.27-8.68Z" transform="translate(-564.51 -198.54)" style="fill:url(#s)"/><path d="M1446.18 2082.17c6.36.48 12.13-1.85 15.62-5.73a14.29 14.29 0 0 1-27.75 4.27 14.49 14.49 0 0 1-.82-4.45 19.73 19.73 0 0 0 12.95 5.91Z" transform="translate(-564.51 -198.54)" style="fill:url(#g)"/><path d="M1347.57 1864.19s-101.18 64.8-110.16 27.86-24.92-45.29-24.92-45.29-15.42-98.91-66-109.43-65.11-19.59-85.68-33.49c-164-110.83-321.28-35-369.31 4.62s-74.61 45.8-74.61 45.8-32.87 28.91-52.44 66.37c-24.31-19.48-58.13-9.46-58.13-9.46V1323.6h841.28ZM4122.33 1551.46h-20.34c-180.48 0-326.79 146.54-326.79 327.3s146.31 327.3 326.79 327.3h20.34c180.48 0 326.79-146.54 326.79-327.3s-146.31-327.3-326.79-327.3Zm-1.84 529.7c-111.42 0-202.07-90.79-202.07-202.38s90.65-202.39 202.07-202.39 202.07 90.79 202.07 202.39-90.64 202.38-202.07 202.38Z"/><path d="M4689.9 1787.18c-161.31 0-292.08 129.14-292.08 288.44s130.77 288.43 292.08 288.43 292.1-129.13 292.1-288.43-130.78-288.44-292.1-288.44Zm-4.9 508.68c-122.22 0-221.31-98.87-221.31-220.83s99.09-220.84 221.31-220.84 221.31 98.87 221.31 220.84-99.07 220.83-221.31 220.83Z" transform="translate(-564.51 -198.54)" style="fill:url(#t)"/><path d="M4668.39 2398c-2 0-4 .07-6 .07-183.37 0-321.21-143.62-321.21-320.78s146.12-324.64 329.49-324.64c2 0 4 0 6 .07-174.22 3.09-322.8 149.34-322.8 324.57s140.29 317.65 314.52 320.71Zm340.52-320.93c0 174.87-144.2 316.64-322.07 316.64S4364.77 2252 4364.77 2077.1s144.2-316.65 322.07-316.65 322.07 141.77 322.07 316.65Zm-21.51 0c0-163.2-134.57-295.5-300.56-295.5s-300.56 132.3-300.56 295.5 134.56 295.5 300.56 295.5 300.56-132.27 300.56-295.47Z" transform="translate(-564.51 -198.54)" style="fill:url(#u)"/><path d="M4686.84 2288c-117.26 0-212.66-95.54-212.66-213s95.4-213 212.66-213 212.66 95.54 212.66 213-95.4 213-212.66 213Zm0-384.71c-94.55 0-171.47 77-171.47 171.73s76.92 171.73 171.47 171.73 171.46-77 171.46-171.73-76.91-171.72-171.46-171.72Z" transform="translate(-564.51 -198.54)" style="fill:url(#v)"/><path d="M4686.84 2266.86c-105.61 0-191.54-86.06-191.54-191.83s85.93-191.84 191.54-191.84 191.54 86.06 191.54 191.84-85.93 191.83-191.54 191.83Zm0-389.52c-108.84 0-197.38 88.68-197.38 197.69s88.54 197.69 197.38 197.69S4884.22 2184 4884.22 2075s-88.54-197.66-197.38-197.66Z" transform="translate(-564.51 -198.54)" style="fill:url(#w)"/><path d="M4686.84 2291.1c-119 0-215.74-96.93-215.74-216.07S4567.88 1859 4686.84 1859s215.74 96.93 215.74 216.08-96.78 216.02-215.74 216.02Zm0-421.34c-113 0-204.95 92.08-204.95 205.27s91.94 205.27 204.95 205.27 204.95-92.09 204.95-205.27-91.94-205.27-204.95-205.27Z" transform="translate(-564.51 -198.54)" style="fill:url(#x)"/><path d="M4685 1907.63c-91.23 0-165.45 74.33-165.45 165.69S4593.78 2239 4685 2239s165.45-74.33 165.45-165.7-74.21-165.67-165.45-165.67Zm48.31 270.14a8.92 8.92 0 0 1 3.61-.75 9.53 9.53 0 0 1 7.67 3.91l9.23 12.73a9.47 9.47 0 0 1 1.5 8 9.25 9.25 0 0 1-5.09 6.13 148.54 148.54 0 0 1-33.4 10.9 9.36 9.36 0 0 1-7.8-2 9.45 9.45 0 0 1-3.47-7.34v-15.6a9.6 9.6 0 0 1 7.35-9.37 115.54 115.54 0 0 0 20.41-6.61Zm20.51-228.19-9.24 12.73a9.41 9.41 0 0 1-11.27 3.17 114.73 114.73 0 0 0-20.4-6.66 9.61 9.61 0 0 1-7.35-9.38v-15.59a9.46 9.46 0 0 1 9.43-9.48 9.56 9.56 0 0 1 1.84.18 148.37 148.37 0 0 1 33.4 10.9 9.27 9.27 0 0 1 5.09 6.13 9.46 9.46 0 0 1-1.49 8Zm64.85 56.76a9.45 9.45 0 0 1-5.9 5.57l-14.94 4.86a9.42 9.42 0 0 1-11-4 116.08 116.08 0 0 0-12.7-17.47 9.48 9.48 0 0 1-.46-11.73l9.23-12.71a9.42 9.42 0 0 1 7.12-3.9 9.3 9.3 0 0 1 7.41 3 151.28 151.28 0 0 1 20.65 28.39 9.4 9.4 0 0 1 .6 7.99Zm-45 153.36a9.45 9.45 0 0 1 .46-11.72 116.78 116.78 0 0 0 12.7-17.47 9.36 9.36 0 0 1 8.05-4.5 9.52 9.52 0 0 1 2.92.46l14.94 4.86a9.48 9.48 0 0 1 5.34 13.63 151.54 151.54 0 0 1-20.65 28.38 9.34 9.34 0 0 1-7.41 3 9.45 9.45 0 0 1-7.12-3.9Zm28.79-77.27c.33-3.57.5-7.21.5-10.81s-.17-7.24-.5-10.8a9.45 9.45 0 0 1 6.5-9.76l14.95-4.86a9.36 9.36 0 0 1 2.94-.47 9.48 9.48 0 0 1 5.11 1.5 9.33 9.33 0 0 1 4.25 6.78 151.14 151.14 0 0 1 0 35.23 9.33 9.33 0 0 1-4.21 6.76 9.46 9.46 0 0 1-8.05 1l-14.95-4.87a9.44 9.44 0 0 1-6.5-9.7Zm-160.7-116.95a9.42 9.42 0 0 1-11.28-3.17l-9.23-12.73a9.5 9.5 0 0 1-1.51-8 9.32 9.32 0 0 1 5.1-6.13 148.29 148.29 0 0 1 33.39-10.9 9.66 9.66 0 0 1 1.85-.18 9.46 9.46 0 0 1 9.43 9.48v15.59a9.61 9.61 0 0 1-7.36 9.38 114.63 114.63 0 0 0-20.35 6.66Zm-20.51 228.18 9.23-12.73a9.51 9.51 0 0 1 7.67-3.91 9 9 0 0 1 3.61.75 115 115 0 0 0 20.4 6.66 9.6 9.6 0 0 1 7.35 9.37v15.6a9.49 9.49 0 0 1-3.47 7.34 9.39 9.39 0 0 1-7.81 2 148.29 148.29 0 0 1-33.39-10.9 9.29 9.29 0 0 1-5.1-6.13 9.51 9.51 0 0 1 1.55-8.05Zm-19.88-34-9.23 12.72a9.46 9.46 0 0 1-7.12 3.9 9.33 9.33 0 0 1-7.41-3A150.65 150.65 0 0 1 4557 2145a9.37 9.37 0 0 1-.56-8.05 9.49 9.49 0 0 1 5.9-5.58l14.93-4.86a9.58 9.58 0 0 1 2.93-.46 9.34 9.34 0 0 1 8 4.5 116.78 116.78 0 0 0 12.7 17.47 9.45 9.45 0 0 1 .46 11.72Zm-28.8-98.88c-.33 3.57-.5 7.2-.5 10.8s.17 7.24.5 10.81a9.43 9.43 0 0 1-6.5 9.75l-14.95 4.87a9.44 9.44 0 0 1-8-1 9.31 9.31 0 0 1-4.26-6.77 151.14 151.14 0 0 1 0-35.23 9.43 9.43 0 0 1 12.3-7.81l14.95 4.86a9.44 9.44 0 0 1 6.5 9.76Zm28.33-65.55a116.27 116.27 0 0 0-12.7 17.47 9.41 9.41 0 0 1-11 4l-14.93-4.86a9.47 9.47 0 0 1-5.35-13.62 150.89 150.89 0 0 1 20.66-28.39 9.28 9.28 0 0 1 6.85-3 5.33 5.33 0 0 1 .56 0 9.43 9.43 0 0 1 7.12 3.9l9.22 12.71a9.47 9.47 0 0 1-.39 11.83Z" transform="translate(-564.51 -198.54)" style="fill:url(#y)"/><path d="M4686.84 1903.3c-94.55 0-171.47 77-171.47 171.73s76.92 171.73 171.47 171.73 171.46-77 171.46-171.73-76.91-171.73-171.46-171.73Zm-150.18 188.11a154.81 154.81 0 0 1 0-36.17 13.49 13.49 0 0 1 17.58-11.2l15 4.87a13.46 13.46 0 0 1 9.28 14c-.32 3.44-.49 6.92-.49 10.43s.17 7 .49 10.43a13.46 13.46 0 0 1-9.28 14l-15 4.87a13.49 13.49 0 0 1-17.58-11.23Zm69.85 72.37-9.22 12.72a13.48 13.48 0 0 1-20.8 1.29 154.92 154.92 0 0 1-21.2-29.15 13.52 13.52 0 0 1 7.62-19.46l14.93-4.86a13.43 13.43 0 0 1 15.72 5.82 112 112 0 0 0 12.25 16.86 13.45 13.45 0 0 1 .7 16.78Zm-.7-164.13a112 112 0 0 0-12.25 16.86 13.43 13.43 0 0 1-15.72 5.82l-14.93-4.86a13.53 13.53 0 0 1-7.62-19.47 155.17 155.17 0 0 1 21.2-29.14 13.48 13.48 0 0 1 20.8 1.29l9.22 12.71a13.46 13.46 0 0 1-.7 16.79Zm69.62 211.45a13.5 13.5 0 0 1-16.12 13.27 152.5 152.5 0 0 1-34.31-11.19 13.52 13.52 0 0 1-5.17-20.2l9.23-12.72a13.43 13.43 0 0 1 16.18-4.51 110.38 110.38 0 0 0 19.67 6.42 13.62 13.62 0 0 1 10.52 13.33Zm0-259.95a13.6 13.6 0 0 1-10.52 13.32 110.41 110.41 0 0 0-19.67 6.43 13.43 13.43 0 0 1-16.18-4.51l-9.23-12.73a13.52 13.52 0 0 1 5.17-20.19 152.5 152.5 0 0 1 34.31-11.19 13.5 13.5 0 0 1 16.12 13.27Zm96.83 31.71 9.22-12.71a13.48 13.48 0 0 1 20.8-1.29 155.17 155.17 0 0 1 21.2 29.14 13.53 13.53 0 0 1-7.62 19.47l-14.94 4.86a13.42 13.42 0 0 1-15.71-5.82 112 112 0 0 0-12.25-16.86 13.46 13.46 0 0 1-.7-16.79Zm-18.49 230.32a152.5 152.5 0 0 1-34.31 11.19 13.5 13.5 0 0 1-16.12-13.27v-15.6a13.62 13.62 0 0 1 10.51-13.33 109.42 109.42 0 0 0 19.68-6.42 13.42 13.42 0 0 1 16.17 4.51l9.24 12.72a13.52 13.52 0 0 1-5.17 20.2Zm5.17-259.52-9.24 12.73a13.42 13.42 0 0 1-16.17 4.51 110.25 110.25 0 0 0-19.68-6.43 13.6 13.6 0 0 1-10.51-13.32v-15.6a13.5 13.5 0 0 1 16.12-13.27 152.5 152.5 0 0 1 34.31 11.19 13.52 13.52 0 0 1 5.17 20.19Zm64.54 195a155.17 155.17 0 0 1-21.2 29.14 13.48 13.48 0 0 1-20.8-1.29l-9.22-12.72a13.45 13.45 0 0 1 .7-16.78 112 112 0 0 0 12.25-16.86 13.42 13.42 0 0 1 15.71-5.82l14.94 4.86a13.52 13.52 0 0 1 7.62 19.46Zm1.05-46-15-4.87a13.46 13.46 0 0 1-9.28-14c.32-3.43.49-6.91.49-10.43s-.17-7-.49-10.43a13.46 13.46 0 0 1 9.28-14l15-4.87a13.49 13.49 0 0 1 17.58 11.2 156.27 156.27 0 0 1 0 36.17 13.49 13.49 0 0 1-17.58 11.18Z" transform="translate(-564.51 -198.54)" style="fill:url(#z)"/><path d="M4686.84 2248.17c-95.33 0-172.88-77.67-172.88-173.14s77.55-173.15 172.88-173.15 172.88 77.67 172.88 173.15-77.55 173.14-172.88 173.14Zm0-343.46c-93.77 0-170.05 76.4-170.05 170.32s76.28 170.31 170.05 170.31 170.05-76.4 170.05-170.31-76.28-170.32-170.05-170.32Z" transform="translate(-564.51 -198.54)" style="fill:url(#A)"/><path d="M4685.1 2089.39a14.32 14.32 0 1 1 18.28-8.68 14.34 14.34 0 0 1-18.28 8.68Z" transform="translate(-564.51 -198.54)" style="fill:url(#B)"/><path d="M4691.25 2082.17c-6.36.48-12.14-1.85-15.63-5.73a14.3 14.3 0 0 0 27.76 4.27 14.49 14.49 0 0 0 .82-4.45 19.73 19.73 0 0 1-12.95 5.91Z" transform="translate(-564.51 -198.54)" style="fill:url(#C)"/><path d="M3660.84 1864.19s101.18 64.8 110.15 27.86 24.93-45.29 24.93-45.29 15.42-98.91 66-109.43 65.11-19.59 85.68-33.49c164-110.83 321.29-35 369.32 4.62s74.61 45.8 74.61 45.8 32.87 28.91 52.43 66.37c24.32-19.48 58.14-9.46 58.14-9.46v-427.5h-841.26Z"/><path d="M2298.1 334.5c-264.78-4.32-573.94-8.91-842.49-12.34 30.91-18.55 83.13-44.73 132.24-45.16 564.83-5 658.15-26 1192.7-18 102.27 1.53 166.1 53.67 197 87.8-174.44-3.62-405.85-7.83-671.37-12.17Zm2427.33 815.1a2.77 2.77 0 0 0 1.29 3c14.26 8.05 70.63 39.85 92.11 51.84 32.12 17.93 67.72 55.51 91.78 79.26a24.63 24.63 0 0 0 11.66 6.45c34.08 8 207 49.21 264.39 74.76 41.41 18.44 73.9 52.33 94.88 84.7v.07a12.93 12.93 0 0 0 8.37 5.65l31.28 6.09a1.42 1.42 0 0 0 1.55-2c-18.1-38-45.14-73.74-90.09-98.44-86.77-47.68-483.17-213.32-505.4-223.14-16-7-26.71-7.42-31.5-7.06 6.49.12 31.86 7.84 29.68 18.82Zm-1341.37 189.63c8.26 2.1 22.61 4.75 43.61 5.22a205.5 205.5 0 0 0 26-.78c-7.16-2-17.22-4-32.12-5.1-19.79-1.45-29.55-.43-37.49.66ZM2304.55 380a5.83 5.83 0 0 0 5.77 6.06c76.77.78 566.77 6 807 14.45 222.6 7.88 391.34 26.42 436.34 31.72a6.51 6.51 0 0 0 7.28-6.48l-.07-36.13c-100.78-17.21-216.82-28.11-352.63-31.79-175.52-4.75-523.91-11.31-902.1-17.5-.43 10.19-.96 23.55-1.59 39.67ZM722.9 1173.39a9.7 9.7 0 0 0 13.67 1.59l57.72-45.86a64.42 64.42 0 0 0 24.27-45.7c5.22-70.76 19.19-253.91 36.16-425.92 17-172.84 32.23-285.08 45.27-335-53.32-.11-85.84.2-92 1-50.54 6.67-81.09 55.6-94.41 125.87-41.62 219.61-68.16 466.49-85 680a5.36 5.36 0 0 0 5 5.77l40.37 3c13 1 30.52 16.28 35.58 20.95a123.91 123.91 0 0 1 13.37 14.3Zm1554.7 105.84L1028 1254.46a14.3 14.3 0 0 1-14-14.3v-27.69a14.3 14.3 0 0 1 14.55-14.3l1248.74 21.62v-55.44l-1078.16-22.22a330.8 330.8 0 0 1-146-37.32c-70.42-36.68-167.9-91.2-167.9-111.91C890.44 826.28 911 644.48 920 570.58A38.26 38.26 0 0 1 958.54 537l1331.61 18.39c3.31-99.86 6.36-178.08 7.86-215.18-547-8.93-1154.08-17-1389.78-17.68-25.58 94.82-58.14 443.78-81.59 761.52a72.47 72.47 0 0 1-27.32 51.46s-54.7 43.34-60.71 48.25a19 19 0 0 0-7.39 13.83c-2.23 48.21-21.72 392.68-24.3 438.31a4.85 4.85 0 0 0 4.71 5.12l469.57 12.65c.28 0 .56 0 .83.06a41.56 41.56 0 0 0 25.41-5.35 428.7 428.7 0 0 1 64.21-31.38c57.07-22.28 120.69-33.58 189.11-33.58 91.36 0 177 27.44 247.81 78.45a37.33 37.33 0 0 0 23.36 6.68h.82l551 14.85a9.4 9.4 0 0 0 9.61-10.41c-3.97-37.37-13.86-152.51-15.76-393.76ZM3561 448.63l2.43 1257a11.87 11.87 0 0 1-12.18 11.89l-1241.37-33.46a8.12 8.12 0 0 1-7.86-7.19c-3.9-34.17-16.6-169.37-16.6-480.86q0-15.59.05-31.5l1106.77 22.81a71.27 71.27 0 0 0 72.49-77.3l-40.35-474.74a71.28 71.28 0 0 0-70-65.24l-1056-14.58c2-60.59 3.92-113.21 5.45-153.49a8.12 8.12 0 0 1 8.19-7.81c81.86.83 566.65 6 805.11 14.42 223.93 7.93 393.21 26.65 436.6 31.79a8.32 8.32 0 0 1 7.27 8.26Zm-58.41 882.79c-.13-11-15.89-17.17-26.06-18.75s-19.39 2.54-55.31 0a207.79 207.79 0 0 1-22.08-2.6c7.33-3.9 11.15-10.22 18.66-12.59 28.26-9 40.08 12.52 43.42 7.28 1.95-3.07-3.6-20.07-44.93-20.86-31.46-.61-44.67 12.33-49.18 18.53-14.8-1.23-51.59-1.81-62.23.06-10.8 1.91-11 22.92-1.9 26.7 9.81 7.35 55.94 21.3 66.67 20.35s23.92 0 43.86 0 44.58 6.67 55.55 6.67c10.18 0 25.11-8.85 27.19-10.11h.05l.2-.12c4.14-2.58 6.16-6.98 6.06-14.56ZM5093.47 1532c-29.88-75.33-100.76-161.79-180.47-237-23-21.68-57.29-64.92-95.36-88.44s-93.69-53.56-93.69-53.56c-19.07-10.17-62.94-35.85-101.87-68.82s-453.91-384.29-462.81-392.56-7-24.48-7-24.48l-31.47-27C3986.74 525 3829.18 436.68 3569 391l.34 178.72a8.39 8.39 0 0 0 7.77 8.35c44.06 3.31 205.39 16.06 324.45 33.92 60 9 107.68 23 150.14 44.1 38.36 19.06 69.16 42.31 101.77 66.93 5.11 3.85 10.28 7.76 15.57 11.71 71.63 53.59 319.82 258.66 360.76 296 27.9 25.42 35.41 57.39 40.89 80.75 2.42 10.32 4.51 19.23 7.7 23.78.8 1.15 1.57 2.21 2.3 3.22l245.09 216.34a24.88 24.88 0 0 1-16.32 43.53c-.82 0-1.64 0-2.47-.12-47.17-4.44-126.44-12.1-216.51-21.6a6 6 0 0 0-6.57 5.72c-.7 23-2.6 78.81-5.14 100.74-1.08 9.42-4.61 19.13-9.08 31.42-8.11 22.35-19 52.27-21.06 99.33a4.85 4.85 0 0 0 6.3 4.85 406 406 0 0 1 123.17-19c62.68 0 122.22 10.32 177 30.67a432 432 0 0 1 112.47 61.67 27 27 0 0 0 18.34 5.23h1.02c35.59.68 93.71 2.17 155.76 5.29a5.37 5.37 0 0 0 5.42-6.9c-11.45-38.52-33.67-110.79-54.64-163.65Zm263.82 31.79c-7.48-27.8-15.36-59.63-28.42-90.75a12.3 12.3 0 0 0-8.85-7.27l-30.13-6.21a1.16 1.16 0 0 0-1.24 1.72 201 201 0 0 1 12.94 26.78c17.16 44.16 24.72 87.88 24.77 88.3l1 9.05-7.42-5.29c-.41-.28-43.42-29.07-213.94-44.59a4.58 4.58 0 0 0-4.66 6.24c22.4 56.67 41.12 117.28 51.23 151.81a14 14 0 0 0 12.67 10.07c73.59 4.13 149.51 10.63 197.82 20.83 1.22.26 2.44.55 3.66.89a6 6 0 0 0 7.59-6c-1.37-43.08-5.4-112.46-17.02-155.59Zm-795.29-52.1c-8.27 22.77-19.33 53.23-21.51 101.19a16.36 16.36 0 0 1-10.36 14.49c-58.07 22.64-111.59 58.73-157.55 106.88a16.9 16.9 0 0 1-12.9 5.06h-.07l-775.43-20.9a13.07 13.07 0 0 1-12.71-13l-2.15-1110.32a8.73 8.73 0 0 1 9.39-8.73c47 3.55 204.75 16.16 321.57 33.68 128.8 19.32 181.51 59.11 248.24 109.48 5.11 3.86 10.29 7.77 15.59 11.74 71.52 53.5 319.3 258.23 360.16 295.44 26 23.73 33.22 54.29 38.45 76.61 1 4.34 2 8.34 2.95 12l-34.05-30.06q-.87-8.31-1.76-16.44c-4-36.36-45.72-48-70.8-51.66a18.85 18.85 0 0 0-4.68-.08l-236.7-209c-93.37-82.42-180.5-129.29-259-139.28-56.58-7.21-179.09-17.38-247.08-22.8a53.67 53.67 0 0 0-57.43 60.89L3710 1118a108.23 108.23 0 0 0 68.42 86.16c100.25 38.45 294.6 106.67 469.91 131.52 58.94 8.36 125.42 16.64 192.17 24.38-.31 3.93-8.31 9.78-8.56 13.64-1.09 17-1.56 33.27-1.19 48.12.71 27.73 39.48 49.48 90.6 18.84 11.93-7.16 30.67-30.56 32.58-54.3.27-3.48 8.25-9 8.48-12.73l5.29.57a9 9 0 0 1 8.06 9.25c-.74 23.7-2.62 77.78-5 98.7-1.05 8.42-4.44 17.74-8.76 29.54Zm-946.95-158a6.68 6.68 0 0 0-6.68-6.68h-23.2a6.68 6.68 0 0 0-6.68 6.68v42.59a6.68 6.68 0 0 0 6.68 6.68h23.2a6.68 6.68 0 0 0 6.68-6.68Zm220.12-1.1c-.14-11-15.9-17.17-26.07-18.76s-19.39 2.54-55.31 0a208.19 208.19 0 0 1-22.08-2.59c7.33-3.9 11.16-10.22 18.67-12.6 28.26-8.94 40.07 12.53 43.41 7.28 2-3.06-3.6-20.06-44.92-20.85-31.47-.61-44.68 12.32-49.19 18.53-14.8-1.23-51.59-1.82-62.22.06-10.81 1.91-11.05 22.92-1.91 26.7 9.81 7.35 55.94 21.3 66.67 20.34s23.92 0 43.86 0 44.59 6.68 55.55 6.68c10.19 0 25.11-8.85 27.19-10.11l.2-.13c4.26-2.59 6.28-6.97 6.19-14.57Zm-118.51 7.8c8.26 2.11 22.61 4.76 43.61 5.23a209.39 209.39 0 0 0 26-.78c-7.16-2-17.22-4-32.12-5.1-19.74-1.47-29.52-.45-37.45.63Z" transform="translate(-564.51 -198.54)" style="fill:url(#D)"/><path d="M4418.5 1309.87c-.31-3.26-.58-6.59-.82-10a91 91 0 0 1-71.17 21.55c-32.78-4.14-64.57-8.35-94.41-12.58-35.42-5-71.65-11.85-107.73-19.87l-74.24-543.85q61.88 33.35 129.7 93.15l233.63 206.23c.09-.68.19-1.36.28-2a22.66 22.66 0 0 1 8.9-15.13l-230.29-203.26c-85-75-172.28-126.83-254.61-137.32-55.86-7.11-175.53-17.09-246.69-22.76a45.56 45.56 0 0 0-48.75 51.69l55.7 401.12a100.07 100.07 0 0 0 63.28 79.7c93.86 36 291.44 106 468.15 131.06 58.86 8.35 125.12 16.61 191.71 24.34.15-1.73.3-3.46.46-5.2.36-3.92.76-7.87 1.18-11.82-13.92-5.49-23.31-14.78-24.28-25.05Zm-630.43-131a81.17 81.17 0 0 1-51.32-64.63L3681 713.12a26.65 26.65 0 0 1 28.5-30.23c67.76 5.4 189.78 15.53 245.81 22.67q40.44 5.16 84.54 24.73l75.58 552c-129.62-30.99-253.96-75.29-327.36-103.42Z" transform="translate(-564.51 -198.54)" style="fill:url(#h)"/><path d="m4820.38 1360.84-233.48-206.1c2 7.89 4.5 19.93 4.5 32 0 20.5-2.78 126.37-3.33 147.89a89.24 89.24 0 0 1-6.87 32.85c93.09 9.87 176 17.9 226.52 22.65 16.16 1.49 24.83-18.55 12.66-29.29Z" transform="translate(-564.51 -198.54)" style="fill:url(#E)"/><path d="M4585.21 1187c.28-14.48-4.38-30.68-7.84-40.62l-40.37-35.66c1.33 16.17 2.37 32.61 3.07 48.78 11.83 8.72 20.72 20.8 21.39 37.5 2 50.84 3.47 108.26 1.9 154.9-.16 4.65-.35 9.17-.57 13.59l10.33 1.1c2.57-5.19 8.69-18.88 9.19-32.79.69-17.64 2.45-123.96 2.9-146.8Z" transform="translate(-564.51 -198.54)" style="fill:url(#F)"/><path d="M2292.91 1875.23a2.8 2.8 0 0 1-2.74-2.82c.19-31.62.89-115.64 1.42-141.83a106.4 106.4 0 0 1 2.78-23 20.11 20.11 0 0 1 20.1-15.27l1235.32 33.3a8.09 8.09 0 0 1 7.43 10.71 144.57 144.57 0 0 0-7.85 43c-.52 25.8-.62 91-.63 122.93a2.81 2.81 0 0 1-2.88 2.8Zm1281.93 155.49 661 6.7a9.51 9.51 0 0 0 9.51-9.43v-.1a353.4 353.4 0 0 1 5.31-49.89 18.82 18.82 0 0 0-18.14-22.13L3571.94 1943a2.83 2.83 0 0 0-2.86 2.85c-.13 7.14-1.45 54.53-2.07 76.71a7.9 7.9 0 0 0 7.83 8.16Zm-1844.95-347.19a415.45 415.45 0 0 1 37.23 35.32 422.54 422.54 0 0 1 86.43 140.05v.06a9.21 9.21 0 0 0 8.4 6l417.22 9.92a2.8 2.8 0 0 0 2.87-2.78c.2-31.87.9-115.57 1.42-141.71.27-13.54 2.38-23.73 4.79-31.08a6 6 0 0 0-5.61-7.9l-550.13-14.83a3.92 3.92 0 0 0-2.62 6.95Zm1829.7 221.82 672.47 16a45.4 45.4 0 0 0 43.2-28.59l.51-1.27a495.81 495.81 0 0 1 85.76-139.1v-.05a3 3 0 0 0-2.14-4.92l-778.89-21a15.23 15.23 0 0 0-14.75 10c-3.67 10.25-8 25.77-8.31 43-.52 25.82-.62 91.3-.64 123.1a2.81 2.81 0 0 0 2.79 2.83Zm-1661.73 5.18a23.82 23.82 0 0 0-24 27.3 364.18 364.18 0 0 1 3.88 65.05q0 .52-.06 1a8.72 8.72 0 0 0 8.49 9.69l400.89 4.06a7 7 0 0 0 7.1-7c0-23.67 0-72.64.08-89.66a2.81 2.81 0 0 0-2.75-2.82Zm404.37 99.29a8.09 8.09 0 0 0 8 8.09l1237.22 12.53a11.39 11.39 0 0 0 11.52-11.08c.65-23.18 1.86-66.81 2-73.59v-.25a2.81 2.81 0 0 0-2.76-2.75l-1253-24.33a2.81 2.81 0 0 0-2.86 2.79c-.13 16.86-.13 64.77-.12 88.59Zm2740.13-57.61H5093a7.26 7.26 0 0 0 7.27-7.44c-1.18-39-11.55-79.44-30.19-117.49-20.08-41-48.68-78.14-85-110.37-38.13-33.84-82.85-60.43-132.9-79-53.83-20-112.42-30.17-174.13-30.17a398 398 0 0 0-123.24 19.48 16.67 16.67 0 0 0-10.53 10.1c-7.83 21.49-11 51.11-12.32 70.73a4.37 4.37 0 0 0 6.25 4.24 325.75 325.75 0 0 1 139.84-31.56c100.76 0 192.59 32.25 258.59 90.81 54.75 48.58 95.54 113.06 98.45 173.81a7.25 7.25 0 0 0 7.27 6.86Zm-510.49-316.79c-62.45 24.59-119.51 65.07-167.29 119.63a491.65 491.65 0 0 0-85.05 138c-18.38 45.46-28.71 91.91-30.08 135a9.51 9.51 0 0 0 9.5 9.83H4308a9.49 9.49 0 0 0 9.44-8.35c8.63-73.87 44.23-160.39 102-226.36 28.3-32.31 60.39-58.68 95.12-78.56a18.15 18.15 0 0 0 9.09-14.7c1.13-18.83 4.05-48.26 11.58-71.29a2.57 2.57 0 0 0-3.36-3.2Zm-214.51 402.82h-.06Zm-10.1 6.69-2493.33-21.3a8 8 0 0 0-8 8.23l2 63.91a8 8 0 0 0 7.95 7.72l2488.12 4.89a8 8 0 0 0 8-8 391.22 391.22 0 0 1 3.1-46.43 8 8 0 0 0-7.84-9.02Zm-2489.68-29.23h42.65a13.41 13.41 0 0 0 13.42-13c1.5-47-6.69-95.92-23.9-142.44a418.39 418.39 0 0 0-85.6-138.69c-78.17-83.91-185.92-130.13-303.39-130.13-67.4 0-130 11.11-186.16 33-53.21 20.77-99.82 50.88-138.56 89.5a382.59 382.59 0 0 0-85.26 129.11 402.24 402.24 0 0 0-28.78 150.73v52.84a8.51 8.51 0 0 0 8.06 8.49c5.87.31 14 .71 21.33.91a8.51 8.51 0 0 0 8.7-7.91c2.9-41.34 9.06-51.83 26.18-53.9a10.16 10.16 0 0 0 8.85-9.88c4.46-155.86 119.33-319.85 365.68-319.85 97 0 185.78 38 250 106.88 58.56 62.86 94.68 150.87 93.42 230.71a13.42 13.42 0 0 0 13.36 13.63ZM1093 2010a6.79 6.79 0 0 0-7.3-7.37c-11.52.89-15.83 4.58-18.57 17.56-7 33.07-2.37 78.19 3.7 108.07s33.15 43.13 33.49 35.28c.32-7.54-6.84-13-9.26-41-3.06-34.63-4.8-82.35-2.06-112.54Zm88-348.3-464.65-12.52a12.69 12.69 0 0 0-12 7.68c-3.9 9.19-12.7 23.06-30.24 23.06-26.22 0-64.84-1-64.84-1s-16.21 12.16-37.67 13.83c-8.57.67-10.17 184.51 0 319.26.8 10.61 95.84 27.37 135.41 30.91 24.08 2.16 182.9 6.91 303.57 10.3 3.19.09 7.38-4.11 7.38-6.68v-35.24a16.49 16.49 0 0 0-15.91-16.49c-48.27-1.72-180.83-6.53-216.37-8.59-43.71-2.55-44-5.88 7.63-5.88 44.87 0 182.67 4.43 218.1 5.6a6.57 6.57 0 0 0 6.79-6.35 413.19 413.19 0 0 1 6.83-62.42 30.54 30.54 0 0 0-29.63-36.33c-61.51-.61-177-2.2-230.22-5.91-74.38-5.17-159.25-40.2-71.52-39.06l342.46 4.43a17 17 0 0 0 15.77-10.14 386.25 386.25 0 0 1 81.34-119 392.94 392.94 0 0 1 50-42.15 4 4 0 0 0-2.23-7.27Zm4254.4 152.67c-.07-29.56-38.4-74.5-73.95-82-93.77-19.8-292.91-25.57-374.74-27.14a3.26 3.26 0 0 0-2.2 5.72c1.1 1 2.21 1.92 3.3 2.9 36.72 32.58 65.64 70.13 85.95 111.62 18.78 38.34 29.35 79.42 30.59 118.83v1a13.17 13.17 0 0 0 10.82 10.67 234 234 0 0 0 37.69 2.67c31.94 0 164.49-2.14 190-2.14s25.17-17.87 21-28.61C5349 1890 5278 1890.22 5278 1890.22l-9.54 44.34-.4-81a13.21 13.21 0 0 1 14.27-13.24l99.61 7.91c16 1.28 21.93 13.83 21.93 32v62.94c0 14.78-9.3 22.17-25.59 22.17h-227.36c-19.67 0-44.7-9.06-57.9-9.06h-50.74a6.37 6.37 0 0 0-6.38 6.68c2 39.07 1.69 100.34-12.78 158a6.09 6.09 0 0 0 6.27 7.57c136.63-8.29 231.79-18.73 288.17-43.29 57.54-25.06 82.2-54.74 101.08-73.16s16.84-150.47 16.74-197.67Z" transform="translate(-564.51 -198.54)" style="fill:url(#G)"/><path d="M4152.28 667.08s-1.91 16.22 7 24.48 423.88 359.6 462.81 392.56 70.88 47.05 70.88 47.05l-540.69-464.09Z" transform="translate(-564.51 -198.54)" style="fill:url(#j)"/><path d="m4039.89 730.29 75.58 552c-129.66-31-254-75.3-327.4-103.46a81.17 81.17 0 0 1-51.32-64.63L3681 713.12a26.65 26.65 0 0 1 28.5-30.23c67.76 5.4 189.78 15.53 245.81 22.67q40.48 5.16 84.58 24.73Zm397.22 317.46L4199.83 838.3q-67.68-59.74-129.7-93.15l74.24 543.85c36.08 8 72.31 14.85 107.73 19.87 29.84 4.23 61.63 8.44 94.41 12.58a91 91 0 0 0 75-25c-5.2-82.28 8.98-199.99 15.6-248.7Z" transform="translate(-564.51 -198.54)" style="opacity:.7000000000000001;fill:url(#H)"/><path d="m4039.89 730.29 43.27 316c-115.84-6.69-216.75 7.61-359.89-29.06L3681 713.12a26.65 26.65 0 0 1 28.5-30.23c67.76 5.4 189.78 15.53 245.81 22.67q40.48 5.16 84.58 24.73Zm397.22 317.46L4199.83 838.3q-67.68-59.74-129.7-93.15l41.39 303.19c86.93 7.72 184.36 29.85 314.77 94.67 3.54-39.16 7.91-73.87 10.82-95.26Z" transform="translate(-564.51 -198.54)" style="opacity:.7000000000000001;fill:url(#I)"/><path d="M2289.32 580.69c-5.42 167.35-11.24 387.22-12 576.9l-1078.05-22.22a325.6 325.6 0 0 1-143-36.56c-45.1-23.49-82-44.2-109.68-61.54-52.13-32.67-54.5-43-54.58-44.33 5.19-167.13 26-331.87 34.7-403a31.45 31.45 0 0 1 31.71-27.68Zm1151.43 579.5a64.61 64.61 0 0 0 17.22-49.6l-40.35-456.15a64.31 64.31 0 0 0-63.4-59.05L2297.43 580.8c-5.42 167.35-11.25 387.28-12 577l1106.88 22.81a64.6 64.6 0 0 0 48.44-20.42Z" transform="translate(-564.51 -198.54)" style="fill:url(#J)"/><path d="M3417.62 654.44a64.31 64.31 0 0 0-63.4-59.05L2297.43 580.8c-3.2 98.67-6.53 215.62-8.88 333.87 517.54.53 975.8 17.71 1155.12 34.26Z" transform="translate(-564.51 -198.54)" style="fill:url(#i)"/><path d="M2289.32 580.69 958.45 562.31A31.45 31.45 0 0 0 926.74 590c-6.62 54-20.22 162.17-28.65 284.34C1023 907.56 1213.16 940.2 1459.36 930c269-11.19 552.8-15.49 821.08-15.3 2.35-118.32 5.68-235.3 8.88-334.01Z" transform="translate(-564.51 -198.54)" style="fill:url(#K)"/><path d="M3304.85 1302.49c10.81-1.9 48.64-1.27 62.94 0s17.48 7.63 53.4 10.18 45.14-1.59 55.31 0 25.93 7.78 26.06 18.75c.21 16.53-15.41 13.19-29.87 11.76-6.88-.68-13.43-7.15-50.39-9.85s-40.05 4-60.23 2.86-47.12-8-56.26-11.76-11.76-20.03-.96-21.94Zm333.6 43.08c9.14 3.78 36.08 10.65 56.26 11.76s23.28-5.56 60.24-2.86 43.5 9.18 50.38 9.86c14.46 1.43 30.08 4.76 29.88-11.76-.14-11-15.9-17.17-26.07-18.76s-19.39 2.54-55.31 0-39.09-8.9-53.4-10.17-52.13-1.91-62.93 0-8.19 18.15.95 21.93Zm-26.38 45.28v-35.58a7 7 0 0 0-7-7H3587a7 7 0 0 0-7 7v35.58a7 7 0 0 0 7 7h18.11a7 7 0 0 0 6.96-7Zm810.46-81.36c2.62 27.61 80.67 45.77 104-9.06 13.24-31.07 13.51-128.73 3.34-221.71-4-36.36-45.72-48-70.8-51.66a18.79 18.79 0 0 0-21.35 16c-6.59 47.83-23.22 181.5-15.19 266.43Zm-3320.78-58.17 1145 19.17a12.79 12.79 0 0 0 13-12.8V1237c0-6.67-23.2-11.76-56.58-12.39s-1101.39-19.07-1101.39-19.07Z" transform="translate(-564.51 -198.54)" style="fill:url(#L)"/><path d="m673.58 1143.56-39.45-3a6.35 6.35 0 0 0-6.8 5.85c-22.47 291.89-26.7 517.29-26.7 517.29l2.46 4.37a5.77 5.77 0 0 0 6.33 2.79c.38 0 38.82.95 64.64.95 19.45 0 24.92-24.35 25-24.59l1.42-6.58s25.58-435.61 25.58-449-36.21-46.86-52.48-48.08Z" transform="translate(-564.51 -198.54)" style="fill:url(#M)"/><path d="m692.75 1190.65-11.63-12.74a7.22 7.22 0 0 0-12.53 4.21l-14 151.83a31.14 31.14 0 0 1-18.29 25.57l-23.73 10.61c-4.67 84.35-7.6 155.38-9.4 206.44l62.43-31.21a36.81 36.81 0 0 0 20.29-30.89l16.4-297a36.73 36.73 0 0 0-9.54-26.82Z" transform="translate(-564.51 -198.54)" style="fill:url(#N)"/><path d="M681.21 1266.58c-.24 22.88-17.88 332.8-17.88 351.87s15.3 34.28 17.88 1S714 1211 714 1196.33s-24-41.72-39.09-43.55c-7.32-.89-25-1.58-41.22-2.07a7 7 0 0 0-7.13 6.42c-21.75 286.69-25.88 506.61-25.88 506.61S639 1228.91 642.12 1216s39.33 27.69 39.09 50.58Z" transform="translate(-564.51 -198.54)" style="opacity:.32;fill:url(#O)"/><path d="M5300.4 1491c-17.17-44.19-51.81-94.09-115.39-122.38-57-25.38-228.86-66.35-263.67-74.52 81.74 78.26 140.05 149.59 175.57 236.55 182.61 15.65 225.42 46.17 225.42 46.17a388.3 388.3 0 0 0-21.93-85.82Zm-18.12 23.52c-6.25-2-55.05-13.22-86.87-20.46a88.55 88.55 0 0 1-46.43-27.38l-56.47-63.25s57.16 27.57 70.09 44.81l20.73 27.63a38.38 38.38 0 0 0 20.53 14c23.27 6.41 71.05 19.63 77.15 21.79 8.1 2.85 10.65 5.87 1.27 2.85Zm-139.83-29a2.7 2.7 0 0 1-3.81-.25l-72.71-83a2.7 2.7 0 1 1 4.06-3.57l72.71 83a2.69 2.69 0 0 1-.25 3.85Zm13.14-103.24a2.71 2.71 0 0 1 3.56-1.4c2.15.93 52.93 23.09 72.39 43.28s30 60.07 30.47 61.75a2.7 2.7 0 0 1-1.94 3.29 2.65 2.65 0 0 1-.68.09 2.7 2.7 0 0 1-2.61-2c-.11-.4-10.55-40.08-29.13-59.35s-70.13-41.85-70.65-42.07a2.71 2.71 0 0 1-1.41-3.56Zm-157.8-24.83s-26-26.06-43.55-42.91c77.56 19.39 170.06 49 170.06 49l-110.6-26.92a14.32 14.32 0 0 0-15.91 20.86Zm95.42 147.41c-10.4-20.19-28.71-55.59-29.62-56.5l32.37 21.17a47.66 47.66 0 0 1 14.55 15 90.31 90.31 0 0 0 58.36 41c34 7.16 86.24 19.6 136 37.25-50.38-17.3-151.18-35.21-189.4-41.67a30.8 30.8 0 0 1-22.26-16.22Z" transform="translate(-564.51 -198.54)" style="fill:url(#P)"/><path d="M5300.4 1491c-17.17-44.19-51.81-94.09-115.39-122.38-57-25.38-228.86-66.35-263.67-74.52 60.88 58.3 108.77 112.74 143.92 172.67-26-63.34-63.56-110.09-34.73-110.23 41.77-.21 156.69 98.13 190.08 129.69 99.37 93.89 7.46-56.53 35-44.18 18.56 8.33 28.17 22.11 44.79 48.95Z" transform="translate(-564.51 -198.54)" style="opacity:.5;fill:url(#Q)"/><path d="M1581 302c-92.3 1.16-125.39 20.16-125.39 20.16 30.91-18.55 83.13-44.73 132.24-45.16 564.83-5 658.15-26 1192.7-18 102.27 1.53 166.1 53.67 197 87.8l-64.67-1.32C2894 326 2850.7 292 2777 287c-104-7-1103.7 13.84-1196 15Zm2317.13 232.22c78.37 46.72 202.51 127.51 259.87 175.46s634.13 531.37 692.3 578.83c-10.23-22.75-.42-31.56 20.13-32.13a2.31 2.31 0 0 0 1.57-3.93c-16.47-16.8-34.93-33.94-54.36-46-38.06-23.52-93.69-53.56-93.69-53.56-19.07-10.17-62.94-35.85-101.87-68.82s-453.91-384.29-462.81-392.56-7-24.48-7-24.48l-31.47-27C3986.74 525 3829.18 436.68 3569 391v21.42a5 5 0 0 0 4.21 4.92c201.93 32.5 270 84.14 324.92 116.88Zm827.3 615.4a2.73 2.73 0 0 0 1.28 3c14.24 8 70.64 39.86 92.12 51.85 19.06 10.63 39.33 28.18 57.7 45.66a30.29 30.29 0 0 0 16.25 8c46.45 7.12 117.08 34.17 161.27 50.11 77.24 27.85-244.75-116.5-244.75-116.5s307.37 120.26 388.59 160.66c62 30.82 91.85 69.12 110.15 101.37a14.27 14.27 0 0 0 9.7 7l3.49.68a1.42 1.42 0 0 0 1.55-2c-18.1-38-45.14-73.74-90.09-98.44-86.77-47.68-483.17-213.32-505.4-223.14-16-7-26.71-7.42-31.5-7.06 6.45.09 31.84 7.82 29.64 18.81Zm-2451.06 260c-702.11-28.54-1339.78-54.46-1399.68-57.65-126.32-6.74-26.6 30 101.18 38.24 56.25 3.62 644.16 28.33 1298.7 55.43a5.58 5.58 0 0 0 5.81-5.72q-.35-12.09-.65-24.86a5.59 5.59 0 0 0-5.36-5.47Zm2290.24 74.21c-168.55 36.78-250.24 128.84-289.32 177.56-3.06 3.82-5.73 7.32-8.05 10.52-17.8 19.36-34.22 20.73-59.18 20-6.88-.21-263.09-7.92-631.9-19a4.57 4.57 0 0 0-4.7 4.57v14.41a4.57 4.57 0 0 0 4.44 4.55c373.4 10.59 632.32 17.87 641.2 17.87 32.32 0 50.09-5.3 74.93-28 2.14-1.72 4.2-3.51 6.13-5.34 74.8-71.29 151.47-124.13 252.41-148.59a8.56 8.56 0 0 0 6.11-5.57c1.83-5.4 3.64-10.4 5.34-15.06 3.2-8.82 5.9-16.25 7.47-23a4.11 4.11 0 0 0-4.88-4.95Zm-2274.33 155.55a5.57 5.57 0 0 0-5.39-5.12c-146.26-4.36-290.22-8.64-427.42-12.71-29-1.51-44.11-4.77-54.39-17.47-50.37-63-159.32-153.35-332.37-153.21-211.53.18-303.57 95.39-343.12 137.92-11.06 9.63-25.18 10.47-56.79 9.63-144.51-3.81-244.16-6.93-253.22-6.93-56.27 0-87 18.86-52.77 20l299.4 9c50.55 1.52 53.84-1 63.87-6.26a86.62 86.62 0 0 0 18.49-11.45c87-71.52 177-119 321.37-117.1 160.55 2.14 259.25 86.88 329.78 143.28 7.53 6 9.26 8 14.14 10.46a28.14 28.14 0 0 0 4.33 2 22.63 22.63 0 0 0 6.18 1.88c9 2.22 23.48 4 47.49 4.67 134.55 3.8 274.45 7.76 415.94 11.78a5.57 5.57 0 0 0 5.71-6.07q-.59-6.44-1.23-14.3Zm3067-75.6c-7.48-27.8-15.36-59.63-28.42-90.75a12.3 12.3 0 0 0-8.85-7.27l-3.18-.66a1.47 1.47 0 0 0-1.6 2.1c2.57 5 4.9 9.87 7.09 14.41 17.16 35.62 19.39 99.66 15.73 110.94s-10.66-7.15-10.66-7.15l-7.42-5.29c-.39-.27-38.56-25.8-185.38-41.74 2.21.44 159.13 31.53 130.83 40.66-18.71 6-59.44 10.49-12.24 18.44s59.6 8.27 87.26 23.84c27.49 15.48 32.92 74.58 33 75.27-2-42.06-6.44-96.64-16.15-132.8ZM3563 1493.86v-27.35a4.57 4.57 0 0 0-4.37-4.55c-361.12-14.86-824.72-33.7-1264.91-51.59a5.59 5.59 0 0 0-5.8 5.72q.32 12.79.66 24.9a5.57 5.57 0 0 0 5.34 5.42c440.42 18.23 908.83 37.45 1264.4 52a4.55 4.55 0 0 0 4.68-4.55Zm-4 178.52c-356.87-10.71-815.25-24.45-1254.68-37.54a5.57 5.57 0 0 0-5.72 6q.66 7.95 1.26 14.4a5.57 5.57 0 0 0 5.39 5.06c442 12.53 897.8 25.51 1253.51 35.59a4.53 4.53 0 0 0 4.67-4.56v-14.45a4.55 4.55 0 0 0-4.49-4.5ZM889 376.16q5.7-33.54 11-53.69c-53.32-.11-85.84.2-92 1-50.54 6.67-81.09 55.6-94.41 125.87 0 0 32.43-61 138.75-71.52 6.17-.59 18.66-1.15 36.66-1.66ZM4689 1468.6a716.55 716.55 0 0 0-107.85 11.83 2.94 2.94 0 0 0-2.38 2.58c-1.09 9.44-4.62 19.15-9.09 31.44-.72 2-1.46 4-2.21 6.14a5.16 5.16 0 0 0 5.84 6.8c34.39-6.65 71.57-10.16 112.36-10.16 174 0 268.59 59.58 353.62 138.41 34.94 32.39 46.32 31.26 24.32-6.68-49.98-86.14-179.39-187.52-374.61-180.36Zm-1113.5 30.52c303.53 12.43 521.4 21.31 563.2 23 163.91 6.69 247.6-22.89 64.14-32.82-48.22-2.61-291.75-12.85-627-26.65a4.57 4.57 0 0 0-4.76 4.57v27.33a4.57 4.57 0 0 0 4.4 4.57ZM2305.06 367a8.11 8.11 0 0 0 8 8.42c456.54 3.35 881.55 9.51 1037.21 18.78 80.15 4.77 147.61 11.82 204.86 20.38a5 5 0 0 0 5.72-5v-20c-100.78-17.21-216.82-28.11-352.63-31.79-175.52-4.75-523.91-11.31-902.1-17.5-.29 7.33-.65 16.27-1.06 26.71Zm-16.28 8.25a8.11 8.11 0 0 0 8.15-7.8c.41-10.64.78-19.77 1.08-27.24-547-8.93-1154.08-17-1389.78-17.68-3.55 13.17-7.24 31.25-11 53.46 177.77-4.49 806.92-4.93 1391.55-.78Z" transform="translate(-564.51 -198.54)" style="fill:url(#o)"/><path d="m2823.22 675.58-.11 8.51-1.54 112.28-96.48-57.47-7.3-4.36-4.35 7.31-33.27 55.83-4.35 7.31 7.3 4.35 96.48 57.48-98 54.81-7.43 4.15 4.15 7.42 31.68 56.73 4.15 7.42 7.42-4.15 98-54.81-1.54 112.28-.12 8.51 8.51.11 65 .89 8.51.12.11-8.5 1.54-112.29 96.51 57.49 7.3 4.35 4.35-7.31L3043 938.2l4.35-7.31-7.3-4.35-96.48-57.47 98-54.81 7.43-4.16-4.15-7.42-31.71-56.68-4.15-7.43-7.42 4.16-98 54.81 1.54-112.29.12-8.5-8.51-.12-65-.89-8.51-.12Zm-1803.74 23.29-1.24 7.14L978 937.45l-1.71 9.82 10 .14 33.46.46 7.33.1 1.18-7.23 5.69-34.77 30.08.42 4.74 34.9 1 7.26 7.33.1 36.78.51 8.06.11 8.5.11 31.81.44 8.5.12.12-8.51.85-62.2 9.4 63.7 1.06 7.16 7.24.1 34.46.47 7.34.11 1.17-7.25 9-56-.75 54.84-.12 8.5 8.5.12 34.46.47 8.5.12.12-8.5 3.18-231.94.12-8.51-8.51-.11-50.69-.7-7.33-.1-1.18 7.24-18.3 112.29-16.64-112.84-1.06-7.17-7.24-.1-50.7-.69-8.5-.12-.12 8.5-3.13 228.51L1088.38 707l-1.05-7.18-7.25-.1-53.35-.73-7.25-.1Zm22.21 158.72 8.44-52.44 7 52.65-15.44-.21Zm263.14-154.81-.12 8.51-3.18 231.94-.11 8.5 8.5.12 57.32.78h1.52c20 0 35.61-5.5 46.5-16.36s16.42-26.34 16.74-46.27l.26-18.89c.2-14.22-2-25.69-6.74-35.05a45.74 45.74 0 0 0-12.59-15.51c11.13-9.89 16.72-25 17-45.91l.11-8.28c.28-20.61-4.52-35.75-14.67-46.29-10.37-10.75-25.74-16.13-47-16.42l-55-.75-8.5-.12ZM1357 798l.61-44.29 9.05.12c5.53.08 6.87 1.86 7.38 2.53 1.18 1.57 2.57 5.09 2.47 13l-.18 12.92c-.2 14.7-5.55 15.84-13.08 15.84h-.51L1357 798Zm-1.43 104.37.74-54.23 7.74.1c7.94.11 10.38 1.92 11.53 3.27 2.25 2.64 3.33 8.22 3.22 16.6l-.28 20.21c-.19 14.22-4.81 14.22-10.16 14.22h-.42l-12.37-.17Zm82.13-197.72-.11 8.51-2.42 176.6c-.59 42.47 22 67.14 61.92 67.68h1.34c39.1 0 61.85-24 62.42-66l2.42-176.61.12-8.5-8.5-.12-34.46-.47-8.51-.12-.11 8.5-2.45 178.93c-.19 13.89-5.77 13.89-10.24 13.89h-.35c-5.41-.08-7-1.83-7.49-2.41-1.84-2.06-2.77-6.13-2.69-11.76l2.41-178.93.12-8.5-8.5-.12-36.45-.5-8.51-.12Zm133.53 1.83-.11 8.51-3.18 231.94-.12 8.5 8.5.12 92.74 1.27 10 .14 33.47.45 7.32.1 1.19-7.23 5.69-34.76 30.08.41 4.73 34.91 1 7.26 7.32.1 36.78.5 8.06.11 8.51.12 32.8.45 8.5.12.12-8.51 1.44-105.5 27.2 108.09 1.6 6.33 6.53.09 37.44.52 8.51.11.11-8.5 3.18-231.94.12-8.5-8.5-.12-32.47-.45-8.51-.11-.11 8.5-1 76-19.74-78.51-1.59-6.35-6.55-.09-45.72-.63-8.5-.11-.12 8.5-3.13 228.5-33.63-230.35-1-7.17-7.25-.1-53.34-.73-7.25-.1-1.25 7.14-33.29 191.23-4.34-.06L1622 906l2.61-190.3.12-8.5-8.51-.12-36.44-.5-8.51-.12Zm163.29 160.65 8.44-52.43 7 52.65-15.43-.22Zm283.92-157.16c-39.09 0-61.84 24.05-62.42 66l-1.65 120.61c-.58 42.46 22 67.13 61.93 67.68h1.34c39.09 0 61.84-24 62.42-66l.42-30.81.11-8.51-8.5-.11-34.46-.48-8.5-.11-.12 8.5-.45 33.14c-.19 13.88-5.76 13.88-10.24 13.88h-.32c-4.61-.06-10.37-.14-10.18-14.17l1.72-125.25c.19-14.22 6-14.22 10.26-14.22h.32c4.38.06 10.38.14 10.18 14.5l-.34 24.85-.11 8.5 8.5.12 34.46.47 8.5.12.12-8.51.31-22.53c.28-20.82-4.87-37.32-15.32-49-10.78-12.09-26.46-18.36-46.61-18.64Zm69.34 3.59-.12 8.51-3.19 231.93-.12 8.5 8.51.12 99.4 1.36 8.5.12.12-8.51.45-33.13.12-8.5-8.5-.12-54.46-.75.7-50.92 41.53.57 8.51.12.11-8.5.46-33.14.11-8.5-8.5-.12-41.53-.57.65-47.6 54.46.74 8.5.12.11-8.5.46-33.14.12-8.5-8.51-.12-99.4-1.36-8.5-.12Z" transform="translate(-564.51 -198.54)" style="fill:url(#R)"/><path d="m1026.62 707.47-40.29 231.44 33.46.45 6.87-42 44.74.61 5.71 42.17 36.78.5L1080 708.2Zm5.11 158.53 18.84-117.06h.66l15.63 117.54ZM1236 710.34l50.7.7-3.16 231.96-34.46-.47 2.28-166.34h-.66l-26.8 166-34.46-.47-24.26-164.38h-.67l-2.24 164-31.81-.44 3.18-231.94 50.69.7 24.25 165h.66Zm161.19 110.91v-.66c16.34-7.4 23.84-22.21 24.16-46.06l.12-8.29c.49-35.78-15.51-53.57-53.28-54.08l-55-.76-3.19 231.94 57.32.79c36.45.5 55.6-18.46 56.09-54.25l.26-18.88c.33-24.52-7.01-41.86-26.46-49.75Zm-48-76.21 17.56.24c12.92.17 18.46 7.54 18.23 24.11l-.18 12.92c-.25 18.56-8.62 24.41-22.2 24.22l-14.25-.2Zm38.08 123.14-.28 20.21c-.23 17.23-6.94 22.77-19.2 22.6l-20.87-.28 1-71.24 16.23.22c16.57.23 23.44 6.95 23.14 28.49Zm133-153.94 34.46.47-2.42 176.61c-.51 37.11-19.35 58.06-55.14 57.57s-54-21.95-53.54-59.06l2.42-176.61 36.45.5-2.45 178.93c-.23 16.57 7 22.63 18.57 22.79s19-5.71 19.2-22.27Zm93 200.12 60 .82-.45 33.14-96.39-1.32 3.18-231.94 36.45.5ZM1719.43 717l-40.29 231.4 33.47.46 6.87-42 44.73.61 5.72 42.17 36.78.5-33.93-232.44Zm5.12 158.48 18.84-117.06h.66l15.62 117.53Zm185.07-155.87 32.47.44-3.18 231.95-37.44-.51L1859 782.85h-.66l-2.31 168-32.8-.45 3.18-231.94 45.73.62 34.87 139.34h.67Zm163.58 57.89-.31 22.53-34.46-.47.34-24.86c.22-16.56-7-23-18.58-23.12s-19 6-19.19 22.61l-1.72 125.24c-.23 16.57 7 22.64 18.58 22.79s19-5.7 19.19-22.27l.46-33.13 34.45.47-.42 30.82c-.51 37.11-19.35 58.06-55.14 57.57s-54.05-21.95-53.54-59.06l1.65-120.62c.51-37.11 19.36-58.07 55.14-57.58s54.05 21.97 53.55 59.08Zm23-55.37 99.41 1.37-.46 33.13-62.95-.86-.89 64.61 50 .69-.45 33.13-50-.69-.94 67.93 63 .86-.45 33.14-99.47-1.36Z" transform="translate(-564.51 -198.54)" style="fill:url(#n)"/><path style="fill:url(#S)" d="m2362.07 670.3 109.12 65.01-33.26 55.83-109.13-65.01-1.74 127.01-64.99-.89 1.75-127.01-110.87 62-31.72-56.73 110.86-62-109.12-65.01 33.26-55.84 109.13 65.02 1.74-127.01 64.99.89-1.75 127.01 110.87-62 31.72 56.73-110.86 62z"/><g style="mask:url(#T)"><path d="M1947.9 916.81q-31.82.45-63.67 1L1866 845.44l-1 72.7q-24.91.45-49.83 1l2.83-200.82.12-8.5 8.5.11 45.72.63 6.55.09 1.59 6.35 19.64 78.49 1-76 .11-8.5 8.51.11 32.47.45 8.5.12-.12 8.5Zm1093.61 10.6-1.45-.87-96.48-57.47 98-54.81 7.43-4.16-4.15-7.42-31.72-56.68-4.15-7.43-7.42 4.16-98 54.81 1.54-112.29.12-8.5-8.51-.12-65-.89-8.51-.12-.11 8.51-1.54 112.28-96.48-57.47-7.3-4.36-4.35 7.31-33.27 55.83-4.35 7.31 7.3 4.35 96.48 57.48-92.15 51.53c128.32 2.2 247.83 5.34 354.07 9.02Zm-945.24-213.78-8.5-.12-.12 8.51-2.65 193.32q58.52-.45 116.44-.6v-.82l-8.5-.12-54.46-.75.7-50.92 41.53.57 8.51.12.11-8.5.46-33.14.11-8.5-8.5-.12-41.53-.57.65-47.6 54.46.74 8.5.12.11-8.5.46-33.14.12-8.5-8.51-.12Zm-285.49 205.56q-26.71.55-53.4 1.18l-.61-4.49-30.08-.41-.93 5.67q-79.15 2-157.55 4.69l2.9-210.89.11-8.51 8.51.12 36.44.5 8.51.12-.12 8.5L1622 906l51.47.71 4.34.06 33.29-191.23 1.25-7.14 7.25.1 53.34.73 7.25.1 1 7.17Zm-60.84-51.89-7-52.65-8.44 52.43Zm-337.06-46.75a45.74 45.74 0 0 1 12.59 15.51c4.73 9.36 6.94 20.83 6.74 35.05L1432 890c-.23 17-4.38 30.86-12.31 41.25-41 1-80.3.76-117.94-.42l3-219.54.12-8.51 8.5.12 55 .75c21.25.29 36.62 5.67 47 16.42 10.15 10.54 15 25.68 14.67 46.29l-.11 8.28c-.33 20.86-5.93 36.02-17.05 45.91ZM1357 798l5.74.08h.51c7.53 0 12.88-1.14 13.08-15.84l.18-12.92c.1-7.87-1.29-11.39-2.47-13-.51-.67-1.85-2.45-7.38-2.53l-9.05-.12Zm18.58 53.51c-1.15-1.35-3.59-3.16-11.53-3.27l-7.74-.1-.74 54.23 12.37.17h.42c5.35 0 10 0 10.16-14.22l.28-20.21c.1-8.43-.98-14.01-3.23-16.65Zm177.91 74.89c4.65-9.63 7.18-21.32 7.36-34.91l2.42-176.61.12-8.5-8.5-.12-34.46-.47-8.51-.12-.11 8.5-2.45 178.93c-.19 13.89-5.77 13.89-10.24 13.89h-.35c-5.41-.08-7-1.83-7.49-2.41-1.84-2.06-2.77-6.13-2.69-11.76l2.41-178.98.12-8.5-8.5-.12-36.45-.5-8.51-.12-.11 8.51-2.42 176.6c-.23 16.38 3 30.09 9.33 40.81q7.41-.25 14.87-.56 46.8-1.96 94.15-3.61Zm-261.27 4.16 3-219.35.12-8.51-8.51-.11-50.69-.7-7.33-.1-1.18 7.24-18.3 112.29-16.58-112.92-1.06-7.17-7.24-.1-50.7-.69-8.5-.12-.12 8.5-2.85 208.3Q1146 920 1171 922.49l.59-43.26 6.49 43.94q27.59 2.58 56.74 4.47l6.48-40.09-.56 40.46q25.19 1.55 51.47 2.5Zm787.84-32.29.42-30.81.11-8.51-8.5-.11-34.46-.48-8.5-.11-.12 8.5-.45 33.14c-.19 13.88-5.76 13.88-10.24 13.88h-.32c-4.61-.06-10.37-.14-10.18-14.17l1.72-125.25c.19-14.22 6-14.22 10.26-14.22h.32c4.38.06 10.38.14 10.18 14.5l-.34 24.85-.11 8.5 8.5.12 34.46.47 8.5.12.12-8.51.31-22.53c.28-20.82-4.87-37.32-15.32-49-10.78-12.09-26.46-18.36-46.61-18.64h-1.34c-39.09 0-61.84 24.05-62.42 66l-1.65 120.61a96.84 96.84 0 0 0 1.72 20.2q61.32-.83 122.3-1.31a100.28 100.28 0 0 0 1.63-17.29ZM1119 916.71q-28.29-3.54-54.68-7.69l-.36-2.63-17.41-.24q-32.1-5.35-61.17-11.35l32.86-188.8 1.24-7.14 7.25.1 53.35.73 7.25.1 1.05 7.18Zm-61.86-58.91-7-52.65-8.44 52.44Z" transform="translate(-564.51 -198.54)" style="opacity:.30000000000000004;fill:url(#U)"/></g><path d="M706.92 1635.86c.87-15.43 3.68-65 7.09-125.76 339.85 10.79 927.56 29.45 1571.08 49.9 3.1 59.15 6.39 95 8.31 112.94a9.4 9.4 0 0 1-9.61 10.41l-551-14.85h-.82a37.33 37.33 0 0 1-23.36-6.68c-70.85-51-156.45-78.45-247.81-78.45-68.42 0-132 11.3-189.11 33.58a428.7 428.7 0 0 0-64.21 31.38 41.56 41.56 0 0 1-25.41 5.35c-.27 0-.55 0-.83-.06L711.63 1641a4.85 4.85 0 0 1-4.71-5.14Zm1595.07 41a8.12 8.12 0 0 0 7.86 7.19l1241.37 33.46a11.87 11.87 0 0 0 12.18-11.89l-.2-105-1270-40.37c3.42 64.55 7.02 101.06 8.8 116.62Zm2530.12-293.56a24.44 24.44 0 0 1-22.68 15c-.82 0-1.64 0-2.47-.12-47.17-4.44-126.44-12.1-216.51-21.6a6 6 0 0 0-6.57 5.72c-.63 20.59-2.21 67.32-4.35 92.68l496.6 20.15c-31.95-59.36-84.51-123.07-143.66-181.39l-160.23-6.2 53.51 47.23a24.53 24.53 0 0 1 6.36 28.53Zm135.39 308.64a27 27 0 0 0 18.34 5.23h1.02c35.59.68 93.71 2.17 155.76 5.29a5.37 5.37 0 0 0 5.42-6.9c-3.59-12.13-8.27-27.63-13.64-44.83l-249.18-8a425.32 425.32 0 0 1 82.28 49.21Zm-1181.15-327.12c-7.16-2-17.22-4-32.12-5.1-19.82-1.45-29.6-.43-37.53.65 8.26 2.11 22.61 4.76 43.61 5.23a209.39 209.39 0 0 0 26.04-.78Zm-1508.75-85.59L1028 1254.46a14.3 14.3 0 0 1-14-14.3v-27.69a14.3 14.3 0 0 1 14.55-14.3l1248.74 21.62v-8.71l-1500.19-58c-15.9 12.61-35.07 27.84-38.49 30.63a19 19 0 0 0-7.39 13.83c-.73 15.72-3.29 62.92-6.5 121L2279 1381.61c-.63-31.28-1.11-65.34-1.4-102.38Zm2887.68 424.41c73.59 4.13 149.51 10.63 197.82 20.83 1.22.26 2.44.55 3.66.89a6 6 0 0 0 7.59-6c-.35-10.53-.85-22.64-1.58-35.56s-16.77-25.5-72.37-27.66c-5.77-.22-62.93-2.08-160.77-5.21 5.18 16.42 9.57 31 13 42.69a14 14 0 0 0 12.65 10.02ZM3571 1434l-.34-173 422.75 16.34c80.89 24 170.12 46.19 254.9 58.21 58.94 8.36 125.42 16.64 192.17 24.38-.31 3.93-8.31 9.78-8.56 13.64-1.09 17-1.56 33.27-1.19 48.12.71 27.73 39.48 49.48 90.6 18.84 11.93-7.16 30.67-30.56 32.58-54.3.27-3.48 8.25-9 8.48-12.73l5.29.57a9 9 0 0 1 8.06 9.25c-.66 21.26-2.25 66.95-4.31 91.24Zm64.6-83.7c9.81 7.35 55.94 21.3 66.67 20.34s23.92 0 43.86 0 44.59 6.68 55.55 6.68c10.19 0 25.11-8.85 27.19-10.11l.2-.13c4.17-2.54 6.19-6.92 6.1-14.52-.14-11-15.9-17.17-26.07-18.76s-19.39 2.54-55.31 0a208.19 208.19 0 0 1-22.08-2.59c7.33-3.9 11.16-10.22 18.67-12.6 28.26-8.94 40.07 12.53 43.41 7.28 2-3.06-3.6-20.06-44.92-20.85-31.47-.61-44.68 12.32-49.19 18.53-14.8-1.23-51.59-1.82-62.22.06-10.77 1.92-11.01 22.93-1.87 26.71Zm-57.06 3.33v42.59a6.68 6.68 0 0 0 6.68 6.68h23.2a6.68 6.68 0 0 0 6.68-6.68v-42.59a6.68 6.68 0 0 0-6.68-6.68h-23.2a6.68 6.68 0 0 0-6.69 6.72ZM736.57 1175l28.15-22.37-66.05-2.55a139.74 139.74 0 0 1 10.9 9.06 123.91 123.91 0 0 1 13.33 14.27 9.7 9.7 0 0 0 13.67 1.59Zm2847.65 543.43 775.43 20.9h.07a16.9 16.9 0 0 0 12.9-5.06c43.51-45.58 93.79-80.35 148.29-103.13-274-8.73-601.17-19.15-949.6-30.23l.2 104.48a13.07 13.07 0 0 0 12.71 13.02Zm-1298.82-507 1277.14 49.38.34 172.94-1275.77-51.77c-.99-49.59-1.62-106.21-1.71-170.59ZM3303 1329.19c9.81 7.35 55.94 21.3 66.67 20.35s23.92 0 43.86 0 44.58 6.67 55.55 6.67c10.18 0 25.11-8.85 27.19-10.11h.05l.2-.12c4.17-2.55 6.19-6.93 6.09-14.53-.13-11-15.89-17.17-26.06-18.75s-19.39 2.54-55.31 0a207.79 207.79 0 0 1-22.08-2.6c7.33-3.9 11.15-10.22 18.66-12.59 28.26-9 40.08 12.52 43.42 7.28 1.95-3.07-3.6-20.07-44.93-20.86-31.46-.61-44.67 12.33-49.18 18.53-14.8-1.23-51.59-1.81-62.23.06-10.85 1.88-11.09 22.89-1.9 26.67Zm150.76 14.48c-7.16-2-17.22-4-32.12-5.1-19.83-1.45-29.61-.43-37.53.66 8.26 2.1 22.61 4.75 43.61 5.22a205.5 205.5 0 0 0 25.99-.78Z" transform="translate(-564.51 -198.54)" style="fill:url(#V)"/><path d="M3563.35 1676.92v14.45a4.53 4.53 0 0 1-4.67 4.56c-355.71-10.08-811.54-23.06-1253.51-35.59a5.57 5.57 0 0 1-5.39-5.06q-.6-6.45-1.26-14.4a5.57 5.57 0 0 1 5.72-6c439.43 13.09 897.81 26.83 1254.68 37.54a4.55 4.55 0 0 1 4.43 4.5Zm-1765.63-48c7.53 6 9.26 8 14.14 10.46a28.14 28.14 0 0 0 4.33 2 22.63 22.63 0 0 0 6.18 1.88c9 2.22 23.48 4 47.49 4.67 134.55 3.8 274.45 7.76 415.94 11.78a5.57 5.57 0 0 0 5.71-6.07q-.59-6.48-1.23-14.34a5.57 5.57 0 0 0-5.39-5.12c-146.26-4.36-290.22-8.64-427.42-12.71-29-1.51-44.11-4.77-54.39-17.47a393.94 393.94 0 0 0-61.86-61.36l-68-2.16c50.44 27.92 90.71 61.44 124.5 88.52Zm3241.55 26.69c34.94 32.39 46.32 31.26 24.32-6.68l-.32-.53-33-1.06q4.51 4.13 9 8.3Zm-1463.35 40.78c373.4 10.59 632.32 17.87 641.2 17.87 32.32 0 50.09-5.3 74.93-28 2.14-1.72 4.2-3.51 6.13-5.34a832 832 0 0 1 63.19-54.88l-54-1.71c-13 13.72-23.6 26.41-32.12 37-3.06 3.82-5.73 7.32-8.05 10.52-17.8 19.36-34.22 20.73-59.18 20-6.88-.21-263.09-7.92-631.9-19a4.57 4.57 0 0 0-4.7 4.57v14.41a4.57 4.57 0 0 0 4.5 4.59Zm1795.36-14.55c1.59 8.54 2.14 14.49 2.16 14.71-.2-4.16-.42-8.45-.67-12.83a18.69 18.69 0 0 0-1.49-1.85Zm-534-196.44c-44.07-12.32-93.61-18.84-148.32-16.83a738.79 738.79 0 0 0-82.15 7.48Zm-4072.49 126 299.4 9c50.55 1.52 53.84-1 63.87-6.26a86.62 86.62 0 0 0 18.49-11.45c36.41-29.92 73.35-55.64 114.57-75.3l-61.91-2c-33.94 23.29-56.59 47.1-71.64 63.28-11.06 9.63-25.18 10.47-56.79 9.63-144.51-3.81-244.16-6.93-253.22-6.93-56.25.12-86.96 18.98-52.75 20.09Z" transform="translate(-564.51 -198.54)" style="opacity:.2;fill:url(#W)"/></svg>